<?xml version="1.0" standalone="no"?>
<!DOCTYPE svg PUBLIC "-//W3C//DTD SVG 20010904//EN"
 "http://www.w3.org/TR/2001/REC-SVG-20010904/DTD/svg10.dtd">
<svg version="1.0" xmlns="http://www.w3.org/2000/svg"
 width="1000.000000pt" height="1000.000000pt" viewBox="0 0 1000.000000 1000.000000"
 preserveAspectRatio="xMidYMid meet">
<metadata>
Created by potrace 1.11, written by Peter Selinger 2001-2013
</metadata>
<g transform="translate(0.000000,1000.000000) scale(0.100000,-0.100000)"
fill="#000000" stroke="none">
<path d="M4308 8673 c-364 -731 -667 -1339 -673 -1353 -6 -14 -35 -72 -65
-130 -30 -58 -54 -107 -55 -110 -1 -3 -484 -972 -1074 -2155 -2066 -4139
-2441 -4893 -2441 -4909 0 -15 72 -16 773 -16 l773 0 66 138 c37 75 132 270
211 432 79 162 180 369 225 460 84 174 221 455 417 855 65 132 159 326 210
430 103 212 249 510 410 840 59 121 147 301 195 400 48 99 143 293 210 430 67
138 165 338 218 445 52 107 142 292 200 410 57 118 151 310 207 425 56 116
153 314 215 440 62 127 157 322 212 435 177 361 303 619 418 855 62 127 154
316 205 420 51 105 143 294 205 420 62 127 150 307 195 400 46 94 110 225 143
292 60 121 60 121 43 150 -10 15 -29 48 -43 73 -14 25 -70 124 -125 221 -55
96 -112 195 -125 220 -14 24 -96 168 -183 319 -153 269 -177 310 -232 408 -42
74 -47 82 -60 82 -6 0 -310 -597 -675 -1327z"/>
<path d="M6091 8019 c-10 -27 -61 -134 -301 -624 -67 -137 -153 -314 -191
-391 -37 -78 -109 -223 -158 -324 -78 -157 -89 -186 -79 -204 11 -21 407 -671
437 -716 8 -14 20 -33 26 -43 17 -29 286 -469 320 -522 18 -27 131 -212 252
-410 121 -198 350 -571 508 -830 366 -597 438 -714 456 -745 8 -14 16 -27 19
-30 3 -3 10 -14 16 -25 11 -20 22 -20 758 -21 411 0 749 2 750 5 3 4 -827
1468 -952 1681 -27 46 -459 802 -480 840 -14 25 -28 50 -32 55 -4 6 -21 35
-37 65 -46 83 -142 253 -153 270 -14 23 -70 119 -98 170 -14 25 -133 234 -265
465 -132 231 -249 436 -260 455 -11 19 -66 116 -122 215 -57 99 -112 196 -123
215 -11 19 -69 123 -130 230 -61 107 -119 206 -130 220 l-20 25 -11 -26z"/>
<path d="M3521 2556 c-5 -6 -24 -45 -44 -86 -19 -41 -67 -142 -107 -225 -40
-82 -94 -195 -120 -250 -26 -55 -81 -170 -122 -255 -42 -85 -105 -218 -142
-295 -37 -77 -79 -161 -92 -188 l-25 -47 3565 0 c2585 0 3566 3 3566 11 0 6
-25 53 -55 104 -30 52 -55 99 -55 104 0 6 -4 11 -10 11 -5 0 -10 4 -10 10 0 5
-62 116 -137 247 -75 131 -147 257 -160 281 -13 24 -48 85 -77 135 -30 51 -67
115 -83 143 -15 28 -61 109 -101 180 l-73 130 -2855 0 c-1986 0 -2857 -3
-2863 -10z"/>
</g>
</svg>
