<svg viewBox="0 0 1908 354" xmlns="http://www.w3.org/2000/svg">
    <g transform="matrix(4.16667,0,0,4.16667,0,0)">
        <path d="M42.069,0.827L0,85L13.113,85L48.655,12.349L42.069,0.827Z"/>
        <path d="M24.332,74.75L84.341,74.761L77.831,63.376L29.81,63.376L24.332,74.75Z"/>
        <path d="M51.535,17.384L45.158,30.429L62.463,58.61L75.107,58.61L51.535,17.384Z"/>
        <path d="M116.802,25.631C117.484,24.843 117.826,23.916 117.826,22.853C117.826,21.905 117.473,21.077 116.77,20.364C116.065,19.654 115.231,19.298 114.27,19.298L106.494,19.298L106.494,26.818L114.313,26.818C115.291,26.818 116.119,26.422 116.802,25.631ZM114.108,13.04C114.835,12.33 115.197,11.501 115.197,10.553C115.197,9.49 114.835,8.563 114.108,7.773C113.383,6.984 112.503,6.588 111.469,6.588L106.494,6.588L106.494,14.106L111.469,14.106C112.503,14.106 113.383,13.752 114.108,13.04ZM99.922,32.417L99.922,0.989L111.469,0.989C114.328,0.989 116.764,1.878 118.783,3.66C120.8,5.44 121.81,7.637 121.81,10.251C121.81,12.621 120.84,14.394 118.903,15.571C120.38,16.131 121.66,17.137 122.737,18.588C123.814,20.039 124.352,21.562 124.352,23.155C124.352,25.77 123.35,27.966 121.346,29.747C119.342,31.528 116.927,32.417 114.097,32.417L99.922,32.417Z"/>
        <path d="M130.455,29.943C128.223,27.961 127.105,25.664 127.105,23.048L127.105,0.989L133.676,0.989L133.676,21.95C133.676,23.501 134.251,24.741 135.399,25.666C136.547,26.592 138.013,27.056 139.796,27.056C141.301,27.056 142.703,26.632 143.996,25.786C145.288,24.937 145.933,23.66 145.933,21.95L145.933,0.989L152.483,0.989L152.483,23.048C152.483,25.836 151.3,28.176 148.939,30.072C146.576,31.967 143.529,32.915 139.796,32.915C135.802,32.915 132.689,31.924 130.455,29.943Z"/>
        <rect x="157.416" y="0.989" width="6.571" height="31.428"/>
        <path d="M190.377,32.417L168.92,32.417L168.92,0.989L175.491,0.989L175.491,26.818L190.377,26.818L190.377,32.417Z"/>
        <path d="M211.344,23.855C213.282,21.88 214.252,19.493 214.252,16.691C214.252,13.906 213.285,11.526 211.355,9.551C209.422,7.576 207.086,6.588 204.341,6.588L199.926,6.588L199.926,26.818L204.341,26.818C207.07,26.818 209.405,25.83 211.344,23.855ZM193.355,32.417L193.355,0.989L204.341,0.989C208.895,0.989 212.779,2.522 215.998,5.586C219.214,8.653 220.823,12.354 220.823,16.691C220.823,21.03 219.214,24.735 215.998,27.809C212.779,30.881 208.895,32.417 204.341,32.417L193.355,32.417Z"/>
        <path d="M224.36,32.417L224.36,0.989L245.903,0.989L245.903,6.588L230.931,6.588L230.931,14.106L243.362,14.106L243.362,19.298L230.931,19.298L230.931,26.818L245.903,26.818L245.903,32.417L224.36,32.417Z"/>
        <path d="M290.512,33.344C287.969,33.344 285.485,32.802 283.058,31.718C280.63,30.634 278.779,29.115 277.5,27.161L281.832,23.134C282.735,24.454 284.017,25.51 285.676,26.301C287.335,27.09 288.946,27.485 290.512,27.485C292.078,27.485 293.369,27.154 294.389,26.494C295.409,25.833 295.919,24.964 295.919,23.887C295.919,23.184 295.618,22.556 295.015,22.003C294.41,21.451 293.464,20.98 292.171,20.592L284.76,18.352C282.865,17.763 281.342,16.851 280.192,15.614C279.044,14.38 278.469,12.686 278.469,10.532C278.469,7.903 279.647,5.656 282.003,3.789C284.357,1.922 287.195,0.989 290.512,0.989C292.997,0.989 295.219,1.395 297.179,2.205C299.139,3.018 300.817,4.27 302.209,5.964L297.491,9.886C296.759,8.88 295.829,8.118 294.702,7.601C293.575,7.084 292.242,6.827 290.705,6.827C289.442,6.827 288.318,7.159 287.335,7.828C286.35,8.496 285.858,9.369 285.858,10.446C285.844,11.135 286.016,11.709 286.376,12.168C286.735,12.628 287.281,12.965 288.012,13.181L296.414,15.81C298.583,16.455 300.262,17.432 301.456,18.738C302.647,20.046 303.257,21.733 303.286,23.801C303.286,26.43 302.066,28.677 299.624,30.544C297.183,32.41 294.145,33.344 290.512,33.344Z"/>
        <path d="M379.074,29.943C376.84,27.961 375.722,25.664 375.722,23.048L375.722,0.989L382.294,0.989L382.294,21.95C382.294,23.501 382.868,24.741 384.016,25.666C385.166,26.592 386.63,27.056 388.413,27.056C389.919,27.056 391.32,26.632 392.613,25.786C393.905,24.937 394.55,23.66 394.55,21.95L394.55,0.989L401.1,0.989L401.1,23.048C401.1,25.836 399.919,28.176 397.556,30.072C395.193,31.967 392.146,32.915 388.413,32.915C384.42,32.915 381.306,31.924 379.074,29.943Z"/>
        <path d="M416.61,33.344C414.068,33.344 411.583,32.802 409.157,31.718C406.729,30.634 404.878,29.115 403.598,27.161L407.929,23.134C408.833,24.454 410.116,25.51 411.774,26.301C413.432,27.09 415.045,27.485 416.61,27.485C418.175,27.485 419.467,27.154 420.487,26.494C421.506,25.833 422.016,24.964 422.016,23.887C422.016,23.184 421.716,22.556 421.113,22.003C420.508,21.451 419.562,20.98 418.268,20.592L410.858,18.352C408.964,17.763 407.441,16.851 406.291,15.614C405.142,14.38 404.568,12.686 404.568,10.532C404.568,7.903 405.745,5.656 408.101,3.789C410.456,1.922 413.293,0.989 416.61,0.989C419.095,0.989 421.317,1.395 423.278,2.205C425.237,3.018 426.915,4.27 428.307,5.964L423.589,9.886C422.857,8.88 421.927,8.118 420.8,7.601C419.672,7.084 418.34,6.827 416.803,6.827C415.54,6.827 414.417,7.159 413.432,7.828C412.449,8.496 411.957,9.369 411.957,10.446C411.942,11.135 412.114,11.709 412.473,12.168C412.834,12.628 413.379,12.965 414.111,13.181L422.512,15.81C424.68,16.455 426.361,17.432 427.553,18.738C428.746,20.046 429.355,21.733 429.384,23.801C429.384,26.43 428.164,28.677 425.721,30.544C423.282,32.41 420.244,33.344 416.61,33.344Z"/>
        <path d="M288.3,72.701L287.421,72.701L287.421,68.798L285.852,71.01L285.355,71.01L283.787,68.798L283.787,72.701L282.907,72.701L282.907,67.116L283.61,67.116L285.6,69.939L287.589,67.116L288.3,67.116L288.3,72.701ZM280.252,72.701L279.365,72.701L279.365,67.912L277.582,67.912L277.582,67.116L282.043,67.116L282.043,67.912L280.252,67.912L280.252,72.701Z"/>
        <path d="M277.881,32.373L272.773,25.966L268.381,20.42C270.278,19.758 271.883,18.72 273.198,17.307C274.511,15.892 275.168,13.87 275.168,11.242C275.168,8.154 274.084,5.672 271.916,3.799C269.747,1.924 267.183,0.989 264.224,0.989L250.566,0.989L250.566,32.417L257.137,32.417L257.137,6.588L263.795,6.588C265.072,6.588 266.203,6.98 267.187,7.762C268.171,8.546 268.663,9.705 268.663,11.242C268.663,12.765 268.171,13.916 267.187,14.7C266.434,15.298 265.594,15.664 264.671,15.805C264.386,15.848 264.095,15.874 263.795,15.874L257.591,15.874L263.343,23.087L270.783,32.417L277.881,32.417L277.86,32.39L277.881,32.373Z"/>
        <path d="M375.086,32.373L369.977,25.966L365.586,20.42C367.482,19.758 369.087,18.72 370.402,17.307C371.715,15.892 372.372,13.87 372.372,11.242C372.372,8.154 371.288,5.672 369.119,3.799C366.951,1.924 364.387,0.989 361.427,0.989L347.77,0.989L347.77,32.417L354.341,32.417L354.341,6.588L360.999,6.588C362.276,6.588 363.407,6.98 364.39,7.762C365.375,8.546 365.867,9.705 365.867,11.242C365.867,12.765 365.375,13.916 364.39,14.7C363.638,15.298 362.798,15.664 361.875,15.805C361.59,15.848 361.299,15.874 360.999,15.874L354.795,15.874L360.547,23.087L367.987,32.417L375.086,32.417L375.064,32.39L375.086,32.373Z"/>
        <path d="M328.367,32.417L328.367,6.567L318.951,6.567L316.781,0.989L344.352,0.989L344.352,6.567L334.938,6.567L334.938,32.417L328.367,32.417Z"/>
        <path d="M439.803,32.417L439.803,6.567L430.389,6.567L430.389,0.989L457.962,0.989L455.791,6.567L446.375,6.567L446.375,32.417L439.803,32.417Z"/>
        <path d="M115.647,73.67C110.893,73.67 106.958,72.09 103.842,68.931C100.726,65.772 99.167,61.952 99.167,57.47C99.167,53.004 100.726,49.188 103.842,46.022C106.958,42.855 110.893,41.272 115.647,41.272C120.129,41.272 123.956,42.844 127.13,45.99L122.693,50.254C120.739,48.301 118.39,47.325 115.647,47.325C112.876,47.325 110.562,48.315 108.711,50.297C106.857,52.28 105.932,54.67 105.932,57.47C105.932,60.287 106.857,62.683 108.711,64.665C110.562,66.648 112.876,67.639 115.647,67.639C118.39,67.639 120.739,66.663 122.693,64.709L127.13,68.974C123.956,72.105 120.129,73.67 115.647,73.67Z"/>
        <path d="M173.172,56.157C174.45,56.157 175.581,55.765 176.564,54.983C177.548,54.2 178.041,53.047 178.041,51.525C178.041,49.988 177.548,48.829 176.564,48.045C175.581,47.263 174.45,46.872 173.172,46.872L166.515,46.872L166.515,56.157L173.172,56.157ZM166.515,72.701L159.922,72.701L159.922,41.272L173.58,41.272C176.54,41.272 179.107,42.207 181.282,44.082C183.458,45.956 184.546,48.437 184.546,51.525C184.546,54.513 183.486,56.963 181.368,58.881C179.25,60.799 176.654,61.758 173.58,61.758L166.515,61.758L166.515,72.701Z"/>
        <rect x="187.963" y="41.272" width="6.572" height="31.429"/>
        <path d="M207.367,72.701L207.367,46.85L197.953,46.85L197.953,41.272L225.524,41.272L223.354,46.85L213.938,46.85L213.938,72.701L207.367,72.701Z"/>
        <path d="M272.023,72.701L250.566,72.701L250.566,41.272L257.137,41.272L257.137,67.101L272.023,67.101L272.023,72.701Z"/>
        <path d="M146.125,60.441L142.894,50.856L139.685,60.441L146.125,60.441ZM147.903,65.58L137.907,65.58L135.391,72.91L127.715,72.91L140.661,41.272L145.171,41.272L158.117,72.91L150.419,72.91L147.903,65.58Z"/>
        <path d="M235.716,60.441L232.485,50.856L229.276,60.441L235.716,60.441ZM237.495,65.58L227.498,65.58L224.982,72.91L217.306,72.91L230.252,41.272L234.762,41.272L247.708,72.91L240.009,72.91L237.495,65.58Z"/>
    </g>
</svg>
