<?xml version="1.0" encoding="UTF-8"?>
<svg xmlns="http://www.w3.org/2000/svg" xmlns:xlink="http://www.w3.org/1999/xlink" version="1.2" >
<font id="Guerrer Extralight Oblique">
<font-face  font-family="Guerrer" units-per-em="2048" ascent="1458" descent="-405" font-style="italic" font-weight="100" font-stretch="normal" slope="-10" cap-height="1457" x-height="1057" underline-position="-217" underline-thickness="150" />
<missing-glyph  horiz-adv-x="1024" d="" />
<glyph glyph-name="&amp;#x0;" d="" />
<glyph glyph-name="&amp;#x1d;" unicode="&#x1d;" d="" />
<glyph glyph-name="&amp;#x20;" unicode="&#x20;" horiz-adv-x="524" d="" />
<glyph glyph-name="&amp;#xa0;" unicode="&#xa0;" horiz-adv-x="524" d="" />
<glyph glyph-name="exclam" unicode="&#x21;" horiz-adv-x="675" d="M524 1480 L416 1480 L225 340 L313 340 L524 1480 Z M205 -23 C226 -23 246 -15 266 2 C285 18 295 39 295 64 C295 95 272 125 231 125 C210 125 190 117 171 101 C151 84 141 63 141 38 C141 7 162 -23 205 -23 L205 -23 Z " />
<glyph glyph-name="quotedbl" unicode="&#x22;" horiz-adv-x="427" d="M501 1480 L405 1480 L344 1044 L409 1044 L501 1480 Z M287 1480 L192 1480 L130 1044 L195 1044 L287 1480 Z " />
<glyph glyph-name="numbersign" unicode="&#x23;" horiz-adv-x="1293" d="M354 476 L581 982 L959 982 L732 476 L354 476 Z M793 400 L1132 400 L1146 476 L827 476 L1054 982 L1235 982 L1249 1059 L1088 1059 L1277 1481 L1183 1481 L993 1059 L615 1059 L804 1481 L709 1481 L520 1059 L160 1059 L147 982 L486 982 L259 476 L58 476 L44 400 L224 400 L35 -23 L130 -23 L319 400 L698 400 L508 -23 L603 -23 L793 400 Z " />
<glyph glyph-name="dollar" unicode="&#x24;" horiz-adv-x="1292" d="M558 -23 C715 -14 857 33 985 118 C1113 203 1177 314 1177 452 C1177 521 1156 576 1115 617 C1074 658 1017 689 944 712 C871 735 791 753 704 767 C583 784 482 810 403 845 C324 880 284 938 284 1019 C284 1132 336 1222 441 1287 C545 1352 656 1385 773 1385 C868 1385 953 1367 1028 1332 C1103 1296 1154 1248 1181 1189 L1271 1248 C1194 1385 1044 1461 822 1476 L856 1665 L767 1665 L734 1474 C591 1462 462 1415 345 1333 C228 1251 169 1140 169 1001 C169 935 189 881 229 839 C269 797 326 765 401 742 C475 719 555 700 642 686 C763 669 864 643 943 608 C1022 573 1062 515 1062 434 C1062 322 1005 233 891 167 C777 101 660 68 539 68 C432 68 332 92 239 139 C145 186 88 246 69 321 L-21 269 C0 188 57 122 151 70 C244 17 351 -13 470 -22 L437 -208 L525 -208 L558 -23 Z " />
<glyph glyph-name="percent" unicode="&#x25;" horiz-adv-x="1890" d="M1575 1481 L1463 1481 L316 -23 L427 -23 L1575 1481 Z M508 816 C427 816 365 841 323 891 C281 941 260 995 260 1052 C260 1140 296 1219 369 1289 C442 1358 522 1393 609 1393 C690 1393 752 1368 794 1319 C835 1269 856 1215 856 1158 C856 1069 820 990 748 921 C675 851 595 816 508 816 L508 816 Z M492 729 C604 729 708 771 803 854 C898 937 946 1044 946 1174 C946 1249 919 1319 865 1384 C810 1449 730 1481 625 1481 C513 1481 409 1438 314 1351 C218 1264 170 1159 170 1037 C170 962 197 892 252 827 C307 762 387 729 492 729 L492 729 Z M1282 64 C1201 64 1139 89 1097 139 C1055 189 1034 243 1034 300 C1034 388 1070 467 1143 537 C1216 606 1296 641 1383 641 C1464 641 1526 616 1568 567 C1609 517 1630 463 1630 406 C1630 311 1594 230 1522 164 C1449 97 1369 64 1282 64 L1282 64 Z M1266 -23 C1385 -23 1490 20 1582 107 C1674 194 1720 299 1720 422 C1720 497 1693 567 1639 632 C1584 697 1504 729 1399 729 C1286 729 1182 686 1087 599 C992 512 944 407 944 285 C944 210 971 140 1026 75 C1081 10 1161 -23 1266 -23 L1266 -23 Z " />
<glyph glyph-name="ampersand" unicode="&#x26;" horiz-adv-x="1431" d="M472 68 C343 68 256 95 211 148 C165 201 142 259 142 320 C142 418 186 502 274 573 L487 750 L925 267 C792 134 641 68 472 68 L472 68 Z M456 -23 C551 -23 645 -5 738 32 C831 68 912 124 983 200 L1164 0 L1293 0 L1050 272 L1395 660 L1277 660 L991 339 L488 896 C437 953 412 1013 412 1075 C412 1164 450 1239 527 1300 C604 1360 696 1390 803 1390 C898 1390 969 1363 1017 1310 C1064 1257 1088 1204 1088 1151 C1088 1139 1087 1127 1085 1115 L1184 1115 C1187 1136 1189 1155 1189 1174 C1189 1251 1157 1321 1093 1385 C1029 1449 938 1481 819 1481 C670 1481 548 1441 454 1361 C360 1280 313 1179 312 1057 C312 977 356 900 432 817 L217 637 C100 541 41 429 41 301 C41 221 71 147 132 79 C192 11 300 -23 456 -23 L456 -23 Z " />
<glyph glyph-name="quotesingle" unicode="&#x27;" horiz-adv-x="213" d="M287 1480 L192 1480 L130 1044 L195 1044 L287 1480 Z " />
<glyph glyph-name="parenleft" unicode="&#x28;" horiz-adv-x="457" d="M245 -426 C200 -279 177 -129 176 25 C176 196 191 365 220 531 C249 696 295 867 358 1042 C420 1217 495 1363 582 1481 L482 1481 C331 1240 226 991 169 732 C112 473 83 247 83 53 C83 -135 104 -295 146 -426 L245 -426 Z " />
<glyph glyph-name="parenright" unicode="&#x29;" horiz-adv-x="456" d="M141 1481 C186 1334 209 1184 210 1030 C210 859 195 690 166 525 C137 359 91 189 29 14 C-34 -162 -109 -308 -196 -426 L-96 -426 C55 -185 160 64 217 323 C274 582 303 808 303 1002 C303 1190 282 1350 240 1481 L141 1481 Z " />
<glyph glyph-name="asterisk" unicode="&#x2a;" horiz-adv-x="590" d="M529 1085 L436 1232 L629 1283 L618 1358 L427 1293 L468 1481 L388 1481 L363 1293 L195 1358 L157 1283 L332 1232 L188 1085 L244 1038 L378 1195 L456 1038 L529 1085 Z " />
<glyph glyph-name="plus" unicode="&#x2b;" horiz-adv-x="1293" d="M684 691 L1089 691 L1103 767 L697 767 L768 1170 L680 1170 L609 767 L203 767 L190 691 L595 691 L524 288 L613 288 L684 691 Z " />
<glyph glyph-name="comma" unicode="&#x2c;" horiz-adv-x="371" d="M-153 -301 C-54 -209 21 -137 70 -84 C119 -31 143 19 143 66 C143 99 120 125 79 125 C43 125 4 94 4 53 C4 26 24 3 24 -13 C24 -24 13 -46 -9 -81 C-31 -116 -88 -178 -181 -269 L-153 -301 Z " />
<glyph glyph-name="&amp;#x2d;" unicode="&#x2d;" horiz-adv-x="777" d="M639 572 L83 572 L67 485 L624 485 L639 572 Z " />
<glyph glyph-name="&amp;#xad;" unicode="&#xad;" horiz-adv-x="777" d="M639 572 L83 572 L67 485 L624 485 L639 572 Z " />
<glyph glyph-name="period" unicode="&#x2e;" horiz-adv-x="371" d="M53 -23 C74 -23 94 -15 114 2 C133 18 143 39 143 64 C143 95 120 125 79 125 C58 125 38 117 19 101 C-1 84 -11 63 -11 38 C-11 7 10 -23 53 -23 L53 -23 Z " />
<glyph glyph-name="slash" unicode="&#x2f;" horiz-adv-x="634" d="M702 1481 L598 1481 L-67 -23 L37 -23 L702 1481 Z " />
<glyph glyph-name="zero" unicode="0" horiz-adv-x="1292" d="M531 73 C304 73 179 216 179 504 C179 725 227 927 324 1110 C420 1293 566 1384 762 1384 C881 1384 969 1349 1026 1279 C1083 1208 1112 1091 1112 927 C1112 724 1061 531 959 348 C857 165 714 73 531 73 L531 73 Z M514 -23 C739 -23 913 79 1036 284 C1159 489 1221 709 1221 946 C1221 1297 1067 1480 779 1480 C550 1480 375 1379 253 1177 C131 974 70 754 70 517 C70 160 213 -23 514 -23 L514 -23 Z " />
<glyph glyph-name="one" unicode="1" horiz-adv-x="1292" d="M991 90 L588 90 L829 1458 L721 1458 L279 1229 L311 1151 L703 1354 L480 90 L77 90 L61 -1 L975 -1 L991 90 Z " />
<glyph glyph-name="two" unicode="2" horiz-adv-x="1292" d="M1034 90 L228 90 L1065 824 C1173 913 1227 1019 1227 1140 C1227 1228 1190 1307 1116 1377 C1041 1446 926 1481 770 1481 C533 1481 350 1400 221 1238 L288 1179 C393 1315 547 1383 749 1383 C874 1383 965 1356 1022 1302 C1079 1247 1107 1187 1107 1121 C1107 1034 1069 958 993 893 L54 75 L41 -1 L1018 -1 L1034 90 Z " />
<glyph glyph-name="three" unicode="3" horiz-adv-x="1293" d="M488 -23 C657 -23 805 22 930 112 C1055 202 1118 307 1118 427 C1118 486 1095 546 1048 605 C1001 664 929 706 833 729 C936 752 1023 802 1093 878 C1163 953 1198 1044 1198 1149 C1198 1233 1164 1309 1096 1378 C1027 1447 915 1481 759 1481 C536 1481 362 1399 238 1235 L306 1173 C405 1313 549 1383 737 1383 C865 1383 956 1357 1009 1304 C1062 1251 1088 1193 1088 1129 C1088 1024 1042 939 950 874 C858 809 748 776 620 776 L514 776 L498 682 L604 682 C734 682 834 655 905 601 C975 547 1010 486 1010 419 C1010 326 959 246 858 178 C757 109 638 75 501 75 C400 75 318 95 255 135 C191 174 145 224 118 285 L29 223 C99 59 252 -23 488 -23 L488 -23 Z " />
<glyph glyph-name="four" unicode="4" horiz-adv-x="1291" d="M943 299 L1127 299 L1142 389 L959 389 L1024 757 L920 757 L855 389 L158 389 L984 1458 L856 1458 L27 384 L12 299 L839 299 L786 -1 L890 -1 L943 299 Z " />
<glyph glyph-name="five" unicode="5" horiz-adv-x="1293" d="M496 -24 C651 -24 797 29 934 135 C1071 240 1139 382 1139 560 C1139 661 1100 753 1023 837 C946 921 829 963 674 963 L365 963 L437 1368 L1177 1368 L1192 1458 L345 1458 L240 865 L652 865 C780 865 875 831 937 763 C999 694 1030 620 1030 540 C1030 409 977 299 871 209 C764 119 644 74 509 74 C324 74 193 149 118 298 L30 239 C136 64 291 -24 496 -24 L496 -24 Z " />
<glyph glyph-name="six" unicode="6" horiz-adv-x="1291" d="M534 74 C406 74 310 108 246 177 C182 245 150 320 150 402 C150 531 204 641 311 731 C418 820 538 865 673 865 C801 865 896 831 958 763 C1019 695 1050 621 1050 540 C1050 403 996 291 888 204 C780 117 662 74 534 74 L534 74 Z M516 -23 C679 -23 826 31 959 138 C1092 245 1159 386 1160 560 C1160 661 1121 753 1044 837 C967 921 850 963 694 963 C596 963 492 928 382 859 L888 1458 L759 1458 L221 809 C101 662 41 521 41 384 C41 281 81 187 162 103 C243 19 361 -23 516 -23 L516 -23 Z " />
<glyph glyph-name="seven" unicode="7" horiz-adv-x="1293" d="M1246 1372 L1261 1458 L287 1458 L271 1368 L1125 1368 L231 -1 L353 -1 L1246 1372 Z " />
<glyph glyph-name="eight" unicode="8" horiz-adv-x="1292" d="M529 67 C400 67 307 97 249 156 C191 215 162 279 162 348 C162 463 211 557 308 630 C405 703 519 739 648 739 C777 739 870 710 928 651 C986 592 1015 527 1015 458 C1015 343 966 250 869 177 C771 104 658 67 529 67 L529 67 Z M662 823 C560 823 485 848 436 898 C387 948 363 1003 363 1062 C363 1157 404 1236 486 1298 C568 1359 660 1390 762 1390 C865 1390 940 1365 989 1315 C1038 1265 1062 1211 1062 1152 C1062 1056 1021 977 939 916 C857 854 765 823 662 823 L662 823 Z M513 -23 C687 -23 832 25 949 121 C1066 216 1124 333 1124 472 C1124 531 1107 590 1072 649 C1037 708 971 753 873 784 C1072 871 1171 999 1171 1168 C1171 1245 1139 1317 1075 1382 C1010 1447 911 1480 778 1480 C631 1480 507 1437 406 1351 C305 1265 254 1163 254 1046 C254 934 315 847 438 784 C329 753 238 698 164 619 C89 540 52 444 52 331 C52 243 89 162 162 88 C235 14 352 -23 513 -23 L513 -23 Z " />
<glyph glyph-name="nine" unicode="9" horiz-adv-x="1291" d="M619 592 C491 592 396 626 334 694 C272 762 241 836 241 916 C242 1041 294 1150 395 1243 C496 1336 617 1383 758 1383 C886 1383 982 1349 1046 1281 C1110 1212 1142 1138 1142 1057 C1141 926 1088 816 981 727 C874 637 754 592 619 592 L619 592 Z M1071 648 C1191 795 1251 937 1251 1073 C1251 1176 1211 1270 1130 1354 C1049 1438 931 1480 775 1480 C600 1480 449 1423 322 1309 C195 1194 132 1057 132 897 C132 796 171 704 248 620 C325 536 442 494 597 494 C696 494 800 529 910 598 L403 -1 L533 -1 L1071 648 Z " />
<glyph glyph-name="colon" unicode="&#x3a;" horiz-adv-x="371" d="M53 -23 C74 -23 94 -15 114 2 C133 18 143 39 143 64 C143 95 120 125 79 125 C58 125 38 117 19 101 C-1 84 -11 63 -11 38 C-11 7 10 -23 53 -23 L53 -23 Z M221 932 C264 932 311 967 311 1019 C311 1050 289 1081 248 1081 C205 1081 158 1045 158 992 C158 963 180 932 221 932 L221 932 Z " />
<glyph glyph-name="&amp;#x3b;" unicode="&#x3b;" horiz-adv-x="371" d="M-157 -324 C-58 -232 17 -160 66 -107 C115 -54 139 -3 139 45 C139 84 118 103 75 103 C39 103 0 71 0 30 C0 3 20 -20 20 -36 C20 -47 9 -69 -14 -104 C-37 -139 -94 -201 -185 -292 L-157 -324 Z M221 932 C264 932 311 967 311 1019 C311 1050 290 1081 247 1081 C226 1081 206 1073 187 1057 C168 1040 158 1018 158 991 C158 963 180 932 221 932 L221 932 Z " />
<glyph glyph-name="&amp;#x37e;" unicode="&#x37e;" horiz-adv-x="371" d="M-157 -324 C-58 -232 17 -160 66 -107 C115 -54 139 -3 139 45 C139 84 118 103 75 103 C39 103 0 71 0 30 C0 3 20 -20 20 -36 C20 -47 9 -69 -14 -104 C-37 -139 -94 -201 -185 -292 L-157 -324 Z M221 932 C264 932 311 967 311 1019 C311 1050 290 1081 247 1081 C226 1081 206 1073 187 1057 C168 1040 158 1018 158 991 C158 963 180 932 221 932 L221 932 Z " />
<glyph glyph-name="less" unicode="&#x3c;" horiz-adv-x="1293" d="M1059 436 L310 729 L1162 1021 L1178 1114 L190 771 L175 686 L1042 344 L1059 436 Z " />
<glyph glyph-name="equal" unicode="&#x3d;" horiz-adv-x="1293" d="M1151 959 L223 959 L207 872 L1135 872 L1151 959 Z M1085 586 L157 586 L142 499 L1070 499 L1085 586 Z " />
<glyph glyph-name="greater" unicode="&#x3e;" horiz-adv-x="1293" d="M1103 686 L1118 771 L250 1114 L234 1021 L982 729 L131 436 L114 344 L1103 686 Z " />
<glyph glyph-name="question" unicode="&#x3f;" horiz-adv-x="1160" d="M615 696 C757 705 885 748 999 825 C1112 902 1169 1007 1169 1141 C1169 1229 1130 1308 1052 1377 C973 1446 856 1480 700 1480 C463 1480 279 1398 148 1234 L217 1173 C323 1313 477 1383 679 1383 C807 1383 902 1356 965 1303 C1028 1250 1059 1190 1059 1124 C1059 1026 1014 946 924 885 C834 823 729 787 610 777 C570 774 535 746 527 702 L465 340 L552 340 L615 696 Z M444 -23 C487 -23 534 12 534 65 C534 94 512 125 471 125 C428 125 381 90 381 37 C381 8 403 -23 444 -23 L444 -23 Z " />
<glyph glyph-name="at" unicode="&#x40;" horiz-adv-x="1711" d="M829 502 C776 502 731 519 696 554 C661 589 643 633 643 687 C643 757 671 819 726 874 C781 929 843 956 913 956 C966 956 1010 939 1045 905 C1080 871 1097 826 1098 771 C1098 742 1092 706 1079 664 C1066 621 1037 584 991 551 C944 518 890 502 829 502 L829 502 Z M892 -25 C1205 -25 1440 126 1596 428 L1502 428 C1362 177 1159 51 892 51 C703 51 543 117 410 249 C277 381 210 540 210 726 C210 913 277 1072 410 1204 C543 1336 703 1402 892 1402 C1079 1402 1229 1348 1340 1240 C1451 1132 1506 1003 1506 852 C1506 789 1482 715 1435 630 C1387 545 1313 502 1214 502 C1177 502 1141 529 1141 580 C1141 588 1142 595 1143 600 L1217 1015 L1140 1015 L1121 904 C1070 985 1000 1026 912 1026 C821 1026 741 991 671 920 C601 849 566 769 566 678 C566 607 589 549 636 503 C682 456 740 433 811 433 C915 433 1005 477 1082 564 C1082 477 1125 434 1210 434 C1339 434 1434 483 1495 582 C1556 681 1587 771 1587 852 C1587 1024 1524 1172 1398 1295 C1271 1418 1103 1479 892 1479 C681 1479 501 1406 352 1259 C203 1112 128 934 128 726 C128 519 203 343 352 196 C501 49 681 -25 892 -25 L892 -25 Z " />
<glyph glyph-name="A" unicode="A" horiz-adv-x="1481" d="M908 1457 L828 1457 L-50 -2 L83 -2 L369 491 L1047 491 L1159 -2 L1272 -2 L908 1457 Z M417 574 L856 1330 L1028 574 L417 574 Z " />
<glyph glyph-name="B" unicode="B" horiz-adv-x="1396" d="M314 771 L419 1366 L862 1366 C949 1366 1015 1338 1060 1283 C1104 1227 1126 1167 1126 1104 C1126 1001 1086 920 1007 861 C928 801 844 771 757 771 L314 771 Z M194 89 L299 684 L862 684 C946 684 1012 660 1059 612 C1106 563 1129 511 1129 455 C1129 364 1091 280 1014 204 C937 127 854 89 763 89 L194 89 Z M745 -2 C866 -2 978 45 1081 138 C1184 231 1235 338 1235 460 C1235 523 1211 584 1162 644 C1113 703 1044 740 956 753 C1142 831 1235 954 1235 1121 C1235 1204 1205 1280 1144 1351 C1083 1422 995 1457 878 1457 L329 1457 L72 -2 L745 -2 L745 -2 Z " />
<glyph glyph-name="C" unicode="C" horiz-adv-x="1489" d="M754 -24 C965 -24 1158 47 1333 189 L1274 258 C1121 133 954 71 771 71 C586 71 445 128 350 242 C255 355 207 477 207 608 C208 829 292 1014 457 1162 C622 1310 804 1384 1003 1384 C1186 1384 1331 1322 1439 1197 L1523 1266 C1398 1409 1230 1480 1020 1480 C777 1480 562 1392 377 1215 C191 1038 98 830 98 591 C98 441 153 301 264 171 C375 41 538 -24 754 -24 L754 -24 Z " />
<glyph glyph-name="D" unicode="D" horiz-adv-x="1548" d="M419 1366 L792 1366 C973 1366 1110 1311 1203 1201 C1296 1090 1343 972 1343 845 C1340 629 1257 449 1092 306 C927 162 752 90 567 90 L194 89 L419 1366 Z M551 -2 C780 -2 987 83 1172 252 C1357 421 1449 623 1450 859 C1450 1005 1395 1141 1286 1268 C1177 1394 1018 1457 809 1457 L329 1457 L72 -2 L551 -2 L551 -2 Z " />
<glyph glyph-name="E" unicode="E" horiz-adv-x="1264" d="M1041 90 L194 90 L299 683 L1026 683 L1042 771 L314 771 L419 1366 L1266 1366 L1282 1457 L329 1457 L72 -2 L1025 -2 L1041 90 Z " />
<glyph glyph-name="F" unicode="F" horiz-adv-x="1213" d="M299 683 L1027 683 L1042 771 L314 771 L419 1366 L1267 1366 L1283 1457 L330 1457 L73 -2 L178 -2 L299 683 Z " />
<glyph glyph-name="G" unicode="G" horiz-adv-x="1604" d="M751 -24 C927 -24 1096 19 1259 105 L1281 -2 L1311 -2 L1439 722 L1333 722 L1241 199 C1091 114 933 71 768 71 C583 71 442 128 347 242 C252 355 204 477 204 608 C205 823 288 1006 453 1157 C618 1308 801 1384 1000 1384 C1183 1384 1328 1322 1436 1197 L1520 1266 C1395 1409 1227 1480 1017 1480 C774 1480 560 1392 375 1215 C190 1038 98 829 97 590 C97 441 152 301 262 171 C372 41 535 -24 751 -24 L751 -24 Z " />
<glyph glyph-name="H" unicode="H" horiz-adv-x="1536" d="M1464 1457 L1358 1457 L1237 771 L314 771 L435 1457 L330 1457 L72 -2 L178 -2 L299 684 L1222 684 L1101 -2 L1206 -2 L1464 1457 Z " />
<glyph glyph-name="I" unicode="I" horiz-adv-x="508" d="M435 1457 L330 1457 L72 -2 L178 -2 L435 1457 Z " />
<glyph glyph-name="J" unicode="J" horiz-adv-x="1265" d="M474 -24 C599 -24 714 17 819 99 C924 180 987 282 1009 405 L1194 1457 L1088 1457 L902 401 C885 306 836 228 754 165 C672 102 584 71 491 71 C302 71 154 136 45 267 L-33 196 C89 49 258 -24 474 -24 L474 -24 Z " />
<glyph glyph-name="K" unicode="K" horiz-adv-x="1375" d="M262 472 L582 739 L1082 -2 L1212 -2 L664 809 L1437 1457 L1288 1457 L285 604 L436 1457 L330 1457 L73 -3 L178 -3 L262 472 Z " />
<glyph glyph-name="L" unicode="L" horiz-adv-x="1171" d="M1031 89 L195 89 L436 1457 L330 1457 L73 -2 L1014 -2 L1031 89 Z " />
<glyph glyph-name="M" unicode="M" horiz-adv-x="1787" d="M1714 1457 L1625 1457 L879 645 L418 1457 L330 1457 L72 -2 L175 -2 L405 1299 L825 528 L891 528 L1583 1299 L1354 -2 L1457 -2 L1714 1457 Z " />
<glyph glyph-name="N" unicode="N" horiz-adv-x="1621" d="M1548 1457 L1445 1457 L1217 161 L419 1457 L330 1457 L72 -2 L175 -2 L404 1293 L1202 -2 L1291 -2 L1548 1457 Z " />
<glyph glyph-name="O" unicode="O" horiz-adv-x="1772" d="M770 70 C585 70 445 127 349 241 C253 354 205 476 205 607 C205 822 287 1005 450 1157 C613 1308 797 1384 1002 1384 C1187 1384 1328 1327 1424 1214 C1520 1100 1568 978 1568 847 C1568 632 1483 449 1313 298 C1143 146 962 70 770 70 L770 70 Z M754 -25 C988 -25 1200 64 1390 241 C1579 418 1674 625 1674 864 C1674 1014 1618 1154 1507 1284 C1396 1414 1233 1479 1019 1479 C778 1479 564 1392 378 1219 C192 1046 99 836 98 591 C98 441 154 301 265 171 C376 40 539 -25 754 -25 L754 -25 Z " />
<glyph glyph-name="P" unicode="P" horiz-adv-x="1349" d="M300 690 L419 1365 L879 1365 C974 1365 1051 1343 1110 1298 C1169 1253 1198 1191 1198 1112 C1197 973 1155 868 1070 797 C985 726 881 690 760 690 L300 690 Z M284 599 L748 599 C897 599 1026 646 1136 741 C1245 835 1300 964 1301 1127 C1301 1226 1265 1305 1192 1366 C1119 1427 1021 1457 899 1457 L329 1457 L72 -3 L178 -3 L284 599 Z " />
<glyph glyph-name="Q" unicode="Q" horiz-adv-x="1772" d="M770 70 C585 70 445 127 349 241 C253 354 205 476 205 607 C205 808 287 988 450 1147 C613 1305 797 1384 1002 1384 C1187 1384 1328 1327 1424 1214 C1520 1100 1568 978 1568 847 C1568 639 1486 458 1323 303 C1160 148 975 70 770 70 L770 70 Z M1002 -432 C1043 -431 1083 -428 1122 -423 L1137 -339 C1104 -346 1068 -349 1028 -349 C951 -349 892 -328 851 -285 C810 -242 789 -193 789 -140 C789 -125 795 -85 806 -20 C1036 -4 1238 89 1412 260 C1586 431 1673 631 1674 862 C1674 1011 1618 1152 1507 1283 C1396 1414 1233 1479 1019 1479 C778 1479 564 1391 377 1214 C190 1037 97 829 97 590 C97 449 147 316 247 192 C347 67 499 -3 703 -20 C695 -68 684 -117 684 -160 C684 -233 712 -296 767 -351 C822 -405 900 -432 1002 -432 L1002 -432 Z " />
<glyph glyph-name="R" unicode="R" horiz-adv-x="1377" d="M300 690 L419 1365 L879 1365 C974 1365 1051 1343 1110 1298 C1169 1253 1198 1191 1198 1112 C1198 966 1152 859 1060 792 C968 724 868 690 760 690 L300 690 Z M808 609 C945 619 1062 669 1158 760 C1254 851 1302 974 1302 1129 C1302 1226 1265 1305 1192 1366 C1119 1427 1021 1457 900 1457 L330 1457 L72 -3 L178 -3 L284 599 L692 599 L1069 -3 L1193 -3 L808 609 Z " />
<glyph glyph-name="S" unicode="S" horiz-adv-x="1351" d="M562 -24 C715 -24 862 19 1003 104 C1144 189 1215 302 1215 443 C1215 587 1116 663 940 710 L538 826 C396 867 325 937 325 1037 C325 1140 377 1224 481 1289 C584 1354 695 1386 813 1386 C908 1386 992 1368 1067 1333 C1142 1297 1193 1250 1221 1191 L1311 1249 C1211 1402 1050 1479 827 1479 C678 1479 537 1436 406 1351 C275 1265 209 1152 209 1011 C209 946 232 893 279 850 C325 807 385 775 458 753 L876 629 C1023 589 1101 536 1101 429 C1101 318 1044 231 931 166 C817 101 700 69 579 69 C472 69 372 93 279 140 C185 187 128 248 109 322 L19 271 C42 183 108 112 215 58 C322 3 437 -24 562 -24 L562 -24 Z " />
<glyph glyph-name="T" unicode="T" horiz-adv-x="1211" d="M771 1368 L1296 1368 L1311 1457 L157 1457 L141 1368 L665 1368 L424 -3 L529 -3 L771 1368 Z " />
<glyph glyph-name="U" unicode="U" horiz-adv-x="1527" d="M631 -25 C785 -25 924 10 1047 79 C1170 148 1242 248 1265 380 L1455 1457 L1350 1457 L1162 391 C1143 280 1082 199 981 147 C880 94 768 68 647 68 C520 68 420 97 349 154 C278 211 242 275 242 346 C242 349 246 376 254 425 L434 1457 L329 1457 L139 380 C136 361 134 342 134 323 C134 236 177 157 262 84 C347 11 470 -25 631 -25 L631 -25 Z " />
<glyph glyph-name="V" unicode="V" horiz-adv-x="1480" d="M1529 1457 L1400 1457 L633 155 L324 1457 L208 1457 L572 -2 L651 -2 L1529 1457 Z " />
<glyph glyph-name="W" unicode="W" horiz-adv-x="2049" d="M2148 1457 L2019 1457 L1403 161 L1194 1457 L1099 1457 L439 161 L273 1457 L157 1457 L367 -2 L458 -2 L1123 1288 L1332 -2 L1423 -2 L2148 1457 Z " />
<glyph glyph-name="X" unicode="X" horiz-adv-x="1396" d="M766 727 L1461 1457 L1316 1457 L703 808 L318 1457 L193 1457 L630 727 L-65 -2 L80 -2 L694 646 L1078 -2 L1203 -2 L766 727 Z " />
<glyph glyph-name="Y" unicode="Y" horiz-adv-x="1376" d="M737 704 L1451 1457 L1306 1457 L692 806 L307 1457 L183 1457 L631 705 L506 -2 L612 -2 L737 704 Z " />
<glyph glyph-name="Z" unicode="Z" horiz-adv-x="1247" d="M1024 89 L143 89 L1253 1389 L1265 1457 L239 1457 L222 1365 L1103 1365 L-7 65 L-19 -2 L1008 -2 L1024 89 Z " />
<glyph glyph-name="bracketleft" unicode="&#x5b;" horiz-adv-x="457" d="M264 -322 L70 -322 L369 1376 L563 1376 L578 1458 L292 1458 L-36 -405 L249 -405 L264 -322 Z " />
<glyph glyph-name="backslash" unicode="&#x5c;" horiz-adv-x="634" d="M293 1481 L198 1481 L342 -23 L437 -23 L293 1481 Z " />
<glyph glyph-name="bracketright" unicode="&#x5d;" horiz-adv-x="456" d="M422 1458 L137 1458 L122 1376 L316 1376 L17 -322 L-177 -322 L-192 -405 L94 -405 L422 1458 Z " />
<glyph glyph-name="asciicircum" unicode="&#x5e;" horiz-adv-x="1293" d="M829 1458 L722 1458 L117 729 L230 729 L770 1373 L1082 729 L1177 729 L829 1458 Z " />
<glyph glyph-name="underscore" unicode="&#x5f;" horiz-adv-x="1292" d="M1142 -328 L-224 -328 L-238 -405 L1128 -405 L1142 -328 Z " />
<glyph glyph-name="grave" unicode="&#x60;" horiz-adv-x="884" d="M474 1485 L359 1485 L653 1178 L732 1178 L474 1485 Z " />
<glyph glyph-name="a" unicode="a" horiz-adv-x="1203" d="M420 58 C337 58 268 77 213 114 C157 151 129 198 129 257 C129 346 165 412 236 457 C307 501 392 523 491 523 L902 523 L864 307 C853 248 803 192 713 139 C622 85 525 58 420 58 L420 58 Z M362 -23 C578 -23 742 47 853 188 L819 -1 L912 -1 L1044 750 C1047 770 1049 789 1049 807 C1049 890 1007 957 923 1006 C838 1055 741 1080 630 1080 C563 1080 492 1069 418 1047 C343 1024 277 988 218 939 L273 875 C364 953 479 992 616 992 C710 992 788 970 851 927 C913 884 944 834 944 778 C944 767 934 708 915 601 L504 601 C369 601 256 569 163 504 C70 439 24 351 24 241 C24 169 56 107 119 55 C182 3 263 -23 362 -23 L362 -23 Z " />
<glyph glyph-name="b" unicode="b" horiz-adv-x="1393" d="M604 65 C476 65 379 105 313 185 C247 265 214 351 214 443 C215 595 275 725 395 832 C515 939 639 992 768 992 C896 992 993 952 1059 872 C1125 792 1158 706 1158 615 C1157 463 1099 333 982 226 C865 119 739 65 604 65 L604 65 Z M606 -23 C771 -23 922 41 1058 169 C1194 296 1262 450 1262 631 C1262 740 1223 843 1146 938 C1068 1033 953 1080 801 1080 C594 1080 419 980 276 781 L395 1458 L292 1458 L35 0 L129 0 L180 293 C250 82 392 -23 606 -23 L606 -23 Z " />
<glyph glyph-name="c" unicode="c" horiz-adv-x="1124" d="M560 -24 C694 -24 823 17 948 100 L901 171 C802 100 694 65 577 65 C445 65 344 105 274 185 C204 264 169 351 169 444 C169 596 228 725 346 832 C464 938 596 991 741 991 C858 991 954 956 1027 885 L1099 956 C1003 1038 888 1079 754 1079 C577 1079 417 1016 275 891 C133 765 62 610 62 425 C62 308 106 204 193 113 C280 22 402 -24 560 -24 L560 -24 Z " />
<glyph glyph-name="d" unicode="d" horiz-adv-x="1392" d="M556 65 C428 65 331 105 265 185 C199 265 166 351 166 443 C166 588 223 716 337 827 C450 937 578 992 719 992 C847 992 944 952 1010 872 C1076 792 1109 706 1109 615 C1108 463 1050 333 935 226 C819 119 693 65 556 65 L556 65 Z M523 -23 C737 -23 916 82 1060 293 L1008 0 L1102 0 L1359 1458 L1256 1458 L1136 781 C1064 980 924 1080 717 1080 C545 1080 393 1015 260 884 C127 753 61 600 61 426 C61 317 100 215 178 120 C256 25 371 -23 523 -23 L523 -23 Z " />
<glyph glyph-name="e" unicode="e" horiz-adv-x="1251" d="M183 574 C211 692 272 792 365 874 C458 956 568 997 697 997 C828 997 922 963 977 896 C1032 828 1059 738 1059 625 C1059 608 1058 591 1057 574 L183 574 Z M558 -24 C692 -24 829 17 968 100 L920 170 C805 99 689 64 573 64 C440 64 339 102 270 179 C201 255 166 341 166 438 C166 456 167 475 169 494 L1142 494 C1155 544 1162 595 1162 646 C1162 766 1124 868 1048 953 C972 1037 860 1079 712 1079 C525 1079 370 1013 248 882 C125 750 64 601 64 435 C64 318 105 213 187 118 C269 23 393 -24 558 -24 L558 -24 Z " />
<glyph glyph-name="f" unicode="f" horiz-adv-x="837" d="M427 974 L814 974 L829 1057 L442 1057 L457 1146 C470 1218 508 1278 571 1326 C634 1374 704 1398 781 1398 C822 1398 857 1395 887 1389 L902 1473 C865 1478 826 1481 785 1481 C682 1480 589 1449 506 1390 C423 1330 372 1249 354 1146 L339 1057 L99 1057 L84 974 L324 974 L152 -1 L255 -1 L427 974 Z " />
<glyph glyph-name="g" unicode="g" horiz-adv-x="1393" d="M457 -428 C612 -428 754 -384 881 -297 C1008 -209 1085 -88 1112 66 L1288 1057 L1194 1057 L1143 764 C1073 974 931 1079 717 1079 C545 1079 393 1014 260 883 C127 752 61 599 61 425 C61 316 100 216 178 123 C256 30 371 -16 523 -16 C730 -16 904 83 1047 281 L1009 66 C987 -59 924 -157 821 -229 C718 -301 601 -337 470 -337 C340 -337 233 -300 148 -227 L86 -298 C194 -385 318 -428 457 -428 L457 -428 Z M556 65 C427 65 330 105 264 185 C198 265 165 351 165 443 C165 588 222 715 336 826 C450 936 578 991 719 991 C847 991 944 951 1010 871 C1076 791 1109 705 1109 614 C1108 462 1050 333 933 226 C816 119 691 65 556 65 L556 65 Z " />
<glyph glyph-name="h" unicode="h" horiz-adv-x="1306" d="M1132 668 C1136 695 1138 720 1138 745 C1138 835 1106 913 1042 980 C978 1047 882 1080 754 1080 C658 1080 568 1056 483 1009 C398 961 332 902 284 831 L395 1458 L292 1458 L35 -1 L138 -1 L248 626 C266 727 320 813 411 886 C502 959 603 995 716 995 C821 995 900 968 953 914 C1006 860 1032 796 1032 722 C1032 702 1030 681 1027 659 L911 -1 L1014 -1 L1132 668 Z " />
<glyph glyph-name="i" unicode="i" horiz-adv-x="429" d="M324 1057 L221 1057 L34 -1 L137 -1 L324 1057 Z M322 1338 C362 1338 408 1372 408 1423 C408 1451 387 1481 347 1481 C327 1481 308 1473 289 1458 C270 1442 261 1422 261 1397 C261 1368 282 1338 322 1338 L322 1338 Z " />
<glyph glyph-name="j" unicode="j" horiz-adv-x="449" d="M-299 -427 C-196 -426 -103 -395 -20 -334 C64 -273 114 -192 132 -89 L334 1057 L231 1057 L29 -89 C16 -163 -22 -224 -85 -272 C-148 -320 -218 -344 -295 -344 C-336 -344 -371 -341 -401 -335 L-416 -419 C-379 -424 -340 -427 -299 -427 L-299 -427 Z M332 1338 C352 1338 372 1346 391 1362 C410 1377 419 1398 419 1424 C419 1451 397 1481 358 1481 C318 1481 272 1447 272 1396 C272 1368 292 1338 332 1338 L332 1338 Z " />
<glyph glyph-name="k" unicode="k" horiz-adv-x="1100" d="M555 602 L1098 1057 L952 1057 L212 420 L395 1458 L292 1458 L35 -1 L138 -1 L190 296 L475 535 L837 -1 L963 -1 L555 602 Z " />
<glyph glyph-name="l" unicode="l" horiz-adv-x="459" d="M410 1458 L307 1458 L50 -1 L153 -1 L410 1458 Z " />
<glyph glyph-name="m" unicode="m" horiz-adv-x="1821" d="M1653 703 C1658 728 1660 753 1660 777 C1660 848 1637 916 1590 981 C1543 1046 1466 1079 1359 1079 C1188 1076 1058 996 970 841 C932 1000 835 1079 680 1079 C518 1079 391 1001 300 844 L338 1056 L244 1056 L58 -2 L161 -2 L279 672 C296 766 340 843 412 902 C483 961 560 991 641 991 C715 991 772 968 813 921 C854 874 874 821 874 763 C874 744 872 725 869 704 L744 -2 L847 -2 L966 673 C981 756 1022 829 1090 894 C1158 959 1237 991 1327 991 C1400 991 1457 968 1497 921 C1536 874 1556 822 1556 765 C1556 746 1554 725 1550 704 L1426 -2 L1529 -2 L1653 703 Z " />
<glyph glyph-name="n" unicode="n" horiz-adv-x="1329" d="M1154 663 C1159 691 1161 718 1161 743 C1161 834 1129 913 1066 980 C1003 1046 907 1079 779 1079 C679 1079 585 1054 498 1003 C410 952 342 889 295 813 L338 1056 L244 1056 L58 -2 L161 -2 L271 626 C289 727 343 814 434 885 C525 956 626 991 738 991 C843 991 922 965 975 912 C1028 859 1055 795 1055 722 C1055 702 1053 681 1050 660 L934 -2 L1037 -2 L1154 663 Z " />
<glyph glyph-name="o" unicode="o" horiz-adv-x="1339" d="M553 64 C426 64 329 104 264 184 C199 264 166 350 166 441 C166 587 223 715 336 826 C449 936 575 991 716 991 C843 991 940 951 1005 871 C1070 791 1103 705 1103 614 C1102 462 1044 332 928 225 C811 118 686 64 553 64 L553 64 Z M537 -24 C706 -24 860 40 999 168 C1138 295 1207 449 1207 628 C1207 738 1167 841 1086 936 C1005 1031 887 1079 731 1079 C562 1079 409 1015 270 888 C131 760 62 606 62 426 C62 317 102 214 183 119 C264 24 382 -24 537 -24 L537 -24 Z " />
<glyph glyph-name="p" unicode="p" horiz-adv-x="1394" d="M604 64 C476 64 379 104 313 184 C247 263 214 349 214 441 C214 593 273 723 390 830 C507 937 632 990 767 990 C895 990 992 950 1058 870 C1124 790 1157 704 1157 613 C1156 461 1098 332 981 225 C864 118 739 64 604 64 L604 64 Z M186 273 C259 74 399 -25 606 -25 C771 -25 922 39 1058 167 C1194 294 1262 449 1262 631 C1262 739 1223 841 1145 936 C1067 1031 952 1078 800 1078 C586 1078 407 973 263 763 L315 1056 L221 1056 L-36 -406 L67 -406 L186 273 Z " />
<glyph glyph-name="q" unicode="q" horiz-adv-x="1393" d="M555 64 C427 64 330 104 264 184 C198 263 165 349 165 441 C165 593 224 723 341 830 C458 937 584 990 719 990 C847 990 944 950 1010 870 C1076 790 1109 704 1109 613 C1108 461 1050 332 933 225 C816 118 690 64 555 64 L555 64 Z M1288 1056 L1194 1056 L1143 763 C1073 973 931 1078 717 1078 C545 1078 393 1013 260 882 C127 751 61 598 61 424 C61 315 100 213 178 118 C255 23 370 -25 522 -25 C729 -25 904 75 1047 274 L927 -406 L1030 -406 L1288 1056 Z " />
<glyph glyph-name="r" unicode="r" horiz-adv-x="763" d="M256 669 C272 762 316 839 389 900 C461 960 538 990 620 990 C655 990 689 983 722 970 L776 1053 C739 1070 697 1078 650 1078 C492 1078 368 1000 277 845 L314 1055 L221 1055 L34 -3 L137 -3 L256 669 Z " />
<glyph glyph-name="s" unicode="s" horiz-adv-x="1058" d="M395 -25 C504 -25 612 5 717 64 C822 123 874 206 874 312 C874 413 794 476 671 512 L352 611 C261 640 216 687 216 752 C216 822 249 880 315 926 C380 972 472 995 591 995 C710 995 809 961 890 894 L952 967 C849 1041 727 1078 586 1078 C451 1078 337 1045 244 978 C150 911 103 827 103 726 C103 643 157 576 278 540 L612 432 C712 399 762 351 762 287 C762 220 725 165 650 122 C575 79 487 57 388 57 C219 57 99 105 26 200 L-40 136 C35 29 180 -25 395 -25 L395 -25 Z " />
<glyph glyph-name="t" unicode="t" horiz-adv-x="836" d="M519 -23 C556 -23 597 -20 640 -15 L654 69 C622 63 586 60 545 60 C468 60 410 81 369 124 C328 167 307 215 307 268 C307 272 309 289 314 319 L430 989 L817 989 L831 1073 L444 1073 L503 1404 L393 1368 L341 1073 L102 1073 L87 989 L327 989 L208 316 C204 293 202 270 202 249 C202 176 229 113 284 59 C338 5 416 -22 519 -23 L519 -23 Z " />
<glyph glyph-name="u" unicode="u" horiz-adv-x="1303" d="M470 -25 C670 -25 826 64 939 242 L896 -2 L989 -2 L1176 1057 L1073 1057 L962 429 C945 328 893 242 806 171 C719 100 620 64 507 64 C403 64 326 90 277 143 C227 195 202 257 202 330 C202 351 204 372 207 395 L324 1057 L221 1057 L104 391 C99 362 97 335 97 308 C97 219 127 142 188 75 C248 8 342 -25 470 -25 L470 -25 Z " />
<glyph glyph-name="v" unicode="v" horiz-adv-x="1096" d="M1126 1057 L995 1057 L428 92 L201 1057 L86 1057 L369 -2 L470 -2 L1126 1057 Z " />
<glyph glyph-name="w" unicode="w" horiz-adv-x="1652" d="M1682 1057 L1549 1057 L1070 93 L926 1057 L828 1057 L342 93 L203 1057 L86 1057 L282 -2 L383 -2 L857 910 L1012 -2 L1113 -2 L1682 1057 Z " />
<glyph glyph-name="x" unicode="x" horiz-adv-x="1036" d="M560 539 L1065 1057 L927 1057 L487 597 L208 1057 L86 1057 L411 539 L-101 -2 L37 -2 L482 481 L757 -2 L878 -2 L560 539 Z " />
<glyph glyph-name="y" unicode="y" horiz-adv-x="1088" d="M23 -428 C104 -428 167 -410 212 -375 C256 -339 300 -283 344 -208 L1109 1057 L988 1057 L449 153 L215 1057 L107 1057 L390 43 L230 -217 C177 -303 112 -346 37 -346 C7 -346 -27 -343 -64 -338 L-79 -421 C-49 -426 -15 -428 23 -428 L23 -428 Z " />
<glyph glyph-name="z" unicode="z" horiz-adv-x="1094" d="M874 81 L126 81 L1031 973 L1046 1057 L164 1057 L149 973 L898 973 L-8 81 L-23 -2 L859 -2 L874 81 Z " />
<glyph glyph-name="braceleft" unicode="&#x7b;" horiz-adv-x="456" d="M195 -322 L153 -322 C121 -322 104 -299 104 -275 C104 -274 106 -264 109 -243 L219 381 C224 410 226 426 226 429 C226 466 208 510 164 527 C215 543 256 593 267 649 L385 1319 C390 1351 421 1376 452 1376 L495 1376 L509 1458 L459 1458 C420 1458 385 1445 352 1418 C319 1391 300 1358 293 1319 L175 649 C167 604 119 569 72 566 L58 488 C103 485 133 452 133 419 C133 417 131 404 127 379 L18 -247 C14 -274 12 -289 12 -290 C12 -318 22 -344 42 -369 C62 -393 92 -405 131 -405 L181 -405 L195 -322 Z " />
<glyph glyph-name="bar" unicode="&#x7c;" horiz-adv-x="1292" d="M822 1481 L734 1481 L397 -426 L486 -426 L822 1481 Z " />
<glyph glyph-name="braceright" unicode="&#x7d;" horiz-adv-x="456" d="M190 1375 L232 1375 C264 1375 281 1352 281 1328 C281 1327 279 1317 276 1296 L166 672 C161 643 159 627 159 624 C159 587 177 543 221 526 C170 510 129 460 118 404 L0 -266 C-5 -298 -36 -323 -67 -323 L-110 -323 L-124 -405 L-74 -405 C-35 -405 0 -392 33 -365 C66 -338 85 -305 92 -266 L210 404 C218 449 266 484 313 487 L327 565 C282 568 252 601 252 634 C252 636 254 649 258 674 L367 1300 C371 1327 373 1342 373 1343 C373 1371 363 1397 343 1422 C323 1446 293 1458 254 1458 L204 1458 L190 1375 Z " />
<glyph glyph-name="asciitilde" unicode="&#x7e;" horiz-adv-x="1292" d="M836 626 C937 626 1013 672 1062 764 L996 804 C959 738 905 705 834 705 C770 705 710 726 655 769 C600 811 532 832 453 832 C352 832 277 786 228 693 L293 654 C330 719 384 752 455 752 C519 752 579 731 634 689 C689 647 757 626 836 626 L836 626 Z " />
<glyph glyph-name="exclamdown" unicode="&#xa1;" horiz-adv-x="665" d="M141 -425 L249 -425 L440 715 L352 715 L141 -425 Z M460 1078 C439 1078 419 1070 400 1054 C380 1037 370 1016 370 991 C370 960 393 930 434 930 C455 930 475 938 495 955 C514 971 524 992 524 1017 C524 1048 503 1078 460 1078 L460 1078 Z " />
<glyph glyph-name="cent" unicode="&#xa2;" horiz-adv-x="1293" d="M427 12 C486 -12 551 -24 621 -24 C755 -24 885 17 1010 99 L961 169 C864 99 756 64 639 64 C507 64 406 104 337 184 C267 263 232 350 232 443 C232 589 289 717 403 827 C517 936 650 991 802 991 C919 991 1015 956 1088 886 L1161 955 C1088 1018 1002 1056 901 1070 L995 1279 L900 1279 L810 1078 C630 1074 471 1010 333 885 C195 760 126 606 126 423 C126 264 200 139 348 49 L226 -224 L321 -224 L427 12 Z " />
<glyph glyph-name="sterling" unicode="&#xa3;" horiz-adv-x="1292" d="M1038 83 L291 83 L399 695 L773 695 L787 776 L413 776 L465 1065 C481 1158 523 1234 590 1293 C657 1352 737 1383 830 1385 C918 1385 987 1368 1036 1335 C1085 1301 1129 1254 1168 1193 L1245 1258 C1199 1329 1147 1384 1089 1423 C1031 1462 948 1481 840 1481 C718 1481 612 1441 523 1360 C434 1279 379 1179 358 1061 L308 776 L189 776 L174 695 L294 695 L186 83 L26 83 L12 -1 L1023 -1 L1038 83 Z " />
<glyph glyph-name="currency" unicode="&#xa4;" horiz-adv-x="1291" d="M593 431 C512 431 449 457 406 509 C362 560 340 615 340 673 C340 775 383 863 470 936 C540 993 616 1021 697 1021 C780 1021 843 996 886 945 C929 894 950 840 950 781 C950 679 911 595 833 530 C755 464 675 431 593 431 L593 431 Z M1065 294 L898 491 C987 583 1032 682 1032 787 C1032 849 1015 908 981 963 C997 976 1076 1041 1217 1160 L1171 1215 L936 1016 C872 1074 797 1103 711 1103 C626 1103 542 1074 457 1016 L292 1215 L226 1160 L393 963 C303 870 258 771 258 664 C258 604 275 546 310 491 L74 294 L120 239 L355 438 C419 380 494 351 579 351 C664 351 749 380 834 438 L999 239 L1065 294 Z " />
<glyph glyph-name="yen" unicode="&#xa5;" horiz-adv-x="1292" d="M659 499 L1109 499 L1124 586 L674 586 L695 704 L854 872 L1174 872 L1190 959 L937 959 L1408 1456 L1274 1456 L660 805 L276 1456 L140 1456 L437 959 L184 959 L169 872 L489 872 L589 704 L568 586 L118 586 L103 499 L553 499 L464 -3 L570 -3 L659 499 Z " />
<glyph glyph-name="brokenbar" unicode="&#xa6;" horiz-adv-x="1292" d="M634 411 L545 411 L397 -426 L486 -426 L634 411 Z M822 1481 L734 1481 L586 643 L675 643 L822 1481 Z " />
<glyph glyph-name="section" unicode="&#xa7;" horiz-adv-x="1292" d="M433 -426 C582 -426 722 -384 853 -299 C984 -214 1049 -100 1049 45 C1049 86 1042 122 1028 152 C1125 222 1174 321 1174 448 C1174 521 1152 578 1107 617 C1017 696 873 732 698 760 C573 777 470 804 389 840 C307 875 266 935 266 1019 C266 1138 320 1232 429 1300 C537 1367 653 1401 776 1401 C872 1401 959 1383 1036 1346 C1113 1309 1166 1261 1194 1201 L1269 1248 C1235 1317 1174 1373 1086 1415 C998 1457 899 1478 788 1478 C639 1478 500 1436 369 1351 C238 1266 172 1151 172 1004 C172 964 179 929 193 900 C96 830 47 731 47 603 C47 536 68 482 109 441 C150 400 208 368 282 346 C355 323 436 305 523 291 C648 274 751 247 833 212 C914 176 955 116 955 32 C955 -87 901 -180 793 -248 C684 -316 568 -350 445 -350 C349 -350 262 -332 185 -295 C108 -258 55 -210 27 -149 L-48 -197 C-13 -266 48 -322 136 -364 C223 -405 322 -426 433 -426 L433 -426 Z M982 212 C940 252 883 283 811 305 C739 326 660 344 573 358 C448 375 344 402 263 438 C181 473 140 533 140 618 C140 705 173 778 239 839 C323 760 475 721 648 693 C773 676 877 649 959 614 C1040 578 1081 518 1081 433 C1081 346 1048 273 982 212 L982 212 Z " />
<glyph glyph-name="dieresis" unicode="&#xa8;" horiz-adv-x="885" d="M399 1346 C435 1346 476 1375 476 1422 C476 1447 458 1474 422 1474 C386 1474 344 1441 344 1400 C344 1372 363 1346 399 1346 L399 1346 Z M703 1346 C739 1346 780 1377 780 1422 C780 1447 761 1474 725 1474 C689 1474 648 1442 648 1398 C648 1371 667 1346 703 1346 L703 1346 Z " />
<glyph glyph-name="copyright" unicode="&#xa9;" horiz-adv-x="1924" d="M843 53 C652 53 507 111 408 228 C309 345 259 470 259 603 C259 818 342 1005 507 1164 C672 1322 863 1401 1081 1401 C1272 1401 1418 1343 1517 1226 C1616 1109 1665 984 1665 849 C1665 635 1581 449 1413 291 C1244 132 1054 53 843 53 L843 53 Z M829 -25 C1070 -25 1284 63 1471 240 C1657 417 1750 624 1750 863 C1750 1013 1694 1153 1583 1284 C1472 1414 1309 1479 1095 1479 C854 1479 640 1391 454 1214 C267 1037 174 829 174 590 C174 440 230 300 341 170 C452 40 615 -25 829 -25 L829 -25 Z M914 387 C1000 387 1081 413 1156 464 L1121 523 C1062 480 997 458 927 458 C851 458 792 481 751 527 C710 573 689 623 689 678 C689 767 724 842 793 903 C862 964 939 995 1022 995 C1092 995 1149 974 1193 931 L1249 990 C1192 1041 1120 1067 1034 1067 C925 1067 827 1030 741 955 C654 880 611 783 610 664 C610 595 637 531 690 474 C743 416 818 387 914 387 L914 387 Z " />
<glyph glyph-name="ordfeminine" unicode="&#xaa;" horiz-adv-x="823" d="M376 788 C327 788 283 799 244 822 C205 844 185 875 185 915 C185 969 208 1012 254 1044 C299 1075 355 1091 422 1091 L693 1091 L668 949 C659 899 619 860 550 831 C480 802 422 788 376 788 L376 788 Z M334 718 C475 718 583 760 656 844 L636 732 L714 732 L803 1246 C807 1271 809 1286 809 1289 C809 1348 780 1394 721 1429 C662 1463 592 1480 509 1480 C408 1480 314 1446 226 1377 L274 1324 C353 1379 431 1406 506 1406 C551 1406 599 1394 649 1370 C698 1346 723 1313 723 1271 C723 1264 717 1224 704 1153 L432 1153 C337 1153 258 1130 194 1084 C130 1037 98 976 98 901 C98 848 122 805 169 770 C216 735 271 718 334 718 L334 718 Z " />
<glyph glyph-name="guillemotleft" unicode="&#xab;" horiz-adv-x="1155" d="M291 529 L639 984 L536 984 L189 529 L376 74 L478 74 L291 529 Z M656 529 L1003 984 L901 984 L553 529 L740 74 L842 74 L656 529 Z " />
<glyph glyph-name="logicalnot" unicode="&#xac;" horiz-adv-x="1293" d="M1178 694 L102 694 L89 617 L1076 617 L1031 364 L1119 364 L1178 694 Z " />
<glyph glyph-name="registered" unicode="&#xae;" horiz-adv-x="1924" d="M818 720 L868 1003 L1058 1003 C1147 1003 1192 968 1192 897 C1191 785 1120 720 1016 720 L818 720 Z M1053 670 C1192 703 1261 784 1261 914 C1261 1013 1198 1063 1072 1064 L808 1064 L689 390 L759 390 L807 662 L971 662 L1136 390 L1225 390 L1053 670 Z M843 53 C652 53 507 111 408 228 C309 345 259 470 259 603 C259 818 345 1005 517 1164 C688 1322 876 1401 1081 1401 C1272 1401 1418 1343 1517 1226 C1616 1109 1665 984 1665 849 C1665 635 1581 449 1413 291 C1244 132 1054 53 843 53 L843 53 Z M829 -25 C1064 -25 1276 62 1466 235 C1655 408 1750 618 1750 863 C1750 1013 1694 1153 1583 1284 C1472 1414 1309 1479 1095 1479 C854 1479 640 1392 454 1219 C267 1045 174 835 174 590 C174 440 230 300 341 170 C452 40 615 -25 829 -25 L829 -25 Z " />
<glyph glyph-name="overscore" unicode="&#xaf;" horiz-adv-x="884" d="M857 1396 L262 1396 L248 1320 L843 1320 L857 1396 Z " />
<glyph glyph-name="degree" unicode="&#xb0;" horiz-adv-x="648" d="M380 1048 C329 1048 286 1066 251 1101 C216 1136 198 1179 198 1230 C198 1281 216 1324 251 1359 C286 1394 329 1412 380 1412 C430 1412 473 1394 508 1359 C543 1324 561 1281 561 1230 C561 1179 543 1136 508 1101 C473 1066 430 1048 380 1048 L380 1048 Z M380 979 C449 979 508 1004 557 1053 C606 1102 630 1161 630 1230 C630 1299 606 1359 557 1408 C508 1457 449 1481 380 1481 C311 1481 252 1457 203 1408 C154 1359 129 1299 129 1230 C129 1161 154 1102 203 1053 C252 1004 311 979 380 979 L380 979 Z " />
<glyph glyph-name="plusminus" unicode="&#xb1;" horiz-adv-x="1292" d="M685 701 L1081 701 L1094 777 L699 777 L768 1171 L680 1171 L610 777 L215 777 L201 701 L597 701 L528 308 L616 308 L685 701 Z M971 76 L91 76 L78 0 L957 0 L971 76 Z " />
<glyph glyph-name="uni00B2" unicode="&#xb2;" horiz-adv-x="688" d="M621 807 L253 807 L624 1129 C683 1179 713 1237 713 1304 C713 1357 690 1400 644 1433 C598 1465 541 1481 474 1481 C361 1481 264 1436 183 1347 L242 1297 C302 1364 374 1397 457 1397 C498 1397 535 1388 569 1370 C602 1351 619 1325 619 1290 C619 1249 603 1215 571 1188 L106 789 L95 726 L607 726 L621 807 Z " />
<glyph glyph-name="uni00B3" unicode="&#xb3;" horiz-adv-x="688" d="M330 715 C401 715 474 736 548 778 C621 819 658 879 658 956 C658 1012 617 1070 549 1099 C639 1141 684 1212 685 1313 C685 1413 599 1481 468 1481 C354 1481 260 1436 187 1347 L246 1295 C298 1363 366 1397 450 1397 C529 1397 592 1360 592 1295 C592 1244 572 1206 531 1179 C490 1152 446 1139 401 1139 L338 1139 L323 1058 L386 1058 C425 1058 465 1049 506 1031 C547 1012 567 985 567 949 C567 902 543 865 494 839 C445 813 394 800 342 800 C258 800 199 834 166 902 L90 850 C136 760 216 715 330 715 L330 715 Z " />
<glyph glyph-name="acute" unicode="&#xb4;" horiz-adv-x="884" d="M441 1178 L735 1485 L621 1485 L362 1178 L441 1178 Z " />
<glyph glyph-name="&amp;#xb5;" unicode="&#xb5;" horiz-adv-x="1281" d="M158 165 C209 38 313 -25 471 -25 C671 -25 827 64 939 242 L896 -2 L990 -2 L1176 1056 L1073 1056 L963 429 C945 327 893 241 806 170 C719 99 620 63 508 63 C403 63 326 89 277 142 C227 195 202 257 202 328 C202 349 204 372 208 395 L324 1056 L221 1056 L-36 -405 L57 -405 L158 165 Z " />
<glyph glyph-name="&amp;#x3bc;" unicode="&#x3bc;" horiz-adv-x="1281" d="M158 165 C209 38 313 -25 471 -25 C671 -25 827 64 939 242 L896 -2 L990 -2 L1176 1056 L1073 1056 L963 429 C945 327 893 241 806 170 C719 99 620 63 508 63 C403 63 326 89 277 142 C227 195 202 257 202 328 C202 349 204 372 208 395 L324 1056 L221 1056 L-36 -405 L57 -405 L158 165 Z " />
<glyph glyph-name="paragraph" unicode="&#xb6;" horiz-adv-x="1104" d="M1127 1481 L625 1481 C506 1481 401 1436 310 1346 C218 1256 172 1152 171 1035 C171 961 198 892 253 827 C307 762 387 729 492 729 L289 -426 L377 -426 L700 1405 L1025 1405 L702 -426 L790 -426 L1127 1481 Z " />
<glyph glyph-name="&amp;#xb7;" unicode="&#xb7;" horiz-adv-x="477" d="M190 453 C211 453 231 461 251 478 C270 495 280 515 280 540 C280 571 257 602 216 602 C195 602 175 594 156 577 C136 560 126 539 126 514 C126 485 147 453 190 453 L190 453 Z " />
<glyph glyph-name="&amp;#x2219;" unicode="&#x2219;" horiz-adv-x="477" d="M190 453 C211 453 231 461 251 478 C270 495 280 515 280 540 C280 571 257 602 216 602 C195 602 175 594 156 577 C136 560 126 539 126 514 C126 485 147 453 190 453 L190 453 Z " />
<glyph glyph-name="cedilla" unicode="&#xb8;" horiz-adv-x="884" d="M217 -407 C268 -407 322 -393 380 -366 C437 -339 466 -293 466 -229 C466 -158 408 -121 293 -116 L381 0 L308 0 L211 -130 L204 -169 L256 -169 C339 -169 381 -193 381 -240 C381 -280 362 -308 324 -325 C286 -342 253 -350 225 -350 C172 -350 129 -336 94 -307 L54 -357 C101 -390 156 -407 217 -407 L217 -407 Z " />
<glyph glyph-name="uni00B9" unicode="&#xb9;" horiz-adv-x="688" d="M621 1470 L540 1470 L307 1349 L335 1280 L513 1371 L399 726 L490 726 L621 1470 Z " />
<glyph glyph-name="ordmasculine" unicode="&#xba;" horiz-adv-x="952" d="M466 793 C381 793 317 820 274 873 C231 926 210 983 210 1043 C210 1138 248 1222 323 1296 C398 1369 482 1406 574 1406 C659 1406 722 1379 765 1326 C808 1273 829 1216 829 1156 C829 1051 790 964 711 896 C632 827 551 793 466 793 L466 793 Z M452 718 C567 718 672 762 769 850 C865 937 914 1044 915 1169 C915 1245 887 1316 832 1382 C776 1448 694 1481 587 1481 C466 1481 359 1437 265 1349 C171 1261 124 1155 124 1030 C124 954 152 883 208 817 C263 751 345 718 452 718 L452 718 Z " />
<glyph glyph-name="guillemotright" unicode="&#xbb;" horiz-adv-x="1154" d="M895 529 L708 984 L606 984 L793 529 L446 74 L548 74 L895 529 Z M531 529 L344 984 L242 984 L429 529 L81 74 L184 74 L531 529 Z " />
<glyph glyph-name="onequarter" unicode="&#xbc;" horiz-adv-x="1583" d="M524 1470 L443 1470 L210 1349 L238 1280 L416 1371 L302 726 L393 726 L524 1470 Z M1402 1481 L1291 1481 L144 -22 L255 -22 L1402 1481 Z M1289 142 L1379 142 L1394 222 L1303 222 L1334 399 L1249 399 L1218 222 L914 222 L1316 743 L1215 743 L803 209 L792 142 L1203 142 L1178 -1 L1264 -1 L1289 142 Z " />
<glyph glyph-name="onehalf" unicode="&#xbd;" horiz-adv-x="1582" d="M1350 79 L981 79 L1352 401 C1411 450 1441 510 1441 579 C1441 631 1418 673 1372 706 C1326 738 1270 754 1203 754 C1089 754 992 709 912 620 L971 570 C1031 637 1102 670 1185 670 C1226 670 1264 661 1298 642 C1331 623 1348 597 1348 562 C1348 521 1332 487 1299 460 L834 62 L823 -1 L1336 -1 L1350 79 Z M534 1470 L453 1470 L220 1349 L248 1280 L426 1371 L312 726 L403 726 L534 1470 Z M1412 1481 L1300 1481 L153 -22 L264 -22 L1412 1481 Z " />
<glyph glyph-name="threequarters" unicode="&#xbe;" horiz-adv-x="1581" d="M1409 1481 L1297 1481 L150 -22 L261 -22 L1409 1481 Z M1296 142 L1386 142 L1400 222 L1310 222 L1341 399 L1255 399 L1224 222 L920 222 L1323 743 L1222 743 L810 209 L798 142 L1210 142 L1185 -1 L1270 -1 L1296 142 Z M354 715 C425 715 498 736 572 778 C645 819 682 879 682 956 C682 1012 641 1070 573 1099 C663 1141 708 1212 709 1313 C709 1413 623 1481 492 1481 C378 1481 284 1436 211 1347 L270 1295 C322 1363 390 1397 474 1397 C553 1397 616 1360 616 1295 C616 1244 596 1206 555 1179 C514 1152 470 1139 425 1139 L362 1139 L347 1058 L410 1058 C449 1058 489 1049 530 1031 C571 1012 591 985 591 949 C591 902 567 865 518 839 C469 813 418 800 366 800 C282 800 223 834 190 902 L114 850 C160 760 240 715 354 715 L354 715 Z " />
<glyph glyph-name="questiondown" unicode="&#xbf;" horiz-adv-x="1142" d="M527 358 C385 349 257 306 144 229 C30 152 -27 47 -27 -87 C-27 -175 12 -254 91 -323 C169 -392 286 -426 442 -426 C679 -426 863 -344 994 -180 L925 -119 C819 -259 665 -329 463 -329 C335 -329 240 -302 177 -249 C114 -196 83 -136 83 -70 C83 28 128 108 218 170 C308 231 413 267 532 277 C572 280 607 308 615 352 L677 714 L590 714 L527 358 Z M698 1077 C655 1077 608 1042 608 989 C608 960 630 929 671 929 C714 929 761 964 761 1017 C761 1046 739 1077 698 1077 L698 1077 Z " />
<glyph glyph-name="Agrave" unicode="&#xc0;" horiz-adv-x="1481" d="M908 1457 L828 1457 L-50 -2 L83 -2 L369 491 L1047 491 L1159 -2 L1272 -2 L908 1457 Z M417 574 L856 1330 L1028 574 L417 574 Z M681 1884 L566 1884 L860 1577 L939 1577 L681 1884 Z " />
<glyph glyph-name="Aacute" unicode="&#xc1;" horiz-adv-x="1481" d="M908 1457 L828 1457 L-50 -2 L83 -2 L369 491 L1047 491 L1159 -2 L1272 -2 L908 1457 Z M417 574 L856 1330 L1028 574 L417 574 Z M802 1577 L1096 1884 L982 1884 L723 1577 L802 1577 Z " />
<glyph glyph-name="Acircumflex" unicode="&#xc2;" horiz-adv-x="1481" d="M908 1457 L828 1457 L-50 -2 L83 -2 L369 491 L1047 491 L1159 -2 L1272 -2 L908 1457 Z M417 574 L856 1330 L1028 574 L417 574 Z M962 1911 L866 1911 L547 1604 L630 1604 L912 1855 L1105 1604 L1172 1604 L962 1911 Z " />
<glyph glyph-name="Atilde" unicode="&#xc3;" horiz-adv-x="1481" d="M908 1457 L828 1457 L-50 -2 L83 -2 L369 491 L1047 491 L1159 -2 L1272 -2 L908 1457 Z M417 574 L856 1330 L1028 574 L417 574 Z M1044 1658 C1141 1658 1209 1703 1248 1793 L1187 1828 C1162 1763 1114 1731 1042 1731 C998 1731 950 1752 898 1795 C846 1837 789 1858 728 1858 C631 1858 564 1812 525 1721 L585 1687 C610 1752 658 1784 730 1784 C773 1784 821 1763 874 1721 C926 1679 983 1658 1044 1658 L1044 1658 Z " />
<glyph glyph-name="Adieresis" unicode="&#xc4;" horiz-adv-x="1481" d="M908 1457 L828 1457 L-50 -2 L83 -2 L369 491 L1047 491 L1159 -2 L1272 -2 L908 1457 Z M417 574 L856 1330 L1028 574 L417 574 Z M732 1745 C768 1745 809 1774 809 1821 C809 1846 791 1873 755 1873 C719 1873 677 1840 677 1799 C677 1771 696 1745 732 1745 L732 1745 Z M1036 1745 C1072 1745 1113 1776 1113 1821 C1113 1846 1094 1873 1058 1873 C1022 1873 981 1841 981 1797 C981 1770 1000 1745 1036 1745 L1036 1745 Z " />
<glyph glyph-name="Aring" unicode="&#xc5;" horiz-adv-x="1481" d="M908 1457 L828 1457 L-50 -2 L83 -2 L369 491 L1047 491 L1159 -2 L1272 -2 L908 1457 Z M417 574 L856 1330 L1028 574 L417 574 Z M864 1620 C827 1620 799 1632 780 1655 C761 1678 751 1702 751 1728 C751 1775 768 1813 803 1842 C838 1871 874 1885 911 1885 C948 1885 977 1874 996 1851 C1015 1828 1024 1804 1024 1778 C1024 1731 1007 1693 972 1664 C937 1635 901 1620 864 1620 L864 1620 Z M853 1561 C907 1561 959 1582 1010 1624 C1060 1666 1085 1721 1085 1788 C1085 1826 1071 1862 1044 1895 C1016 1928 975 1945 921 1945 C867 1945 815 1924 765 1881 C714 1838 689 1784 689 1718 C689 1679 703 1644 731 1611 C759 1578 800 1561 853 1561 L853 1561 Z " />
<glyph glyph-name="AE" unicode="&#xc6;" horiz-adv-x="2119" d="M432 575 L931 1367 L1168 1367 L1029 575 L432 575 Z M1897 91 L1049 91 L1154 685 L1881 685 L1897 772 L1169 772 L1274 1367 L2122 1367 L2138 1459 L894 1459 L-50 0 L73 0 L385 491 L1014 491 L927 0 L1880 0 L1897 91 Z " />
<glyph glyph-name="Ccedilla" unicode="&#xc7;" horiz-adv-x="1564" d="M544 -407 C595 -407 649 -393 707 -366 C764 -338 793 -293 793 -230 C793 -159 735 -121 619 -116 L691 -22 C712 -23 732 -24 753 -24 C964 -24 1157 47 1332 189 L1273 258 C1121 133 953 71 770 71 C585 71 445 128 350 242 C255 355 207 477 207 607 C208 816 289 997 451 1152 C612 1307 796 1384 1002 1384 C1185 1384 1330 1322 1438 1197 L1521 1266 C1397 1409 1230 1480 1019 1480 C782 1480 569 1393 380 1220 C191 1046 96 833 96 580 C96 437 145 307 242 189 C339 71 467 3 624 -14 L538 -130 L531 -169 L583 -169 C666 -169 708 -193 708 -240 C708 -280 689 -308 651 -325 C612 -342 579 -350 552 -350 C499 -350 455 -336 420 -307 L381 -357 C428 -390 483 -407 544 -407 L544 -407 Z " />
<glyph glyph-name="Egrave" unicode="&#xc8;" horiz-adv-x="1264" d="M1041 90 L194 90 L299 683 L1026 683 L1042 771 L314 771 L419 1366 L1266 1366 L1282 1457 L329 1457 L72 -2 L1025 -2 L1041 90 Z M611 1884 L496 1884 L790 1577 L869 1577 L611 1884 Z " />
<glyph glyph-name="Eacute" unicode="&#xc9;" horiz-adv-x="1264" d="M1041 90 L194 90 L299 683 L1026 683 L1042 771 L314 771 L419 1366 L1266 1366 L1282 1457 L329 1457 L72 -2 L1025 -2 L1041 90 Z M732 1577 L1026 1884 L912 1884 L653 1577 L732 1577 Z " />
<glyph glyph-name="Ecircumflex" unicode="&#xca;" horiz-adv-x="1264" d="M1041 90 L194 90 L299 683 L1026 683 L1042 771 L314 771 L419 1366 L1266 1366 L1282 1457 L329 1457 L72 -2 L1025 -2 L1041 90 Z M892 1911 L796 1911 L477 1604 L560 1604 L842 1855 L1035 1604 L1102 1604 L892 1911 Z " />
<glyph glyph-name="Edieresis" unicode="&#xcb;" horiz-adv-x="1264" d="M1041 90 L194 90 L299 683 L1026 683 L1042 771 L314 771 L419 1366 L1266 1366 L1282 1457 L329 1457 L72 -2 L1025 -2 L1041 90 Z M662 1745 C698 1745 739 1774 739 1821 C739 1846 721 1873 685 1873 C649 1873 607 1840 607 1799 C607 1771 626 1745 662 1745 L662 1745 Z M966 1745 C1002 1745 1043 1776 1043 1821 C1043 1846 1024 1873 988 1873 C952 1873 911 1841 911 1797 C911 1770 930 1745 966 1745 L966 1745 Z " />
<glyph glyph-name="Igrave" unicode="&#xcc;" horiz-adv-x="508" d="M435 1457 L330 1457 L72 -2 L178 -2 L435 1457 Z M225 1884 L110 1884 L404 1577 L483 1577 L225 1884 Z " />
<glyph glyph-name="Iacute" unicode="&#xcd;" horiz-adv-x="508" d="M435 1457 L330 1457 L72 -2 L178 -2 L435 1457 Z M346 1577 L640 1884 L526 1884 L267 1577 L346 1577 Z " />
<glyph glyph-name="Icircumflex" unicode="&#xce;" horiz-adv-x="508" d="M435 1457 L330 1457 L72 -2 L178 -2 L435 1457 Z M486 1911 L390 1911 L71 1604 L154 1604 L436 1855 L629 1604 L696 1604 L486 1911 Z " />
<glyph glyph-name="Idieresis" unicode="&#xcf;" horiz-adv-x="508" d="M435 1457 L330 1457 L72 -2 L178 -2 L435 1457 Z M267 1745 C303 1745 344 1774 344 1821 C344 1846 326 1873 290 1873 C254 1873 212 1840 212 1799 C212 1771 231 1745 267 1745 L267 1745 Z M571 1745 C607 1745 648 1776 648 1821 C648 1846 629 1873 593 1873 C557 1873 516 1841 516 1797 C516 1770 535 1745 571 1745 L571 1745 Z " />
<glyph glyph-name="Eth" unicode="&#xd0;" horiz-adv-x="1551" d="M197 89 L302 684 L897 684 L913 771 L317 771 L422 1366 L796 1366 C975 1366 1112 1311 1206 1200 C1299 1089 1346 970 1346 843 C1346 635 1265 457 1102 310 C939 163 762 89 570 89 L197 89 Z M555 -2 C784 -2 991 83 1176 252 C1360 421 1452 623 1453 860 C1453 1005 1399 1141 1290 1268 C1181 1394 1021 1457 812 1457 L332 1457 L212 771 L-57 771 L-72 684 L196 684 L75 -2 L555 -2 L555 -2 Z " />
<glyph glyph-name="Ntilde" unicode="&#xd1;" horiz-adv-x="1621" d="M1548 1457 L1445 1457 L1217 161 L419 1457 L330 1457 L72 -2 L175 -2 L404 1293 L1202 -2 L1291 -2 L1548 1457 Z M1058 1658 C1155 1658 1223 1703 1262 1793 L1201 1828 C1176 1763 1128 1731 1056 1731 C1012 1731 964 1752 912 1795 C860 1837 803 1858 742 1858 C645 1858 578 1812 539 1721 L599 1687 C624 1752 672 1784 744 1784 C787 1784 835 1763 888 1721 C940 1679 997 1658 1058 1658 L1058 1658 Z " />
<glyph glyph-name="Ograve" unicode="&#xd2;" horiz-adv-x="1772" d="M770 70 C585 70 445 127 349 241 C253 354 205 476 205 607 C205 822 287 1005 450 1157 C613 1308 797 1384 1002 1384 C1187 1384 1328 1327 1424 1214 C1520 1100 1568 978 1568 847 C1568 632 1483 449 1313 298 C1143 146 962 70 770 70 L770 70 Z M754 -25 C988 -25 1200 64 1390 241 C1579 418 1674 625 1674 864 C1674 1014 1618 1154 1507 1284 C1396 1414 1233 1479 1019 1479 C778 1479 564 1392 378 1219 C192 1046 99 836 98 591 C98 441 154 301 265 171 C376 40 539 -25 754 -25 L754 -25 Z M801 1884 L686 1884 L980 1577 L1059 1577 L801 1884 Z " />
<glyph glyph-name="Oacute" unicode="&#xd3;" horiz-adv-x="1772" d="M770 70 C585 70 445 127 349 241 C253 354 205 476 205 607 C205 822 287 1005 450 1157 C613 1308 797 1384 1002 1384 C1187 1384 1328 1327 1424 1214 C1520 1100 1568 978 1568 847 C1568 632 1483 449 1313 298 C1143 146 962 70 770 70 L770 70 Z M754 -25 C988 -25 1200 64 1390 241 C1579 418 1674 625 1674 864 C1674 1014 1618 1154 1507 1284 C1396 1414 1233 1479 1019 1479 C778 1479 564 1392 378 1219 C192 1046 99 836 98 591 C98 441 154 301 265 171 C376 40 539 -25 754 -25 L754 -25 Z M922 1577 L1216 1884 L1102 1884 L843 1577 L922 1577 Z " />
<glyph glyph-name="Ocircumflex" unicode="&#xd4;" horiz-adv-x="1772" d="M770 70 C585 70 445 127 349 241 C253 354 205 476 205 607 C205 822 287 1005 450 1157 C613 1308 797 1384 1002 1384 C1187 1384 1328 1327 1424 1214 C1520 1100 1568 978 1568 847 C1568 632 1483 449 1313 298 C1143 146 962 70 770 70 L770 70 Z M754 -25 C988 -25 1200 64 1390 241 C1579 418 1674 625 1674 864 C1674 1014 1618 1154 1507 1284 C1396 1414 1233 1479 1019 1479 C778 1479 564 1392 378 1219 C192 1046 99 836 98 591 C98 441 154 301 265 171 C376 40 539 -25 754 -25 L754 -25 Z M1082 1911 L986 1911 L667 1604 L750 1604 L1032 1855 L1225 1604 L1292 1604 L1082 1911 Z " />
<glyph glyph-name="Otilde" unicode="&#xd5;" horiz-adv-x="1772" d="M770 70 C585 70 445 127 349 241 C253 354 205 476 205 607 C205 822 287 1005 450 1157 C613 1308 797 1384 1002 1384 C1187 1384 1328 1327 1424 1214 C1520 1100 1568 978 1568 847 C1568 632 1483 449 1313 298 C1143 146 962 70 770 70 L770 70 Z M754 -25 C988 -25 1200 64 1390 241 C1579 418 1674 625 1674 864 C1674 1014 1618 1154 1507 1284 C1396 1414 1233 1479 1019 1479 C778 1479 564 1392 378 1219 C192 1046 99 836 98 591 C98 441 154 301 265 171 C376 40 539 -25 754 -25 L754 -25 Z M1164 1658 C1261 1658 1329 1703 1368 1793 L1307 1828 C1282 1763 1234 1731 1162 1731 C1118 1731 1070 1752 1018 1795 C966 1837 909 1858 848 1858 C751 1858 684 1812 645 1721 L705 1687 C730 1752 778 1784 850 1784 C893 1784 941 1763 994 1721 C1046 1679 1103 1658 1164 1658 L1164 1658 Z " />
<glyph glyph-name="Odieresis" unicode="&#xd6;" horiz-adv-x="1772" d="M770 70 C585 70 445 127 349 241 C253 354 205 476 205 607 C205 822 287 1005 450 1157 C613 1308 797 1384 1002 1384 C1187 1384 1328 1327 1424 1214 C1520 1100 1568 978 1568 847 C1568 632 1483 449 1313 298 C1143 146 962 70 770 70 L770 70 Z M754 -25 C988 -25 1200 64 1390 241 C1579 418 1674 625 1674 864 C1674 1014 1618 1154 1507 1284 C1396 1414 1233 1479 1019 1479 C778 1479 564 1392 378 1219 C192 1046 99 836 98 591 C98 441 154 301 265 171 C376 40 539 -25 754 -25 L754 -25 Z M853 1745 C889 1745 930 1774 930 1821 C930 1846 912 1873 876 1873 C840 1873 798 1840 798 1799 C798 1771 817 1745 853 1745 L853 1745 Z M1157 1745 C1193 1745 1234 1776 1234 1821 C1234 1846 1215 1873 1179 1873 C1143 1873 1102 1841 1102 1797 C1102 1770 1121 1745 1157 1745 L1157 1745 Z " />
<glyph glyph-name="multiply" unicode="&#xd7;" horiz-adv-x="1293" d="M1002 381 L709 729 L1125 1078 L1073 1140 L657 791 L364 1140 L291 1078 L584 729 L168 381 L220 319 L636 668 L928 319 L1002 381 Z " />
<glyph glyph-name="Oslash" unicode="&#xd8;" horiz-adv-x="1772" d="M754 -25 C989 -25 1201 62 1390 236 C1579 409 1673 619 1674 864 C1674 987 1645 1093 1586 1182 C1527 1270 1471 1330 1417 1362 L1508 1481 L1413 1481 L1353 1402 C1257 1453 1146 1479 1019 1479 C785 1479 573 1392 383 1219 C193 1046 98 836 98 591 C98 461 129 353 190 266 C251 179 306 122 355 93 L266 -23 L360 -23 L418 53 C514 1 626 -25 754 -25 L754 -25 Z M419 178 C374 209 327 262 278 338 C229 413 205 503 205 607 C205 815 288 997 455 1152 C622 1307 804 1384 1002 1384 C1111 1384 1206 1362 1289 1317 L419 178 Z M770 70 C661 70 565 92 482 137 L1352 1277 C1398 1246 1446 1192 1495 1117 C1544 1041 1568 951 1568 847 C1568 646 1486 466 1323 308 C1160 149 975 70 770 70 L770 70 Z " />
<glyph glyph-name="Ugrave" unicode="&#xd9;" horiz-adv-x="1527" d="M631 -25 C785 -25 924 10 1047 79 C1170 148 1242 248 1265 380 L1455 1457 L1350 1457 L1162 391 C1143 280 1082 199 981 147 C880 94 768 68 647 68 C520 68 420 97 349 154 C278 211 242 275 242 346 C242 349 246 376 254 425 L434 1457 L329 1457 L139 380 C136 361 134 342 134 323 C134 236 177 157 262 84 C347 11 470 -25 631 -25 L631 -25 Z M658 1884 L543 1884 L837 1577 L916 1577 L658 1884 Z " />
<glyph glyph-name="Uacute" unicode="&#xda;" horiz-adv-x="1527" d="M631 -25 C785 -25 924 10 1047 79 C1170 148 1242 248 1265 380 L1455 1457 L1350 1457 L1162 391 C1143 280 1082 199 981 147 C880 94 768 68 647 68 C520 68 420 97 349 154 C278 211 242 275 242 346 C242 349 246 376 254 425 L434 1457 L329 1457 L139 380 C136 361 134 342 134 323 C134 236 177 157 262 84 C347 11 470 -25 631 -25 L631 -25 Z M779 1577 L1073 1884 L959 1884 L700 1577 L779 1577 Z " />
<glyph glyph-name="Ucircumflex" unicode="&#xdb;" horiz-adv-x="1527" d="M631 -25 C785 -25 924 10 1047 79 C1170 148 1242 248 1265 380 L1455 1457 L1350 1457 L1162 391 C1143 280 1082 199 981 147 C880 94 768 68 647 68 C520 68 420 97 349 154 C278 211 242 275 242 346 C242 349 246 376 254 425 L434 1457 L329 1457 L139 380 C136 361 134 342 134 323 C134 236 177 157 262 84 C347 11 470 -25 631 -25 L631 -25 Z M949 1911 L853 1911 L534 1604 L617 1604 L899 1855 L1092 1604 L1159 1604 L949 1911 Z " />
<glyph glyph-name="Udieresis" unicode="&#xdc;" horiz-adv-x="1527" d="M631 -25 C785 -25 924 10 1047 79 C1170 148 1242 248 1265 380 L1455 1457 L1350 1457 L1162 391 C1143 280 1082 199 981 147 C880 94 768 68 647 68 C520 68 420 97 349 154 C278 211 242 275 242 346 C242 349 246 376 254 425 L434 1457 L329 1457 L139 380 C136 361 134 342 134 323 C134 236 177 157 262 84 C347 11 470 -25 631 -25 L631 -25 Z M709 1745 C745 1745 786 1774 786 1821 C786 1846 768 1873 732 1873 C696 1873 654 1840 654 1799 C654 1771 673 1745 709 1745 L709 1745 Z M1013 1745 C1049 1745 1090 1776 1090 1821 C1090 1846 1071 1873 1035 1873 C999 1873 958 1841 958 1797 C958 1770 977 1745 1013 1745 L1013 1745 Z " />
<glyph glyph-name="Yacute" unicode="&#xdd;" horiz-adv-x="1376" d="M737 704 L1451 1457 L1306 1457 L692 806 L307 1457 L183 1457 L631 705 L506 -2 L612 -2 L737 704 Z M761 1577 L1055 1884 L941 1884 L682 1577 L761 1577 Z " />
<glyph glyph-name="Thorn" unicode="&#xde;" horiz-adv-x="1349" d="M253 423 L372 1099 L832 1099 C927 1099 1004 1077 1063 1032 C1122 987 1151 925 1151 846 C1151 706 1107 601 1018 530 C929 459 828 423 713 423 L253 423 Z M237 332 L701 332 C856 332 987 379 1094 474 C1201 568 1254 697 1254 860 C1254 959 1218 1038 1145 1099 C1072 1160 974 1190 852 1190 L388 1190 L435 1459 L330 1459 L72 -3 L178 -3 L237 332 Z " />
<glyph glyph-name="germandbls" unicode="&#xdf;" horiz-adv-x="1273" d="M618 -23 C745 -23 859 26 959 124 C1058 221 1108 329 1109 446 C1109 511 1084 572 1035 631 C986 689 917 724 828 735 C899 764 964 817 1025 894 C1086 971 1116 1055 1116 1144 C1116 1227 1083 1304 1016 1375 C949 1446 857 1481 738 1481 C619 1481 510 1443 409 1366 C308 1289 246 1191 224 1074 L35 -2 L140 -2 L330 1072 C345 1159 392 1233 471 1296 C549 1359 633 1390 722 1390 C809 1390 879 1362 930 1307 C981 1252 1007 1191 1007 1126 C1007 1027 966 940 885 866 C803 791 718 754 631 754 L446 754 L431 666 L731 666 C816 666 882 642 931 595 C979 547 1003 494 1003 436 C1003 343 964 258 886 183 C808 107 723 69 632 69 C515 69 419 104 346 174 L295 95 C362 16 470 -23 618 -23 L618 -23 Z " />
<glyph glyph-name="agrave" unicode="&#xe0;" horiz-adv-x="1203" d="M420 58 C337 58 268 77 213 114 C157 151 129 198 129 257 C129 346 165 412 236 457 C307 501 392 523 491 523 L902 523 L864 307 C853 248 803 192 713 139 C622 85 525 58 420 58 L420 58 Z M362 -23 C578 -23 742 47 853 188 L819 -1 L912 -1 L1044 750 C1047 770 1049 789 1049 807 C1049 890 1007 957 923 1006 C838 1055 741 1080 630 1080 C563 1080 492 1069 418 1047 C343 1024 277 988 218 939 L273 875 C364 953 479 992 616 992 C710 992 788 970 851 927 C913 884 944 834 944 778 C944 767 934 708 915 601 L504 601 C369 601 256 569 163 504 C70 439 24 351 24 241 C24 169 56 107 119 55 C182 3 263 -23 362 -23 L362 -23 Z M508 1485 L393 1485 L687 1178 L766 1178 L508 1485 Z " />
<glyph glyph-name="aacute" unicode="&#xe1;" horiz-adv-x="1203" d="M420 58 C337 58 268 77 213 114 C157 151 129 198 129 257 C129 346 165 412 236 457 C307 501 392 523 491 523 L902 523 L864 307 C853 248 803 192 713 139 C622 85 525 58 420 58 L420 58 Z M362 -23 C578 -23 742 47 853 188 L819 -1 L912 -1 L1044 750 C1047 770 1049 789 1049 807 C1049 890 1007 957 923 1006 C838 1055 741 1080 630 1080 C563 1080 492 1069 418 1047 C343 1024 277 988 218 939 L273 875 C364 953 479 992 616 992 C710 992 788 970 851 927 C913 884 944 834 944 778 C944 767 934 708 915 601 L504 601 C369 601 256 569 163 504 C70 439 24 351 24 241 C24 169 56 107 119 55 C182 3 263 -23 362 -23 L362 -23 Z M629 1178 L923 1485 L809 1485 L550 1178 L629 1178 Z " />
<glyph glyph-name="acircumflex" unicode="&#xe2;" horiz-adv-x="1203" d="M420 58 C337 58 268 77 213 114 C157 151 129 198 129 257 C129 346 165 412 236 457 C307 501 392 523 491 523 L902 523 L864 307 C853 248 803 192 713 139 C622 85 525 58 420 58 L420 58 Z M362 -23 C578 -23 742 47 853 188 L819 -1 L912 -1 L1044 750 C1047 770 1049 789 1049 807 C1049 890 1007 957 923 1006 C838 1055 741 1080 630 1080 C563 1080 492 1069 418 1047 C343 1024 277 988 218 939 L273 875 C364 953 479 992 616 992 C710 992 788 970 851 927 C913 884 944 834 944 778 C944 767 934 708 915 601 L504 601 C369 601 256 569 163 504 C70 439 24 351 24 241 C24 169 56 107 119 55 C182 3 263 -23 362 -23 L362 -23 Z M739 1512 L643 1512 L324 1205 L407 1205 L689 1456 L882 1205 L949 1205 L739 1512 Z " />
<glyph glyph-name="atilde" unicode="&#xe3;" horiz-adv-x="1203" d="M420 58 C337 58 268 77 213 114 C157 151 129 198 129 257 C129 346 165 412 236 457 C307 501 392 523 491 523 L902 523 L864 307 C853 248 803 192 713 139 C622 85 525 58 420 58 L420 58 Z M362 -23 C578 -23 742 47 853 188 L819 -1 L912 -1 L1044 750 C1047 770 1049 789 1049 807 C1049 890 1007 957 923 1006 C838 1055 741 1080 630 1080 C563 1080 492 1069 418 1047 C343 1024 277 988 218 939 L273 875 C364 953 479 992 616 992 C710 992 788 970 851 927 C913 884 944 834 944 778 C944 767 934 708 915 601 L504 601 C369 601 256 569 163 504 C70 439 24 351 24 241 C24 169 56 107 119 55 C182 3 263 -23 362 -23 L362 -23 Z M821 1259 C918 1259 986 1304 1025 1394 L964 1429 C939 1364 891 1332 819 1332 C775 1332 727 1353 675 1396 C623 1438 566 1459 505 1459 C408 1459 341 1413 302 1322 L362 1288 C387 1353 435 1385 507 1385 C550 1385 598 1364 651 1322 C703 1280 760 1259 821 1259 L821 1259 Z " />
<glyph glyph-name="adieresis" unicode="&#xe4;" horiz-adv-x="1203" d="M420 58 C337 58 268 77 213 114 C157 151 129 198 129 257 C129 346 165 412 236 457 C307 501 392 523 491 523 L902 523 L864 307 C853 248 803 192 713 139 C622 85 525 58 420 58 L420 58 Z M362 -23 C578 -23 742 47 853 188 L819 -1 L912 -1 L1044 750 C1047 770 1049 789 1049 807 C1049 890 1007 957 923 1006 C838 1055 741 1080 630 1080 C563 1080 492 1069 418 1047 C343 1024 277 988 218 939 L273 875 C364 953 479 992 616 992 C710 992 788 970 851 927 C913 884 944 834 944 778 C944 767 934 708 915 601 L504 601 C369 601 256 569 163 504 C70 439 24 351 24 241 C24 169 56 107 119 55 C182 3 263 -23 362 -23 L362 -23 Z M509 1346 C545 1346 586 1375 586 1422 C586 1447 568 1474 532 1474 C496 1474 454 1441 454 1400 C454 1372 473 1346 509 1346 L509 1346 Z M813 1346 C849 1346 890 1377 890 1422 C890 1447 871 1474 835 1474 C799 1474 758 1442 758 1398 C758 1371 777 1346 813 1346 L813 1346 Z " />
<glyph glyph-name="aring" unicode="&#xe5;" horiz-adv-x="1203" d="M420 58 C337 58 268 77 213 114 C157 151 129 198 129 257 C129 346 165 412 236 457 C307 501 392 523 491 523 L902 523 L864 307 C853 248 803 192 713 139 C622 85 525 58 420 58 L420 58 Z M362 -23 C578 -23 742 47 853 188 L819 -1 L912 -1 L1044 750 C1047 770 1049 789 1049 807 C1049 890 1007 957 923 1006 C838 1055 741 1080 630 1080 C563 1080 492 1069 418 1047 C343 1024 277 988 218 939 L273 875 C364 953 479 992 616 992 C710 992 788 970 851 927 C913 884 944 834 944 778 C944 767 934 708 915 601 L504 601 C369 601 256 569 163 504 C70 439 24 351 24 241 C24 169 56 107 119 55 C182 3 263 -23 362 -23 L362 -23 Z M641 1226 C604 1226 576 1238 557 1261 C538 1284 528 1308 528 1334 C528 1381 545 1419 580 1448 C615 1477 651 1491 688 1491 C725 1491 754 1480 773 1457 C792 1434 801 1410 801 1384 C801 1337 784 1299 749 1270 C714 1241 678 1226 641 1226 L641 1226 Z M630 1167 C684 1167 736 1188 787 1230 C837 1272 862 1327 862 1394 C862 1432 848 1468 821 1501 C793 1534 752 1551 698 1551 C644 1551 592 1530 542 1487 C491 1444 466 1390 466 1324 C466 1285 480 1250 508 1217 C536 1184 577 1167 630 1167 L630 1167 Z " />
<glyph glyph-name="ae" unicode="&#xe6;" horiz-adv-x="2036" d="M420 57 C338 57 269 76 214 113 C158 150 130 197 130 256 C130 344 165 410 236 455 C307 499 392 521 492 521 L902 521 L864 306 C854 247 804 191 714 138 C623 84 525 57 420 57 L420 57 Z M1017 572 L1049 759 C1154 917 1298 996 1481 996 C1627 996 1724 960 1773 889 C1822 818 1846 737 1846 648 C1846 623 1844 598 1841 572 L1017 572 Z M1342 -25 C1476 -25 1613 16 1752 99 L1705 169 C1589 98 1473 62 1358 62 C1163 62 1033 145 970 312 L1003 493 L1927 493 C1940 547 1946 598 1946 645 C1946 752 1912 851 1843 942 C1774 1033 1658 1078 1496 1078 C1311 1078 1156 1007 1031 866 C1007 937 956 990 878 1026 C799 1061 717 1079 631 1079 C564 1079 493 1068 419 1046 C344 1023 277 987 218 937 L273 874 C364 952 479 991 617 991 C710 991 788 969 851 926 C913 883 944 833 944 777 C944 767 935 708 916 600 L504 600 C370 600 257 568 164 503 C71 438 25 349 25 238 C25 167 57 106 120 54 C183 2 264 -24 363 -24 C480 -24 586 -1 683 46 C780 93 852 150 901 217 C990 56 1137 -25 1342 -25 L1342 -25 Z " />
<glyph glyph-name="ccedilla" unicode="&#xe7;" horiz-adv-x="1181" d="M358 -407 C409 -407 463 -393 521 -366 C578 -339 607 -293 607 -229 C607 -158 549 -121 434 -116 L505 -22 C523 -23 541 -24 560 -24 C694 -24 823 17 948 100 L901 171 C802 100 694 65 577 65 C445 65 344 105 274 185 C203 264 168 351 168 445 C168 590 227 717 345 827 C463 936 595 991 741 991 C858 991 953 956 1027 885 L1099 956 C1003 1038 888 1079 754 1079 C569 1079 408 1016 270 891 C131 765 62 606 61 415 C61 305 98 210 172 129 C245 48 334 0 439 -13 L352 -130 L345 -169 L397 -169 C480 -169 522 -193 522 -241 C522 -280 503 -308 465 -325 C427 -342 394 -350 366 -350 C313 -350 269 -336 234 -307 L195 -357 C242 -390 297 -407 358 -407 L358 -407 Z " />
<glyph glyph-name="egrave" unicode="&#xe8;" horiz-adv-x="1251" d="M183 574 C211 692 272 792 365 874 C458 956 568 997 697 997 C828 997 922 963 977 896 C1032 828 1059 738 1059 625 C1059 608 1058 591 1057 574 L183 574 Z M558 -24 C692 -24 829 17 968 100 L920 170 C805 99 689 64 573 64 C440 64 339 102 270 179 C201 255 166 341 166 438 C166 456 167 475 169 494 L1142 494 C1155 544 1162 595 1162 646 C1162 766 1124 868 1048 953 C972 1037 860 1079 712 1079 C525 1079 370 1013 248 882 C125 750 64 601 64 435 C64 318 105 213 187 118 C269 23 393 -24 558 -24 L558 -24 Z M571 1485 L456 1485 L750 1178 L829 1178 L571 1485 Z " />
<glyph glyph-name="eacute" unicode="&#xe9;" horiz-adv-x="1251" d="M183 574 C211 692 272 792 365 874 C458 956 568 997 697 997 C828 997 922 963 977 896 C1032 828 1059 738 1059 625 C1059 608 1058 591 1057 574 L183 574 Z M558 -24 C692 -24 829 17 968 100 L920 170 C805 99 689 64 573 64 C440 64 339 102 270 179 C201 255 166 341 166 438 C166 456 167 475 169 494 L1142 494 C1155 544 1162 595 1162 646 C1162 766 1124 868 1048 953 C972 1037 860 1079 712 1079 C525 1079 370 1013 248 882 C125 750 64 601 64 435 C64 318 105 213 187 118 C269 23 393 -24 558 -24 L558 -24 Z M692 1178 L986 1485 L872 1485 L613 1178 L692 1178 Z " />
<glyph glyph-name="ecircumflex" unicode="&#xea;" horiz-adv-x="1251" d="M183 574 C211 692 272 792 365 874 C458 956 568 997 697 997 C828 997 922 963 977 896 C1032 828 1059 738 1059 625 C1059 608 1058 591 1057 574 L183 574 Z M558 -24 C692 -24 829 17 968 100 L920 170 C805 99 689 64 573 64 C440 64 339 102 270 179 C201 255 166 341 166 438 C166 456 167 475 169 494 L1142 494 C1155 544 1162 595 1162 646 C1162 766 1124 868 1048 953 C972 1037 860 1079 712 1079 C525 1079 370 1013 248 882 C125 750 64 601 64 435 C64 318 105 213 187 118 C269 23 393 -24 558 -24 L558 -24 Z M802 1512 L706 1512 L387 1205 L470 1205 L752 1456 L945 1205 L1012 1205 L802 1512 Z " />
<glyph glyph-name="edieresis" unicode="&#xeb;" horiz-adv-x="1251" d="M183 574 C211 692 272 792 365 874 C458 956 568 997 697 997 C828 997 922 963 977 896 C1032 828 1059 738 1059 625 C1059 608 1058 591 1057 574 L183 574 Z M558 -24 C692 -24 829 17 968 100 L920 170 C805 99 689 64 573 64 C440 64 339 102 270 179 C201 255 166 341 166 438 C166 456 167 475 169 494 L1142 494 C1155 544 1162 595 1162 646 C1162 766 1124 868 1048 953 C972 1037 860 1079 712 1079 C525 1079 370 1013 248 882 C125 750 64 601 64 435 C64 318 105 213 187 118 C269 23 393 -24 558 -24 L558 -24 Z M572 1346 C608 1346 649 1375 649 1422 C649 1447 631 1474 595 1474 C559 1474 517 1441 517 1400 C517 1372 536 1346 572 1346 L572 1346 Z M876 1346 C912 1346 953 1377 953 1422 C953 1447 934 1474 898 1474 C862 1474 821 1442 821 1398 C821 1371 840 1346 876 1346 L876 1346 Z " />
<glyph glyph-name="igrave" unicode="&#xec;" horiz-adv-x="429" d="M335 1057 L232 1057 L46 -1 L149 -1 L335 1057 Z M209 1485 L94 1485 L388 1178 L467 1178 L209 1485 Z " />
<glyph glyph-name="iacute" unicode="&#xed;" horiz-adv-x="429" d="M335 1057 L232 1057 L46 -1 L149 -1 L335 1057 Z M305 1178 L599 1485 L485 1485 L226 1178 L305 1178 Z " />
<glyph glyph-name="icircumflex" unicode="&#xee;" horiz-adv-x="429" d="M335 1057 L232 1057 L46 -1 L149 -1 L335 1057 Z M407 1512 L311 1512 L-8 1205 L75 1205 L357 1456 L550 1205 L617 1205 L407 1512 Z " />
<glyph glyph-name="idieresis" unicode="&#xef;" horiz-adv-x="429" d="M335 1057 L232 1057 L46 -1 L149 -1 L335 1057 Z M178 1346 C214 1346 255 1375 255 1422 C255 1447 237 1474 201 1474 C165 1474 123 1441 123 1400 C123 1372 142 1346 178 1346 L178 1346 Z M482 1346 C518 1346 559 1377 559 1422 C559 1447 540 1474 504 1474 C468 1474 427 1442 427 1398 C427 1371 446 1346 482 1346 L482 1346 Z " />
<glyph glyph-name="eth" unicode="&#xf0;" horiz-adv-x="1340" d="M553 65 C426 65 329 105 264 185 C199 265 166 350 166 441 C166 587 223 715 336 826 C449 937 575 992 716 992 C843 992 940 952 1005 872 C1070 792 1103 706 1103 615 C1103 463 1045 333 928 226 C811 119 686 65 553 65 L553 65 Z M537 -23 C700 -23 854 41 999 169 C1144 296 1217 492 1218 755 C1218 965 1162 1157 1051 1331 L1298 1415 L1311 1491 L1015 1392 C988 1428 958 1462 926 1494 L829 1459 C856 1434 885 1401 916 1362 L660 1275 L647 1200 L960 1304 C1050 1175 1102 1025 1117 855 C1038 1005 910 1080 732 1080 C556 1080 401 1016 266 889 C131 761 63 607 62 428 C62 318 102 215 183 120 C264 25 382 -23 537 -23 L537 -23 Z " />
<glyph glyph-name="ntilde" unicode="&#xf1;" horiz-adv-x="1329" d="M1154 663 C1159 691 1161 718 1161 743 C1161 834 1129 913 1066 980 C1003 1046 907 1079 779 1079 C679 1079 585 1054 498 1003 C410 952 342 889 295 813 L338 1056 L244 1056 L58 -2 L161 -2 L271 626 C289 727 343 814 434 885 C525 956 626 991 738 991 C843 991 922 965 975 912 C1028 859 1055 795 1055 722 C1055 702 1053 681 1050 660 L934 -2 L1037 -2 L1154 663 Z M930 1259 C1027 1259 1095 1304 1134 1394 L1073 1429 C1048 1364 1000 1332 928 1332 C884 1332 836 1353 784 1396 C732 1438 675 1459 614 1459 C517 1459 450 1413 411 1322 L471 1288 C496 1353 544 1385 616 1385 C659 1385 707 1364 760 1322 C812 1280 869 1259 930 1259 L930 1259 Z " />
<glyph glyph-name="ograve" unicode="&#xf2;" horiz-adv-x="1339" d="M553 64 C426 64 329 104 264 184 C199 264 166 350 166 441 C166 587 223 715 336 826 C449 936 575 991 716 991 C843 991 940 951 1005 871 C1070 791 1103 705 1103 614 C1102 462 1044 332 928 225 C811 118 686 64 553 64 L553 64 Z M537 -24 C706 -24 860 40 999 168 C1138 295 1207 449 1207 628 C1207 738 1167 841 1086 936 C1005 1031 887 1079 731 1079 C562 1079 409 1015 270 888 C131 760 62 606 62 426 C62 317 102 214 183 119 C264 24 382 -24 537 -24 L537 -24 Z M596 1485 L481 1485 L775 1178 L854 1178 L596 1485 Z " />
<glyph glyph-name="oacute" unicode="&#xf3;" horiz-adv-x="1339" d="M553 64 C426 64 329 104 264 184 C199 264 166 350 166 441 C166 587 223 715 336 826 C449 936 575 991 716 991 C843 991 940 951 1005 871 C1070 791 1103 705 1103 614 C1102 462 1044 332 928 225 C811 118 686 64 553 64 L553 64 Z M537 -24 C706 -24 860 40 999 168 C1138 295 1207 449 1207 628 C1207 738 1167 841 1086 936 C1005 1031 887 1079 731 1079 C562 1079 409 1015 270 888 C131 760 62 606 62 426 C62 317 102 214 183 119 C264 24 382 -24 537 -24 L537 -24 Z M717 1178 L1011 1485 L897 1485 L638 1178 L717 1178 Z " />
<glyph glyph-name="ocircumflex" unicode="&#xf4;" horiz-adv-x="1339" d="M553 64 C426 64 329 104 264 184 C199 264 166 350 166 441 C166 587 223 715 336 826 C449 936 575 991 716 991 C843 991 940 951 1005 871 C1070 791 1103 705 1103 614 C1102 462 1044 332 928 225 C811 118 686 64 553 64 L553 64 Z M537 -24 C706 -24 860 40 999 168 C1138 295 1207 449 1207 628 C1207 738 1167 841 1086 936 C1005 1031 887 1079 731 1079 C562 1079 409 1015 270 888 C131 760 62 606 62 426 C62 317 102 214 183 119 C264 24 382 -24 537 -24 L537 -24 Z M827 1512 L731 1512 L412 1205 L495 1205 L777 1456 L970 1205 L1037 1205 L827 1512 Z " />
<glyph glyph-name="otilde" unicode="&#xf5;" horiz-adv-x="1339" d="M553 64 C426 64 329 104 264 184 C199 264 166 350 166 441 C166 587 223 715 336 826 C449 936 575 991 716 991 C843 991 940 951 1005 871 C1070 791 1103 705 1103 614 C1102 462 1044 332 928 225 C811 118 686 64 553 64 L553 64 Z M537 -24 C706 -24 860 40 999 168 C1138 295 1207 449 1207 628 C1207 738 1167 841 1086 936 C1005 1031 887 1079 731 1079 C562 1079 409 1015 270 888 C131 760 62 606 62 426 C62 317 102 214 183 119 C264 24 382 -24 537 -24 L537 -24 Z M908 1259 C1005 1259 1073 1304 1112 1394 L1051 1429 C1026 1364 978 1332 906 1332 C862 1332 814 1353 762 1396 C710 1438 653 1459 592 1459 C495 1459 428 1413 389 1322 L449 1288 C474 1353 522 1385 594 1385 C637 1385 685 1364 738 1322 C790 1280 847 1259 908 1259 L908 1259 Z " />
<glyph glyph-name="odieresis" unicode="&#xf6;" horiz-adv-x="1339" d="M553 64 C426 64 329 104 264 184 C199 264 166 350 166 441 C166 587 223 715 336 826 C449 936 575 991 716 991 C843 991 940 951 1005 871 C1070 791 1103 705 1103 614 C1102 462 1044 332 928 225 C811 118 686 64 553 64 L553 64 Z M537 -24 C706 -24 860 40 999 168 C1138 295 1207 449 1207 628 C1207 738 1167 841 1086 936 C1005 1031 887 1079 731 1079 C562 1079 409 1015 270 888 C131 760 62 606 62 426 C62 317 102 214 183 119 C264 24 382 -24 537 -24 L537 -24 Z M597 1346 C633 1346 674 1375 674 1422 C674 1447 656 1474 620 1474 C584 1474 542 1441 542 1400 C542 1372 561 1346 597 1346 L597 1346 Z M901 1346 C937 1346 978 1377 978 1422 C978 1447 959 1474 923 1474 C887 1474 846 1442 846 1398 C846 1371 865 1346 901 1346 L901 1346 Z " />
<glyph glyph-name="divide" unicode="&#xf7;" horiz-adv-x="1292" d="M1108 768 L197 768 L184 691 L1094 691 L1108 768 Z M691 987 C727 987 768 1017 768 1062 C768 1087 749 1114 714 1114 C678 1114 637 1085 637 1038 C637 1013 655 987 691 987 L691 987 Z M578 345 C614 345 655 376 655 420 C655 447 636 472 600 472 C565 472 523 441 523 397 C523 372 542 345 578 345 L578 345 Z " />
<glyph glyph-name="oslash" unicode="&#xf8;" horiz-adv-x="1340" d="M538 -23 C707 -23 861 41 1000 169 C1139 296 1208 450 1208 629 C1208 758 1160 867 1065 958 L1174 1081 L1080 1081 L1009 1002 C932 1054 840 1080 732 1080 C563 1080 409 1016 270 889 C131 761 62 607 62 428 C62 299 109 189 204 99 L96 -23 L190 -23 L260 55 C337 3 429 -23 538 -23 L538 -23 Z M272 175 C199 248 162 338 162 443 C162 588 219 716 334 827 C448 937 575 992 716 992 C804 992 880 970 943 927 L272 175 Z M553 65 C465 65 389 87 326 130 L997 882 C1070 809 1107 720 1107 615 C1107 463 1048 333 931 226 C813 119 687 65 553 65 L553 65 Z " />
<glyph glyph-name="ugrave" unicode="&#xf9;" horiz-adv-x="1303" d="M470 -25 C670 -25 826 64 939 242 L896 -2 L989 -2 L1176 1057 L1073 1057 L962 429 C945 328 893 242 806 171 C719 100 620 64 507 64 C403 64 326 90 277 143 C227 195 202 257 202 330 C202 351 204 372 207 395 L324 1057 L221 1057 L104 391 C99 362 97 335 97 308 C97 219 127 142 188 75 C248 8 342 -25 470 -25 L470 -25 Z M586 1485 L471 1485 L765 1178 L844 1178 L586 1485 Z " />
<glyph glyph-name="uacute" unicode="&#xfa;" horiz-adv-x="1303" d="M470 -25 C670 -25 826 64 939 242 L896 -2 L989 -2 L1176 1057 L1073 1057 L962 429 C945 328 893 242 806 171 C719 100 620 64 507 64 C403 64 326 90 277 143 C227 195 202 257 202 330 C202 351 204 372 207 395 L324 1057 L221 1057 L104 391 C99 362 97 335 97 308 C97 219 127 142 188 75 C248 8 342 -25 470 -25 L470 -25 Z M707 1178 L1001 1485 L887 1485 L628 1178 L707 1178 Z " />
<glyph glyph-name="ucircumflex" unicode="&#xfb;" horiz-adv-x="1303" d="M470 -25 C670 -25 826 64 939 242 L896 -2 L989 -2 L1176 1057 L1073 1057 L962 429 C945 328 893 242 806 171 C719 100 620 64 507 64 C403 64 326 90 277 143 C227 195 202 257 202 330 C202 351 204 372 207 395 L324 1057 L221 1057 L104 391 C99 362 97 335 97 308 C97 219 127 142 188 75 C248 8 342 -25 470 -25 L470 -25 Z M797 1512 L701 1512 L382 1205 L465 1205 L747 1456 L940 1205 L1007 1205 L797 1512 Z " />
<glyph glyph-name="udieresis" unicode="&#xfc;" horiz-adv-x="1303" d="M470 -25 C670 -25 826 64 939 242 L896 -2 L989 -2 L1176 1057 L1073 1057 L962 429 C945 328 893 242 806 171 C719 100 620 64 507 64 C403 64 326 90 277 143 C227 195 202 257 202 330 C202 351 204 372 207 395 L324 1057 L221 1057 L104 391 C99 362 97 335 97 308 C97 219 127 142 188 75 C248 8 342 -25 470 -25 L470 -25 Z M567 1346 C603 1346 644 1375 644 1422 C644 1447 626 1474 590 1474 C554 1474 512 1441 512 1400 C512 1372 531 1346 567 1346 L567 1346 Z M871 1346 C907 1346 948 1377 948 1422 C948 1447 929 1474 893 1474 C857 1474 816 1442 816 1398 C816 1371 835 1346 871 1346 L871 1346 Z " />
<glyph glyph-name="yacute" unicode="&#xfd;" horiz-adv-x="1088" d="M23 -428 C104 -428 167 -410 212 -375 C256 -339 300 -283 344 -208 L1109 1057 L988 1057 L449 153 L215 1057 L107 1057 L390 43 L230 -217 C177 -303 112 -346 37 -346 C7 -346 -27 -343 -64 -338 L-79 -421 C-49 -426 -15 -428 23 -428 L23 -428 Z M623 1178 L917 1485 L803 1485 L544 1178 L623 1178 Z " />
<glyph glyph-name="thorn" unicode="&#xfe;" horiz-adv-x="1394" d="M604 64 C476 64 379 104 313 184 C247 264 214 350 214 442 C214 587 271 715 385 826 C498 936 626 991 767 991 C896 991 993 951 1059 871 C1125 791 1158 705 1158 614 C1157 462 1099 332 982 225 C865 118 739 64 604 64 L604 64 Z M187 274 C260 75 399 -24 606 -24 C771 -24 922 40 1058 168 C1194 295 1262 449 1262 630 C1262 739 1223 842 1146 937 C1068 1032 953 1079 800 1079 C586 1079 407 974 263 764 L386 1459 L292 1459 L-36 -405 L67 -405 L187 274 Z " />
<glyph glyph-name="ydieresis" unicode="&#xff;" horiz-adv-x="1088" d="M23 -428 C104 -428 167 -410 212 -375 C256 -339 300 -283 344 -208 L1109 1057 L988 1057 L449 153 L215 1057 L107 1057 L390 43 L230 -217 C177 -303 112 -346 37 -346 C7 -346 -27 -343 -64 -338 L-79 -421 C-49 -426 -15 -428 23 -428 L23 -428 Z M484 1346 C520 1346 561 1375 561 1422 C561 1447 543 1474 507 1474 C471 1474 429 1441 429 1400 C429 1372 448 1346 484 1346 L484 1346 Z M788 1346 C824 1346 865 1377 865 1422 C865 1447 846 1474 810 1474 C774 1474 733 1442 733 1398 C733 1371 752 1346 788 1346 L788 1346 Z " />
<glyph glyph-name="dotlessi" unicode="&#x131;" horiz-adv-x="429" d="M324 1057 L221 1057 L35 -1 L138 -1 L324 1057 Z " />
<glyph glyph-name="Lslash" unicode="&#x141;" horiz-adv-x="1170" d="M1029 89 L193 89 L290 640 L816 911 L832 1004 L307 733 L434 1457 L329 1457 L190 673 L-61 543 L-77 450 L174 580 L71 -2 L1013 -2 L1029 89 Z " />
<glyph glyph-name="lslash" unicode="&#x142;" horiz-adv-x="456" d="M277 710 L529 840 L545 933 L294 803 L409 1457 L305 1457 L179 744 L-72 614 L-88 521 L163 651 L48 -2 L152 -2 L277 710 Z " />
<glyph glyph-name="OE" unicode="&#x152;" horiz-adv-x="2278" d="M770 70 C585 70 445 127 349 241 C253 354 205 476 205 607 C206 815 287 997 450 1152 C613 1307 797 1384 1002 1384 C1125 1384 1229 1350 1313 1283 L1117 171 C1009 104 893 70 770 70 L770 70 Z M754 -25 C871 -25 985 -1 1095 46 L1086 -2 L2039 -2 L2056 89 L1208 89 L1313 683 L2040 683 L2056 770 L1328 770 L1433 1366 L2281 1366 L2297 1457 L1344 1457 L1335 1409 C1242 1456 1136 1479 1019 1479 C784 1479 572 1392 383 1219 C194 1046 99 836 98 591 C98 441 154 301 265 171 C376 40 539 -25 754 -25 L754 -25 Z " />
<glyph glyph-name="oe" unicode="&#x153;" horiz-adv-x="2281" d="M553 65 C426 65 329 105 264 185 C199 265 166 351 166 442 C166 588 223 716 336 827 C449 937 576 992 716 992 C843 992 940 952 1005 873 C1070 793 1103 707 1103 616 C1102 470 1044 342 928 231 C812 120 687 65 553 65 L553 65 Z M1214 573 C1241 692 1301 792 1394 874 C1487 956 1598 997 1727 997 C1860 997 1953 963 2008 895 C2062 827 2089 738 2089 628 C2089 611 2088 592 2087 573 L1214 573 Z M1587 -24 C1722 -24 1858 17 1997 100 L1950 170 C1835 99 1719 63 1603 63 C1469 63 1368 101 1300 178 C1231 255 1197 341 1197 438 C1197 456 1198 475 1200 494 L2172 494 C2185 544 2192 595 2192 646 C2192 753 2157 852 2088 943 C2019 1034 1903 1079 1741 1079 C1497 1079 1311 963 1183 731 C1118 964 968 1080 732 1080 C557 1080 401 1016 266 889 C130 761 62 607 62 428 C62 318 102 215 183 120 C264 25 382 -23 537 -23 C775 -23 968 95 1115 331 C1177 94 1334 -24 1587 -24 L1587 -24 Z " />
<glyph glyph-name="Scaron" unicode="&#x160;" horiz-adv-x="1351" d="M562 -24 C715 -24 862 19 1003 104 C1144 189 1215 302 1215 443 C1215 587 1116 663 940 710 L538 826 C396 867 325 937 325 1037 C325 1140 377 1224 481 1289 C584 1354 695 1386 813 1386 C908 1386 992 1368 1067 1333 C1142 1297 1193 1250 1221 1191 L1311 1249 C1211 1402 1050 1479 827 1479 C678 1479 537 1436 406 1351 C275 1265 209 1152 209 1011 C209 946 232 893 279 850 C325 807 385 775 458 753 L876 629 C1023 589 1101 536 1101 429 C1101 318 1044 231 931 166 C817 101 700 69 579 69 C472 69 372 93 279 140 C185 187 128 248 109 322 L19 271 C42 183 108 112 215 58 C322 3 437 -24 562 -24 L562 -24 Z M1129 1911 L1046 1911 L764 1660 L571 1911 L504 1911 L714 1604 L810 1604 L1129 1911 Z " />
<glyph glyph-name="scaron" unicode="&#x161;" horiz-adv-x="1058" d="M395 -25 C504 -25 612 5 717 64 C822 123 874 206 874 312 C874 413 794 476 671 512 L352 611 C261 640 216 687 216 752 C216 822 249 880 315 926 C380 972 472 995 591 995 C710 995 809 961 890 894 L952 967 C849 1041 727 1078 586 1078 C451 1078 337 1045 244 978 C150 911 103 827 103 726 C103 643 157 576 278 540 L612 432 C712 399 762 351 762 287 C762 220 725 165 650 122 C575 79 487 57 388 57 C219 57 99 105 26 200 L-40 136 C35 29 180 -25 395 -25 L395 -25 Z M977 1512 L894 1512 L612 1261 L419 1512 L352 1512 L562 1205 L658 1205 L977 1512 Z " />
<glyph glyph-name="Ydieresis" unicode="&#x178;" horiz-adv-x="1376" d="M737 704 L1451 1457 L1306 1457 L692 806 L307 1457 L183 1457 L631 705 L506 -2 L612 -2 L737 704 Z M661 1745 C697 1745 738 1774 738 1821 C738 1846 720 1873 684 1873 C648 1873 606 1840 606 1799 C606 1771 625 1745 661 1745 L661 1745 Z M965 1745 C1001 1745 1042 1776 1042 1821 C1042 1846 1023 1873 987 1873 C951 1873 910 1841 910 1797 C910 1770 929 1745 965 1745 L965 1745 Z " />
<glyph glyph-name="Zcaron" unicode="&#x17d;" horiz-adv-x="1247" d="M1024 89 L143 89 L1253 1389 L1265 1457 L239 1457 L222 1365 L1103 1365 L-7 65 L-19 -2 L1008 -2 L1024 89 Z M1058 1911 L975 1911 L693 1660 L500 1911 L433 1911 L643 1604 L739 1604 L1058 1911 Z " />
<glyph glyph-name="zcaron" unicode="&#x17e;" horiz-adv-x="1094" d="M874 81 L126 81 L1031 973 L1046 1057 L164 1057 L149 973 L898 973 L-8 81 L-23 -2 L859 -2 L874 81 Z M975 1512 L892 1512 L610 1261 L417 1512 L350 1512 L560 1205 L656 1205 L975 1512 Z " />
<glyph glyph-name="florin" unicode="&#x192;" horiz-adv-x="1216" d="M90 -426 C191 -425 282 -394 363 -334 C444 -274 494 -192 515 -88 L702 974 L1075 974 L1091 1057 L717 1057 C739 1186 782 1275 845 1324 C908 1373 977 1398 1052 1398 C1091 1398 1126 1395 1156 1389 L1171 1473 C1134 1478 1096 1481 1056 1481 C954 1480 863 1450 783 1391 C702 1332 652 1250 631 1146 L615 1057 L373 1057 L357 974 L601 974 L413 -88 C398 -163 360 -225 299 -272 C237 -319 168 -343 93 -343 C54 -343 19 -340 -11 -334 L-26 -418 C11 -423 49 -426 90 -426 L90 -426 Z " />
<glyph glyph-name="circumflex" unicode="&#x2c6;" horiz-adv-x="884" d="M629 1512 L533 1512 L214 1205 L297 1205 L579 1456 L772 1205 L839 1205 L629 1512 Z " />
<glyph glyph-name="caron" unicode="&#x2c7;" horiz-adv-x="883" d="M893 1512 L810 1512 L528 1261 L335 1512 L268 1512 L478 1205 L574 1205 L893 1512 Z " />
<glyph glyph-name="uni02C9" unicode="&#x2c9;" horiz-adv-x="884" d="M857 1397 L262 1397 L249 1321 L843 1321 L857 1397 Z " />
<glyph glyph-name="breve" unicode="&#x2d8;" horiz-adv-x="883" d="M525 1205 C632 1205 715 1238 773 1305 C831 1372 866 1441 879 1512 L828 1512 C817 1451 787 1398 737 1351 C686 1304 620 1280 538 1280 C457 1280 401 1301 372 1342 C342 1383 327 1426 327 1470 C327 1483 328 1497 331 1512 L280 1512 C277 1493 275 1474 275 1455 C275 1404 290 1349 320 1292 C349 1234 418 1205 525 1205 L525 1205 Z " />
<glyph glyph-name="dotaccent" unicode="&#x2d9;" horiz-adv-x="883" d="M543 1304 C579 1304 621 1336 621 1379 C621 1406 602 1432 566 1432 C530 1432 489 1403 489 1356 C489 1331 507 1304 543 1304 L543 1304 Z " />
<glyph glyph-name="ring" unicode="&#x2da;" horiz-adv-x="884" d="M530 1226 C493 1226 465 1238 446 1261 C427 1284 417 1308 417 1334 C417 1381 434 1419 469 1448 C504 1477 540 1491 577 1491 C614 1491 643 1480 662 1457 C681 1434 690 1410 690 1384 C690 1337 673 1299 638 1270 C603 1241 567 1226 530 1226 L530 1226 Z M519 1167 C573 1167 625 1188 676 1230 C726 1272 751 1327 751 1394 C751 1432 737 1468 710 1501 C682 1534 641 1551 587 1551 C533 1551 481 1530 431 1487 C380 1444 355 1390 355 1324 C355 1285 369 1250 397 1217 C425 1184 466 1167 519 1167 L519 1167 Z " />
<glyph glyph-name="ogonek" unicode="&#x2db;" horiz-adv-x="884" d="M247 -407 C332 -405 399 -382 450 -339 L421 -289 C378 -330 324 -350 259 -350 C188 -350 153 -326 153 -279 C153 -200 223 -107 363 0 L293 0 C143 -99 68 -198 68 -295 C68 -370 128 -407 247 -407 L247 -407 Z " />
<glyph glyph-name="tilde" unicode="&#x2dc;" horiz-adv-x="884" d="M710 1259 C807 1259 875 1304 914 1394 L853 1429 C828 1364 780 1332 708 1332 C664 1332 616 1353 564 1396 C512 1438 455 1459 394 1459 C297 1459 230 1413 191 1322 L251 1288 C276 1353 324 1385 396 1385 C439 1385 487 1364 540 1322 C592 1280 649 1259 710 1259 L710 1259 Z " />
<glyph glyph-name="hungarumlaut" unicode="&#x2dd;" horiz-adv-x="884" d="M548 1486 L448 1486 L190 1178 L264 1178 L548 1486 Z M906 1486 L807 1486 L549 1178 L622 1178 L906 1486 Z " />
<glyph glyph-name="&amp;#x3a9;" unicode="&#x3a9;" horiz-adv-x="1588" d="M1366 94 L922 94 L937 180 C1080 223 1211 311 1328 442 C1445 573 1504 739 1504 940 C1504 1081 1460 1199 1371 1293 C1256 1416 1107 1478 926 1478 C705 1478 514 1398 353 1238 C192 1078 111 888 111 669 C111 570 139 475 194 383 C249 291 337 223 458 180 L442 94 L-2 94 L-18 -1 L525 -1 L565 224 C446 255 357 314 300 399 C243 484 214 575 214 674 C214 877 286 1046 429 1181 C572 1316 732 1383 909 1383 C1060 1383 1180 1337 1268 1244 C1355 1151 1399 1044 1399 921 C1399 740 1343 586 1230 461 C1117 335 989 256 845 224 L806 -1 L1349 -1 L1366 94 Z " />
<glyph glyph-name="&amp;#x2126;" unicode="&#x2126;" horiz-adv-x="1588" d="M1366 94 L922 94 L937 180 C1080 223 1211 311 1328 442 C1445 573 1504 739 1504 940 C1504 1081 1460 1199 1371 1293 C1256 1416 1107 1478 926 1478 C705 1478 514 1398 353 1238 C192 1078 111 888 111 669 C111 570 139 475 194 383 C249 291 337 223 458 180 L442 94 L-2 94 L-18 -1 L525 -1 L565 224 C446 255 357 314 300 399 C243 484 214 575 214 674 C214 877 286 1046 429 1181 C572 1316 732 1383 909 1383 C1060 1383 1180 1337 1268 1244 C1355 1151 1399 1044 1399 921 C1399 740 1343 586 1230 461 C1117 335 989 256 845 224 L806 -1 L1349 -1 L1366 94 Z " />
<glyph glyph-name="pi" unicode="&#x3c0;" horiz-adv-x="1342" d="M1013 -23 C1046 -23 1075 -17 1102 -4 L1088 82 C1071 75 1055 71 1040 71 C989 71 981 95 981 120 C981 121 982 129 985 145 L1129 968 L1274 968 L1290 1058 L168 1058 L152 968 L297 968 L126 -2 L229 -2 L400 968 L1026 968 L882 143 C877 118 875 104 875 102 C875 71 886 43 908 17 C930 -10 965 -23 1013 -23 L1013 -23 Z " />
<glyph glyph-name="uni1E9E" unicode="&#x1e9e;" horiz-adv-x="1315" d="M668 -23 C789 -23 900 24 1001 119 C1102 213 1153 332 1153 476 C1153 545 1130 600 1084 640 C1038 679 981 706 912 720 C843 734 735 741 586 742 L1147 1232 C1078 1398 955 1481 777 1481 C658 1481 548 1443 446 1366 C344 1289 283 1191 262 1074 L72 -2 L178 -2 L367 1070 C382 1157 430 1232 509 1295 C588 1358 672 1390 761 1390 C879 1390 967 1337 1025 1230 L482 754 L467 666 L580 667 C657 667 730 664 800 659 C869 653 928 633 975 600 C1022 566 1046 518 1046 455 C1046 349 1007 258 928 183 C849 107 765 69 674 69 C556 69 459 104 382 174 L332 95 C408 16 520 -23 668 -23 L668 -23 Z " />
<glyph glyph-name="endash" unicode="&#x2013;" horiz-adv-x="1293" d="M1104 573 L135 573 L119 485 L1089 485 L1104 573 Z " />
<glyph glyph-name="emdash" unicode="&#x2014;" horiz-adv-x="1939" d="M1911 573 L-27 573 L-43 485 L1896 485 L1911 573 Z " />
<glyph glyph-name="quoteleft" unicode="&#x2018;" horiz-adv-x="371" d="M478 1495 C379 1403 305 1331 256 1278 C207 1225 182 1175 182 1128 C182 1095 205 1069 246 1069 C282 1069 321 1100 321 1141 C321 1168 301 1191 301 1207 C301 1218 312 1240 334 1275 C356 1310 413 1372 506 1463 L478 1495 Z " />
<glyph glyph-name="quoteright" unicode="&#x2019;" horiz-adv-x="371" d="M88 1067 C187 1159 262 1232 311 1285 C360 1338 384 1387 384 1434 C384 1467 361 1493 320 1493 C284 1493 245 1462 245 1421 C245 1394 266 1371 266 1355 C266 1344 255 1322 233 1287 C210 1252 153 1190 60 1099 L88 1067 Z " />
<glyph glyph-name="quotesinglbase" unicode="&#x201a;" horiz-adv-x="371" d="M-153 -301 C-54 -209 21 -137 70 -84 C119 -31 143 19 143 66 C143 99 120 125 79 125 C43 125 4 94 4 53 C4 26 24 3 24 -13 C24 -24 13 -46 -9 -81 C-31 -116 -88 -178 -181 -269 L-153 -301 Z " />
<glyph glyph-name="quotedblleft" unicode="&#x201c;" horiz-adv-x="696" d="M478 1495 C379 1403 305 1331 256 1278 C207 1225 182 1175 182 1128 C182 1095 205 1069 246 1069 C282 1069 321 1100 321 1141 C321 1168 301 1191 301 1207 C301 1218 312 1240 334 1275 C356 1310 413 1372 506 1463 L478 1495 Z M803 1495 C704 1403 630 1331 581 1278 C532 1225 507 1175 507 1128 C507 1095 530 1069 571 1069 C607 1069 646 1100 646 1141 C646 1168 626 1191 626 1207 C626 1218 637 1240 659 1275 C681 1310 738 1372 831 1463 L803 1495 Z " />
<glyph glyph-name="quotedblright" unicode="&#x201d;" horiz-adv-x="696" d="M88 1069 C187 1161 262 1234 311 1287 C360 1340 384 1389 384 1436 C384 1469 361 1495 320 1495 C284 1495 246 1464 246 1423 C246 1396 266 1373 266 1357 C266 1346 255 1324 233 1289 C210 1254 153 1192 60 1101 L88 1069 Z M413 1069 C512 1161 587 1234 636 1287 C685 1340 709 1389 709 1436 C709 1469 686 1495 645 1495 C609 1495 571 1464 571 1423 C571 1396 591 1373 591 1357 C591 1346 580 1324 558 1289 C535 1254 478 1192 385 1101 L413 1069 Z " />
<glyph glyph-name="quotedblbase" unicode="&#x201e;" horiz-adv-x="696" d="M-153 -301 C-54 -209 21 -137 70 -84 C119 -31 143 19 143 66 C143 99 120 125 79 125 C43 125 4 94 4 53 C4 26 24 3 24 -13 C24 -24 13 -46 -9 -81 C-31 -116 -88 -178 -181 -269 L-153 -301 Z M172 -301 C271 -209 346 -137 395 -84 C444 -31 468 19 468 66 C468 99 445 125 404 125 C368 125 329 94 329 53 C329 26 350 3 350 -13 C350 -24 339 -46 317 -81 C294 -116 237 -178 144 -269 L172 -301 Z " />
<glyph glyph-name="dagger" unicode="&#x2020;" horiz-adv-x="1292" d="M741 1014 L1146 1014 L1160 1090 L754 1090 L825 1493 L737 1493 L666 1090 L260 1090 L246 1014 L652 1014 L400 -414 L489 -414 L741 1014 Z " />
<glyph glyph-name="daggerdbl" unicode="&#x2021;" horiz-adv-x="1292" d="M560 -11 L966 -11 L979 65 L573 65 L741 1014 L1146 1014 L1160 1090 L754 1090 L825 1493 L737 1493 L665 1090 L260 1090 L246 1014 L652 1014 L485 65 L79 65 L66 -11 L471 -11 L400 -414 L489 -414 L560 -11 Z " />
<glyph glyph-name="bullet" unicode="&#x2022;" horiz-adv-x="1292" d="M646 593 C683 593 714 606 741 633 C767 659 780 690 780 727 C780 764 767 796 741 823 C714 849 683 862 646 862 C609 862 577 849 551 823 C524 796 511 764 511 727 C511 690 524 659 551 633 C577 606 609 593 646 593 L646 593 Z " />
<glyph glyph-name="ellipsis" unicode="&#x2026;" horiz-adv-x="1225" d="M53 -23 C74 -23 94 -15 114 2 C133 18 143 39 143 64 C143 95 120 125 79 125 C58 125 38 117 19 101 C-1 84 -11 63 -11 38 C-11 7 10 -23 53 -23 L53 -23 Z M480 -23 C523 -23 570 12 570 64 C570 95 549 125 506 125 C485 125 465 117 446 101 C427 85 417 63 417 36 C417 8 439 -23 480 -23 L480 -23 Z M908 -23 C929 -23 949 -15 969 2 C988 18 998 39 998 64 C998 95 977 125 934 125 C913 125 893 117 874 101 C854 84 844 63 844 38 C844 7 867 -23 908 -23 L908 -23 Z " />
<glyph glyph-name="perthousand" unicode="&#x2030;" horiz-adv-x="2759" d="M1575 1481 L1463 1481 L316 -23 L427 -23 L1575 1481 Z M508 816 C427 816 365 841 323 891 C281 941 260 995 260 1052 C260 1140 296 1219 369 1289 C442 1358 522 1393 609 1393 C690 1393 752 1368 794 1319 C835 1269 856 1215 856 1158 C856 1069 820 990 748 921 C675 851 595 816 508 816 L508 816 Z M492 729 C604 729 708 771 803 854 C898 937 946 1044 946 1174 C946 1249 919 1319 865 1384 C810 1449 730 1481 625 1481 C513 1481 409 1438 314 1351 C218 1264 170 1159 170 1037 C170 962 197 892 252 827 C307 762 387 729 492 729 L492 729 Z M1282 64 C1201 64 1139 89 1097 139 C1055 189 1034 243 1034 300 C1034 388 1070 467 1143 537 C1216 606 1296 641 1383 641 C1464 641 1526 616 1568 567 C1609 517 1630 463 1630 406 C1630 311 1594 230 1522 164 C1449 97 1369 64 1282 64 L1282 64 Z M1266 -23 C1385 -23 1490 20 1582 107 C1674 194 1720 299 1720 422 C1720 497 1693 567 1639 632 C1584 697 1504 729 1399 729 C1286 729 1182 686 1087 599 C992 512 944 407 944 285 C944 210 971 140 1026 75 C1081 10 1161 -23 1266 -23 L1266 -23 Z M2134 -23 C2246 -23 2350 19 2445 102 C2540 185 2588 292 2588 422 C2588 497 2561 567 2507 632 C2452 697 2372 729 2267 729 C2155 729 2051 686 1956 599 C1860 512 1812 407 1812 285 C1812 210 1839 140 1894 75 C1949 10 2029 -23 2134 -23 L2134 -23 Z M2150 64 C2069 64 2007 89 1965 139 C1923 189 1902 243 1902 300 C1902 388 1938 467 2011 537 C2084 606 2164 641 2251 641 C2332 641 2394 616 2436 567 C2477 517 2498 463 2498 406 C2498 317 2462 238 2390 169 C2317 99 2237 64 2150 64 L2150 64 Z " />
<glyph glyph-name="guilsinglleft" unicode="&#x2039;" horiz-adv-x="790" d="M291 529 L639 984 L536 984 L189 529 L376 74 L478 74 L291 529 Z " />
<glyph glyph-name="guilsinglright" unicode="&#x203a;" horiz-adv-x="790" d="M531 529 L344 984 L242 984 L429 529 L81 74 L184 74 L531 529 Z " />
<glyph glyph-name="&amp;#x2044;" unicode="&#x2044;" horiz-adv-x="197" d="M728 1481 L617 1481 L-530 -22 L-419 -22 L728 1481 Z " />
<glyph glyph-name="&amp;#x2215;" unicode="&#x2215;" horiz-adv-x="197" d="M728 1481 L617 1481 L-530 -22 L-419 -22 L728 1481 Z " />
<glyph glyph-name="franc" unicode="&#x20a3;" horiz-adv-x="1292" d="M322 385 L901 385 L916 472 L337 472 L374 683 L1103 683 L1118 770 L390 770 L495 1366 L1343 1366 L1359 1457 L405 1457 L231 472 L17 472 L2 385 L216 385 L148 -2 L253 -2 L322 385 Z " />
<glyph glyph-name="lira" unicode="&#x20a4;" horiz-adv-x="1292" d="M1038 84 L292 84 L366 505 L808 505 L823 590 L381 590 L430 868 L872 868 L887 954 L445 954 L465 1068 C482 1160 524 1237 591 1298 C658 1359 738 1390 831 1391 C975 1390 1088 1327 1171 1202 L1246 1262 C1149 1408 1013 1481 840 1481 C718 1481 613 1441 524 1360 C435 1279 379 1180 358 1061 L339 954 L241 954 L226 868 L324 868 L275 590 L177 590 L162 505 L260 505 L186 84 L27 84 L12 -1 L1023 -1 L1038 84 Z " />
<glyph glyph-name="Euro" unicode="&#x20ac;" horiz-adv-x="1293" d="M805 -25 C914 -25 1020 3 1121 60 L1138 159 C1035 96 930 64 821 64 C672 64 565 108 501 197 C436 286 401 388 396 505 L943 505 L958 590 L394 590 C398 683 415 775 444 868 L1007 868 L1023 954 L476 954 C513 1055 579 1154 676 1249 C773 1344 899 1391 1055 1391 C1164 1391 1258 1359 1339 1296 L1356 1395 C1275 1452 1180 1480 1071 1480 C878 1480 724 1424 609 1312 C494 1200 415 1081 371 954 L94 954 L79 868 L341 868 C313 775 297 683 292 590 L30 590 L15 505 L291 505 C295 364 335 240 411 134 C487 28 618 -25 805 -25 L805 -25 Z " />
<glyph glyph-name="uni20B9" unicode="&#x20b9;" horiz-adv-x="1291" d="M591 609 C715 619 819 658 904 726 C988 793 1043 883 1069 994 L1247 994 L1262 1079 L1083 1079 C1086 1100 1087 1119 1087 1137 C1087 1232 1045 1311 962 1375 L1315 1375 L1329 1457 L219 1457 L204 1373 L664 1373 C794 1373 880 1347 923 1296 C965 1245 986 1185 986 1118 C986 1105 985 1092 984 1079 L152 1079 L137 994 L970 994 C925 786 782 682 542 682 L82 682 L67 598 L464 598 L841 -3 L976 -3 L591 609 Z " />
<glyph glyph-name="uni20BA" unicode="&#x20ba;" horiz-adv-x="1293" d="M365 -2 C570 -2 747 58 897 178 C1047 298 1139 456 1174 653 L1077 653 C1046 476 965 339 832 240 C699 141 549 90 382 89 L323 89 L395 499 L899 746 L916 842 L412 595 L469 918 L973 1165 L989 1261 L486 1014 L564 1457 L458 1457 L370 957 L124 836 L107 740 L353 861 L296 538 L50 417 L33 321 L279 442 L201 -2 L365 -2 L365 -2 Z " />
<glyph glyph-name="uni2113" unicode="&#x2113;" horiz-adv-x="789" d="M338 1257 C347 1310 372 1353 412 1388 C452 1422 496 1439 544 1439 C591 1439 627 1424 652 1395 C677 1366 689 1333 689 1296 C689 1207 647 1138 564 1089 L281 933 L338 1257 Z M286 -25 C393 -23 503 26 618 122 L625 166 C508 68 399 19 297 19 C202 19 155 72 155 179 C155 206 158 236 164 269 L274 894 L562 1051 C673 1114 728 1198 728 1302 C728 1345 713 1385 684 1423 C654 1461 606 1480 541 1480 C472 1480 409 1457 352 1412 C295 1367 261 1309 248 1239 L185 880 L36 798 L29 759 L178 841 L79 277 C73 242 70 211 70 182 C70 44 142 -25 286 -25 L286 -25 Z " />
<glyph glyph-name="trademark" unicode="&#x2122;" horiz-adv-x="1619" d="M1638 1459 L1575 1459 L1224 1079 L1008 1459 L944 1459 L816 729 L892 729 L996 1320 L1185 986 L1231 986 L1537 1320 L1433 729 L1509 729 L1638 1459 Z M557 1389 L810 1389 L822 1459 L239 1459 L227 1389 L480 1389 L363 729 L441 729 L557 1389 Z " />
<glyph glyph-name="estimated" unicode="&#x212e;" horiz-adv-x="1773" d="M301 767 L301 1111 C446 1322 641 1428 887 1428 C1132 1428 1327 1322 1472 1111 L1472 767 L301 767 Z M887 -15 C1166 -15 1386 109 1545 356 L1491 388 C1338 159 1136 45 887 45 C641 45 446 151 301 362 L301 707 L1650 707 L1650 737 C1650 945 1575 1122 1426 1269 C1277 1415 1097 1488 887 1488 C676 1488 496 1415 347 1269 C198 1122 123 945 123 737 C123 529 198 352 347 205 C496 58 676 -15 887 -15 L887 -15 Z " />
<glyph glyph-name="onethird" unicode="&#x2153;" horiz-adv-x="1583" d="M533 1470 L452 1470 L219 1349 L247 1280 L425 1371 L311 726 L402 726 L533 1470 Z M1411 1481 L1299 1481 L152 -22 L263 -22 L1411 1481 Z M1054 -12 C1125 -12 1198 9 1272 51 C1345 92 1382 152 1382 229 C1382 285 1341 343 1273 372 C1363 414 1408 485 1409 586 C1409 686 1323 754 1192 754 C1078 754 984 709 911 620 L970 568 C1022 636 1090 670 1174 670 C1253 670 1316 633 1316 568 C1316 517 1296 479 1255 452 C1214 425 1170 412 1125 412 L1062 412 L1047 331 L1110 331 C1149 331 1189 322 1230 304 C1271 285 1291 258 1291 222 C1291 175 1267 138 1218 112 C1169 86 1118 73 1066 73 C982 73 923 107 890 175 L814 123 C860 33 940 -12 1054 -12 L1054 -12 Z " />
<glyph glyph-name="twothirds" unicode="&#x2154;" horiz-adv-x="1582" d="M641 807 L273 807 L644 1129 C703 1178 733 1236 733 1304 C733 1357 712 1398 671 1427 C620 1463 561 1481 494 1481 C381 1481 284 1436 203 1347 L262 1297 C322 1364 394 1397 477 1397 C518 1397 555 1388 589 1370 C622 1351 639 1325 639 1290 C639 1248 623 1214 591 1188 L126 789 L115 726 L627 726 L641 807 Z M1424 1481 L1312 1481 L165 -22 L277 -22 L1424 1481 Z M1067 -12 C1138 -12 1211 9 1285 51 C1358 92 1395 152 1395 229 C1395 285 1354 343 1286 372 C1376 414 1421 485 1422 586 C1422 686 1336 754 1205 754 C1091 754 997 709 924 620 L983 568 C1035 636 1103 670 1187 670 C1266 670 1329 633 1329 568 C1329 517 1309 479 1268 452 C1227 425 1183 412 1138 412 L1075 412 L1060 331 L1123 331 C1162 331 1202 322 1243 304 C1284 285 1304 258 1304 222 C1304 175 1280 138 1231 112 C1182 86 1131 73 1079 73 C995 73 936 107 903 175 L827 123 C873 33 953 -12 1067 -12 L1067 -12 Z " />
<glyph glyph-name="partialdiff" unicode="&#x2202;" horiz-adv-x="1274" d="M491 82 C364 82 278 115 233 182 C188 249 165 319 165 393 C166 520 207 633 288 730 C369 827 484 875 631 875 C784 875 924 822 1052 717 C1033 610 1004 510 965 416 C926 321 868 242 793 178 C717 114 616 82 491 82 L491 82 Z M474 -15 C708 -15 884 83 1003 280 C1122 477 1182 692 1183 925 C1183 1053 1150 1179 1084 1303 C1017 1427 876 1489 659 1489 C554 1489 460 1468 375 1426 L404 1335 C479 1372 559 1391 642 1392 C809 1392 922 1341 983 1238 C1044 1135 1074 1024 1074 903 C1074 878 1073 852 1070 825 C942 922 801 971 648 971 C465 971 322 912 217 795 C112 677 58 537 56 374 C56 279 87 191 148 109 C209 26 318 -15 474 -15 L474 -15 Z " />
<glyph glyph-name="increment" unicode="&#x2206;" horiz-adv-x="1542" d="M155 94 L874 1308 L1163 94 L155 94 Z M939 1455 L860 1455 L-19 -3 L1303 -3 L939 1455 Z " />
<glyph glyph-name="product" unicode="&#x220f;" horiz-adv-x="1725" d="M1747 1480 L243 1480 L-94 -427 L12 -427 L333 1392 L1626 1392 L1305 -427 L1411 -427 L1747 1480 Z " />
<glyph glyph-name="summation" unicode="&#x2211;" horiz-adv-x="1725" d="M1426 -340 L54 -340 L871 526 L360 1392 L1732 1392 L1747 1480 L243 1480 L227 1392 L738 526 L-78 -340 L-94 -427 L1411 -427 L1426 -340 Z " />
<glyph glyph-name="minus" unicode="&#x2212;" horiz-adv-x="1293" d="M1140 780 L171 780 L156 693 L1125 693 L1140 780 Z " />
<glyph glyph-name="radical" unicode="&#x221a;" horiz-adv-x="1292" d="M1484 1886 L1389 1886 L604 137 L464 1080 L-7 961 L1 874 L385 970 L534 -21 L628 -21 L1484 1886 Z " />
<glyph glyph-name="infinity" unicode="&#x221e;" horiz-adv-x="1576" d="M379 520 C318 520 272 539 241 576 C210 613 194 654 194 697 C194 772 222 834 279 882 C336 929 395 953 456 953 C509 952 553 935 590 900 C626 865 659 827 690 786 L729 737 L672 687 C628 646 582 609 533 574 C484 539 432 521 379 520 L379 520 Z M1124 520 C1071 521 1027 539 991 574 C954 609 921 646 890 687 L851 737 L907 786 C951 827 998 865 1047 900 C1096 935 1147 952 1200 953 C1261 953 1307 934 1338 897 C1369 860 1385 819 1385 775 C1385 700 1357 639 1300 592 C1243 544 1185 520 1124 520 L1124 520 Z M1109 436 C1207 436 1292 472 1365 544 C1437 616 1473 699 1473 792 C1473 852 1451 908 1408 960 C1364 1012 1300 1038 1215 1038 C1145 1038 1082 1019 1025 980 C968 941 914 897 861 849 L800 797 L758 849 C721 898 681 941 639 980 C596 1019 540 1038 471 1038 C379 1038 295 1004 220 935 C145 866 107 782 107 681 C107 622 129 566 172 514 C215 462 279 436 364 436 C434 436 498 455 555 494 C612 533 666 576 719 624 L779 677 L821 624 C857 576 897 533 940 494 C983 455 1039 436 1109 436 L1109 436 Z " />
<glyph glyph-name="integral" unicode="&#x222b;" horiz-adv-x="750" d="M33 -428 C102 -428 161 -372 210 -259 C258 -146 294 -23 317 110 L554 1457 C568 1538 586 1621 608 1705 C630 1788 666 1830 715 1830 C704 1817 699 1802 699 1787 C699 1762 718 1735 753 1735 C792 1735 831 1766 831 1818 C831 1867 793 1892 716 1892 C648 1892 590 1836 541 1724 C492 1611 456 1488 433 1355 L194 -1 C181 -78 163 -158 141 -241 C119 -324 84 -365 35 -365 C45 -357 50 -343 50 -323 C50 -299 32 -272 -4 -272 C-39 -272 -79 -301 -79 -354 C-79 -402 -42 -427 33 -428 L33 -428 Z " />
<glyph glyph-name="approxequal" unicode="&#x2248;" horiz-adv-x="1292" d="M877 828 C991 828 1070 857 1115 914 L1130 1002 C1105 978 1076 958 1041 942 C1006 925 956 917 891 917 C824 917 753 934 678 968 C603 1001 538 1018 483 1018 C369 1018 290 989 245 931 L230 844 C255 868 284 888 319 905 C354 921 404 929 469 929 C536 929 607 912 682 879 C757 845 822 828 877 828 L877 828 Z M811 455 C925 455 1004 484 1049 541 L1064 629 C1039 605 1010 585 975 569 C940 552 890 544 825 544 C758 544 687 561 612 595 C537 628 472 645 417 645 C303 645 224 616 179 558 L164 471 C189 495 218 515 253 532 C288 548 338 556 403 556 C470 556 541 539 616 506 C691 472 756 455 811 455 L811 455 Z " />
<glyph glyph-name="notequal" unicode="&#x2260;" horiz-adv-x="1293" d="M574 461 L1063 461 L1078 548 L613 548 L774 908 L1141 908 L1157 995 L813 995 L1031 1480 L935 1480 L718 995 L229 995 L214 908 L679 908 L517 548 L150 548 L135 461 L478 461 L261 -24 L356 -24 L574 461 Z " />
<glyph glyph-name="lessequal" unicode="&#x2264;" horiz-adv-x="1293" d="M1076 538 L328 830 L1180 1123 L1196 1215 L208 873 L193 788 L1060 445 L1076 538 Z M1037 313 L109 313 L94 226 L1021 226 L1037 313 Z " />
<glyph glyph-name="greaterequal" unicode="&#x2265;" horiz-adv-x="1293" d="M1120 788 C1125 816 1130 844 1135 873 L268 1215 L252 1123 L1000 830 L148 538 L132 445 L1120 788 Z M1037 313 L109 313 L94 226 L1021 226 L1037 313 Z " />
<glyph glyph-name="lozenge" unicode="&#x25ca;" horiz-adv-x="1017" d="M214 728 L622 1372 L803 728 L395 84 L214 728 Z M907 728 L691 1457 L584 1457 L110 728 L327 -1 L433 -1 L907 728 Z " />
<glyph glyph-name="&amp;#xf001;" unicode="&#xf001;" horiz-adv-x="1129" d="M427 974 L814 974 L829 1057 L442 1057 L457 1146 C470 1218 508 1278 571 1326 C634 1374 704 1398 781 1398 C822 1398 857 1395 887 1389 L902 1473 C865 1478 826 1481 785 1481 C682 1480 589 1449 506 1390 C423 1330 372 1249 354 1146 L339 1057 L99 1057 L84 974 L324 974 L152 -1 L255 -1 L427 974 Z M1031 1057 L928 1057 L741 -1 L844 -1 L1031 1057 Z M1029 1338 C1069 1338 1115 1372 1115 1423 C1115 1451 1094 1481 1054 1481 C1034 1481 1015 1473 996 1458 C977 1442 968 1422 968 1397 C968 1368 989 1338 1029 1338 L1029 1338 Z " />
<glyph glyph-name="&amp;#xfb01;" unicode="&#xfb01;" horiz-adv-x="1129" d="M427 974 L814 974 L829 1057 L442 1057 L457 1146 C470 1218 508 1278 571 1326 C634 1374 704 1398 781 1398 C822 1398 857 1395 887 1389 L902 1473 C865 1478 826 1481 785 1481 C682 1480 589 1449 506 1390 C423 1330 372 1249 354 1146 L339 1057 L99 1057 L84 974 L324 974 L152 -1 L255 -1 L427 974 Z M1031 1057 L928 1057 L741 -1 L844 -1 L1031 1057 Z M1029 1338 C1069 1338 1115 1372 1115 1423 C1115 1451 1094 1481 1054 1481 C1034 1481 1015 1473 996 1458 C977 1442 968 1422 968 1397 C968 1368 989 1338 1029 1338 L1029 1338 Z " />
<glyph glyph-name="&amp;#xf002;" unicode="&#xf002;" horiz-adv-x="1159" d="M427 974 L814 974 L829 1057 L442 1057 L457 1146 C470 1218 508 1278 571 1326 C634 1374 704 1398 781 1398 C822 1398 857 1395 887 1389 L902 1473 C865 1478 826 1481 785 1481 C682 1480 589 1449 506 1390 C423 1330 372 1249 354 1146 L339 1057 L99 1057 L84 974 L324 974 L152 -1 L255 -1 L427 974 Z M1117 1458 L1014 1458 L757 -1 L860 -1 L1117 1458 Z " />
<glyph glyph-name="&amp;#xfb02;" unicode="&#xfb02;" horiz-adv-x="1159" d="M427 974 L814 974 L829 1057 L442 1057 L457 1146 C470 1218 508 1278 571 1326 C634 1374 704 1398 781 1398 C822 1398 857 1395 887 1389 L902 1473 C865 1478 826 1481 785 1481 C682 1480 589 1449 506 1390 C423 1330 372 1249 354 1146 L339 1057 L99 1057 L84 974 L324 974 L152 -1 L255 -1 L427 974 Z M1117 1458 L1014 1458 L757 -1 L860 -1 L1117 1458 Z " />
<glyph glyph-name="uniFB00" unicode="&#xfb00;" horiz-adv-x="1454" d="M1044 974 L1431 974 L1446 1057 L1059 1057 L1075 1146 C1088 1218 1126 1278 1189 1326 C1252 1374 1322 1398 1399 1398 C1438 1398 1474 1395 1505 1389 L1519 1473 C1482 1478 1443 1481 1402 1481 C1299 1480 1206 1449 1123 1390 C1040 1330 989 1249 971 1146 L955 1057 L442 1057 L458 1146 C471 1218 509 1278 572 1326 C635 1374 705 1398 782 1398 C822 1398 857 1395 888 1389 L903 1473 C865 1478 826 1481 785 1481 C682 1480 589 1449 506 1390 C423 1330 372 1249 354 1146 L339 1057 L99 1057 L84 974 L324 974 L152 -1 L256 -1 L428 974 L941 974 L769 -1 L872 -1 L1044 974 Z " />
<glyph glyph-name="uniFB03" unicode="&#xfb03;" horiz-adv-x="1767" d="M1045 974 L1432 974 L1446 1057 L1059 1057 L1075 1146 C1088 1218 1126 1278 1189 1326 C1252 1374 1322 1398 1399 1398 C1439 1398 1474 1395 1505 1389 L1520 1473 C1482 1478 1443 1481 1402 1481 C1299 1480 1207 1449 1124 1390 C1041 1330 990 1249 971 1146 L956 1057 L443 1057 L458 1146 C471 1218 509 1278 572 1326 C635 1374 705 1398 782 1398 C822 1398 857 1395 888 1389 L903 1473 C866 1478 827 1481 786 1481 C683 1480 590 1449 507 1390 C424 1330 373 1249 355 1146 L339 1057 L99 1057 L85 974 L324 974 L152 -1 L256 -1 L428 974 L941 974 L769 -1 L873 -1 L1045 974 Z M1660 1057 L1557 1057 L1371 -1 L1473 -1 L1660 1057 Z M1658 1335 C1679 1335 1699 1343 1718 1359 C1737 1375 1747 1396 1747 1423 C1747 1451 1725 1481 1684 1481 C1643 1481 1596 1446 1596 1394 C1596 1366 1617 1335 1658 1335 L1658 1335 Z " />
<glyph glyph-name="uniFB04" unicode="&#xfb04;" horiz-adv-x="1795" d="M1044 974 L1432 974 L1446 1057 L1059 1057 L1075 1146 C1088 1218 1126 1278 1189 1326 C1252 1374 1322 1398 1399 1398 C1439 1398 1474 1395 1505 1389 L1520 1473 C1482 1478 1443 1481 1402 1481 C1299 1480 1206 1449 1123 1390 C1040 1330 989 1249 971 1146 L955 1057 L442 1057 L458 1146 C471 1218 509 1278 572 1326 C635 1374 705 1398 782 1398 C822 1398 857 1395 888 1389 L903 1473 C865 1478 826 1481 785 1481 C682 1480 590 1449 507 1390 C424 1330 373 1249 354 1146 L339 1057 L99 1057 L84 974 L324 974 L152 -1 L256 -1 L428 974 L941 974 L769 -1 L873 -1 L1044 974 Z M1746 1458 L1643 1458 L1386 -1 L1488 -1 L1746 1458 Z " />
</font>
</svg>
