<?xml version="1.0" encoding="UTF-8"?>
<svg xmlns="http://www.w3.org/2000/svg" xmlns:xlink="http://www.w3.org/1999/xlink" version="1.2" >
<font id="Guerrer Oblique">
<font-face  font-family="Guerrer" units-per-em="2048" ascent="1458" descent="-405" font-style="italic" font-weight="400" font-stretch="normal" slope="-10" cap-height="1457" x-height="1062" underline-position="-217" underline-thickness="150" />
<missing-glyph  horiz-adv-x="1024" d="" />
<glyph glyph-name="&amp;#x0;" d="" />
<glyph glyph-name="&amp;#x1d;" unicode="&#x1d;" d="" />
<glyph glyph-name="&amp;#x20;" unicode="&#x20;" horiz-adv-x="508" d="" />
<glyph glyph-name="&amp;#xa0;" unicode="&#xa0;" horiz-adv-x="508" d="" />
<glyph glyph-name="exclam" unicode="&#x21;" horiz-adv-x="764" d="M616 1480 L413 1480 L249 398 L398 398 L616 1480 Z M249 -24 C284 -24 319 -10 352 18 C385 46 402 82 402 125 C402 150 393 173 375 195 C356 217 329 228 294 228 C259 228 224 214 191 187 C158 159 141 123 141 79 C141 54 150 31 169 9 C187 -13 214 -24 249 -24 L249 -24 Z " />
<glyph glyph-name="quotedbl" unicode="&#x22;" horiz-adv-x="541" d="M623 1480 L455 1480 L402 1026 L516 1026 L623 1480 Z M351 1480 L184 1480 L130 1026 L245 1026 L351 1480 Z " />
<glyph glyph-name="numbersign" unicode="&#x23;" horiz-adv-x="1309" d="M419 531 L598 931 L913 931 L733 531 L419 531 Z M833 399 L1164 399 L1187 531 L892 531 L1072 931 L1258 931 L1281 1063 L1131 1063 L1318 1480 L1159 1480 L972 1063 L657 1063 L844 1480 L685 1480 L498 1063 L146 1063 L123 931 L439 931 L260 531 L52 531 L29 399 L201 399 L11 -24 L170 -24 L359 399 L674 399 L485 -24 L643 -24 L833 399 Z " />
<glyph glyph-name="dollar" unicode="&#x24;" horiz-adv-x="1310" d="M599 -20 C755 -6 894 45 1017 132 C1139 219 1200 334 1201 477 C1201 563 1170 631 1107 680 C1044 729 922 770 742 802 C637 819 552 843 485 872 C418 901 384 948 384 1013 C384 1103 426 1174 509 1226 C592 1277 679 1303 770 1303 C939 1303 1057 1246 1126 1132 L1291 1247 C1211 1379 1068 1454 862 1473 L896 1665 L745 1665 L711 1470 C572 1453 446 1402 332 1317 C217 1232 160 1118 160 975 C160 914 179 861 216 816 C253 771 308 736 383 711 C458 686 536 665 619 650 C724 633 810 609 877 580 C944 551 977 503 977 438 C977 349 933 278 844 227 C755 175 660 149 561 149 C469 149 381 170 298 213 C214 256 160 311 135 379 L-22 266 C5 187 62 123 150 73 C238 22 337 -8 448 -19 L415 -209 L566 -209 L599 -20 Z " />
<glyph glyph-name="percent" unicode="&#x25;" horiz-adv-x="1910" d="M1628 1480 L1429 1480 L282 -23 L481 -23 L1628 1480 Z M511 884 C450 884 403 903 371 941 C338 979 322 1020 322 1064 C322 1141 351 1204 409 1253 C467 1301 527 1325 589 1325 C651 1325 698 1306 731 1268 C763 1229 779 1188 779 1144 C779 1068 750 1006 692 957 C633 908 573 884 511 884 L511 884 Z M484 728 C596 728 699 771 794 858 C889 944 937 1049 938 1174 C938 1248 911 1318 857 1383 C802 1448 722 1480 617 1480 C498 1480 392 1437 301 1350 C209 1263 163 1159 162 1036 C162 961 186 895 233 838 C295 765 379 728 484 728 L484 728 Z M1321 132 C1259 132 1212 151 1180 189 C1147 227 1131 268 1131 312 C1131 389 1160 452 1219 501 C1277 549 1337 573 1398 573 C1460 573 1507 554 1540 516 C1572 478 1588 437 1588 393 C1588 316 1559 253 1501 205 C1442 156 1382 132 1321 132 L1321 132 Z M1293 -23 C1405 -23 1508 20 1603 107 C1698 193 1746 298 1747 422 C1747 497 1720 567 1666 632 C1611 697 1531 729 1426 729 C1307 729 1201 686 1110 599 C1018 512 972 408 971 285 C971 210 995 144 1042 87 C1104 14 1188 -23 1293 -23 L1293 -23 Z " />
<glyph glyph-name="ampersand" unicode="&#x26;" horiz-adv-x="1472" d="M490 135 C385 135 314 157 277 202 C239 246 220 294 220 345 C220 426 257 498 332 562 L497 700 L856 300 C751 190 629 135 490 135 L490 135 Z M462 -24 C645 -24 811 43 960 176 L1118 -1 L1343 -1 L1078 302 L1433 692 L1215 692 L974 424 L547 903 C506 952 486 1003 486 1057 C487 1131 515 1194 572 1245 C629 1296 706 1321 804 1321 C882 1321 940 1299 979 1255 C1018 1211 1037 1167 1037 1123 C1037 1114 1036 1104 1034 1094 L1214 1094 C1218 1117 1220 1140 1220 1161 C1220 1242 1187 1316 1122 1382 C1056 1447 959 1480 832 1480 C675 1480 548 1438 451 1353 C353 1268 304 1164 304 1041 C304 975 337 902 403 822 L225 673 C99 569 36 451 36 320 C36 237 68 159 133 86 C198 13 307 -24 462 -24 L462 -24 Z " />
<glyph glyph-name="quotesingle" unicode="&#x27;" horiz-adv-x="269" d="M351 1480 L184 1480 L130 1026 L244 1026 L351 1480 Z " />
<glyph glyph-name="parenleft" unicode="&#x28;" horiz-adv-x="507" d="M307 -405 C259 -262 235 -100 235 81 C235 266 265 486 325 742 C384 998 488 1237 636 1459 L475 1459 C336 1239 236 1014 173 783 C110 552 79 326 79 103 C79 -75 101 -244 146 -405 L307 -405 L307 -405 Z " />
<glyph glyph-name="parenright" unicode="&#x29;" horiz-adv-x="506" d="M129 1459 C177 1316 201 1154 201 973 C201 788 171 568 112 312 C52 56 -52 -183 -200 -405 L-39 -405 C100 -185 200 40 263 271 C326 502 357 728 357 951 C357 1129 335 1298 290 1459 L129 1459 L129 1459 Z " />
<glyph glyph-name="asterisk" unicode="&#x2a;" horiz-adv-x="603" d="M556 1080 L468 1214 L646 1258 L628 1370 L454 1308 L494 1480 L374 1480 L354 1308 L201 1370 L145 1258 L306 1214 L172 1080 L257 1011 L377 1156 L447 1011 L556 1080 Z " />
<glyph glyph-name="plus" unicode="&#x2b;" horiz-adv-x="1310" d="M719 662 L1116 662 L1140 794 L742 794 L812 1193 L661 1193 L591 794 L193 794 L170 662 L567 662 L497 264 L648 264 L719 662 Z " />
<glyph glyph-name="comma" unicode="&#x2c;" horiz-adv-x="460" d="M-130 -322 C-18 -235 73 -157 144 -90 C214 -22 249 50 249 127 C249 184 211 228 142 228 C110 228 80 216 51 191 C22 166 8 137 8 104 C8 83 14 61 25 39 C36 16 42 0 42 -9 C42 -24 31 -49 8 -84 C-15 -118 -74 -179 -171 -267 L-130 -322 Z " />
<glyph glyph-name="&amp;#x2d;" unicode="&#x2d;" horiz-adv-x="787" d="M663 605 L80 605 L54 456 L637 456 L663 605 Z " />
<glyph glyph-name="&amp;#xad;" unicode="&#xad;" horiz-adv-x="787" d="M663 605 L80 605 L54 456 L637 456 L663 605 Z " />
<glyph glyph-name="period" unicode="&#x2e;" horiz-adv-x="460" d="M97 -24 C132 -24 167 -10 200 18 C233 46 250 82 250 125 C250 150 241 173 223 195 C204 217 177 228 142 228 C107 228 72 214 39 187 C6 159 -11 123 -11 79 C-11 54 -2 31 17 9 C35 -13 62 -24 97 -24 L97 -24 Z " />
<glyph glyph-name="slash" unicode="&#x2f;" horiz-adv-x="682" d="M758 1480 L579 1480 L-75 -24 L103 -24 L758 1480 Z " />
<glyph glyph-name="zero" unicode="0" horiz-adv-x="1309" d="M553 151 C430 151 351 187 315 258 C278 329 260 409 260 498 C260 713 304 901 391 1063 C478 1225 600 1306 756 1306 C875 1306 954 1265 991 1184 C1028 1103 1047 1018 1047 930 C1047 723 1003 541 916 385 C829 229 708 151 553 151 L553 151 Z M522 -24 C749 -24 927 73 1057 266 C1187 459 1252 692 1252 963 C1252 1114 1215 1238 1141 1335 C1067 1432 949 1480 787 1480 C561 1480 383 1384 254 1191 C125 998 59 765 57 490 C57 323 99 196 184 108 C268 20 381 -24 522 -24 L522 -24 Z " />
<glyph glyph-name="one" unicode="1" horiz-adv-x="1310" d="M1045 168 L667 168 L894 1457 L692 1457 L255 1232 L315 1085 L657 1261 L464 168 L86 168 L56 -1 L1015 -1 L1045 168 Z " />
<glyph glyph-name="two" unicode="2" horiz-adv-x="1310" d="M1076 169 L390 169 L1066 760 C1189 861 1250 981 1250 1120 C1250 1218 1210 1303 1131 1374 C1052 1445 935 1480 781 1480 C540 1480 350 1395 210 1225 L325 1111 C424 1239 555 1303 718 1303 C923 1303 1026 1235 1026 1098 C1026 1011 993 939 926 884 L53 130 L30 -1 L1046 -1 L1076 169 Z " />
<glyph glyph-name="three" unicode="3" horiz-adv-x="1311" d="M502 -23 C679 -23 830 24 957 118 C1084 211 1147 322 1147 449 C1147 501 1128 555 1090 611 C1051 666 992 705 911 728 C999 751 1072 800 1131 873 C1189 946 1218 1034 1218 1135 C1218 1227 1182 1308 1110 1377 C1038 1446 925 1480 771 1480 C550 1480 369 1394 227 1223 L342 1107 C444 1238 573 1303 728 1303 C831 1303 905 1283 948 1242 C991 1201 1013 1154 1013 1101 C1013 1012 976 941 903 890 C829 838 741 812 638 812 L525 812 L496 645 L609 645 C717 645 800 624 857 582 C914 539 943 490 943 434 C943 347 900 278 814 229 C727 179 630 154 521 154 C345 154 231 237 178 350 L22 234 C101 63 261 -23 502 -23 L502 -23 Z " />
<glyph glyph-name="four" unicode="4" horiz-adv-x="1308" d="M964 260 L1148 260 L1177 430 L994 430 L1051 757 L850 757 L793 430 L289 430 L1083 1457 L827 1457 L24 415 L-3 260 L763 260 L717 -1 L918 -1 L964 260 Z " />
<glyph glyph-name="five" unicode="5" horiz-adv-x="1310" d="M508 -24 C679 -24 831 31 965 141 C1099 251 1166 391 1166 562 C1166 666 1125 759 1044 840 C963 921 845 962 692 962 L462 962 L519 1288 L1188 1288 L1218 1457 L347 1457 L228 785 L650 785 C753 785 831 758 882 705 C933 652 959 592 959 526 C959 424 915 336 826 263 C737 190 637 153 527 153 C363 153 247 222 179 359 L23 245 C128 66 290 -24 508 -24 L508 -24 Z " />
<glyph glyph-name="six" unicode="6" horiz-adv-x="1309" d="M555 153 C452 153 375 180 322 234 C269 287 242 347 242 413 C242 514 284 602 367 675 C450 748 550 785 667 785 C770 785 847 758 898 705 C949 652 975 592 975 526 C975 424 934 336 853 263 C771 190 672 153 555 153 L555 153 Z M524 -24 C698 -24 851 32 984 143 C1116 254 1182 393 1182 562 C1182 667 1142 760 1061 841 C980 922 869 962 729 962 C666 962 594 937 514 887 L992 1457 L735 1458 L212 809 C95 668 37 526 37 382 C37 275 80 180 165 99 C250 17 370 -24 524 -24 L524 -24 Z " />
<glyph glyph-name="seven" unicode="7" horiz-adv-x="1309" d="M1263 1300 L1291 1457 L276 1457 L246 1287 L1012 1287 L153 -1 L405 -1 L1263 1300 Z " />
<glyph glyph-name="eight" unicode="8" horiz-adv-x="1310" d="M552 146 C447 146 371 171 324 220 C277 269 253 322 253 379 C253 474 293 552 373 613 C453 673 545 703 650 703 C755 703 832 679 879 630 C926 581 949 528 949 471 C949 376 909 298 830 237 C750 176 657 146 552 146 L552 146 Z M679 868 C598 868 539 888 500 927 C461 966 441 1008 441 1054 C441 1129 473 1191 538 1239 C603 1286 676 1310 757 1310 C838 1310 899 1291 938 1252 C977 1213 996 1171 996 1126 C996 1051 964 989 899 941 C834 892 760 868 679 868 L679 868 Z M522 -24 C708 -24 860 29 977 135 C1094 240 1153 358 1153 489 C1153 615 1082 715 941 788 C1114 875 1201 998 1201 1155 C1201 1236 1167 1311 1100 1379 C1032 1446 928 1480 787 1480 C626 1480 495 1436 392 1347 C289 1258 237 1153 237 1032 C237 931 288 850 389 788 C161 696 47 548 47 345 C47 253 85 169 160 92 C235 15 356 -24 522 -24 L522 -24 Z " />
<glyph glyph-name="nine" unicode="9" horiz-adv-x="1309" d="M642 671 C539 671 462 698 411 752 C359 805 333 865 333 930 C333 1032 374 1120 456 1193 C538 1266 637 1303 753 1303 C856 1303 935 1276 988 1223 C1041 1169 1067 1109 1067 1043 C1067 942 1025 854 942 781 C858 708 758 671 642 671 L642 671 Z M1097 647 C1214 788 1272 931 1272 1075 C1272 1182 1229 1277 1144 1358 C1058 1439 938 1480 785 1480 C611 1480 458 1425 326 1314 C193 1203 127 1062 127 893 C127 788 167 696 248 615 C329 534 439 494 580 494 C643 494 715 519 795 569 L316 -1 L574 -2 L1097 647 Z " />
<glyph glyph-name="colon" unicode="&#x3a;" horiz-adv-x="460" d="M97 -24 C132 -24 167 -10 200 18 C233 46 250 82 250 125 C250 150 241 173 223 195 C204 217 177 228 142 228 C107 228 72 214 39 187 C6 159 -11 123 -11 79 C-11 54 -2 31 17 9 C35 -13 62 -24 97 -24 L97 -24 Z M248 833 C284 833 319 847 352 875 C385 903 401 939 401 982 C401 1033 364 1085 293 1085 C258 1085 223 1071 190 1044 C157 1016 140 980 140 936 C140 911 149 888 168 866 C186 844 213 833 248 833 L248 833 Z " />
<glyph glyph-name="&amp;#x3b;" unicode="&#x3b;" horiz-adv-x="460" d="M248 833 C284 833 319 847 352 875 C385 902 401 938 401 982 C401 1033 364 1085 293 1085 C258 1085 223 1071 190 1044 C157 1016 140 980 140 936 C140 911 149 888 168 866 C186 844 213 833 248 833 L248 833 Z M-130 -322 C-18 -235 73 -157 144 -90 C214 -22 249 50 249 127 C249 184 211 228 142 228 C110 228 80 216 51 191 C22 166 8 137 8 104 C8 83 14 61 25 39 C36 16 42 0 42 -9 C42 -24 31 -49 8 -84 C-15 -118 -74 -179 -171 -267 L-130 -322 Z " />
<glyph glyph-name="&amp;#x37e;" unicode="&#x37e;" horiz-adv-x="460" d="M248 833 C284 833 319 847 352 875 C385 902 401 938 401 982 C401 1033 364 1085 293 1085 C258 1085 223 1071 190 1044 C157 1016 140 980 140 936 C140 911 149 888 168 866 C186 844 213 833 248 833 L248 833 Z M-130 -322 C-18 -235 73 -157 144 -90 C214 -22 249 50 249 127 C249 184 211 228 142 228 C110 228 80 216 51 191 C22 166 8 137 8 104 C8 83 14 61 25 39 C36 16 42 0 42 -9 C42 -24 31 -49 8 -84 C-15 -118 -74 -179 -171 -267 L-130 -322 Z " />
<glyph glyph-name="less" unicode="&#x3c;" horiz-adv-x="1310" d="M1074 470 L411 728 L1165 986 L1192 1144 L203 797 L179 660 L1046 312 L1074 470 Z " />
<glyph glyph-name="equal" unicode="&#x3d;" horiz-adv-x="1310" d="M1166 998 L238 998 L211 849 L1139 849 L1166 998 Z M1097 608 L169 608 L143 459 L1071 459 L1097 608 Z " />
<glyph glyph-name="greater" unicode="&#x3e;" horiz-adv-x="1310" d="M1107 660 L1131 797 L264 1144 L237 986 L899 728 L146 470 L118 312 L1107 660 Z " />
<glyph glyph-name="question" unicode="&#x3f;" horiz-adv-x="1177" d="M652 678 C803 694 930 738 1035 810 C1139 882 1191 988 1191 1129 C1191 1224 1150 1306 1068 1376 C985 1445 867 1480 713 1480 C472 1480 281 1394 138 1223 L254 1107 C355 1238 494 1303 670 1303 C773 1303 852 1283 905 1242 C958 1201 985 1152 985 1096 C985 1019 951 957 884 909 C816 861 731 829 630 814 C556 803 513 763 501 692 L453 398 L602 398 L652 678 Z M453 -24 C489 -24 524 -10 557 18 C590 45 606 81 606 125 C606 150 597 173 579 195 C560 217 533 228 498 228 C463 228 428 214 395 186 C362 158 345 122 345 79 C345 54 354 31 373 9 C391 -13 418 -24 453 -24 L453 -24 Z " />
<glyph glyph-name="at" unicode="&#x40;" horiz-adv-x="1694" d="M829 537 C738 537 673 601 673 692 C673 751 696 804 742 851 C788 897 841 920 900 920 C989 920 1054 856 1055 764 C1055 744 1050 725 1039 706 C1026 659 1000 619 961 586 C922 553 878 537 829 537 L829 537 Z M884 -25 C1193 -25 1427 122 1587 415 L1425 415 C1294 208 1114 104 884 104 C711 104 564 165 442 287 C319 408 258 555 258 727 C258 899 319 1046 442 1168 C564 1289 711 1350 884 1350 C1057 1350 1193 1301 1294 1203 C1395 1104 1445 987 1445 850 C1445 797 1427 732 1391 654 C1354 576 1295 537 1214 537 C1177 537 1155 563 1150 616 C1150 621 1173 755 1219 1018 L1096 1018 L1080 931 C1032 997 971 1030 896 1030 C804 1030 723 994 654 921 C584 848 549 766 549 675 C549 604 572 545 618 498 C664 451 722 427 793 427 C894 427 984 468 1065 549 C1065 472 1115 433 1214 432 C1345 432 1439 481 1497 580 C1554 678 1583 768 1583 850 C1583 1023 1519 1171 1392 1294 C1264 1417 1095 1479 884 1479 C673 1479 493 1406 344 1259 C195 1112 120 934 120 727 C120 519 195 342 344 195 C493 48 673 -25 884 -25 L884 -25 Z " />
<glyph glyph-name="A" unicode="A" horiz-adv-x="1511" d="M509 574 L853 1194 L979 574 L509 574 Z M953 1457 L814 1457 L-57 -1 L189 -1 L424 421 L1010 421 L1096 -1 L1311 -1 L953 1457 Z " />
<glyph glyph-name="B" unicode="B" horiz-adv-x="1410" d="M405 806 L490 1289 L839 1289 C908 1289 961 1267 997 1222 C1032 1177 1050 1129 1050 1079 C1050 996 1018 929 954 880 C890 831 823 806 753 806 L405 806 Z M292 167 L377 649 L851 649 C918 649 969 629 1006 590 C1043 551 1061 508 1061 462 C1061 393 1033 327 976 263 C919 199 851 167 770 167 L292 167 Z M735 -1 C875 -1 997 48 1102 146 C1207 243 1259 351 1259 470 C1259 529 1238 589 1196 648 C1153 707 1093 746 1016 765 C1076 792 1131 834 1180 893 C1229 952 1253 1025 1253 1112 C1253 1204 1218 1285 1149 1354 C1080 1423 986 1457 868 1457 L321 1457 L64 -1 L735 -1 L735 -1 Z " />
<glyph glyph-name="C" unicode="C" horiz-adv-x="1473" d="M747 -24 C958 -24 1151 48 1326 192 L1214 319 C1082 210 937 156 778 156 C617 156 497 205 417 304 C337 403 297 509 297 622 C298 804 367 963 504 1098 C641 1233 799 1300 980 1300 C1139 1300 1265 1245 1358 1136 L1515 1264 C1390 1408 1223 1480 1012 1480 C765 1480 550 1392 367 1215 C183 1038 91 830 90 591 C90 441 145 301 254 171 C363 41 527 -24 747 -24 L747 -24 Z " />
<glyph glyph-name="D" unicode="D" horiz-adv-x="1558" d="M292 167 L490 1289 L789 1289 C946 1289 1065 1241 1146 1144 C1227 1047 1267 942 1267 831 C1267 646 1195 490 1051 361 C907 232 754 167 591 167 L292 167 Z M561 -1 C786 -1 994 82 1183 248 C1372 413 1467 617 1468 858 C1468 1004 1413 1140 1302 1267 C1191 1394 1030 1457 818 1457 L321 1457 L64 -1 L561 -1 L561 -1 Z " />
<glyph glyph-name="E" unicode="E" horiz-adv-x="1276" d="M1075 167 L292 167 L377 649 L1040 649 L1068 806 L405 806 L490 1289 L1273 1289 L1303 1457 L321 1457 L64 -1 L1046 -1 L1075 167 Z " />
<glyph glyph-name="F" unicode="F" horiz-adv-x="1226" d="M378 649 L1041 649 L1069 806 L405 806 L491 1289 L1274 1289 L1303 1457 L322 1457 L65 -1 L263 -1 L378 649 Z " />
<glyph glyph-name="G" unicode="G" horiz-adv-x="1595" d="M740 -24 C909 -24 1070 17 1225 100 L1275 -1 L1314 -1 L1441 723 L1243 723 L1160 253 C1037 188 907 156 772 156 C611 156 491 205 411 304 C330 403 290 508 290 621 C291 797 360 954 497 1093 C634 1231 793 1300 974 1300 C1133 1300 1259 1246 1352 1137 L1508 1264 C1383 1408 1216 1480 1005 1480 C759 1480 545 1392 363 1215 C180 1038 89 829 89 589 C89 440 143 301 250 171 C357 41 521 -24 740 -24 L740 -24 Z " />
<glyph glyph-name="H" unicode="H" horiz-adv-x="1570" d="M1506 1457 L1307 1457 L1193 806 L405 806 L520 1457 L322 1457 L64 -1 L263 -1 L378 649 L1165 649 L1050 -1 L1249 -1 L1506 1457 Z " />
<glyph glyph-name="I" unicode="I" horiz-adv-x="586" d="M520 1457 L322 1457 L64 -1 L263 -1 L520 1457 Z " />
<glyph glyph-name="J" unicode="J" horiz-adv-x="1305" d="M474 -24 C616 -24 744 21 857 112 C970 203 1039 316 1063 451 L1240 1457 L1042 1457 L863 439 C848 358 805 290 734 237 C663 183 587 156 506 156 C331 156 197 219 103 344 L-39 209 C77 54 248 -24 474 -24 L474 -24 Z " />
<glyph glyph-name="K" unicode="K" horiz-adv-x="1447" d="M346 470 L599 684 L1051 -1 L1294 -1 L748 807 L1524 1458 L1243 1458 L388 706 L521 1458 L322 1458 L65 -2 L263 -2 L346 470 Z " />
<glyph glyph-name="L" unicode="L" horiz-adv-x="1187" d="M1068 166 L293 166 L520 1457 L322 1457 L65 -2 L1038 -2 L1068 166 Z " />
<glyph glyph-name="M" unicode="M" horiz-adv-x="1829" d="M1765 1457 L1606 1457 L903 659 L480 1457 L322 1457 L64 -2 L260 -2 L459 1126 L807 438 L920 438 L1511 1126 L1312 -2 L1508 -2 L1765 1457 Z " />
<glyph glyph-name="N" unicode="N" horiz-adv-x="1641" d="M1577 1457 L1381 1457 L1181 323 L481 1457 L322 1457 L64 -2 L260 -2 L460 1132 L1161 -2 L1320 -2 L1577 1457 Z " />
<glyph glyph-name="O" unicode="O" horiz-adv-x="1756" d="M777 154 C618 154 497 204 415 303 C332 402 291 509 291 623 C291 804 361 963 501 1098 C640 1233 800 1301 979 1301 C1138 1301 1259 1252 1342 1153 C1424 1054 1465 947 1465 834 C1465 645 1392 484 1246 352 C1099 220 943 154 777 154 L777 154 Z M745 -24 C980 -24 1192 64 1381 241 C1570 418 1665 625 1666 864 C1666 1014 1610 1154 1499 1284 C1388 1414 1225 1479 1010 1479 C769 1479 556 1391 370 1214 C183 1037 90 830 90 592 C90 441 146 301 257 171 C368 41 531 -24 745 -24 L745 -24 Z " />
<glyph glyph-name="P" unicode="P" horiz-adv-x="1389" d="M391 725 L490 1289 L884 1289 C963 1289 1026 1270 1075 1231 C1123 1192 1147 1139 1147 1074 C1147 969 1113 885 1045 821 C977 757 890 725 784 725 L391 725 Z M361 557 L766 557 C932 557 1070 609 1180 714 C1289 818 1344 948 1344 1104 C1344 1203 1307 1286 1232 1355 C1157 1423 1055 1457 925 1457 L321 1457 L64 -2 L263 -2 L361 557 Z " />
<glyph glyph-name="Q" unicode="Q" horiz-adv-x="1756" d="M777 154 C618 154 497 204 415 303 C332 402 291 509 291 623 C292 804 363 963 506 1098 C649 1233 806 1301 979 1301 C1138 1301 1259 1252 1342 1153 C1424 1054 1465 947 1465 834 C1465 651 1394 492 1251 357 C1108 222 950 154 777 154 L777 154 Z M978 -430 C1029 -429 1077 -426 1123 -419 L1150 -266 C1106 -274 1068 -278 1035 -278 C898 -277 830 -221 830 -111 C830 -97 835 -64 844 -13 C1057 12 1247 107 1414 272 C1581 437 1665 633 1666 862 C1666 1011 1610 1152 1499 1283 C1388 1414 1225 1479 1010 1479 C769 1479 556 1392 370 1219 C184 1046 90 837 89 592 C89 457 135 328 227 207 C318 86 460 12 651 -13 C640 -78 634 -123 634 -148 C634 -225 663 -292 720 -347 C777 -402 863 -429 978 -430 L978 -430 Z " />
<glyph glyph-name="R" unicode="R" horiz-adv-x="1402" d="M391 725 L491 1289 L884 1289 C963 1289 1027 1270 1076 1231 C1124 1192 1148 1140 1148 1075 C1148 963 1112 877 1041 816 C970 755 884 725 785 725 L391 725 Z M892 585 C1193 644 1344 817 1345 1104 C1345 1203 1308 1286 1233 1355 C1158 1423 1055 1457 926 1457 L322 1457 L65 -2 L263 -2 L362 557 L691 557 L1041 -2 L1261 -2 L892 585 Z " />
<glyph glyph-name="S" unicode="S" horiz-adv-x="1345" d="M562 -23 C743 -23 900 25 1033 120 C1165 215 1231 332 1231 472 C1231 617 1133 699 960 748 L586 862 C473 894 417 944 417 1025 C417 1110 458 1179 541 1230 C624 1281 711 1306 802 1306 C971 1306 1090 1249 1159 1135 L1324 1250 C1223 1404 1057 1481 827 1481 C674 1481 530 1436 395 1345 C260 1254 192 1131 192 976 C192 856 265 765 437 717 L816 601 C940 566 1009 523 1009 436 C1009 347 965 278 876 227 C787 176 692 151 593 151 C501 151 413 172 330 215 C246 258 191 313 166 381 L9 268 C42 179 112 108 219 56 C325 3 439 -23 562 -23 L562 -23 Z " />
<glyph glyph-name="T" unicode="T" horiz-adv-x="1213" d="M806 1290 L1293 1290 L1323 1457 L149 1457 L119 1290 L607 1290 L379 -2 L578 -2 L806 1290 Z " />
<glyph glyph-name="U" unicode="U" horiz-adv-x="1544" d="M640 -24 C809 -24 955 17 1078 98 C1201 179 1273 281 1294 405 L1480 1457 L1282 1457 L1101 434 C1086 344 1036 274 952 225 C868 175 774 150 670 150 C563 150 480 174 422 223 C364 272 335 328 335 391 C335 394 339 419 347 465 L520 1457 L322 1457 L136 405 C133 384 131 364 131 344 C131 254 173 170 256 93 C339 15 467 -24 640 -24 L640 -24 Z " />
<glyph glyph-name="V" unicode="V" horiz-adv-x="1509" d="M1568 1457 L1317 1457 L662 262 L410 1457 L200 1457 L547 -1 L706 -1 L1568 1457 Z " />
<glyph glyph-name="W" unicode="W" horiz-adv-x="2085" d="M2193 1457 L1941 1457 L1411 266 L1227 1457 L1071 1457 L494 266 L357 1457 L149 1457 L365 -1 L546 -1 L1116 1146 L1292 -1 L1462 -1 L2193 1457 Z " />
<glyph glyph-name="X" unicode="X" horiz-adv-x="1448" d="M847 728 L1520 1457 L1251 1457 L737 887 L422 1457 L185 1457 L601 728 L-73 -2 L197 -2 L712 567 L1026 -2 L1263 -2 L847 728 Z " />
<glyph glyph-name="Y" unicode="Y" horiz-adv-x="1428" d="M807 691 L1510 1457 L1241 1457 L726 886 L412 1457 L175 1457 L608 691 L486 -2 L684 -2 L807 691 Z " />
<glyph glyph-name="Z" unicode="Z" horiz-adv-x="1270" d="M1069 166 L282 166 L1277 1345 L1297 1457 L231 1457 L201 1289 L988 1289 L-7 111 L-27 -2 L1040 -2 L1069 166 Z " />
<glyph glyph-name="bracketleft" unicode="&#x5b;" horiz-adv-x="508" d="M332 -269 L138 -269 L418 1321 L612 1321 L636 1458 L283 1458 L-46 -405 L308 -405 L332 -269 Z " />
<glyph glyph-name="backslash" unicode="&#x5c;" horiz-adv-x="682" d="M348 1480 L190 1480 L334 -24 L493 -24 L348 1480 Z " />
<glyph glyph-name="bracketright" unicode="&#x5d;" horiz-adv-x="507" d="M482 1458 L128 1458 L104 1321 L299 1321 L18 -269 L-176 -269 L-200 -405 L153 -405 L482 1458 Z " />
<glyph glyph-name="asciicircum" unicode="&#x5e;" horiz-adv-x="1311" d="M876 1458 L692 1458 L100 728 L293 728 L767 1304 L1038 728 L1211 728 L876 1458 Z " />
<glyph glyph-name="underscore" unicode="&#x5f;" horiz-adv-x="1309" d="M1178 -273 L-222 -273 L-245 -405 L1155 -405 L1178 -273 Z " />
<glyph glyph-name="grave" unicode="&#x60;" horiz-adv-x="935" d="M546 1492 L339 1492 L666 1185 L804 1185 L546 1492 Z " />
<glyph glyph-name="a" unicode="a" horiz-adv-x="1216" d="M440 144 C376 144 323 155 280 178 C237 201 215 234 215 278 C215 341 242 387 295 418 C348 449 411 464 485 464 L822 464 C814 417 806 370 798 324 C789 277 750 236 681 199 C612 162 531 144 440 144 L440 144 Z M353 -23 C548 -23 691 36 783 153 L755 -1 L933 -1 L1062 727 C1066 751 1068 774 1068 796 C1068 887 1027 958 945 1009 C863 1060 763 1085 645 1085 C487 1085 339 1032 200 926 L301 808 C404 883 505 920 605 920 C682 920 745 903 795 870 C845 836 870 795 870 748 C870 739 863 694 849 614 L509 614 C382 614 268 581 167 514 C66 447 16 355 16 237 C16 163 48 101 113 52 C178 2 258 -23 353 -23 L353 -23 Z " />
<glyph glyph-name="b" unicode="b" horiz-adv-x="1400" d="M618 143 C511 143 431 176 376 243 C321 310 293 381 293 457 C293 580 340 688 434 781 C528 874 635 920 755 920 C862 920 943 886 998 819 C1053 752 1080 680 1080 603 C1079 474 1031 366 934 277 C837 188 732 143 618 143 L618 143 Z M626 -23 C797 -23 948 43 1079 175 C1210 306 1276 460 1276 635 C1276 744 1238 847 1162 942 C1086 1037 972 1085 821 1085 C650 1085 500 1006 369 847 L476 1458 L283 1458 L26 0 L206 0 L247 230 C321 61 447 -23 626 -23 L626 -23 Z " />
<glyph glyph-name="c" unicode="c" horiz-adv-x="1129" d="M559 -24 C701 -24 836 21 963 110 L873 240 C791 175 698 142 594 142 C486 142 403 175 344 240 C285 305 255 378 255 457 C255 577 302 684 397 778 C492 872 603 919 732 919 C835 919 916 886 975 821 L1111 951 C1016 1040 897 1085 755 1085 C560 1085 394 1019 258 888 C122 756 54 601 54 423 C54 305 98 201 185 111 C272 21 397 -24 559 -24 L559 -24 Z " />
<glyph glyph-name="d" unicode="d" horiz-adv-x="1400" d="M575 143 C468 143 388 177 333 244 C278 311 251 382 251 459 C251 581 298 688 392 781 C485 874 592 920 712 920 C819 920 899 886 954 819 C1009 752 1036 680 1036 603 C1036 481 989 374 894 282 C799 189 693 143 575 143 L575 143 Z M510 -23 C688 -23 844 61 977 230 L936 0 L1117 0 L1374 1458 L1180 1458 L1073 847 C998 1006 876 1085 705 1085 C534 1085 382 1019 251 888 C119 757 53 602 53 425 C53 317 91 215 168 120 C244 25 358 -23 510 -23 L510 -23 Z " />
<glyph glyph-name="e" unicode="e" horiz-adv-x="1247" d="M273 614 C294 699 342 773 417 838 C492 903 581 935 686 935 C883 935 978 845 978 614 L273 614 Z M556 -24 C697 -24 839 21 981 111 L891 239 C784 173 682 140 585 140 C476 140 393 171 335 232 C276 293 247 360 247 434 L248 463 L1136 463 C1155 519 1165 580 1165 646 C1165 753 1130 853 1060 946 C990 1039 874 1085 712 1085 C534 1085 380 1021 251 893 C122 764 57 611 56 434 C56 319 98 214 182 119 C266 24 391 -24 556 -24 L556 -24 Z " />
<glyph glyph-name="f" unicode="f" horiz-adv-x="857" d="M483 910 L832 910 L859 1063 L510 1063 L521 1128 C531 1184 561 1231 612 1270 C662 1309 723 1328 794 1328 C825 1328 862 1324 904 1317 L931 1469 C888 1476 841 1480 790 1480 C675 1480 575 1450 488 1391 C401 1331 347 1243 327 1128 L315 1063 L92 1063 L65 910 L288 910 L128 -1 L322 -1 L483 910 Z " />
<glyph glyph-name="g" unicode="g" horiz-adv-x="1400" d="M575 142 C468 142 388 176 333 243 C278 310 251 382 251 459 C251 580 298 687 392 780 C485 873 592 919 712 919 C819 919 899 885 954 818 C1009 751 1036 679 1036 603 C1035 474 987 365 890 276 C793 187 688 142 575 142 L575 142 Z M466 -428 C621 -428 764 -383 893 -293 C1022 -203 1100 -83 1127 66 L1305 1062 L1124 1062 L1083 831 C1009 1000 883 1085 705 1085 C527 1085 374 1018 246 883 C117 748 53 595 53 426 C53 319 92 220 169 131 C246 42 359 -3 510 -3 C681 -3 831 75 962 230 L933 66 C916 -33 863 -111 776 -168 C688 -225 592 -254 488 -254 C351 -254 246 -219 173 -148 L62 -278 C176 -378 311 -428 466 -428 L466 -428 Z " />
<glyph glyph-name="h" unicode="h" horiz-adv-x="1334" d="M1168 658 C1173 687 1175 714 1175 740 C1175 832 1144 913 1082 982 C1019 1051 923 1085 793 1085 C625 1085 486 1017 375 880 L477 1458 L283 1458 L26 -1 L220 -1 L327 610 C342 697 387 771 462 834 C537 897 622 928 719 928 C807 928 872 905 914 859 C955 813 976 760 976 699 C976 681 974 662 971 642 L859 -1 L1052 -1 L1168 658 Z " />
<glyph glyph-name="i" unicode="i" horiz-adv-x="502" d="M408 1063 L214 1063 L26 -1 L220 -1 L408 1063 Z M341 1234 C376 1234 409 1248 442 1276 C475 1303 491 1339 491 1382 C491 1431 454 1483 385 1483 C350 1483 316 1469 283 1442 C250 1415 234 1379 234 1335 C234 1286 270 1234 341 1234 L341 1234 Z " />
<glyph glyph-name="j" unicode="j" horiz-adv-x="532" d="M356 1234 C391 1234 424 1248 457 1275 C490 1302 506 1338 506 1381 C506 1432 469 1483 400 1483 C365 1483 332 1469 299 1442 C266 1414 249 1379 249 1336 C249 1311 258 1288 277 1267 C295 1245 321 1234 356 1234 L356 1234 Z M-242 -427 C-126 -426 -25 -395 63 -333 C150 -270 203 -181 223 -66 L422 1063 L229 1063 L30 -66 C5 -205 -87 -275 -246 -275 C-277 -275 -313 -271 -355 -264 L-382 -416 C-339 -423 -293 -427 -242 -427 L-242 -427 Z " />
<glyph glyph-name="k" unicode="k" horiz-adv-x="1187" d="M653 599 L1205 1063 L931 1063 L307 494 L477 1458 L283 1458 L26 -1 L220 -1 L269 277 L505 478 L820 -1 L1059 -1 L653 599 Z " />
<glyph glyph-name="l" unicode="l" horiz-adv-x="534" d="M493 1458 L299 1458 L42 -1 L236 -1 L493 1458 Z " />
<glyph glyph-name="m" unicode="m" horiz-adv-x="1866" d="M1705 684 C1710 712 1712 739 1712 766 C1712 841 1688 913 1640 981 C1591 1048 1512 1083 1401 1085 C1238 1085 1111 1014 1019 871 C976 1014 881 1085 734 1085 C607 1085 491 1018 386 885 L417 1063 L237 1063 L50 -1 L243 -1 L358 654 C372 732 409 796 468 846 C527 895 590 920 659 920 C721 920 768 901 800 863 C832 825 848 783 848 736 C848 720 846 703 843 685 L722 -1 L916 -1 L1032 656 C1045 726 1079 788 1135 841 C1190 894 1256 920 1331 920 C1391 920 1437 901 1469 863 C1501 825 1517 782 1517 735 C1517 719 1515 702 1512 685 L1391 -1 L1584 -1 L1705 684 Z " />
<glyph glyph-name="n" unicode="n" horiz-adv-x="1358" d="M1189 649 C1194 682 1197 713 1197 742 C1197 833 1167 913 1107 982 C1046 1051 951 1085 822 1085 C645 1085 498 1010 381 860 L417 1063 L237 1063 L50 -1 L243 -1 L351 613 C366 702 411 775 486 833 C560 891 645 920 740 920 C826 920 891 898 935 855 C978 811 1000 758 1000 697 C1000 678 999 662 996 647 L882 -1 L1076 -1 L1189 649 Z " />
<glyph glyph-name="o" unicode="o" horiz-adv-x="1338" d="M566 143 C461 143 382 176 329 243 C276 310 249 381 249 458 C249 574 295 680 388 776 C480 872 585 920 703 920 C807 920 886 887 939 820 C992 753 1019 682 1019 606 C1018 475 970 366 875 277 C780 188 677 143 566 143 L566 143 Z M537 -23 C708 -23 863 41 1004 170 C1144 298 1214 452 1214 632 C1214 743 1173 846 1092 942 C1010 1037 890 1085 732 1085 C561 1085 405 1021 265 893 C124 765 54 611 54 431 C54 321 95 218 177 122 C259 25 379 -23 537 -23 L537 -23 Z " />
<glyph glyph-name="p" unicode="p" horiz-adv-x="1401" d="M618 142 C512 142 432 176 377 243 C322 310 294 381 294 457 C295 580 340 687 431 780 C521 873 629 919 755 919 C862 919 943 885 998 818 C1053 751 1080 679 1080 603 C1079 481 1031 374 934 281 C837 188 732 142 618 142 L618 142 Z M258 212 C332 55 454 -24 625 -24 C790 -24 940 40 1075 169 C1210 297 1277 452 1277 635 C1277 744 1239 846 1163 942 C1087 1037 973 1085 821 1085 C643 1085 487 1000 354 831 L394 1062 L213 1062 L-45 -405 L149 -405 L258 212 Z " />
<glyph glyph-name="q" unicode="q" horiz-adv-x="1399" d="M574 142 C467 142 387 176 332 243 C277 310 250 382 250 459 C250 580 297 687 391 780 C484 873 591 919 711 919 C818 919 899 885 954 818 C1009 751 1036 679 1036 603 C1036 481 988 374 891 281 C794 188 688 142 574 142 L574 142 Z M1304 1062 L1124 1062 L1083 831 C1008 1000 882 1085 704 1085 C533 1085 382 1019 251 888 C119 756 53 602 53 425 C53 316 91 214 168 119 C244 24 358 -24 509 -24 C680 -24 830 56 961 215 L852 -405 L1045 -405 L1304 1062 Z " />
<glyph glyph-name="r" unicode="r" horiz-adv-x="817" d="M332 636 C346 715 383 780 444 831 C505 882 569 908 638 908 C670 908 702 901 733 887 L836 1036 C800 1061 752 1074 691 1074 C553 1074 443 1009 361 879 L392 1051 L211 1051 L23 -13 L217 -13 L332 636 Z " />
<glyph glyph-name="s" unicode="s" horiz-adv-x="1069" d="M396 -23 C515 -23 628 7 736 68 C843 128 897 218 897 339 C897 434 832 502 701 543 L413 640 C344 664 312 693 312 741 C312 799 340 845 395 878 C450 911 516 928 593 928 C674 928 769 896 876 832 L982 963 C870 1040 744 1078 604 1078 C478 1078 362 1044 257 977 C151 909 98 820 98 709 C98 613 154 547 265 511 L565 415 C642 392 685 363 685 308 C685 249 657 204 600 173 C543 141 477 125 401 125 C339 125 276 137 211 160 C146 183 94 215 54 256 L-49 128 C-7 76 57 38 142 14 C227 -11 312 -23 396 -23 L396 -23 Z " />
<glyph glyph-name="t" unicode="t" horiz-adv-x="857" d="M523 -35 C574 -34 622 -30 668 -23 L694 129 C646 121 608 117 579 117 C498 117 444 132 416 163 C388 193 374 229 374 272 C374 289 376 307 379 326 L481 909 L832 909 L859 1062 L508 1062 L566 1388 L361 1320 L315 1062 L92 1062 L65 909 L288 909 L186 326 C181 298 178 272 178 247 C178 170 207 104 264 49 C321 -7 408 -34 523 -35 L523 -35 Z " />
<glyph glyph-name="u" unicode="u" horiz-adv-x="1339" d="M465 -25 C642 -25 784 50 889 200 L854 -2 L1034 -2 L1221 1062 L1028 1062 L920 448 C904 359 860 286 789 228 C718 170 634 141 539 141 C453 141 390 163 349 206 C308 249 288 300 288 359 C288 376 289 395 292 414 L406 1062 L213 1062 L98 411 C93 380 90 350 90 321 C90 229 120 148 181 79 C241 10 336 -25 465 -25 L465 -25 Z " />
<glyph glyph-name="v" unicode="v" horiz-adv-x="1161" d="M1200 1062 L975 1062 L471 171 L279 1062 L79 1062 L356 -2 L547 -2 L1200 1062 Z " />
<glyph glyph-name="w" unicode="w" horiz-adv-x="1702" d="M1741 1062 L1511 1062 L1103 201 L983 1062 L815 1062 L403 201 L279 1062 L79 1062 L279 -2 L469 -2 L861 785 L978 -2 L1168 -2 L1741 1062 Z " />
<glyph glyph-name="x" unicode="x" horiz-adv-x="1105" d="M660 541 L1144 1062 L885 1062 L525 651 L310 1062 L79 1062 L386 542 L-109 -2 L150 -2 L515 432 L725 -2 L956 -2 L660 541 Z " />
<glyph glyph-name="y" unicode="y" horiz-adv-x="1134" d="M44 -428 C206 -428 334 -346 427 -183 L1165 1062 L936 1062 L485 262 L312 1062 L100 1062 L365 45 L245 -153 C201 -226 158 -277 71 -277 C21 -277 -22 -273 -58 -266 L-85 -417 C-41 -424 2 -428 44 -428 L44 -428 Z " />
<glyph glyph-name="z" unicode="z" horiz-adv-x="1103" d="M903 151 L251 151 L1037 909 L1064 1062 L157 1062 L130 909 L782 909 L-4 151 L-31 -2 L876 -2 L903 151 Z " />
<glyph glyph-name="braceleft" unicode="&#x7b;" horiz-adv-x="509" d="M279 -269 L235 -269 C196 -269 177 -241 177 -213 C177 -212 178 -204 181 -189 L274 351 C279 382 282 399 282 402 C282 424 277 445 267 465 C253 494 233 514 206 526 C267 550 322 614 333 679 L435 1253 C442 1290 478 1321 515 1321 L559 1321 L583 1458 L519 1458 C462 1458 409 1438 362 1398 C315 1358 286 1310 276 1253 L174 679 C169 653 155 632 130 616 C105 599 79 590 54 589 L32 463 C81 460 121 427 121 388 C121 387 120 377 117 358 L19 -201 C17 -214 16 -227 16 -239 C16 -280 31 -318 61 -353 C90 -388 134 -405 191 -405 L255 -405 L279 -269 Z " />
<glyph glyph-name="bar" unicode="&#x7c;" horiz-adv-x="1309" d="M863 1480 L712 1480 L375 -427 L527 -427 L863 1480 Z " />
<glyph glyph-name="braceright" unicode="&#x7d;" horiz-adv-x="508" d="M158 1322 L202 1322 C241 1322 260 1294 260 1266 C260 1265 259 1257 256 1242 L163 702 C158 671 155 654 155 651 C155 629 160 608 170 588 C184 559 204 539 231 527 C170 503 115 439 104 374 L2 -200 C-5 -237 -41 -268 -78 -268 L-122 -268 L-146 -405 L-82 -405 C-25 -405 28 -385 75 -345 C122 -305 151 -257 161 -200 L263 374 C268 400 283 421 308 438 C333 454 358 463 383 464 L405 590 C356 593 316 626 316 665 C316 666 317 676 320 695 L418 1254 C420 1267 421 1280 421 1292 C421 1333 406 1371 377 1406 C347 1441 303 1458 246 1458 L182 1458 L158 1322 Z " />
<glyph glyph-name="asciitilde" unicode="&#x7e;" horiz-adv-x="1311" d="M839 604 C954 604 1035 657 1081 762 L973 830 C945 768 898 737 833 737 C780 737 727 756 672 795 C617 834 549 853 470 853 C354 853 274 799 230 691 L335 627 C363 688 410 719 475 719 C528 719 582 700 637 662 C692 623 759 604 839 604 L839 604 Z " />
<glyph glyph-name="exclamdown" unicode="&#xa1;" horiz-adv-x="752" d="M136 -426 L339 -426 L503 656 L354 656 L136 -426 Z M503 1078 C468 1078 433 1064 400 1036 C367 1008 350 972 350 929 C350 904 359 881 378 859 C396 837 423 826 458 826 C493 826 528 840 561 868 C594 895 611 931 611 975 C611 1000 602 1023 584 1045 C565 1067 538 1078 503 1078 L503 1078 Z " />
<glyph glyph-name="cent" unicode="&#xa2;" horiz-adv-x="1310" d="M463 3 C513 -15 567 -24 625 -24 C766 -24 901 20 1028 109 L935 234 C855 172 763 141 659 141 C552 141 469 174 412 239 C354 304 325 376 325 455 C325 583 372 692 465 783 C558 873 668 918 796 918 C900 918 981 887 1039 825 L1177 950 C1112 1010 1033 1049 940 1067 L1037 1282 L878 1282 L788 1081 C603 1068 447 1000 320 877 C193 754 129 604 128 428 C128 275 196 153 331 62 L203 -222 L362 -222 L463 3 Z " />
<glyph glyph-name="sterling" unicode="&#xa3;" horiz-adv-x="1310" d="M1076 152 L384 152 L473 656 L819 656 L844 800 L498 800 L539 1033 C571 1213 665 1300 836 1300 C911 1300 969 1285 1012 1254 C1055 1223 1094 1180 1129 1123 L1268 1242 C1220 1318 1166 1377 1107 1418 C1048 1459 962 1480 849 1480 C714 1480 601 1436 510 1348 C419 1259 362 1154 341 1031 L300 800 L186 800 L161 656 L274 656 L186 152 L30 152 L3 -1 L1049 -1 L1076 152 Z " />
<glyph glyph-name="currency" unicode="&#xa4;" horiz-adv-x="1309" d="M612 489 C545 489 494 509 460 550 C425 590 408 634 408 682 C408 765 440 833 503 886 C566 939 630 965 696 965 C764 965 815 945 849 904 C883 863 900 818 900 771 C900 701 872 637 817 578 C762 519 693 489 612 489 L612 489 Z M1085 326 L926 515 C1003 600 1041 691 1041 786 C1041 839 1028 890 1001 939 L1226 1127 L1148 1221 L923 1032 C864 1079 797 1103 720 1103 C644 1103 568 1079 493 1032 L334 1221 L222 1127 L381 939 C305 854 267 763 267 668 C267 615 280 564 307 515 L81 326 L160 233 L386 422 C445 375 512 351 587 351 C664 351 740 375 815 422 L974 233 L1085 326 Z " />
<glyph glyph-name="yen" unicode="&#xa5;" horiz-adv-x="1310" d="M707 459 L1145 459 L1171 608 L733 608 L747 690 L894 849 L1213 849 L1240 998 L1031 998 L1451 1456 L1197 1456 L683 885 L368 1456 L115 1456 L374 998 L165 998 L138 849 L458 849 L548 690 L534 608 L96 608 L70 459 L508 459 L426 -3 L625 -3 L707 459 Z " />
<glyph glyph-name="brokenbar" unicode="&#xa6;" horiz-adv-x="1309" d="M673 404 L522 404 L375 -427 L527 -427 L673 404 Z M863 1480 L712 1480 L565 649 L716 649 L863 1480 Z " />
<glyph glyph-name="section" unicode="&#xa7;" horiz-adv-x="1310" d="M443 -427 C594 -427 736 -383 870 -295 C1003 -207 1070 -88 1070 62 C1070 101 1064 134 1051 163 C1145 243 1192 343 1192 464 C1192 590 1117 677 967 726 C891 750 811 769 726 783 C613 801 519 826 446 858 C372 890 335 943 335 1017 C335 1119 382 1200 477 1259 C571 1318 671 1347 776 1347 C956 1347 1084 1286 1160 1163 L1286 1248 C1185 1401 1022 1478 796 1478 C645 1478 502 1434 369 1346 C236 1258 169 1139 169 990 C169 951 175 916 187 887 C93 807 46 707 46 587 C46 461 121 374 272 326 C347 301 427 282 512 267 C625 250 719 225 793 193 C867 160 904 107 904 33 C904 -68 857 -149 762 -208 C667 -267 568 -296 463 -296 C282 -296 154 -235 79 -112 L-47 -197 C52 -350 216 -427 443 -427 L443 -427 Z M961 265 C894 312 775 351 603 381 C489 398 395 423 322 456 C249 488 212 541 212 615 C212 682 234 738 278 785 C345 738 464 700 635 670 C749 653 843 628 916 596 C989 563 1026 510 1026 437 C1026 370 1004 313 961 265 L961 265 Z " />
<glyph glyph-name="dieresis" unicode="&#xa8;" horiz-adv-x="935" d="M386 1259 C414 1259 441 1270 467 1292 C493 1313 506 1341 506 1376 C506 1416 477 1457 421 1457 C393 1457 366 1446 340 1425 C314 1403 301 1375 301 1340 C301 1300 330 1259 386 1259 L386 1259 Z M736 1259 C764 1259 791 1270 818 1292 C844 1314 857 1342 857 1375 C857 1415 827 1457 771 1457 C744 1457 717 1446 691 1424 C664 1402 651 1374 651 1340 C651 1300 681 1259 736 1259 L736 1259 Z " />
<glyph glyph-name="copyright" unicode="&#xa9;" horiz-adv-x="1908" d="M845 107 C669 107 536 161 445 268 C354 375 308 491 308 615 C309 814 386 985 540 1130 C693 1274 868 1346 1063 1346 C1239 1346 1373 1292 1464 1185 C1555 1078 1600 962 1600 839 C1600 640 1521 468 1364 324 C1207 179 1034 107 845 107 L845 107 Z M821 -25 C1062 -25 1276 63 1462 240 C1647 417 1741 624 1742 863 C1742 1013 1686 1153 1575 1284 C1464 1414 1301 1479 1087 1479 C839 1479 624 1389 441 1209 C258 1028 166 822 166 590 C166 440 222 300 333 170 C444 40 607 -25 821 -25 L821 -25 Z M906 381 C993 381 1074 407 1150 459 L1092 556 C1042 519 987 501 927 501 C864 501 815 520 780 559 C745 597 727 639 727 686 C727 759 756 822 814 874 C872 926 936 952 1007 952 C1066 952 1115 934 1152 897 L1244 994 C1187 1046 1115 1072 1028 1072 C917 1072 818 1032 730 953 C642 873 598 777 598 664 C598 593 625 529 679 470 C733 411 809 381 906 381 L906 381 Z " />
<glyph glyph-name="ordfeminine" unicode="&#xaa;" horiz-adv-x="822" d="M381 829 C292 829 234 872 234 927 C234 996 293 1048 412 1048 L635 1048 L619 958 C612 919 582 888 528 865 C473 841 424 829 381 829 L381 829 Z M323 718 C451 718 545 754 606 825 L590 733 L721 733 L804 1216 C811 1255 814 1276 814 1281 C814 1343 786 1392 730 1427 C673 1462 606 1480 527 1480 C409 1480 304 1442 212 1366 L287 1279 C360 1331 429 1357 494 1357 C532 1357 571 1348 610 1329 C649 1310 668 1283 668 1247 C668 1240 663 1209 653 1154 L430 1154 C322 1154 238 1131 179 1084 C120 1037 90 976 90 901 C90 852 112 809 155 773 C198 736 254 718 323 718 L323 718 Z " />
<glyph glyph-name="guillemotleft" unicode="&#xab;" horiz-adv-x="1250" d="M355 531 L702 986 L528 986 L180 531 L367 75 L542 75 L355 531 Z M760 531 L1107 986 L932 986 L585 531 L772 75 L946 75 L760 531 Z " />
<glyph glyph-name="logicalnot" unicode="&#xac;" horiz-adv-x="1309" d="M1218 713 L85 713 L62 581 L1044 581 L1003 348 L1154 348 L1218 713 Z " />
<glyph glyph-name="registered" unicode="&#xae;" horiz-adv-x="1908" d="M848 737 L888 966 L1038 966 C1110 966 1146 937 1146 878 C1145 795 1093 737 998 737 L848 737 Z M1084 664 C1204 697 1264 778 1264 907 C1264 1012 1198 1066 1065 1067 L784 1067 L664 387 L786 387 L832 645 L954 645 L1102 387 L1247 387 L1084 664 Z M845 107 C669 107 536 161 445 268 C354 375 308 491 308 615 C308 814 387 985 544 1130 C701 1274 874 1346 1063 1346 C1239 1346 1373 1292 1464 1185 C1555 1078 1600 962 1600 839 C1599 646 1521 476 1368 329 C1215 181 1040 107 845 107 L845 107 Z M821 -25 C1056 -25 1268 62 1457 235 C1646 408 1741 618 1742 863 C1742 1013 1686 1153 1575 1284 C1464 1414 1301 1479 1087 1479 C852 1479 640 1392 451 1219 C262 1045 167 835 166 590 C166 440 222 300 333 170 C444 40 607 -25 821 -25 L821 -25 Z " />
<glyph glyph-name="overscore" unicode="&#xaf;" horiz-adv-x="934" d="M896 1417 L280 1417 L259 1298 L875 1298 L896 1417 Z " />
<glyph glyph-name="degree" unicode="&#xb0;" horiz-adv-x="632" d="M372 1082 C331 1082 297 1096 269 1125 C240 1154 226 1188 226 1229 C226 1270 240 1305 269 1334 C297 1363 331 1377 372 1377 C412 1377 446 1363 475 1334 C503 1305 517 1270 517 1229 C517 1188 503 1154 475 1125 C446 1096 412 1082 372 1082 L372 1082 Z M372 979 C441 979 500 1004 549 1053 C598 1102 622 1160 622 1229 C622 1298 598 1358 549 1407 C500 1456 441 1480 372 1480 C303 1480 244 1456 195 1407 C146 1358 121 1298 121 1229 C121 1160 146 1102 195 1053 C244 1004 303 979 372 979 L372 979 Z " />
<glyph glyph-name="plusminus" unicode="&#xb1;" horiz-adv-x="1309" d="M723 690 L1094 690 L1117 822 L747 822 L812 1194 L661 1194 L595 822 L225 822 L201 690 L572 690 L507 318 L658 318 L723 690 Z M996 132 L103 132 L80 0 L972 0 L996 132 Z " />
<glyph glyph-name="uni00B2" unicode="&#xb2;" horiz-adv-x="696" d="M648 866 L366 866 L620 1082 C690 1139 725 1208 725 1288 C725 1343 702 1389 657 1426 C612 1463 552 1481 478 1481 C357 1481 255 1435 174 1342 L270 1250 C319 1308 377 1337 444 1337 C504 1337 561 1308 561 1259 C561 1229 549 1204 525 1183 L101 831 L82 726 L623 726 L648 866 Z " />
<glyph glyph-name="uni00B3" unicode="&#xb3;" horiz-adv-x="696" d="M335 715 C420 715 498 739 569 787 C640 835 675 896 675 969 C675 1016 649 1069 578 1098 C661 1145 702 1212 702 1299 C702 1352 681 1396 640 1430 C599 1464 543 1481 472 1481 C357 1481 260 1435 180 1344 L275 1251 C322 1308 377 1337 438 1337 C491 1337 538 1315 538 1270 C538 1230 523 1203 493 1188 C463 1173 435 1166 409 1166 L345 1166 L320 1029 L385 1029 C410 1029 438 1023 468 1012 C497 1001 512 982 512 957 C512 918 492 892 452 879 C412 866 379 859 353 859 C284 859 237 888 211 945 L83 852 C130 761 214 715 335 715 L335 715 Z " />
<glyph glyph-name="acute" unicode="&#xb4;" horiz-adv-x="935" d="M808 1492 L602 1492 L343 1185 L481 1185 L808 1492 Z " />
<glyph glyph-name="&amp;#xb5;" unicode="&#xb5;" horiz-adv-x="1316" d="M227 119 C269 24 350 -24 469 -24 C646 -24 786 51 889 201 L854 -2 L1034 -2 L1221 1062 L1028 1062 L920 448 C904 359 860 286 789 228 C718 170 634 141 539 141 C454 141 391 163 350 206 C309 249 288 301 288 360 C288 377 289 395 292 414 L406 1062 L213 1062 L-45 -404 L135 -404 L227 119 Z " />
<glyph glyph-name="&amp;#x3bc;" unicode="&#x3bc;" horiz-adv-x="1316" d="M227 119 C269 24 350 -24 469 -24 C646 -24 786 51 889 201 L854 -2 L1034 -2 L1221 1062 L1028 1062 L920 448 C904 359 860 286 789 228 C718 170 634 141 539 141 C454 141 391 163 350 206 C309 249 288 301 288 360 C288 377 289 395 292 414 L406 1062 L213 1062 L-45 -404 L135 -404 L227 119 Z " />
<glyph glyph-name="paragraph" unicode="&#xb6;" horiz-adv-x="1196" d="M1227 1481 L617 1481 C498 1481 393 1436 302 1346 C211 1256 164 1152 163 1035 C163 961 187 896 234 839 C295 766 379 729 484 729 L280 -426 L432 -426 L745 1349 L1052 1349 L739 -426 L890 -426 L1227 1481 Z " />
<glyph glyph-name="&amp;#xb7;" unicode="&#xb7;" horiz-adv-x="564" d="M224 401 C259 401 294 415 327 443 C360 471 376 507 376 552 C376 601 340 653 269 653 C233 653 199 639 166 612 C133 585 116 549 116 504 C116 479 125 456 144 434 C162 412 189 401 224 401 L224 401 Z " />
<glyph glyph-name="&amp;#x2219;" unicode="&#x2219;" horiz-adv-x="564" d="M224 401 C259 401 294 415 327 443 C360 471 376 507 376 552 C376 601 340 653 269 653 C233 653 199 639 166 612 C133 585 116 549 116 504 C116 479 125 456 144 434 C162 412 189 401 224 401 L224 401 Z " />
<glyph glyph-name="cedilla" unicode="&#xb8;" horiz-adv-x="935" d="M236 -410 C298 -410 360 -395 422 -366 C483 -336 514 -287 514 -218 C514 -145 458 -106 345 -103 L428 0 L318 0 L228 -120 L218 -181 L273 -181 C338 -181 371 -200 371 -237 C371 -268 356 -290 327 -304 C297 -317 270 -324 247 -324 C202 -324 158 -310 117 -283 L58 -358 C104 -393 163 -410 236 -410 L236 -410 Z " />
<glyph glyph-name="uni00B9" unicode="&#xb9;" horiz-adv-x="696" d="M587 1470 L438 1470 L207 1350 L257 1228 L396 1300 L294 726 L456 726 L587 1470 Z " />
<glyph glyph-name="ordmasculine" unicode="&#xba;" horiz-adv-x="944" d="M469 841 C400 841 347 863 312 908 C277 953 259 1000 259 1050 C259 1139 292 1213 357 1271 C422 1328 490 1357 560 1357 C630 1357 683 1335 718 1290 C753 1245 770 1198 770 1148 C770 1059 737 985 672 928 C607 870 539 841 469 841 L469 841 Z M447 718 C569 718 677 764 772 855 C866 946 913 1050 913 1169 C913 1244 885 1315 829 1381 C772 1447 690 1480 582 1480 C467 1480 360 1438 263 1354 C166 1269 117 1161 116 1030 C116 954 144 883 201 817 C257 751 339 718 447 718 L447 718 Z " />
<glyph glyph-name="guillemotright" unicode="&#xbb;" horiz-adv-x="1250" d="M1000 531 L814 986 L639 986 L826 531 L479 75 L653 75 L1000 531 Z M596 531 L409 986 L234 986 L421 531 L74 75 L248 75 L596 531 Z " />
<glyph glyph-name="onequarter" unicode="&#xbc;" horiz-adv-x="1660" d="M581 1470 L433 1470 L201 1350 L251 1228 L390 1300 L288 726 L450 726 L581 1470 Z M1491 1481 L1292 1481 L145 -23 L343 -23 L1491 1481 Z M1371 112 L1461 112 L1485 252 L1396 252 L1422 399 L1274 399 L1249 252 L1043 252 L1420 740 L1245 740 L852 230 L831 112 L1224 112 L1203 -4 L1351 -4 L1371 112 Z " />
<glyph glyph-name="onehalf" unicode="&#xbd;" horiz-adv-x="1662" d="M1446 137 L1163 137 L1417 352 C1488 410 1523 479 1523 558 C1523 613 1500 659 1455 696 C1410 733 1350 751 1275 751 C1154 751 1053 705 972 612 L1067 520 C1116 578 1175 607 1242 607 C1271 607 1298 600 1322 587 C1346 573 1358 554 1358 529 C1358 500 1346 475 1323 454 L898 101 L880 -4 L1421 -4 L1446 137 Z M595 1470 L447 1470 L215 1350 L265 1228 L404 1300 L302 726 L464 726 L595 1470 Z M1502 1481 L1304 1481 L156 -23 L355 -23 L1502 1481 Z " />
<glyph glyph-name="threequarters" unicode="&#xbe;" horiz-adv-x="1662" d="M370 715 C460 715 539 739 608 787 C676 835 710 896 710 969 C710 1016 684 1069 613 1098 C696 1145 737 1212 737 1299 C737 1352 716 1396 675 1430 C634 1464 578 1481 507 1481 C392 1481 295 1435 215 1344 L310 1251 C357 1308 412 1337 473 1337 C526 1337 573 1315 573 1270 C573 1230 558 1203 528 1188 C498 1173 470 1166 444 1166 L380 1166 L356 1029 L420 1029 C445 1029 473 1023 503 1012 C532 1001 547 982 547 957 C547 918 527 892 487 879 C447 866 414 859 388 859 C319 859 272 888 246 945 L118 852 C165 761 249 715 370 715 L370 715 Z M1487 1481 L1288 1481 L141 -23 L339 -23 L1487 1481 Z M1367 112 L1457 112 L1481 252 L1392 252 L1418 399 L1271 399 L1245 252 L1039 252 L1416 740 L1241 740 L848 230 L828 112 L1220 112 L1199 -4 L1347 -4 L1367 112 Z " />
<glyph glyph-name="questiondown" unicode="&#xbf;" horiz-adv-x="1158" d="M506 376 C355 360 228 316 124 244 C19 172 -33 66 -33 -75 C-33 -170 8 -252 91 -322 C173 -391 291 -426 445 -426 C686 -426 877 -340 1020 -169 L904 -53 C803 -184 664 -249 488 -249 C385 -249 306 -229 253 -188 C200 -147 173 -98 173 -42 C173 35 207 97 275 145 C342 193 427 225 528 240 C602 251 645 291 657 362 L705 656 L556 656 L506 376 Z M705 1078 C669 1078 635 1064 602 1037 C569 1009 552 973 552 929 C552 904 561 881 580 859 C598 837 625 826 660 826 C695 826 730 840 763 868 C796 896 813 932 813 975 C813 1000 804 1023 786 1045 C767 1067 740 1078 705 1078 L705 1078 Z " />
<glyph glyph-name="Agrave" unicode="&#xc0;" horiz-adv-x="1511" d="M509 574 L853 1194 L979 574 L509 574 Z M953 1457 L814 1457 L-57 -1 L189 -1 L424 421 L1010 421 L1096 -1 L1311 -1 L953 1457 Z M752 1891 L545 1891 L872 1584 L1010 1584 L752 1891 Z " />
<glyph glyph-name="Aacute" unicode="&#xc1;" horiz-adv-x="1511" d="M509 574 L853 1194 L979 574 L509 574 Z M953 1457 L814 1457 L-57 -1 L189 -1 L424 421 L1010 421 L1096 -1 L1311 -1 L953 1457 Z M1170 1891 L964 1891 L705 1584 L843 1584 L1170 1891 Z " />
<glyph glyph-name="Acircumflex" unicode="&#xc2;" horiz-adv-x="1511" d="M509 574 L853 1194 L979 574 L509 574 Z M953 1457 L814 1457 L-57 -1 L189 -1 L424 421 L1010 421 L1096 -1 L1311 -1 L953 1457 Z M1017 1911 L861 1911 L539 1604 L676 1604 L932 1817 L1114 1604 L1230 1604 L1017 1911 Z " />
<glyph glyph-name="Atilde" unicode="&#xc3;" horiz-adv-x="1511" d="M509 574 L853 1194 L979 574 L509 574 Z M953 1457 L814 1457 L-57 -1 L189 -1 L424 421 L1010 421 L1096 -1 L1311 -1 L953 1457 Z M1065 1641 C1168 1641 1240 1692 1282 1794 L1187 1848 C1168 1788 1125 1758 1060 1758 C1033 1758 987 1777 920 1816 C853 1855 799 1874 756 1874 C653 1874 582 1822 542 1718 L634 1666 C653 1726 696 1756 761 1756 C788 1756 834 1737 901 1699 C967 1660 1022 1641 1065 1641 L1065 1641 Z " />
<glyph glyph-name="Adieresis" unicode="&#xc4;" horiz-adv-x="1511" d="M509 574 L853 1194 L979 574 L509 574 Z M953 1457 L814 1457 L-57 -1 L189 -1 L424 421 L1010 421 L1096 -1 L1311 -1 L953 1457 Z M719 1658 C747 1658 774 1669 800 1691 C826 1712 839 1740 839 1775 C839 1815 810 1856 754 1856 C726 1856 699 1845 673 1824 C647 1802 634 1774 634 1739 C634 1699 663 1658 719 1658 L719 1658 Z M1069 1658 C1097 1658 1124 1669 1151 1691 C1177 1713 1190 1741 1190 1774 C1190 1814 1160 1856 1104 1856 C1077 1856 1050 1845 1024 1823 C997 1801 984 1773 984 1739 C984 1699 1014 1658 1069 1658 L1069 1658 Z " />
<glyph glyph-name="Aring" unicode="&#xc5;" horiz-adv-x="1511" d="M509 574 L853 1194 L979 574 L509 574 Z M953 1457 L814 1457 L-57 -1 L189 -1 L424 421 L1010 421 L1096 -1 L1311 -1 L953 1457 Z M893 1637 C830 1637 798 1683 798 1727 C798 1766 813 1797 842 1822 C871 1846 901 1858 932 1858 C993 1858 1026 1812 1026 1767 C1026 1729 1012 1698 983 1674 C954 1649 924 1637 893 1637 L893 1637 Z M876 1544 C933 1544 989 1566 1042 1611 C1095 1656 1122 1714 1122 1785 C1122 1826 1107 1864 1078 1899 C1049 1934 1005 1951 948 1951 C891 1951 835 1929 782 1884 C729 1839 702 1781 702 1710 C702 1669 717 1632 747 1597 C776 1562 819 1544 876 1544 L876 1544 Z " />
<glyph glyph-name="AE" unicode="&#xc6;" horiz-adv-x="2126" d="M513 575 L945 1290 L1141 1290 L1015 575 L513 575 Z M1925 168 L1142 168 L1227 650 L1890 650 L1918 807 L1255 807 L1340 1290 L2123 1290 L2152 1458 L881 1458 L-58 0 L173 0 L431 420 L988 420 L914 0 L1895 0 L1925 168 Z " />
<glyph glyph-name="Ccedilla" unicode="&#xc7;" horiz-adv-x="1549" d="M530 -410 C592 -410 654 -395 716 -366 C777 -336 808 -287 808 -218 C808 -145 752 -106 639 -103 L704 -23 L746 -24 C957 -24 1150 48 1325 192 L1213 319 C1082 210 937 156 778 156 C617 156 496 205 416 304 C336 403 296 508 296 620 C297 803 366 963 503 1098 C640 1233 799 1300 980 1300 C1139 1300 1264 1245 1357 1136 L1514 1264 C1390 1408 1223 1480 1012 1480 C765 1480 549 1392 365 1215 C181 1038 89 827 89 582 C89 442 137 315 232 200 C327 85 450 14 602 -12 L522 -120 L512 -181 L566 -181 C632 -181 665 -200 665 -238 C665 -268 650 -290 621 -304 C591 -317 564 -324 541 -324 C496 -324 452 -310 411 -283 L352 -358 C398 -393 457 -410 530 -410 L530 -410 Z " />
<glyph glyph-name="Egrave" unicode="&#xc8;" horiz-adv-x="1276" d="M1075 167 L292 167 L377 649 L1040 649 L1068 806 L405 806 L490 1289 L1273 1289 L1303 1457 L321 1457 L64 -1 L1046 -1 L1075 167 Z M682 1891 L475 1891 L802 1584 L940 1584 L682 1891 Z " />
<glyph glyph-name="Eacute" unicode="&#xc9;" horiz-adv-x="1276" d="M1075 167 L292 167 L377 649 L1040 649 L1068 806 L405 806 L490 1289 L1273 1289 L1303 1457 L321 1457 L64 -1 L1046 -1 L1075 167 Z M1100 1891 L894 1891 L635 1584 L773 1584 L1100 1891 Z " />
<glyph glyph-name="Ecircumflex" unicode="&#xca;" horiz-adv-x="1276" d="M1075 167 L292 167 L377 649 L1040 649 L1068 806 L405 806 L490 1289 L1273 1289 L1303 1457 L321 1457 L64 -1 L1046 -1 L1075 167 Z M947 1911 L791 1911 L469 1604 L606 1604 L862 1817 L1044 1604 L1160 1604 L947 1911 Z " />
<glyph glyph-name="Edieresis" unicode="&#xcb;" horiz-adv-x="1276" d="M1075 167 L292 167 L377 649 L1040 649 L1068 806 L405 806 L490 1289 L1273 1289 L1303 1457 L321 1457 L64 -1 L1046 -1 L1075 167 Z M649 1658 C677 1658 704 1669 730 1691 C756 1712 769 1740 769 1775 C769 1815 740 1856 684 1856 C656 1856 629 1845 603 1824 C577 1802 564 1774 564 1739 C564 1699 593 1658 649 1658 L649 1658 Z M999 1658 C1027 1658 1054 1669 1081 1691 C1107 1713 1120 1741 1120 1774 C1120 1814 1090 1856 1034 1856 C1007 1856 980 1845 954 1823 C927 1801 914 1773 914 1739 C914 1699 944 1658 999 1658 L999 1658 Z " />
<glyph glyph-name="Igrave" unicode="&#xcc;" horiz-adv-x="586" d="M520 1457 L322 1457 L64 -1 L263 -1 L520 1457 Z M296 1891 L89 1891 L416 1584 L554 1584 L296 1891 Z " />
<glyph glyph-name="Iacute" unicode="&#xcd;" horiz-adv-x="586" d="M520 1457 L322 1457 L64 -1 L263 -1 L520 1457 Z M714 1891 L508 1891 L249 1584 L387 1584 L714 1891 Z " />
<glyph glyph-name="Icircumflex" unicode="&#xce;" horiz-adv-x="586" d="M520 1457 L322 1457 L64 -1 L263 -1 L520 1457 Z M561 1911 L405 1911 L83 1604 L220 1604 L476 1817 L658 1604 L774 1604 L561 1911 Z " />
<glyph glyph-name="Idieresis" unicode="&#xcf;" horiz-adv-x="586" d="M520 1457 L322 1457 L64 -1 L263 -1 L520 1457 Z M264 1658 C292 1658 319 1669 345 1691 C371 1712 384 1740 384 1775 C384 1815 355 1856 299 1856 C271 1856 244 1845 218 1824 C192 1802 179 1774 179 1739 C179 1699 208 1658 264 1658 L264 1658 Z M614 1658 C642 1658 669 1669 696 1691 C722 1713 735 1741 735 1774 C735 1814 705 1856 649 1856 C622 1856 595 1845 569 1823 C542 1801 529 1773 529 1739 C529 1699 559 1658 614 1658 L614 1658 Z " />
<glyph glyph-name="Eth" unicode="&#xd0;" horiz-adv-x="1558" d="M378 653 L882 653 L908 802 L404 802 L490 1289 L789 1289 C945 1289 1064 1241 1145 1144 C1226 1047 1267 942 1267 831 C1266 646 1194 490 1050 361 C906 232 753 167 591 167 L292 166 L378 653 Z M561 -2 C799 -2 1010 84 1193 257 C1376 430 1467 630 1468 857 C1468 1004 1413 1140 1302 1267 C1191 1394 1029 1457 818 1457 L320 1457 L205 802 L-59 802 L-86 653 L179 653 L63 -2 L561 -2 L561 -2 Z " />
<glyph glyph-name="Ntilde" unicode="&#xd1;" horiz-adv-x="1641" d="M1577 1457 L1381 1457 L1181 323 L481 1457 L322 1457 L64 -2 L260 -2 L460 1132 L1161 -2 L1320 -2 L1577 1457 Z M1079 1641 C1182 1641 1254 1692 1296 1794 L1201 1848 C1182 1788 1139 1758 1074 1758 C1047 1758 1001 1777 934 1816 C867 1855 813 1874 770 1874 C667 1874 596 1822 556 1718 L648 1666 C667 1726 710 1756 775 1756 C802 1756 848 1737 915 1699 C981 1660 1036 1641 1079 1641 L1079 1641 Z " />
<glyph glyph-name="Ograve" unicode="&#xd2;" horiz-adv-x="1756" d="M777 154 C618 154 497 204 415 303 C332 402 291 509 291 623 C291 804 361 963 501 1098 C640 1233 800 1301 979 1301 C1138 1301 1259 1252 1342 1153 C1424 1054 1465 947 1465 834 C1465 645 1392 484 1246 352 C1099 220 943 154 777 154 L777 154 Z M745 -24 C980 -24 1192 64 1381 241 C1570 418 1665 625 1666 864 C1666 1014 1610 1154 1499 1284 C1388 1414 1225 1479 1010 1479 C769 1479 556 1391 370 1214 C183 1037 90 830 90 592 C90 441 146 301 257 171 C368 41 531 -24 745 -24 L745 -24 Z M872 1891 L665 1891 L992 1584 L1130 1584 L872 1891 Z " />
<glyph glyph-name="Oacute" unicode="&#xd3;" horiz-adv-x="1756" d="M777 154 C618 154 497 204 415 303 C332 402 291 509 291 623 C291 804 361 963 501 1098 C640 1233 800 1301 979 1301 C1138 1301 1259 1252 1342 1153 C1424 1054 1465 947 1465 834 C1465 645 1392 484 1246 352 C1099 220 943 154 777 154 L777 154 Z M745 -24 C980 -24 1192 64 1381 241 C1570 418 1665 625 1666 864 C1666 1014 1610 1154 1499 1284 C1388 1414 1225 1479 1010 1479 C769 1479 556 1391 370 1214 C183 1037 90 830 90 592 C90 441 146 301 257 171 C368 41 531 -24 745 -24 L745 -24 Z M1290 1891 L1084 1891 L825 1584 L963 1584 L1290 1891 Z " />
<glyph glyph-name="Ocircumflex" unicode="&#xd4;" horiz-adv-x="1756" d="M777 154 C618 154 497 204 415 303 C332 402 291 509 291 623 C291 804 361 963 501 1098 C640 1233 800 1301 979 1301 C1138 1301 1259 1252 1342 1153 C1424 1054 1465 947 1465 834 C1465 645 1392 484 1246 352 C1099 220 943 154 777 154 L777 154 Z M745 -24 C980 -24 1192 64 1381 241 C1570 418 1665 625 1666 864 C1666 1014 1610 1154 1499 1284 C1388 1414 1225 1479 1010 1479 C769 1479 556 1391 370 1214 C183 1037 90 830 90 592 C90 441 146 301 257 171 C368 41 531 -24 745 -24 L745 -24 Z M1137 1911 L981 1911 L659 1604 L796 1604 L1052 1817 L1234 1604 L1350 1604 L1137 1911 Z " />
<glyph glyph-name="Otilde" unicode="&#xd5;" horiz-adv-x="1756" d="M777 154 C618 154 497 204 415 303 C332 402 291 509 291 623 C291 804 361 963 501 1098 C640 1233 800 1301 979 1301 C1138 1301 1259 1252 1342 1153 C1424 1054 1465 947 1465 834 C1465 645 1392 484 1246 352 C1099 220 943 154 777 154 L777 154 Z M745 -24 C980 -24 1192 64 1381 241 C1570 418 1665 625 1666 864 C1666 1014 1610 1154 1499 1284 C1388 1414 1225 1479 1010 1479 C769 1479 556 1391 370 1214 C183 1037 90 830 90 592 C90 441 146 301 257 171 C368 41 531 -24 745 -24 L745 -24 Z M1185 1641 C1288 1641 1360 1692 1402 1794 L1307 1848 C1288 1788 1245 1758 1180 1758 C1153 1758 1107 1777 1040 1816 C973 1855 919 1874 876 1874 C773 1874 702 1822 662 1718 L754 1666 C773 1726 816 1756 881 1756 C908 1756 954 1737 1021 1699 C1087 1660 1142 1641 1185 1641 L1185 1641 Z " />
<glyph glyph-name="Odieresis" unicode="&#xd6;" horiz-adv-x="1756" d="M777 154 C618 154 497 204 415 303 C332 402 291 509 291 623 C291 804 361 963 501 1098 C640 1233 800 1301 979 1301 C1138 1301 1259 1252 1342 1153 C1424 1054 1465 947 1465 834 C1465 645 1392 484 1246 352 C1099 220 943 154 777 154 L777 154 Z M745 -24 C980 -24 1192 64 1381 241 C1570 418 1665 625 1666 864 C1666 1014 1610 1154 1499 1284 C1388 1414 1225 1479 1010 1479 C769 1479 556 1391 370 1214 C183 1037 90 830 90 592 C90 441 146 301 257 171 C368 41 531 -24 745 -24 L745 -24 Z M840 1658 C868 1658 895 1669 921 1691 C947 1712 960 1740 960 1775 C960 1815 931 1856 875 1856 C847 1856 820 1845 794 1824 C768 1802 755 1774 755 1739 C755 1699 784 1658 840 1658 L840 1658 Z M1190 1658 C1218 1658 1245 1669 1272 1691 C1298 1713 1311 1741 1311 1774 C1311 1814 1281 1856 1225 1856 C1198 1856 1171 1845 1145 1823 C1118 1801 1105 1773 1105 1739 C1105 1699 1135 1658 1190 1658 L1190 1658 Z " />
<glyph glyph-name="multiply" unicode="&#xd7;" horiz-adv-x="1310" d="M1047 389 L761 729 L1167 1069 L1078 1175 L673 835 L388 1175 L262 1069 L548 729 L142 389 L231 284 L636 624 L921 284 L1047 389 Z " />
<glyph glyph-name="Oslash" unicode="&#xd8;" horiz-adv-x="1755" d="M746 -24 C980 -24 1192 63 1381 236 C1570 409 1664 619 1665 864 C1665 1061 1586 1222 1427 1348 L1528 1481 L1375 1481 L1323 1413 C1232 1457 1128 1479 1011 1479 C776 1479 564 1392 375 1219 C185 1046 90 836 90 591 C90 394 169 233 327 108 L228 -23 L381 -23 L431 43 C522 -2 627 -24 746 -24 L746 -24 Z M450 268 C343 363 290 481 290 622 C290 797 358 954 495 1093 C632 1232 793 1301 979 1301 C1062 1301 1137 1286 1202 1255 L450 268 Z M777 154 C692 154 617 170 552 201 L1305 1188 C1412 1093 1465 975 1465 834 C1465 645 1392 484 1246 352 C1099 220 943 154 777 154 L777 154 Z " />
<glyph glyph-name="Ugrave" unicode="&#xd9;" horiz-adv-x="1544" d="M640 -24 C809 -24 955 17 1078 98 C1201 179 1273 281 1294 405 L1480 1457 L1282 1457 L1101 434 C1086 344 1036 274 952 225 C868 175 774 150 670 150 C563 150 480 174 422 223 C364 272 335 328 335 391 C335 394 339 419 347 465 L520 1457 L322 1457 L136 405 C133 384 131 364 131 344 C131 254 173 170 256 93 C339 15 467 -24 640 -24 L640 -24 Z M729 1891 L522 1891 L849 1584 L987 1584 L729 1891 Z " />
<glyph glyph-name="Uacute" unicode="&#xda;" horiz-adv-x="1544" d="M640 -24 C809 -24 955 17 1078 98 C1201 179 1273 281 1294 405 L1480 1457 L1282 1457 L1101 434 C1086 344 1036 274 952 225 C868 175 774 150 670 150 C563 150 480 174 422 223 C364 272 335 328 335 391 C335 394 339 419 347 465 L520 1457 L322 1457 L136 405 C133 384 131 364 131 344 C131 254 173 170 256 93 C339 15 467 -24 640 -24 L640 -24 Z M1147 1891 L941 1891 L682 1584 L820 1584 L1147 1891 Z " />
<glyph glyph-name="Ucircumflex" unicode="&#xdb;" horiz-adv-x="1544" d="M640 -24 C809 -24 955 17 1078 98 C1201 179 1273 281 1294 405 L1480 1457 L1282 1457 L1101 434 C1086 344 1036 274 952 225 C868 175 774 150 670 150 C563 150 480 174 422 223 C364 272 335 328 335 391 C335 394 339 419 347 465 L520 1457 L322 1457 L136 405 C133 384 131 364 131 344 C131 254 173 170 256 93 C339 15 467 -24 640 -24 L640 -24 Z M994 1911 L838 1911 L516 1604 L653 1604 L909 1817 L1091 1604 L1207 1604 L994 1911 Z " />
<glyph glyph-name="Udieresis" unicode="&#xdc;" horiz-adv-x="1544" d="M640 -24 C809 -24 955 17 1078 98 C1201 179 1273 281 1294 405 L1480 1457 L1282 1457 L1101 434 C1086 344 1036 274 952 225 C868 175 774 150 670 150 C563 150 480 174 422 223 C364 272 335 328 335 391 C335 394 339 419 347 465 L520 1457 L322 1457 L136 405 C133 384 131 364 131 344 C131 254 173 170 256 93 C339 15 467 -24 640 -24 L640 -24 Z M696 1658 C724 1658 751 1669 777 1691 C803 1712 816 1740 816 1775 C816 1815 787 1856 731 1856 C703 1856 676 1845 650 1824 C624 1802 611 1774 611 1739 C611 1699 640 1658 696 1658 L696 1658 Z M1046 1658 C1074 1658 1101 1669 1128 1691 C1154 1713 1167 1741 1167 1774 C1167 1814 1137 1856 1081 1856 C1054 1856 1027 1845 1001 1823 C974 1801 961 1773 961 1739 C961 1699 991 1658 1046 1658 L1046 1658 Z " />
<glyph glyph-name="Yacute" unicode="&#xdd;" horiz-adv-x="1428" d="M807 691 L1510 1457 L1241 1457 L726 886 L412 1457 L175 1457 L608 691 L486 -2 L684 -2 L807 691 Z M1129 1891 L923 1891 L664 1584 L802 1584 L1129 1891 Z " />
<glyph glyph-name="Thorn" unicode="&#xde;" horiz-adv-x="1388" d="M347 479 L447 1043 L840 1043 C919 1043 983 1024 1032 985 C1080 946 1104 894 1104 829 C1103 717 1068 631 1001 570 C934 509 847 479 741 479 L347 479 Z M318 311 L723 311 C882 311 1019 362 1132 463 C1245 564 1301 695 1301 858 C1301 957 1269 1036 1204 1095 C1119 1172 1011 1211 881 1211 L476 1211 L520 1458 L322 1458 L64 -2 L263 -2 L318 311 Z " />
<glyph glyph-name="germandbls" unicode="&#xdf;" horiz-adv-x="1315" d="M636 -23 C779 -23 903 29 1007 133 C1111 237 1163 349 1163 468 C1163 531 1141 591 1098 648 C1054 704 992 739 913 753 C974 780 1030 830 1083 903 C1136 975 1162 1052 1162 1134 C1162 1221 1127 1300 1057 1373 C987 1445 887 1481 756 1481 C630 1481 514 1442 409 1365 C303 1287 238 1186 214 1063 L26 -2 L224 -2 L411 1058 C424 1127 462 1187 525 1238 C588 1288 656 1313 727 1313 C796 1313 852 1291 895 1246 C937 1201 958 1152 958 1097 C958 1014 925 942 860 883 C794 824 726 794 657 794 L518 794 L490 636 L743 636 C810 636 863 617 903 578 C943 539 963 495 963 446 C963 371 933 303 873 240 C812 177 742 145 661 145 C554 145 474 172 420 226 L350 73 C412 9 507 -23 636 -23 L636 -23 Z " />
<glyph glyph-name="agrave" unicode="&#xe0;" horiz-adv-x="1216" d="M440 144 C376 144 323 155 280 178 C237 201 215 234 215 278 C215 341 242 387 295 418 C348 449 411 464 485 464 L822 464 C814 417 806 370 798 324 C789 277 750 236 681 199 C612 162 531 144 440 144 L440 144 Z M353 -23 C548 -23 691 36 783 153 L755 -1 L933 -1 L1062 727 C1066 751 1068 774 1068 796 C1068 887 1027 958 945 1009 C863 1060 763 1085 645 1085 C487 1085 339 1032 200 926 L301 808 C404 883 505 920 605 920 C682 920 745 903 795 870 C845 836 870 795 870 748 C870 739 863 694 849 614 L509 614 C382 614 268 581 167 514 C66 447 16 355 16 237 C16 163 48 101 113 52 C178 2 258 -23 353 -23 L353 -23 Z M579 1492 L372 1492 L699 1185 L837 1185 L579 1492 Z " />
<glyph glyph-name="aacute" unicode="&#xe1;" horiz-adv-x="1216" d="M440 144 C376 144 323 155 280 178 C237 201 215 234 215 278 C215 341 242 387 295 418 C348 449 411 464 485 464 L822 464 C814 417 806 370 798 324 C789 277 750 236 681 199 C612 162 531 144 440 144 L440 144 Z M353 -23 C548 -23 691 36 783 153 L755 -1 L933 -1 L1062 727 C1066 751 1068 774 1068 796 C1068 887 1027 958 945 1009 C863 1060 763 1085 645 1085 C487 1085 339 1032 200 926 L301 808 C404 883 505 920 605 920 C682 920 745 903 795 870 C845 836 870 795 870 748 C870 739 863 694 849 614 L509 614 C382 614 268 581 167 514 C66 447 16 355 16 237 C16 163 48 101 113 52 C178 2 258 -23 353 -23 L353 -23 Z M997 1492 L791 1492 L532 1185 L670 1185 L997 1492 Z " />
<glyph glyph-name="acircumflex" unicode="&#xe2;" horiz-adv-x="1216" d="M440 144 C376 144 323 155 280 178 C237 201 215 234 215 278 C215 341 242 387 295 418 C348 449 411 464 485 464 L822 464 C814 417 806 370 798 324 C789 277 750 236 681 199 C612 162 531 144 440 144 L440 144 Z M353 -23 C548 -23 691 36 783 153 L755 -1 L933 -1 L1062 727 C1066 751 1068 774 1068 796 C1068 887 1027 958 945 1009 C863 1060 763 1085 645 1085 C487 1085 339 1032 200 926 L301 808 C404 883 505 920 605 920 C682 920 745 903 795 870 C845 836 870 795 870 748 C870 739 863 694 849 614 L509 614 C382 614 268 581 167 514 C66 447 16 355 16 237 C16 163 48 101 113 52 C178 2 258 -23 353 -23 L353 -23 Z M794 1512 L638 1512 L316 1205 L453 1205 L709 1418 L891 1205 L1007 1205 L794 1512 Z " />
<glyph glyph-name="atilde" unicode="&#xe3;" horiz-adv-x="1216" d="M440 144 C376 144 323 155 280 178 C237 201 215 234 215 278 C215 341 242 387 295 418 C348 449 411 464 485 464 L822 464 C814 417 806 370 798 324 C789 277 750 236 681 199 C612 162 531 144 440 144 L440 144 Z M353 -23 C548 -23 691 36 783 153 L755 -1 L933 -1 L1062 727 C1066 751 1068 774 1068 796 C1068 887 1027 958 945 1009 C863 1060 763 1085 645 1085 C487 1085 339 1032 200 926 L301 808 C404 883 505 920 605 920 C682 920 745 903 795 870 C845 836 870 795 870 748 C870 739 863 694 849 614 L509 614 C382 614 268 581 167 514 C66 447 16 355 16 237 C16 163 48 101 113 52 C178 2 258 -23 353 -23 L353 -23 Z M842 1242 C945 1242 1017 1293 1059 1395 L964 1449 C945 1389 902 1359 837 1359 C810 1359 764 1378 697 1417 C630 1456 576 1475 533 1475 C430 1475 359 1423 319 1319 L411 1267 C430 1327 473 1357 538 1357 C565 1357 611 1338 678 1300 C744 1261 799 1242 842 1242 L842 1242 Z " />
<glyph glyph-name="adieresis" unicode="&#xe4;" horiz-adv-x="1216" d="M440 144 C376 144 323 155 280 178 C237 201 215 234 215 278 C215 341 242 387 295 418 C348 449 411 464 485 464 L822 464 C814 417 806 370 798 324 C789 277 750 236 681 199 C612 162 531 144 440 144 L440 144 Z M353 -23 C548 -23 691 36 783 153 L755 -1 L933 -1 L1062 727 C1066 751 1068 774 1068 796 C1068 887 1027 958 945 1009 C863 1060 763 1085 645 1085 C487 1085 339 1032 200 926 L301 808 C404 883 505 920 605 920 C682 920 745 903 795 870 C845 836 870 795 870 748 C870 739 863 694 849 614 L509 614 C382 614 268 581 167 514 C66 447 16 355 16 237 C16 163 48 101 113 52 C178 2 258 -23 353 -23 L353 -23 Z M496 1259 C524 1259 551 1270 577 1292 C603 1313 616 1341 616 1376 C616 1416 587 1457 531 1457 C503 1457 476 1446 450 1425 C424 1403 411 1375 411 1340 C411 1300 440 1259 496 1259 L496 1259 Z M846 1259 C874 1259 901 1270 928 1292 C954 1314 967 1342 967 1375 C967 1415 937 1457 881 1457 C854 1457 827 1446 801 1424 C774 1402 761 1374 761 1340 C761 1300 791 1259 846 1259 L846 1259 Z " />
<glyph glyph-name="aring" unicode="&#xe5;" horiz-adv-x="1216" d="M440 144 C376 144 323 155 280 178 C237 201 215 234 215 278 C215 341 242 387 295 418 C348 449 411 464 485 464 L822 464 C814 417 806 370 798 324 C789 277 750 236 681 199 C612 162 531 144 440 144 L440 144 Z M353 -23 C548 -23 691 36 783 153 L755 -1 L933 -1 L1062 727 C1066 751 1068 774 1068 796 C1068 887 1027 958 945 1009 C863 1060 763 1085 645 1085 C487 1085 339 1032 200 926 L301 808 C404 883 505 920 605 920 C682 920 745 903 795 870 C845 836 870 795 870 748 C870 739 863 694 849 614 L509 614 C382 614 268 581 167 514 C66 447 16 355 16 237 C16 163 48 101 113 52 C178 2 258 -23 353 -23 L353 -23 Z M670 1248 C607 1248 575 1294 575 1338 C575 1377 590 1408 619 1433 C648 1457 678 1469 709 1469 C770 1469 803 1423 803 1378 C803 1340 789 1309 760 1285 C731 1260 701 1248 670 1248 L670 1248 Z M653 1155 C710 1155 766 1177 819 1222 C872 1267 899 1325 899 1396 C899 1437 884 1475 855 1510 C826 1545 782 1562 725 1562 C668 1562 612 1540 559 1495 C506 1450 479 1392 479 1321 C479 1280 494 1243 524 1208 C553 1173 596 1155 653 1155 L653 1155 Z " />
<glyph glyph-name="ae" unicode="&#xe6;" horiz-adv-x="1984" d="M1049 614 L1071 740 C1153 870 1270 935 1423 935 C1530 935 1606 907 1651 851 C1695 794 1717 725 1717 643 L1716 614 L1049 614 Z M1294 -24 C1435 -24 1577 21 1719 111 L1629 239 C1529 173 1427 140 1323 140 C1160 140 1053 208 1002 343 C1011 394 1018 434 1024 463 L1874 463 C1893 518 1903 579 1903 647 C1903 754 1868 853 1798 946 C1728 1039 1612 1085 1450 1085 C1285 1085 1143 1026 1024 907 C995 966 945 1011 872 1041 C799 1070 717 1085 625 1085 C476 1085 334 1032 199 925 L301 807 C403 882 505 920 606 920 C681 920 744 903 795 870 C845 836 870 795 870 748 C870 738 863 693 848 614 L510 614 C383 614 269 582 169 519 C68 456 18 362 17 237 C17 163 49 101 114 52 C179 2 259 -23 354 -23 C557 -23 727 49 866 194 C958 49 1101 -24 1294 -24 L1294 -24 Z M440 144 C377 144 324 155 281 178 C238 201 216 234 216 278 C216 341 243 387 296 418 C349 449 412 464 486 464 L823 464 C815 417 807 370 799 324 C790 277 751 236 682 199 C613 162 532 144 440 144 L440 144 Z " />
<glyph glyph-name="ccedilla" unicode="&#xe7;" horiz-adv-x="1185" d="M353 -410 C415 -410 477 -395 539 -366 C601 -336 632 -287 632 -219 C632 -145 576 -106 463 -103 L527 -23 L559 -24 C701 -24 835 21 962 110 L872 240 C790 175 697 142 594 142 C485 142 402 175 343 241 C284 306 254 379 254 459 C254 578 301 684 396 778 C491 872 602 919 731 919 C835 919 916 886 975 821 L1111 951 C1016 1040 897 1085 754 1085 C565 1085 401 1021 262 893 C123 764 53 607 53 420 C53 311 90 218 164 139 C237 60 325 10 427 -11 L346 -120 L335 -181 L391 -181 C456 -181 488 -199 488 -236 C488 -268 473 -291 444 -304 C415 -317 388 -324 365 -324 C319 -324 276 -310 236 -283 L177 -358 C222 -393 281 -410 353 -410 L353 -410 Z " />
<glyph glyph-name="egrave" unicode="&#xe8;" horiz-adv-x="1247" d="M273 614 C294 699 342 773 417 838 C492 903 581 935 686 935 C883 935 978 845 978 614 L273 614 Z M556 -24 C697 -24 839 21 981 111 L891 239 C784 173 682 140 585 140 C476 140 393 171 335 232 C276 293 247 360 247 434 L248 463 L1136 463 C1155 519 1165 580 1165 646 C1165 753 1130 853 1060 946 C990 1039 874 1085 712 1085 C534 1085 380 1021 251 893 C122 764 57 611 56 434 C56 319 98 214 182 119 C266 24 391 -24 556 -24 L556 -24 Z M642 1492 L435 1492 L762 1185 L900 1185 L642 1492 Z " />
<glyph glyph-name="eacute" unicode="&#xe9;" horiz-adv-x="1247" d="M273 614 C294 699 342 773 417 838 C492 903 581 935 686 935 C883 935 978 845 978 614 L273 614 Z M556 -24 C697 -24 839 21 981 111 L891 239 C784 173 682 140 585 140 C476 140 393 171 335 232 C276 293 247 360 247 434 L248 463 L1136 463 C1155 519 1165 580 1165 646 C1165 753 1130 853 1060 946 C990 1039 874 1085 712 1085 C534 1085 380 1021 251 893 C122 764 57 611 56 434 C56 319 98 214 182 119 C266 24 391 -24 556 -24 L556 -24 Z M1060 1492 L854 1492 L595 1185 L733 1185 L1060 1492 Z " />
<glyph glyph-name="ecircumflex" unicode="&#xea;" horiz-adv-x="1247" d="M273 614 C294 699 342 773 417 838 C492 903 581 935 686 935 C883 935 978 845 978 614 L273 614 Z M556 -24 C697 -24 839 21 981 111 L891 239 C784 173 682 140 585 140 C476 140 393 171 335 232 C276 293 247 360 247 434 L248 463 L1136 463 C1155 519 1165 580 1165 646 C1165 753 1130 853 1060 946 C990 1039 874 1085 712 1085 C534 1085 380 1021 251 893 C122 764 57 611 56 434 C56 319 98 214 182 119 C266 24 391 -24 556 -24 L556 -24 Z M857 1512 L701 1512 L379 1205 L516 1205 L772 1418 L954 1205 L1070 1205 L857 1512 Z " />
<glyph glyph-name="edieresis" unicode="&#xeb;" horiz-adv-x="1247" d="M273 614 C294 699 342 773 417 838 C492 903 581 935 686 935 C883 935 978 845 978 614 L273 614 Z M556 -24 C697 -24 839 21 981 111 L891 239 C784 173 682 140 585 140 C476 140 393 171 335 232 C276 293 247 360 247 434 L248 463 L1136 463 C1155 519 1165 580 1165 646 C1165 753 1130 853 1060 946 C990 1039 874 1085 712 1085 C534 1085 380 1021 251 893 C122 764 57 611 56 434 C56 319 98 214 182 119 C266 24 391 -24 556 -24 L556 -24 Z M559 1259 C587 1259 614 1270 640 1292 C666 1313 679 1341 679 1376 C679 1416 650 1457 594 1457 C566 1457 539 1446 513 1425 C487 1403 474 1375 474 1340 C474 1300 503 1259 559 1259 L559 1259 Z M909 1259 C937 1259 964 1270 991 1292 C1017 1314 1030 1342 1030 1375 C1030 1415 1000 1457 944 1457 C917 1457 890 1446 864 1424 C837 1402 824 1374 824 1340 C824 1300 854 1259 909 1259 L909 1259 Z " />
<glyph glyph-name="igrave" unicode="&#xec;" horiz-adv-x="502" d="M409 1063 L215 1063 L28 -1 L222 -1 L409 1063 Z M271 1492 L64 1492 L391 1185 L529 1185 L271 1492 Z " />
<glyph glyph-name="iacute" unicode="&#xed;" horiz-adv-x="502" d="M409 1063 L215 1063 L28 -1 L222 -1 L409 1063 Z M664 1492 L458 1492 L199 1185 L337 1185 L664 1492 Z " />
<glyph glyph-name="icircumflex" unicode="&#xee;" horiz-adv-x="502" d="M409 1063 L215 1063 L28 -1 L222 -1 L409 1063 Z M453 1512 L297 1512 L-25 1205 L112 1205 L368 1418 L550 1205 L666 1205 L453 1512 Z " />
<glyph glyph-name="idieresis" unicode="&#xef;" horiz-adv-x="502" d="M409 1063 L215 1063 L28 -1 L222 -1 L409 1063 Z M156 1259 C184 1259 211 1270 237 1292 C263 1313 276 1341 276 1376 C276 1416 247 1457 191 1457 C163 1457 136 1446 110 1425 C84 1403 71 1375 71 1340 C71 1300 100 1259 156 1259 L156 1259 Z M506 1259 C534 1259 561 1270 588 1292 C614 1314 627 1342 627 1375 C627 1415 597 1457 541 1457 C514 1457 487 1446 461 1424 C434 1402 421 1374 421 1340 C421 1300 451 1259 506 1259 L506 1259 Z " />
<glyph glyph-name="eth" unicode="&#xf0;" horiz-adv-x="1338" d="M566 143 C462 143 383 176 330 243 C277 309 250 380 250 456 C250 573 295 680 384 776 C473 871 579 919 703 919 C807 919 886 886 939 820 C992 753 1019 682 1019 606 C1018 475 969 366 870 277 C771 188 670 143 566 143 L566 143 Z M537 -23 C701 -23 857 41 1004 170 C1151 298 1225 493 1226 754 C1226 953 1177 1139 1079 1314 L1295 1384 L1317 1506 L1024 1414 C999 1451 971 1484 941 1514 L755 1458 C779 1437 808 1405 842 1364 L616 1291 L594 1169 L916 1269 C987 1167 1030 1050 1045 919 C977 1030 873 1085 732 1085 C555 1085 397 1019 260 888 C123 757 54 605 54 432 C54 321 95 218 177 122 C259 25 379 -23 537 -23 L537 -23 Z " />
<glyph glyph-name="ntilde" unicode="&#xf1;" horiz-adv-x="1358" d="M1189 649 C1194 682 1197 713 1197 742 C1197 833 1167 913 1107 982 C1046 1051 951 1085 822 1085 C645 1085 498 1010 381 860 L417 1063 L237 1063 L50 -1 L243 -1 L351 613 C366 702 411 775 486 833 C560 891 645 920 740 920 C826 920 891 898 935 855 C978 811 1000 758 1000 697 C1000 678 999 662 996 647 L882 -1 L1076 -1 L1189 649 Z M951 1242 C1054 1242 1126 1293 1168 1395 L1073 1449 C1054 1389 1011 1359 946 1359 C919 1359 873 1378 806 1417 C739 1456 685 1475 642 1475 C539 1475 468 1423 428 1319 L520 1267 C539 1327 582 1357 647 1357 C674 1357 720 1338 787 1300 C853 1261 908 1242 951 1242 L951 1242 Z " />
<glyph glyph-name="ograve" unicode="&#xf2;" horiz-adv-x="1338" d="M566 143 C461 143 382 176 329 243 C276 310 249 381 249 458 C249 574 295 680 388 776 C480 872 585 920 703 920 C807 920 886 887 939 820 C992 753 1019 682 1019 606 C1018 475 970 366 875 277 C780 188 677 143 566 143 L566 143 Z M537 -23 C708 -23 863 41 1004 170 C1144 298 1214 452 1214 632 C1214 743 1173 846 1092 942 C1010 1037 890 1085 732 1085 C561 1085 405 1021 265 893 C124 765 54 611 54 431 C54 321 95 218 177 122 C259 25 379 -23 537 -23 L537 -23 Z M667 1492 L460 1492 L787 1185 L925 1185 L667 1492 Z " />
<glyph glyph-name="oacute" unicode="&#xf3;" horiz-adv-x="1338" d="M566 143 C461 143 382 176 329 243 C276 310 249 381 249 458 C249 574 295 680 388 776 C480 872 585 920 703 920 C807 920 886 887 939 820 C992 753 1019 682 1019 606 C1018 475 970 366 875 277 C780 188 677 143 566 143 L566 143 Z M537 -23 C708 -23 863 41 1004 170 C1144 298 1214 452 1214 632 C1214 743 1173 846 1092 942 C1010 1037 890 1085 732 1085 C561 1085 405 1021 265 893 C124 765 54 611 54 431 C54 321 95 218 177 122 C259 25 379 -23 537 -23 L537 -23 Z M1085 1492 L879 1492 L620 1185 L758 1185 L1085 1492 Z " />
<glyph glyph-name="ocircumflex" unicode="&#xf4;" horiz-adv-x="1338" d="M566 143 C461 143 382 176 329 243 C276 310 249 381 249 458 C249 574 295 680 388 776 C480 872 585 920 703 920 C807 920 886 887 939 820 C992 753 1019 682 1019 606 C1018 475 970 366 875 277 C780 188 677 143 566 143 L566 143 Z M537 -23 C708 -23 863 41 1004 170 C1144 298 1214 452 1214 632 C1214 743 1173 846 1092 942 C1010 1037 890 1085 732 1085 C561 1085 405 1021 265 893 C124 765 54 611 54 431 C54 321 95 218 177 122 C259 25 379 -23 537 -23 L537 -23 Z M882 1512 L726 1512 L404 1205 L541 1205 L797 1418 L979 1205 L1095 1205 L882 1512 Z " />
<glyph glyph-name="otilde" unicode="&#xf5;" horiz-adv-x="1338" d="M566 143 C461 143 382 176 329 243 C276 310 249 381 249 458 C249 574 295 680 388 776 C480 872 585 920 703 920 C807 920 886 887 939 820 C992 753 1019 682 1019 606 C1018 475 970 366 875 277 C780 188 677 143 566 143 L566 143 Z M537 -23 C708 -23 863 41 1004 170 C1144 298 1214 452 1214 632 C1214 743 1173 846 1092 942 C1010 1037 890 1085 732 1085 C561 1085 405 1021 265 893 C124 765 54 611 54 431 C54 321 95 218 177 122 C259 25 379 -23 537 -23 L537 -23 Z M929 1242 C1032 1242 1104 1293 1146 1395 L1051 1449 C1032 1389 989 1359 924 1359 C897 1359 851 1378 784 1417 C717 1456 663 1475 620 1475 C517 1475 446 1423 406 1319 L498 1267 C517 1327 560 1357 625 1357 C652 1357 698 1338 765 1300 C831 1261 886 1242 929 1242 L929 1242 Z " />
<glyph glyph-name="odieresis" unicode="&#xf6;" horiz-adv-x="1338" d="M566 143 C461 143 382 176 329 243 C276 310 249 381 249 458 C249 574 295 680 388 776 C480 872 585 920 703 920 C807 920 886 887 939 820 C992 753 1019 682 1019 606 C1018 475 970 366 875 277 C780 188 677 143 566 143 L566 143 Z M537 -23 C708 -23 863 41 1004 170 C1144 298 1214 452 1214 632 C1214 743 1173 846 1092 942 C1010 1037 890 1085 732 1085 C561 1085 405 1021 265 893 C124 765 54 611 54 431 C54 321 95 218 177 122 C259 25 379 -23 537 -23 L537 -23 Z M584 1259 C612 1259 639 1270 665 1292 C691 1313 704 1341 704 1376 C704 1416 675 1457 619 1457 C591 1457 564 1446 538 1425 C512 1403 499 1375 499 1340 C499 1300 528 1259 584 1259 L584 1259 Z M934 1259 C962 1259 989 1270 1016 1292 C1042 1314 1055 1342 1055 1375 C1055 1415 1025 1457 969 1457 C942 1457 915 1446 889 1424 C862 1402 849 1374 849 1340 C849 1300 879 1259 934 1259 L934 1259 Z " />
<glyph glyph-name="divide" unicode="&#xf7;" horiz-adv-x="1310" d="M1155 795 L179 795 L156 663 L1132 663 L1155 795 Z M580 300 C608 300 635 311 662 333 C688 354 701 383 701 418 C701 458 671 500 615 500 C587 500 560 489 534 467 C507 444 494 415 494 380 C494 341 523 300 580 300 L580 300 Z M696 959 C724 959 751 970 778 993 C804 1015 817 1043 817 1078 C817 1117 787 1159 731 1159 C703 1159 676 1148 650 1126 C623 1104 610 1076 610 1041 C610 1001 640 959 696 959 L696 959 Z " />
<glyph glyph-name="oslash" unicode="&#xf8;" horiz-adv-x="1339" d="M537 -23 C708 -23 863 41 1004 170 C1144 298 1214 452 1215 632 C1215 756 1171 862 1084 949 L1206 1086 L1052 1086 L994 1020 C920 1064 833 1086 732 1086 C555 1086 397 1020 260 889 C123 757 54 605 54 432 C54 308 98 202 186 113 L65 -23 L218 -23 L276 43 C350 -1 437 -23 537 -23 L537 -23 Z M314 256 C264 315 239 384 239 462 C240 582 288 688 383 781 C478 874 585 920 703 920 C765 920 820 906 868 879 L314 256 Z M566 143 C504 143 449 156 401 183 L956 806 C1006 747 1031 680 1031 603 C1030 475 978 366 876 277 C773 188 670 143 566 143 L566 143 Z " />
<glyph glyph-name="ugrave" unicode="&#xf9;" horiz-adv-x="1339" d="M465 -25 C642 -25 784 50 889 200 L854 -2 L1034 -2 L1221 1062 L1028 1062 L920 448 C904 359 860 286 789 228 C718 170 634 141 539 141 C453 141 390 163 349 206 C308 249 288 300 288 359 C288 376 289 395 292 414 L406 1062 L213 1062 L98 411 C93 380 90 350 90 321 C90 229 120 148 181 79 C241 10 336 -25 465 -25 L465 -25 Z M657 1492 L450 1492 L777 1185 L915 1185 L657 1492 Z " />
<glyph glyph-name="uacute" unicode="&#xfa;" horiz-adv-x="1339" d="M465 -25 C642 -25 784 50 889 200 L854 -2 L1034 -2 L1221 1062 L1028 1062 L920 448 C904 359 860 286 789 228 C718 170 634 141 539 141 C453 141 390 163 349 206 C308 249 288 300 288 359 C288 376 289 395 292 414 L406 1062 L213 1062 L98 411 C93 380 90 350 90 321 C90 229 120 148 181 79 C241 10 336 -25 465 -25 L465 -25 Z M1075 1492 L869 1492 L610 1185 L748 1185 L1075 1492 Z " />
<glyph glyph-name="ucircumflex" unicode="&#xfb;" horiz-adv-x="1339" d="M465 -25 C642 -25 784 50 889 200 L854 -2 L1034 -2 L1221 1062 L1028 1062 L920 448 C904 359 860 286 789 228 C718 170 634 141 539 141 C453 141 390 163 349 206 C308 249 288 300 288 359 C288 376 289 395 292 414 L406 1062 L213 1062 L98 411 C93 380 90 350 90 321 C90 229 120 148 181 79 C241 10 336 -25 465 -25 L465 -25 Z M852 1512 L696 1512 L374 1205 L511 1205 L767 1418 L949 1205 L1065 1205 L852 1512 Z " />
<glyph glyph-name="udieresis" unicode="&#xfc;" horiz-adv-x="1339" d="M465 -25 C642 -25 784 50 889 200 L854 -2 L1034 -2 L1221 1062 L1028 1062 L920 448 C904 359 860 286 789 228 C718 170 634 141 539 141 C453 141 390 163 349 206 C308 249 288 300 288 359 C288 376 289 395 292 414 L406 1062 L213 1062 L98 411 C93 380 90 350 90 321 C90 229 120 148 181 79 C241 10 336 -25 465 -25 L465 -25 Z M554 1259 C582 1259 609 1270 635 1292 C661 1313 674 1341 674 1376 C674 1416 645 1457 589 1457 C561 1457 534 1446 508 1425 C482 1403 469 1375 469 1340 C469 1300 498 1259 554 1259 L554 1259 Z M904 1259 C932 1259 959 1270 986 1292 C1012 1314 1025 1342 1025 1375 C1025 1415 995 1457 939 1457 C912 1457 885 1446 859 1424 C832 1402 819 1374 819 1340 C819 1300 849 1259 904 1259 L904 1259 Z " />
<glyph glyph-name="yacute" unicode="&#xfd;" horiz-adv-x="1134" d="M44 -428 C206 -428 334 -346 427 -183 L1165 1062 L936 1062 L485 262 L312 1062 L100 1062 L365 45 L245 -153 C201 -226 158 -277 71 -277 C21 -277 -22 -273 -58 -266 L-85 -417 C-41 -424 2 -428 44 -428 L44 -428 Z M991 1492 L785 1492 L526 1185 L664 1185 L991 1492 Z " />
<glyph glyph-name="thorn" unicode="&#xfe;" horiz-adv-x="1400" d="M618 142 C511 142 431 176 376 243 C321 310 294 382 294 459 C294 588 343 697 440 786 C537 875 642 919 755 919 C862 919 943 886 998 819 C1053 752 1080 680 1080 603 C1079 474 1029 365 929 276 C829 187 725 142 618 142 L618 142 Z M257 212 C332 55 455 -23 625 -23 C790 -23 940 41 1075 169 C1210 297 1277 453 1277 637 C1277 745 1239 847 1163 942 C1086 1037 972 1085 821 1085 C643 1085 487 1001 353 832 L463 1458 L283 1458 L-45 -405 L148 -405 L257 212 Z " />
<glyph glyph-name="ydieresis" unicode="&#xff;" horiz-adv-x="1134" d="M44 -428 C206 -428 334 -346 427 -183 L1165 1062 L936 1062 L485 262 L312 1062 L100 1062 L365 45 L245 -153 C201 -226 158 -277 71 -277 C21 -277 -22 -273 -58 -266 L-85 -417 C-41 -424 2 -428 44 -428 L44 -428 Z M471 1259 C499 1259 526 1270 552 1292 C578 1313 591 1341 591 1376 C591 1416 562 1457 506 1457 C478 1457 451 1446 425 1425 C399 1403 386 1375 386 1340 C386 1300 415 1259 471 1259 L471 1259 Z M821 1259 C849 1259 876 1270 903 1292 C929 1314 942 1342 942 1375 C942 1415 912 1457 856 1457 C829 1457 802 1446 776 1424 C749 1402 736 1374 736 1340 C736 1300 766 1259 821 1259 L821 1259 Z " />
<glyph glyph-name="dotlessi" unicode="&#x131;" horiz-adv-x="502" d="M407 1063 L213 1063 L26 -1 L220 -1 L407 1063 Z " />
<glyph glyph-name="Lslash" unicode="&#x141;" horiz-adv-x="1185" d="M1066 166 L292 166 L376 642 L885 905 L911 1056 L403 793 L520 1457 L321 1457 L184 680 L-68 550 L-94 399 L157 529 L64 -2 L1037 -2 L1066 166 Z " />
<glyph glyph-name="lslash" unicode="&#x142;" horiz-adv-x="534" d="M360 707 L615 839 L641 989 L387 857 L492 1457 L299 1457 L174 748 L-81 616 L-107 466 L148 598 L42 -2 L235 -2 L360 707 Z " />
<glyph glyph-name="OE" unicode="&#x152;" horiz-adv-x="2287" d="M777 154 C618 154 497 204 415 303 C332 402 291 509 291 623 C292 811 363 971 506 1103 C649 1235 806 1301 979 1301 C1109 1301 1209 1254 1280 1160 L1128 295 C1024 201 907 154 777 154 L777 154 Z M745 -24 C862 -24 975 -1 1084 45 L1075 -2 L2057 -2 L2087 167 L1303 167 L1388 648 L2052 648 L2079 806 L1416 806 L1501 1289 L2284 1289 L2314 1457 L1332 1457 L1324 1410 C1231 1456 1127 1479 1010 1479 C763 1479 548 1391 365 1214 C182 1037 90 830 90 592 C90 441 146 301 257 171 C368 41 531 -24 745 -24 L745 -24 Z " />
<glyph glyph-name="oe" unicode="&#x153;" horiz-adv-x="2210" d="M566 143 C462 143 383 177 330 244 C277 311 250 382 250 458 C251 581 297 688 389 781 C481 874 586 920 703 920 C808 920 887 887 940 820 C993 753 1020 681 1020 604 C1019 475 970 366 871 277 C772 188 671 143 566 143 L566 143 Z M1240 614 C1261 699 1309 773 1383 838 C1457 903 1546 935 1650 935 C1846 935 1944 837 1944 641 L1943 614 L1240 614 Z M1520 -23 C1662 -23 1804 22 1945 112 L1855 239 C1756 173 1654 140 1549 140 C1441 140 1358 171 1301 232 C1243 293 1214 360 1214 434 L1215 464 L2100 464 C2119 520 2129 581 2129 646 C2129 753 2094 853 2025 946 C1955 1039 1839 1085 1676 1085 C1461 1085 1289 988 1160 794 C1087 989 944 1086 733 1086 C555 1086 398 1022 261 894 C124 765 56 611 55 430 C55 320 96 217 178 121 C260 25 380 -23 537 -23 C751 -23 929 76 1072 273 C1145 76 1294 -23 1520 -23 L1520 -23 Z " />
<glyph glyph-name="Scaron" unicode="&#x160;" horiz-adv-x="1345" d="M562 -23 C743 -23 900 25 1033 120 C1165 215 1231 332 1231 472 C1231 617 1133 699 960 748 L586 862 C473 894 417 944 417 1025 C417 1110 458 1179 541 1230 C624 1281 711 1306 802 1306 C971 1306 1090 1249 1159 1135 L1324 1250 C1223 1404 1057 1481 827 1481 C674 1481 530 1436 395 1345 C260 1254 192 1131 192 976 C192 856 265 765 437 717 L816 601 C940 566 1009 523 1009 436 C1009 347 965 278 876 227 C787 176 692 151 593 151 C501 151 413 172 330 215 C246 258 191 313 166 381 L9 268 C42 179 112 108 219 56 C325 3 439 -23 562 -23 L562 -23 Z M1188 1911 L1051 1911 L794 1698 L613 1911 L496 1911 L710 1604 L866 1604 L1188 1911 Z " />
<glyph glyph-name="scaron" unicode="&#x161;" horiz-adv-x="1069" d="M396 -23 C515 -23 628 7 736 68 C843 128 897 218 897 339 C897 434 832 502 701 543 L413 640 C344 664 312 693 312 741 C312 799 340 845 395 878 C450 911 516 928 593 928 C674 928 769 896 876 832 L982 963 C870 1040 744 1078 604 1078 C478 1078 362 1044 257 977 C151 909 98 820 98 709 C98 613 154 547 265 511 L565 415 C642 392 685 363 685 308 C685 249 657 204 600 173 C543 141 477 125 401 125 C339 125 276 137 211 160 C146 183 94 215 54 256 L-49 128 C-7 76 57 38 142 14 C227 -11 312 -23 396 -23 L396 -23 Z M1036 1512 L899 1512 L642 1299 L461 1512 L344 1512 L558 1205 L714 1205 L1036 1512 Z " />
<glyph glyph-name="Ydieresis" unicode="&#x178;" horiz-adv-x="1428" d="M807 691 L1510 1457 L1241 1457 L726 886 L412 1457 L175 1457 L608 691 L486 -2 L684 -2 L807 691 Z M658 1658 C686 1658 713 1669 739 1691 C765 1712 778 1740 778 1775 C778 1815 749 1856 693 1856 C665 1856 638 1845 612 1824 C586 1802 573 1774 573 1739 C573 1699 602 1658 658 1658 L658 1658 Z M1008 1658 C1036 1658 1063 1669 1090 1691 C1116 1713 1129 1741 1129 1774 C1129 1814 1099 1856 1043 1856 C1016 1856 989 1845 963 1823 C936 1801 923 1773 923 1739 C923 1699 953 1658 1008 1658 L1008 1658 Z " />
<glyph glyph-name="Zcaron" unicode="&#x17d;" horiz-adv-x="1270" d="M1069 166 L282 166 L1277 1345 L1297 1457 L231 1457 L201 1289 L988 1289 L-7 111 L-27 -2 L1040 -2 L1069 166 Z M1117 1911 L980 1911 L723 1698 L542 1911 L425 1911 L639 1604 L795 1604 L1117 1911 Z " />
<glyph glyph-name="zcaron" unicode="&#x17e;" horiz-adv-x="1103" d="M903 151 L251 151 L1037 909 L1064 1062 L157 1062 L130 909 L782 909 L-4 151 L-31 -2 L876 -2 L903 151 Z M1034 1512 L897 1512 L640 1299 L459 1512 L342 1512 L556 1205 L712 1205 L1034 1512 Z " />
<glyph glyph-name="florin" unicode="&#x192;" horiz-adv-x="1232" d="M114 -426 C377 -426 530 -306 572 -65 L744 910 L1072 910 L1106 1063 L771 1063 L781 1116 C805 1257 895 1328 1052 1328 C1085 1328 1121 1324 1161 1317 L1188 1469 C1145 1476 1099 1480 1049 1480 C789 1478 637 1361 592 1128 L581 1063 L351 1063 L317 910 L554 910 L382 -65 C355 -204 264 -274 111 -274 C78 -274 42 -270 2 -263 L-25 -415 C18 -422 64 -426 114 -426 L114 -426 Z " />
<glyph glyph-name="circumflex" unicode="&#x2c6;" horiz-adv-x="935" d="M684 1512 L528 1512 L206 1205 L343 1205 L599 1418 L781 1205 L897 1205 L684 1512 Z " />
<glyph glyph-name="caron" unicode="&#x2c7;" horiz-adv-x="935" d="M952 1512 L815 1512 L558 1299 L377 1512 L260 1512 L474 1205 L630 1205 L952 1512 Z " />
<glyph glyph-name="uni02C9" unicode="&#x2c9;" horiz-adv-x="936" d="M898 1418 L282 1418 L261 1299 L877 1299 L898 1418 Z " />
<glyph glyph-name="breve" unicode="&#x2d8;" horiz-adv-x="934" d="M551 1205 C659 1205 744 1237 805 1302 C866 1367 903 1437 916 1512 L830 1512 C821 1461 792 1416 743 1378 C694 1339 637 1320 571 1320 C505 1320 456 1337 425 1372 C393 1406 377 1442 377 1481 C377 1491 378 1501 380 1512 L294 1512 C291 1493 289 1473 289 1454 C289 1401 306 1346 339 1290 C372 1233 442 1205 551 1205 L551 1205 Z " />
<glyph glyph-name="dotaccent" unicode="&#x2d9;" horiz-adv-x="935" d="M563 1259 C590 1259 617 1270 644 1292 C670 1314 683 1342 683 1375 C683 1415 653 1457 597 1457 C570 1457 543 1446 517 1424 C490 1402 477 1374 477 1340 C477 1300 507 1259 563 1259 L563 1259 Z " />
<glyph glyph-name="ring" unicode="&#x2da;" horiz-adv-x="935" d="M559 1248 C496 1248 464 1294 464 1338 C464 1377 479 1408 508 1433 C537 1457 567 1469 598 1469 C659 1469 692 1423 692 1378 C692 1340 678 1309 649 1285 C620 1260 590 1248 559 1248 L559 1248 Z M542 1155 C599 1155 655 1177 708 1222 C761 1267 788 1325 788 1396 C788 1437 773 1475 744 1510 C715 1545 671 1562 614 1562 C557 1562 501 1540 448 1495 C395 1450 368 1392 368 1321 C368 1280 383 1243 413 1208 C442 1173 485 1155 542 1155 L542 1155 Z " />
<glyph glyph-name="ogonek" unicode="&#x2db;" horiz-adv-x="935" d="M282 -410 C371 -409 442 -388 493 -345 L457 -270 C414 -306 363 -324 302 -324 C243 -324 214 -304 214 -264 C214 -189 286 -101 430 0 L306 0 C152 -93 75 -190 75 -291 C75 -370 144 -410 282 -410 L282 -410 Z " />
<glyph glyph-name="tilde" unicode="&#x2dc;" horiz-adv-x="934" d="M731 1242 C834 1242 906 1293 948 1395 L853 1449 C834 1389 791 1359 726 1359 C699 1359 653 1378 586 1417 C519 1456 465 1475 422 1475 C319 1475 248 1423 208 1319 L300 1267 C319 1327 362 1357 427 1357 C454 1357 500 1338 567 1300 C633 1261 688 1242 731 1242 L731 1242 Z " />
<glyph glyph-name="hungarumlaut" unicode="&#x2dd;" horiz-adv-x="935" d="M595 1493 L428 1493 L170 1185 L295 1185 L595 1493 Z M970 1493 L803 1493 L545 1185 L670 1185 L970 1493 Z " />
<glyph glyph-name="&amp;#x3a9;" unicode="&#x3a9;" horiz-adv-x="1573" d="M1373 178 L994 178 L1006 244 C1123 290 1234 370 1339 484 C1444 597 1496 751 1497 945 C1497 1084 1447 1207 1346 1316 C1245 1425 1103 1479 918 1479 C707 1479 519 1402 353 1249 C187 1096 104 905 104 678 C104 590 127 508 172 433 C217 357 291 294 396 244 L384 178 L5 178 L-26 0 L535 0 L588 304 C488 334 414 385 367 457 C319 528 295 606 295 690 C295 873 357 1021 481 1133 C605 1245 740 1301 887 1301 C1014 1301 1115 1262 1190 1183 C1265 1104 1303 1013 1303 908 C1303 745 1254 612 1157 508 C1059 403 951 336 834 305 L781 0 L1341 0 L1373 178 Z " />
<glyph glyph-name="&amp;#x2126;" unicode="&#x2126;" horiz-adv-x="1573" d="M1373 178 L994 178 L1006 244 C1123 290 1234 370 1339 484 C1444 597 1496 751 1497 945 C1497 1084 1447 1207 1346 1316 C1245 1425 1103 1479 918 1479 C707 1479 519 1402 353 1249 C187 1096 104 905 104 678 C104 590 127 508 172 433 C217 357 291 294 396 244 L384 178 L5 178 L-26 0 L535 0 L588 304 C488 334 414 385 367 457 C319 528 295 606 295 690 C295 873 357 1021 481 1133 C605 1245 740 1301 887 1301 C1014 1301 1115 1262 1190 1183 C1265 1104 1303 1013 1303 908 C1303 745 1254 612 1157 508 C1059 403 951 336 834 305 L781 0 L1341 0 L1373 178 Z " />
<glyph glyph-name="pi" unicode="&#x3c0;" horiz-adv-x="1430" d="M1069 -23 C1104 -23 1165 -14 1198 2 L1177 158 C1158 151 1140 147 1125 147 C1093 147 1076 171 1076 195 C1076 196 1078 206 1081 226 L1201 906 L1360 906 L1388 1063 L161 1063 L133 906 L292 906 L132 -2 L326 -2 L486 906 L1007 906 L880 182 C877 164 875 147 875 131 C875 28 940 -23 1069 -23 L1069 -23 Z " />
<glyph glyph-name="uni1E9E" unicode="&#x1e9e;" horiz-adv-x="1365" d="M708 -23 C843 -23 962 29 1063 133 C1164 237 1214 354 1214 485 C1214 562 1186 623 1131 670 C1076 717 1005 744 918 751 C831 758 766 761 723 761 L1213 1189 C1149 1384 1011 1481 800 1481 C674 1481 557 1442 448 1365 C339 1287 273 1186 252 1063 L64 -2 L262 -2 L449 1057 C461 1126 500 1186 566 1237 C631 1288 699 1313 770 1313 C869 1313 943 1270 992 1183 L554 794 L526 636 L679 636 C735 636 785 634 830 630 C874 626 916 610 955 582 C994 553 1014 513 1014 460 C1013 376 981 303 917 240 C853 177 784 145 710 145 C603 145 519 172 456 226 L385 73 C470 9 578 -23 708 -23 L708 -23 Z " />
<glyph glyph-name="endash" unicode="&#x2013;" horiz-adv-x="1310" d="M1117 606 L149 606 L122 457 L1091 457 L1117 606 Z " />
<glyph glyph-name="emdash" unicode="&#x2014;" horiz-adv-x="1938" d="M1916 606 L-21 606 L-48 457 L1890 457 L1916 606 Z " />
<glyph glyph-name="quoteleft" unicode="&#x2018;" horiz-adv-x="459" d="M539 1489 C427 1402 336 1324 266 1257 C195 1189 160 1117 160 1040 C160 983 198 939 267 939 C299 939 329 951 358 976 C387 1001 401 1030 401 1063 C401 1084 395 1106 384 1129 C373 1151 367 1167 367 1176 C367 1191 378 1216 401 1251 C424 1285 483 1346 580 1434 L539 1489 Z " />
<glyph glyph-name="quoteright" unicode="&#x2019;" horiz-adv-x="460" d="M92 939 C204 1026 295 1104 366 1172 C436 1239 471 1311 471 1388 C471 1445 433 1489 364 1489 C332 1489 302 1477 273 1452 C244 1427 230 1398 230 1365 C230 1344 236 1322 247 1300 C258 1277 264 1261 264 1252 C264 1237 253 1212 230 1178 C207 1143 148 1082 51 994 L92 939 Z " />
<glyph glyph-name="quotesinglbase" unicode="&#x201a;" horiz-adv-x="460" d="M-130 -322 C-18 -235 73 -157 144 -90 C214 -22 249 50 249 127 C249 184 211 228 142 228 C110 228 80 216 51 191 C22 166 8 137 8 104 C8 83 14 61 25 39 C36 16 42 0 42 -9 C42 -24 31 -49 8 -84 C-15 -118 -74 -179 -171 -267 L-130 -322 Z " />
<glyph glyph-name="quotedblleft" unicode="&#x201c;" horiz-adv-x="850" d="M539 1489 C427 1402 336 1324 266 1257 C195 1189 160 1117 160 1040 C160 983 198 939 267 939 C299 939 329 951 358 976 C387 1001 401 1030 401 1063 C401 1084 395 1106 384 1129 C373 1151 367 1167 367 1176 C367 1191 378 1216 401 1251 C424 1285 483 1346 580 1434 L539 1489 Z M930 1489 C818 1402 727 1324 657 1257 C586 1189 551 1117 551 1040 C551 983 589 939 658 939 C690 939 720 951 749 976 C778 1001 792 1030 792 1063 C792 1084 786 1106 775 1129 C764 1151 758 1167 758 1176 C758 1191 769 1216 792 1251 C815 1285 874 1346 971 1434 L930 1489 Z " />
<glyph glyph-name="quotedblright" unicode="&#x201d;" horiz-adv-x="851" d="M92 939 C204 1026 295 1104 366 1172 C436 1239 471 1311 471 1388 C471 1445 433 1489 364 1489 C332 1489 302 1477 273 1452 C244 1427 230 1398 230 1365 C230 1344 236 1322 247 1300 C258 1277 264 1261 264 1252 C264 1237 253 1212 230 1178 C207 1143 148 1082 51 994 L92 939 Z M483 939 C595 1026 686 1104 757 1172 C827 1239 862 1311 862 1388 C862 1445 824 1489 755 1489 C723 1489 693 1477 664 1452 C635 1427 621 1398 621 1365 C621 1344 627 1322 638 1300 C649 1277 655 1261 655 1252 C655 1237 644 1212 621 1178 C598 1143 539 1082 442 994 L483 939 Z " />
<glyph glyph-name="quotedblbase" unicode="&#x201e;" horiz-adv-x="851" d="M-130 -322 C-18 -235 73 -157 144 -90 C214 -22 249 50 249 127 C249 184 211 228 142 228 C110 228 80 216 51 191 C22 166 8 137 8 104 C8 83 14 61 25 39 C36 16 42 0 42 -9 C42 -24 31 -49 8 -84 C-15 -118 -74 -179 -171 -267 L-130 -322 Z M261 -322 C373 -235 464 -157 535 -90 C605 -22 640 50 640 127 C640 184 602 228 533 228 C501 228 471 216 442 191 C413 166 399 137 399 104 C399 83 405 61 416 39 C427 16 433 0 433 -9 C433 -24 422 -49 399 -84 C376 -118 317 -179 220 -267 L261 -322 Z " />
<glyph glyph-name="dagger" unicode="&#x2020;" horiz-adv-x="1310" d="M771 959 L1168 959 L1192 1091 L794 1091 L864 1489 L713 1489 L643 1091 L245 1091 L222 959 L620 959 L377 -417 L528 -417 L771 959 Z " />
<glyph glyph-name="daggerdbl" unicode="&#x2021;" horiz-adv-x="1310" d="M598 -19 L996 -19 L1019 113 L622 113 L771 959 L1168 959 L1192 1091 L794 1091 L864 1489 L713 1489 L643 1091 L245 1091 L222 959 L620 959 L470 113 L73 113 L49 -19 L447 -19 L377 -417 L528 -417 L598 -19 Z " />
<glyph glyph-name="bullet" unicode="&#x2022;" horiz-adv-x="1309" d="M656 514 C715 514 765 535 807 577 C848 619 869 669 869 728 C869 787 848 837 807 879 C765 920 715 941 656 941 C597 941 546 920 505 879 C463 837 442 787 442 728 C442 669 463 619 505 577 C546 535 597 514 656 514 L656 514 Z " />
<glyph glyph-name="ellipsis" unicode="&#x2026;" horiz-adv-x="1483" d="M97 -23 C133 -23 168 -9 201 19 C234 46 250 82 250 126 C250 151 241 174 223 196 C204 218 177 229 142 229 C107 229 72 215 39 187 C6 159 -11 123 -11 80 C-11 55 -2 32 17 10 C35 -12 62 -23 97 -23 L97 -23 Z M609 -23 C645 -23 680 -9 713 19 C746 47 762 83 762 126 C762 151 753 174 735 196 C716 218 689 229 654 229 C619 229 584 215 551 187 C518 159 501 123 501 80 C501 55 510 32 529 10 C547 -12 574 -23 609 -23 L609 -23 Z M1121 -23 C1156 -23 1191 -9 1224 19 C1257 47 1274 83 1274 126 C1274 151 1265 174 1247 196 C1228 218 1201 229 1166 229 C1131 229 1096 215 1063 188 C1030 160 1013 124 1013 80 C1013 55 1022 32 1041 10 C1059 -12 1086 -23 1121 -23 L1121 -23 Z " />
<glyph glyph-name="perthousand" unicode="&#x2030;" horiz-adv-x="2766" d="M1628 1480 L1429 1480 L282 -23 L481 -23 L1628 1480 Z M511 884 C450 884 403 903 371 941 C338 979 322 1020 322 1064 C322 1141 351 1204 409 1253 C467 1301 527 1325 589 1325 C651 1325 698 1306 731 1268 C763 1229 779 1188 779 1144 C779 1068 750 1006 692 957 C633 908 573 884 511 884 L511 884 Z M484 728 C596 728 699 771 794 858 C889 944 937 1049 938 1174 C938 1248 911 1318 857 1383 C802 1448 722 1480 617 1480 C498 1480 392 1437 301 1350 C209 1263 163 1159 162 1036 C162 961 186 895 233 838 C295 765 379 728 484 728 L484 728 Z M1321 132 C1259 132 1212 151 1180 189 C1147 227 1131 268 1131 312 C1131 389 1160 452 1219 501 C1277 549 1337 573 1398 573 C1460 573 1507 554 1540 516 C1572 478 1588 437 1588 393 C1588 316 1559 253 1501 205 C1442 156 1382 132 1321 132 L1321 132 Z M1293 -23 C1405 -23 1508 20 1603 107 C1698 193 1746 298 1747 422 C1747 497 1720 567 1666 632 C1611 697 1531 729 1426 729 C1307 729 1201 686 1110 599 C1018 512 972 408 971 285 C971 210 995 144 1042 87 C1104 14 1188 -23 1293 -23 L1293 -23 Z M2177 132 C2115 132 2068 151 2036 189 C2003 227 1987 268 1987 312 C1987 389 2016 452 2075 501 C2133 549 2193 573 2254 573 C2316 573 2363 554 2396 516 C2428 478 2444 437 2444 393 C2444 316 2415 253 2357 205 C2298 156 2238 132 2177 132 L2177 132 Z M2150 -23 C2262 -23 2365 20 2460 107 C2555 193 2603 298 2604 422 C2604 497 2577 567 2523 632 C2468 697 2388 729 2283 729 C2164 729 2058 686 1967 599 C1875 512 1829 408 1828 285 C1828 210 1852 144 1899 87 C1961 14 2045 -23 2150 -23 L2150 -23 Z " />
<glyph glyph-name="guilsinglleft" unicode="&#x2039;" horiz-adv-x="846" d="M355 531 L702 986 L528 986 L180 531 L367 75 L542 75 L355 531 Z " />
<glyph glyph-name="guilsinglright" unicode="&#x203a;" horiz-adv-x="845" d="M596 531 L409 986 L234 986 L421 531 L74 75 L248 75 L596 531 Z " />
<glyph glyph-name="&amp;#x2044;" unicode="&#x2044;" horiz-adv-x="268" d="M808 1481 L609 1481 L-538 -23 L-340 -23 L808 1481 Z " />
<glyph glyph-name="&amp;#x2215;" unicode="&#x2215;" horiz-adv-x="268" d="M808 1481 L609 1481 L-538 -23 L-340 -23 L808 1481 Z " />
<glyph glyph-name="franc" unicode="&#x20a3;" horiz-adv-x="1310" d="M394 323 L917 323 L944 472 L420 472 L452 649 L1115 649 L1143 806 L479 806 L564 1289 L1348 1289 L1377 1457 L396 1457 L222 472 L16 472 L-10 323 L196 323 L139 -2 L337 -2 L394 323 Z " />
<glyph glyph-name="lira" unicode="&#x20a4;" horiz-adv-x="1309" d="M1076 153 L384 153 L441 476 L812 476 L837 620 L467 620 L505 839 L876 839 L901 983 L531 983 L542 1049 C555 1124 589 1188 644 1239 C699 1290 763 1316 838 1317 C913 1317 973 1303 1016 1274 C1059 1245 1098 1202 1133 1145 L1270 1251 C1220 1326 1164 1384 1102 1423 C1040 1462 956 1481 849 1481 C714 1481 602 1437 511 1349 C420 1260 363 1155 341 1032 L332 983 L230 983 L204 839 L307 839 L268 620 L166 620 L140 476 L243 476 L186 153 L31 153 L4 0 L1049 0 L1076 153 Z " />
<glyph glyph-name="Euro" unicode="&#x20ac;" horiz-adv-x="1310" d="M815 -24 C923 -24 1026 3 1124 57 L1155 229 C1052 168 949 137 844 137 C631 137 511 265 483 476 L950 476 L976 620 L477 620 C481 693 494 766 516 839 L1014 839 L1040 983 L573 983 C606 1063 662 1139 741 1211 C820 1283 924 1319 1052 1319 C1157 1319 1250 1288 1331 1227 L1361 1399 C1282 1453 1188 1480 1081 1480 C894 1480 743 1429 628 1328 C513 1227 429 1112 376 983 L112 983 L87 839 L325 839 C304 766 291 693 286 620 L48 620 L23 476 L286 476 C295 333 342 214 427 119 C512 24 642 -24 815 -24 L815 -24 Z " />
<glyph glyph-name="uni20B9" unicode="&#x20b9;" horiz-adv-x="1310" d="M616 585 C845 626 988 745 1045 940 L1230 940 L1256 1083 L1069 1083 L1069 1103 C1069 1189 1045 1260 996 1316 L1297 1316 L1322 1457 L245 1457 L219 1310 L612 1310 C691 1310 756 1290 806 1251 C856 1212 881 1157 881 1086 L881 1083 L179 1083 L153 940 L857 940 C832 863 787 805 722 764 C657 723 584 703 505 703 L112 703 L86 556 L391 556 L741 -2 L985 -2 L616 585 Z " />
<glyph glyph-name="uni20BA" unicode="&#x20ba;" horiz-adv-x="1309" d="M419 -2 C616 -2 791 59 942 181 C1093 302 1185 457 1218 645 L1044 645 C1019 502 949 387 834 299 C719 211 591 167 449 167 L396 167 L456 510 L882 702 L910 862 L484 670 L530 929 L956 1121 L985 1282 L558 1090 L623 1457 L425 1457 L343 993 L104 885 L76 725 L315 833 L269 574 L30 466 L2 306 L241 414 L168 -2 L419 -2 L419 -2 Z " />
<glyph glyph-name="uni2113" unicode="&#x2113;" horiz-adv-x="848" d="M402 1240 C411 1293 436 1336 476 1370 C515 1404 559 1421 606 1421 C654 1421 690 1407 715 1379 C740 1351 752 1319 752 1282 C752 1191 710 1122 627 1073 L345 916 L402 1240 Z M347 -24 C456 -23 568 26 684 122 L695 182 C584 84 474 35 366 35 C272 36 225 91 225 198 C225 224 228 253 233 286 L335 862 L632 1027 C749 1094 807 1180 807 1287 C807 1334 791 1378 758 1419 C725 1460 672 1480 600 1480 C511 1480 434 1454 368 1401 C302 1348 260 1279 243 1193 L178 825 L17 736 L8 682 L169 771 L87 309 C81 274 78 242 78 213 C78 55 168 -24 347 -24 L347 -24 Z " />
<glyph glyph-name="trademark" unicode="&#x2122;" horiz-adv-x="1633" d="M1659 1458 L1558 1458 L1234 1093 L1040 1458 L938 1458 L810 729 L936 729 L1023 1218 L1172 940 L1243 940 L1490 1218 L1404 729 L1531 729 L1659 1458 Z M572 1346 L805 1346 L825 1458 L231 1458 L211 1346 L444 1346 L335 729 L463 729 L572 1346 Z " />
<glyph glyph-name="estimated" unicode="&#x212e;" horiz-adv-x="1755" d="M335 777 L335 1123 C474 1308 655 1401 877 1401 C1100 1401 1280 1308 1419 1123 L1419 777 L335 777 Z M877 -17 C1155 -17 1375 107 1536 354 L1460 399 C1312 178 1118 68 877 68 C655 68 474 161 335 346 L335 692 L1641 692 L1641 735 C1641 943 1566 1120 1417 1267 C1267 1413 1087 1486 877 1486 C668 1486 488 1413 339 1267 C189 1120 114 943 114 735 C114 526 189 349 339 203 C488 56 668 -17 877 -17 L877 -17 Z " />
<glyph glyph-name="onethird" unicode="&#x2153;" horiz-adv-x="1661" d="M597 1470 L449 1470 L217 1350 L267 1228 L406 1300 L304 726 L466 726 L597 1470 Z M1504 1481 L1306 1481 L158 -23 L357 -23 L1504 1481 Z M1126 -13 C1216 -13 1295 11 1364 59 C1432 107 1466 168 1466 241 C1466 288 1440 341 1369 370 C1452 417 1493 484 1493 571 C1493 624 1472 668 1431 702 C1390 736 1334 753 1263 753 C1148 753 1051 707 971 616 L1066 523 C1113 580 1168 609 1229 609 C1282 609 1329 587 1329 542 C1329 502 1314 475 1284 460 C1254 445 1226 438 1200 438 L1136 438 L1112 301 L1176 301 C1201 301 1229 295 1259 284 C1288 273 1303 254 1303 229 C1303 190 1283 164 1243 151 C1203 138 1170 131 1144 131 C1075 131 1028 160 1002 217 L874 124 C921 33 1005 -13 1126 -13 L1126 -13 Z " />
<glyph glyph-name="twothirds" unicode="&#x2154;" horiz-adv-x="1661" d="M686 866 L404 866 L658 1082 C728 1139 763 1208 763 1288 C763 1343 740 1389 695 1426 C650 1463 590 1481 516 1481 C395 1481 293 1435 212 1342 L308 1250 C357 1308 415 1337 482 1337 C542 1337 599 1308 599 1259 C599 1229 587 1204 563 1183 L139 831 L120 726 L661 726 L686 866 Z M1506 1481 L1308 1481 L160 -23 L359 -23 L1506 1481 Z M1126 -13 C1216 -13 1295 11 1364 59 C1432 107 1466 168 1466 241 C1466 288 1440 341 1369 370 C1452 417 1493 484 1493 571 C1493 624 1472 668 1431 702 C1390 736 1334 753 1263 753 C1148 753 1051 707 971 616 L1066 523 C1113 580 1168 609 1229 609 C1282 609 1329 587 1329 542 C1329 502 1314 475 1284 460 C1254 445 1226 438 1200 438 L1136 438 L1112 301 L1176 301 C1201 301 1229 295 1259 284 C1288 273 1303 254 1303 229 C1303 190 1283 164 1243 151 C1203 138 1170 131 1144 131 C1075 131 1028 160 1002 217 L874 124 C921 33 1005 -13 1126 -13 L1126 -13 Z " />
<glyph glyph-name="partialdiff" unicode="&#x2202;" horiz-adv-x="1292" d="M514 157 C414 157 346 183 309 236 C272 289 253 345 253 405 C254 510 288 601 356 680 C423 758 514 797 627 797 C752 797 867 756 971 673 C956 588 932 508 899 431 C866 354 818 289 757 236 C696 183 615 157 514 157 L514 157 Z M484 -17 C867 -17 1103 236 1193 743 C1204 804 1209 862 1209 918 C1209 1087 1168 1224 1086 1329 C1003 1434 858 1487 651 1487 C557 1487 471 1470 394 1435 L439 1270 C497 1298 558 1312 621 1312 C762 1312 861 1269 920 1184 C978 1098 1007 997 1007 880 L1006 852 C903 930 787 969 658 969 C477 969 331 910 218 793 C105 675 49 534 48 371 C48 272 82 182 151 103 C219 23 330 -17 484 -17 L484 -17 Z " />
<glyph glyph-name="increment" unicode="&#x2206;" horiz-adv-x="1573" d="M293 178 L862 1160 L1084 178 L293 178 Z M984 1456 L844 1456 L-27 -2 L1341 -2 L984 1456 Z " />
<glyph glyph-name="product" unicode="&#x220f;" horiz-adv-x="1709" d="M1739 1480 L235 1480 L-102 -427 L97 -427 L407 1331 L1514 1331 L1204 -427 L1403 -427 L1739 1480 Z " />
<glyph glyph-name="summation" unicode="&#x2211;" horiz-adv-x="1709" d="M1429 -278 L162 -278 L921 527 L446 1331 L1713 1331 L1739 1480 L235 1480 L208 1331 L683 527 L-75 -278 L-102 -427 L1403 -427 L1429 -278 Z " />
<glyph glyph-name="minus" unicode="&#x2212;" horiz-adv-x="1310" d="M1153 809 L184 809 L158 660 L1127 660 L1153 809 Z " />
<glyph glyph-name="radical" unicode="&#x221a;" horiz-adv-x="1309" d="M1510 1892 L1351 1892 L614 247 L487 1085 L-16 959 L-2 813 L354 903 L496 -15 L655 -15 L1510 1892 Z " />
<glyph glyph-name="infinity" unicode="&#x221e;" horiz-adv-x="1666" d="M411 534 C354 534 312 551 283 586 C254 620 239 657 239 697 C239 767 265 824 317 869 C369 913 424 935 482 935 C531 935 571 919 604 887 C636 854 668 819 699 780 L735 735 L633 647 C600 619 567 593 534 570 C501 546 460 534 411 534 L411 534 Z M1186 534 C1137 534 1096 550 1063 583 C1029 615 998 650 969 689 L933 735 L985 780 C1028 819 1071 854 1116 887 C1161 919 1208 935 1257 935 C1314 935 1357 918 1386 884 C1415 849 1429 812 1429 773 C1429 702 1403 645 1350 601 C1297 556 1243 534 1186 534 L1186 534 Z M1162 397 C1264 397 1358 437 1443 516 C1528 595 1571 689 1571 798 C1571 865 1547 927 1498 986 C1449 1044 1376 1073 1281 1073 C1205 1073 1138 1054 1080 1015 C1022 976 964 931 907 880 L851 832 L812 880 C773 931 732 976 687 1015 C642 1054 582 1073 506 1073 C398 1073 303 1033 221 954 C138 875 97 781 97 672 C97 605 122 542 171 484 C220 426 292 397 387 397 C463 397 530 416 588 455 C646 494 704 539 761 590 L817 637 L856 590 C897 539 939 494 983 455 C1026 416 1086 397 1162 397 L1162 397 Z " />
<glyph glyph-name="integral" unicode="&#x222b;" horiz-adv-x="948" d="M92 -428 C187 -427 266 -371 330 -258 C394 -145 438 -21 463 116 L703 1493 C714 1554 728 1620 746 1689 C764 1758 794 1793 837 1793 L845 1793 C834 1781 828 1764 828 1742 C828 1702 859 1660 915 1660 C942 1660 968 1671 993 1694 C1018 1716 1030 1746 1030 1785 C1030 1856 972 1892 856 1892 C762 1891 683 1834 619 1722 C555 1610 511 1486 487 1349 L244 -36 C234 -95 220 -158 202 -227 C184 -295 154 -329 111 -329 L105 -329 C115 -314 120 -297 120 -279 C120 -239 90 -197 34 -197 C7 -197 -19 -208 -44 -231 C-69 -253 -81 -284 -81 -323 C-81 -393 -23 -428 92 -428 L92 -428 Z " />
<glyph glyph-name="approxequal" unicode="&#x2248;" horiz-adv-x="1309" d="M885 804 C999 804 1077 833 1119 891 L1145 1039 C1120 1014 1091 994 1056 978 C1021 962 971 954 906 954 C839 954 767 971 691 1005 C615 1038 550 1055 495 1055 C381 1055 303 1026 260 968 L234 820 C259 844 289 864 324 881 C359 897 409 905 474 905 C541 905 613 888 689 855 C764 821 830 804 885 804 L885 804 Z M816 415 C931 415 1009 444 1051 501 L1077 649 C1052 625 1022 605 987 589 C952 572 902 564 837 564 C770 564 698 581 622 615 C546 648 481 665 426 665 C312 665 234 636 192 578 L166 431 C191 455 220 475 255 492 C290 508 340 516 405 516 C472 516 544 499 620 466 C696 432 761 415 816 415 L816 415 Z " />
<glyph glyph-name="notequal" unicode="&#x2260;" horiz-adv-x="1310" d="M596 419 L1064 419 L1090 568 L662 568 L806 889 L1147 889 L1173 1038 L873 1038 L1071 1480 L913 1480 L715 1038 L246 1038 L219 889 L648 889 L504 568 L163 568 L137 419 L437 419 L238 -24 L397 -24 L596 419 Z " />
<glyph glyph-name="lessequal" unicode="&#x2264;" horiz-adv-x="1310" d="M1093 579 L430 837 L1184 1095 L1211 1253 L222 905 L198 768 L1065 421 L1093 579 Z M1046 312 L118 312 L91 163 L1019 163 L1046 312 Z " />
<glyph glyph-name="greaterequal" unicode="&#x2265;" horiz-adv-x="1310" d="M1126 768 L1150 905 L284 1253 L256 1095 L918 837 L165 579 L137 421 L1126 768 Z M1046 312 L118 312 L91 163 L1019 163 L1046 312 Z " />
<glyph glyph-name="lozenge" unicode="&#x25ca;" horiz-adv-x="1086" d="M285 728 L644 1304 L801 728 L441 152 L285 728 Z M983 728 L764 1458 L579 1458 L102 728 L322 -1 L506 -1 L983 728 Z " />
<glyph glyph-name="&amp;#xf001;" unicode="&#xf001;" horiz-adv-x="1261" d="M483 910 L832 910 L859 1063 L510 1063 L521 1128 C531 1184 561 1231 612 1270 C662 1309 723 1328 794 1328 C825 1328 862 1324 904 1317 L931 1469 C888 1476 841 1480 790 1480 C675 1480 575 1450 488 1391 C401 1331 347 1243 327 1128 L315 1063 L92 1063 L65 910 L288 910 L128 -1 L322 -1 L483 910 Z M1175 1063 L981 1063 L793 -1 L987 -1 L1175 1063 Z M1108 1234 C1143 1234 1176 1248 1209 1276 C1242 1303 1258 1339 1258 1382 C1258 1431 1221 1483 1152 1483 C1117 1483 1083 1469 1050 1442 C1017 1415 1001 1379 1001 1335 C1001 1286 1037 1234 1108 1234 L1108 1234 Z " />
<glyph glyph-name="&amp;#xfb01;" unicode="&#xfb01;" horiz-adv-x="1261" d="M483 910 L832 910 L859 1063 L510 1063 L521 1128 C531 1184 561 1231 612 1270 C662 1309 723 1328 794 1328 C825 1328 862 1324 904 1317 L931 1469 C888 1476 841 1480 790 1480 C675 1480 575 1450 488 1391 C401 1331 347 1243 327 1128 L315 1063 L92 1063 L65 910 L288 910 L128 -1 L322 -1 L483 910 Z M1175 1063 L981 1063 L793 -1 L987 -1 L1175 1063 Z M1108 1234 C1143 1234 1176 1248 1209 1276 C1242 1303 1258 1339 1258 1382 C1258 1431 1221 1483 1152 1483 C1117 1483 1083 1469 1050 1442 C1017 1415 1001 1379 1001 1335 C1001 1286 1037 1234 1108 1234 L1108 1234 Z " />
<glyph glyph-name="&amp;#xf002;" unicode="&#xf002;" horiz-adv-x="1292" d="M483 910 L832 910 L859 1063 L510 1063 L521 1128 C531 1184 561 1231 612 1270 C662 1309 723 1328 794 1328 C825 1328 862 1324 904 1317 L931 1469 C888 1476 841 1480 790 1480 C675 1480 575 1450 488 1391 C401 1331 347 1243 327 1128 L315 1063 L92 1063 L65 910 L288 910 L128 -1 L322 -1 L483 910 Z M1260 1458 L1066 1458 L809 -1 L1003 -1 L1260 1458 Z " />
<glyph glyph-name="&amp;#xfb02;" unicode="&#xfb02;" horiz-adv-x="1292" d="M483 910 L832 910 L859 1063 L510 1063 L521 1128 C531 1184 561 1231 612 1270 C662 1309 723 1328 794 1328 C825 1328 862 1324 904 1317 L931 1469 C888 1476 841 1480 790 1480 C675 1480 575 1450 488 1391 C401 1331 347 1243 327 1128 L315 1063 L92 1063 L65 910 L288 910 L128 -1 L322 -1 L483 910 Z M1260 1458 L1066 1458 L809 -1 L1003 -1 L1260 1458 Z " />
<glyph glyph-name="uniFB00" unicode="&#xfb00;" horiz-adv-x="1510" d="M1136 910 L1485 910 L1512 1063 L1163 1063 L1174 1128 C1184 1184 1214 1231 1265 1270 C1316 1309 1376 1328 1447 1328 C1478 1328 1515 1324 1557 1317 L1584 1469 C1541 1476 1495 1480 1444 1480 C1329 1480 1228 1450 1141 1391 C1054 1331 1001 1243 980 1128 L969 1063 L510 1063 L521 1128 C531 1184 561 1231 612 1270 C662 1309 723 1328 794 1328 C825 1328 862 1324 904 1317 L931 1469 C888 1476 841 1480 790 1480 C675 1480 575 1450 488 1391 C401 1331 347 1243 327 1128 L315 1063 L92 1063 L65 910 L288 910 L128 -1 L322 -1 L483 910 L942 910 L781 -1 L975 -1 L1136 910 Z " />
<glyph glyph-name="uniFB03" unicode="&#xfb03;" horiz-adv-x="1936" d="M1841 1063 L1647 1063 L1459 -1 L1653 -1 L1841 1063 Z M1136 910 L1486 910 L1513 1063 L1163 1063 L1175 1128 C1185 1184 1215 1231 1266 1270 C1316 1309 1377 1328 1448 1328 C1479 1328 1515 1324 1558 1317 L1584 1469 C1541 1476 1495 1480 1444 1480 C1329 1480 1228 1450 1141 1391 C1054 1331 1001 1243 981 1128 L969 1063 L510 1063 L521 1128 C531 1184 561 1231 612 1270 C663 1309 723 1328 794 1328 C825 1328 862 1324 904 1317 L931 1469 C888 1476 842 1480 791 1480 C676 1480 575 1450 488 1391 C401 1331 348 1243 327 1128 L316 1063 L92 1063 L65 910 L289 910 L128 -1 L322 -1 L483 910 L942 910 L782 -1 L976 -1 L1136 910 Z M1775 1234 C1810 1234 1843 1248 1876 1275 C1909 1302 1925 1338 1925 1381 C1925 1406 1916 1429 1898 1451 C1880 1472 1854 1483 1819 1483 C1783 1483 1749 1469 1716 1442 C1683 1415 1667 1379 1667 1336 C1667 1311 1676 1288 1694 1267 C1712 1245 1739 1234 1775 1234 L1775 1234 Z " />
<glyph glyph-name="uniFB04" unicode="&#xfb04;" horiz-adv-x="1967" d="M1136 910 L1485 910 L1512 1063 L1163 1063 L1174 1128 C1184 1184 1214 1231 1265 1270 C1316 1309 1376 1328 1447 1328 C1478 1328 1515 1324 1557 1317 L1584 1469 C1541 1476 1495 1480 1444 1480 C1329 1480 1228 1450 1141 1391 C1054 1331 1001 1243 980 1128 L969 1063 L510 1063 L521 1128 C531 1184 561 1231 612 1270 C662 1309 723 1328 794 1328 C825 1328 862 1324 904 1317 L931 1469 C888 1476 841 1480 790 1480 C675 1480 575 1450 488 1391 C401 1331 348 1243 327 1128 L316 1063 L92 1063 L65 910 L289 910 L128 -1 L322 -1 L483 910 L942 910 L781 -1 L975 -1 L1136 910 Z M1925 1458 L1731 1458 L1474 -1 L1668 -1 L1925 1458 Z " />
</font>
</svg>
