<?xml version="1.0" encoding="UTF-8"?>
<svg xmlns="http://www.w3.org/2000/svg" xmlns:xlink="http://www.w3.org/1999/xlink" version="1.2" >
<font id="Guerrer">
<font-face  font-family="Guerrer" units-per-em="2048" ascent="1458" descent="-405" font-style="normal" font-weight="400" font-stretch="normal" cap-height="1457" x-height="1062" underline-position="-217" underline-thickness="150" />
<missing-glyph  horiz-adv-x="1024" d="" />
<glyph glyph-name="&amp;#x0;" d="" />
<glyph glyph-name="&amp;#x1d;" unicode="&#x1d;" d="" />
<glyph glyph-name="&amp;#x20;" unicode="&#x20;" horiz-adv-x="508" d="" />
<glyph glyph-name="&amp;#xa0;" unicode="&#xa0;" horiz-adv-x="508" d="" />
<glyph glyph-name="exclam" unicode="&#x21;" horiz-adv-x="752" d="M475 1480 L276 1480 L303 398 L449 398 L475 1480 Z M376 -24 C411 -24 440 -12 465 13 C490 38 502 67 502 102 C502 137 490 166 465 191 C440 216 411 228 376 228 C341 228 311 216 287 191 C262 166 250 137 250 102 C250 67 262 38 287 13 C311 -12 341 -24 376 -24 L376 -24 Z " />
<glyph glyph-name="quotedbl" unicode="&#x22;" horiz-adv-x="532" d="M482 1480 L317 1480 L343 1026 L456 1026 L482 1480 Z M215 1480 L50 1480 L76 1026 L189 1026 L215 1480 Z " />
<glyph glyph-name="numbersign" unicode="&#x23;" horiz-adv-x="1289" d="M447 531 L554 931 L863 931 L756 531 L447 531 Z M877 399 L1203 399 L1203 531 L913 531 L1020 931 L1203 931 L1203 1063 L1055 1063 L1167 1480 L1011 1480 L899 1063 L589 1063 L701 1480 L544 1480 L433 1063 L86 1063 L86 931 L397 931 L290 531 L86 531 L86 399 L255 399 L142 -24 L298 -24 L411 399 L721 399 L608 -24 L764 -24 L877 399 Z " />
<glyph glyph-name="dollar" unicode="&#x24;" horiz-adv-x="1289" d="M719 -20 C864 -6 985 40 1084 117 C1183 194 1232 287 1232 394 C1232 496 1206 573 1155 626 C1103 679 1038 718 960 743 C881 768 800 787 717 802 C611 819 519 844 441 877 C363 909 324 969 324 1058 C324 1127 357 1186 424 1233 C490 1280 568 1303 658 1303 C815 1303 946 1252 1038 1132 L1180 1247 C1122 1323 1053 1378 972 1411 C891 1444 806 1465 719 1473 L719 1665 L570 1665 L570 1470 C437 1453 326 1407 239 1330 C152 1253 108 1163 108 1058 C108 957 134 880 186 827 C237 774 302 736 380 711 C458 686 539 665 622 650 C728 633 820 608 898 576 C976 544 1015 483 1015 394 C1015 325 979 267 907 220 C835 173 750 149 652 149 C562 149 472 170 383 213 C293 256 230 311 193 379 L58 266 C99 187 167 123 262 73 C357 22 459 -8 570 -19 L570 -209 L719 -209 L719 -20 Z " />
<glyph glyph-name="percent" unicode="&#x25;" horiz-adv-x="1879" d="M1471 1480 L1276 1480 L408 -23 L603 -23 L1471 1480 Z M476 884 C415 884 363 906 320 949 C277 992 255 1043 255 1104 C255 1165 277 1218 320 1261 C363 1304 415 1325 476 1325 C537 1325 589 1304 632 1261 C675 1218 697 1165 697 1104 C697 1043 675 992 632 949 C589 906 537 884 476 884 L476 884 Z M476 728 C580 728 669 765 742 839 C815 912 852 1001 852 1104 C852 1208 815 1297 742 1370 C669 1443 580 1480 476 1480 C372 1480 283 1443 210 1370 C137 1297 100 1208 100 1104 C100 1001 137 912 210 839 C283 765 372 728 476 728 L476 728 Z M1403 132 C1342 132 1290 154 1247 197 C1204 240 1182 291 1182 352 C1182 413 1204 466 1247 509 C1290 552 1342 573 1403 573 C1464 573 1516 552 1559 509 C1602 466 1624 413 1624 352 C1624 291 1602 240 1559 197 C1516 154 1464 132 1403 132 L1403 132 Z M1403 -24 C1507 -24 1596 13 1669 87 C1742 160 1779 249 1779 352 C1779 456 1742 545 1669 618 C1596 691 1507 728 1403 728 C1299 728 1210 691 1137 618 C1064 545 1027 456 1027 352 C1027 249 1064 160 1137 87 C1210 13 1299 -24 1403 -24 L1403 -24 Z " />
<glyph glyph-name="ampersand" unicode="&#x26;" horiz-adv-x="1448" d="M585 135 C482 135 405 160 354 210 C303 260 278 321 278 392 C278 453 304 509 355 562 L494 700 L917 300 C832 190 722 135 585 135 L585 135 Z M585 -24 C765 -24 917 43 1041 176 L1227 -1 L1448 -1 L1135 302 L1416 692 L1202 692 L1012 424 L508 903 C448 964 418 1027 418 1094 C418 1166 444 1222 496 1262 C547 1301 611 1321 688 1321 C765 1321 828 1297 878 1249 C928 1200 953 1149 953 1094 L1131 1094 C1131 1205 1089 1297 1004 1370 C919 1443 813 1480 688 1480 C560 1480 453 1446 368 1378 C283 1310 240 1215 240 1094 C240 1039 254 989 282 946 C309 902 342 861 380 822 L231 673 C144 587 100 493 100 392 C100 279 143 181 229 99 C314 17 433 -24 585 -24 L585 -24 Z " />
<glyph glyph-name="quotesingle" unicode="&#x27;" horiz-adv-x="265" d="M215 1480 L50 1480 L76 1026 L189 1026 L215 1480 Z " />
<glyph glyph-name="parenleft" unicode="&#x28;" horiz-adv-x="499" d="M499 -405 C372 -152 308 159 308 527 C308 895 372 1206 499 1459 L341 1459 C214 1176 151 866 151 527 C151 188 214 -122 341 -405 L499 -405 L499 -405 Z " />
<glyph glyph-name="parenright" unicode="&#x29;" horiz-adv-x="499" d="M158 -405 C285 -122 348 188 348 527 C348 866 285 1176 158 1459 L0 1459 C127 1206 191 895 191 527 C191 159 127 -152 0 -405 L158 -405 Z " />
<glyph glyph-name="asterisk" unicode="&#x2a;" horiz-adv-x="593" d="M485 1080 L376 1214 L543 1258 L507 1370 L346 1308 L356 1480 L238 1480 L247 1308 L86 1370 L50 1258 L217 1214 L108 1080 L203 1011 L297 1156 L390 1011 L485 1080 Z " />
<glyph glyph-name="plus" unicode="&#x2b;" horiz-adv-x="1289" d="M718 662 L1110 662 L1110 794 L718 794 L718 1193 L570 1193 L570 794 L178 794 L178 662 L570 662 L570 264 L718 264 L718 662 Z " />
<glyph glyph-name="comma" unicode="&#x2c;" horiz-adv-x="452" d="M54 -322 C149 -235 223 -161 275 -100 C326 -39 352 25 352 91 C352 184 294 228 226 228 C163 228 115 178 115 117 C115 94 127 63 152 26 C163 9 169 -5 169 -15 C169 -30 165 -46 157 -64 C136 -115 85 -183 4 -267 L54 -322 Z " />
<glyph glyph-name="&amp;#x2d;" unicode="&#x2d;" horiz-adv-x="774" d="M674 605 L100 605 L100 456 L674 456 L674 605 Z " />
<glyph glyph-name="&amp;#xad;" unicode="&#xad;" horiz-adv-x="774" d="M674 605 L100 605 L100 456 L674 456 L674 605 Z " />
<glyph glyph-name="period" unicode="&#x2e;" horiz-adv-x="452" d="M226 -24 C261 -24 290 -12 315 13 C340 38 352 67 352 102 C352 137 340 166 315 191 C290 216 261 228 226 228 C191 228 161 216 137 191 C112 166 100 137 100 102 C100 67 112 38 137 13 C161 -12 191 -24 226 -24 L226 -24 Z " />
<glyph glyph-name="slash" unicode="&#x2f;" horiz-adv-x="671" d="M615 1480 L459 1480 L56 -24 L212 -24 L615 1480 Z " />
<glyph glyph-name="zero" unicode="0" horiz-adv-x="1289" d="M644 151 C523 151 432 197 371 289 C309 381 278 536 278 753 C278 918 309 1051 371 1153 C432 1255 523 1306 644 1306 C761 1306 852 1255 916 1153 C979 1051 1011 909 1011 728 C1011 527 979 381 916 289 C852 197 761 151 644 151 L644 151 Z M645 -24 C822 -24 960 39 1060 166 C1160 293 1210 480 1210 728 C1210 971 1161 1157 1062 1286 C963 1415 824 1480 645 1480 C474 1480 337 1415 234 1286 C131 1157 79 971 79 728 C79 480 130 293 233 166 C335 39 472 -24 645 -24 L645 -24 Z " />
<glyph glyph-name="one" unicode="1" horiz-adv-x="1289" d="M1125 168 L753 168 L753 1457 L554 1457 L163 1232 L248 1085 L554 1261 L554 168 L182 168 L182 -1 L1125 -1 L1125 168 Z " />
<glyph glyph-name="two" unicode="2" horiz-adv-x="1289" d="M1156 169 L461 169 L1043 760 C1127 842 1169 935 1169 1039 C1169 1174 1118 1282 1017 1361 C916 1440 789 1480 638 1480 C401 1480 228 1395 120 1225 L253 1111 C329 1239 453 1303 626 1303 C849 1303 969 1221 970 1041 C970 980 948 927 904 884 L156 130 L156 -1 L1156 -1 L1156 169 Z " />
<glyph glyph-name="three" unicode="3" horiz-adv-x="1289" d="M624 -23 C775 -23 906 16 1016 93 C1126 170 1181 273 1181 402 C1181 471 1154 537 1101 600 C1048 663 979 705 896 728 C979 751 1039 794 1078 857 C1116 920 1135 986 1135 1055 C1135 1184 1088 1287 995 1364 C902 1441 779 1480 628 1480 C411 1480 248 1394 137 1223 L271 1107 C348 1238 464 1303 617 1303 C718 1303 797 1280 853 1235 C908 1190 936 1130 936 1057 C936 986 908 928 851 882 C794 835 714 812 613 812 L502 812 L502 645 L613 645 C720 645 808 622 878 576 C947 529 982 470 982 399 C982 326 947 267 877 222 C807 177 719 154 612 154 C439 154 313 237 241 350 L107 234 C212 66 383 -23 624 -23 L624 -23 Z " />
<glyph glyph-name="four" unicode="4" horiz-adv-x="1288" d="M1030 260 L1211 260 L1211 430 L1030 430 L1030 757 L842 757 L842 430 L297 430 L901 1457 L687 1457 L78 415 L78 260 L842 260 L842 -1 L1030 -1 L1030 260 Z " />
<glyph glyph-name="five" unicode="5" horiz-adv-x="1289" d="M630 -24 C772 -24 900 19 1013 106 C1126 193 1183 314 1183 469 C1183 615 1130 734 1025 825 C920 916 792 962 641 962 L414 962 L414 1288 L1072 1288 L1072 1457 L214 1457 L214 785 L630 785 C731 785 816 755 883 695 C950 635 984 560 984 469 C984 378 948 303 877 243 C806 183 719 153 618 153 C447 153 325 230 240 359 L106 245 C235 74 406 -24 630 -24 L630 -24 Z " />
<glyph glyph-name="six" unicode="6" horiz-adv-x="1289" d="M647 153 C546 153 461 183 392 243 C323 303 288 378 288 469 C288 560 323 635 392 695 C461 755 546 785 647 785 C748 785 832 755 899 695 C966 635 1000 560 1000 469 C1000 378 966 303 899 243 C832 183 748 153 647 153 L647 153 Z M647 -24 C798 -24 928 22 1037 113 C1146 204 1200 322 1200 469 C1200 616 1147 735 1042 826 C937 917 808 962 657 962 C582 962 510 937 439 887 L811 1457 L597 1458 L195 809 C124 699 89 587 89 474 C89 325 144 204 255 113 C365 22 496 -24 647 -24 L647 -24 Z " />
<glyph glyph-name="seven" unicode="7" horiz-adv-x="1289" d="M1144 1300 L1144 1457 L145 1457 L145 1287 L938 1287 L317 -1 L526 -1 L1144 1300 Z " />
<glyph glyph-name="eight" unicode="8" horiz-adv-x="1289" d="M644 146 C541 146 458 173 397 228 C336 282 305 347 305 424 C305 501 336 567 397 622 C458 676 541 703 644 703 C747 703 830 676 891 622 C952 567 983 501 983 424 C983 347 952 282 891 228 C830 173 747 146 644 146 L644 146 Z M644 868 C564 868 499 890 449 933 C399 976 374 1028 374 1089 C374 1150 399 1203 449 1246 C499 1289 564 1310 644 1310 C724 1310 789 1289 839 1246 C889 1203 914 1150 914 1089 C914 1028 889 976 839 933 C789 890 724 868 644 868 L644 868 Z M644 -24 C807 -24 938 19 1036 105 C1133 190 1182 294 1182 417 C1182 590 1080 708 916 788 C1047 862 1113 963 1113 1091 C1113 1200 1070 1292 983 1367 C896 1442 783 1480 644 1480 C505 1480 393 1442 306 1367 C219 1292 175 1200 175 1091 C175 963 241 862 372 788 C293 749 229 700 180 640 C131 580 106 506 106 417 C106 294 155 190 253 105 C350 19 481 -24 644 -24 L644 -24 Z " />
<glyph glyph-name="nine" unicode="9" horiz-adv-x="1289" d="M642 671 C541 671 456 701 389 761 C322 821 288 896 288 987 C288 1078 322 1153 389 1213 C456 1273 541 1303 642 1303 C743 1303 828 1273 897 1213 C966 1153 1000 1078 1000 987 C1000 896 966 821 897 761 C828 701 743 671 642 671 L642 671 Z M1094 647 C1165 757 1200 869 1200 982 C1200 1131 1145 1252 1035 1343 C924 1434 793 1480 642 1480 C491 1480 361 1435 252 1344 C143 1253 89 1134 89 987 C89 840 142 722 247 631 C352 540 481 494 632 494 C707 494 779 519 850 569 L478 -1 L692 -2 L1094 647 Z " />
<glyph glyph-name="colon" unicode="&#x3a;" horiz-adv-x="452" d="M226 -24 C261 -24 290 -12 315 13 C340 38 352 67 352 102 C352 137 340 166 315 191 C290 216 261 228 226 228 C191 228 161 216 137 191 C112 166 100 137 100 102 C100 67 112 38 137 13 C161 -12 191 -24 226 -24 L226 -24 Z M226 833 C261 833 290 845 315 870 C340 895 352 924 352 959 C352 994 340 1024 315 1049 C290 1073 261 1085 226 1085 C156 1085 100 1029 100 959 C100 924 112 895 137 870 C161 845 191 833 226 833 L226 833 Z " />
<glyph glyph-name="&amp;#x3b;" unicode="&#x3b;" horiz-adv-x="452" d="M226 833 C261 833 290 845 315 870 C340 895 352 924 352 959 C352 994 340 1024 315 1049 C290 1073 261 1085 226 1085 C191 1085 162 1073 137 1049 C112 1024 100 994 100 959 C100 924 112 895 137 870 C162 845 191 833 226 833 L226 833 Z M54 -322 C149 -235 223 -161 275 -100 C326 -39 352 25 352 91 C352 184 294 228 226 228 C163 228 115 178 115 117 C115 94 127 63 152 26 C163 9 169 -5 169 -15 C169 -30 165 -46 157 -64 C136 -115 85 -183 4 -267 L54 -322 Z " />
<glyph glyph-name="&amp;#x37e;" unicode="&#x37e;" horiz-adv-x="452" d="M226 833 C261 833 290 845 315 870 C340 895 352 924 352 959 C352 994 340 1024 315 1049 C290 1073 261 1085 226 1085 C191 1085 162 1073 137 1049 C112 1024 100 994 100 959 C100 924 112 895 137 870 C162 845 191 833 226 833 L226 833 Z M54 -322 C149 -235 223 -161 275 -100 C326 -39 352 25 352 91 C352 184 294 228 226 228 C163 228 115 178 115 117 C115 94 127 63 152 26 C163 9 169 -5 169 -15 C169 -30 165 -46 157 -64 C136 -115 85 -183 4 -267 L54 -322 Z " />
<glyph glyph-name="less" unicode="&#x3c;" horiz-adv-x="1289" d="M1101 470 L404 728 L1101 986 L1101 1144 L188 797 L188 660 L1101 312 L1101 470 Z " />
<glyph glyph-name="equal" unicode="&#x3d;" horiz-adv-x="1289" d="M1100 998 L187 998 L187 849 L1100 849 L1100 998 Z M1100 608 L187 608 L187 459 L1100 459 L1100 608 Z " />
<glyph glyph-name="greater" unicode="&#x3e;" horiz-adv-x="1289" d="M1101 660 L1101 797 L188 1144 L188 986 L885 728 L188 470 L188 312 L1101 660 Z " />
<glyph glyph-name="question" unicode="&#x3f;" horiz-adv-x="1158" d="M651 678 C776 694 884 730 974 785 C1063 840 1108 930 1108 1055 C1108 1184 1056 1287 953 1364 C850 1441 722 1480 571 1480 C334 1480 161 1394 50 1223 L184 1107 C261 1238 387 1303 560 1303 C661 1303 745 1280 811 1235 C876 1190 909 1130 909 1057 C909 984 880 929 823 892 C765 855 692 829 605 814 C533 803 500 761 499 692 L503 398 L650 398 L651 678 Z M576 -24 C611 -24 641 -12 666 13 C691 38 703 67 703 102 C703 137 691 166 666 191 C641 216 611 228 576 228 C541 228 512 216 487 191 C462 166 450 137 450 102 C450 67 462 38 487 13 C512 -12 541 -24 576 -24 L576 -24 Z " />
<glyph glyph-name="at" unicode="&#x40;" horiz-adv-x="1667" d="M809 537 C718 537 653 601 653 692 C653 751 676 804 722 851 C768 897 821 920 880 920 C969 920 1034 856 1035 764 C1035 737 1029 709 1018 680 C1006 650 980 619 941 586 C902 553 858 537 809 537 L809 537 Z M864 -25 C1173 -25 1407 122 1567 415 L1405 415 C1274 208 1094 104 864 104 C691 104 544 165 422 287 C299 408 238 555 238 727 C238 899 299 1046 422 1168 C544 1289 691 1350 864 1350 C1037 1350 1173 1301 1274 1203 C1375 1104 1425 987 1425 850 C1425 797 1407 732 1371 654 C1334 576 1275 537 1194 537 C1151 537 1130 571 1130 616 C1130 621 1153 755 1199 1018 L1076 1018 L1060 931 C1012 997 951 1030 876 1030 C784 1030 703 994 634 921 C564 848 529 766 529 675 C529 604 552 545 598 498 C644 451 702 427 773 427 C874 427 964 468 1045 549 C1045 472 1095 433 1194 432 C1325 432 1419 481 1477 580 C1534 678 1563 768 1563 850 C1563 1023 1499 1171 1372 1294 C1244 1417 1075 1479 864 1479 C653 1479 473 1406 324 1259 C175 1112 100 934 100 727 C100 519 175 342 324 195 C473 48 653 -25 864 -25 L864 -25 Z " />
<glyph glyph-name="A" unicode="A" horiz-adv-x="1487" d="M512 574 L743 1194 L975 574 L512 574 Z M1190 -1 L1417 -1 L812 1457 L675 1457 L70 -1 L297 -1 L454 421 L1032 421 L1190 -1 Z " />
<glyph glyph-name="B" unicode="B" horiz-adv-x="1388" d="M385 806 L385 1289 L728 1289 C797 1289 855 1264 904 1213 C952 1162 976 1101 976 1030 C976 969 952 916 904 872 C855 828 797 806 728 806 L385 806 Z M385 167 L385 649 L852 649 C917 649 974 627 1022 583 C1070 539 1094 486 1094 425 C1094 354 1071 294 1025 243 C978 192 922 167 856 167 L385 167 Z M850 -1 C971 -1 1074 40 1160 121 C1245 202 1288 300 1288 417 C1288 496 1259 570 1201 637 C1142 704 1073 746 993 765 C1048 792 1091 830 1124 880 C1157 930 1173 983 1173 1038 C1173 1155 1130 1255 1043 1336 C956 1417 851 1457 728 1457 L190 1457 L190 -1 L850 -1 L850 -1 Z " />
<glyph glyph-name="C" unicode="C" horiz-adv-x="1449" d="M865 -24 C1072 -24 1250 48 1397 192 L1265 319 C1154 210 1021 156 865 156 C706 156 573 212 464 324 C355 435 301 570 301 728 C301 886 355 1021 464 1133 C573 1244 706 1300 865 1300 C1021 1300 1154 1245 1265 1136 L1397 1264 C1250 1408 1072 1480 865 1480 C648 1480 467 1407 320 1260 C173 1113 100 935 100 728 C100 520 173 343 320 196 C467 49 648 -24 865 -24 L865 -24 Z " />
<glyph glyph-name="D" unicode="D" horiz-adv-x="1533" d="M385 167 L385 1289 L679 1289 C834 1289 966 1234 1075 1125 C1184 1015 1238 883 1238 728 C1238 572 1183 440 1074 331 C964 222 832 167 679 167 L385 167 Z M679 -1 C888 -1 1066 70 1213 213 C1360 355 1433 527 1433 728 C1433 929 1360 1101 1213 1244 C1066 1386 888 1457 679 1457 L190 1457 L190 -1 L679 -1 L679 -1 Z " />
<glyph glyph-name="E" unicode="E" horiz-adv-x="1256" d="M1156 167 L385 167 L385 649 L1038 649 L1038 806 L385 806 L385 1289 L1156 1289 L1156 1457 L190 1457 L190 -1 L1156 -1 L1156 167 Z " />
<glyph glyph-name="F" unicode="F" horiz-adv-x="1206" d="M385 649 L1038 649 L1038 806 L385 806 L385 1289 L1156 1289 L1156 1457 L190 1457 L190 -1 L385 -1 L385 649 Z " />
<glyph glyph-name="G" unicode="G" horiz-adv-x="1570" d="M859 -24 C1024 -24 1176 17 1314 100 L1381 -1 L1419 -1 L1419 723 L1224 723 L1224 253 C1114 188 992 156 859 156 C701 156 568 212 459 324 C350 435 295 570 295 728 C295 886 350 1021 459 1133 C568 1244 701 1300 859 1300 C1015 1300 1149 1246 1260 1137 L1391 1264 C1244 1408 1066 1480 859 1480 C643 1480 463 1407 318 1260 C173 1113 100 935 100 728 C100 521 173 344 318 197 C463 50 643 -24 859 -24 L859 -24 Z " />
<glyph glyph-name="H" unicode="H" horiz-adv-x="1546" d="M1356 1457 L1160 1457 L1160 806 L385 806 L385 1457 L190 1457 L190 -1 L385 -1 L385 649 L1160 649 L1160 -1 L1356 -1 L1356 1457 Z " />
<glyph glyph-name="I" unicode="I" horiz-adv-x="576" d="M385 1457 L190 1457 L190 -1 L385 -1 L385 1457 Z " />
<glyph glyph-name="J" unicode="J" horiz-adv-x="1284" d="M597 -24 C736 -24 854 21 950 112 C1046 203 1094 316 1094 451 L1094 1457 L899 1457 L899 439 C899 358 869 290 808 237 C747 183 676 156 597 156 C425 156 282 219 168 344 L52 209 C193 54 375 -24 597 -24 L597 -24 Z " />
<glyph glyph-name="K" unicode="K" horiz-adv-x="1425" d="M385 470 L583 668 L1145 -1 L1400 -1 L722 807 L1373 1458 L1097 1458 L385 706 L385 1458 L190 1458 L190 -2 L385 -2 L385 470 Z " />
<glyph glyph-name="L" unicode="L" horiz-adv-x="1168" d="M1148 166 L385 166 L385 1457 L190 1457 L190 -2 L1148 -2 L1148 166 Z " />
<glyph glyph-name="M" unicode="M" horiz-adv-x="1800" d="M1610 1457 L1455 1457 L900 659 L346 1457 L190 1457 L190 -2 L383 -2 L383 1126 L845 438 L956 438 L1418 1126 L1418 -2 L1610 -2 L1610 1457 Z " />
<glyph glyph-name="N" unicode="N" horiz-adv-x="1616" d="M1426 1457 L1233 1457 L1233 323 L347 1457 L190 1457 L190 -2 L383 -2 L383 1132 L1269 -2 L1426 -2 L1426 1457 Z " />
<glyph glyph-name="O" unicode="O" horiz-adv-x="1727" d="M864 154 C707 154 573 210 462 322 C351 434 295 569 295 728 C295 886 351 1021 462 1133 C573 1245 707 1301 864 1301 C1021 1301 1155 1245 1266 1133 C1377 1021 1432 886 1432 728 C1432 569 1377 434 1266 322 C1155 210 1021 154 864 154 L864 154 Z M864 -24 C1075 -24 1255 49 1404 196 C1553 343 1627 520 1627 728 C1627 935 1553 1112 1404 1259 C1255 1406 1075 1479 864 1479 C653 1479 473 1406 324 1259 C175 1112 100 935 100 728 C100 520 175 343 324 196 C473 49 653 -24 864 -24 L864 -24 Z " />
<glyph glyph-name="P" unicode="P" horiz-adv-x="1367" d="M385 725 L385 1289 L773 1289 C851 1289 921 1267 982 1223 C1043 1178 1074 1106 1074 1007 C1074 907 1043 835 982 791 C921 747 851 725 773 725 L385 725 Z M385 557 L784 557 C921 557 1036 598 1128 679 C1220 760 1266 869 1266 1007 C1266 1152 1218 1264 1121 1341 C1024 1418 912 1457 784 1457 L190 1457 L190 -2 L385 -2 L385 557 Z " />
<glyph glyph-name="Q" unicode="Q" horiz-adv-x="1727" d="M864 154 C707 154 573 210 462 322 C351 434 295 569 295 728 C295 886 351 1021 462 1133 C573 1245 707 1301 864 1301 C1021 1301 1155 1245 1266 1133 C1377 1021 1432 886 1432 728 C1432 569 1377 434 1266 322 C1155 210 1021 154 864 154 L864 154 Z M1163 -430 C1213 -429 1260 -426 1304 -419 L1304 -266 C1262 -274 1225 -278 1193 -278 C1112 -277 1053 -257 1016 -217 C978 -177 959 -128 959 -69 L959 -13 C1151 12 1310 94 1437 232 C1564 370 1627 535 1627 728 C1627 934 1553 1111 1404 1258 C1255 1405 1075 1479 864 1479 C653 1479 473 1406 324 1259 C175 1112 100 935 100 728 C100 536 163 371 290 233 C417 94 576 12 768 -13 L768 -69 C768 -184 806 -273 881 -336 C956 -398 1050 -429 1163 -430 L1163 -430 Z " />
<glyph glyph-name="R" unicode="R" horiz-adv-x="1380" d="M385 725 L385 1289 L773 1289 C851 1289 921 1267 982 1223 C1043 1178 1074 1106 1074 1007 C1074 907 1043 835 982 791 C921 747 851 725 773 725 L385 725 Z M902 585 C1003 604 1089 644 1160 707 C1231 769 1266 869 1266 1007 C1266 1152 1218 1264 1121 1341 C1024 1418 912 1457 784 1457 L190 1457 L190 -2 L385 -2 L385 557 L694 557 L1135 -2 L1368 -2 L902 585 Z " />
<glyph glyph-name="S" unicode="S" horiz-adv-x="1324" d="M684 -23 C843 -23 979 18 1093 100 C1207 181 1264 280 1264 396 C1261 507 1229 588 1168 637 C1107 686 1031 723 942 748 L554 862 C495 878 448 901 412 930 C375 959 357 1004 356 1064 C356 1133 389 1190 455 1237 C521 1283 599 1306 689 1306 C856 1306 982 1250 1070 1135 L1212 1250 C1079 1414 895 1481 684 1481 C533 1481 405 1440 299 1358 C192 1276 139 1177 139 1061 C139 953 167 874 223 825 C279 776 349 740 432 717 L825 601 C890 584 943 561 985 533 C1026 505 1047 458 1047 393 C1047 324 1011 267 939 221 C867 174 782 151 684 151 C593 151 503 172 414 215 C324 258 261 313 224 381 L89 268 C137 179 218 108 332 56 C446 3 563 -23 684 -23 L684 -23 Z " />
<glyph glyph-name="T" unicode="T" horiz-adv-x="1195" d="M696 1290 L1176 1290 L1176 1457 L20 1457 L20 1290 L500 1290 L500 -2 L696 -2 L696 1290 Z " />
<glyph glyph-name="U" unicode="U" horiz-adv-x="1520" d="M760 -24 C927 -24 1063 17 1170 98 C1277 179 1330 281 1330 405 L1330 1457 L1135 1457 L1135 434 C1135 344 1098 274 1025 225 C951 175 863 150 760 150 C654 150 565 177 493 231 C421 284 385 352 385 434 L385 1457 L190 1457 L190 405 C190 290 242 189 347 104 C452 19 589 -24 760 -24 L760 -24 Z " />
<glyph glyph-name="V" unicode="V" horiz-adv-x="1486" d="M1417 1457 L1190 1457 L743 262 L297 1457 L70 1457 L665 -1 L822 -1 L1417 1457 Z " />
<glyph glyph-name="W" unicode="W" horiz-adv-x="2053" d="M2033 1457 L1805 1457 L1479 266 L1103 1457 L950 1457 L577 266 L247 1457 L20 1457 L486 -1 L665 -1 L1026 1146 L1398 -1 L1566 -1 L2033 1457 Z " />
<glyph glyph-name="X" unicode="X" horiz-adv-x="1425" d="M833 728 L1370 1457 L1120 1457 L713 887 L304 1457 L55 1457 L591 728 L55 -2 L304 -2 L713 567 L1120 -2 L1370 -2 L833 728 Z " />
<glyph glyph-name="Y" unicode="Y" horiz-adv-x="1405" d="M800 691 L1360 1457 L1110 1457 L703 886 L294 1457 L45 1457 L605 691 L605 -2 L800 -2 L800 691 Z " />
<glyph glyph-name="Z" unicode="Z" horiz-adv-x="1249" d="M1149 166 L375 166 L1149 1345 L1149 1457 L100 1457 L100 1289 L875 1289 L100 111 L100 -2 L1149 -2 L1149 166 Z " />
<glyph glyph-name="bracketleft" unicode="&#x5b;" horiz-adv-x="500" d="M500 -269 L309 -269 L309 1321 L500 1321 L500 1458 L152 1458 L152 -405 L500 -405 L500 -269 Z " />
<glyph glyph-name="backslash" unicode="&#x5c;" horiz-adv-x="671" d="M615 -24 L212 1480 L56 1480 L459 -24 L615 -24 Z " />
<glyph glyph-name="bracketright" unicode="&#x5d;" horiz-adv-x="500" d="M348 1458 L0 1458 L0 1321 L191 1321 L191 -269 L0 -269 L0 -405 L348 -405 L348 1458 Z " />
<glyph glyph-name="asciicircum" unicode="&#x5e;" horiz-adv-x="1289" d="M736 1458 L554 1458 L98 728 L278 728 L645 1304 L1012 728 L1191 728 L736 1458 Z " />
<glyph glyph-name="underscore" unicode="&#x5f;" horiz-adv-x="1289" d="M1334 -273 L-44 -273 L-44 -405 L1334 -405 L1334 -273 Z " />
<glyph glyph-name="grave" unicode="&#x60;" horiz-adv-x="920" d="M434 1492 L227 1492 L554 1185 L692 1185 L434 1492 Z " />
<glyph glyph-name="a" unicode="a" horiz-adv-x="1197" d="M534 144 C471 144 415 157 364 182 C313 207 287 249 287 310 C287 405 378 464 523 464 L855 464 L855 322 C855 277 824 236 762 199 C700 162 624 144 534 144 L534 144 Z M478 -23 C669 -23 800 36 870 153 L870 -1 L1045 -1 L1045 727 C1045 852 995 943 896 1000 C797 1057 689 1085 573 1085 C394 1085 263 1017 162 926 L282 808 C366 879 458 920 562 920 C637 920 705 902 765 865 C825 828 855 780 855 719 L855 614 L521 614 C396 614 294 584 215 524 C136 464 96 388 96 295 C96 193 136 115 217 60 C297 5 384 -23 478 -23 L478 -23 Z " />
<glyph glyph-name="b" unicode="b" horiz-adv-x="1377" d="M710 143 C605 143 515 181 441 257 C366 332 329 424 329 531 C329 638 366 730 441 806 C515 882 605 920 710 920 C815 920 905 882 980 806 C1054 730 1091 638 1091 531 C1091 424 1054 332 980 257 C905 181 815 143 710 143 L710 143 Z M746 -23 C895 -23 1021 31 1125 140 C1229 248 1281 378 1281 531 C1281 684 1229 815 1125 923 C1021 1031 895 1085 746 1085 C578 1085 443 1006 342 847 L342 1458 L152 1458 L152 0 L329 0 L329 230 C432 61 571 -23 746 -23 L746 -23 Z " />
<glyph glyph-name="c" unicode="c" horiz-adv-x="1110" d="M680 -24 C820 -24 945 21 1054 110 L943 240 C874 175 788 142 686 142 C579 142 487 179 409 253 C330 327 291 420 291 531 C291 642 330 734 409 808 C487 882 579 919 686 919 C788 919 874 886 943 821 L1054 951 C945 1040 820 1085 680 1085 C521 1085 384 1034 270 933 C156 831 98 697 96 531 C97 364 155 229 270 128 C384 27 521 -24 680 -24 L680 -24 Z " />
<glyph glyph-name="d" unicode="d" horiz-adv-x="1378" d="M667 143 C562 143 473 181 399 257 C324 332 287 424 287 531 C287 638 324 730 399 806 C473 882 562 920 667 920 C772 920 862 882 937 806 C1011 730 1048 638 1048 531 C1048 424 1011 332 937 257 C862 181 772 143 667 143 L667 143 Z M632 -23 C807 -23 946 61 1048 230 L1048 0 L1226 0 L1226 1458 L1035 1458 L1035 847 C934 1006 800 1085 632 1085 C483 1085 356 1031 252 923 C148 815 96 684 96 531 C96 378 148 248 252 140 C356 31 483 -23 632 -23 L632 -23 Z " />
<glyph glyph-name="e" unicode="e" horiz-adv-x="1226" d="M288 614 C294 699 328 773 391 838 C453 903 535 935 638 935 C746 935 827 906 882 849 C937 792 970 713 982 614 L288 614 Z M677 -24 C816 -24 948 21 1072 111 L961 239 C868 173 773 140 677 140 C570 140 481 172 409 237 C336 302 296 377 289 463 L1163 463 C1168 488 1170 510 1170 531 C1170 688 1121 820 1024 926 C926 1032 797 1085 638 1085 C483 1085 354 1033 251 928 C148 823 97 691 96 533 C98 374 155 242 266 136 C377 29 514 -24 677 -24 L677 -24 Z " />
<glyph glyph-name="f" unicode="f" horiz-adv-x="843" d="M443 910 L787 910 L787 1063 L443 1063 L443 1128 C443 1184 465 1231 508 1270 C551 1309 607 1328 677 1328 C708 1328 744 1324 787 1317 L787 1469 C744 1476 697 1480 647 1480 C534 1480 440 1450 365 1391 C290 1331 252 1243 252 1128 L252 1063 L32 1063 L32 910 L252 910 L252 -1 L443 -1 L443 910 Z " />
<glyph glyph-name="g" unicode="g" horiz-adv-x="1378" d="M668 142 C563 142 473 180 399 256 C324 332 287 424 287 531 C287 638 324 729 399 805 C473 881 563 919 668 919 C773 919 862 881 937 805 C1011 729 1048 638 1048 531 C1048 424 1011 332 937 256 C862 180 773 142 668 142 L668 142 Z M659 -428 C812 -428 945 -383 1057 -293 C1168 -203 1224 -83 1224 66 L1226 1062 L1048 1062 L1048 831 C946 1000 807 1085 632 1085 C483 1085 356 1031 252 923 C148 814 96 684 96 531 C96 378 148 250 251 149 C354 48 480 -3 629 -3 C797 -3 932 75 1033 230 L1033 66 C1033 -33 995 -111 919 -168 C842 -225 753 -254 651 -254 C516 -254 406 -219 322 -148 L236 -278 C365 -378 506 -428 659 -428 L659 -428 Z " />
<glyph glyph-name="h" unicode="h" horiz-adv-x="1314" d="M343 610 C343 697 374 771 437 834 C500 897 578 928 673 928 C760 928 831 902 886 850 C941 798 970 729 971 642 L972 -1 L1162 -1 L1162 658 C1159 787 1117 891 1035 969 C952 1046 847 1085 719 1085 C551 1085 427 1015 343 880 L343 1458 L152 1458 L152 -1 L343 -1 L343 610 L343 610 Z " />
<glyph glyph-name="i" unicode="i" horiz-adv-x="495" d="M152 -1 L343 -1 L343 1063 L152 1063 L152 -1 Z M248 1483 C213 1483 184 1471 160 1447 C135 1422 123 1393 123 1358 C123 1324 135 1295 160 1271 C184 1246 213 1234 248 1234 C282 1234 311 1246 336 1271 C360 1295 372 1324 372 1358 C372 1393 360 1422 336 1447 C311 1471 282 1483 248 1483 L248 1483 Z " />
<glyph glyph-name="j" unicode="j" horiz-adv-x="523" d="M262 1483 C228 1483 199 1471 175 1447 C150 1422 138 1393 138 1358 C138 1324 150 1295 175 1271 C199 1246 228 1234 262 1234 C296 1234 325 1246 350 1271 C374 1295 386 1324 386 1358 C386 1393 374 1422 350 1447 C325 1471 296 1483 262 1483 L262 1483 Z M167 1063 L167 -66 C167 -202 92 -275 -68 -275 C-112 -275 -139 -271 -178 -264 L-178 -416 C-135 -423 -88 -427 -38 -427 C76 -426 170 -395 245 -333 C320 -270 357 -181 357 -66 L357 1063 L167 1063 Z " />
<glyph glyph-name="k" unicode="k" horiz-adv-x="1169" d="M858 1063 L343 494 L343 1458 L152 1458 L152 -1 L343 -1 L343 277 L529 464 L920 -1 L1169 -1 L665 599 L1128 1063 L858 1063 Z " />
<glyph glyph-name="l" unicode="l" horiz-adv-x="525" d="M167 -1 L358 -1 L358 1458 L167 1458 L167 -1 Z " />
<glyph glyph-name="m" unicode="m" horiz-adv-x="1837" d="M175 -1 L365 -1 L365 654 C365 732 390 796 439 846 C488 895 547 920 615 920 C676 920 728 898 772 855 C815 811 837 754 837 685 L837 -1 L1028 -1 L1028 656 C1028 726 1051 788 1097 841 C1142 894 1202 920 1276 920 C1335 920 1387 898 1430 855 C1473 811 1495 754 1495 685 L1495 -1 L1685 -1 L1685 684 C1685 794 1651 888 1583 966 C1514 1043 1426 1083 1317 1085 C1224 1085 1152 1064 1099 1023 C1046 982 1006 931 978 871 C911 1014 805 1085 660 1085 C521 1085 423 1004 352 885 L352 1063 L175 1063 L175 -1 Z " />
<glyph glyph-name="n" unicode="n" horiz-adv-x="1337" d="M994 -1 L1185 -1 L1184 649 C1182 783 1141 889 1060 968 C979 1046 874 1085 747 1085 C649 1085 569 1064 506 1022 C443 980 391 926 352 860 L352 1063 L175 1063 L175 -1 L365 -1 L365 613 C365 702 397 775 460 833 C523 891 601 920 695 920 C780 920 850 896 907 847 C963 798 992 732 994 647 L994 -1 Z " />
<glyph glyph-name="o" unicode="o" horiz-adv-x="1316" d="M658 920 C761 920 848 882 921 806 C994 730 1030 638 1030 531 C1030 424 994 332 921 257 C848 181 761 143 658 143 C555 143 468 181 395 257 C322 332 286 424 286 531 C286 638 322 730 395 806 C468 882 555 920 658 920 L658 920 Z M658 1085 C503 1085 370 1031 261 923 C151 815 96 684 96 531 C96 378 151 248 261 140 C370 31 503 -23 658 -23 C813 -23 946 31 1056 140 C1165 248 1220 378 1220 531 C1220 684 1165 815 1056 923 C946 1031 813 1085 658 1085 L658 1085 Z " />
<glyph glyph-name="p" unicode="p" horiz-adv-x="1378" d="M710 142 C605 142 516 180 442 256 C367 332 330 424 330 531 C330 638 367 729 442 805 C516 881 605 919 710 919 C815 919 905 881 980 805 C1054 729 1091 638 1091 531 C1091 424 1054 332 980 256 C905 180 815 142 710 142 L710 142 Z M746 -24 C895 -24 1022 30 1126 139 C1230 247 1282 378 1282 531 C1282 684 1230 814 1126 923 C1022 1031 895 1085 746 1085 C571 1085 432 1000 330 831 L330 1062 L152 1062 L152 -405 L343 -405 L343 212 C444 55 578 -24 746 -24 L746 -24 Z " />
<glyph glyph-name="q" unicode="q" horiz-adv-x="1377" d="M667 142 C562 142 472 180 398 256 C323 332 286 424 286 531 C286 638 323 729 398 805 C472 881 562 919 667 919 C772 919 862 881 937 805 C1011 729 1048 638 1048 531 C1048 424 1011 332 937 256 C862 180 772 142 667 142 L667 142 Z M631 -24 C799 -24 934 56 1035 215 L1035 -405 L1225 -405 L1225 1062 L1048 1062 L1048 831 C945 1000 806 1085 631 1085 C482 1085 356 1031 252 923 C148 814 96 684 96 531 C96 378 148 247 252 139 C356 30 482 -24 631 -24 L631 -24 Z " />
<glyph glyph-name="r" unicode="r" horiz-adv-x="804" d="M152 -13 L343 -13 L343 636 C343 715 369 780 420 831 C471 882 530 908 597 908 C630 908 669 898 694 887 L770 1036 C730 1061 680 1074 620 1074 C485 1074 388 1009 330 879 L330 1051 L152 1051 L152 -13 Z " />
<glyph glyph-name="s" unicode="s" horiz-adv-x="1052" d="M520 -23 C624 -23 723 2 816 53 C909 103 956 179 956 281 C956 361 933 420 887 458 C841 495 786 524 722 543 L421 640 C350 664 303 693 303 769 C303 814 325 852 370 883 C414 913 474 928 550 928 C629 928 728 896 845 832 L926 963 C802 1040 671 1078 534 1078 C423 1078 323 1049 233 992 C142 934 97 855 96 755 C99 632 167 552 299 511 L610 415 C650 404 683 389 710 370 C736 351 749 321 749 280 C749 235 726 198 680 169 C634 140 574 125 500 125 C439 125 374 137 307 160 C239 183 182 215 135 256 L56 128 C107 76 176 38 264 14 C352 -11 437 -23 520 -23 L520 -23 Z " />
<glyph glyph-name="t" unicode="t" horiz-adv-x="843" d="M647 -35 C696 -34 743 -30 787 -23 L787 129 C740 121 703 117 676 117 C517 117 442 189 442 326 L442 909 L787 909 L787 1062 L442 1062 L442 1388 L252 1320 L252 1062 L32 1062 L32 909 L252 909 L252 326 C252 211 289 123 364 60 C439 -3 533 -34 647 -35 L647 -35 Z " />
<glyph glyph-name="u" unicode="u" horiz-adv-x="1319" d="M589 -25 C764 -25 890 50 967 200 L967 -2 L1145 -2 L1145 1062 L954 1062 L954 448 C954 359 924 286 864 228 C804 170 727 141 633 141 C548 141 479 165 426 214 C372 262 344 329 343 414 L342 1062 L152 1062 L152 411 C155 278 196 172 277 93 C358 14 462 -25 589 -25 L589 -25 Z " />
<glyph glyph-name="v" unicode="v" horiz-adv-x="1143" d="M1123 1062 L914 1062 L571 171 L229 1062 L20 1062 L478 -2 L665 -2 L1123 1062 Z " />
<glyph glyph-name="w" unicode="w" horiz-adv-x="1676" d="M1656 1062 L1444 1062 L1183 201 L925 1062 L759 1062 L495 201 L232 1062 L20 1062 L401 -2 L588 -2 L838 785 L1090 -2 L1277 -2 L1656 1062 Z " />
<glyph glyph-name="x" unicode="x" horiz-adv-x="1088" d="M683 541 L1068 1062 L827 1062 L544 651 L261 1062 L20 1062 L412 542 L20 -2 L261 -2 L544 432 L827 -2 L1068 -2 L683 541 Z " />
<glyph glyph-name="y" unicode="y" horiz-adv-x="1117" d="M244 -428 C416 -428 519 -334 578 -183 L1089 1062 L877 1062 L572 262 L262 1062 L40 1062 L487 45 L403 -153 C388 -190 371 -220 350 -243 C329 -266 293 -277 244 -277 C195 -277 152 -273 115 -266 L115 -417 C160 -424 203 -428 244 -428 L244 -428 Z " />
<glyph glyph-name="z" unicode="z" horiz-adv-x="1085" d="M989 151 L347 151 L989 909 L989 1062 L96 1062 L96 909 L738 909 L96 151 L96 -2 L989 -2 L989 151 Z " />
<glyph glyph-name="braceleft" unicode="&#x7b;" horiz-adv-x="500" d="M447 -269 L404 -269 C367 -269 337 -238 337 -201 L337 373 C337 438 294 502 238 526 C294 550 337 614 337 679 L337 1253 C337 1290 367 1321 404 1321 L447 1321 L447 1458 L384 1458 C328 1458 280 1438 240 1398 C200 1358 180 1310 180 1253 L180 679 C180 653 169 632 148 616 C126 599 102 590 77 589 L77 463 C102 462 126 453 148 437 C169 420 180 399 180 373 L180 -201 C180 -258 200 -306 240 -346 C280 -385 328 -405 384 -405 L447 -405 L447 -269 Z " />
<glyph glyph-name="bar" unicode="&#x7c;" horiz-adv-x="1289" d="M719 1480 L570 1480 L570 -427 L719 -427 L719 1480 Z " />
<glyph glyph-name="braceright" unicode="&#x7d;" horiz-adv-x="500" d="M116 -405 C173 -405 221 -385 261 -346 C300 -306 320 -258 320 -201 L320 373 C320 399 331 420 353 437 C375 453 398 462 423 463 L423 589 C398 590 375 599 353 616 C331 632 320 653 320 679 L320 1253 C320 1310 300 1358 261 1398 C221 1438 173 1458 116 1458 L53 1458 L53 1321 L96 1321 C133 1321 164 1290 164 1253 L164 679 C164 614 206 550 263 526 C207 502 164 438 164 373 L164 -201 C164 -238 133 -269 96 -269 L53 -269 L53 -405 L116 -405 L116 -405 Z " />
<glyph glyph-name="asciitilde" unicode="&#x7e;" horiz-adv-x="1289" d="M828 604 C943 604 1024 657 1070 762 L963 830 C935 768 888 737 823 737 C770 737 719 754 671 788 C609 831 538 853 459 853 C343 853 263 799 219 691 L324 627 C352 688 399 719 464 719 C517 719 568 702 616 668 C677 625 748 604 828 604 L828 604 Z " />
<glyph glyph-name="exclamdown" unicode="&#xa1;" horiz-adv-x="752" d="M276 -426 L475 -426 L448 656 L302 656 L276 -426 Z M375 1078 C340 1078 311 1066 286 1041 C261 1016 249 987 249 952 C249 917 261 888 286 863 C311 838 340 826 375 826 C410 826 440 838 465 863 C489 888 501 917 501 952 C501 987 489 1016 465 1041 C440 1066 410 1078 375 1078 L375 1078 Z " />
<glyph glyph-name="cent" unicode="&#xa2;" horiz-adv-x="1289" d="M581 3 C634 -15 688 -24 745 -24 C884 -24 1009 20 1119 109 L1005 234 C938 172 853 141 750 141 C644 141 553 178 476 252 C399 326 361 419 361 530 C361 641 399 734 476 808 C553 881 644 918 750 918 C853 918 938 887 1005 825 L1119 950 C1044 1010 960 1049 866 1067 L924 1282 L767 1282 L714 1081 C554 1068 423 1010 322 907 C220 804 169 678 169 530 C169 329 260 173 441 62 L364 -222 L521 -222 L581 3 Z " />
<glyph glyph-name="sterling" unicode="&#xa3;" horiz-adv-x="1289" d="M1159 152 L478 152 L478 656 L819 656 L819 800 L478 800 L478 1043 C478 1210 556 1300 723 1300 C797 1300 858 1285 905 1254 C952 1223 998 1180 1043 1123 L1159 1242 C1098 1318 1035 1377 970 1418 C905 1459 816 1480 705 1480 C572 1480 469 1436 395 1348 C320 1259 283 1154 283 1031 L283 800 L171 800 L171 656 L283 656 L283 152 L130 152 L130 -1 L1159 -1 L1159 152 Z " />
<glyph glyph-name="currency" unicode="&#xa4;" horiz-adv-x="1289" d="M644 489 C578 489 522 512 476 559 C429 604 406 660 406 727 C406 792 429 848 476 895 C523 942 579 965 644 965 C711 965 768 942 813 895 C859 850 882 794 882 727 C882 660 859 604 813 559 C768 512 711 489 644 489 L644 489 Z M1138 326 L949 515 C996 582 1020 652 1020 727 C1020 802 996 872 949 939 L1138 1127 L1045 1221 L856 1032 C790 1079 719 1103 644 1103 C569 1103 499 1079 433 1032 L244 1221 L150 1127 L339 939 C292 872 268 802 268 727 C268 652 292 582 339 515 L150 326 L244 233 L433 422 C499 375 569 351 644 351 C719 351 790 375 856 422 L1045 233 L1138 326 Z " />
<glyph glyph-name="yen" unicode="&#xa5;" horiz-adv-x="1289" d="M742 459 L1173 459 L1173 608 L742 608 L742 690 L858 849 L1173 849 L1173 998 L967 998 L1302 1456 L1052 1456 L645 885 L236 1456 L-13 1456 L321 998 L115 998 L115 849 L430 849 L546 690 L546 608 L115 608 L115 459 L546 459 L546 -3 L742 -3 L742 459 Z " />
<glyph glyph-name="brokenbar" unicode="&#xa6;" horiz-adv-x="1289" d="M719 404 L570 404 L570 -427 L719 -427 L719 404 Z M719 1480 L570 1480 L570 649 L719 649 L719 1480 Z " />
<glyph glyph-name="section" unicode="&#xa7;" horiz-adv-x="1289" d="M636 -427 C785 -427 912 -387 1017 -308 C1122 -228 1175 -132 1175 -19 C1175 55 1161 116 1132 163 C1195 226 1226 300 1226 384 C1226 484 1200 560 1149 612 C1097 663 1032 701 953 726 C874 750 791 769 705 783 C590 801 490 828 404 863 C318 898 275 967 275 1070 C275 1147 313 1213 388 1267 C463 1320 553 1347 656 1347 C840 1347 974 1282 1066 1163 L1175 1248 C1054 1396 884 1478 653 1478 C504 1478 377 1438 272 1359 C167 1279 114 1183 114 1070 C114 996 128 935 157 887 C94 824 63 750 63 667 C63 567 89 491 141 440 C193 388 258 350 337 326 C416 301 498 282 584 267 C699 250 799 223 885 188 C971 152 1014 83 1014 -19 C1014 -96 976 -162 901 -216 C826 -269 736 -296 633 -296 C532 -296 449 -279 384 -244 C318 -209 264 -165 223 -112 L114 -197 C231 -341 399 -427 636 -427 L636 -427 Z M1026 265 C953 312 829 351 654 381 C539 398 438 425 353 461 C267 496 224 565 224 667 C224 710 237 750 263 785 C337 738 461 700 635 670 C750 653 851 626 937 591 C1022 555 1065 486 1065 384 C1065 341 1052 301 1026 265 L1026 265 Z " />
<glyph glyph-name="dieresis" unicode="&#xa8;" horiz-adv-x="920" d="M288 1259 C343 1259 387 1303 387 1358 C387 1413 343 1457 288 1457 C233 1457 189 1413 189 1358 C189 1303 233 1259 288 1259 L288 1259 Z M633 1259 C688 1259 732 1303 732 1358 C732 1413 688 1457 633 1457 C578 1457 534 1413 534 1358 C534 1303 578 1259 633 1259 L633 1259 Z " />
<glyph glyph-name="copyright" unicode="&#xa9;" horiz-adv-x="1878" d="M939 107 C766 107 619 168 497 289 C374 410 313 556 313 727 C313 898 374 1044 497 1165 C619 1286 766 1346 939 1346 C1112 1346 1259 1286 1382 1165 C1504 1044 1565 898 1565 727 C1565 556 1504 410 1382 289 C1259 168 1112 107 939 107 L939 107 Z M939 -25 C1150 -25 1330 48 1479 195 C1628 342 1703 519 1703 727 C1703 934 1628 1112 1479 1259 C1330 1406 1150 1479 939 1479 C728 1479 548 1406 399 1259 C250 1112 175 934 175 727 C175 519 250 342 399 195 C548 48 728 -25 939 -25 L939 -25 Z M952 381 C1037 381 1113 407 1178 459 L1104 556 C1061 519 1011 501 952 501 C889 501 835 523 789 566 C742 609 719 663 719 727 C719 790 742 844 789 887 C835 930 889 952 952 952 C1011 952 1061 934 1104 897 L1178 994 C1113 1046 1037 1072 952 1072 C856 1072 772 1039 701 973 C630 906 594 824 594 727 C594 629 630 547 701 481 C772 414 856 381 952 381 L952 381 Z " />
<glyph glyph-name="ordfeminine" unicode="&#xaa;" horiz-adv-x="809" d="M357 829 C314 829 276 839 244 860 C211 881 195 909 195 944 C195 1015 254 1048 350 1048 L569 1048 L569 958 C569 919 545 888 496 865 C447 841 400 829 357 829 L357 829 Z M320 718 C446 718 533 754 580 825 L580 733 L709 733 L709 1232 C709 1319 675 1382 607 1421 C539 1460 466 1480 388 1480 C272 1480 175 1442 98 1366 L187 1279 C250 1331 313 1357 377 1357 C414 1357 456 1347 501 1327 C546 1306 569 1273 569 1226 L569 1154 L349 1154 C263 1154 193 1136 138 1099 C83 1062 56 1009 56 939 C56 872 83 819 137 779 C191 738 252 718 320 718 L320 718 Z " />
<glyph glyph-name="guillemotleft" unicode="&#xab;" horiz-adv-x="1231" d="M384 531 L647 986 L475 986 L212 531 L475 75 L647 75 L384 531 Z M782 531 L1045 986 L873 986 L610 531 L873 75 L1045 75 L782 531 Z " />
<glyph glyph-name="logicalnot" unicode="&#xac;" horiz-adv-x="1289" d="M1202 713 L87 713 L87 581 L1053 581 L1053 348 L1202 348 L1202 713 Z " />
<glyph glyph-name="registered" unicode="&#xae;" horiz-adv-x="1878" d="M833 737 L833 966 L981 966 C1062 966 1103 928 1105 851 C1105 775 1064 737 981 737 L833 737 Z M1078 664 C1171 691 1217 753 1217 851 C1217 994 1141 1066 989 1067 L713 1067 L713 387 L833 387 L833 645 L953 645 L1143 387 L1287 387 L1078 664 Z M939 107 C766 107 619 168 497 289 C374 410 313 556 313 727 C313 898 374 1044 497 1165 C619 1286 766 1346 939 1346 C1112 1346 1259 1286 1382 1165 C1504 1044 1565 898 1565 727 C1565 556 1504 410 1382 289 C1259 168 1112 107 939 107 L939 107 Z M939 -25 C1150 -25 1330 48 1479 195 C1628 342 1703 519 1703 727 C1703 934 1628 1112 1479 1259 C1330 1406 1150 1479 939 1479 C728 1479 548 1406 399 1259 C250 1112 175 934 175 727 C175 519 250 342 399 195 C548 48 728 -25 939 -25 L939 -25 Z " />
<glyph glyph-name="overscore" unicode="&#xaf;" horiz-adv-x="920" d="M763 1417 L156 1417 L156 1298 L763 1298 L763 1417 Z " />
<glyph glyph-name="degree" unicode="&#xb0;" horiz-adv-x="637" d="M286 1082 C245 1082 211 1096 183 1125 C154 1154 140 1188 140 1229 C140 1270 154 1305 183 1334 C211 1363 245 1377 286 1377 C326 1377 360 1363 389 1334 C417 1305 431 1270 431 1229 C431 1188 417 1154 389 1125 C360 1096 326 1082 286 1082 L286 1082 Z M286 979 C355 979 414 1004 463 1053 C512 1102 536 1160 536 1229 C536 1298 512 1358 463 1407 C414 1456 355 1480 286 1480 C217 1480 158 1456 109 1407 C60 1358 35 1298 35 1229 C35 1160 60 1102 109 1053 C158 1004 217 979 286 979 L286 979 Z " />
<glyph glyph-name="plusminus" unicode="&#xb1;" horiz-adv-x="1289" d="M719 690 L1084 690 L1084 822 L719 822 L719 1194 L570 1194 L570 822 L205 822 L205 690 L570 690 L570 318 L719 318 L719 690 Z M1084 132 L205 132 L205 0 L1084 0 L1084 132 Z " />
<glyph glyph-name="uni00B2" unicode="&#xb2;" horiz-adv-x="685" d="M614 866 L336 866 L549 1082 C596 1129 620 1181 620 1239 C620 1318 592 1379 535 1420 C478 1461 413 1481 340 1481 C220 1481 128 1435 65 1342 L175 1250 C213 1308 265 1337 332 1337 C361 1337 389 1330 418 1315 C447 1300 461 1275 461 1241 C461 1218 453 1199 438 1183 L81 831 L81 726 L614 726 L614 866 Z " />
<glyph glyph-name="uni00B3" unicode="&#xb3;" horiz-adv-x="685" d="M332 715 C401 715 467 734 530 772 C593 810 624 868 624 946 C624 1010 578 1069 505 1098 C566 1137 596 1187 596 1250 C596 1327 570 1385 517 1424 C464 1462 403 1481 334 1481 C221 1481 133 1435 70 1344 L180 1251 C217 1308 265 1337 326 1337 C351 1337 376 1331 401 1319 C425 1306 437 1284 437 1252 C437 1221 425 1199 401 1186 C377 1173 352 1166 326 1166 L263 1166 L263 1029 L326 1029 C351 1029 381 1023 415 1011 C448 998 465 976 465 944 C465 911 448 889 414 877 C380 865 350 859 324 859 C257 859 205 888 170 945 L60 852 C121 761 212 715 332 715 L332 715 Z " />
<glyph glyph-name="acute" unicode="&#xb4;" horiz-adv-x="920" d="M692 1492 L485 1492 L227 1185 L365 1185 L692 1492 Z " />
<glyph glyph-name="&amp;#xb5;" unicode="&#xb5;" horiz-adv-x="1297" d="M330 119 C388 24 475 -24 592 -24 C767 -24 892 51 967 201 L967 -2 L1145 -2 L1145 1062 L954 1062 L954 448 C954 359 924 286 864 228 C804 170 727 141 633 141 C548 141 479 165 426 214 C372 263 344 329 343 414 L342 1062 L152 1062 L152 -404 L330 -404 L330 119 Z " />
<glyph glyph-name="&amp;#x3bc;" unicode="&#x3bc;" horiz-adv-x="1297" d="M330 119 C388 24 475 -24 592 -24 C767 -24 892 51 967 201 L967 -2 L1145 -2 L1145 1062 L954 1062 L954 448 C954 359 924 286 864 228 C804 170 727 141 633 141 C548 141 479 165 426 214 C372 263 344 329 343 414 L342 1062 L152 1062 L152 -404 L330 -404 L330 119 Z " />
<glyph glyph-name="paragraph" unicode="&#xb6;" horiz-adv-x="1176" d="M1076 1481 L476 1481 C372 1481 283 1444 210 1371 C137 1298 100 1209 100 1105 C100 1001 137 912 210 839 C283 766 372 729 476 729 L476 -426 L625 -426 L625 1349 L927 1349 L927 -426 L1076 -426 L1076 1481 Z " />
<glyph glyph-name="&amp;#xb7;" unicode="&#xb7;" horiz-adv-x="556" d="M278 401 C313 401 342 413 367 438 C392 463 404 492 404 527 C404 562 392 592 367 617 C342 641 313 653 278 653 C208 653 152 597 152 527 C152 492 164 463 189 438 C213 413 243 401 278 401 L278 401 Z " />
<glyph glyph-name="&amp;#x2219;" unicode="&#x2219;" horiz-adv-x="556" d="M278 401 C313 401 342 413 367 438 C392 463 404 492 404 527 C404 562 392 592 367 617 C342 641 313 653 278 653 C208 653 152 597 152 527 C152 492 164 463 189 438 C213 413 243 401 278 401 L278 401 Z " />
<glyph glyph-name="cedilla" unicode="&#xb8;" horiz-adv-x="920" d="M430 -410 C491 -410 546 -397 597 -370 C648 -343 673 -302 673 -249 C673 -156 610 -107 484 -103 L548 0 L439 0 L372 -120 L372 -181 L426 -181 C497 -181 533 -204 534 -250 C534 -275 522 -293 497 -306 C472 -318 448 -324 425 -324 C380 -324 336 -310 291 -283 L246 -358 C297 -393 358 -410 430 -410 L430 -410 Z " />
<glyph glyph-name="uni00B9" unicode="&#xb9;" horiz-adv-x="685" d="M449 1470 L302 1470 L95 1350 L165 1228 L290 1300 L290 726 L449 726 L449 1470 Z " />
<glyph glyph-name="ordmasculine" unicode="&#xba;" horiz-adv-x="929" d="M442 841 C373 841 315 866 268 917 C220 968 196 1028 196 1099 C196 1170 220 1230 268 1281 C315 1332 373 1357 442 1357 C511 1357 569 1332 617 1281 C665 1230 689 1170 689 1099 C689 1028 665 968 617 917 C569 866 511 841 442 841 L442 841 Z M442 718 C549 718 640 755 716 830 C791 904 829 994 829 1099 C829 1204 791 1294 716 1369 C640 1443 549 1480 442 1480 C335 1480 244 1443 169 1369 C94 1294 56 1204 56 1099 C56 994 94 904 169 830 C244 755 335 718 442 718 L442 718 Z " />
<glyph glyph-name="guillemotright" unicode="&#xbb;" horiz-adv-x="1231" d="M1019 531 L756 986 L584 986 L847 531 L584 75 L756 75 L1019 531 Z M621 531 L358 986 L186 986 L449 531 L186 75 L358 75 L621 531 Z " />
<glyph glyph-name="onequarter" unicode="&#xbc;" horiz-adv-x="1635" d="M444 1470 L297 1470 L90 1350 L160 1228 L285 1300 L285 726 L444 726 L444 1470 Z M1337 1481 L1141 1481 L273 -23 L469 -23 L1337 1481 Z M1457 112 L1545 112 L1545 252 L1457 252 L1457 399 L1312 399 L1312 252 L1109 252 L1396 740 L1224 740 L926 230 L926 112 L1312 112 L1312 -4 L1457 -4 L1457 112 Z " />
<glyph glyph-name="onehalf" unicode="&#xbd;" horiz-adv-x="1635" d="M1525 137 L1247 137 L1460 352 C1507 399 1531 451 1531 509 C1531 588 1503 649 1446 690 C1389 731 1324 751 1251 751 C1132 751 1040 705 976 612 L1086 520 C1124 578 1176 607 1243 607 C1272 607 1301 600 1330 585 C1358 570 1372 545 1372 511 C1372 489 1364 470 1349 454 L993 101 L993 -4 L1525 -4 L1525 137 Z M457 1470 L310 1470 L103 1350 L173 1228 L298 1300 L298 726 L457 726 L457 1470 Z M1348 1481 L1152 1481 L284 -23 L479 -23 L1348 1481 Z " />
<glyph glyph-name="threequarters" unicode="&#xbe;" horiz-adv-x="1635" d="M366 715 C435 715 501 734 564 772 C627 810 658 868 658 946 C658 1010 612 1069 539 1098 C600 1137 630 1187 630 1250 C630 1327 604 1385 551 1424 C498 1462 437 1481 368 1481 C255 1481 167 1435 104 1344 L214 1251 C251 1308 299 1337 360 1337 C385 1337 410 1331 435 1319 C459 1306 471 1284 471 1252 C471 1221 459 1199 435 1186 C411 1173 386 1166 360 1166 L297 1166 L297 1029 L360 1029 C385 1029 415 1023 449 1011 C482 998 499 976 499 944 C499 911 482 889 448 877 C414 865 384 859 358 859 C291 859 239 888 204 945 L94 852 C156 761 247 715 366 715 L366 715 Z M1332 1481 L1137 1481 L268 -23 L464 -23 L1332 1481 Z M1452 112 L1540 112 L1540 252 L1452 252 L1452 399 L1307 399 L1307 252 L1105 252 L1391 740 L1219 740 L921 230 L921 112 L1307 112 L1307 -4 L1452 -4 L1452 112 Z " />
<glyph glyph-name="questiondown" unicode="&#xbf;" horiz-adv-x="1158" d="M507 376 C382 360 274 324 185 269 C95 214 50 124 50 -1 C50 -130 102 -233 205 -310 C308 -387 436 -426 587 -426 C824 -426 997 -340 1108 -169 L974 -53 C897 -184 771 -249 598 -249 C497 -249 413 -226 348 -181 C282 -136 249 -76 249 -3 C249 70 278 125 336 162 C393 199 466 225 553 240 C625 251 658 293 659 362 L655 656 L508 656 L507 376 Z M582 1078 C547 1078 517 1066 492 1041 C467 1016 455 987 455 952 C455 917 467 888 492 863 C517 838 547 826 582 826 C617 826 646 838 671 863 C696 888 708 917 708 952 C708 987 696 1016 671 1041 C646 1066 617 1078 582 1078 L582 1078 Z " />
<glyph glyph-name="Agrave" unicode="&#xc0;" horiz-adv-x="1487" d="M512 574 L743 1194 L975 574 L512 574 Z M1190 -1 L1417 -1 L812 1457 L675 1457 L70 -1 L297 -1 L454 421 L1032 421 L1190 -1 Z M640 1891 L433 1891 L760 1584 L898 1584 L640 1891 Z " />
<glyph glyph-name="Aacute" unicode="&#xc1;" horiz-adv-x="1487" d="M512 574 L743 1194 L975 574 L512 574 Z M1190 -1 L1417 -1 L812 1457 L675 1457 L70 -1 L297 -1 L454 421 L1032 421 L1190 -1 Z M1053 1891 L846 1891 L588 1584 L726 1584 L1053 1891 Z " />
<glyph glyph-name="Acircumflex" unicode="&#xc2;" horiz-adv-x="1487" d="M512 574 L743 1194 L975 574 L512 574 Z M1190 -1 L1417 -1 L812 1457 L675 1457 L70 -1 L297 -1 L454 421 L1032 421 L1190 -1 Z M820 1911 L666 1911 L403 1604 L528 1604 L743 1817 L959 1604 L1083 1604 L820 1911 Z " />
<glyph glyph-name="Atilde" unicode="&#xc3;" horiz-adv-x="1487" d="M512 574 L743 1194 L975 574 L512 574 Z M1190 -1 L1417 -1 L812 1457 L675 1457 L70 -1 L297 -1 L454 421 L1032 421 L1190 -1 Z M897 1641 C1000 1641 1072 1692 1114 1794 L1019 1848 C1000 1788 957 1758 892 1758 C852 1758 810 1775 766 1809 C710 1852 651 1874 588 1874 C485 1874 414 1822 374 1718 L466 1666 C485 1726 528 1756 593 1756 C633 1756 675 1739 718 1706 C775 1663 834 1641 897 1641 L897 1641 Z " />
<glyph glyph-name="Adieresis" unicode="&#xc4;" horiz-adv-x="1487" d="M512 574 L743 1194 L975 574 L512 574 Z M1190 -1 L1417 -1 L812 1457 L675 1457 L70 -1 L297 -1 L454 421 L1032 421 L1190 -1 Z M571 1658 C626 1658 670 1702 670 1757 C670 1812 626 1856 571 1856 C516 1856 472 1812 472 1757 C472 1702 516 1658 571 1658 L571 1658 Z M916 1658 C971 1658 1015 1702 1015 1757 C1015 1812 971 1856 916 1856 C861 1856 817 1812 817 1757 C817 1702 861 1658 916 1658 L916 1658 Z " />
<glyph glyph-name="Aring" unicode="&#xc5;" horiz-adv-x="1487" d="M512 574 L743 1194 L975 574 L512 574 Z M1190 -1 L1417 -1 L812 1457 L675 1457 L70 -1 L297 -1 L454 421 L1032 421 L1190 -1 Z M744 1637 C683 1637 633 1687 633 1747 C633 1808 683 1858 744 1858 C804 1858 854 1808 854 1747 C854 1687 804 1637 744 1637 L744 1637 Z M744 1544 C800 1544 848 1564 888 1604 C927 1643 947 1691 947 1747 C947 1804 927 1852 888 1892 C848 1931 800 1951 744 1951 C687 1951 639 1931 600 1892 C560 1852 540 1804 540 1747 C540 1691 560 1643 600 1604 C639 1564 687 1544 744 1544 L744 1544 Z " />
<glyph glyph-name="AE" unicode="&#xc6;" horiz-adv-x="2092" d="M531 575 L833 1290 L1026 1290 L1026 575 L531 575 Z M1992 168 L1221 168 L1221 650 L1874 650 L1874 807 L1221 807 L1221 1290 L1992 1290 L1992 1458 L740 1458 L70 0 L297 0 L478 420 L1026 420 L1026 0 L1992 0 L1992 168 Z " />
<glyph glyph-name="Ccedilla" unicode="&#xc7;" horiz-adv-x="1524" d="M661 -120 L661 -181 L715 -181 C786 -181 822 -204 823 -250 C823 -275 811 -293 786 -306 C761 -318 738 -324 715 -324 C670 -324 625 -310 580 -283 L535 -358 C586 -393 648 -410 719 -410 C780 -410 835 -397 886 -370 C937 -343 962 -302 962 -249 C962 -156 899 -107 773 -103 L823 -23 C837 -24 851 -24 865 -24 C1072 -24 1250 48 1397 192 L1265 319 C1154 210 1021 156 865 156 C706 156 573 212 464 324 C355 435 301 570 301 728 C301 886 355 1021 464 1133 C573 1244 706 1300 865 1300 C1021 1300 1154 1245 1265 1136 L1397 1264 C1250 1408 1072 1480 865 1480 C648 1480 467 1407 320 1260 C173 1113 100 935 100 728 C100 523 165 355 295 224 C424 93 566 14 721 -12 L661 -120 Z " />
<glyph glyph-name="Egrave" unicode="&#xc8;" horiz-adv-x="1256" d="M1156 167 L385 167 L385 649 L1038 649 L1038 806 L385 806 L385 1289 L1156 1289 L1156 1457 L190 1457 L190 -1 L1156 -1 L1156 167 Z M570 1891 L363 1891 L690 1584 L828 1584 L570 1891 Z " />
<glyph glyph-name="Eacute" unicode="&#xc9;" horiz-adv-x="1256" d="M1156 167 L385 167 L385 649 L1038 649 L1038 806 L385 806 L385 1289 L1156 1289 L1156 1457 L190 1457 L190 -1 L1156 -1 L1156 167 Z M983 1891 L776 1891 L518 1584 L656 1584 L983 1891 Z " />
<glyph glyph-name="Ecircumflex" unicode="&#xca;" horiz-adv-x="1256" d="M1156 167 L385 167 L385 649 L1038 649 L1038 806 L385 806 L385 1289 L1156 1289 L1156 1457 L190 1457 L190 -1 L1156 -1 L1156 167 Z M750 1911 L596 1911 L333 1604 L458 1604 L673 1817 L889 1604 L1013 1604 L750 1911 Z " />
<glyph glyph-name="Edieresis" unicode="&#xcb;" horiz-adv-x="1256" d="M1156 167 L385 167 L385 649 L1038 649 L1038 806 L385 806 L385 1289 L1156 1289 L1156 1457 L190 1457 L190 -1 L1156 -1 L1156 167 Z M501 1658 C556 1658 600 1702 600 1757 C600 1812 556 1856 501 1856 C446 1856 402 1812 402 1757 C402 1702 446 1658 501 1658 L501 1658 Z M846 1658 C901 1658 945 1702 945 1757 C945 1812 901 1856 846 1856 C791 1856 747 1812 747 1757 C747 1702 791 1658 846 1658 L846 1658 Z " />
<glyph glyph-name="Igrave" unicode="&#xcc;" horiz-adv-x="576" d="M385 1457 L190 1457 L190 -1 L385 -1 L385 1457 Z M184 1891 L-23 1891 L304 1584 L442 1584 L184 1891 Z " />
<glyph glyph-name="Iacute" unicode="&#xcd;" horiz-adv-x="576" d="M385 1457 L190 1457 L190 -1 L385 -1 L385 1457 Z M597 1891 L390 1891 L132 1584 L270 1584 L597 1891 Z " />
<glyph glyph-name="Icircumflex" unicode="&#xce;" horiz-adv-x="576" d="M385 1457 L190 1457 L190 -1 L385 -1 L385 1457 Z M364 1911 L210 1911 L-53 1604 L72 1604 L287 1817 L503 1604 L627 1604 L364 1911 Z " />
<glyph glyph-name="Idieresis" unicode="&#xcf;" horiz-adv-x="576" d="M385 1457 L190 1457 L190 -1 L385 -1 L385 1457 Z M116 1658 C171 1658 215 1702 215 1757 C215 1812 171 1856 116 1856 C61 1856 17 1812 17 1757 C17 1702 61 1658 116 1658 L116 1658 Z M461 1658 C516 1658 560 1702 560 1757 C560 1812 516 1856 461 1856 C406 1856 362 1812 362 1757 C362 1702 406 1658 461 1658 L461 1658 Z " />
<glyph glyph-name="Eth" unicode="&#xd0;" horiz-adv-x="1533" d="M385 1289 L679 1289 C833 1289 965 1234 1074 1125 C1183 1015 1238 883 1238 728 C1238 572 1183 440 1074 331 C964 222 832 167 679 167 L385 166 L385 653 L881 653 L881 802 L385 802 L385 1289 Z M-71 653 L189 653 L189 -2 L679 -2 C887 -2 1065 69 1212 212 C1359 355 1433 527 1433 728 C1433 929 1359 1101 1212 1244 C1065 1386 887 1457 679 1457 L189 1457 L189 802 L-71 802 L-71 653 Z " />
<glyph glyph-name="Ntilde" unicode="&#xd1;" horiz-adv-x="1616" d="M1426 1457 L1233 1457 L1233 323 L347 1457 L190 1457 L190 -2 L383 -2 L383 1132 L1269 -2 L1426 -2 L1426 1457 Z M961 1641 C1064 1641 1136 1692 1178 1794 L1083 1848 C1064 1788 1021 1758 956 1758 C916 1758 874 1775 830 1809 C774 1852 715 1874 652 1874 C549 1874 478 1822 438 1718 L530 1666 C549 1726 592 1756 657 1756 C697 1756 739 1739 782 1706 C839 1663 898 1641 961 1641 L961 1641 Z " />
<glyph glyph-name="Ograve" unicode="&#xd2;" horiz-adv-x="1727" d="M864 154 C707 154 573 210 462 322 C351 434 295 569 295 728 C295 886 351 1021 462 1133 C573 1245 707 1301 864 1301 C1021 1301 1155 1245 1266 1133 C1377 1021 1432 886 1432 728 C1432 569 1377 434 1266 322 C1155 210 1021 154 864 154 L864 154 Z M864 -24 C1075 -24 1255 49 1404 196 C1553 343 1627 520 1627 728 C1627 935 1553 1112 1404 1259 C1255 1406 1075 1479 864 1479 C653 1479 473 1406 324 1259 C175 1112 100 935 100 728 C100 520 175 343 324 196 C473 49 653 -24 864 -24 L864 -24 Z M760 1891 L553 1891 L880 1584 L1018 1584 L760 1891 Z " />
<glyph glyph-name="Oacute" unicode="&#xd3;" horiz-adv-x="1727" d="M864 154 C707 154 573 210 462 322 C351 434 295 569 295 728 C295 886 351 1021 462 1133 C573 1245 707 1301 864 1301 C1021 1301 1155 1245 1266 1133 C1377 1021 1432 886 1432 728 C1432 569 1377 434 1266 322 C1155 210 1021 154 864 154 L864 154 Z M864 -24 C1075 -24 1255 49 1404 196 C1553 343 1627 520 1627 728 C1627 935 1553 1112 1404 1259 C1255 1406 1075 1479 864 1479 C653 1479 473 1406 324 1259 C175 1112 100 935 100 728 C100 520 175 343 324 196 C473 49 653 -24 864 -24 L864 -24 Z M1173 1891 L966 1891 L708 1584 L846 1584 L1173 1891 Z " />
<glyph glyph-name="Ocircumflex" unicode="&#xd4;" horiz-adv-x="1727" d="M864 154 C707 154 573 210 462 322 C351 434 295 569 295 728 C295 886 351 1021 462 1133 C573 1245 707 1301 864 1301 C1021 1301 1155 1245 1266 1133 C1377 1021 1432 886 1432 728 C1432 569 1377 434 1266 322 C1155 210 1021 154 864 154 L864 154 Z M864 -24 C1075 -24 1255 49 1404 196 C1553 343 1627 520 1627 728 C1627 935 1553 1112 1404 1259 C1255 1406 1075 1479 864 1479 C653 1479 473 1406 324 1259 C175 1112 100 935 100 728 C100 520 175 343 324 196 C473 49 653 -24 864 -24 L864 -24 Z M940 1911 L786 1911 L523 1604 L648 1604 L863 1817 L1079 1604 L1203 1604 L940 1911 Z " />
<glyph glyph-name="Otilde" unicode="&#xd5;" horiz-adv-x="1727" d="M864 154 C707 154 573 210 462 322 C351 434 295 569 295 728 C295 886 351 1021 462 1133 C573 1245 707 1301 864 1301 C1021 1301 1155 1245 1266 1133 C1377 1021 1432 886 1432 728 C1432 569 1377 434 1266 322 C1155 210 1021 154 864 154 L864 154 Z M864 -24 C1075 -24 1255 49 1404 196 C1553 343 1627 520 1627 728 C1627 935 1553 1112 1404 1259 C1255 1406 1075 1479 864 1479 C653 1479 473 1406 324 1259 C175 1112 100 935 100 728 C100 520 175 343 324 196 C473 49 653 -24 864 -24 L864 -24 Z M1017 1641 C1120 1641 1192 1692 1234 1794 L1139 1848 C1120 1788 1077 1758 1012 1758 C972 1758 930 1775 886 1809 C830 1852 771 1874 708 1874 C605 1874 534 1822 494 1718 L586 1666 C605 1726 648 1756 713 1756 C753 1756 795 1739 838 1706 C895 1663 954 1641 1017 1641 L1017 1641 Z " />
<glyph glyph-name="Odieresis" unicode="&#xd6;" horiz-adv-x="1727" d="M864 154 C707 154 573 210 462 322 C351 434 295 569 295 728 C295 886 351 1021 462 1133 C573 1245 707 1301 864 1301 C1021 1301 1155 1245 1266 1133 C1377 1021 1432 886 1432 728 C1432 569 1377 434 1266 322 C1155 210 1021 154 864 154 L864 154 Z M864 -24 C1075 -24 1255 49 1404 196 C1553 343 1627 520 1627 728 C1627 935 1553 1112 1404 1259 C1255 1406 1075 1479 864 1479 C653 1479 473 1406 324 1259 C175 1112 100 935 100 728 C100 520 175 343 324 196 C473 49 653 -24 864 -24 L864 -24 Z M692 1658 C747 1658 791 1702 791 1757 C791 1812 747 1856 692 1856 C637 1856 593 1812 593 1757 C593 1702 637 1658 692 1658 L692 1658 Z M1037 1658 C1092 1658 1136 1702 1136 1757 C1136 1812 1092 1856 1037 1856 C982 1856 938 1812 938 1757 C938 1702 982 1658 1037 1658 L1037 1658 Z " />
<glyph glyph-name="multiply" unicode="&#xd7;" horiz-adv-x="1289" d="M1089 389 L749 729 L1089 1069 L984 1175 L644 835 L304 1175 L199 1069 L539 729 L199 389 L304 284 L644 624 L984 284 L1089 389 Z " />
<glyph glyph-name="Oslash" unicode="&#xd8;" horiz-adv-x="1727" d="M1373 1481 L1222 1481 L1183 1413 C1086 1457 979 1479 864 1479 C653 1479 473 1406 324 1259 C175 1112 100 935 100 728 C100 520 175 343 324 196 C357 163 392 133 429 108 L354 -23 L505 -23 L543 43 C640 -2 747 -24 864 -24 C1075 -24 1255 49 1404 196 C1553 343 1627 520 1627 728 C1627 935 1553 1112 1404 1259 C1369 1292 1333 1322 1296 1348 L1373 1481 Z M522 268 C501 285 481 303 462 322 C351 434 295 569 295 728 C295 886 351 1021 462 1133 C573 1245 707 1301 864 1301 C946 1301 1022 1286 1091 1255 L522 268 Z M1204 1188 C1225 1171 1246 1153 1266 1133 C1377 1021 1432 886 1432 728 C1432 569 1377 434 1266 322 C1155 210 1021 154 864 154 C781 154 704 170 634 201 L1204 1188 Z " />
<glyph glyph-name="Ugrave" unicode="&#xd9;" horiz-adv-x="1520" d="M760 -24 C927 -24 1063 17 1170 98 C1277 179 1330 281 1330 405 L1330 1457 L1135 1457 L1135 434 C1135 344 1098 274 1025 225 C951 175 863 150 760 150 C654 150 565 177 493 231 C421 284 385 352 385 434 L385 1457 L190 1457 L190 405 C190 290 242 189 347 104 C452 19 589 -24 760 -24 L760 -24 Z M617 1891 L410 1891 L737 1584 L875 1584 L617 1891 Z " />
<glyph glyph-name="Uacute" unicode="&#xda;" horiz-adv-x="1520" d="M760 -24 C927 -24 1063 17 1170 98 C1277 179 1330 281 1330 405 L1330 1457 L1135 1457 L1135 434 C1135 344 1098 274 1025 225 C951 175 863 150 760 150 C654 150 565 177 493 231 C421 284 385 352 385 434 L385 1457 L190 1457 L190 405 C190 290 242 189 347 104 C452 19 589 -24 760 -24 L760 -24 Z M1030 1891 L823 1891 L565 1584 L703 1584 L1030 1891 Z " />
<glyph glyph-name="Ucircumflex" unicode="&#xdb;" horiz-adv-x="1520" d="M760 -24 C927 -24 1063 17 1170 98 C1277 179 1330 281 1330 405 L1330 1457 L1135 1457 L1135 434 C1135 344 1098 274 1025 225 C951 175 863 150 760 150 C654 150 565 177 493 231 C421 284 385 352 385 434 L385 1457 L190 1457 L190 405 C190 290 242 189 347 104 C452 19 589 -24 760 -24 L760 -24 Z M797 1911 L643 1911 L380 1604 L505 1604 L720 1817 L936 1604 L1060 1604 L797 1911 Z " />
<glyph glyph-name="Udieresis" unicode="&#xdc;" horiz-adv-x="1520" d="M760 -24 C927 -24 1063 17 1170 98 C1277 179 1330 281 1330 405 L1330 1457 L1135 1457 L1135 434 C1135 344 1098 274 1025 225 C951 175 863 150 760 150 C654 150 565 177 493 231 C421 284 385 352 385 434 L385 1457 L190 1457 L190 405 C190 290 242 189 347 104 C452 19 589 -24 760 -24 L760 -24 Z M548 1658 C603 1658 647 1702 647 1757 C647 1812 603 1856 548 1856 C493 1856 449 1812 449 1757 C449 1702 493 1658 548 1658 L548 1658 Z M893 1658 C948 1658 992 1702 992 1757 C992 1812 948 1856 893 1856 C838 1856 794 1812 794 1757 C794 1702 838 1658 893 1658 L893 1658 Z " />
<glyph glyph-name="Yacute" unicode="&#xdd;" horiz-adv-x="1405" d="M800 691 L1360 1457 L1110 1457 L703 886 L294 1457 L45 1457 L605 691 L605 -2 L800 -2 L800 691 Z M1012 1891 L805 1891 L547 1584 L685 1584 L1012 1891 Z " />
<glyph glyph-name="Thorn" unicode="&#xde;" horiz-adv-x="1366" d="M385 479 L385 1043 L773 1043 C851 1043 921 1021 983 977 C1044 932 1075 860 1075 761 C1075 661 1044 589 983 545 C921 501 851 479 773 479 L385 479 Z M385 311 L784 311 C921 311 1036 352 1128 433 C1220 514 1266 623 1266 761 C1266 907 1218 1019 1121 1096 C1024 1173 912 1211 784 1211 L385 1211 L385 1458 L190 1458 L190 -2 L385 -2 L385 311 Z " />
<glyph glyph-name="germandbls" unicode="&#xdf;" horiz-adv-x="1294" d="M757 -23 C878 -23 981 19 1067 103 C1152 187 1195 288 1195 405 C1195 495 1165 572 1105 636 C1045 700 975 739 895 753 C950 780 994 825 1028 888 C1062 950 1079 1008 1079 1063 C1079 1180 1034 1279 943 1360 C852 1441 742 1481 614 1481 C490 1481 383 1442 292 1365 C201 1287 155 1186 152 1063 L152 -2 L347 -2 L347 1058 C347 1127 374 1187 428 1238 C482 1288 544 1313 614 1313 C683 1313 745 1288 800 1238 C855 1188 883 1125 883 1050 C883 985 859 927 811 874 C762 821 704 794 635 794 L498 794 L498 636 L747 636 C812 636 871 614 923 571 C974 528 1000 473 1000 407 C1000 332 975 269 926 220 C876 170 818 145 751 145 C646 145 563 172 500 226 L458 73 C530 9 630 -23 757 -23 L757 -23 Z " />
<glyph glyph-name="agrave" unicode="&#xe0;" horiz-adv-x="1197" d="M534 144 C471 144 415 157 364 182 C313 207 287 249 287 310 C287 405 378 464 523 464 L855 464 L855 322 C855 277 824 236 762 199 C700 162 624 144 534 144 L534 144 Z M478 -23 C669 -23 800 36 870 153 L870 -1 L1045 -1 L1045 727 C1045 852 995 943 896 1000 C797 1057 689 1085 573 1085 C394 1085 263 1017 162 926 L282 808 C366 879 458 920 562 920 C637 920 705 902 765 865 C825 828 855 780 855 719 L855 614 L521 614 C396 614 294 584 215 524 C136 464 96 388 96 295 C96 193 136 115 217 60 C297 5 384 -23 478 -23 L478 -23 Z M467 1492 L260 1492 L587 1185 L725 1185 L467 1492 Z " />
<glyph glyph-name="aacute" unicode="&#xe1;" horiz-adv-x="1197" d="M534 144 C471 144 415 157 364 182 C313 207 287 249 287 310 C287 405 378 464 523 464 L855 464 L855 322 C855 277 824 236 762 199 C700 162 624 144 534 144 L534 144 Z M478 -23 C669 -23 800 36 870 153 L870 -1 L1045 -1 L1045 727 C1045 852 995 943 896 1000 C797 1057 689 1085 573 1085 C394 1085 263 1017 162 926 L282 808 C366 879 458 920 562 920 C637 920 705 902 765 865 C825 828 855 780 855 719 L855 614 L521 614 C396 614 294 584 215 524 C136 464 96 388 96 295 C96 193 136 115 217 60 C297 5 384 -23 478 -23 L478 -23 Z M880 1492 L673 1492 L415 1185 L553 1185 L880 1492 Z " />
<glyph glyph-name="acircumflex" unicode="&#xe2;" horiz-adv-x="1197" d="M534 144 C471 144 415 157 364 182 C313 207 287 249 287 310 C287 405 378 464 523 464 L855 464 L855 322 C855 277 824 236 762 199 C700 162 624 144 534 144 L534 144 Z M478 -23 C669 -23 800 36 870 153 L870 -1 L1045 -1 L1045 727 C1045 852 995 943 896 1000 C797 1057 689 1085 573 1085 C394 1085 263 1017 162 926 L282 808 C366 879 458 920 562 920 C637 920 705 902 765 865 C825 828 855 780 855 719 L855 614 L521 614 C396 614 294 584 215 524 C136 464 96 388 96 295 C96 193 136 115 217 60 C297 5 384 -23 478 -23 L478 -23 Z M647 1512 L493 1512 L230 1205 L355 1205 L570 1418 L786 1205 L910 1205 L647 1512 Z " />
<glyph glyph-name="atilde" unicode="&#xe3;" horiz-adv-x="1197" d="M534 144 C471 144 415 157 364 182 C313 207 287 249 287 310 C287 405 378 464 523 464 L855 464 L855 322 C855 277 824 236 762 199 C700 162 624 144 534 144 L534 144 Z M478 -23 C669 -23 800 36 870 153 L870 -1 L1045 -1 L1045 727 C1045 852 995 943 896 1000 C797 1057 689 1085 573 1085 C394 1085 263 1017 162 926 L282 808 C366 879 458 920 562 920 C637 920 705 902 765 865 C825 828 855 780 855 719 L855 614 L521 614 C396 614 294 584 215 524 C136 464 96 388 96 295 C96 193 136 115 217 60 C297 5 384 -23 478 -23 L478 -23 Z M724 1242 C827 1242 899 1293 941 1395 L846 1449 C827 1389 784 1359 719 1359 C679 1359 637 1376 593 1410 C537 1453 478 1475 415 1475 C312 1475 241 1423 201 1319 L293 1267 C312 1327 355 1357 420 1357 C460 1357 502 1340 545 1307 C602 1264 661 1242 724 1242 L724 1242 Z " />
<glyph glyph-name="adieresis" unicode="&#xe4;" horiz-adv-x="1197" d="M534 144 C471 144 415 157 364 182 C313 207 287 249 287 310 C287 405 378 464 523 464 L855 464 L855 322 C855 277 824 236 762 199 C700 162 624 144 534 144 L534 144 Z M478 -23 C669 -23 800 36 870 153 L870 -1 L1045 -1 L1045 727 C1045 852 995 943 896 1000 C797 1057 689 1085 573 1085 C394 1085 263 1017 162 926 L282 808 C366 879 458 920 562 920 C637 920 705 902 765 865 C825 828 855 780 855 719 L855 614 L521 614 C396 614 294 584 215 524 C136 464 96 388 96 295 C96 193 136 115 217 60 C297 5 384 -23 478 -23 L478 -23 Z M398 1259 C453 1259 497 1303 497 1358 C497 1413 453 1457 398 1457 C343 1457 299 1413 299 1358 C299 1303 343 1259 398 1259 L398 1259 Z M743 1259 C798 1259 842 1303 842 1358 C842 1413 798 1457 743 1457 C688 1457 644 1413 644 1358 C644 1303 688 1259 743 1259 L743 1259 Z " />
<glyph glyph-name="aring" unicode="&#xe5;" horiz-adv-x="1197" d="M534 144 C471 144 415 157 364 182 C313 207 287 249 287 310 C287 405 378 464 523 464 L855 464 L855 322 C855 277 824 236 762 199 C700 162 624 144 534 144 L534 144 Z M478 -23 C669 -23 800 36 870 153 L870 -1 L1045 -1 L1045 727 C1045 852 995 943 896 1000 C797 1057 689 1085 573 1085 C394 1085 263 1017 162 926 L282 808 C366 879 458 920 562 920 C637 920 705 902 765 865 C825 828 855 780 855 719 L855 614 L521 614 C396 614 294 584 215 524 C136 464 96 388 96 295 C96 193 136 115 217 60 C297 5 384 -23 478 -23 L478 -23 Z M571 1248 C510 1248 460 1298 460 1358 C460 1419 510 1469 571 1469 C631 1469 681 1419 681 1358 C681 1298 631 1248 571 1248 L571 1248 Z M571 1155 C627 1155 675 1175 715 1215 C754 1254 774 1302 774 1358 C774 1415 754 1463 715 1503 C675 1542 627 1562 571 1562 C514 1562 466 1542 427 1503 C387 1463 367 1415 367 1358 C367 1302 387 1254 427 1215 C466 1175 514 1155 571 1155 L571 1155 Z " />
<glyph glyph-name="ae" unicode="&#xe6;" horiz-adv-x="1952" d="M1051 614 L1051 740 C1109 870 1213 935 1364 935 C1469 935 1550 905 1607 846 C1663 787 1697 709 1708 614 L1051 614 Z M1403 -24 C1542 -24 1674 21 1798 111 L1687 239 C1600 173 1506 140 1403 140 C1242 140 1125 208 1052 343 C1052 394 1052 434 1053 463 L1890 463 C1894 488 1896 510 1896 530 C1896 687 1847 819 1750 926 C1653 1032 1524 1085 1364 1085 C1202 1085 1073 1026 976 907 C937 966 880 1011 803 1041 C726 1070 643 1085 552 1085 C392 1085 264 1022 161 925 L282 807 C369 882 462 920 562 920 C637 920 704 902 764 865 C824 828 854 780 854 719 L854 614 L521 614 C409 614 310 587 225 534 C139 481 96 401 96 295 C96 193 136 115 217 60 C297 5 384 -23 478 -23 C677 -23 833 49 944 194 C1060 49 1213 -24 1403 -24 L1403 -24 Z M534 144 C471 144 415 157 364 182 C313 207 287 249 287 310 C287 405 378 464 523 464 L855 464 L855 322 C855 277 824 236 762 199 C700 162 624 144 534 144 L534 144 Z " />
<glyph glyph-name="ccedilla" unicode="&#xe7;" horiz-adv-x="1166" d="M487 -120 L487 -181 L542 -181 C613 -181 649 -204 649 -250 C649 -275 637 -293 613 -306 C588 -318 564 -324 541 -324 C496 -324 452 -310 407 -283 L362 -358 C413 -393 474 -410 545 -410 C606 -410 661 -397 712 -370 C763 -343 788 -302 788 -249 C788 -156 725 -107 600 -103 L649 -23 C659 -24 669 -24 680 -24 C820 -24 945 21 1054 110 L943 240 C874 175 788 142 686 142 C579 142 487 179 409 253 C330 327 291 420 291 531 C291 642 330 734 409 808 C487 882 579 919 686 919 C788 919 874 886 943 821 L1054 951 C945 1040 820 1085 680 1085 C521 1085 384 1034 270 933 C156 831 98 697 96 531 C97 370 147 245 245 155 C343 65 444 10 549 -11 L487 -120 Z " />
<glyph glyph-name="egrave" unicode="&#xe8;" horiz-adv-x="1226" d="M288 614 C294 699 328 773 391 838 C453 903 535 935 638 935 C746 935 827 906 882 849 C937 792 970 713 982 614 L288 614 Z M677 -24 C816 -24 948 21 1072 111 L961 239 C868 173 773 140 677 140 C570 140 481 172 409 237 C336 302 296 377 289 463 L1163 463 C1168 488 1170 510 1170 531 C1170 688 1121 820 1024 926 C926 1032 797 1085 638 1085 C483 1085 354 1033 251 928 C148 823 97 691 96 533 C98 374 155 242 266 136 C377 29 514 -24 677 -24 L677 -24 Z M530 1492 L323 1492 L650 1185 L788 1185 L530 1492 Z " />
<glyph glyph-name="eacute" unicode="&#xe9;" horiz-adv-x="1226" d="M288 614 C294 699 328 773 391 838 C453 903 535 935 638 935 C746 935 827 906 882 849 C937 792 970 713 982 614 L288 614 Z M677 -24 C816 -24 948 21 1072 111 L961 239 C868 173 773 140 677 140 C570 140 481 172 409 237 C336 302 296 377 289 463 L1163 463 C1168 488 1170 510 1170 531 C1170 688 1121 820 1024 926 C926 1032 797 1085 638 1085 C483 1085 354 1033 251 928 C148 823 97 691 96 533 C98 374 155 242 266 136 C377 29 514 -24 677 -24 L677 -24 Z M943 1492 L736 1492 L478 1185 L616 1185 L943 1492 Z " />
<glyph glyph-name="ecircumflex" unicode="&#xea;" horiz-adv-x="1226" d="M288 614 C294 699 328 773 391 838 C453 903 535 935 638 935 C746 935 827 906 882 849 C937 792 970 713 982 614 L288 614 Z M677 -24 C816 -24 948 21 1072 111 L961 239 C868 173 773 140 677 140 C570 140 481 172 409 237 C336 302 296 377 289 463 L1163 463 C1168 488 1170 510 1170 531 C1170 688 1121 820 1024 926 C926 1032 797 1085 638 1085 C483 1085 354 1033 251 928 C148 823 97 691 96 533 C98 374 155 242 266 136 C377 29 514 -24 677 -24 L677 -24 Z M710 1512 L556 1512 L293 1205 L418 1205 L633 1418 L849 1205 L973 1205 L710 1512 Z " />
<glyph glyph-name="edieresis" unicode="&#xeb;" horiz-adv-x="1226" d="M288 614 C294 699 328 773 391 838 C453 903 535 935 638 935 C746 935 827 906 882 849 C937 792 970 713 982 614 L288 614 Z M677 -24 C816 -24 948 21 1072 111 L961 239 C868 173 773 140 677 140 C570 140 481 172 409 237 C336 302 296 377 289 463 L1163 463 C1168 488 1170 510 1170 531 C1170 688 1121 820 1024 926 C926 1032 797 1085 638 1085 C483 1085 354 1033 251 928 C148 823 97 691 96 533 C98 374 155 242 266 136 C377 29 514 -24 677 -24 L677 -24 Z M461 1259 C516 1259 560 1303 560 1358 C560 1413 516 1457 461 1457 C406 1457 362 1413 362 1358 C362 1303 406 1259 461 1259 L461 1259 Z M806 1259 C861 1259 905 1303 905 1358 C905 1413 861 1457 806 1457 C751 1457 707 1413 707 1358 C707 1303 751 1259 806 1259 L806 1259 Z " />
<glyph glyph-name="igrave" unicode="&#xec;" horiz-adv-x="495" d="M152 -1 L343 -1 L343 1063 L152 1063 L152 -1 Z M157 1492 L-50 1492 L277 1185 L415 1185 L157 1492 Z " />
<glyph glyph-name="iacute" unicode="&#xed;" horiz-adv-x="495" d="M152 -1 L343 -1 L343 1063 L152 1063 L152 -1 Z M545 1492 L338 1492 L80 1185 L218 1185 L545 1492 Z " />
<glyph glyph-name="icircumflex" unicode="&#xee;" horiz-adv-x="495" d="M152 -1 L343 -1 L343 1063 L152 1063 L152 -1 Z M324 1512 L170 1512 L-93 1205 L32 1205 L247 1418 L463 1205 L587 1205 L324 1512 Z " />
<glyph glyph-name="idieresis" unicode="&#xef;" horiz-adv-x="495" d="M152 -1 L343 -1 L343 1063 L152 1063 L152 -1 Z M76 1259 C131 1259 175 1303 175 1358 C175 1413 131 1457 76 1457 C21 1457 -23 1413 -23 1358 C-23 1303 21 1259 76 1259 L76 1259 Z M421 1259 C476 1259 520 1303 520 1358 C520 1413 476 1457 421 1457 C366 1457 322 1413 322 1358 C322 1303 366 1259 421 1259 L421 1259 Z " />
<glyph glyph-name="eth" unicode="&#xf0;" horiz-adv-x="1316" d="M658 143 C555 143 468 181 395 257 C322 332 286 424 286 531 C286 638 322 730 395 806 C468 881 555 919 658 919 C761 919 848 881 921 806 C994 730 1030 638 1030 531 C1030 424 994 332 921 257 C848 181 761 143 658 143 L658 143 Z M658 -23 C813 -23 946 31 1056 140 C1165 248 1220 378 1220 531 C1220 814 1133 1075 960 1314 L1161 1384 L1161 1506 L889 1414 C858 1451 824 1484 789 1514 L616 1458 C643 1437 677 1405 717 1364 L508 1291 L508 1169 L807 1269 C894 1167 957 1050 995 919 C909 1030 797 1085 658 1085 C503 1085 370 1031 261 923 C151 815 96 684 96 531 C96 378 151 248 261 140 C370 31 503 -23 658 -23 L658 -23 Z " />
<glyph glyph-name="ntilde" unicode="&#xf1;" horiz-adv-x="1337" d="M994 -1 L1185 -1 L1184 649 C1182 783 1141 889 1060 968 C979 1046 874 1085 747 1085 C649 1085 569 1064 506 1022 C443 980 391 926 352 860 L352 1063 L175 1063 L175 -1 L365 -1 L365 613 C365 702 397 775 460 833 C523 891 601 920 695 920 C780 920 850 896 907 847 C963 798 992 732 994 647 L994 -1 Z M833 1242 C936 1242 1008 1293 1050 1395 L955 1449 C936 1389 893 1359 828 1359 C788 1359 746 1376 702 1410 C646 1453 587 1475 524 1475 C421 1475 350 1423 310 1319 L402 1267 C421 1327 464 1357 529 1357 C569 1357 611 1340 654 1307 C711 1264 770 1242 833 1242 L833 1242 Z " />
<glyph glyph-name="ograve" unicode="&#xf2;" horiz-adv-x="1316" d="M658 920 C761 920 848 882 921 806 C994 730 1030 638 1030 531 C1030 424 994 332 921 257 C848 181 761 143 658 143 C555 143 468 181 395 257 C322 332 286 424 286 531 C286 638 322 730 395 806 C468 882 555 920 658 920 L658 920 Z M658 1085 C503 1085 370 1031 261 923 C151 815 96 684 96 531 C96 378 151 248 261 140 C370 31 503 -23 658 -23 C813 -23 946 31 1056 140 C1165 248 1220 378 1220 531 C1220 684 1165 815 1056 923 C946 1031 813 1085 658 1085 L658 1085 Z M555 1492 L348 1492 L675 1185 L813 1185 L555 1492 Z " />
<glyph glyph-name="oacute" unicode="&#xf3;" horiz-adv-x="1316" d="M658 920 C761 920 848 882 921 806 C994 730 1030 638 1030 531 C1030 424 994 332 921 257 C848 181 761 143 658 143 C555 143 468 181 395 257 C322 332 286 424 286 531 C286 638 322 730 395 806 C468 882 555 920 658 920 L658 920 Z M658 1085 C503 1085 370 1031 261 923 C151 815 96 684 96 531 C96 378 151 248 261 140 C370 31 503 -23 658 -23 C813 -23 946 31 1056 140 C1165 248 1220 378 1220 531 C1220 684 1165 815 1056 923 C946 1031 813 1085 658 1085 L658 1085 Z M968 1492 L761 1492 L503 1185 L641 1185 L968 1492 Z " />
<glyph glyph-name="ocircumflex" unicode="&#xf4;" horiz-adv-x="1316" d="M658 920 C761 920 848 882 921 806 C994 730 1030 638 1030 531 C1030 424 994 332 921 257 C848 181 761 143 658 143 C555 143 468 181 395 257 C322 332 286 424 286 531 C286 638 322 730 395 806 C468 882 555 920 658 920 L658 920 Z M658 1085 C503 1085 370 1031 261 923 C151 815 96 684 96 531 C96 378 151 248 261 140 C370 31 503 -23 658 -23 C813 -23 946 31 1056 140 C1165 248 1220 378 1220 531 C1220 684 1165 815 1056 923 C946 1031 813 1085 658 1085 L658 1085 Z M735 1512 L581 1512 L318 1205 L443 1205 L658 1418 L874 1205 L998 1205 L735 1512 Z " />
<glyph glyph-name="otilde" unicode="&#xf5;" horiz-adv-x="1316" d="M658 920 C761 920 848 882 921 806 C994 730 1030 638 1030 531 C1030 424 994 332 921 257 C848 181 761 143 658 143 C555 143 468 181 395 257 C322 332 286 424 286 531 C286 638 322 730 395 806 C468 882 555 920 658 920 L658 920 Z M658 1085 C503 1085 370 1031 261 923 C151 815 96 684 96 531 C96 378 151 248 261 140 C370 31 503 -23 658 -23 C813 -23 946 31 1056 140 C1165 248 1220 378 1220 531 C1220 684 1165 815 1056 923 C946 1031 813 1085 658 1085 L658 1085 Z M811 1242 C914 1242 986 1293 1028 1395 L933 1449 C914 1389 871 1359 806 1359 C766 1359 724 1376 680 1410 C624 1453 565 1475 502 1475 C399 1475 328 1423 288 1319 L380 1267 C399 1327 442 1357 507 1357 C547 1357 589 1340 632 1307 C689 1264 748 1242 811 1242 L811 1242 Z " />
<glyph glyph-name="odieresis" unicode="&#xf6;" horiz-adv-x="1316" d="M658 920 C761 920 848 882 921 806 C994 730 1030 638 1030 531 C1030 424 994 332 921 257 C848 181 761 143 658 143 C555 143 468 181 395 257 C322 332 286 424 286 531 C286 638 322 730 395 806 C468 882 555 920 658 920 L658 920 Z M658 1085 C503 1085 370 1031 261 923 C151 815 96 684 96 531 C96 378 151 248 261 140 C370 31 503 -23 658 -23 C813 -23 946 31 1056 140 C1165 248 1220 378 1220 531 C1220 684 1165 815 1056 923 C946 1031 813 1085 658 1085 L658 1085 Z M486 1259 C541 1259 585 1303 585 1358 C585 1413 541 1457 486 1457 C431 1457 387 1413 387 1358 C387 1303 431 1259 486 1259 L486 1259 Z M831 1259 C886 1259 930 1303 930 1358 C930 1413 886 1457 831 1457 C776 1457 732 1413 732 1358 C732 1303 776 1259 831 1259 L831 1259 Z " />
<glyph glyph-name="divide" unicode="&#xf7;" horiz-adv-x="1289" d="M1125 795 L164 795 L164 663 L1125 663 L1125 795 Z M644 300 C700 300 744 344 744 400 C744 455 700 500 644 500 C589 500 544 455 544 400 C544 344 589 300 644 300 L644 300 Z M644 959 C700 959 744 1004 744 1059 C744 1114 700 1159 644 1159 C589 1159 544 1114 544 1059 C544 1004 589 959 644 959 L644 959 Z " />
<glyph glyph-name="oslash" unicode="&#xf8;" horiz-adv-x="1317" d="M1124 1086 L973 1086 L927 1020 C846 1064 757 1086 658 1086 C503 1086 371 1032 261 924 C151 815 96 684 96 531 C96 378 151 248 261 140 C270 131 280 122 290 113 L194 -23 L344 -23 L390 43 C471 -1 560 -23 658 -23 C813 -23 946 31 1056 140 C1166 248 1221 378 1221 531 C1221 684 1166 815 1056 924 C1047 933 1037 941 1028 949 L1124 1086 Z M390 256 C313 333 275 424 275 531 C275 638 313 730 390 806 C466 882 555 920 658 920 C719 920 776 906 828 879 L390 256 Z M927 806 C1004 730 1042 638 1042 531 C1042 424 1004 333 927 257 C850 181 761 143 658 143 C597 143 541 156 489 183 L927 806 Z " />
<glyph glyph-name="ugrave" unicode="&#xf9;" horiz-adv-x="1319" d="M589 -25 C764 -25 890 50 967 200 L967 -2 L1145 -2 L1145 1062 L954 1062 L954 448 C954 359 924 286 864 228 C804 170 727 141 633 141 C548 141 479 165 426 214 C372 262 344 329 343 414 L342 1062 L152 1062 L152 411 C155 278 196 172 277 93 C358 14 462 -25 589 -25 L589 -25 Z M545 1492 L338 1492 L665 1185 L803 1185 L545 1492 Z " />
<glyph glyph-name="uacute" unicode="&#xfa;" horiz-adv-x="1319" d="M589 -25 C764 -25 890 50 967 200 L967 -2 L1145 -2 L1145 1062 L954 1062 L954 448 C954 359 924 286 864 228 C804 170 727 141 633 141 C548 141 479 165 426 214 C372 262 344 329 343 414 L342 1062 L152 1062 L152 411 C155 278 196 172 277 93 C358 14 462 -25 589 -25 L589 -25 Z M958 1492 L751 1492 L493 1185 L631 1185 L958 1492 Z " />
<glyph glyph-name="ucircumflex" unicode="&#xfb;" horiz-adv-x="1319" d="M589 -25 C764 -25 890 50 967 200 L967 -2 L1145 -2 L1145 1062 L954 1062 L954 448 C954 359 924 286 864 228 C804 170 727 141 633 141 C548 141 479 165 426 214 C372 262 344 329 343 414 L342 1062 L152 1062 L152 411 C155 278 196 172 277 93 C358 14 462 -25 589 -25 L589 -25 Z M725 1512 L571 1512 L308 1205 L433 1205 L648 1418 L864 1205 L988 1205 L725 1512 Z " />
<glyph glyph-name="udieresis" unicode="&#xfc;" horiz-adv-x="1319" d="M589 -25 C764 -25 890 50 967 200 L967 -2 L1145 -2 L1145 1062 L954 1062 L954 448 C954 359 924 286 864 228 C804 170 727 141 633 141 C548 141 479 165 426 214 C372 262 344 329 343 414 L342 1062 L152 1062 L152 411 C155 278 196 172 277 93 C358 14 462 -25 589 -25 L589 -25 Z M476 1259 C531 1259 575 1303 575 1358 C575 1413 531 1457 476 1457 C421 1457 377 1413 377 1358 C377 1303 421 1259 476 1259 L476 1259 Z M821 1259 C876 1259 920 1303 920 1358 C920 1413 876 1457 821 1457 C766 1457 722 1413 722 1358 C722 1303 766 1259 821 1259 L821 1259 Z " />
<glyph glyph-name="yacute" unicode="&#xfd;" horiz-adv-x="1117" d="M244 -428 C416 -428 519 -334 578 -183 L1089 1062 L877 1062 L572 262 L262 1062 L40 1062 L487 45 L403 -153 C388 -190 371 -220 350 -243 C329 -266 293 -277 244 -277 C195 -277 152 -273 115 -266 L115 -417 C160 -424 203 -428 244 -428 L244 -428 Z M874 1492 L667 1492 L409 1185 L547 1185 L874 1492 Z " />
<glyph glyph-name="thorn" unicode="&#xfe;" horiz-adv-x="1377" d="M710 142 C605 142 515 180 441 256 C366 332 329 424 329 531 C329 638 366 730 441 806 C515 881 605 919 710 919 C815 919 905 881 980 806 C1054 730 1091 638 1091 531 C1091 424 1054 332 980 256 C905 180 815 142 710 142 L710 142 Z M342 212 C443 55 578 -23 746 -23 C895 -23 1021 31 1125 139 C1229 247 1281 378 1281 531 C1281 684 1229 814 1125 923 C1021 1031 895 1085 746 1085 C571 1085 432 1001 329 832 L329 1458 L152 1458 L152 -405 L342 -405 L342 212 Z " />
<glyph glyph-name="ydieresis" unicode="&#xff;" horiz-adv-x="1117" d="M244 -428 C416 -428 519 -334 578 -183 L1089 1062 L877 1062 L572 262 L262 1062 L40 1062 L487 45 L403 -153 C388 -190 371 -220 350 -243 C329 -266 293 -277 244 -277 C195 -277 152 -273 115 -266 L115 -417 C160 -424 203 -428 244 -428 L244 -428 Z M393 1259 C448 1259 492 1303 492 1358 C492 1413 448 1457 393 1457 C338 1457 294 1413 294 1358 C294 1303 338 1259 393 1259 L393 1259 Z M738 1259 C793 1259 837 1303 837 1358 C837 1413 793 1457 738 1457 C683 1457 639 1413 639 1358 C639 1303 683 1259 738 1259 L738 1259 Z " />
<glyph glyph-name="dotlessi" unicode="&#x131;" horiz-adv-x="495" d="M152 -1 L343 -1 L343 1063 L152 1063 L152 -1 Z " />
<glyph glyph-name="Lslash" unicode="&#x141;" horiz-adv-x="1168" d="M841 905 L841 1056 L386 793 L386 1457 L190 1457 L190 680 L-35 550 L-35 399 L190 529 L190 -2 L1148 -2 L1148 166 L386 166 L386 642 L841 905 Z " />
<glyph glyph-name="lslash" unicode="&#x142;" horiz-adv-x="526" d="M586 839 L586 989 L358 857 L358 1457 L168 1457 L168 748 L-60 616 L-60 466 L168 598 L168 -2 L358 -2 L358 707 L586 839 Z " />
<glyph glyph-name="OE" unicode="&#x152;" horiz-adv-x="2251" d="M864 154 C707 154 573 210 462 322 C351 434 295 569 295 728 C295 886 351 1021 462 1133 C573 1245 707 1301 864 1301 C992 1301 1099 1254 1184 1160 L1185 295 C1099 201 992 154 864 154 L864 154 Z M864 -24 C979 -24 1086 -1 1185 45 L1185 -2 L2151 -2 L2151 167 L1380 167 L1380 648 L2033 648 L2033 806 L1380 806 L1380 1289 L2151 1289 L2151 1457 L1184 1457 L1184 1410 C1085 1456 979 1479 864 1479 C653 1479 473 1406 324 1259 C175 1112 100 935 100 728 C100 520 175 343 324 196 C473 49 653 -24 864 -24 L864 -24 Z " />
<glyph glyph-name="oe" unicode="&#x153;" horiz-adv-x="2175" d="M658 143 C555 143 468 181 395 257 C322 333 286 424 286 531 C286 638 322 730 395 806 C468 882 555 920 658 920 C761 920 848 882 921 806 C994 730 1030 638 1030 531 C1030 424 994 333 921 257 C848 181 761 143 658 143 L658 143 Z M1240 614 C1245 699 1279 773 1341 838 C1403 903 1485 935 1587 935 C1796 935 1906 818 1931 614 L1240 614 Z M1626 -23 C1765 -23 1897 22 2021 112 L1910 239 C1823 173 1729 140 1626 140 C1519 140 1430 172 1359 237 C1287 302 1248 377 1241 464 L2112 464 C2117 489 2119 511 2119 531 C2119 688 2070 820 1973 926 C1876 1032 1747 1085 1587 1085 C1375 1085 1222 988 1129 794 C1024 989 867 1086 658 1086 C503 1086 370 1032 261 924 C151 815 96 684 96 531 C96 378 151 248 261 140 C370 31 503 -23 658 -23 C869 -23 1027 76 1133 273 C1239 76 1403 -23 1626 -23 L1626 -23 Z " />
<glyph glyph-name="Scaron" unicode="&#x160;" horiz-adv-x="1324" d="M684 -23 C843 -23 979 18 1093 100 C1207 181 1264 280 1264 396 C1261 507 1229 588 1168 637 C1107 686 1031 723 942 748 L554 862 C495 878 448 901 412 930 C375 959 357 1004 356 1064 C356 1133 389 1190 455 1237 C521 1283 599 1306 689 1306 C856 1306 982 1250 1070 1135 L1212 1250 C1079 1414 895 1481 684 1481 C533 1481 405 1440 299 1358 C192 1276 139 1177 139 1061 C139 953 167 874 223 825 C279 776 349 740 432 717 L825 601 C890 584 943 561 985 533 C1026 505 1047 458 1047 393 C1047 324 1011 267 939 221 C867 174 782 151 684 151 C593 151 503 172 414 215 C324 258 261 313 224 381 L89 268 C137 179 218 108 332 56 C446 3 563 -23 684 -23 L684 -23 Z M892 1911 L676 1698 L461 1911 L336 1911 L599 1604 L753 1604 L1016 1911 L892 1911 Z " />
<glyph glyph-name="scaron" unicode="&#x161;" horiz-adv-x="1052" d="M520 -23 C624 -23 723 2 816 53 C909 103 956 179 956 281 C956 361 933 420 887 458 C841 495 786 524 722 543 L421 640 C350 664 303 693 303 769 C303 814 325 852 370 883 C414 913 474 928 550 928 C629 928 728 896 845 832 L926 963 C802 1040 671 1078 534 1078 C423 1078 323 1049 233 992 C142 934 97 855 96 755 C99 632 167 552 299 511 L610 415 C650 404 683 389 710 370 C736 351 749 321 749 280 C749 235 726 198 680 169 C634 140 574 125 500 125 C439 125 374 137 307 160 C239 183 182 215 135 256 L56 128 C107 76 176 38 264 14 C352 -11 437 -23 520 -23 L520 -23 Z M780 1512 L564 1299 L349 1512 L224 1512 L487 1205 L641 1205 L904 1512 L780 1512 Z " />
<glyph glyph-name="Ydieresis" unicode="&#x178;" horiz-adv-x="1405" d="M800 691 L1360 1457 L1110 1457 L703 886 L294 1457 L45 1457 L605 691 L605 -2 L800 -2 L800 691 Z M530 1658 C585 1658 629 1702 629 1757 C629 1812 585 1856 530 1856 C475 1856 431 1812 431 1757 C431 1702 475 1658 530 1658 L530 1658 Z M875 1658 C930 1658 974 1702 974 1757 C974 1812 930 1856 875 1856 C820 1856 776 1812 776 1757 C776 1702 820 1658 875 1658 L875 1658 Z " />
<glyph glyph-name="Zcaron" unicode="&#x17d;" horiz-adv-x="1249" d="M1149 166 L375 166 L1149 1345 L1149 1457 L100 1457 L100 1289 L875 1289 L100 111 L100 -2 L1149 -2 L1149 166 Z M841 1911 L625 1698 L410 1911 L285 1911 L548 1604 L702 1604 L965 1911 L841 1911 Z " />
<glyph glyph-name="zcaron" unicode="&#x17e;" horiz-adv-x="1085" d="M989 151 L347 151 L989 909 L989 1062 L96 1062 L96 909 L738 909 L96 151 L96 -2 L989 -2 L989 151 Z M758 1512 L542 1299 L327 1512 L202 1512 L465 1205 L619 1205 L882 1512 L758 1512 Z " />
<glyph glyph-name="florin" unicode="&#x192;" horiz-adv-x="1212" d="M138 -426 C278 -426 385 -394 458 -331 C531 -267 577 -178 597 -65 L769 910 L1114 910 L1114 1063 L796 1063 L805 1116 C829 1251 913 1328 1077 1328 C1109 1328 1145 1324 1186 1317 L1212 1469 C1170 1476 1124 1480 1074 1480 C803 1479 660 1352 617 1128 L605 1063 L359 1063 L359 910 L579 910 L407 -65 C380 -201 293 -274 136 -274 C103 -274 67 -270 27 -263 L0 -415 C43 -422 89 -426 138 -426 L138 -426 Z " />
<glyph glyph-name="circumflex" unicode="&#x2c6;" horiz-adv-x="920" d="M537 1512 L383 1512 L120 1205 L245 1205 L460 1418 L676 1205 L800 1205 L537 1512 Z " />
<glyph glyph-name="caron" unicode="&#x2c7;" horiz-adv-x="920" d="M676 1512 L460 1299 L245 1512 L120 1512 L383 1205 L537 1205 L800 1512 L676 1512 Z " />
<glyph glyph-name="uni02C9" unicode="&#x2c9;" horiz-adv-x="920" d="M763 1418 L157 1418 L157 1299 L763 1299 L763 1418 Z " />
<glyph glyph-name="breve" unicode="&#x2d8;" horiz-adv-x="920" d="M460 1205 C567 1205 644 1237 693 1302 C741 1367 765 1437 765 1512 L681 1512 C681 1461 660 1416 619 1378 C578 1339 525 1320 460 1320 C395 1320 341 1339 300 1378 C259 1416 238 1461 238 1512 L154 1512 C154 1437 178 1367 227 1302 C276 1237 353 1205 460 1205 L460 1205 Z " />
<glyph glyph-name="dotaccent" unicode="&#x2d9;" horiz-adv-x="920" d="M461 1259 C516 1259 560 1303 560 1358 C560 1413 516 1457 461 1457 C406 1457 362 1413 362 1358 C362 1303 406 1259 461 1259 L461 1259 Z " />
<glyph glyph-name="ring" unicode="&#x2da;" horiz-adv-x="920" d="M460 1248 C399 1248 349 1298 349 1358 C349 1419 399 1469 460 1469 C520 1469 570 1419 570 1358 C570 1298 520 1248 460 1248 L460 1248 Z M460 1155 C516 1155 564 1175 604 1215 C643 1254 663 1302 663 1358 C663 1415 643 1463 604 1503 C564 1542 516 1562 460 1562 C403 1562 355 1542 316 1503 C276 1463 256 1415 256 1358 C256 1302 276 1254 316 1215 C355 1175 403 1155 460 1155 L460 1155 Z " />
<glyph glyph-name="ogonek" unicode="&#x2db;" horiz-adv-x="920" d="M475 -410 C562 -409 628 -388 672 -345 L623 -270 C587 -306 539 -324 480 -324 C415 -324 382 -298 382 -246 C382 -173 438 -91 549 0 L428 0 C308 -83 248 -170 248 -261 C248 -360 324 -410 475 -410 L475 -410 Z " />
<glyph glyph-name="tilde" unicode="&#x2dc;" horiz-adv-x="920" d="M613 1242 C716 1242 788 1293 830 1395 L735 1449 C716 1389 673 1359 608 1359 C568 1359 526 1376 482 1410 C426 1453 367 1475 304 1475 C201 1475 130 1423 90 1319 L182 1267 C201 1327 244 1357 309 1357 C349 1357 391 1340 434 1307 C491 1264 550 1242 613 1242 L613 1242 Z " />
<glyph glyph-name="hungarumlaut" unicode="&#x2dd;" horiz-adv-x="920" d="M485 1493 L318 1493 L60 1185 L185 1185 L485 1493 Z M860 1493 L693 1493 L435 1185 L560 1185 L860 1493 Z " />
<glyph glyph-name="&amp;#x3a9;" unicode="&#x3a9;" horiz-adv-x="1547" d="M1446 178 L1073 178 L1073 244 C1174 290 1262 357 1336 444 C1409 531 1446 653 1446 810 C1446 1009 1379 1171 1246 1294 C1112 1417 954 1479 773 1479 C592 1479 434 1417 301 1294 C167 1171 100 1009 100 810 C100 663 134 544 203 454 C272 364 362 294 473 244 L473 178 L100 178 L100 0 L652 0 L652 304 C548 334 461 391 392 476 C322 560 287 670 287 805 C287 958 337 1079 437 1168 C536 1257 648 1301 773 1301 C898 1301 1010 1256 1110 1167 C1209 1078 1259 957 1259 805 C1259 671 1224 562 1155 478 C1085 393 998 336 894 305 L894 0 L1446 0 L1446 178 Z " />
<glyph glyph-name="&amp;#x2126;" unicode="&#x2126;" horiz-adv-x="1547" d="M1446 178 L1073 178 L1073 244 C1174 290 1262 357 1336 444 C1409 531 1446 653 1446 810 C1446 1009 1379 1171 1246 1294 C1112 1417 954 1479 773 1479 C592 1479 434 1417 301 1294 C167 1171 100 1009 100 810 C100 663 134 544 203 454 C272 364 362 294 473 244 L473 178 L100 178 L100 0 L652 0 L652 304 C548 334 461 391 392 476 C322 560 287 670 287 805 C287 958 337 1079 437 1168 C536 1257 648 1301 773 1301 C898 1301 1010 1256 1110 1167 C1209 1078 1259 957 1259 805 C1259 671 1224 562 1155 478 C1085 393 998 336 894 305 L894 0 L1446 0 L1446 178 Z " />
<glyph glyph-name="pi" unicode="&#x3c0;" horiz-adv-x="1407" d="M1182 -23 C1217 -23 1274 -14 1305 2 L1257 158 C1240 151 1223 147 1208 147 C1176 147 1151 173 1151 205 L1151 906 L1307 906 L1307 1063 L100 1063 L100 906 L256 906 L256 -2 L447 -2 L447 906 L960 906 L960 182 C961 46 1034 -23 1182 -23 L1182 -23 Z " />
<glyph glyph-name="uni1E9E" unicode="&#x1e9e;" horiz-adv-x="1343" d="M827 -23 C948 -23 1047 19 1126 103 C1204 187 1243 288 1243 405 C1243 522 1207 607 1136 660 C1065 713 986 744 900 751 C813 758 749 761 706 761 L1114 1189 C1017 1384 865 1481 657 1481 C533 1481 424 1442 331 1365 C237 1287 190 1186 190 1063 L190 -2 L385 -2 L385 1057 C385 1126 413 1186 469 1237 C524 1288 587 1313 657 1313 C754 1313 835 1270 898 1183 L534 794 L534 636 L684 636 C739 636 789 634 834 630 C878 626 925 608 975 576 C1024 543 1049 487 1049 407 C1049 332 1024 269 975 220 C925 170 867 145 800 145 C695 145 607 172 536 226 L493 73 C588 9 700 -23 827 -23 L827 -23 Z " />
<glyph glyph-name="endash" unicode="&#x2013;" horiz-adv-x="1289" d="M1121 606 L167 606 L167 457 L1121 457 L1121 606 Z " />
<glyph glyph-name="emdash" unicode="&#x2014;" horiz-adv-x="1907" d="M1907 606 L0 606 L0 457 L1907 457 L1907 606 Z " />
<glyph glyph-name="quoteleft" unicode="&#x2018;" horiz-adv-x="452" d="M398 1489 C303 1402 229 1328 178 1267 C126 1206 100 1142 100 1076 C100 983 158 939 226 939 C289 939 337 989 337 1050 C337 1073 325 1104 300 1141 C289 1158 283 1172 283 1183 C283 1197 287 1213 295 1232 C316 1283 367 1350 448 1434 L398 1489 Z " />
<glyph glyph-name="quoteright" unicode="&#x2019;" horiz-adv-x="452" d="M54 939 C149 1026 223 1101 275 1162 C326 1223 352 1286 352 1352 C352 1445 294 1489 226 1489 C163 1489 115 1439 115 1378 C115 1355 127 1324 152 1287 C163 1270 169 1256 169 1245 C169 1231 165 1215 157 1196 C136 1145 85 1078 4 994 L54 939 Z " />
<glyph glyph-name="quotesinglbase" unicode="&#x201a;" horiz-adv-x="452" d="M54 -322 C149 -235 223 -161 275 -100 C326 -39 352 25 352 91 C352 184 294 228 226 228 C163 228 115 178 115 117 C115 94 127 63 152 26 C163 9 169 -5 169 -15 C169 -30 165 -46 157 -64 C136 -115 85 -183 4 -267 L54 -322 Z " />
<glyph glyph-name="quotedblleft" unicode="&#x201c;" horiz-adv-x="837" d="M398 1489 C303 1402 229 1328 178 1267 C126 1206 100 1142 100 1076 C100 983 158 939 226 939 C289 939 337 989 337 1050 C337 1073 325 1104 300 1141 C289 1158 283 1172 283 1183 C283 1197 287 1213 295 1232 C316 1283 367 1350 448 1434 L398 1489 Z M783 1489 C688 1402 614 1328 563 1267 C511 1206 485 1142 485 1076 C485 983 543 939 611 939 C674 939 722 989 722 1050 C722 1073 710 1104 685 1141 C674 1158 668 1172 668 1183 C668 1197 672 1213 680 1232 C701 1283 752 1350 833 1434 L783 1489 Z " />
<glyph glyph-name="quotedblright" unicode="&#x201d;" horiz-adv-x="837" d="M439 939 C534 1026 608 1101 660 1162 C711 1223 737 1286 737 1352 C737 1445 679 1489 611 1489 C548 1489 500 1439 500 1378 C500 1355 512 1324 537 1287 C548 1270 554 1256 554 1245 C554 1231 550 1215 542 1196 C521 1145 470 1078 389 994 L439 939 Z M54 939 C149 1026 223 1101 275 1162 C326 1223 352 1286 352 1352 C352 1445 294 1489 226 1489 C163 1489 115 1439 115 1378 C115 1355 127 1324 152 1287 C163 1270 169 1256 169 1245 C169 1231 165 1215 157 1196 C136 1145 85 1078 4 994 L54 939 Z " />
<glyph glyph-name="quotedblbase" unicode="&#x201e;" horiz-adv-x="837" d="M439 -322 C534 -235 608 -161 660 -100 C711 -39 737 25 737 91 C737 184 679 228 611 228 C548 228 500 178 500 117 C500 94 512 63 537 26 C548 9 554 -5 554 -15 C554 -30 550 -46 542 -64 C521 -115 470 -183 389 -267 L439 -322 Z M54 -322 C149 -235 223 -161 275 -100 C326 -39 352 25 352 91 C352 184 294 228 226 228 C163 228 115 178 115 117 C115 94 127 63 152 26 C163 9 169 -5 169 -15 C169 -30 165 -46 157 -64 C136 -115 85 -183 4 -267 L54 -322 Z " />
<glyph glyph-name="dagger" unicode="&#x2020;" horiz-adv-x="1289" d="M718 959 L1110 959 L1110 1091 L718 1091 L718 1489 L570 1489 L570 1091 L178 1091 L178 959 L570 959 L570 -417 L718 -417 L718 959 Z " />
<glyph glyph-name="daggerdbl" unicode="&#x2021;" horiz-adv-x="1289" d="M718 -19 L1110 -19 L1110 113 L718 113 L718 959 L1110 959 L1110 1091 L718 1091 L718 1489 L570 1489 L570 1091 L178 1091 L178 959 L570 959 L570 113 L178 113 L178 -19 L570 -19 L570 -417 L718 -417 L718 -19 Z " />
<glyph glyph-name="bullet" unicode="&#x2022;" horiz-adv-x="1289" d="M644 514 C703 514 754 535 796 577 C837 619 858 669 858 728 C858 787 837 837 796 879 C754 920 703 941 644 941 C585 941 535 920 494 879 C452 837 431 787 431 728 C431 669 452 619 494 577 C535 535 585 514 644 514 L644 514 Z " />
<glyph glyph-name="ellipsis" unicode="&#x2026;" horiz-adv-x="1459" d="M226 -23 C261 -23 290 -11 315 14 C340 39 352 68 352 103 C352 138 340 167 315 192 C290 217 261 229 226 229 C191 229 161 217 137 192 C112 167 100 138 100 103 C100 68 112 39 137 14 C161 -11 191 -23 226 -23 L226 -23 Z M729 -23 C764 -23 794 -11 819 14 C844 39 856 68 856 103 C856 138 844 167 819 192 C794 217 764 229 729 229 C694 229 665 217 640 192 C615 167 603 138 603 103 C603 68 615 39 640 14 C665 -11 694 -23 729 -23 L729 -23 Z M1233 -23 C1268 -23 1298 -11 1323 14 C1347 39 1359 68 1359 103 C1359 138 1347 167 1323 192 C1298 217 1268 229 1233 229 C1198 229 1169 217 1144 192 C1119 167 1107 138 1107 103 C1107 68 1119 39 1144 14 C1169 -11 1198 -23 1233 -23 L1233 -23 Z " />
<glyph glyph-name="perthousand" unicode="&#x2030;" horiz-adv-x="2722" d="M1472 1481 L1276 1481 L408 -23 L603 -23 L1472 1481 Z M476 884 C415 884 363 906 320 949 C277 992 255 1044 255 1105 C255 1166 277 1218 320 1261 C363 1304 415 1326 476 1326 C537 1326 589 1304 632 1261 C675 1218 697 1166 697 1105 C697 1044 675 992 632 949 C589 906 537 884 476 884 L476 884 Z M476 729 C580 729 669 766 742 839 C815 912 852 1001 852 1105 C852 1209 815 1298 742 1371 C669 1444 580 1481 476 1481 C372 1481 283 1444 210 1371 C137 1298 100 1209 100 1105 C100 1001 137 912 210 839 C283 766 372 729 476 729 L476 729 Z M1403 132 C1342 132 1290 154 1247 197 C1204 240 1182 292 1182 353 C1182 414 1204 466 1247 509 C1290 552 1342 574 1403 574 C1464 574 1517 552 1560 509 C1603 466 1624 414 1624 353 C1624 292 1603 240 1560 197 C1517 154 1464 132 1403 132 L1403 132 Z M1403 -23 C1507 -23 1596 14 1669 87 C1742 160 1779 249 1779 353 C1779 457 1742 546 1669 619 C1596 692 1507 729 1403 729 C1299 729 1210 692 1137 619 C1064 546 1027 457 1027 353 C1027 249 1064 160 1137 87 C1210 14 1299 -23 1403 -23 L1403 -23 Z M2246 132 C2185 132 2133 154 2090 197 C2047 240 2025 292 2025 353 C2025 414 2047 466 2090 509 C2133 552 2185 574 2246 574 C2307 574 2359 552 2402 509 C2445 466 2466 414 2466 353 C2466 292 2445 240 2402 197 C2359 154 2307 132 2246 132 L2246 132 Z M2246 -23 C2349 -23 2438 14 2512 87 C2585 160 2622 249 2622 353 C2622 457 2585 546 2512 619 C2438 692 2349 729 2246 729 C2142 729 2053 692 1980 619 C1907 546 1870 457 1870 353 C1870 249 1907 160 1980 87 C2053 14 2142 -23 2246 -23 L2246 -23 Z " />
<glyph glyph-name="guilsinglleft" unicode="&#x2039;" horiz-adv-x="833" d="M384 531 L647 986 L475 986 L212 531 L475 75 L647 75 L384 531 Z " />
<glyph glyph-name="guilsinglright" unicode="&#x203a;" horiz-adv-x="833" d="M621 531 L358 986 L186 986 L449 531 L186 75 L358 75 L621 531 Z " />
<glyph glyph-name="&amp;#x2044;" unicode="&#x2044;" horiz-adv-x="263" d="M664 1481 L468 1481 L-400 -23 L-204 -23 L664 1481 Z " />
<glyph glyph-name="&amp;#x2215;" unicode="&#x2215;" horiz-adv-x="263" d="M664 1481 L468 1481 L-400 -23 L-204 -23 L664 1481 Z " />
<glyph glyph-name="franc" unicode="&#x20a3;" horiz-adv-x="1289" d="M973 472 L458 472 L458 649 L1111 649 L1111 806 L458 806 L458 1289 L1229 1289 L1229 1457 L263 1457 L263 472 L60 472 L60 323 L263 323 L263 -2 L458 -2 L458 323 L973 323 L973 472 Z " />
<glyph glyph-name="lira" unicode="&#x20a4;" horiz-adv-x="1289" d="M182 839 L283 839 L283 620 L182 620 L182 476 L283 476 L283 153 L130 153 L130 0 L1159 0 L1159 153 L478 153 L478 476 L843 476 L843 620 L478 620 L478 839 L843 839 L843 983 L478 983 L478 1049 C478 1124 501 1188 546 1239 C591 1290 650 1316 723 1317 C797 1317 858 1303 905 1274 C952 1245 998 1202 1043 1145 L1159 1251 C1097 1326 1032 1384 964 1423 C896 1462 810 1481 705 1481 C572 1481 469 1437 395 1349 C320 1260 283 1155 283 1032 L283 983 L182 983 L182 839 Z " />
<glyph glyph-name="Euro" unicode="&#x20ac;" horiz-adv-x="1289" d="M66 983 L66 839 L300 839 C297 803 295 766 295 728 C295 691 297 655 300 620 L66 620 L66 476 L325 476 C352 373 396 279 457 196 C564 49 723 -24 933 -24 C1039 -24 1136 3 1223 57 L1223 229 C1133 168 1036 137 933 137 C781 137 668 196 594 314 C562 365 537 419 519 476 L979 476 L979 620 L488 620 C484 655 482 691 482 728 C482 766 484 803 489 839 L979 839 L979 983 L520 983 C538 1040 563 1093 594 1142 C668 1260 781 1319 933 1319 C1036 1319 1133 1288 1223 1227 L1223 1399 C1136 1453 1039 1480 933 1480 C723 1480 564 1407 457 1260 C396 1177 353 1085 326 983 L66 983 Z " />
<glyph glyph-name="uni20B9" unicode="&#x20b9;" horiz-adv-x="1289" d="M114 1310 L501 1310 C579 1310 646 1290 703 1251 C759 1211 793 1155 805 1083 L114 1083 L114 940 L807 940 C796 863 761 805 704 764 C647 723 579 703 501 703 L114 703 L114 556 L414 556 L856 -2 L1096 -2 L631 585 C862 629 971 756 991 940 L1174 940 L1174 1083 L990 1083 C975 1192 931 1264 878 1316 L1174 1316 L1174 1457 L114 1457 L114 1310 Z " />
<glyph glyph-name="uni20BA" unicode="&#x20ba;" horiz-adv-x="1289" d="M75 725 L292 833 L292 574 L75 466 L75 306 L292 414 L292 -2 L539 -2 C734 -2 895 59 1022 181 C1149 302 1213 457 1213 645 L1042 645 C1042 502 993 387 896 299 C798 211 679 167 539 167 L487 167 L487 510 L873 702 L873 862 L487 670 L487 929 L873 1121 L873 1282 L487 1090 L487 1457 L292 1457 L292 993 L75 885 L75 725 Z " />
<glyph glyph-name="uni2113" unicode="&#x2113;" horiz-adv-x="835" d="M307 1240 C307 1293 324 1336 357 1370 C390 1404 430 1421 477 1421 C524 1421 565 1405 598 1373 C631 1340 648 1296 648 1240 C648 1164 618 1108 558 1073 L307 916 L307 1240 Z M473 -24 C580 -23 682 26 779 122 L779 182 C686 84 587 35 481 35 C365 36 307 120 307 286 L307 862 L571 1027 C658 1083 702 1154 702 1240 C702 1307 680 1364 635 1411 C590 1457 532 1480 461 1480 C374 1480 302 1454 246 1401 C190 1348 161 1279 159 1193 L159 825 L16 736 L16 682 L159 771 L159 309 C159 87 264 -24 473 -24 L473 -24 Z " />
<glyph glyph-name="trademark" unicode="&#x2122;" horiz-adv-x="1606" d="M1506 1458 L1406 1458 L1151 1093 L896 1458 L796 1458 L796 729 L921 729 L921 1218 L1116 940 L1187 940 L1381 1218 L1381 729 L1506 729 L1506 1458 Z M455 1346 L684 1346 L684 1458 L100 1458 L100 1346 L329 1346 L329 729 L455 729 L455 1346 Z " />
<glyph glyph-name="estimated" unicode="&#x212e;" horiz-adv-x="1727" d="M321 777 L321 1123 C460 1308 641 1401 863 1401 C1086 1401 1266 1308 1405 1123 L1405 777 L321 777 Z M863 -17 C1141 -17 1361 107 1522 354 L1446 399 C1298 178 1104 68 863 68 C641 68 460 161 321 346 L321 692 L1627 692 L1627 735 C1627 943 1552 1120 1403 1267 C1253 1413 1073 1486 863 1486 C654 1486 474 1413 325 1267 C175 1120 100 943 100 735 C100 526 175 349 325 203 C474 56 654 -17 863 -17 L863 -17 Z " />
<glyph glyph-name="onethird" unicode="&#x2153;" horiz-adv-x="1635" d="M459 1470 L312 1470 L105 1350 L175 1228 L300 1300 L300 726 L459 726 L459 1470 Z M1237 -15 C1306 -15 1373 4 1436 43 C1499 81 1530 139 1530 216 C1530 280 1485 339 1410 368 C1471 407 1501 457 1501 520 C1501 597 1475 655 1423 694 C1370 732 1309 751 1239 751 C1126 751 1038 705 975 614 L1085 521 C1122 578 1170 607 1231 607 C1257 607 1282 601 1306 589 C1330 576 1342 554 1342 522 C1342 491 1330 469 1306 456 C1282 443 1257 437 1232 437 L1168 437 L1168 300 L1232 300 C1257 300 1287 294 1320 282 C1353 269 1370 247 1370 214 C1370 181 1353 159 1319 147 C1285 135 1255 129 1230 129 C1163 129 1111 158 1075 215 L965 122 C1027 31 1118 -15 1237 -15 L1237 -15 Z M1350 1481 L1154 1481 L286 -23 L481 -23 L1350 1481 Z " />
<glyph glyph-name="twothirds" unicode="&#x2154;" horiz-adv-x="1635" d="M1239 -15 C1308 -15 1375 4 1438 43 C1501 81 1532 139 1532 216 C1532 280 1487 339 1412 368 C1473 407 1503 457 1503 520 C1503 597 1477 655 1425 694 C1372 732 1311 751 1241 751 C1128 751 1040 705 977 614 L1087 521 C1124 578 1172 607 1233 607 C1259 607 1284 601 1308 589 C1332 576 1344 554 1344 522 C1344 491 1332 469 1308 456 C1284 443 1259 437 1234 437 L1170 437 L1170 300 L1234 300 C1259 300 1289 294 1322 282 C1355 269 1372 247 1372 214 C1372 181 1355 159 1321 147 C1287 135 1257 129 1232 129 C1165 129 1113 158 1077 215 L967 122 C1029 31 1120 -15 1239 -15 L1239 -15 Z M651 866 L373 866 L586 1082 C633 1129 657 1181 657 1239 C657 1318 629 1379 572 1420 C515 1461 450 1481 377 1481 C257 1481 165 1435 102 1342 L212 1250 C250 1308 302 1337 369 1337 C398 1337 426 1330 455 1315 C484 1300 498 1275 498 1241 C498 1218 490 1199 475 1183 L118 831 L118 726 L651 726 L651 866 Z M1352 1481 L1156 1481 L288 -23 L483 -23 L1352 1481 Z " />
<glyph glyph-name="partialdiff" unicode="&#x2202;" horiz-adv-x="1271" d="M605 157 C506 157 431 188 378 249 C325 310 299 385 299 476 C299 567 325 643 378 705 C431 766 506 797 605 797 C728 797 848 756 965 673 C965 588 955 508 936 431 C917 354 881 289 830 236 C779 183 704 157 605 157 L605 157 Z M605 -17 C982 -17 1171 236 1171 743 C1171 944 1118 1118 1013 1266 C907 1413 739 1487 509 1487 C416 1487 335 1470 265 1435 L338 1270 C390 1298 447 1312 509 1312 C648 1312 755 1268 830 1179 C905 1090 951 981 968 852 C853 930 732 969 605 969 C454 969 332 924 239 833 C146 742 100 623 100 476 C100 329 146 211 239 120 C332 29 454 -17 605 -17 L605 -17 Z " />
<glyph glyph-name="increment" unicode="&#x2206;" horiz-adv-x="1547" d="M384 178 L773 1160 L1162 178 L384 178 Z M842 1456 L705 1456 L100 -2 L1447 -2 L842 1456 Z " />
<glyph glyph-name="product" unicode="&#x220f;" horiz-adv-x="1681" d="M1581 1480 L100 1480 L100 -427 L295 -427 L295 1331 L1385 1331 L1385 -427 L1581 -427 L1581 1480 Z " />
<glyph glyph-name="summation" unicode="&#x2211;" horiz-adv-x="1681" d="M1581 -278 L334 -278 L941 527 L334 1331 L1581 1331 L1581 1480 L100 1480 L100 1331 L707 527 L100 -278 L100 -427 L1581 -427 L1581 -278 Z " />
<glyph glyph-name="minus" unicode="&#x2212;" horiz-adv-x="1289" d="M1121 809 L167 809 L167 660 L1121 660 L1121 809 Z " />
<glyph glyph-name="radical" unicode="&#x221a;" horiz-adv-x="1289" d="M1285 1892 L1129 1892 L688 247 L418 1085 L-55 959 L-16 813 L319 903 L618 -15 L774 -15 L1285 1892 Z " />
<glyph glyph-name="infinity" unicode="&#x221e;" horiz-adv-x="1639" d="M438 534 C383 534 335 554 296 593 C257 632 237 679 237 735 C237 790 256 838 295 877 C333 916 381 935 438 935 C486 935 529 919 568 887 C607 854 644 819 679 780 L722 735 L679 689 C644 650 607 615 568 583 C529 550 486 534 438 534 L438 534 Z M1201 534 C1152 534 1109 550 1071 583 C1032 615 995 650 960 689 L916 735 L960 780 C995 819 1032 854 1071 887 C1109 919 1152 935 1201 935 C1256 935 1304 916 1343 877 C1382 838 1401 790 1401 735 C1401 679 1382 632 1343 593 C1304 554 1256 534 1201 534 L1201 534 Z M1201 397 C1294 397 1374 430 1440 496 C1506 561 1539 641 1539 735 C1539 828 1506 908 1440 974 C1374 1040 1294 1073 1201 1073 C1126 1073 1063 1054 1013 1015 C962 976 913 931 866 880 L819 832 L773 880 C726 931 677 976 626 1015 C575 1054 513 1073 438 1073 C345 1073 265 1040 199 974 C133 908 100 828 100 735 C100 641 133 561 199 496 C265 430 345 397 438 397 C513 397 575 416 626 455 C677 494 726 539 773 590 L819 637 L866 590 C915 539 964 494 1014 455 C1063 416 1126 397 1201 397 L1201 397 Z " />
<glyph glyph-name="integral" unicode="&#x222b;" horiz-adv-x="932" d="M290 -428 C383 -427 452 -371 496 -258 C539 -145 561 -21 561 116 L559 1493 C559 1554 562 1620 568 1689 C573 1758 597 1793 639 1793 L646 1793 C641 1785 638 1774 638 1759 C638 1704 683 1660 738 1660 C793 1660 832 1704 832 1759 C831 1848 767 1892 640 1892 C548 1891 480 1834 437 1722 C393 1610 371 1486 371 1349 L373 -36 C373 -95 370 -158 364 -227 C358 -295 334 -329 292 -329 L286 -329 C291 -320 293 -309 293 -296 C293 -241 249 -197 194 -197 C139 -197 100 -241 100 -296 C100 -384 163 -428 290 -428 L290 -428 Z " />
<glyph glyph-name="approxequal" unicode="&#x2248;" horiz-adv-x="1289" d="M858 804 C971 804 1043 833 1074 891 L1074 1039 C1053 1014 1027 994 996 978 C965 962 917 954 853 954 C787 954 712 972 628 1007 C551 1039 485 1055 431 1055 C318 1055 246 1026 215 968 L215 820 C235 844 261 864 293 881 C324 897 372 905 436 905 C502 905 577 887 661 852 C738 820 804 804 858 804 L858 804 Z M858 415 C971 415 1043 444 1074 501 L1074 649 C1053 625 1027 605 996 589 C965 572 917 564 853 564 C787 564 712 582 628 617 C551 649 485 665 431 665 C318 665 246 636 215 578 L215 431 C235 455 261 475 293 492 C324 508 372 516 436 516 C502 516 577 498 661 463 C738 431 804 415 858 415 L858 415 Z " />
<glyph glyph-name="notequal" unicode="&#x2260;" horiz-adv-x="1289" d="M768 1480 L650 1038 L188 1038 L188 889 L610 889 L524 568 L188 568 L188 419 L484 419 L365 -24 L521 -24 L640 419 L1101 419 L1101 568 L680 568 L766 889 L1101 889 L1101 1038 L806 1038 L924 1480 L768 1480 Z " />
<glyph glyph-name="lessequal" unicode="&#x2264;" horiz-adv-x="1289" d="M1101 579 L404 837 L1101 1095 L1101 1253 L188 905 L188 768 L1101 421 L1101 579 Z M1101 312 L188 312 L188 163 L1101 163 L1101 312 Z " />
<glyph glyph-name="greaterequal" unicode="&#x2265;" horiz-adv-x="1289" d="M1101 768 L1101 905 L188 1253 L188 1095 L885 837 L188 579 L188 421 L1101 768 Z M1101 163 L1101 312 L188 312 L188 163 L1101 163 Z " />
<glyph glyph-name="lozenge" unicode="&#x25ca;" horiz-adv-x="1068" d="M280 728 L534 1304 L788 728 L534 152 L280 728 Z M967 728 L625 1458 L443 1458 L100 728 L443 -1 L625 -1 L967 728 Z " />
<glyph glyph-name="&amp;#xf001;" unicode="&#xf001;" horiz-adv-x="1261" d="M443 910 L787 910 L787 1063 L443 1063 L443 1128 C443 1184 465 1231 508 1270 C551 1309 607 1328 677 1328 C708 1328 744 1324 787 1317 L787 1469 C744 1476 697 1480 647 1480 C534 1480 440 1450 365 1391 C290 1331 252 1243 252 1128 L252 1063 L32 1063 L32 910 L252 910 L252 -1 L443 -1 L443 910 Z M919 -1 L1110 -1 L1110 1063 L919 1063 L919 -1 Z M1015 1483 C980 1483 951 1471 927 1447 C902 1422 890 1393 890 1358 C890 1324 902 1295 927 1271 C951 1246 980 1234 1015 1234 C1049 1234 1078 1246 1103 1271 C1127 1295 1139 1324 1139 1358 C1139 1393 1127 1422 1103 1447 C1078 1471 1049 1483 1015 1483 L1015 1483 Z " />
<glyph glyph-name="&amp;#xfb01;" unicode="&#xfb01;" horiz-adv-x="1261" d="M443 910 L787 910 L787 1063 L443 1063 L443 1128 C443 1184 465 1231 508 1270 C551 1309 607 1328 677 1328 C708 1328 744 1324 787 1317 L787 1469 C744 1476 697 1480 647 1480 C534 1480 440 1450 365 1391 C290 1331 252 1243 252 1128 L252 1063 L32 1063 L32 910 L252 910 L252 -1 L443 -1 L443 910 Z M919 -1 L1110 -1 L1110 1063 L919 1063 L919 -1 Z M1015 1483 C980 1483 951 1471 927 1447 C902 1422 890 1393 890 1358 C890 1324 902 1295 927 1271 C951 1246 980 1234 1015 1234 C1049 1234 1078 1246 1103 1271 C1127 1295 1139 1324 1139 1358 C1139 1393 1127 1422 1103 1447 C1078 1471 1049 1483 1015 1483 L1015 1483 Z " />
<glyph glyph-name="&amp;#xf002;" unicode="&#xf002;" horiz-adv-x="1292" d="M443 910 L787 910 L787 1063 L443 1063 L443 1128 C443 1184 465 1231 508 1270 C551 1309 607 1328 677 1328 C708 1328 744 1324 787 1317 L787 1469 C744 1476 697 1480 647 1480 C534 1480 440 1450 365 1391 C290 1331 252 1243 252 1128 L252 1063 L32 1063 L32 910 L252 910 L252 -1 L443 -1 L443 910 Z M934 -1 L1125 -1 L1125 1458 L934 1458 L934 -1 Z " />
<glyph glyph-name="&amp;#xfb02;" unicode="&#xfb02;" horiz-adv-x="1292" d="M443 910 L787 910 L787 1063 L443 1063 L443 1128 C443 1184 465 1231 508 1270 C551 1309 607 1328 677 1328 C708 1328 744 1324 787 1317 L787 1469 C744 1476 697 1480 647 1480 C534 1480 440 1450 365 1391 C290 1331 252 1243 252 1128 L252 1063 L32 1063 L32 910 L252 910 L252 -1 L443 -1 L443 910 Z M934 -1 L1125 -1 L1125 1458 L934 1458 L934 -1 Z " />
<glyph glyph-name="uniFB00" unicode="&#xfb00;" horiz-adv-x="1486" d="M895 910 L895 -1 L1086 -1 L1086 910 L1430 910 L1430 1063 L1086 1063 L1086 1128 C1086 1184 1108 1231 1151 1270 C1194 1309 1250 1328 1320 1328 C1351 1328 1387 1324 1430 1317 L1430 1469 C1387 1476 1340 1480 1290 1480 C1177 1480 1083 1450 1008 1391 C933 1331 895 1243 895 1128 L895 1063 L443 1063 L443 1128 C443 1184 465 1231 508 1270 C551 1309 607 1328 677 1328 C708 1328 744 1324 787 1317 L787 1469 C744 1476 697 1480 647 1480 C534 1480 440 1450 365 1391 C290 1331 252 1243 252 1128 L252 1063 L32 1063 L32 910 L252 910 L252 -1 L443 -1 L443 910 L895 910 Z " />
<glyph glyph-name="uniFB03" unicode="&#xfb03;" horiz-adv-x="1904" d="M1562 -1 L1753 -1 L1753 1063 L1562 1063 L1562 -1 Z M443 1063 L443 1128 C443 1184 465 1231 508 1270 C551 1309 607 1328 677 1328 C708 1328 744 1324 787 1317 L787 1469 C744 1476 697 1480 647 1480 C534 1480 440 1450 365 1391 C290 1331 252 1243 252 1128 L252 1063 L32 1063 L32 910 L252 910 L252 -1 L443 -1 L443 910 L895 910 L895 -1 L1086 -1 L1086 910 L1430 910 L1430 1063 L1086 1063 L1086 1128 C1086 1184 1108 1231 1151 1270 C1194 1309 1250 1328 1320 1328 C1351 1328 1387 1324 1430 1317 L1430 1469 C1387 1476 1340 1480 1290 1480 C1177 1480 1083 1450 1008 1391 C933 1331 895 1243 895 1128 L895 1063 L443 1063 Z M1658 1483 C1623 1483 1594 1471 1570 1447 C1545 1422 1533 1393 1533 1358 C1533 1324 1545 1295 1570 1271 C1594 1246 1623 1234 1658 1234 C1692 1234 1721 1246 1746 1271 C1770 1295 1782 1324 1782 1358 C1782 1393 1770 1422 1746 1447 C1721 1471 1692 1483 1658 1483 L1658 1483 Z " />
<glyph glyph-name="uniFB04" unicode="&#xfb04;" horiz-adv-x="1935" d="M895 910 L895 -1 L1086 -1 L1086 910 L1430 910 L1430 1063 L1086 1063 L1086 1128 C1086 1184 1108 1231 1151 1270 C1194 1309 1250 1328 1320 1328 C1351 1328 1387 1324 1430 1317 L1430 1469 C1387 1476 1340 1480 1290 1480 C1177 1480 1083 1450 1008 1391 C933 1331 895 1243 895 1128 L895 1063 L443 1063 L443 1128 C443 1184 465 1231 508 1270 C551 1309 607 1328 677 1328 C708 1328 744 1324 787 1317 L787 1469 C744 1476 697 1480 647 1480 C534 1480 440 1450 365 1391 C290 1331 252 1243 252 1128 L252 1063 L32 1063 L32 910 L252 910 L252 -1 L443 -1 L443 910 L895 910 Z M1577 -1 L1768 -1 L1768 1458 L1577 1458 L1577 -1 Z " />
</font>
</svg>
