<?xml version="1.0" encoding="UTF-8"?>
<svg xmlns="http://www.w3.org/2000/svg" xmlns:xlink="http://www.w3.org/1999/xlink" version="1.2" >
<font id="Guerrer Medium Oblique">
<font-face  font-family="Guerrer" units-per-em="2048" ascent="1458" descent="-405" font-style="italic" font-weight="500" font-stretch="normal" slope="-10" cap-height="1457" x-height="1066" underline-position="-217" underline-thickness="150" />
<missing-glyph  horiz-adv-x="1024" d="" />
<glyph glyph-name="&amp;#x0;" d="" />
<glyph glyph-name="&amp;#x1d;" unicode="&#x1d;" d="" />
<glyph glyph-name="&amp;#x20;" unicode="&#x20;" horiz-adv-x="500" d="" />
<glyph glyph-name="&amp;#xa0;" unicode="&#xa0;" horiz-adv-x="500" d="" />
<glyph glyph-name="exclam" unicode="&#x21;" horiz-adv-x="817" d="M449 432 L671 1480 L412 1480 L264 432 L449 432 Z M276 -24 C232 -24 199 -10 177 17 C154 44 143 73 143 104 C143 158 164 202 205 237 C246 271 288 288 331 288 C375 288 408 275 431 248 C453 221 464 191 464 160 C464 106 444 62 403 28 C362 -7 320 -24 276 -24 L276 -24 Z " />
<glyph glyph-name="quotedbl" unicode="&#x22;" horiz-adv-x="611" d="M702 1513 L492 1513 L443 1049 L587 1049 L702 1513 Z M396 1513 L186 1513 L137 1049 L281 1049 L396 1513 Z " />
<glyph glyph-name="numbersign" unicode="&#x23;" horiz-adv-x="1321" d="M736 565 L459 565 L610 901 L886 901 L736 565 Z M669 -24 L858 399 L1184 399 L1214 565 L933 565 L1083 901 L1273 901 L1302 1066 L1158 1066 L1343 1480 L1146 1480 L961 1066 L684 1066 L870 1480 L672 1480 L487 1066 L139 1066 L110 901 L412 901 L262 565 L50 565 L21 399 L187 399 L-2 -24 L195 -24 L385 399 L661 399 L472 -24 L669 -24 Z " />
<glyph glyph-name="dollar" unicode="&#x24;" horiz-adv-x="1322" d="M623 -18 C772 -1 908 51 1031 139 C1153 226 1214 345 1214 494 C1214 555 1196 609 1160 656 C1123 702 1068 738 994 764 C920 789 839 810 752 826 C665 842 592 863 533 889 C474 915 444 956 444 1011 C444 1087 479 1147 549 1190 C619 1233 692 1255 767 1255 C924 1255 1033 1203 1093 1099 L1303 1247 C1220 1377 1081 1452 886 1472 L920 1665 L731 1665 L697 1468 C560 1448 436 1395 324 1308 C211 1221 155 1105 155 960 C155 898 173 844 210 798 C246 751 300 716 372 691 C444 666 521 645 602 630 C699 612 777 590 836 564 C895 538 925 498 925 443 C925 368 888 308 815 264 C741 220 661 198 574 198 C491 198 410 218 333 258 C255 297 202 350 173 415 L-24 264 C41 105 194 11 435 -17 L401 -209 L590 -209 L623 -18 Z " />
<glyph glyph-name="percent" unicode="&#x25;" horiz-adv-x="1923" d="M514 -24 L1661 1480 L1410 1480 L263 -24 L514 -24 Z M515 924 C464 924 426 940 400 971 C373 1002 360 1036 360 1071 C360 1134 384 1186 431 1225 C478 1264 527 1284 578 1284 C629 1284 667 1269 694 1238 C720 1207 733 1173 733 1137 C733 1075 709 1024 662 984 C614 944 565 924 515 924 L515 924 Z M480 728 C592 728 696 771 791 858 C886 945 933 1050 934 1174 C934 1248 907 1318 853 1383 C798 1448 718 1480 613 1480 C500 1480 397 1437 302 1350 C207 1263 159 1159 158 1036 C158 961 185 891 240 826 C295 761 375 728 480 728 L480 728 Z M1346 172 C1295 172 1257 188 1231 219 C1204 250 1191 284 1191 319 C1191 382 1215 434 1262 473 C1309 512 1358 532 1409 532 C1460 532 1498 517 1525 486 C1551 455 1564 421 1564 385 C1564 323 1540 272 1493 232 C1445 192 1396 172 1346 172 L1346 172 Z M1311 -24 C1423 -24 1527 19 1622 106 C1717 193 1764 298 1765 422 C1765 497 1738 566 1684 631 C1629 696 1549 728 1444 728 C1331 728 1228 685 1133 598 C1038 511 990 407 989 284 C989 209 1016 139 1071 74 C1126 9 1206 -24 1311 -24 L1311 -24 Z " />
<glyph glyph-name="ampersand" unicode="&#x26;" horiz-adv-x="1499" d="M501 176 C411 176 349 195 316 234 C283 273 266 315 266 360 C266 434 297 497 360 550 L504 671 L816 320 C727 224 622 176 501 176 L501 176 Z M466 -24 C644 -24 805 38 948 162 L1092 -1 L1374 -1 L1096 320 L1456 712 L1179 712 L965 476 L583 907 C548 947 531 992 531 1042 C531 1112 557 1169 609 1214 C660 1258 726 1280 805 1280 C873 1280 924 1261 957 1223 C990 1184 1006 1146 1006 1108 C1006 1099 1005 1091 1004 1082 L1233 1082 C1237 1107 1239 1130 1239 1153 C1239 1238 1206 1313 1140 1380 C1073 1447 974 1480 841 1480 C683 1479 554 1437 454 1353 C353 1269 302 1164 301 1039 C301 971 329 900 386 825 L231 695 C99 587 33 460 32 314 C32 224 63 145 126 78 C188 10 301 -24 466 -24 L466 -24 Z " />
<glyph glyph-name="quotesingle" unicode="&#x27;" horiz-adv-x="304" d="M396 1513 L186 1513 L137 1049 L281 1049 L396 1513 Z " />
<glyph glyph-name="parenleft" unicode="&#x28;" horiz-adv-x="540" d="M341 -427 C292 -298 267 -142 267 40 C267 205 294 420 349 685 C404 949 513 1214 677 1480 L480 1480 C313 1201 203 944 152 708 C100 471 74 263 74 82 C74 -100 97 -270 143 -427 L341 -427 Z " />
<glyph glyph-name="parenright" unicode="&#x29;" horiz-adv-x="540" d="M128 1480 C177 1351 202 1195 202 1013 C202 848 175 633 120 369 C65 104 -44 -161 -208 -427 L-11 -427 C156 -148 266 109 318 346 C369 582 395 790 395 971 C395 1153 372 1323 326 1480 L128 1480 Z " />
<glyph glyph-name="asterisk" unicode="&#x2a;" horiz-adv-x="613" d="M573 1078 L488 1203 L656 1243 L636 1378 L471 1317 L511 1480 L367 1480 L349 1317 L206 1378 L138 1243 L292 1203 L163 1078 L265 995 L378 1133 L442 995 L573 1078 Z " />
<glyph glyph-name="plus" unicode="&#x2b;" horiz-adv-x="1322" d="M741 646 L1134 646 L1163 811 L770 811 L840 1207 L651 1207 L581 811 L188 811 L159 646 L552 646 L482 250 L671 250 L741 646 Z " />
<glyph glyph-name="comma" unicode="&#x2c;" horiz-adv-x="512" d="M-124 -339 C-3 -262 99 -181 184 -98 C268 -15 310 71 311 158 C311 231 258 288 174 288 C133 288 94 272 59 240 C23 208 5 171 5 130 C5 103 12 76 27 47 C41 18 48 -2 48 -13 C48 -29 35 -57 10 -96 C-15 -135 -75 -193 -168 -272 L-124 -339 Z " />
<glyph glyph-name="&amp;#x2d;" unicode="&#x2d;" horiz-adv-x="796" d="M646 439 L679 625 L80 625 L47 439 L646 439 Z " />
<glyph glyph-name="&amp;#xad;" unicode="&#xad;" horiz-adv-x="796" d="M646 439 L679 625 L80 625 L47 439 L646 439 Z " />
<glyph glyph-name="period" unicode="&#x2e;" horiz-adv-x="513" d="M124 -24 C168 -24 210 -7 251 28 C292 62 312 106 312 160 C312 191 301 221 279 248 C256 275 223 288 179 288 C136 288 94 271 53 237 C12 202 -9 158 -9 104 C-9 73 2 44 25 17 C47 -10 80 -24 124 -24 L124 -24 Z " />
<glyph glyph-name="slash" unicode="&#x2f;" horiz-adv-x="713" d="M141 -24 L792 1480 L572 1480 L-79 -24 L141 -24 Z " />
<glyph glyph-name="zero" unicode="0" horiz-adv-x="1322" d="M567 197 C481 197 420 226 383 285 C346 344 326 397 323 444 C320 491 318 523 318 542 C318 701 356 861 431 1020 C506 1179 614 1259 755 1259 C927 1259 1004 1142 1004 910 C1004 721 962 555 878 412 C793 269 690 197 567 197 L567 197 Z M528 -24 C757 -24 937 73 1068 267 C1199 460 1265 683 1265 935 C1264 1104 1227 1238 1152 1335 C1077 1432 957 1480 794 1480 C552 1480 369 1381 244 1182 C119 983 56 758 56 508 C57 161 224 -24 528 -24 L528 -24 Z " />
<glyph glyph-name="one" unicode="1" horiz-adv-x="1321" d="M1078 216 L715 216 L934 1458 L674 1458 L241 1234 L319 1045 L630 1206 L455 216 L93 216 L54 -2 L1039 -2 L1078 216 Z " />
<glyph glyph-name="two" unicode="2" horiz-adv-x="1321" d="M1063 -2 L1102 216 L482 216 L1067 722 C1199 830 1265 959 1265 1110 C1265 1213 1224 1301 1141 1373 C1058 1444 941 1480 788 1480 C545 1480 350 1393 203 1218 L348 1071 C443 1194 565 1255 712 1255 C800 1255 867 1236 913 1197 C958 1158 981 1114 981 1063 C980 991 951 929 893 878 L53 164 L24 -2 L1063 -2 Z " />
<glyph glyph-name="three" unicode="3" horiz-adv-x="1324" d="M512 -23 C677 -23 828 23 964 114 C1099 205 1167 320 1167 460 C1167 509 1150 560 1117 614 C1083 667 1031 705 960 728 C1142 796 1233 929 1233 1128 C1233 1224 1196 1307 1121 1376 C1046 1445 933 1480 780 1480 C550 1480 364 1392 222 1216 L366 1068 C458 1193 577 1255 724 1255 C812 1255 875 1238 913 1205 C951 1171 970 1131 970 1084 C970 1005 939 944 876 900 C813 855 738 833 650 833 L533 833 L497 624 L612 624 C715 624 790 606 837 571 C883 536 906 494 906 445 C906 365 868 305 792 264 C716 223 630 202 535 202 C374 202 267 264 216 389 L19 241 C56 163 114 100 191 51 C268 2 375 -23 512 -23 L512 -23 Z " />
<glyph glyph-name="four" unicode="4" horiz-adv-x="1320" d="M935 -2 L977 237 L1161 237 L1199 454 L1015 454 L1069 757 L815 757 L762 454 L349 454 L1126 1458 L810 1458 L22 434 L-13 237 L724 237 L682 -2 L935 -2 Z " />
<glyph glyph-name="five" unicode="5" horiz-adv-x="1323" d="M516 -24 C688 -24 842 29 978 135 C1114 240 1182 383 1182 564 C1182 671 1140 764 1057 843 C974 922 856 961 705 961 L521 961 L570 1240 L1196 1240 L1234 1458 L349 1458 L222 737 L650 737 C738 737 805 715 851 670 C896 625 919 574 919 517 C919 417 878 339 795 284 C712 228 627 200 539 200 C387 200 279 265 216 396 L20 249 C125 67 290 -24 516 -24 L516 -24 Z " />
<glyph glyph-name="six" unicode="6" horiz-adv-x="1320" d="M569 201 C481 201 414 223 368 268 C321 313 298 364 298 421 C298 506 332 580 400 643 C467 706 555 737 663 737 C751 737 818 715 864 671 C909 626 932 575 932 518 C932 433 897 359 827 296 C756 233 670 201 569 201 L569 201 Z M529 -24 C702 -24 856 31 992 140 C1127 249 1195 390 1195 565 C1195 672 1154 765 1071 844 C988 923 884 962 758 962 C699 962 638 943 576 904 L1037 1458 L721 1458 L207 810 C92 673 35 530 35 381 C35 271 79 176 168 96 C256 16 376 -24 529 -24 L529 -24 Z " />
<glyph glyph-name="seven" unicode="7" horiz-adv-x="1322" d="M437 -2 L1274 1257 L1309 1458 L270 1458 L231 1240 L1003 1240 L165 -1 L437 -2 Z " />
<glyph glyph-name="eight" unicode="8" horiz-adv-x="1323" d="M567 194 C476 194 410 215 369 258 C328 300 308 346 308 396 C308 479 343 548 412 601 C481 654 562 681 653 681 C744 681 809 660 850 617 C891 574 911 528 911 478 C911 395 876 327 807 274 C738 221 658 194 567 194 L567 194 Z M690 895 C622 895 572 911 539 944 C506 977 489 1012 489 1051 C489 1112 516 1163 571 1203 C625 1243 686 1263 755 1263 C824 1263 875 1247 908 1215 C941 1182 957 1147 957 1109 C957 1046 930 995 875 955 C820 915 759 895 690 895 L690 895 Z M528 -24 C711 -24 864 27 987 128 C1110 229 1171 351 1171 495 C1171 616 1108 715 983 790 C1141 879 1220 999 1220 1148 C1220 1231 1185 1307 1116 1376 C1046 1445 939 1480 794 1480 C629 1480 493 1435 388 1345 C282 1254 228 1148 227 1026 C227 932 272 853 361 790 C150 688 44 542 44 352 C44 259 82 173 159 94 C236 15 359 -24 528 -24 L528 -24 Z " />
<glyph glyph-name="nine" unicode="9" horiz-adv-x="1320" d="M657 719 C569 719 502 741 457 786 C412 831 389 881 389 938 C389 1030 424 1106 494 1166 C564 1225 650 1255 751 1255 C839 1255 906 1233 953 1189 C999 1144 1022 1093 1022 1035 C1022 944 985 869 910 809 C835 749 751 719 657 719 L657 719 Z M599 -2 L1113 646 C1228 783 1285 926 1285 1075 C1285 1185 1241 1280 1153 1360 C1064 1440 944 1480 791 1480 C618 1480 464 1427 329 1322 C193 1216 125 1072 125 891 C125 784 166 692 249 613 C332 534 436 494 562 494 C621 494 682 513 744 552 L283 -1 L599 -2 Z " />
<glyph glyph-name="colon" unicode="&#x3a;" horiz-adv-x="513" d="M124 -24 C168 -24 210 -7 251 28 C292 62 312 106 312 160 C312 191 301 221 279 248 C256 275 223 288 179 288 C136 288 94 271 53 237 C12 202 -9 158 -9 104 C-9 73 2 44 25 17 C47 -10 80 -24 124 -24 L124 -24 Z M265 777 C309 777 352 794 393 829 C434 864 454 908 454 962 C454 993 443 1022 420 1049 C397 1076 364 1089 320 1089 C277 1089 235 1072 194 1037 C153 1002 132 958 132 905 C132 874 143 845 166 818 C188 791 221 777 265 777 L265 777 Z " />
<glyph glyph-name="&amp;#x3b;" unicode="&#x3b;" horiz-adv-x="512" d="M266 777 C310 777 352 794 393 829 C434 863 454 907 454 961 C454 992 443 1021 421 1048 C398 1075 365 1089 321 1089 C277 1089 235 1072 194 1038 C153 1003 133 959 133 905 C133 874 144 845 167 818 C189 791 222 777 266 777 L266 777 Z M-124 -339 C-6 -262 96 -183 182 -103 C267 -23 310 64 311 158 C311 231 258 288 174 288 C133 288 94 272 59 240 C23 208 5 171 5 130 C5 103 12 76 27 47 C41 18 48 -2 48 -13 C48 -29 35 -56 10 -93 C-15 -130 -75 -189 -168 -272 L-124 -339 Z " />
<glyph glyph-name="&amp;#x37e;" unicode="&#x37e;" horiz-adv-x="512" d="M266 777 C310 777 352 794 393 829 C434 863 454 907 454 961 C454 992 443 1021 421 1048 C398 1075 365 1089 321 1089 C277 1089 235 1072 194 1038 C153 1003 133 959 133 905 C133 874 144 845 167 818 C189 791 222 777 266 777 L266 777 Z M-124 -339 C-6 -262 96 -183 182 -103 C267 -23 310 64 311 158 C311 231 258 288 174 288 C133 288 94 272 59 240 C23 208 5 171 5 130 C5 103 12 76 27 47 C41 18 48 -2 48 -13 C48 -29 35 -56 10 -93 C-15 -130 -75 -189 -168 -272 L-124 -339 Z " />
<glyph glyph-name="less" unicode="&#x3c;" horiz-adv-x="1320" d="M1082 491 L471 728 L1166 965 L1201 1163 L211 812 L181 644 L1048 294 L1082 491 Z " />
<glyph glyph-name="equal" unicode="&#x3d;" horiz-adv-x="1321" d="M1143 835 L1176 1021 L248 1021 L215 835 L1143 835 Z M1073 436 L1105 621 L177 621 L145 436 L1073 436 Z " />
<glyph glyph-name="greater" unicode="&#x3e;" horiz-adv-x="1320" d="M1109 644 L1139 812 L273 1163 L238 965 L849 728 L154 491 L119 294 L1109 644 Z " />
<glyph glyph-name="question" unicode="&#x3f;" horiz-adv-x="1189" d="M633 432 L676 667 C819 690 942 738 1047 809 C1152 880 1204 984 1204 1121 C1204 1220 1162 1305 1078 1375 C993 1445 875 1480 722 1480 C479 1480 282 1392 133 1216 L278 1068 C376 1193 505 1255 666 1255 C754 1255 822 1238 870 1204 C917 1170 941 1129 941 1080 C941 951 841 870 642 836 C553 822 501 773 487 690 L448 432 L633 432 Z M460 -24 C416 -24 383 -10 361 17 C338 44 327 73 327 104 C327 159 347 203 388 237 C429 271 471 288 515 288 C559 288 592 275 615 248 C637 221 648 191 648 160 C648 107 628 63 587 28 C546 -7 504 -24 460 -24 L460 -24 Z " />
<glyph glyph-name="at" unicode="&#x40;" horiz-adv-x="1686" d="M829 558 C749 558 692 616 692 696 C692 749 712 796 753 837 C794 878 840 899 892 899 C982 899 1028 853 1030 761 C1030 698 1008 649 964 613 C919 576 874 558 829 558 L829 558 Z M880 -25 C1186 -25 1420 119 1582 408 L1380 408 C1255 226 1088 135 880 135 C716 135 576 193 461 309 C345 424 287 564 287 727 C287 890 345 1030 461 1146 C576 1261 716 1319 880 1319 C1043 1319 1173 1273 1268 1181 C1363 1088 1410 978 1410 849 C1410 762 1357 552 1214 558 C1175 558 1155 581 1155 626 C1155 633 1157 647 1161 670 L1221 1021 L1070 1021 L1057 948 C1010 1004 954 1032 887 1032 C794 1032 713 995 644 922 C574 849 539 766 539 674 C539 603 562 543 608 496 C653 448 712 424 783 424 C882 424 972 463 1055 540 C1055 469 1108 432 1214 431 C1347 431 1442 480 1498 579 C1553 677 1581 767 1581 849 C1581 1022 1517 1170 1389 1294 C1260 1417 1091 1479 880 1479 C669 1479 489 1406 340 1259 C191 1112 116 935 116 727 C116 520 191 343 340 196 C489 49 669 -25 880 -25 L880 -25 Z " />
<glyph glyph-name="A" unicode="A" horiz-adv-x="1531" d="M1336 -1 L982 1458 L806 1458 L-61 -1 L254 -1 L466 392 L986 392 L1060 -1 L1336 -1 Z M952 574 L565 574 L852 1105 L952 574 Z " />
<glyph glyph-name="B" unicode="B" horiz-adv-x="1420" d="M752 827 L461 827 L534 1243 L826 1243 C885 1243 929 1224 960 1186 C990 1147 1005 1106 1005 1063 C1005 992 978 935 923 892 C868 849 811 827 752 827 L752 827 Z M776 212 L352 212 L425 628 L846 628 C902 628 945 611 976 577 C1007 542 1022 506 1022 467 C1022 402 996 344 944 291 C891 238 835 212 776 212 L776 212 Z M730 -2 C865 -2 989 46 1103 141 C1217 236 1274 349 1274 478 C1274 535 1255 592 1217 651 C1179 710 1124 750 1053 773 C1107 799 1156 840 1200 897 C1243 954 1265 1024 1265 1108 C1265 1195 1231 1275 1162 1348 C1093 1421 993 1457 863 1457 L317 1457 L60 -2 L730 -2 Z " />
<glyph glyph-name="C" unicode="C" horiz-adv-x="1466" d="M743 -24 C954 -24 1148 48 1323 193 L1180 356 C1060 256 928 206 784 206 C638 206 529 251 458 341 C387 431 351 527 351 629 C352 799 415 945 541 1067 C666 1189 809 1250 968 1250 C1112 1250 1226 1200 1311 1100 L1511 1263 C1387 1408 1219 1480 1008 1480 C767 1480 553 1393 366 1220 C179 1046 86 836 85 589 C85 440 139 300 248 171 C356 41 521 -24 743 -24 L743 -24 Z " />
<glyph glyph-name="D" unicode="D" horiz-adv-x="1566" d="M606 212 L352 212 L534 1243 L788 1243 C931 1243 1039 1199 1113 1110 C1186 1021 1223 925 1223 824 C1221 650 1155 505 1025 388 C894 271 755 212 606 212 L606 212 Z M568 -2 C795 -2 1003 81 1193 247 C1383 413 1479 616 1481 857 C1481 1004 1425 1140 1313 1267 C1201 1394 1039 1457 826 1457 L317 1457 L60 -2 L568 -2 Z " />
<glyph glyph-name="E" unicode="E" horiz-adv-x="1286" d="M1059 -2 L1097 212 L352 212 L425 628 L1050 628 L1085 827 L461 827 L534 1243 L1279 1243 L1317 1457 L317 1457 L60 -2 L1059 -2 Z " />
<glyph glyph-name="F" unicode="F" horiz-adv-x="1265" d="M315 -2 L426 628 L1050 628 L1086 827 L461 827 L534 1243 L1279 1243 L1317 1457 L318 1457 L60 -2 L315 -2 Z " />
<glyph glyph-name="G" unicode="G" horiz-adv-x="1595" d="M735 -24 C899 -24 1056 16 1205 97 L1272 -1 L1316 -1 L1444 723 L1190 723 L1113 286 C1006 233 894 206 775 206 C630 206 521 251 450 341 C379 430 343 526 343 628 C344 799 405 945 528 1067 C650 1189 794 1250 959 1250 C1104 1250 1218 1200 1303 1100 L1503 1263 C1378 1408 1211 1480 1000 1480 C751 1480 537 1392 357 1215 C176 1038 86 829 85 587 C85 439 138 300 244 171 C349 41 513 -24 735 -24 L735 -24 Z " />
<glyph glyph-name="H" unicode="H" horiz-adv-x="1593" d="M1275 -2 L1533 1457 L1278 1457 L1167 827 L461 827 L572 1457 L318 1457 L60 -2 L315 -2 L426 628 L1132 628 L1021 -2 L1275 -2 Z " />
<glyph glyph-name="I" unicode="I" horiz-adv-x="633" d="M315 -2 L572 1457 L318 1457 L60 -2 L315 -2 Z " />
<glyph glyph-name="J" unicode="J" horiz-adv-x="1330" d="M476 -24 C628 -24 763 24 882 120 C1000 215 1072 335 1097 479 L1270 1457 L1016 1457 L840 462 C827 388 789 327 724 279 C659 230 589 206 516 206 C365 206 240 267 139 389 L-41 216 C72 56 244 -24 476 -24 L476 -24 Z " />
<glyph glyph-name="K" unicode="K" horiz-adv-x="1493" d="M315 -2 L398 468 L608 647 L1033 -1 L1345 -1 L799 805 L1578 1458 L1218 1458 L451 768 L572 1458 L318 1458 L61 -2 L315 -2 Z " />
<glyph glyph-name="L" unicode="L" horiz-adv-x="1198" d="M1091 212 L353 212 L572 1457 L318 1457 L61 -2 L1054 -2 L1091 212 Z " />
<glyph glyph-name="M" unicode="M" horiz-adv-x="1857" d="M1540 -2 L1797 1457 L1597 1457 L918 668 L518 1457 L318 1457 L60 -2 L312 -2 L495 1036 L798 383 L938 383 L1471 1036 L1288 -2 L1540 -2 Z " />
<glyph glyph-name="N" unicode="N" horiz-adv-x="1656" d="M1338 -2 L1596 1457 L1344 1457 L1157 394 L519 1457 L318 1457 L60 -2 L312 -2 L499 1061 L1137 -2 L1338 -2 Z " />
<glyph glyph-name="O" unicode="O" horiz-adv-x="1748" d="M782 204 C638 204 529 249 455 340 C380 431 343 528 343 631 C343 800 408 946 537 1069 C666 1191 809 1252 967 1252 C1111 1252 1220 1207 1294 1117 C1368 1026 1405 929 1405 826 C1404 643 1340 493 1211 378 C1082 262 939 204 782 204 L782 204 Z M742 -24 C969 -24 1179 59 1370 226 C1561 393 1659 605 1662 864 C1662 1014 1606 1154 1495 1285 C1384 1415 1221 1480 1007 1480 C766 1480 552 1392 366 1215 C179 1038 86 830 86 592 C86 441 142 301 253 171 C364 41 527 -24 742 -24 L742 -24 Z " />
<glyph glyph-name="P" unicode="P" horiz-adv-x="1413" d="M446 745 L534 1243 L888 1243 C958 1243 1014 1225 1056 1190 C1097 1155 1118 1109 1118 1053 C1118 955 1086 879 1022 826 C957 772 883 745 800 745 L446 745 Z M408 531 L778 531 C940 531 1080 584 1197 689 C1314 794 1372 927 1372 1088 C1372 1189 1334 1275 1258 1348 C1181 1421 1076 1457 941 1457 L317 1457 L60 -2 L314 -2 L408 531 Z " />
<glyph glyph-name="Q" unicode="Q" horiz-adv-x="1749" d="M782 204 C638 204 529 249 455 340 C380 430 343 527 343 631 C343 787 406 929 532 1058 C657 1187 802 1251 967 1251 C1111 1251 1220 1206 1294 1116 C1368 1026 1405 929 1405 826 C1403 656 1338 510 1210 388 C1082 265 939 204 782 204 L782 204 Z M966 -430 C1013 -430 1066 -426 1125 -417 L1159 -223 C1110 -232 1071 -237 1041 -237 C916 -237 856 -176 856 -95 C856 -83 860 -54 868 -9 C1075 22 1260 119 1421 282 C1582 445 1662 639 1662 864 C1662 1013 1606 1153 1495 1284 C1384 1415 1221 1480 1007 1480 C772 1480 560 1393 371 1220 C181 1046 86 837 86 593 C86 462 129 336 216 217 C303 97 437 22 620 -9 C609 -69 604 -112 604 -138 C604 -221 634 -290 693 -346 C752 -401 843 -429 966 -430 L966 -430 Z " />
<glyph glyph-name="R" unicode="R" horiz-adv-x="1432" d="M801 745 L447 745 L535 1243 L889 1243 C958 1243 1014 1225 1056 1190 C1098 1155 1119 1109 1119 1052 C1119 955 1085 879 1018 826 C950 772 878 745 801 745 L801 745 Z M1303 -2 L944 570 C1227 650 1370 823 1373 1088 C1373 1189 1335 1275 1259 1348 C1182 1421 1077 1457 942 1457 L318 1457 L61 -2 L315 -2 L409 531 L690 531 L1024 -2 L1303 -2 Z " />
<glyph glyph-name="S" unicode="S" horiz-adv-x="1348" d="M563 -23 C729 -23 884 23 1027 116 C1170 208 1241 331 1241 486 C1241 635 1144 720 973 769 L625 877 C524 908 473 950 473 1019 C473 1093 508 1151 578 1194 C647 1236 720 1257 796 1257 C952 1257 1060 1205 1121 1100 L1331 1248 C1230 1403 1063 1480 828 1480 C673 1480 527 1433 390 1340 C252 1247 183 1120 183 960 C183 831 264 742 426 695 L780 584 C892 551 953 514 953 439 C953 364 916 305 843 263 C769 221 689 200 602 200 C519 200 439 220 362 260 C284 299 231 351 202 416 L5 266 C44 176 116 105 222 54 C328 3 442 -23 563 -23 L563 -23 Z " />
<glyph glyph-name="T" unicode="T" horiz-adv-x="1219" d="M608 -2 L828 1244 L1294 1244 L1331 1457 L145 1457 L107 1244 L573 1244 L353 -2 L608 -2 Z " />
<glyph glyph-name="U" unicode="U" horiz-adv-x="1556" d="M645 -24 C808 -24 954 19 1085 105 C1215 191 1291 296 1313 420 L1496 1458 L1242 1458 L1066 460 C1051 378 1007 314 933 268 C858 222 776 199 685 199 C589 199 516 221 467 264 C417 307 392 358 392 415 C392 418 396 442 403 487 L572 1458 L318 1458 L135 420 C131 397 129 375 129 354 C129 263 170 177 252 97 C333 16 464 -24 645 -24 L645 -24 Z " />
<glyph glyph-name="V" unicode="V" horiz-adv-x="1530" d="M745 -1 L1593 1458 L1277 1458 L687 341 L471 1458 L196 1458 L529 -1 L745 -1 Z " />
<glyph glyph-name="W" unicode="W" horiz-adv-x="2110" d="M1492 -1 L2223 1458 L1904 1458 L1427 365 L1257 1458 L1065 1458 L539 365 L417 1458 L145 1458 L361 -1 L568 -1 L1113 1055 L1285 -1 L1492 -1 Z " />
<glyph glyph-name="X" unicode="X" horiz-adv-x="1482" d="M1300 -2 L896 728 L1558 1457 L1213 1457 L758 935 L485 1457 L181 1457 L585 728 L-77 -2 L268 -2 L724 520 L996 -2 L1300 -2 Z " />
<glyph glyph-name="Y" unicode="Y" horiz-adv-x="1462" d="M729 -2 L850 683 L1548 1457 L1203 1457 L747 934 L475 1457 L171 1457 L595 683 L475 -2 L729 -2 Z " />
<glyph glyph-name="Z" unicode="Z" horiz-adv-x="1287" d="M1060 -2 L1098 212 L366 212 L1293 1318 L1317 1457 L227 1457 L189 1243 L920 1243 L-6 137 L-31 -2 L1060 -2 Z " />
<glyph glyph-name="bracketleft" unicode="&#x5b;" horiz-adv-x="539" d="M344 -406 L374 -237 L180 -237 L449 1289 L643 1289 L673 1458 L279 1458 L-50 -406 L344 -406 Z " />
<glyph glyph-name="backslash" unicode="&#x5c;" horiz-adv-x="713" d="M527 -24 L383 1480 L186 1480 L330 -24 L527 -24 Z " />
<glyph glyph-name="bracketright" unicode="&#x5d;" horiz-adv-x="539" d="M190 -406 L519 1458 L125 1458 L95 1289 L289 1289 L20 -237 L-174 -237 L-204 -406 L190 -406 Z " />
<glyph glyph-name="asciicircum" unicode="&#x5e;" horiz-adv-x="1321" d="M1231 728 L905 1458 L674 1458 L90 728 L332 728 L767 1264 L1014 728 L1231 728 Z " />
<glyph glyph-name="underscore" unicode="&#x5f;" horiz-adv-x="1321" d="M1171 -406 L1201 -240 L-220 -240 L-249 -406 L1171 -406 Z " />
<glyph glyph-name="grave" unicode="&#x60;" horiz-adv-x="965" d="M848 1189 L590 1497 L328 1497 L675 1189 L848 1189 Z " />
<glyph glyph-name="a" unicode="a" horiz-adv-x="1224" d="M445 164 C393 164 350 176 317 200 C283 223 266 253 266 289 C266 377 327 440 483 440 L776 440 C770 404 764 368 757 331 C750 294 719 257 664 220 C608 183 535 164 445 164 L445 164 Z M347 -23 C530 -23 661 29 740 132 L717 -1 L946 -1 L1072 714 C1077 739 1079 763 1079 785 C1079 876 1039 949 960 1005 C880 1061 778 1089 654 1089 C483 1089 327 1032 187 918 L317 767 C414 840 508 877 597 877 C663 877 717 863 760 836 C803 808 824 773 824 730 C824 721 818 684 807 619 L511 619 C354 619 231 584 143 514 C55 444 11 351 10 235 C10 159 43 97 109 49 C174 1 254 -23 347 -23 L347 -23 Z " />
<glyph glyph-name="b" unicode="b" horiz-adv-x="1405" d="M629 189 C534 189 463 219 415 278 C366 337 342 401 342 469 C342 580 385 675 471 756 C556 836 649 876 750 876 C844 876 915 847 964 788 C1012 729 1036 665 1036 597 C1036 486 993 391 908 310 C823 229 730 189 629 189 L629 189 Z M639 -23 C803 -23 952 41 1087 170 C1221 299 1288 455 1288 640 C1288 748 1250 850 1175 946 C1099 1041 986 1089 835 1089 C686 1089 550 1022 426 887 L527 1458 L279 1458 L22 0 L254 0 L288 193 C365 49 482 -23 639 -23 L639 -23 Z " />
<glyph glyph-name="c" unicode="c" horiz-adv-x="1133" d="M559 -24 C705 -24 843 23 972 117 L856 282 C784 220 700 189 604 189 C511 189 438 218 385 275 C332 332 305 396 305 467 C305 584 350 682 440 760 C530 837 625 876 725 876 C821 876 894 845 944 782 L1118 948 C1022 1041 901 1088 755 1088 C570 1088 406 1024 264 897 C121 769 50 611 49 423 C49 304 93 199 180 110 C267 21 394 -24 559 -24 L559 -24 Z " />
<glyph glyph-name="d" unicode="d" horiz-adv-x="1404" d="M586 189 C492 189 421 219 373 278 C324 337 300 401 300 469 C300 580 343 675 428 756 C513 836 607 876 708 876 C802 876 873 847 922 788 C970 729 994 665 994 597 C993 486 951 391 866 310 C781 229 687 189 586 189 L586 189 Z M501 -23 C658 -23 800 49 928 193 L894 0 L1126 0 L1383 1458 L1136 1458 L1035 887 C959 1022 846 1089 697 1089 C526 1089 376 1025 245 896 C114 767 48 611 48 427 C48 318 86 216 162 121 C237 25 350 -23 501 -23 L501 -23 Z " />
<glyph glyph-name="e" unicode="e" horiz-adv-x="1244" d="M324 623 C343 698 384 762 449 817 C513 871 590 898 679 898 C780 898 847 875 880 828 C913 781 930 725 930 660 C930 648 929 636 928 623 L324 623 Z M554 -24 C701 -24 846 23 989 118 L872 280 C785 217 692 185 591 185 C498 185 426 211 373 263 C320 315 294 370 294 428 L294 441 L1132 441 C1155 510 1167 579 1167 647 C1167 754 1132 855 1062 948 C991 1041 875 1088 712 1088 C535 1088 381 1024 250 896 C118 768 52 615 51 436 C51 319 94 214 179 119 C264 24 389 -24 554 -24 L554 -24 Z " />
<glyph glyph-name="f" unicode="f" horiz-adv-x="872" d="M361 -1 L514 872 L843 872 L877 1066 L549 1066 L558 1118 C566 1164 591 1203 634 1235 C677 1266 732 1282 800 1282 C836 1282 874 1278 913 1269 L948 1467 C892 1476 840 1480 793 1480 C670 1480 565 1450 476 1391 C387 1332 331 1241 310 1118 L301 1066 L87 1066 L53 872 L267 872 L113 -1 L361 -1 Z " />
<glyph glyph-name="g" unicode="g" horiz-adv-x="1405" d="M471 -428 C627 -428 770 -382 901 -291 C1031 -199 1109 -80 1135 66 L1314 1066 L1082 1066 L1048 872 C971 1016 854 1088 697 1088 C520 1088 367 1021 240 886 C113 751 49 598 49 428 C49 321 87 223 163 136 C239 48 352 4 503 4 C652 4 787 69 910 199 L887 66 C872 -17 826 -82 748 -131 C669 -180 587 -204 500 -204 C357 -204 253 -169 187 -100 L49 -266 C94 -313 155 -352 232 -383 C309 -413 388 -428 471 -428 L471 -428 Z M586 189 C492 189 421 219 373 278 C324 337 300 400 300 468 C301 573 342 667 424 751 C505 834 600 876 708 876 C802 876 873 846 922 787 C970 728 994 664 994 596 C993 492 951 398 866 315 C781 231 687 189 586 189 L586 189 Z " />
<glyph glyph-name="h" unicode="h" horiz-adv-x="1354" d="M1191 653 C1196 684 1198 713 1198 740 C1198 832 1168 913 1107 984 C1046 1054 950 1089 818 1089 C665 1089 535 1029 430 909 L527 1458 L279 1458 L21 -1 L269 -1 L375 600 C389 679 429 746 495 803 C560 859 636 887 721 887 C799 887 856 869 892 832 C927 795 945 749 945 694 C945 675 943 654 940 633 L828 -1 L1076 -1 L1191 653 Z " />
<glyph glyph-name="i" unicode="i" horiz-adv-x="550" d="M359 1204 C402 1204 444 1221 485 1255 C525 1288 545 1332 545 1387 C545 1418 534 1446 512 1473 C489 1500 456 1513 413 1513 C370 1513 328 1496 287 1462 C246 1428 226 1384 226 1329 C226 1298 237 1270 260 1244 C282 1217 315 1204 359 1204 L359 1204 Z M270 -1 L458 1066 L210 1066 L22 -1 L270 -1 Z " />
<glyph glyph-name="j" unicode="j" horiz-adv-x="580" d="M373 1204 C416 1204 458 1221 499 1255 C540 1289 560 1333 560 1387 C560 1418 549 1446 527 1473 C504 1500 471 1513 428 1513 C385 1513 343 1496 302 1462 C261 1428 241 1384 241 1331 C241 1300 252 1271 275 1244 C297 1217 330 1204 373 1204 L373 1204 Z M-210 -427 C-87 -426 20 -395 109 -332 C198 -269 254 -176 275 -53 L473 1066 L225 1066 L28 -53 C17 -114 -11 -159 -57 -189 C-103 -218 -156 -233 -217 -234 C-240 -234 -278 -230 -331 -221 L-365 -414 C-309 -423 -257 -427 -210 -427 L-210 -427 Z " />
<glyph glyph-name="k" unicode="k" horiz-adv-x="1242" d="M1117 -1 L712 598 L1270 1066 L920 1066 L365 538 L527 1458 L279 1458 L22 -1 L270 -1 L317 266 L526 440 L814 -1 L1117 -1 Z " />
<glyph glyph-name="l" unicode="l" horiz-adv-x="580" d="M285 -1 L543 1458 L295 1458 L37 -1 L285 -1 Z " />
<glyph glyph-name="m" unicode="m" horiz-adv-x="1897" d="M1738 672 C1743 702 1746 731 1746 759 C1746 838 1721 912 1672 983 C1622 1053 1541 1088 1429 1089 C1272 1087 1146 1020 1050 888 C1004 1022 910 1089 768 1089 C647 1089 537 1029 438 909 L466 1066 L234 1066 L46 -1 L294 -1 L407 642 C419 711 451 768 502 811 C553 854 609 876 670 876 C725 876 766 860 793 827 C820 794 834 758 834 717 C834 713 830 689 823 645 L711 -1 L959 -1 L1073 645 C1084 708 1113 762 1162 808 C1211 853 1268 876 1333 876 C1386 876 1427 860 1454 827 C1481 794 1494 758 1494 718 C1494 713 1491 690 1484 649 L1371 -1 L1619 -1 L1738 672 Z " />
<glyph glyph-name="n" unicode="n" horiz-adv-x="1378" d="M1213 641 C1218 675 1221 707 1221 738 C1221 831 1192 912 1133 983 C1074 1054 980 1089 850 1089 C685 1089 547 1022 435 889 L466 1066 L234 1066 L46 -1 L294 -1 L400 605 C415 686 454 752 519 802 C583 851 658 876 743 876 C818 876 874 857 912 820 C950 783 969 737 969 684 C969 670 968 655 965 639 L852 -1 L1100 -1 L1213 641 Z " />
<glyph glyph-name="o" unicode="o" horiz-adv-x="1338" d="M574 189 C483 189 415 219 370 278 C324 337 301 399 301 465 C301 578 342 675 425 756 C508 836 598 876 695 876 C786 876 854 847 900 788 C946 729 969 667 969 600 C968 487 928 391 849 310 C770 229 678 189 574 189 L574 189 Z M537 -23 C709 -23 866 41 1008 170 C1149 299 1220 453 1220 632 C1220 743 1179 847 1096 944 C1013 1041 892 1089 733 1089 C560 1089 403 1025 262 896 C121 767 50 613 50 432 C50 321 91 218 174 122 C257 25 378 -23 537 -23 L537 -23 Z " />
<glyph glyph-name="p" unicode="p" horiz-adv-x="1405" d="M629 189 C534 189 463 219 415 278 C366 337 342 400 342 468 C343 579 384 675 466 756 C548 836 643 876 750 876 C844 876 915 846 964 787 C1012 728 1036 664 1036 596 C1035 492 993 398 908 315 C823 231 730 189 629 189 L629 189 Z M198 -405 L301 175 C378 42 490 -24 639 -24 C803 -24 952 40 1086 169 C1220 298 1287 454 1288 639 C1288 748 1250 850 1175 945 C1099 1040 986 1088 835 1088 C678 1088 536 1016 408 872 L442 1066 L210 1066 L-49 -405 L198 -405 Z " />
<glyph glyph-name="q" unicode="q" horiz-adv-x="1405" d="M586 189 C492 189 421 219 373 278 C324 337 300 400 300 468 C301 586 344 684 429 761 C514 838 607 876 708 876 C802 876 873 846 922 787 C970 728 994 664 994 596 C993 485 951 390 866 310 C781 229 687 189 586 189 L586 189 Z M1314 1066 L1082 1066 L1048 872 C971 1016 854 1088 697 1088 C526 1088 376 1022 245 891 C114 759 48 604 48 426 C48 317 86 215 162 120 C237 24 350 -24 501 -24 C650 -24 786 43 910 178 L807 -405 L1055 -405 L1314 1066 Z " />
<glyph glyph-name="r" unicode="r" horiz-adv-x="850" d="M380 625 C392 694 425 752 479 798 C533 844 591 867 652 867 C685 867 714 860 741 846 L875 1035 C840 1065 788 1080 718 1080 C592 1080 491 1023 414 908 L440 1057 L208 1057 L20 -10 L268 -10 L380 625 Z " />
<glyph glyph-name="s" unicode="s" horiz-adv-x="1087" d="M402 -32 C521 -32 637 -1 751 61 C865 122 922 217 922 344 C922 443 857 513 727 556 L460 651 C401 671 374 694 374 737 C374 824 458 887 602 887 C678 887 770 856 878 793 L1012 962 C893 1041 763 1080 622 1080 C482 1080 359 1044 254 973 C149 902 96 807 96 690 C96 593 151 526 261 489 L544 395 C609 374 645 350 645 305 C645 256 623 219 580 194 C536 169 481 157 414 157 C361 157 302 168 238 189 C173 210 118 241 72 283 L-55 114 C-10 64 58 27 147 4 C236 -20 321 -32 402 -32 L402 -32 Z " />
<glyph glyph-name="t" unicode="t" horiz-adv-x="872" d="M527 -32 C574 -32 627 -28 686 -19 L720 175 C678 166 639 162 602 162 C487 163 417 217 417 302 C417 315 449 504 514 871 L843 871 L877 1066 L549 1066 L605 1388 L342 1301 L301 1066 L87 1066 L53 871 L267 871 L173 343 C168 314 165 286 165 260 C165 177 195 108 254 53 C313 -3 404 -31 527 -32 L527 -32 Z " />
<glyph glyph-name="u" unicode="u" horiz-adv-x="1365" d="M464 -25 C628 -25 760 42 861 175 L830 -2 L1062 -2 L1250 1066 L1002 1066 L895 460 C864 285 738 188 559 188 C485 188 430 207 395 244 C359 281 341 325 341 377 C341 392 342 409 345 426 L457 1066 L209 1066 L96 424 C91 391 88 359 88 329 C88 235 118 153 178 82 C238 11 333 -25 464 -25 L464 -25 Z " />
<glyph glyph-name="v" unicode="v" horiz-adv-x="1201" d="M594 -2 L1245 1066 L939 1066 L495 225 L347 1066 L76 1066 L350 -2 L594 -2 Z " />
<glyph glyph-name="w" unicode="w" horiz-adv-x="1734" d="M1203 -2 L1778 1066 L1476 1066 L1113 240 L1018 1066 L808 1066 L432 240 L337 1066 L76 1066 L277 -2 L521 -2 L865 710 L959 -2 L1203 -2 Z " />
<glyph glyph-name="x" unicode="x" horiz-adv-x="1147" d="M1004 -2 L722 542 L1192 1066 L863 1066 L552 684 L374 1066 L76 1066 L372 543 L-113 -2 L216 -2 L532 403 L705 -2 L1004 -2 Z " />
<glyph glyph-name="y" unicode="y" horiz-adv-x="1163" d="M58 -428 C146 -428 223 -410 290 -373 C357 -336 419 -268 478 -168 L1200 1066 L909 1066 L511 328 L373 1066 L97 1066 L355 46 L260 -111 C216 -183 172 -235 92 -235 C35 -235 -14 -231 -53 -223 L-87 -414 C-38 -423 11 -428 58 -428 L58 -428 Z " />
<glyph glyph-name="z" unicode="z" horiz-adv-x="1108" d="M887 -2 L921 192 L326 192 L1041 871 L1075 1066 L153 1066 L118 871 L713 871 L-1 192 L-36 -2 L887 -2 Z " />
<glyph glyph-name="braceleft" unicode="&#x7b;" horiz-adv-x="540" d="M299 -406 L328 -237 L289 -237 C242 -237 218 -218 218 -181 C218 -176 219 -170 220 -164 L309 347 C314 376 316 392 316 395 C316 455 288 499 231 526 C311 559 358 616 373 698 L464 1218 C471 1258 501 1289 557 1289 L597 1289 L627 1458 L554 1458 C486 1458 424 1434 367 1387 C310 1339 276 1282 264 1215 L173 698 C163 640 119 608 42 603 L15 449 C82 444 115 419 115 373 C115 367 114 361 113 354 L24 -155 C19 -185 17 -202 17 -206 C17 -255 35 -300 70 -343 C105 -385 157 -406 226 -406 L299 -406 Z " />
<glyph glyph-name="bar" unicode="&#x7c;" horiz-adv-x="1322" d="M551 -427 L887 1480 L699 1480 L362 -427 L551 -427 Z " />
<glyph glyph-name="braceright" unicode="&#x7d;" horiz-adv-x="540" d="M170 1458 L141 1289 L180 1289 C227 1289 251 1270 251 1233 C251 1228 250 1222 249 1216 L160 705 C155 676 153 660 153 657 C153 597 181 553 238 526 C158 493 111 436 96 354 L5 -166 C-2 -206 -32 -237 -88 -237 L-128 -237 L-158 -406 L-85 -406 C-17 -406 45 -382 102 -335 C159 -287 193 -230 205 -163 L296 354 C306 412 350 444 427 449 L454 603 C387 608 354 633 354 679 C354 685 355 691 356 698 L445 1207 C450 1237 452 1254 452 1258 C452 1307 434 1352 399 1395 C364 1437 312 1458 243 1458 L170 1458 Z " />
<glyph glyph-name="asciitilde" unicode="&#x7e;" horiz-adv-x="1323" d="M840 591 C964 591 1048 648 1092 762 L959 846 C932 787 890 757 832 757 C785 757 737 775 686 812 C635 848 566 866 479 866 C354 866 271 808 230 691 L359 611 C386 670 429 700 486 700 C532 700 581 682 632 646 C683 609 753 591 840 591 L840 591 Z " />
<glyph glyph-name="exclamdown" unicode="&#xa1;" horiz-adv-x="804" d="M355 622 L133 -426 L392 -426 L540 622 L355 622 Z M528 1078 C572 1078 605 1064 628 1037 C650 1010 661 981 661 950 C661 896 641 852 600 818 C559 783 516 766 473 766 C429 766 396 780 374 807 C351 834 340 863 340 894 C340 948 360 992 401 1027 C442 1061 484 1078 528 1078 L528 1078 Z " />
<glyph glyph-name="cent" unicode="&#xa2;" horiz-adv-x="1322" d="M485 -2 C529 -17 576 -24 627 -24 C774 -24 911 23 1040 116 L919 274 C850 217 768 188 672 188 C579 188 507 217 457 274 C406 331 381 394 381 464 C381 569 421 664 502 749 C583 833 680 875 793 875 C889 875 961 846 1010 789 L1187 948 C1126 1006 1051 1045 964 1066 L1062 1284 L865 1284 L775 1083 C604 1066 453 997 324 874 C194 751 129 603 129 431 C129 282 193 162 321 71 L190 -220 L387 -220 L485 -2 Z " />
<glyph glyph-name="sterling" unicode="&#xa3;" horiz-adv-x="1322" d="M1065 -2 L1100 193 L440 193 L518 633 L848 633 L880 815 L550 815 L588 1032 C601 1105 631 1159 678 1196 C725 1232 779 1250 840 1250 C949 1250 1038 1194 1107 1081 L1283 1232 C1233 1312 1178 1373 1119 1416 C1059 1459 971 1480 855 1480 C719 1480 604 1435 509 1346 C414 1257 356 1153 335 1034 L296 815 L186 815 L154 633 L264 633 L186 193 L34 193 L-1 -2 L1065 -2 Z " />
<glyph glyph-name="currency" unicode="&#xa4;" horiz-adv-x="1321" d="M624 522 C562 522 516 540 487 575 C458 610 443 647 443 686 C443 760 470 820 523 866 C576 911 634 934 696 934 C755 934 798 917 827 882 C856 847 870 809 870 768 C870 694 844 635 792 590 C739 545 683 522 624 522 L624 522 Z M959 226 L1098 343 L943 528 C1010 612 1044 697 1044 784 C1044 831 1034 879 1014 927 L1233 1106 L1135 1223 L916 1044 C856 1084 793 1104 726 1104 C659 1104 589 1084 516 1044 L360 1223 L221 1106 L377 927 C308 842 273 756 273 670 C273 622 284 575 306 528 L86 343 L184 226 L404 411 C464 371 527 351 594 351 C661 351 731 371 804 411 L959 226 Z " />
<glyph glyph-name="yen" unicode="&#xa5;" horiz-adv-x="1323" d="M660 -3 L738 436 L1168 436 L1201 621 L770 621 L781 682 L919 835 L1239 835 L1271 1021 L1086 1021 L1478 1456 L1154 1456 L698 933 L426 1456 L102 1456 L340 1021 L155 1021 L122 835 L443 835 L526 683 L515 621 L84 621 L52 436 L483 436 L405 -3 L660 -3 Z " />
<glyph glyph-name="brokenbar" unicode="&#xa6;" horiz-adv-x="1322" d="M551 -427 L697 400 L508 400 L362 -427 L551 -427 Z M742 653 L887 1480 L699 1480 L553 653 L742 653 Z " />
<glyph glyph-name="section" unicode="&#xa7;" horiz-adv-x="1322" d="M450 -427 C602 -427 746 -382 881 -293 C1016 -203 1083 -82 1083 71 C1083 108 1077 141 1066 170 C1159 251 1205 353 1205 475 C1205 536 1187 590 1150 635 C1113 680 1056 714 981 739 C906 764 827 783 744 798 C637 815 549 839 481 870 C412 900 378 949 378 1016 C378 1109 421 1182 507 1235 C592 1288 683 1315 778 1315 C949 1315 1070 1257 1141 1141 L1296 1248 C1196 1402 1031 1479 801 1479 C649 1479 506 1434 371 1344 C236 1254 168 1133 168 980 C168 943 174 910 185 881 C92 799 46 697 46 576 C46 515 65 462 102 417 C139 372 195 338 270 313 C345 288 424 268 507 253 C614 236 701 212 770 182 C839 152 873 103 873 35 C873 -58 830 -131 745 -184 C659 -237 569 -264 474 -264 C301 -264 180 -206 110 -90 L-45 -197 C56 -350 221 -427 450 -427 L450 -427 Z M947 297 C878 336 770 369 621 395 C514 412 427 436 358 467 C289 497 255 545 255 612 C255 667 271 714 304 755 C373 715 482 682 629 656 C736 639 823 615 892 585 C961 555 995 506 995 438 C995 383 979 336 947 297 L947 297 Z " />
<glyph glyph-name="dieresis" unicode="&#xa8;" horiz-adv-x="968" d="M382 1226 C415 1226 448 1239 479 1265 C510 1291 526 1325 526 1367 C526 1414 492 1464 424 1464 C391 1464 358 1451 327 1425 C296 1398 280 1364 280 1323 C280 1276 315 1226 382 1226 L382 1226 Z M761 1226 C794 1226 827 1239 858 1266 C889 1292 905 1326 905 1367 C905 1414 870 1464 803 1464 C770 1464 737 1451 706 1425 C675 1399 659 1365 659 1323 C659 1276 694 1226 761 1226 L761 1226 Z " />
<glyph glyph-name="copyright" unicode="&#xa9;" horiz-adv-x="1901" d="M847 141 C680 141 554 192 468 293 C381 394 338 503 338 620 C339 807 412 969 557 1107 C702 1245 867 1314 1054 1314 C1220 1314 1346 1263 1433 1162 C1519 1060 1562 951 1562 834 C1561 643 1484 480 1333 345 C1182 209 1020 141 847 141 L847 141 Z M818 -25 C1045 -25 1256 62 1449 236 C1642 409 1738 619 1738 864 C1738 1014 1682 1154 1571 1284 C1460 1414 1297 1479 1083 1479 C848 1479 636 1394 447 1224 C257 1054 162 843 162 591 C162 441 218 301 329 171 C440 40 603 -25 818 -25 L818 -25 Z M902 378 C804 378 728 408 674 468 C619 527 592 593 592 664 C592 778 636 875 723 956 C810 1036 910 1076 1025 1076 C1112 1076 1184 1050 1243 997 L1129 878 C1096 911 1052 927 999 927 C942 927 887 905 833 862 C778 819 751 761 751 690 C751 649 767 612 798 579 C829 545 872 528 929 528 C982 528 1031 544 1076 577 L1147 457 C1071 404 989 378 902 378 L902 378 Z " />
<glyph glyph-name="ordfeminine" unicode="&#xaa;" horiz-adv-x="825" d="M386 849 C335 849 302 856 288 871 C273 885 266 902 266 921 C266 993 314 1029 411 1029 L604 1029 L592 958 C587 927 562 902 517 881 C472 860 429 849 386 849 L386 849 Z M319 718 C414 718 501 751 580 817 L565 731 L727 731 L814 1223 C817 1242 819 1259 819 1275 C819 1339 791 1389 736 1426 C681 1463 606 1481 513 1481 C406 1481 304 1440 207 1358 C252 1305 283 1270 301 1253 C368 1302 430 1327 488 1327 C596 1327 640 1287 640 1235 C640 1230 636 1203 627 1155 L433 1155 C309 1155 220 1131 166 1082 C112 1033 85 971 85 898 C85 845 108 801 155 768 C202 735 256 718 319 718 L319 718 Z " />
<glyph glyph-name="guillemotleft" unicode="&#xab;" horiz-adv-x="1309" d="M581 77 L395 532 L742 987 L524 987 L177 532 L364 77 L581 77 Z M1011 77 L824 532 L1171 987 L953 987 L606 532 L793 77 L1011 77 Z " />
<glyph glyph-name="logicalnot" unicode="&#xac;" horiz-adv-x="1322" d="M1244 725 L76 725 L47 559 L1026 559 L987 340 L1176 340 L1244 725 Z " />
<glyph glyph-name="registered" unicode="&#xae;" horiz-adv-x="1900" d="M993 748 C1069 748 1121 794 1121 871 C1121 920 1090 944 1028 944 L901 944 L867 748 L993 748 Z M1082 385 L945 636 L847 636 L803 385 L651 385 L771 1069 L1062 1069 C1199 1067 1267 1011 1267 902 C1267 786 1213 706 1104 661 L1262 385 L1082 385 Z M847 141 C680 141 554 192 468 293 C381 394 338 503 338 620 C339 813 413 977 562 1112 C710 1247 874 1314 1054 1314 C1220 1314 1346 1263 1433 1162 C1519 1060 1562 951 1562 834 C1562 647 1488 485 1339 348 C1190 210 1026 141 847 141 L847 141 Z M818 -25 C1059 -25 1272 62 1458 236 C1644 409 1737 619 1738 864 C1738 1014 1682 1154 1571 1284 C1460 1414 1297 1479 1083 1479 C848 1479 636 1392 447 1219 C257 1046 162 836 162 591 C162 441 218 301 329 171 C440 40 603 -25 818 -25 L818 -25 Z " />
<glyph glyph-name="overscore" unicode="&#xaf;" horiz-adv-x="969" d="M897 1286 L922 1430 L293 1430 L267 1286 L897 1286 Z " />
<glyph glyph-name="degree" unicode="&#xb0;" horiz-adv-x="623" d="M367 1103 C332 1103 303 1115 279 1140 C255 1165 243 1195 243 1230 C243 1265 255 1294 279 1319 C303 1344 332 1356 367 1356 C401 1356 430 1344 454 1319 C478 1294 490 1265 490 1230 C490 1195 478 1165 454 1140 C430 1115 401 1103 367 1103 L367 1103 Z M367 979 C436 979 495 1004 544 1053 C593 1102 617 1161 617 1230 C617 1299 593 1358 544 1407 C495 1456 436 1480 367 1480 C298 1480 239 1456 190 1407 C141 1358 116 1299 116 1230 C116 1161 141 1102 190 1053 C239 1004 298 979 367 979 L367 979 Z " />
<glyph glyph-name="plusminus" unicode="&#xb1;" horiz-adv-x="1320" d="M747 683 L1103 683 L1132 849 L776 849 L839 1208 L651 1208 L587 849 L231 849 L202 683 L558 683 L495 324 L684 324 L747 683 Z M1012 165 L111 165 L82 0 L982 0 L1012 165 Z " />
<glyph glyph-name="uni00B2" unicode="&#xb2;" horiz-adv-x="702" d="M635 730 L666 907 L435 907 L577 1024 C682 1105 734 1191 734 1282 C734 1339 712 1388 667 1427 C622 1466 561 1486 482 1486 C356 1486 252 1438 171 1343 L288 1227 C330 1279 380 1305 439 1305 C497 1305 526 1286 526 1247 C526 1219 504 1188 461 1155 L100 861 L77 730 L635 730 Z " />
<glyph glyph-name="uni00B3" unicode="&#xb3;" horiz-adv-x="702" d="M340 719 C427 719 506 744 579 795 C651 845 687 909 687 986 C687 1033 663 1072 614 1103 C681 1153 715 1217 715 1295 C715 1350 694 1396 652 1432 C609 1468 551 1486 476 1486 C357 1486 257 1440 177 1347 L295 1230 C335 1280 381 1305 433 1305 C482 1305 506 1288 506 1253 C506 1206 475 1168 412 1168 L347 1168 L324 1037 L386 1037 C451 1037 483 1018 483 981 C483 927 442 900 361 900 C302 900 261 925 240 975 L81 858 C128 765 214 719 340 719 L340 719 Z " />
<glyph glyph-name="acute" unicode="&#xb4;" horiz-adv-x="965" d="M330 1189 L503 1189 L850 1497 L588 1497 L330 1189 Z " />
<glyph glyph-name="&amp;#xb5;" unicode="&#xb5;" horiz-adv-x="1340" d="M270 92 C307 15 373 -24 469 -24 C633 -24 766 59 861 176 L830 -1 L1062 -1 L1250 1066 L1002 1066 L895 460 C880 371 842 303 781 257 C720 211 646 188 559 188 C485 188 430 207 395 244 C359 281 341 325 341 377 C341 392 342 409 345 426 L457 1066 L210 1066 L-49 -404 L183 -404 L270 92 Z " />
<glyph glyph-name="&amp;#x3bc;" unicode="&#x3bc;" horiz-adv-x="1340" d="M270 92 C307 15 373 -24 469 -24 C633 -24 766 59 861 176 L830 -1 L1062 -1 L1250 1066 L1002 1066 L895 460 C880 371 842 303 781 257 C720 211 646 188 559 188 C485 188 430 207 395 244 C359 281 341 325 341 377 C341 392 342 409 345 426 L457 1066 L210 1066 L-49 -404 L183 -404 L270 92 Z " />
<glyph glyph-name="paragraph" unicode="&#xb6;" horiz-adv-x="1253" d="M951 -426 L1288 1481 L613 1481 C494 1481 389 1438 297 1351 C205 1264 159 1159 159 1035 C159 961 186 892 241 827 C295 762 375 729 480 729 L276 -426 L465 -426 L772 1315 L1070 1315 L763 -426 L951 -426 Z " />
<glyph glyph-name="&amp;#xb7;" unicode="&#xb7;" horiz-adv-x="617" d="M246 371 C290 371 332 388 373 423 C414 458 434 502 434 555 C434 586 423 616 400 643 C377 670 344 683 301 683 C257 683 215 666 174 632 C133 598 113 554 113 499 C113 468 124 439 147 412 C169 385 202 371 246 371 L246 371 Z " />
<glyph glyph-name="&amp;#x2219;" unicode="&#x2219;" horiz-adv-x="617" d="M246 371 C290 371 332 388 373 423 C414 458 434 502 434 555 C434 586 423 616 400 643 C377 670 344 683 301 683 C257 683 215 666 174 632 C133 598 113 554 113 499 C113 468 124 439 147 412 C169 385 202 371 246 371 L246 371 Z " />
<glyph glyph-name="cedilla" unicode="&#xb8;" horiz-adv-x="967" d="M249 -412 C317 -412 383 -397 447 -366 C511 -335 543 -284 543 -213 C543 -139 488 -100 378 -96 L457 0 L325 0 L240 -114 L227 -188 L284 -188 C339 -188 366 -204 366 -235 C366 -262 354 -281 329 -292 C304 -303 282 -308 261 -308 C214 -308 171 -295 132 -270 L62 -360 C107 -395 169 -412 249 -412 L249 -412 Z " />
<glyph glyph-name="uni00B9" unicode="&#xb9;" horiz-adv-x="701" d="M551 730 L682 1474 L492 1474 L262 1355 L324 1202 L440 1262 L347 730 L551 730 Z " />
<glyph glyph-name="ordmasculine" unicode="&#xba;" horiz-adv-x="940" d="M472 871 C411 871 366 891 336 930 C305 969 290 1011 290 1056 C290 1136 319 1201 376 1252 C433 1303 492 1328 553 1328 C614 1328 659 1308 690 1269 C720 1230 735 1188 735 1143 C735 1063 706 998 649 947 C592 896 533 871 472 871 L472 871 Z M445 719 C568 719 676 763 771 851 C866 938 913 1044 913 1169 C913 1244 885 1315 828 1381 C771 1447 689 1480 580 1480 C457 1480 349 1436 255 1349 C160 1261 113 1155 112 1031 C112 955 140 884 197 818 C254 752 336 719 445 719 L445 719 Z " />
<glyph glyph-name="guillemotright" unicode="&#xbb;" horiz-adv-x="1309" d="M717 77 L1064 532 L878 987 L660 987 L846 532 L499 77 L717 77 Z M288 77 L635 532 L449 987 L231 987 L417 532 L70 77 L288 77 Z " />
<glyph glyph-name="onequarter" unicode="&#xbc;" horiz-adv-x="1709" d="M487 730 L618 1474 L428 1474 L198 1355 L260 1202 L376 1262 L283 730 L487 730 Z M399 -18 L1546 1486 L1295 1486 L147 -18 L399 -18 Z M1405 -1 L1423 98 L1511 98 L1541 265 L1452 265 L1475 394 L1290 394 L1268 265 L1120 265 L1485 743 L1265 743 L884 247 L858 98 L1238 98 L1221 -1 L1405 -1 Z " />
<glyph glyph-name="onehalf" unicode="&#xbd;" horiz-adv-x="1710" d="M1473 -1 L1504 176 L1273 176 L1458 328 C1534 391 1572 465 1572 551 C1572 608 1550 657 1505 696 C1460 735 1399 754 1320 754 C1194 754 1090 707 1009 612 L1126 496 C1168 548 1218 574 1277 574 C1336 574 1365 555 1365 517 C1365 489 1356 468 1338 454 L938 130 L915 -1 L1473 -1 Z M502 730 L633 1474 L443 1474 L213 1355 L275 1202 L391 1262 L298 730 L502 730 Z M410 -18 L1558 1486 L1307 1486 L159 -18 L410 -18 Z " />
<glyph glyph-name="threequarters" unicode="&#xbe;" horiz-adv-x="1711" d="M381 719 C255 719 169 765 122 858 L281 975 C302 925 343 900 402 900 C483 900 524 927 524 982 C524 1017 494 1036 435 1037 L365 1037 L388 1168 L453 1168 C513 1168 547 1204 547 1253 C547 1288 523 1305 474 1305 C422 1305 376 1280 336 1230 L218 1347 C298 1440 398 1486 517 1486 C592 1486 650 1468 693 1432 C735 1396 756 1350 756 1295 C756 1217 722 1153 655 1103 C704 1072 728 1033 728 986 C728 909 692 845 620 795 C547 744 468 719 381 719 L381 719 Z M388 -18 L1535 1486 L1284 1486 L137 -18 L388 -18 Z M1394 -1 L1412 98 L1501 98 L1530 265 L1441 265 L1464 394 L1280 394 L1257 265 L1110 265 L1474 743 L1254 743 L873 247 L847 98 L1227 98 L1210 -1 L1394 -1 Z " />
<glyph glyph-name="questiondown" unicode="&#xbf;" horiz-adv-x="1170" d="M537 622 L494 387 C351 364 228 317 123 246 C18 175 -34 70 -34 -67 C-34 -166 8 -251 93 -321 C177 -391 295 -426 448 -426 C691 -426 888 -338 1037 -162 L892 -14 C794 -139 665 -201 504 -201 C416 -201 348 -184 301 -150 C253 -116 229 -75 229 -26 C229 103 329 184 528 218 C617 232 669 281 683 364 L722 622 L537 622 Z M710 1078 C754 1078 787 1064 810 1037 C832 1010 843 981 843 950 C843 895 823 851 782 817 C741 783 699 766 655 766 C611 766 578 780 556 807 C533 834 522 863 522 894 C522 947 542 991 583 1026 C624 1061 666 1078 710 1078 L710 1078 Z " />
<glyph glyph-name="Agrave" unicode="&#xc0;" horiz-adv-x="1531" d="M1336 -1 L982 1458 L806 1458 L-61 -1 L254 -1 L466 392 L986 392 L1060 -1 L1336 -1 Z M952 574 L565 574 L852 1105 L952 574 Z M1044 1588 L786 1896 L524 1896 L871 1588 L1044 1588 Z " />
<glyph glyph-name="Aacute" unicode="&#xc1;" horiz-adv-x="1531" d="M1336 -1 L982 1458 L806 1458 L-61 -1 L254 -1 L466 392 L986 392 L1060 -1 L1336 -1 Z M952 574 L565 574 L852 1105 L952 574 Z M680 1588 L853 1588 L1200 1896 L938 1896 L680 1588 Z " />
<glyph glyph-name="Acircumflex" unicode="&#xc2;" horiz-adv-x="1531" d="M1336 -1 L982 1458 L806 1458 L-61 -1 L254 -1 L466 392 L986 392 L1060 -1 L1336 -1 Z M952 574 L565 574 L852 1105 L952 574 Z M1257 1604 L1041 1911 L849 1911 L525 1604 L693 1604 L934 1794 L1109 1604 L1257 1604 Z " />
<glyph glyph-name="Atilde" unicode="&#xc3;" horiz-adv-x="1531" d="M1336 -1 L982 1458 L806 1458 L-61 -1 L254 -1 L466 392 L986 392 L1060 -1 L1336 -1 Z M952 574 L565 574 L852 1105 L952 574 Z M1070 1631 C1176 1631 1251 1686 1294 1795 L1179 1861 C1154 1804 1115 1775 1062 1775 C1039 1775 994 1793 928 1830 C862 1866 807 1884 764 1884 C658 1884 585 1828 544 1716 L655 1654 C680 1711 719 1740 772 1740 C795 1740 840 1722 906 1686 C971 1649 1026 1631 1070 1631 L1070 1631 Z " />
<glyph glyph-name="Adieresis" unicode="&#xc4;" horiz-adv-x="1531" d="M1336 -1 L982 1458 L806 1458 L-61 -1 L254 -1 L466 392 L986 392 L1060 -1 L1336 -1 Z M952 574 L565 574 L852 1105 L952 574 Z M705 1625 C738 1625 771 1638 802 1664 C833 1690 849 1724 849 1766 C849 1813 815 1863 747 1863 C714 1863 681 1850 650 1824 C619 1797 603 1763 603 1722 C603 1675 638 1625 705 1625 L705 1625 Z M1084 1625 C1117 1625 1150 1638 1181 1665 C1212 1691 1228 1725 1228 1766 C1228 1813 1193 1863 1126 1863 C1093 1863 1060 1850 1029 1824 C998 1798 982 1764 982 1722 C982 1675 1017 1625 1084 1625 L1084 1625 Z " />
<glyph glyph-name="Aring" unicode="&#xc5;" horiz-adv-x="1531" d="M1336 -1 L982 1458 L806 1458 L-61 -1 L254 -1 L466 392 L986 392 L1060 -1 L1336 -1 Z M952 574 L565 574 L852 1105 L952 574 Z M901 1640 C846 1640 818 1681 818 1718 C818 1753 831 1781 857 1803 C882 1824 908 1835 935 1835 C990 1835 1019 1794 1019 1755 C1019 1721 1006 1693 981 1672 C955 1651 928 1640 901 1640 L901 1640 Z M881 1527 C940 1527 998 1550 1053 1597 C1108 1643 1136 1703 1136 1777 C1136 1818 1121 1857 1090 1894 C1059 1930 1014 1948 955 1948 C896 1948 839 1925 784 1879 C729 1832 701 1772 701 1699 C701 1657 716 1618 747 1582 C777 1545 822 1527 881 1527 L881 1527 Z " />
<glyph glyph-name="AE" unicode="&#xc6;" horiz-adv-x="2132" d="M1008 575 L562 575 L954 1244 L1126 1244 L1008 575 Z M1905 0 L1943 214 L1198 214 L1272 629 L1896 629 L1931 828 L1307 828 L1380 1244 L2125 1244 L2162 1458 L874 1458 L-62 0 L234 0 L459 377 L973 377 L906 0 L1905 0 Z " />
<glyph glyph-name="Ccedilla" unicode="&#xc7;" horiz-adv-x="1542" d="M522 -412 C590 -412 656 -397 720 -366 C784 -335 816 -284 816 -213 C816 -139 761 -100 651 -96 L711 -24 L741 -24 C952 -24 1146 48 1321 193 L1178 356 C1058 256 926 206 782 206 C637 206 528 251 457 341 C386 430 350 526 350 628 C351 792 413 937 535 1062 C657 1187 801 1250 966 1250 C1111 1250 1225 1200 1310 1100 L1510 1263 C1386 1408 1218 1480 1007 1480 C758 1480 543 1392 360 1215 C177 1038 84 825 83 577 C83 437 130 311 224 198 C318 85 440 16 590 -11 L513 -114 L500 -188 L557 -188 C612 -188 639 -203 639 -234 C639 -261 627 -281 602 -292 C577 -303 555 -308 534 -308 C488 -308 445 -295 406 -270 L336 -360 C381 -395 443 -412 522 -412 L522 -412 Z " />
<glyph glyph-name="Egrave" unicode="&#xc8;" horiz-adv-x="1286" d="M1059 -2 L1097 212 L352 212 L425 628 L1050 628 L1085 827 L461 827 L534 1243 L1279 1243 L1317 1457 L317 1457 L60 -2 L1059 -2 Z M984 1588 L726 1896 L464 1896 L811 1588 L984 1588 Z " />
<glyph glyph-name="Eacute" unicode="&#xc9;" horiz-adv-x="1286" d="M1059 -2 L1097 212 L352 212 L425 628 L1050 628 L1085 827 L461 827 L534 1243 L1279 1243 L1317 1457 L317 1457 L60 -2 L1059 -2 Z M620 1588 L793 1588 L1140 1896 L878 1896 L620 1588 Z " />
<glyph glyph-name="Ecircumflex" unicode="&#xca;" horiz-adv-x="1286" d="M1059 -2 L1097 212 L352 212 L425 628 L1050 628 L1085 827 L461 827 L534 1243 L1279 1243 L1317 1457 L317 1457 L60 -2 L1059 -2 Z M1197 1604 L981 1911 L789 1911 L465 1604 L633 1604 L874 1794 L1049 1604 L1197 1604 Z " />
<glyph glyph-name="Edieresis" unicode="&#xcb;" horiz-adv-x="1286" d="M1059 -2 L1097 212 L352 212 L425 628 L1050 628 L1085 827 L461 827 L534 1243 L1279 1243 L1317 1457 L317 1457 L60 -2 L1059 -2 Z M655 1625 C688 1625 721 1638 752 1664 C783 1690 799 1724 799 1766 C799 1813 765 1863 697 1863 C664 1863 631 1850 600 1824 C569 1797 553 1763 553 1722 C553 1675 588 1625 655 1625 L655 1625 Z M1034 1625 C1067 1625 1100 1638 1131 1665 C1162 1691 1178 1725 1178 1766 C1178 1813 1143 1863 1076 1863 C1043 1863 1010 1850 979 1824 C948 1798 932 1764 932 1722 C932 1675 967 1625 1034 1625 L1034 1625 Z " />
<glyph glyph-name="Igrave" unicode="&#xcc;" horiz-adv-x="633" d="M315 -2 L572 1457 L318 1457 L60 -2 L315 -2 Z M598 1588 L340 1896 L78 1896 L425 1588 L598 1588 Z " />
<glyph glyph-name="Iacute" unicode="&#xcd;" horiz-adv-x="633" d="M315 -2 L572 1457 L318 1457 L60 -2 L315 -2 Z M234 1588 L407 1588 L754 1896 L492 1896 L234 1588 Z " />
<glyph glyph-name="Icircumflex" unicode="&#xce;" horiz-adv-x="633" d="M315 -2 L572 1457 L318 1457 L60 -2 L315 -2 Z M811 1604 L595 1911 L403 1911 L79 1604 L247 1604 L488 1794 L663 1604 L811 1604 Z " />
<glyph glyph-name="Idieresis" unicode="&#xcf;" horiz-adv-x="633" d="M315 -2 L572 1457 L318 1457 L60 -2 L315 -2 Z M260 1625 C293 1625 326 1638 357 1664 C388 1690 404 1724 404 1766 C404 1813 370 1863 302 1863 C269 1863 236 1850 205 1824 C174 1797 158 1763 158 1722 C158 1675 193 1625 260 1625 L260 1625 Z M639 1625 C672 1625 705 1638 736 1665 C767 1691 783 1725 783 1766 C783 1813 748 1863 681 1863 C648 1863 615 1850 584 1824 C553 1798 537 1764 537 1722 C537 1675 572 1625 639 1625 L639 1625 Z " />
<glyph glyph-name="Eth" unicode="&#xd0;" horiz-adv-x="1563" d="M603 213 L349 213 L424 635 L873 635 L906 821 L457 821 L531 1243 L785 1243 C928 1243 1036 1199 1110 1110 C1183 1021 1220 925 1220 824 C1219 657 1154 513 1023 393 C892 273 752 213 603 213 L603 213 Z M566 -1 C805 -1 1017 82 1200 248 C1383 413 1476 617 1477 858 C1477 1005 1421 1141 1310 1268 C1198 1394 1036 1457 823 1457 L315 1457 L203 821 L-60 821 L-92 635 L170 635 L58 -1 L566 -1 Z " />
<glyph glyph-name="Ntilde" unicode="&#xd1;" horiz-adv-x="1656" d="M1338 -2 L1596 1457 L1344 1457 L1157 394 L519 1457 L318 1457 L60 -2 L312 -2 L499 1061 L1137 -2 L1338 -2 Z M1094 1631 C1200 1631 1275 1686 1318 1795 L1203 1861 C1178 1804 1139 1775 1086 1775 C1063 1775 1018 1793 952 1830 C886 1866 831 1884 788 1884 C682 1884 609 1828 568 1716 L679 1654 C704 1711 743 1740 796 1740 C819 1740 864 1722 930 1686 C995 1649 1050 1631 1094 1631 L1094 1631 Z " />
<glyph glyph-name="Ograve" unicode="&#xd2;" horiz-adv-x="1748" d="M782 204 C638 204 529 249 455 340 C380 431 343 528 343 631 C343 800 408 946 537 1069 C666 1191 809 1252 967 1252 C1111 1252 1220 1207 1294 1117 C1368 1026 1405 929 1405 826 C1404 643 1340 493 1211 378 C1082 262 939 204 782 204 L782 204 Z M742 -24 C969 -24 1179 59 1370 226 C1561 393 1659 605 1662 864 C1662 1014 1606 1154 1495 1285 C1384 1415 1221 1480 1007 1480 C766 1480 552 1392 366 1215 C179 1038 86 830 86 592 C86 441 142 301 253 171 C364 41 527 -24 742 -24 L742 -24 Z M1154 1588 L896 1896 L634 1896 L981 1588 L1154 1588 Z " />
<glyph glyph-name="Oacute" unicode="&#xd3;" horiz-adv-x="1748" d="M782 204 C638 204 529 249 455 340 C380 431 343 528 343 631 C343 800 408 946 537 1069 C666 1191 809 1252 967 1252 C1111 1252 1220 1207 1294 1117 C1368 1026 1405 929 1405 826 C1404 643 1340 493 1211 378 C1082 262 939 204 782 204 L782 204 Z M742 -24 C969 -24 1179 59 1370 226 C1561 393 1659 605 1662 864 C1662 1014 1606 1154 1495 1285 C1384 1415 1221 1480 1007 1480 C766 1480 552 1392 366 1215 C179 1038 86 830 86 592 C86 441 142 301 253 171 C364 41 527 -24 742 -24 L742 -24 Z M790 1588 L963 1588 L1310 1896 L1048 1896 L790 1588 Z " />
<glyph glyph-name="Ocircumflex" unicode="&#xd4;" horiz-adv-x="1748" d="M782 204 C638 204 529 249 455 340 C380 431 343 528 343 631 C343 800 408 946 537 1069 C666 1191 809 1252 967 1252 C1111 1252 1220 1207 1294 1117 C1368 1026 1405 929 1405 826 C1404 643 1340 493 1211 378 C1082 262 939 204 782 204 L782 204 Z M742 -24 C969 -24 1179 59 1370 226 C1561 393 1659 605 1662 864 C1662 1014 1606 1154 1495 1285 C1384 1415 1221 1480 1007 1480 C766 1480 552 1392 366 1215 C179 1038 86 830 86 592 C86 441 142 301 253 171 C364 41 527 -24 742 -24 L742 -24 Z M1367 1604 L1151 1911 L959 1911 L635 1604 L803 1604 L1044 1794 L1219 1604 L1367 1604 Z " />
<glyph glyph-name="Otilde" unicode="&#xd5;" horiz-adv-x="1748" d="M782 204 C638 204 529 249 455 340 C380 431 343 528 343 631 C343 800 408 946 537 1069 C666 1191 809 1252 967 1252 C1111 1252 1220 1207 1294 1117 C1368 1026 1405 929 1405 826 C1404 643 1340 493 1211 378 C1082 262 939 204 782 204 L782 204 Z M742 -24 C969 -24 1179 59 1370 226 C1561 393 1659 605 1662 864 C1662 1014 1606 1154 1495 1285 C1384 1415 1221 1480 1007 1480 C766 1480 552 1392 366 1215 C179 1038 86 830 86 592 C86 441 142 301 253 171 C364 41 527 -24 742 -24 L742 -24 Z M1180 1631 C1286 1631 1361 1686 1404 1795 L1289 1861 C1264 1804 1225 1775 1172 1775 C1149 1775 1104 1793 1038 1830 C972 1866 917 1884 874 1884 C768 1884 695 1828 654 1716 L765 1654 C790 1711 829 1740 882 1740 C905 1740 950 1722 1016 1686 C1081 1649 1136 1631 1180 1631 L1180 1631 Z " />
<glyph glyph-name="Odieresis" unicode="&#xd6;" horiz-adv-x="1748" d="M782 204 C638 204 529 249 455 340 C380 431 343 528 343 631 C343 800 408 946 537 1069 C666 1191 809 1252 967 1252 C1111 1252 1220 1207 1294 1117 C1368 1026 1405 929 1405 826 C1404 643 1340 493 1211 378 C1082 262 939 204 782 204 L782 204 Z M742 -24 C969 -24 1179 59 1370 226 C1561 393 1659 605 1662 864 C1662 1014 1606 1154 1495 1285 C1384 1415 1221 1480 1007 1480 C766 1480 552 1392 366 1215 C179 1038 86 830 86 592 C86 441 142 301 253 171 C364 41 527 -24 742 -24 L742 -24 Z M816 1625 C849 1625 882 1638 913 1664 C944 1690 960 1724 960 1766 C960 1813 926 1863 858 1863 C825 1863 792 1850 761 1824 C730 1797 714 1763 714 1722 C714 1675 749 1625 816 1625 L816 1625 Z M1195 1625 C1228 1625 1261 1638 1292 1665 C1323 1691 1339 1725 1339 1766 C1339 1813 1304 1863 1237 1863 C1204 1863 1171 1850 1140 1824 C1109 1798 1093 1764 1093 1722 C1093 1675 1128 1625 1195 1625 L1195 1625 Z " />
<glyph glyph-name="multiply" unicode="&#xd7;" horiz-adv-x="1322" d="M1075 395 L794 729 L1193 1064 L1083 1195 L684 861 L403 1195 L246 1064 L527 729 L128 395 L239 263 L638 598 L919 263 L1075 395 Z " />
<glyph glyph-name="Oslash" unicode="&#xd8;" horiz-adv-x="1748" d="M741 -24 C962 -24 1171 61 1367 232 C1563 402 1661 613 1662 864 C1662 1061 1586 1219 1435 1340 L1542 1481 L1353 1481 L1306 1420 C1219 1460 1119 1480 1007 1480 C773 1480 561 1393 372 1220 C183 1046 87 837 86 592 C86 402 162 244 313 117 L206 -23 L395 -23 L441 37 C529 -4 629 -24 741 -24 L741 -24 Z M470 323 C385 408 343 510 343 630 C344 800 408 946 537 1069 C666 1191 809 1252 966 1252 C1035 1252 1097 1240 1152 1217 L470 323 Z M782 204 C713 204 650 216 595 239 L1277 1133 C1362 1048 1404 946 1404 827 C1404 656 1340 510 1211 388 C1082 265 939 204 782 204 L782 204 Z " />
<glyph glyph-name="Ugrave" unicode="&#xd9;" horiz-adv-x="1556" d="M645 -24 C808 -24 954 19 1085 105 C1215 191 1291 296 1313 420 L1496 1458 L1242 1458 L1066 460 C1051 378 1007 314 933 268 C858 222 776 199 685 199 C589 199 516 221 467 264 C417 307 392 358 392 415 C392 418 396 442 403 487 L572 1458 L318 1458 L135 420 C131 397 129 375 129 354 C129 263 170 177 252 97 C333 16 464 -24 645 -24 L645 -24 Z M1021 1588 L763 1896 L501 1896 L848 1588 L1021 1588 Z " />
<glyph glyph-name="Uacute" unicode="&#xda;" horiz-adv-x="1556" d="M645 -24 C808 -24 954 19 1085 105 C1215 191 1291 296 1313 420 L1496 1458 L1242 1458 L1066 460 C1051 378 1007 314 933 268 C858 222 776 199 685 199 C589 199 516 221 467 264 C417 307 392 358 392 415 C392 418 396 442 403 487 L572 1458 L318 1458 L135 420 C131 397 129 375 129 354 C129 263 170 177 252 97 C333 16 464 -24 645 -24 L645 -24 Z M657 1588 L830 1588 L1177 1896 L915 1896 L657 1588 Z " />
<glyph glyph-name="Ucircumflex" unicode="&#xdb;" horiz-adv-x="1556" d="M645 -24 C808 -24 954 19 1085 105 C1215 191 1291 296 1313 420 L1496 1458 L1242 1458 L1066 460 C1051 378 1007 314 933 268 C858 222 776 199 685 199 C589 199 516 221 467 264 C417 307 392 358 392 415 C392 418 396 442 403 487 L572 1458 L318 1458 L135 420 C131 397 129 375 129 354 C129 263 170 177 252 97 C333 16 464 -24 645 -24 L645 -24 Z M1234 1604 L1018 1911 L826 1911 L502 1604 L670 1604 L911 1794 L1086 1604 L1234 1604 Z " />
<glyph glyph-name="Udieresis" unicode="&#xdc;" horiz-adv-x="1556" d="M645 -24 C808 -24 954 19 1085 105 C1215 191 1291 296 1313 420 L1496 1458 L1242 1458 L1066 460 C1051 378 1007 314 933 268 C858 222 776 199 685 199 C589 199 516 221 467 264 C417 307 392 358 392 415 C392 418 396 442 403 487 L572 1458 L318 1458 L135 420 C131 397 129 375 129 354 C129 263 170 177 252 97 C333 16 464 -24 645 -24 L645 -24 Z M682 1625 C715 1625 748 1638 779 1664 C810 1690 826 1724 826 1766 C826 1813 792 1863 724 1863 C691 1863 658 1850 627 1824 C596 1797 580 1763 580 1722 C580 1675 615 1625 682 1625 L682 1625 Z M1061 1625 C1094 1625 1127 1638 1158 1665 C1189 1691 1205 1725 1205 1766 C1205 1813 1170 1863 1103 1863 C1070 1863 1037 1850 1006 1824 C975 1798 959 1764 959 1722 C959 1675 994 1625 1061 1625 L1061 1625 Z " />
<glyph glyph-name="Yacute" unicode="&#xdd;" horiz-adv-x="1462" d="M729 -2 L850 683 L1548 1457 L1203 1457 L747 934 L475 1457 L171 1457 L595 683 L475 -2 L729 -2 Z M649 1588 L822 1588 L1169 1896 L907 1896 L649 1588 Z " />
<glyph glyph-name="Thorn" unicode="&#xde;" horiz-adv-x="1415" d="M405 512 L493 1009 L846 1009 C916 1009 972 991 1014 956 C1055 920 1076 874 1076 817 C1075 721 1043 646 979 593 C915 539 842 512 759 512 L405 512 Z M367 298 L737 298 C892 298 1030 349 1149 451 C1268 552 1329 687 1330 856 C1330 956 1292 1042 1216 1115 C1140 1187 1035 1223 900 1223 L530 1223 L572 1458 L318 1458 L60 -2 L314 -2 L367 298 Z " />
<glyph glyph-name="germandbls" unicode="&#xdf;" horiz-adv-x="1344" d="M649 -23 C790 -23 917 28 1028 131 C1139 234 1195 350 1196 481 C1196 544 1176 603 1136 658 C1096 713 1039 748 966 763 C1021 790 1072 837 1120 903 C1168 968 1192 1044 1192 1129 C1192 1218 1156 1298 1084 1371 C1011 1444 906 1480 769 1480 C638 1480 518 1441 408 1364 C297 1286 231 1184 208 1057 L22 -1 L276 -1 L462 1050 C472 1109 504 1160 559 1203 C614 1245 671 1266 731 1266 C790 1266 838 1247 875 1209 C912 1171 930 1129 930 1082 C930 1007 902 944 846 894 C790 843 732 818 673 818 L583 818 L548 619 L751 619 C807 619 853 602 888 569 C923 535 941 496 941 453 C941 376 912 313 853 264 C794 215 736 191 679 191 C593 191 529 213 486 257 L404 59 C463 4 545 -23 649 -23 L649 -23 Z " />
<glyph glyph-name="agrave" unicode="&#xe0;" horiz-adv-x="1224" d="M445 164 C393 164 350 176 317 200 C283 223 266 253 266 289 C266 377 327 440 483 440 L776 440 C770 404 764 368 757 331 C750 294 719 257 664 220 C608 183 535 164 445 164 L445 164 Z M347 -23 C530 -23 661 29 740 132 L717 -1 L946 -1 L1072 714 C1077 739 1079 763 1079 785 C1079 876 1039 949 960 1005 C880 1061 778 1089 654 1089 C483 1089 327 1032 187 918 L317 767 C414 840 508 877 597 877 C663 877 717 863 760 836 C803 808 824 773 824 730 C824 721 818 684 807 619 L511 619 C354 619 231 584 143 514 C55 444 11 351 10 235 C10 159 43 97 109 49 C174 1 254 -23 347 -23 L347 -23 Z M881 1189 L623 1497 L361 1497 L708 1189 L881 1189 Z " />
<glyph glyph-name="aacute" unicode="&#xe1;" horiz-adv-x="1224" d="M445 164 C393 164 350 176 317 200 C283 223 266 253 266 289 C266 377 327 440 483 440 L776 440 C770 404 764 368 757 331 C750 294 719 257 664 220 C608 183 535 164 445 164 L445 164 Z M347 -23 C530 -23 661 29 740 132 L717 -1 L946 -1 L1072 714 C1077 739 1079 763 1079 785 C1079 876 1039 949 960 1005 C880 1061 778 1089 654 1089 C483 1089 327 1032 187 918 L317 767 C414 840 508 877 597 877 C663 877 717 863 760 836 C803 808 824 773 824 730 C824 721 818 684 807 619 L511 619 C354 619 231 584 143 514 C55 444 11 351 10 235 C10 159 43 97 109 49 C174 1 254 -23 347 -23 L347 -23 Z M517 1189 L690 1189 L1037 1497 L775 1497 L517 1189 Z " />
<glyph glyph-name="acircumflex" unicode="&#xe2;" horiz-adv-x="1224" d="M445 164 C393 164 350 176 317 200 C283 223 266 253 266 289 C266 377 327 440 483 440 L776 440 C770 404 764 368 757 331 C750 294 719 257 664 220 C608 183 535 164 445 164 L445 164 Z M347 -23 C530 -23 661 29 740 132 L717 -1 L946 -1 L1072 714 C1077 739 1079 763 1079 785 C1079 876 1039 949 960 1005 C880 1061 778 1089 654 1089 C483 1089 327 1032 187 918 L317 767 C414 840 508 877 597 877 C663 877 717 863 760 836 C803 808 824 773 824 730 C824 721 818 684 807 619 L511 619 C354 619 231 584 143 514 C55 444 11 351 10 235 C10 159 43 97 109 49 C174 1 254 -23 347 -23 L347 -23 Z M1044 1205 L828 1512 L636 1512 L312 1205 L480 1205 L721 1395 L896 1205 L1044 1205 Z " />
<glyph glyph-name="atilde" unicode="&#xe3;" horiz-adv-x="1224" d="M445 164 C393 164 350 176 317 200 C283 223 266 253 266 289 C266 377 327 440 483 440 L776 440 C770 404 764 368 757 331 C750 294 719 257 664 220 C608 183 535 164 445 164 L445 164 Z M347 -23 C530 -23 661 29 740 132 L717 -1 L946 -1 L1072 714 C1077 739 1079 763 1079 785 C1079 876 1039 949 960 1005 C880 1061 778 1089 654 1089 C483 1089 327 1032 187 918 L317 767 C414 840 508 877 597 877 C663 877 717 863 760 836 C803 808 824 773 824 730 C824 721 818 684 807 619 L511 619 C354 619 231 584 143 514 C55 444 11 351 10 235 C10 159 43 97 109 49 C174 1 254 -23 347 -23 L347 -23 Z M857 1232 C963 1232 1038 1287 1081 1396 L966 1462 C941 1405 902 1376 849 1376 C826 1376 781 1394 715 1431 C649 1467 594 1485 551 1485 C445 1485 372 1429 331 1317 L442 1255 C467 1312 506 1341 559 1341 C582 1341 627 1323 693 1287 C758 1250 813 1232 857 1232 L857 1232 Z " />
<glyph glyph-name="adieresis" unicode="&#xe4;" horiz-adv-x="1224" d="M445 164 C393 164 350 176 317 200 C283 223 266 253 266 289 C266 377 327 440 483 440 L776 440 C770 404 764 368 757 331 C750 294 719 257 664 220 C608 183 535 164 445 164 L445 164 Z M347 -23 C530 -23 661 29 740 132 L717 -1 L946 -1 L1072 714 C1077 739 1079 763 1079 785 C1079 876 1039 949 960 1005 C880 1061 778 1089 654 1089 C483 1089 327 1032 187 918 L317 767 C414 840 508 877 597 877 C663 877 717 863 760 836 C803 808 824 773 824 730 C824 721 818 684 807 619 L511 619 C354 619 231 584 143 514 C55 444 11 351 10 235 C10 159 43 97 109 49 C174 1 254 -23 347 -23 L347 -23 Z M492 1226 C525 1226 558 1239 589 1265 C620 1291 636 1325 636 1367 C636 1414 602 1464 534 1464 C501 1464 468 1451 437 1425 C406 1398 390 1364 390 1323 C390 1276 425 1226 492 1226 L492 1226 Z M871 1226 C904 1226 937 1239 968 1266 C999 1292 1015 1326 1015 1367 C1015 1414 980 1464 913 1464 C880 1464 847 1451 816 1425 C785 1399 769 1365 769 1323 C769 1276 804 1226 871 1226 L871 1226 Z " />
<glyph glyph-name="aring" unicode="&#xe5;" horiz-adv-x="1224" d="M445 164 C393 164 350 176 317 200 C283 223 266 253 266 289 C266 377 327 440 483 440 L776 440 C770 404 764 368 757 331 C750 294 719 257 664 220 C608 183 535 164 445 164 L445 164 Z M347 -23 C530 -23 661 29 740 132 L717 -1 L946 -1 L1072 714 C1077 739 1079 763 1079 785 C1079 876 1039 949 960 1005 C880 1061 778 1089 654 1089 C483 1089 327 1032 187 918 L317 767 C414 840 508 877 597 877 C663 877 717 863 760 836 C803 808 824 773 824 730 C824 721 818 684 807 619 L511 619 C354 619 231 584 143 514 C55 444 11 351 10 235 C10 159 43 97 109 49 C174 1 254 -23 347 -23 L347 -23 Z M688 1261 C633 1261 605 1302 605 1339 C605 1374 618 1402 644 1424 C669 1445 695 1456 722 1456 C777 1456 806 1415 806 1376 C806 1342 793 1314 768 1293 C742 1272 715 1261 688 1261 L688 1261 Z M668 1148 C727 1148 785 1171 840 1218 C895 1264 923 1324 923 1398 C923 1439 908 1478 877 1515 C846 1551 801 1569 742 1569 C683 1569 626 1546 571 1500 C516 1453 488 1393 488 1320 C488 1278 503 1239 534 1203 C564 1166 609 1148 668 1148 L668 1148 Z " />
<glyph glyph-name="ae" unicode="&#xe6;" horiz-adv-x="1954" d="M445 163 C394 163 351 175 317 199 C283 223 266 253 266 289 C266 384 346 440 483 440 L776 440 C770 404 764 368 757 331 C750 294 718 256 659 219 C600 182 528 163 445 163 L445 163 Z M1638 622 L1064 622 L1083 727 C1151 841 1253 898 1388 898 C1555 898 1639 817 1639 656 L1638 622 Z M1264 -24 C1411 -24 1555 23 1698 118 L1582 279 C1488 216 1394 185 1301 185 C1157 185 1063 243 1020 360 L1034 441 L1841 441 C1865 508 1877 577 1877 648 C1877 755 1842 855 1772 948 C1701 1041 1585 1088 1422 1088 C1269 1088 1135 1036 1019 931 C956 1036 810 1089 625 1089 C473 1089 327 1032 188 918 L317 767 C416 840 509 877 598 877 C664 877 718 863 761 835 C804 807 825 772 825 730 C825 722 819 685 808 619 L512 619 C361 619 240 584 149 514 C58 444 12 351 11 235 C11 159 44 97 110 49 C175 1 255 -23 348 -23 C531 -23 697 45 844 180 C939 44 1079 -24 1264 -24 L1264 -24 Z " />
<glyph glyph-name="ccedilla" unicode="&#xe7;" horiz-adv-x="1188" d="M351 -412 C420 -412 486 -396 551 -365 C615 -334 647 -283 647 -214 C647 -139 592 -100 481 -96 L540 -24 L558 -24 C704 -24 842 23 971 117 L856 282 C783 220 699 189 603 189 C510 189 437 218 384 275 C331 332 304 396 304 467 C305 584 348 682 435 760 C521 837 618 876 725 876 C820 876 893 845 944 782 L1117 948 C1021 1041 900 1088 754 1088 C569 1088 406 1028 264 907 C121 786 49 623 48 420 C48 311 85 217 158 139 C231 60 318 10 420 -11 L343 -114 L330 -188 L387 -188 C442 -188 469 -204 469 -235 C469 -262 457 -281 432 -292 C407 -303 384 -308 363 -308 C317 -308 274 -295 235 -270 L165 -360 C210 -395 272 -412 351 -412 L351 -412 Z " />
<glyph glyph-name="egrave" unicode="&#xe8;" horiz-adv-x="1244" d="M324 623 C343 698 384 762 449 817 C513 871 590 898 679 898 C780 898 847 875 880 828 C913 781 930 725 930 660 C930 648 929 636 928 623 L324 623 Z M554 -24 C701 -24 846 23 989 118 L872 280 C785 217 692 185 591 185 C498 185 426 211 373 263 C320 315 294 370 294 428 L294 441 L1132 441 C1155 510 1167 579 1167 647 C1167 754 1132 855 1062 948 C991 1041 875 1088 712 1088 C535 1088 381 1024 250 896 C118 768 52 615 51 436 C51 319 94 214 179 119 C264 24 389 -24 554 -24 L554 -24 Z M944 1189 L686 1497 L424 1497 L771 1189 L944 1189 Z " />
<glyph glyph-name="eacute" unicode="&#xe9;" horiz-adv-x="1244" d="M324 623 C343 698 384 762 449 817 C513 871 590 898 679 898 C780 898 847 875 880 828 C913 781 930 725 930 660 C930 648 929 636 928 623 L324 623 Z M554 -24 C701 -24 846 23 989 118 L872 280 C785 217 692 185 591 185 C498 185 426 211 373 263 C320 315 294 370 294 428 L294 441 L1132 441 C1155 510 1167 579 1167 647 C1167 754 1132 855 1062 948 C991 1041 875 1088 712 1088 C535 1088 381 1024 250 896 C118 768 52 615 51 436 C51 319 94 214 179 119 C264 24 389 -24 554 -24 L554 -24 Z M580 1189 L753 1189 L1100 1497 L838 1497 L580 1189 Z " />
<glyph glyph-name="ecircumflex" unicode="&#xea;" horiz-adv-x="1244" d="M324 623 C343 698 384 762 449 817 C513 871 590 898 679 898 C780 898 847 875 880 828 C913 781 930 725 930 660 C930 648 929 636 928 623 L324 623 Z M554 -24 C701 -24 846 23 989 118 L872 280 C785 217 692 185 591 185 C498 185 426 211 373 263 C320 315 294 370 294 428 L294 441 L1132 441 C1155 510 1167 579 1167 647 C1167 754 1132 855 1062 948 C991 1041 875 1088 712 1088 C535 1088 381 1024 250 896 C118 768 52 615 51 436 C51 319 94 214 179 119 C264 24 389 -24 554 -24 L554 -24 Z M1107 1205 L891 1512 L699 1512 L375 1205 L543 1205 L784 1395 L959 1205 L1107 1205 Z " />
<glyph glyph-name="edieresis" unicode="&#xeb;" horiz-adv-x="1244" d="M324 623 C343 698 384 762 449 817 C513 871 590 898 679 898 C780 898 847 875 880 828 C913 781 930 725 930 660 C930 648 929 636 928 623 L324 623 Z M554 -24 C701 -24 846 23 989 118 L872 280 C785 217 692 185 591 185 C498 185 426 211 373 263 C320 315 294 370 294 428 L294 441 L1132 441 C1155 510 1167 579 1167 647 C1167 754 1132 855 1062 948 C991 1041 875 1088 712 1088 C535 1088 381 1024 250 896 C118 768 52 615 51 436 C51 319 94 214 179 119 C264 24 389 -24 554 -24 L554 -24 Z M555 1226 C588 1226 621 1239 652 1265 C683 1291 699 1325 699 1367 C699 1414 665 1464 597 1464 C564 1464 531 1451 500 1425 C469 1398 453 1364 453 1323 C453 1276 488 1226 555 1226 L555 1226 Z M934 1226 C967 1226 1000 1239 1031 1266 C1062 1292 1078 1326 1078 1367 C1078 1414 1043 1464 976 1464 C943 1464 910 1451 879 1425 C848 1399 832 1365 832 1323 C832 1276 867 1226 934 1226 L934 1226 Z " />
<glyph glyph-name="igrave" unicode="&#xec;" horiz-adv-x="548" d="M271 -1 L460 1066 L212 1066 L23 -1 L271 -1 Z M573 1189 L315 1497 L53 1497 L400 1189 L573 1189 Z " />
<glyph glyph-name="iacute" unicode="&#xed;" horiz-adv-x="548" d="M271 -1 L460 1066 L212 1066 L23 -1 L271 -1 Z M184 1189 L357 1189 L704 1497 L442 1497 L184 1189 Z " />
<glyph glyph-name="icircumflex" unicode="&#xee;" horiz-adv-x="548" d="M271 -1 L460 1066 L212 1066 L23 -1 L271 -1 Z M723 1205 L507 1512 L315 1512 L-9 1205 L159 1205 L400 1395 L575 1205 L723 1205 Z " />
<glyph glyph-name="idieresis" unicode="&#xef;" horiz-adv-x="548" d="M271 -1 L460 1066 L212 1066 L23 -1 L271 -1 Z M172 1226 C205 1226 238 1239 269 1265 C300 1291 316 1325 316 1367 C316 1414 282 1464 214 1464 C181 1464 148 1451 117 1425 C86 1398 70 1364 70 1323 C70 1276 105 1226 172 1226 L172 1226 Z M551 1226 C584 1226 617 1239 648 1266 C679 1292 695 1326 695 1367 C695 1414 660 1464 593 1464 C560 1464 527 1451 496 1425 C465 1399 449 1365 449 1323 C449 1276 484 1226 551 1226 L551 1226 Z " />
<glyph glyph-name="eth" unicode="&#xf0;" horiz-adv-x="1338" d="M574 189 C483 189 415 219 369 278 C323 337 300 400 300 467 C300 572 338 667 415 751 C491 834 584 876 695 876 C786 876 854 847 900 788 C946 729 969 666 969 599 C968 493 927 398 844 315 C761 231 671 189 574 189 L574 189 Z M537 -23 C702 -23 859 41 1008 170 C1156 298 1230 493 1230 756 C1230 947 1185 1129 1095 1303 L1294 1366 L1320 1516 L1030 1428 C1006 1465 979 1498 950 1527 L711 1458 C734 1437 763 1406 797 1366 L589 1300 L563 1151 L889 1248 C948 1163 986 1066 1002 957 C941 1044 851 1088 733 1088 C554 1088 395 1024 257 896 C119 767 50 613 50 432 C50 321 91 217 174 121 C257 25 378 -23 537 -23 L537 -23 Z " />
<glyph glyph-name="ntilde" unicode="&#xf1;" horiz-adv-x="1378" d="M1213 641 C1218 675 1221 707 1221 738 C1221 831 1192 912 1133 983 C1074 1054 980 1089 850 1089 C685 1089 547 1022 435 889 L466 1066 L234 1066 L46 -1 L294 -1 L400 605 C415 686 454 752 519 802 C583 851 658 876 743 876 C818 876 874 857 912 820 C950 783 969 737 969 684 C969 670 968 655 965 639 L852 -1 L1100 -1 L1213 641 Z M966 1232 C1072 1232 1147 1287 1190 1396 L1075 1462 C1050 1405 1011 1376 958 1376 C935 1376 890 1394 824 1431 C758 1467 703 1485 660 1485 C554 1485 481 1429 440 1317 L551 1255 C576 1312 615 1341 668 1341 C691 1341 736 1323 802 1287 C867 1250 922 1232 966 1232 L966 1232 Z " />
<glyph glyph-name="ograve" unicode="&#xf2;" horiz-adv-x="1338" d="M574 189 C483 189 415 219 370 278 C324 337 301 399 301 465 C301 578 342 675 425 756 C508 836 598 876 695 876 C786 876 854 847 900 788 C946 729 969 667 969 600 C968 487 928 391 849 310 C770 229 678 189 574 189 L574 189 Z M537 -23 C709 -23 866 41 1008 170 C1149 299 1220 453 1220 632 C1220 743 1179 847 1096 944 C1013 1041 892 1089 733 1089 C560 1089 403 1025 262 896 C121 767 50 613 50 432 C50 321 91 218 174 122 C257 25 378 -23 537 -23 L537 -23 Z M949 1189 L691 1497 L429 1497 L776 1189 L949 1189 Z " />
<glyph glyph-name="oacute" unicode="&#xf3;" horiz-adv-x="1338" d="M574 189 C483 189 415 219 370 278 C324 337 301 399 301 465 C301 578 342 675 425 756 C508 836 598 876 695 876 C786 876 854 847 900 788 C946 729 969 667 969 600 C968 487 928 391 849 310 C770 229 678 189 574 189 L574 189 Z M537 -23 C709 -23 866 41 1008 170 C1149 299 1220 453 1220 632 C1220 743 1179 847 1096 944 C1013 1041 892 1089 733 1089 C560 1089 403 1025 262 896 C121 767 50 613 50 432 C50 321 91 218 174 122 C257 25 378 -23 537 -23 L537 -23 Z M585 1189 L758 1189 L1105 1497 L843 1497 L585 1189 Z " />
<glyph glyph-name="ocircumflex" unicode="&#xf4;" horiz-adv-x="1338" d="M574 189 C483 189 415 219 370 278 C324 337 301 399 301 465 C301 578 342 675 425 756 C508 836 598 876 695 876 C786 876 854 847 900 788 C946 729 969 667 969 600 C968 487 928 391 849 310 C770 229 678 189 574 189 L574 189 Z M537 -23 C709 -23 866 41 1008 170 C1149 299 1220 453 1220 632 C1220 743 1179 847 1096 944 C1013 1041 892 1089 733 1089 C560 1089 403 1025 262 896 C121 767 50 613 50 432 C50 321 91 218 174 122 C257 25 378 -23 537 -23 L537 -23 Z M1112 1205 L896 1512 L704 1512 L380 1205 L548 1205 L789 1395 L964 1205 L1112 1205 Z " />
<glyph glyph-name="otilde" unicode="&#xf5;" horiz-adv-x="1338" d="M574 189 C483 189 415 219 370 278 C324 337 301 399 301 465 C301 578 342 675 425 756 C508 836 598 876 695 876 C786 876 854 847 900 788 C946 729 969 667 969 600 C968 487 928 391 849 310 C770 229 678 189 574 189 L574 189 Z M537 -23 C709 -23 866 41 1008 170 C1149 299 1220 453 1220 632 C1220 743 1179 847 1096 944 C1013 1041 892 1089 733 1089 C560 1089 403 1025 262 896 C121 767 50 613 50 432 C50 321 91 218 174 122 C257 25 378 -23 537 -23 L537 -23 Z M924 1232 C1030 1232 1105 1287 1148 1396 L1033 1462 C1008 1405 969 1376 916 1376 C893 1376 848 1394 782 1431 C716 1467 661 1485 618 1485 C512 1485 439 1429 398 1317 L509 1255 C534 1312 573 1341 626 1341 C649 1341 694 1323 760 1287 C825 1250 880 1232 924 1232 L924 1232 Z " />
<glyph glyph-name="odieresis" unicode="&#xf6;" horiz-adv-x="1338" d="M574 189 C483 189 415 219 370 278 C324 337 301 399 301 465 C301 578 342 675 425 756 C508 836 598 876 695 876 C786 876 854 847 900 788 C946 729 969 667 969 600 C968 487 928 391 849 310 C770 229 678 189 574 189 L574 189 Z M537 -23 C709 -23 866 41 1008 170 C1149 299 1220 453 1220 632 C1220 743 1179 847 1096 944 C1013 1041 892 1089 733 1089 C560 1089 403 1025 262 896 C121 767 50 613 50 432 C50 321 91 218 174 122 C257 25 378 -23 537 -23 L537 -23 Z M560 1226 C593 1226 626 1239 657 1265 C688 1291 704 1325 704 1367 C704 1414 670 1464 602 1464 C569 1464 536 1451 505 1425 C474 1398 458 1364 458 1323 C458 1276 493 1226 560 1226 L560 1226 Z M939 1226 C972 1226 1005 1239 1036 1266 C1067 1292 1083 1326 1083 1367 C1083 1414 1048 1464 981 1464 C948 1464 915 1451 884 1425 C853 1399 837 1365 837 1323 C837 1276 872 1226 939 1226 L939 1226 Z " />
<glyph glyph-name="divide" unicode="&#xf7;" horiz-adv-x="1321" d="M1183 812 L168 812 L139 647 L1154 647 L1183 812 Z M581 272 C615 272 648 285 679 312 C710 339 726 373 726 416 C726 439 717 462 700 483 C683 504 657 514 623 514 C589 514 556 501 525 474 C493 447 477 413 477 371 C477 323 513 272 581 272 L581 272 Z M699 945 C733 945 766 958 798 985 C829 1012 845 1046 845 1087 C845 1135 809 1186 742 1186 C708 1186 675 1173 644 1146 C612 1119 596 1085 596 1043 C596 1020 605 998 622 977 C639 956 665 945 699 945 L699 945 Z " />
<glyph glyph-name="oslash" unicode="&#xf8;" horiz-adv-x="1337" d="M537 -23 C702 -23 857 40 1002 165 C1147 290 1219 447 1219 634 C1219 758 1178 861 1095 944 L1224 1089 L1036 1089 L983 1030 C912 1069 828 1089 733 1089 C560 1089 403 1025 262 896 C121 767 50 613 50 432 C50 321 91 218 174 122 L45 -23 L234 -23 L286 36 C358 -3 442 -23 537 -23 L537 -23 Z M339 307 C303 355 285 410 285 471 C285 580 328 675 413 756 C498 837 592 877 696 877 C743 877 785 868 823 850 L339 307 Z M575 190 C528 190 485 199 447 217 L930 759 C966 710 984 656 984 595 C984 486 940 391 852 311 C764 230 672 190 575 190 L575 190 Z " />
<glyph glyph-name="ugrave" unicode="&#xf9;" horiz-adv-x="1365" d="M464 -25 C628 -25 760 42 861 175 L830 -2 L1062 -2 L1250 1066 L1002 1066 L895 460 C864 285 738 188 559 188 C485 188 430 207 395 244 C359 281 341 325 341 377 C341 392 342 409 345 426 L457 1066 L209 1066 L96 424 C91 391 88 359 88 329 C88 235 118 153 178 82 C238 11 333 -25 464 -25 L464 -25 Z M959 1189 L701 1497 L439 1497 L786 1189 L959 1189 Z " />
<glyph glyph-name="uacute" unicode="&#xfa;" horiz-adv-x="1365" d="M464 -25 C628 -25 760 42 861 175 L830 -2 L1062 -2 L1250 1066 L1002 1066 L895 460 C864 285 738 188 559 188 C485 188 430 207 395 244 C359 281 341 325 341 377 C341 392 342 409 345 426 L457 1066 L209 1066 L96 424 C91 391 88 359 88 329 C88 235 118 153 178 82 C238 11 333 -25 464 -25 L464 -25 Z M595 1189 L768 1189 L1115 1497 L853 1497 L595 1189 Z " />
<glyph glyph-name="ucircumflex" unicode="&#xfb;" horiz-adv-x="1365" d="M464 -25 C628 -25 760 42 861 175 L830 -2 L1062 -2 L1250 1066 L1002 1066 L895 460 C864 285 738 188 559 188 C485 188 430 207 395 244 C359 281 341 325 341 377 C341 392 342 409 345 426 L457 1066 L209 1066 L96 424 C91 391 88 359 88 329 C88 235 118 153 178 82 C238 11 333 -25 464 -25 L464 -25 Z M1102 1205 L886 1512 L694 1512 L370 1205 L538 1205 L779 1395 L954 1205 L1102 1205 Z " />
<glyph glyph-name="udieresis" unicode="&#xfc;" horiz-adv-x="1365" d="M464 -25 C628 -25 760 42 861 175 L830 -2 L1062 -2 L1250 1066 L1002 1066 L895 460 C864 285 738 188 559 188 C485 188 430 207 395 244 C359 281 341 325 341 377 C341 392 342 409 345 426 L457 1066 L209 1066 L96 424 C91 391 88 359 88 329 C88 235 118 153 178 82 C238 11 333 -25 464 -25 L464 -25 Z M550 1226 C583 1226 616 1239 647 1265 C678 1291 694 1325 694 1367 C694 1414 660 1464 592 1464 C559 1464 526 1451 495 1425 C464 1398 448 1364 448 1323 C448 1276 483 1226 550 1226 L550 1226 Z M929 1226 C962 1226 995 1239 1026 1266 C1057 1292 1073 1326 1073 1367 C1073 1414 1038 1464 971 1464 C938 1464 905 1451 874 1425 C843 1399 827 1365 827 1323 C827 1276 862 1226 929 1226 L929 1226 Z " />
<glyph glyph-name="yacute" unicode="&#xfd;" horiz-adv-x="1163" d="M58 -428 C146 -428 223 -410 290 -373 C357 -336 419 -268 478 -168 L1200 1066 L909 1066 L511 328 L373 1066 L97 1066 L355 46 L260 -111 C216 -183 172 -235 92 -235 C35 -235 -14 -231 -53 -223 L-87 -414 C-38 -423 11 -428 58 -428 L58 -428 Z M511 1189 L684 1189 L1031 1497 L769 1497 L511 1189 Z " />
<glyph glyph-name="thorn" unicode="&#xfe;" horiz-adv-x="1406" d="M628 189 C534 189 463 219 415 278 C366 337 342 401 342 469 C342 573 383 667 465 751 C547 834 642 876 750 876 C844 876 915 846 964 787 C1012 728 1036 664 1036 597 C1035 486 993 390 908 310 C823 229 729 189 628 189 L628 189 Z M198 -405 L301 175 C378 43 490 -23 639 -23 C796 -23 944 41 1081 170 C1218 298 1287 454 1288 639 C1288 748 1250 850 1175 945 C1099 1040 986 1088 835 1088 C678 1088 536 1016 408 872 L511 1458 L279 1458 L-49 -405 L198 -405 Z " />
<glyph glyph-name="ydieresis" unicode="&#xff;" horiz-adv-x="1163" d="M58 -428 C146 -428 223 -410 290 -373 C357 -336 419 -268 478 -168 L1200 1066 L909 1066 L511 328 L373 1066 L97 1066 L355 46 L260 -111 C216 -183 172 -235 92 -235 C35 -235 -14 -231 -53 -223 L-87 -414 C-38 -423 11 -428 58 -428 L58 -428 Z M467 1226 C500 1226 533 1239 564 1265 C595 1291 611 1325 611 1367 C611 1414 577 1464 509 1464 C476 1464 443 1451 412 1425 C381 1398 365 1364 365 1323 C365 1276 400 1226 467 1226 L467 1226 Z M846 1226 C879 1226 912 1239 943 1266 C974 1292 990 1326 990 1367 C990 1414 955 1464 888 1464 C855 1464 822 1451 791 1425 C760 1399 744 1365 744 1323 C744 1276 779 1226 846 1226 L846 1226 Z " />
<glyph glyph-name="dotlessi" unicode="&#x131;" horiz-adv-x="548" d="M269 -1 L458 1066 L210 1066 L21 -1 L269 -1 Z " />
<glyph glyph-name="Lslash" unicode="&#x141;" horiz-adv-x="1198" d="M1092 213 L353 213 L429 643 L929 901 L961 1087 L462 829 L572 1457 L318 1457 L182 685 L-70 554 L-103 369 L150 499 L61 -2 L1054 -2 L1092 213 Z " />
<glyph glyph-name="lslash" unicode="&#x142;" horiz-adv-x="583" d="M411 706 L667 838 L700 1023 L444 891 L544 1457 L296 1457 L171 750 L-85 618 L-117 433 L139 565 L39 -2 L287 -2 L411 706 Z " />
<glyph glyph-name="OE" unicode="&#x152;" horiz-adv-x="2296" d="M782 204 C638 204 529 249 455 340 C380 431 343 528 343 631 C343 800 408 946 537 1069 C666 1191 809 1252 966 1252 C1101 1252 1199 1197 1262 1086 L1135 370 C1034 259 916 204 782 204 L782 204 Z M741 -24 C857 -24 969 -1 1078 45 L1070 -1 L2069 -1 L2106 213 L1362 213 L1435 628 L2059 628 L2095 827 L1470 827 L1543 1243 L2288 1243 L2326 1457 L1327 1457 L1319 1411 C1226 1457 1122 1480 1006 1480 C772 1480 561 1393 373 1220 C184 1046 89 837 86 592 C86 442 142 302 253 172 C364 41 527 -24 741 -24 L741 -24 Z " />
<glyph glyph-name="oe" unicode="&#x153;" horiz-adv-x="2169" d="M574 190 C483 190 415 219 370 278 C324 337 301 399 301 466 C301 579 343 675 426 756 C509 837 598 877 695 877 C786 877 854 848 900 789 C946 730 969 667 969 600 C968 494 928 399 849 316 C770 232 678 190 574 190 L574 190 Z M1253 623 C1272 698 1313 762 1376 817 C1439 871 1515 898 1604 898 C1699 898 1764 876 1801 831 C1837 786 1855 727 1855 654 L1854 623 L1253 623 Z M1480 -23 C1626 -23 1771 24 1914 119 L1798 280 C1697 217 1604 186 1517 186 C1424 186 1352 212 1301 264 C1249 315 1223 370 1223 428 L1223 441 L2057 441 C2080 510 2092 579 2092 647 C2092 754 2057 855 1987 948 C1916 1041 1800 1088 1638 1088 C1439 1088 1275 1003 1146 832 C1068 1003 930 1089 733 1089 C554 1089 395 1025 257 896 C119 767 50 613 50 432 C50 321 91 218 174 122 C257 25 378 -23 537 -23 C737 -23 907 64 1046 239 C1126 64 1271 -23 1480 -23 L1480 -23 Z " />
<glyph glyph-name="Scaron" unicode="&#x160;" horiz-adv-x="1348" d="M563 -23 C729 -23 884 23 1027 116 C1170 208 1241 331 1241 486 C1241 635 1144 720 973 769 L625 877 C524 908 473 950 473 1019 C473 1093 508 1151 578 1194 C647 1236 720 1257 796 1257 C952 1257 1060 1205 1121 1100 L1331 1248 C1230 1403 1063 1480 828 1480 C673 1480 527 1433 390 1340 C252 1247 183 1120 183 960 C183 831 264 742 426 695 L780 584 C892 551 953 514 953 439 C953 364 916 305 843 263 C769 221 689 200 602 200 C519 200 439 220 362 260 C284 299 231 351 202 416 L5 266 C44 176 116 105 222 54 C328 3 442 -23 563 -23 L563 -23 Z M880 1604 L1204 1911 L1036 1911 L795 1721 L620 1911 L472 1911 L688 1604 L880 1604 Z " />
<glyph glyph-name="scaron" unicode="&#x161;" horiz-adv-x="1087" d="M402 -32 C521 -32 637 -1 751 61 C865 122 922 217 922 344 C922 443 857 513 727 556 L460 651 C401 671 374 694 374 737 C374 824 458 887 602 887 C678 887 770 856 878 793 L1012 962 C893 1041 763 1080 622 1080 C482 1080 359 1044 254 973 C149 902 96 807 96 690 C96 593 151 526 261 489 L544 395 C609 374 645 350 645 305 C645 256 623 219 580 194 C536 169 481 157 414 157 C361 157 302 168 238 189 C173 210 118 241 72 283 L-55 114 C-10 64 58 27 147 4 C236 -20 321 -32 402 -32 L402 -32 Z M768 1205 L1092 1512 L924 1512 L683 1322 L508 1512 L360 1512 L576 1205 L768 1205 Z " />
<glyph glyph-name="Ydieresis" unicode="&#x178;" horiz-adv-x="1462" d="M729 -2 L850 683 L1548 1457 L1203 1457 L747 934 L475 1457 L171 1457 L595 683 L475 -2 L729 -2 Z M654 1625 C687 1625 720 1638 751 1664 C782 1690 798 1724 798 1766 C798 1813 764 1863 696 1863 C663 1863 630 1850 599 1824 C568 1797 552 1763 552 1722 C552 1675 587 1625 654 1625 L654 1625 Z M1033 1625 C1066 1625 1099 1638 1130 1665 C1161 1691 1177 1725 1177 1766 C1177 1813 1142 1863 1075 1863 C1042 1863 1009 1850 978 1824 C947 1798 931 1764 931 1722 C931 1675 966 1625 1033 1625 L1033 1625 Z " />
<glyph glyph-name="Zcaron" unicode="&#x17d;" horiz-adv-x="1287" d="M1060 -2 L1098 212 L366 212 L1293 1318 L1317 1457 L227 1457 L189 1243 L920 1243 L-6 137 L-31 -2 L1060 -2 Z M829 1604 L1153 1911 L985 1911 L744 1721 L569 1911 L421 1911 L637 1604 L829 1604 Z " />
<glyph glyph-name="zcaron" unicode="&#x17e;" horiz-adv-x="1108" d="M887 -2 L921 192 L326 192 L1041 871 L1075 1066 L153 1066 L118 871 L713 871 L-1 192 L-36 -2 L887 -2 Z M746 1205 L1070 1512 L902 1512 L661 1322 L486 1512 L338 1512 L554 1205 L746 1205 Z " />
<glyph glyph-name="florin" unicode="&#x192;" horiz-adv-x="1242" d="M127 -426 C251 -425 355 -394 440 -334 C525 -274 580 -180 605 -52 C695 452 749 760 768 872 L1072 872 L1112 1066 L803 1066 L812 1118 C829 1213 918 1282 1051 1282 C1090 1282 1127 1278 1162 1269 L1197 1467 C1142 1476 1089 1480 1038 1480 C769 1480 612 1342 568 1118 L559 1066 L335 1066 L295 872 L524 872 L362 -52 C352 -117 325 -163 280 -191 C235 -219 182 -233 120 -233 C81 -233 44 -229 9 -220 L-25 -413 C29 -422 80 -426 127 -426 L127 -426 Z " />
<glyph glyph-name="circumflex" unicode="&#x2c6;" horiz-adv-x="968" d="M934 1205 L718 1512 L526 1512 L202 1205 L370 1205 L611 1395 L786 1205 L934 1205 Z " />
<glyph glyph-name="caron" unicode="&#x2c7;" horiz-adv-x="968" d="M664 1205 L988 1512 L820 1512 L579 1322 L404 1512 L256 1512 L472 1205 L664 1205 Z " />
<glyph glyph-name="uni02C9" unicode="&#x2c9;" horiz-adv-x="969" d="M897 1286 L922 1431 L293 1431 L268 1286 L897 1286 Z " />
<glyph glyph-name="breve" unicode="&#x2d8;" horiz-adv-x="968" d="M568 1205 C677 1205 762 1237 825 1301 C888 1364 926 1435 939 1512 L833 1512 C824 1463 797 1423 750 1392 C703 1361 650 1345 592 1345 C534 1345 489 1359 457 1388 C424 1416 408 1448 408 1485 C408 1494 409 1503 411 1512 L304 1512 C301 1493 299 1474 299 1455 C299 1400 317 1344 352 1289 C387 1233 459 1205 568 1205 L568 1205 Z " />
<glyph glyph-name="dotaccent" unicode="&#x2d9;" horiz-adv-x="968" d="M574 1239 C607 1239 640 1252 671 1279 C702 1305 718 1339 718 1381 C718 1428 683 1478 616 1478 C583 1478 550 1465 519 1439 C487 1412 471 1378 471 1337 C471 1289 506 1239 574 1239 L574 1239 Z " />
<glyph glyph-name="ring" unicode="&#x2da;" horiz-adv-x="967" d="M577 1261 C522 1261 494 1302 494 1339 C494 1374 507 1402 533 1424 C558 1445 584 1456 611 1456 C666 1456 695 1415 695 1376 C695 1342 682 1314 657 1293 C631 1272 604 1261 577 1261 L577 1261 Z M557 1148 C616 1148 674 1171 729 1218 C784 1264 812 1324 812 1398 C812 1439 797 1478 766 1515 C735 1551 690 1569 631 1569 C572 1569 515 1546 460 1500 C405 1453 377 1393 377 1320 C377 1278 392 1239 423 1203 C453 1166 498 1148 557 1148 L557 1148 Z " />
<glyph glyph-name="ogonek" unicode="&#x2db;" horiz-adv-x="967" d="M304 -412 C395 -412 467 -391 520 -350 L478 -260 C436 -292 386 -308 328 -308 C277 -308 252 -290 252 -255 C252 -184 325 -99 470 0 L315 0 C176 -79 99 -166 82 -259 C80 -269 79 -278 79 -287 C79 -370 154 -412 304 -412 L304 -412 Z " />
<glyph glyph-name="tilde" unicode="&#x2dc;" horiz-adv-x="968" d="M746 1232 C852 1232 927 1287 970 1396 L855 1462 C830 1405 791 1376 738 1376 C715 1376 670 1394 604 1431 C538 1467 483 1485 440 1485 C334 1485 261 1429 220 1317 L331 1255 C356 1312 395 1341 448 1341 C471 1341 516 1323 582 1287 C647 1250 702 1232 746 1232 L746 1232 Z " />
<glyph glyph-name="hungarumlaut" unicode="&#x2dd;" horiz-adv-x="967" d="M632 1497 L424 1497 L166 1190 L321 1190 L632 1497 Z M1017 1497 L809 1497 L551 1190 L706 1190 L1017 1497 Z " />
<glyph glyph-name="&amp;#x3a9;" unicode="&#x3a9;" horiz-adv-x="1565" d="M1378 228 L1038 228 L1047 282 C1162 333 1265 412 1356 520 C1447 628 1492 771 1493 948 C1493 1085 1443 1207 1344 1316 C1244 1424 1101 1478 914 1478 C708 1478 521 1403 354 1254 C187 1105 102 915 101 685 C101 516 195 374 359 282 L350 228 L10 228 L-30 0 L541 0 L603 352 C514 381 449 428 408 492 C366 555 345 625 345 700 C346 869 402 1003 512 1102 C621 1201 742 1250 874 1250 C987 1250 1077 1215 1145 1145 C1212 1075 1246 993 1246 899 C1246 756 1203 637 1117 541 C1030 445 934 382 828 353 L766 0 L1338 0 L1378 228 Z " />
<glyph glyph-name="&amp;#x2126;" unicode="&#x2126;" horiz-adv-x="1565" d="M1378 228 L1038 228 L1047 282 C1162 333 1265 412 1356 520 C1447 628 1492 771 1493 948 C1493 1085 1443 1207 1344 1316 C1244 1424 1101 1478 914 1478 C708 1478 521 1403 354 1254 C187 1105 102 915 101 685 C101 516 195 374 359 282 L350 228 L10 228 L-30 0 L541 0 L603 352 C514 381 449 428 408 492 C366 555 345 625 345 700 C346 869 402 1003 512 1102 C621 1201 742 1250 874 1250 C987 1250 1077 1215 1145 1145 C1212 1075 1246 993 1246 899 C1246 756 1203 637 1117 541 C1030 445 934 382 828 353 L766 0 L1338 0 L1378 228 Z " />
<glyph glyph-name="pi" unicode="&#x3c0;" horiz-adv-x="1485" d="M1103 -23 C1140 -23 1220 -11 1257 5 L1231 204 C1212 197 1194 193 1178 193 C1149 193 1134 214 1134 234 C1134 235 1135 243 1138 258 L1245 868 L1412 868 L1447 1066 L158 1066 L123 868 L290 868 L137 -2 L384 -2 L538 868 L997 868 L882 213 C879 192 877 173 877 156 C877 105 894 63 927 29 C960 -6 1019 -23 1103 -23 L1103 -23 Z " />
<glyph glyph-name="uni1E9E" unicode="&#x1e9e;" horiz-adv-x="1396" d="M731 -23 C866 -23 987 28 1093 131 C1199 234 1252 358 1252 503 C1252 580 1225 641 1171 684 C1117 727 1052 752 975 761 C898 769 841 773 804 773 L1252 1163 C1192 1374 1046 1480 814 1480 C683 1480 562 1441 449 1364 C336 1286 269 1184 247 1057 L60 -1 L314 -1 L499 1049 C510 1108 544 1159 601 1202 C658 1245 716 1266 776 1266 C863 1266 928 1229 973 1156 L617 818 L582 619 L721 621 C760 621 800 619 841 615 C882 610 918 596 949 571 C980 546 996 512 996 468 C996 379 966 311 907 263 C847 215 789 191 732 191 C646 191 575 213 520 257 L439 59 C530 4 628 -23 731 -23 L731 -23 Z " />
<glyph glyph-name="endash" unicode="&#x2013;" horiz-adv-x="1322" d="M1094 440 L1127 626 L158 626 L125 440 L1094 440 Z " />
<glyph glyph-name="emdash" unicode="&#x2014;" horiz-adv-x="1938" d="M1887 440 L1920 626 L-18 626 L-51 440 L1887 440 Z " />
<glyph glyph-name="quoteleft" unicode="&#x2018;" horiz-adv-x="512" d="M586 1513 C465 1436 363 1355 279 1272 C194 1189 152 1103 151 1016 C151 943 204 886 288 886 C329 886 368 902 404 934 C439 966 457 1003 457 1044 C457 1071 450 1099 436 1128 C421 1157 414 1176 414 1187 C414 1203 427 1231 452 1270 C477 1309 537 1367 630 1446 L586 1513 Z " />
<glyph glyph-name="quoteright" unicode="&#x2019;" horiz-adv-x="512" d="M92 886 C213 963 315 1044 400 1127 C484 1210 526 1296 527 1383 C527 1456 474 1513 390 1513 C349 1513 310 1497 275 1465 C239 1433 221 1396 221 1355 C221 1328 228 1301 243 1272 C257 1243 264 1223 264 1212 C264 1196 251 1169 226 1130 C201 1091 141 1032 48 953 L92 886 Z " />
<glyph glyph-name="quotesinglbase" unicode="&#x201a;" horiz-adv-x="512" d="M-124 -339 C-3 -262 99 -181 184 -98 C268 -15 310 71 311 158 C311 231 258 288 174 288 C133 288 94 272 59 240 C23 208 5 171 5 130 C5 103 12 76 27 47 C41 18 48 -2 48 -13 C48 -29 35 -57 10 -96 C-15 -135 -75 -193 -168 -272 L-124 -339 Z " />
<glyph glyph-name="quotedblleft" unicode="&#x201c;" horiz-adv-x="944" d="M586 1513 C465 1436 363 1355 279 1272 C194 1189 152 1103 151 1016 C151 943 204 886 288 886 C329 886 368 902 404 934 C439 966 457 1003 457 1044 C457 1071 450 1099 436 1128 C421 1157 414 1176 414 1187 C414 1203 427 1231 452 1270 C477 1309 537 1367 630 1446 L586 1513 Z M1018 1513 C897 1436 795 1355 711 1272 C626 1189 584 1103 583 1016 C583 943 636 886 720 886 C761 886 800 902 836 934 C871 966 889 1003 889 1044 C889 1071 882 1099 868 1128 C853 1157 846 1176 846 1187 C846 1203 859 1231 884 1270 C909 1309 969 1367 1062 1446 L1018 1513 Z " />
<glyph glyph-name="quotedblright" unicode="&#x201d;" horiz-adv-x="944" d="M92 886 C213 963 315 1044 400 1127 C484 1210 526 1296 527 1383 C527 1456 474 1513 390 1513 C349 1513 310 1497 275 1465 C239 1433 221 1396 221 1355 C221 1328 228 1301 243 1272 C257 1243 264 1223 264 1212 C264 1196 251 1169 226 1130 C201 1091 141 1032 48 953 L92 886 Z M523 886 C644 963 746 1044 831 1127 C915 1210 957 1296 958 1383 C958 1456 905 1513 821 1513 C780 1513 741 1497 706 1465 C670 1433 652 1396 652 1355 C652 1328 659 1301 674 1272 C689 1243 696 1223 696 1212 C696 1196 683 1169 658 1130 C632 1091 572 1032 479 953 L523 886 Z " />
<glyph glyph-name="quotedblbase" unicode="&#x201e;" horiz-adv-x="944" d="M-124 -339 C-3 -262 99 -181 184 -98 C268 -15 310 71 311 158 C311 231 258 288 174 288 C133 288 94 272 59 240 C23 208 5 171 5 130 C5 103 12 76 27 47 C41 18 48 -2 48 -13 C48 -29 35 -57 10 -96 C-15 -135 -75 -193 -168 -272 L-124 -339 Z M307 -339 C428 -262 530 -181 615 -98 C699 -15 741 71 742 158 C742 231 689 288 605 288 C564 288 525 272 490 240 C454 208 436 171 436 130 C436 103 443 76 458 47 C473 18 480 -2 480 -13 C480 -29 467 -57 442 -96 C416 -135 356 -193 263 -272 L307 -339 Z " />
<glyph glyph-name="dagger" unicode="&#x2020;" horiz-adv-x="1322" d="M790 926 L1183 926 L1212 1092 L819 1092 L889 1487 L700 1487 L630 1092 L237 1092 L208 926 L601 926 L364 -420 L553 -420 L790 926 Z " />
<glyph glyph-name="daggerdbl" unicode="&#x2021;" horiz-adv-x="1322" d="M553 -420 L622 -24 L1015 -24 L1045 141 L651 141 L790 926 L1183 926 L1212 1092 L819 1092 L889 1487 L700 1487 L630 1092 L237 1092 L208 926 L601 926 L463 141 L70 141 L40 -24 L434 -24 L364 -420 L553 -420 Z " />
<glyph glyph-name="bullet" unicode="&#x2022;" horiz-adv-x="1321" d="M661 467 C733 467 794 493 845 544 C896 595 921 657 921 728 C921 800 896 862 845 913 C794 964 733 989 661 989 C589 989 528 964 477 913 C426 862 400 800 400 728 C400 657 425 595 476 544 C527 493 588 467 661 467 L661 467 Z " />
<glyph glyph-name="ellipsis" unicode="&#x2026;" horiz-adv-x="1638" d="M124 -23 C168 -23 210 -6 251 29 C292 63 312 107 312 161 C312 192 301 222 279 249 C256 276 223 289 179 289 C136 289 94 272 53 238 C12 203 -9 159 -9 105 C-9 74 2 45 25 18 C47 -9 80 -23 124 -23 L124 -23 Z M687 -23 C731 -23 773 -6 814 29 C855 64 875 108 875 161 C875 192 864 222 841 249 C818 276 785 289 742 289 C698 289 656 272 615 238 C574 204 554 160 554 105 C554 74 565 45 588 18 C610 -9 643 -23 687 -23 L687 -23 Z M1249 -23 C1293 -23 1336 -6 1377 29 C1418 64 1438 108 1438 162 C1438 193 1427 222 1404 249 C1381 276 1348 289 1304 289 C1261 289 1219 272 1178 238 C1137 203 1116 159 1116 105 C1116 74 1127 45 1150 18 C1172 -9 1205 -23 1249 -23 L1249 -23 Z " />
<glyph glyph-name="perthousand" unicode="&#x2030;" horiz-adv-x="2771" d="M514 -24 L1661 1480 L1410 1480 L263 -24 L514 -24 Z M515 924 C464 924 426 940 400 971 C373 1002 360 1036 360 1071 C360 1134 384 1186 431 1225 C478 1264 527 1284 578 1284 C629 1284 667 1269 694 1238 C720 1207 733 1173 733 1137 C733 1075 709 1024 662 984 C614 944 565 924 515 924 L515 924 Z M480 728 C592 728 696 771 791 858 C886 945 933 1050 934 1174 C934 1248 907 1318 853 1383 C798 1448 718 1480 613 1480 C500 1480 397 1437 302 1350 C207 1263 159 1159 158 1036 C158 961 185 891 240 826 C295 761 375 728 480 728 L480 728 Z M1346 172 C1295 172 1257 188 1231 219 C1204 250 1191 284 1191 319 C1191 382 1215 434 1262 473 C1309 512 1358 532 1409 532 C1460 532 1498 517 1525 486 C1551 455 1564 421 1564 385 C1564 323 1540 272 1493 232 C1445 192 1396 172 1346 172 L1346 172 Z M1311 -24 C1423 -24 1527 19 1622 106 C1717 193 1764 298 1765 422 C1765 497 1738 566 1684 631 C1629 696 1549 728 1444 728 C1331 728 1228 685 1133 598 C1038 511 990 407 989 284 C989 209 1016 139 1071 74 C1126 9 1206 -24 1311 -24 L1311 -24 Z M2194 172 C2143 172 2105 188 2079 219 C2052 250 2039 284 2039 319 C2039 382 2063 434 2110 473 C2157 512 2206 532 2257 532 C2308 532 2346 517 2373 486 C2399 455 2412 421 2412 385 C2412 323 2388 272 2341 232 C2293 192 2244 172 2194 172 L2194 172 Z M2159 -24 C2271 -24 2375 19 2470 106 C2565 193 2612 298 2613 422 C2613 497 2586 566 2532 631 C2477 696 2397 728 2292 728 C2179 728 2076 685 1981 598 C1886 511 1838 407 1837 284 C1837 209 1864 139 1919 74 C1974 9 2054 -24 2159 -24 L2159 -24 Z " />
<glyph glyph-name="guilsinglleft" unicode="&#x2039;" horiz-adv-x="881" d="M581 77 L395 532 L742 987 L524 987 L177 532 L363 77 L581 77 Z " />
<glyph glyph-name="guilsinglright" unicode="&#x203a;" horiz-adv-x="881" d="M288 77 L635 532 L449 987 L231 987 L417 532 L70 77 L288 77 Z " />
<glyph glyph-name="&amp;#x2044;" unicode="&#x2044;" horiz-adv-x="322" d="M-286 -18 L861 1486 L610 1486 L-538 -18 L-286 -18 Z " />
<glyph glyph-name="&amp;#x2215;" unicode="&#x2215;" horiz-adv-x="322" d="M-286 -18 L861 1486 L610 1486 L-538 -18 L-286 -18 Z " />
<glyph glyph-name="franc" unicode="&#x20a3;" horiz-adv-x="1322" d="M388 -1 L438 286 L928 286 L961 472 L471 472 L499 628 L1123 628 L1159 827 L534 827 L607 1243 L1352 1243 L1390 1457 L391 1457 L217 472 L16 472 L-17 286 L184 286 L134 -1 L388 -1 Z " />
<glyph glyph-name="lira" unicode="&#x20a4;" horiz-adv-x="1322" d="M1065 0 L1100 194 L440 194 L487 459 L816 459 L848 637 L518 637 L551 822 L880 822 L912 1000 L582 1000 L589 1038 C600 1103 630 1159 677 1204 C724 1249 779 1272 844 1273 C911 1273 964 1260 1003 1233 C1042 1206 1078 1166 1112 1111 L1285 1244 C1234 1323 1176 1383 1112 1422 C1047 1461 962 1481 855 1481 C726 1481 612 1435 513 1342 C414 1249 354 1146 334 1034 L328 1000 L224 1000 L192 822 L297 822 L264 637 L160 637 L128 459 L233 459 L186 194 L34 194 L0 0 L1065 0 Z " />
<glyph glyph-name="Euro" unicode="&#x20ac;" horiz-adv-x="1322" d="M821 -24 C929 -24 1031 2 1127 54 L1165 270 C1062 210 960 180 857 180 C756 180 680 210 628 270 C575 330 545 393 537 459 L955 459 L987 637 L526 637 C531 699 542 761 559 822 L1019 822 L1051 1000 L633 1000 C662 1065 712 1127 783 1187 C854 1246 943 1276 1051 1276 C1153 1276 1245 1246 1326 1186 L1364 1402 C1287 1454 1194 1480 1087 1480 C894 1480 740 1427 623 1321 C506 1215 426 1108 381 1000 L123 1000 L92 822 L316 822 C300 761 289 699 283 637 L59 637 L28 459 L285 459 C296 336 343 225 427 126 C510 26 642 -24 821 -24 L821 -24 Z " />
<glyph glyph-name="uni20B9" unicode="&#x20b9;" horiz-adv-x="1321" d="M992 -2 L632 570 C839 621 972 734 1030 907 L1220 907 L1252 1086 L1060 1086 L1060 1090 C1060 1163 1042 1227 1006 1281 L1286 1281 L1317 1457 L260 1457 L228 1272 L582 1272 C722 1272 811 1195 818 1086 L195 1086 L163 907 L788 907 C765 850 727 804 672 769 C617 734 554 716 484 716 L130 716 L97 531 L347 531 L682 -2 L992 -2 Z " />
<glyph glyph-name="uni20BA" unicode="&#x20ba;" horiz-adv-x="1321" d="M452 -1 C647 -1 820 60 971 182 C1122 304 1213 457 1246 640 L1025 640 C999 513 934 411 831 332 C727 253 613 213 490 213 L441 213 L494 514 L873 676 L908 875 L529 713 L568 933 L947 1095 L982 1294 L603 1132 L660 1457 L406 1457 L329 1015 L93 915 L58 716 L293 816 L255 596 L19 495 L-15 297 L220 397 L149 -1 L452 -1 Z " />
<glyph glyph-name="uni2113" unicode="&#x2113;" horiz-adv-x="884" d="M440 1231 C449 1284 473 1327 513 1360 C553 1393 597 1410 645 1410 C748 1409 792 1356 792 1280 C792 1181 750 1108 665 1063 L382 906 L440 1231 Z M384 -24 C500 -23 613 25 724 122 L736 191 C631 93 522 44 407 44 C313 44 266 97 266 204 C266 231 269 262 275 296 L371 844 L669 1008 C794 1076 856 1171 856 1292 C856 1345 838 1390 803 1426 C768 1462 712 1480 636 1480 C536 1480 450 1451 377 1394 C304 1337 259 1261 240 1166 L175 792 L7 699 L-4 636 L163 729 L93 328 C87 293 84 260 84 231 C84 61 184 -24 384 -24 L384 -24 Z " />
<glyph glyph-name="trademark" unicode="&#x2122;" horiz-adv-x="1643" d="M1545 729 L1673 1458 L1549 1458 L1242 1102 L1060 1458 L936 1458 L807 729 L964 729 L1039 1158 L1165 913 L1252 913 L1464 1158 L1388 729 L1545 729 Z M478 729 L582 1320 L803 1320 L827 1458 L227 1458 L202 1320 L424 1320 L319 729 L478 729 Z " />
<glyph glyph-name="estimated" unicode="&#x212e;" horiz-adv-x="1746" d="M1388 783 L356 783 L356 1130 C491 1299 663 1384 872 1384 C1081 1384 1253 1299 1388 1130 L1388 783 Z M872 -19 C1149 -19 1368 105 1531 352 L1441 404 C1298 189 1108 81 872 81 C663 81 491 166 356 335 L356 682 L1636 682 L1636 733 C1636 942 1561 1119 1412 1265 C1262 1411 1082 1484 872 1484 C663 1484 483 1411 334 1265 C184 1119 109 942 109 733 C109 524 184 346 334 200 C483 54 663 -19 872 -19 L872 -19 Z " />
<glyph glyph-name="onethird" unicode="&#x2153;" horiz-adv-x="1710" d="M506 730 L637 1474 L447 1474 L217 1355 L279 1202 L395 1262 L302 730 L506 730 Z M414 -18 L1562 1486 L1311 1486 L163 -18 L414 -18 Z M1170 -18 C1044 -18 958 28 911 121 L1070 238 C1091 188 1132 163 1191 163 C1273 163 1314 190 1314 244 C1314 280 1284 299 1224 300 L1154 300 L1177 431 L1242 431 C1302 431 1336 465 1336 516 C1336 551 1312 568 1263 568 C1211 568 1165 543 1125 493 L1007 610 C1087 703 1187 749 1306 749 C1381 749 1439 731 1482 695 C1524 659 1545 613 1545 558 C1545 479 1511 415 1444 366 C1493 335 1518 296 1518 249 C1517 172 1481 108 1409 58 C1336 7 1257 -18 1170 -18 L1170 -18 Z " />
<glyph glyph-name="twothirds" unicode="&#x2154;" horiz-adv-x="1711" d="M684 730 L715 907 L484 907 L669 1059 C745 1122 783 1197 783 1282 C783 1339 761 1388 716 1427 C671 1466 610 1486 531 1486 C405 1486 301 1438 220 1343 L337 1227 C379 1279 429 1305 488 1305 C547 1305 576 1286 576 1248 C576 1221 567 1200 549 1185 L149 861 L126 730 L684 730 Z M411 -18 L1558 1486 L1307 1486 L159 -18 L411 -18 Z M1167 -18 C1041 -18 955 28 908 121 L1067 238 C1088 188 1129 163 1188 163 C1269 163 1310 190 1310 244 C1310 280 1280 299 1221 300 L1151 300 L1174 431 L1239 431 C1299 431 1333 465 1333 516 C1333 551 1309 568 1260 568 C1208 568 1162 543 1122 493 L1004 610 C1084 703 1184 749 1303 749 C1378 749 1436 731 1479 695 C1521 659 1542 613 1542 558 C1542 479 1508 415 1441 366 C1490 335 1514 296 1514 249 C1514 172 1478 108 1406 58 C1333 7 1254 -18 1167 -18 L1167 -18 Z " />
<glyph glyph-name="partialdiff" unicode="&#x2202;" horiz-adv-x="1306" d="M530 202 C446 202 388 224 355 268 C322 312 306 360 306 412 C307 504 334 583 389 650 C443 716 522 749 626 749 C735 749 834 715 925 646 C907 545 885 469 858 417 C831 364 790 315 735 270 C680 225 611 202 530 202 L530 202 Z M491 -19 C726 -19 906 73 1033 256 C1159 439 1223 659 1226 914 C1226 1042 1191 1169 1120 1296 C1049 1422 892 1485 648 1485 C560 1485 480 1470 408 1440 L462 1230 C509 1252 558 1263 609 1264 C735 1264 826 1227 883 1152 C940 1077 968 982 969 867 C880 933 778 966 664 966 C481 966 332 910 217 797 C101 684 43 542 43 369 C43 266 75 181 138 114 C221 25 338 -19 491 -19 L491 -19 Z " />
<glyph glyph-name="increment" unicode="&#x2206;" horiz-adv-x="1592" d="M378 228 L857 1070 L1039 228 L378 228 Z M1013 1456 L837 1456 L-31 -3 L1366 -3 L1013 1456 Z " />
<glyph glyph-name="product" unicode="&#x220f;" horiz-adv-x="1701" d="M1399 -428 L1735 1480 L231 1480 L-106 -428 L149 -428 L452 1294 L1448 1294 L1145 -428 L1399 -428 Z " />
<glyph glyph-name="summation" unicode="&#x2211;" horiz-adv-x="1701" d="M1432 -242 L228 -242 L952 526 L499 1294 L1703 1294 L1735 1480 L231 1480 L198 1294 L651 526 L-73 -242 L-106 -428 L1399 -428 L1432 -242 Z " />
<glyph glyph-name="minus" unicode="&#x2212;" horiz-adv-x="1322" d="M1130 640 L1162 825 L193 825 L160 640 L1130 640 Z " />
<glyph glyph-name="radical" unicode="&#x221a;" horiz-adv-x="1321" d="M671 -12 L1527 1895 L1330 1895 L620 313 L502 1088 L-20 957 L-3 775 L337 861 L474 -12 L671 -12 Z " />
<glyph glyph-name="infinity" unicode="&#x221e;" horiz-adv-x="1721" d="M431 541 C377 541 336 558 309 591 C282 624 268 659 268 697 C268 764 293 818 343 861 C393 903 445 924 499 924 C545 923 584 908 616 877 C647 846 677 813 705 776 L740 733 L690 689 C651 653 610 620 567 589 C523 558 478 542 431 541 L431 541 Z M1224 541 C1178 542 1139 558 1106 589 C1073 620 1044 653 1017 689 L983 733 L1033 776 C1074 813 1115 846 1158 877 C1201 908 1245 923 1292 924 C1346 924 1387 908 1414 875 C1441 842 1455 806 1455 768 C1455 701 1430 646 1380 604 C1330 562 1278 541 1224 541 L1224 541 Z M1194 372 C1295 372 1388 407 1472 478 C1556 548 1607 633 1624 733 C1628 756 1630 778 1630 799 C1630 870 1604 937 1552 1000 C1500 1062 1423 1093 1321 1093 C1242 1093 1172 1073 1112 1034 C1052 995 993 949 935 897 L882 852 L846 897 C807 949 764 995 718 1034 C671 1073 608 1093 528 1093 C413 1093 312 1051 225 968 C137 884 93 783 93 666 C93 595 119 528 171 466 C223 403 300 372 401 372 C481 372 551 392 611 431 C671 470 730 516 788 568 L840 613 L877 568 C918 516 962 471 1009 432 C1055 393 1117 373 1194 372 L1194 372 Z " />
<glyph glyph-name="integral" unicode="&#x222b;" horiz-adv-x="1068" d="M126 -428 C236 -428 328 -372 403 -259 C477 -146 526 -20 550 119 L794 1514 C812 1610 830 1677 847 1715 C864 1752 889 1771 922 1771 C913 1757 908 1738 908 1713 C908 1665 944 1615 1011 1615 C1045 1615 1077 1628 1106 1655 C1135 1682 1150 1719 1150 1766 C1150 1850 1079 1892 938 1892 C831 1892 741 1836 667 1723 C592 1610 543 1483 519 1344 L278 -35 C258 -142 239 -214 222 -252 C205 -289 180 -308 147 -308 C156 -294 161 -275 161 -252 C161 -204 125 -154 57 -154 C24 -154 -8 -168 -38 -195 C-67 -222 -82 -258 -82 -304 C-82 -387 -13 -428 126 -428 L126 -428 Z " />
<glyph glyph-name="approxequal" unicode="&#x2248;" horiz-adv-x="1323" d="M892 789 C1006 789 1083 818 1124 875 L1156 1060 C1131 1036 1102 1016 1067 1000 C1032 983 982 975 917 975 C850 975 778 992 701 1026 C624 1059 558 1076 503 1076 C390 1076 312 1047 271 989 L239 805 C264 829 293 849 328 866 C363 882 413 890 478 890 C545 890 617 873 694 840 C771 806 837 789 892 789 L892 789 Z M821 389 C935 389 1012 418 1053 476 L1086 660 C1061 636 1032 616 997 600 C962 583 911 575 846 575 C779 575 707 592 630 626 C553 659 488 676 433 676 C319 676 242 647 201 589 L168 406 C193 430 223 450 258 467 C293 483 343 491 408 491 C475 491 547 474 624 440 C700 406 766 389 821 389 L821 389 Z " />
<glyph glyph-name="notequal" unicode="&#x2260;" horiz-adv-x="1322" d="M422 -24 L609 393 L1066 393 L1098 578 L692 578 L826 877 L1151 877 L1184 1063 L910 1063 L1097 1480 L900 1480 L713 1063 L256 1063 L223 877 L629 877 L495 578 L171 578 L138 393 L412 393 L225 -24 L422 -24 Z " />
<glyph glyph-name="lessequal" unicode="&#x2264;" horiz-adv-x="1322" d="M1103 603 L492 840 L1187 1077 L1221 1275 L232 924 L202 756 L1068 405 L1103 603 Z M91 124 L123 310 L1051 310 L1019 124 L91 124 Z " />
<glyph glyph-name="greaterequal" unicode="&#x2265;" horiz-adv-x="1322" d="M1130 756 L1160 924 L293 1275 L259 1077 L870 840 L175 603 L140 405 L1130 756 Z M91 124 L123 310 L1051 310 L1019 124 L91 124 Z " />
<glyph glyph-name="lozenge" unicode="&#x25ca;" horiz-adv-x="1129" d="M470 192 L328 728 L658 1263 L800 728 L470 192 Z M551 -2 L1030 728 L808 1457 L577 1457 L98 728 L320 -2 L551 -2 Z " />
<glyph glyph-name="&amp;#xf001;" unicode="&#xf001;" horiz-adv-x="1303" d="M361 -1 L515 872 L813 872 L847 1066 L549 1066 L558 1118 C567 1164 592 1203 635 1235 C678 1266 733 1282 800 1282 C837 1282 864 1278 883 1269 L918 1467 C883 1476 841 1480 794 1480 C671 1480 566 1450 477 1391 C388 1332 332 1241 311 1118 L301 1066 L88 1066 L54 872 L267 872 L113 -1 L361 -1 Z M1131 1220 C1170 1220 1207 1235 1244 1266 C1280 1296 1298 1335 1298 1384 C1298 1411 1288 1437 1268 1461 C1248 1485 1219 1497 1180 1497 C1141 1497 1104 1482 1068 1452 C1031 1421 1013 1382 1013 1334 C1013 1306 1023 1280 1043 1256 C1063 1232 1092 1220 1131 1220 L1131 1220 Z M1040 -1 L1228 1066 L980 1066 L792 -1 L1040 -1 Z " />
<glyph glyph-name="&amp;#xfb01;" unicode="&#xfb01;" horiz-adv-x="1303" d="M361 -1 L515 872 L813 872 L847 1066 L549 1066 L558 1118 C567 1164 592 1203 635 1235 C678 1266 733 1282 800 1282 C837 1282 864 1278 883 1269 L918 1467 C883 1476 841 1480 794 1480 C671 1480 566 1450 477 1391 C388 1332 332 1241 311 1118 L301 1066 L88 1066 L54 872 L267 872 L113 -1 L361 -1 Z M1131 1220 C1170 1220 1207 1235 1244 1266 C1280 1296 1298 1335 1298 1384 C1298 1411 1288 1437 1268 1461 C1248 1485 1219 1497 1180 1497 C1141 1497 1104 1482 1068 1452 C1031 1421 1013 1382 1013 1334 C1013 1306 1023 1280 1043 1256 C1063 1232 1092 1220 1131 1220 L1131 1220 Z M1040 -1 L1228 1066 L980 1066 L792 -1 L1040 -1 Z " />
<glyph glyph-name="&amp;#xf002;" unicode="&#xf002;" horiz-adv-x="1350" d="M361 -1 L515 872 L813 872 L847 1066 L549 1066 L559 1118 C567 1164 592 1203 635 1235 C678 1266 733 1282 800 1282 C837 1282 864 1278 883 1269 L918 1467 C883 1476 841 1480 794 1480 C671 1480 566 1450 477 1391 C388 1332 332 1241 311 1118 L301 1066 L88 1066 L54 872 L267 872 L113 -1 L361 -1 Z M1055 -1 L1312 1458 L1064 1458 L807 -1 L1055 -1 Z " />
<glyph glyph-name="&amp;#xfb02;" unicode="&#xfb02;" horiz-adv-x="1350" d="M361 -1 L515 872 L813 872 L847 1066 L549 1066 L559 1118 C567 1164 592 1203 635 1235 C678 1266 733 1282 800 1282 C837 1282 864 1278 883 1269 L918 1467 C883 1476 841 1480 794 1480 C671 1480 566 1450 477 1391 C388 1332 332 1241 311 1118 L301 1066 L88 1066 L54 872 L267 872 L113 -1 L361 -1 Z M1055 -1 L1312 1458 L1064 1458 L807 -1 L1055 -1 Z " />
<glyph glyph-name="uniFB00" unicode="&#xfb00;" horiz-adv-x="1540" d="M1030 -1 L1184 872 L1513 872 L1547 1066 L1218 1066 L1227 1118 C1235 1164 1261 1203 1304 1235 C1347 1266 1402 1282 1469 1282 C1506 1282 1544 1278 1583 1269 L1618 1467 C1562 1476 1510 1480 1462 1480 C1340 1480 1234 1450 1145 1391 C1056 1332 1000 1241 979 1118 L970 1066 L549 1066 L558 1118 C567 1164 592 1203 635 1235 C678 1266 733 1282 801 1282 C838 1282 865 1278 884 1269 L919 1467 C883 1476 841 1480 794 1480 C671 1480 566 1450 477 1391 C388 1332 332 1241 311 1118 L301 1066 L88 1066 L54 872 L267 872 L113 -1 L361 -1 L515 872 L936 872 L782 -1 L1030 -1 Z " />
<glyph glyph-name="uniFB03" unicode="&#xfb03;" horiz-adv-x="1986" d="M1029 -1 L1183 872 L1482 872 L1516 1066 L1217 1066 L1226 1118 C1235 1164 1260 1203 1303 1235 C1346 1266 1401 1282 1469 1282 C1506 1282 1533 1278 1552 1269 L1587 1467 C1551 1476 1509 1480 1462 1480 C1339 1480 1234 1450 1145 1391 C1056 1332 1000 1241 979 1118 L969 1066 L549 1066 L558 1118 C566 1164 592 1203 635 1235 C678 1266 733 1282 800 1282 C837 1282 864 1278 883 1269 L918 1467 C883 1476 841 1480 793 1480 C671 1480 565 1450 476 1391 C387 1332 331 1241 310 1118 L301 1066 L87 1066 L53 872 L267 872 L113 -1 L361 -1 L515 872 L935 872 L781 -1 L1029 -1 Z M1708 -1 L1896 1066 L1648 1066 L1460 -1 L1708 -1 Z M1796 1203 C1839 1203 1881 1220 1922 1255 C1963 1289 1983 1333 1983 1387 C1983 1418 1972 1447 1950 1474 C1927 1501 1894 1514 1851 1514 C1808 1514 1766 1497 1725 1463 C1684 1428 1664 1384 1664 1329 C1664 1298 1675 1270 1698 1243 C1720 1216 1753 1203 1796 1203 L1796 1203 Z " />
<glyph glyph-name="uniFB04" unicode="&#xfb04;" horiz-adv-x="2018" d="M1030 -1 L1184 872 L1482 872 L1517 1066 L1218 1066 L1227 1118 C1235 1164 1261 1203 1304 1235 C1347 1266 1402 1282 1469 1282 C1506 1282 1533 1278 1552 1269 L1587 1467 C1552 1476 1510 1480 1463 1480 C1340 1480 1235 1450 1146 1391 C1057 1332 1001 1241 979 1118 L970 1066 L549 1066 L559 1118 C567 1164 592 1203 635 1235 C678 1266 733 1282 801 1282 C838 1282 865 1278 884 1269 L919 1467 C883 1476 841 1480 794 1480 C671 1480 566 1450 477 1391 C388 1332 332 1241 311 1118 L301 1066 L88 1066 L54 872 L267 872 L113 -1 L361 -1 L515 872 L936 872 L782 -1 L1030 -1 Z M1724 -1 L1981 1458 L1733 1458 L1476 -1 L1724 -1 Z " />
</font>
</svg>
