<?xml version="1.0" encoding="UTF-8"?>
<svg xmlns="http://www.w3.org/2000/svg" xmlns:xlink="http://www.w3.org/1999/xlink" version="1.2" >
<font id="Guerrer Semibold Oblique">
<font-face  font-family="Guerrer" units-per-em="2048" ascent="1458" descent="-405" font-style="italic" font-weight="600" font-stretch="normal" slope="-10" cap-height="1457" x-height="1069" underline-position="-217" underline-thickness="150" />
<missing-glyph  horiz-adv-x="1024" d="" />
<glyph glyph-name="&amp;#x0;" d="" />
<glyph glyph-name="&amp;#x1d;" unicode="&#x1d;" d="" />
<glyph glyph-name="&amp;#x20;" unicode="&#x20;" horiz-adv-x="492" d="" />
<glyph glyph-name="&amp;#xa0;" unicode="&#xa0;" horiz-adv-x="492" d="" />
<glyph glyph-name="exclam" unicode="&#x21;" horiz-adv-x="867" d="M498 467 L724 1480 L408 1480 L276 467 L498 467 Z M301 -24 C249 -24 210 -8 183 24 C156 56 143 90 143 127 C143 191 167 243 216 284 C264 325 314 345 366 345 C417 345 457 329 484 297 C511 265 524 231 524 194 C524 131 500 79 452 38 C403 -4 353 -24 301 -24 L301 -24 Z " />
<glyph glyph-name="quotedbl" unicode="&#x22;" horiz-adv-x="681" d="M781 1542 L528 1542 L484 1068 L658 1068 L781 1542 Z M440 1542 L187 1542 L143 1068 L316 1068 L440 1542 Z " />
<glyph glyph-name="numbersign" unicode="&#x23;" horiz-adv-x="1334" d="M737 598 L499 598 L621 870 L859 870 L737 598 Z M694 -24 L884 399 L1204 399 L1239 598 L973 598 L1095 870 L1287 870 L1322 1069 L1184 1069 L1369 1480 L1133 1480 L949 1069 L710 1069 L895 1480 L659 1480 L475 1069 L131 1069 L96 870 L385 870 L263 598 L48 598 L13 399 L174 399 L-15 -24 L220 -24 L410 399 L648 399 L459 -24 L694 -24 Z " />
<glyph glyph-name="dollar" unicode="&#x24;" horiz-adv-x="1334" d="M649 -15 C804 4 939 59 1055 150 C1170 241 1228 360 1229 509 C1229 572 1211 628 1175 675 C1138 722 1084 758 1011 785 C938 811 863 832 786 847 C703 863 635 882 582 905 C529 927 503 961 503 1008 C503 1069 532 1117 590 1153 C647 1188 706 1206 766 1206 C910 1206 1008 1159 1061 1065 L1315 1247 C1234 1372 1099 1447 911 1471 L945 1665 L718 1665 L683 1466 C549 1443 427 1387 316 1298 C205 1209 150 1091 150 944 C150 881 168 826 205 779 C241 732 296 695 369 669 C442 642 516 621 593 606 C677 590 745 571 797 549 C849 526 875 492 875 445 C875 385 846 337 787 302 C728 266 661 248 587 248 C513 248 440 266 369 303 C298 340 246 389 213 450 L-24 263 C59 108 208 16 422 -14 L388 -209 L614 -209 L649 -15 Z " />
<glyph glyph-name="percent" unicode="&#x25;" horiz-adv-x="1934" d="M545 -24 L1693 1480 L1389 1480 L242 -24 L545 -24 Z M517 965 C478 965 448 977 428 1001 C407 1025 397 1051 397 1079 C397 1127 415 1167 452 1198 C489 1229 527 1244 566 1244 C605 1244 635 1232 655 1208 C675 1183 685 1157 685 1129 C685 1080 667 1041 631 1011 C594 980 556 965 517 965 L517 965 Z M475 728 C587 728 691 770 786 853 C881 936 929 1043 929 1174 C929 1248 902 1318 848 1383 C793 1448 713 1480 608 1480 C482 1480 375 1437 286 1350 C197 1263 153 1159 153 1036 C153 961 180 891 235 826 C290 761 370 728 475 728 L475 728 Z M1369 213 C1330 213 1300 225 1280 249 C1259 273 1249 299 1249 327 C1249 375 1267 415 1304 446 C1341 477 1379 492 1418 492 C1457 492 1487 480 1507 456 C1527 431 1537 405 1537 377 C1537 328 1519 289 1483 259 C1446 228 1408 213 1369 213 L1369 213 Z M1327 -24 C1439 -24 1543 18 1638 101 C1733 184 1781 291 1781 422 C1781 497 1754 566 1700 631 C1645 696 1565 728 1460 728 C1334 728 1227 685 1138 598 C1049 511 1005 407 1005 284 C1005 209 1032 139 1087 74 C1142 9 1222 -24 1327 -24 L1327 -24 Z " />
<glyph glyph-name="ampersand" unicode="&#x26;" horiz-adv-x="1525" d="M513 217 C424 217 368 234 346 267 C324 300 313 336 313 373 C313 442 343 501 402 550 L511 641 L775 339 C703 258 616 217 513 217 L513 217 Z M470 -24 C643 -24 798 33 934 148 L1064 -1 L1404 -1 L1114 339 L1478 732 L1143 732 L955 527 L619 911 C590 944 575 983 575 1028 C575 1097 597 1149 642 1185 C687 1221 741 1239 806 1239 C864 1239 907 1223 934 1191 C961 1158 975 1126 975 1094 C975 1086 974 1078 973 1070 L1251 1070 C1256 1097 1258 1122 1258 1147 C1258 1234 1224 1311 1157 1379 C1089 1446 986 1480 849 1480 C668 1477 531 1426 437 1328 C343 1229 296 1125 295 1015 C295 946 319 883 368 828 L237 717 C99 607 30 477 30 327 C30 235 65 154 136 83 C207 12 318 -24 470 -24 L470 -24 Z " />
<glyph glyph-name="quotesingle" unicode="&#x27;" horiz-adv-x="340" d="M440 1542 L187 1542 L143 1068 L316 1068 L440 1542 Z " />
<glyph glyph-name="parenleft" unicode="&#x28;" horiz-adv-x="573" d="M377 -427 C331 -306 308 -135 308 84 C308 571 443 1037 713 1480 L480 1480 C206 1054 69 587 69 80 C69 -105 94 -274 143 -427 L377 -427 Z " />
<glyph glyph-name="parenright" unicode="&#x29;" horiz-adv-x="572" d="M124 1480 C170 1359 193 1188 193 969 C193 482 58 16 -212 -427 L21 -427 C295 -1 432 466 432 973 C432 1158 407 1327 358 1480 L124 1480 Z " />
<glyph glyph-name="asterisk" unicode="&#x2a;" horiz-adv-x="623" d="M590 1076 L509 1193 L667 1229 L643 1386 L488 1327 L528 1480 L360 1480 L345 1327 L211 1386 L132 1229 L278 1193 L155 1076 L274 979 L379 1110 L437 979 L590 1076 Z " />
<glyph glyph-name="plus" unicode="&#x2b;" horiz-adv-x="1334" d="M762 629 L1151 629 L1186 828 L798 828 L867 1221 L641 1221 L571 828 L183 828 L148 629 L536 629 L467 236 L693 236 L762 629 Z " />
<glyph glyph-name="comma" unicode="&#x2c;" horiz-adv-x="562" d="M-108 -354 C-7 -293 98 -216 207 -124 C316 -31 370 75 370 195 C370 284 311 345 211 345 C163 345 117 326 72 289 C27 252 5 204 5 146 C5 110 14 79 32 52 C49 25 58 4 58 -11 C58 -30 44 -59 17 -98 C-10 -137 -71 -195 -165 -272 L-108 -354 Z " />
<glyph glyph-name="&amp;#x2d;" unicode="&#x2d;" horiz-adv-x="801" d="M654 422 L693 645 L79 645 L39 422 L654 422 Z " />
<glyph glyph-name="&amp;#xad;" unicode="&#xad;" horiz-adv-x="801" d="M654 422 L693 645 L79 645 L39 422 L654 422 Z " />
<glyph glyph-name="period" unicode="&#x2e;" horiz-adv-x="561" d="M148 -24 C200 -24 250 -4 299 38 C347 79 371 131 371 194 C371 231 358 265 331 297 C304 329 264 345 213 345 C161 345 111 325 63 284 C14 243 -10 191 -10 127 C-10 90 3 56 30 24 C57 -8 96 -24 148 -24 L148 -24 Z " />
<glyph glyph-name="slash" unicode="&#x2f;" horiz-adv-x="743" d="M175 -24 L827 1480 L570 1480 L-83 -24 L175 -24 Z " />
<glyph glyph-name="zero" unicode="0" horiz-adv-x="1334" d="M582 244 C447 244 375 354 374 562 C374 720 409 868 479 1006 C549 1144 640 1213 753 1213 C827 1213 881 1184 914 1127 C947 1069 964 995 964 905 C964 740 928 589 855 451 C782 313 691 244 582 244 L582 244 Z M535 -24 C766 -24 947 73 1080 268 C1213 462 1279 682 1279 929 C1279 1110 1243 1248 1170 1341 C1097 1434 973 1480 800 1480 C549 1480 362 1378 239 1175 C116 972 55 756 55 529 C55 154 215 -24 535 -24 L535 -24 Z " />
<glyph glyph-name="one" unicode="1" horiz-adv-x="1334" d="M1112 264 L765 264 L975 1457 L659 1457 L230 1236 L324 1006 L605 1151 L448 264 L101 264 L54 -1 L1065 -1 L1112 264 Z " />
<glyph glyph-name="two" unicode="2" horiz-adv-x="1336" d="M1080 -1 L1127 264 L574 264 L1068 684 C1209 797 1279 935 1279 1098 C1279 1207 1236 1298 1151 1371 C1065 1444 946 1480 795 1480 C549 1480 350 1390 197 1210 L371 1031 C463 1149 575 1208 706 1208 C779 1208 836 1191 877 1158 C917 1125 937 1085 937 1040 C937 973 911 918 859 873 L53 197 L18 -1 L1080 -1 Z " />
<glyph glyph-name="three" unicode="3" horiz-adv-x="1335" d="M521 -23 C699 -23 854 26 986 125 C1118 223 1184 339 1185 474 C1185 518 1171 566 1143 617 C1114 668 1069 705 1008 728 C1167 809 1246 941 1246 1122 C1246 1222 1208 1307 1131 1376 C1054 1445 939 1480 788 1480 C556 1480 365 1390 216 1209 L389 1028 C478 1148 588 1208 720 1208 C865 1208 925 1148 925 1067 C925 997 899 944 848 909 C797 873 735 855 662 855 L541 855 L496 602 L617 602 C705 602 769 586 808 555 C847 524 866 488 866 449 C866 389 837 341 779 304 C721 267 644 249 548 249 C403 249 305 309 253 428 L16 248 C107 67 276 -23 521 -23 L521 -23 Z " />
<glyph glyph-name="four" unicode="4" horiz-adv-x="1336" d="M952 -1 L990 214 L1174 214 L1221 479 L1037 479 L1086 757 L770 757 L721 479 L421 479 L1186 1457 L793 1457 L21 454 L-21 214 L674 214 L636 -1 L952 -1 Z " />
<glyph glyph-name="five" unicode="5" horiz-adv-x="1335" d="M524 -24 C690 -24 844 27 986 128 C1127 229 1198 375 1198 565 C1198 674 1155 767 1070 845 C985 922 867 961 717 961 L579 961 L620 1192 L1203 1192 L1250 1457 L351 1457 L215 689 L650 689 C723 689 779 671 818 636 C857 600 877 558 877 509 C877 424 841 359 769 315 C696 270 624 248 551 248 C412 248 312 310 253 433 L16 253 C122 68 291 -24 524 -24 L524 -24 Z " />
<glyph glyph-name="six" unicode="6" horiz-adv-x="1334" d="M583 249 C510 249 454 267 414 303 C374 338 354 381 354 430 C354 503 384 565 443 615 C502 664 574 689 661 689 C734 689 790 671 829 636 C868 601 888 559 888 510 C888 435 859 373 800 324 C741 274 669 249 583 249 L583 249 Z M535 -24 C700 -24 853 26 996 127 C1138 227 1209 374 1209 567 C1209 676 1167 769 1082 846 C997 923 892 962 768 962 C726 962 683 948 638 921 L1083 1457 L708 1458 L203 811 C90 670 34 526 34 380 C34 267 80 172 171 94 C262 15 384 -24 535 -24 L535 -24 Z " />
<glyph glyph-name="seven" unicode="7" horiz-adv-x="1334" d="M469 -1 L1284 1214 L1327 1457 L264 1457 L217 1192 L913 1192 L97 -1 L469 -1 Z " />
<glyph glyph-name="eight" unicode="8" horiz-adv-x="1335" d="M581 241 C504 241 449 259 415 296 C381 333 364 373 364 416 C364 487 393 546 452 592 C511 637 578 660 655 660 C732 660 787 642 821 605 C855 568 872 529 872 486 C872 414 843 355 784 310 C725 264 658 241 581 241 L581 241 Z M701 922 C645 922 604 935 577 961 C550 987 536 1015 536 1046 C536 1095 558 1136 603 1168 C647 1199 697 1215 753 1215 C809 1215 851 1202 878 1176 C905 1150 918 1122 918 1092 C918 1042 896 1001 852 970 C807 938 757 922 701 922 L701 922 Z M534 -24 C720 -24 876 27 1001 130 C1126 233 1189 358 1189 506 C1189 620 1134 715 1025 792 C1168 883 1239 998 1239 1139 C1239 1225 1203 1303 1132 1374 C1060 1445 949 1480 800 1480 C637 1480 500 1434 388 1342 C275 1250 219 1141 218 1015 C218 929 256 855 332 792 C139 684 42 540 42 360 C42 264 81 176 159 96 C236 16 361 -24 534 -24 L534 -24 Z " />
<glyph glyph-name="nine" unicode="9" horiz-adv-x="1335" d="M672 767 C599 767 543 785 504 821 C465 856 445 898 445 946 C445 1021 474 1083 533 1133 C592 1183 664 1208 750 1208 C823 1208 879 1190 919 1154 C959 1118 979 1075 979 1026 C978 960 950 900 895 847 C840 794 765 767 672 767 L672 767 Z M625 -2 L1130 645 C1243 787 1299 931 1299 1076 C1299 1189 1253 1284 1162 1363 C1071 1441 949 1480 798 1480 C627 1480 472 1427 333 1320 C194 1213 124 1069 124 889 C124 780 167 688 252 611 C337 534 441 495 565 495 C607 495 650 508 695 535 L250 -1 L625 -2 Z " />
<glyph glyph-name="colon" unicode="&#x3a;" horiz-adv-x="561" d="M148 -24 C200 -24 250 -4 299 38 C347 79 371 131 371 195 C371 232 358 266 331 298 C304 329 265 345 213 345 C162 345 112 325 63 284 C14 243 -10 191 -10 128 C-10 91 3 57 30 25 C57 -8 96 -24 148 -24 L148 -24 Z M280 723 C332 723 382 743 431 784 C479 825 503 877 503 940 C503 977 490 1012 463 1044 C436 1076 396 1092 345 1092 C293 1092 243 1072 195 1031 C146 990 122 938 122 873 C122 836 135 802 162 771 C189 739 228 723 280 723 L280 723 Z " />
<glyph glyph-name="&amp;#x3b;" unicode="&#x3b;" horiz-adv-x="562" d="M277 723 C329 723 379 743 428 784 C476 824 500 876 500 940 C500 977 487 1012 460 1044 C433 1076 394 1092 342 1092 C291 1092 241 1072 192 1031 C143 990 119 938 119 874 C119 837 132 803 159 771 C186 739 225 723 277 723 L277 723 Z M-108 -354 C-5 -293 100 -215 208 -119 C316 -23 370 82 370 195 C370 284 311 345 211 345 C163 345 117 326 72 289 C27 252 5 204 5 146 C5 110 14 79 32 52 C49 25 58 4 58 -11 C58 -30 44 -58 17 -97 C-10 -136 -71 -194 -165 -272 L-108 -354 Z " />
<glyph glyph-name="&amp;#x37e;" unicode="&#x37e;" horiz-adv-x="562" d="M277 723 C329 723 379 743 428 784 C476 824 500 876 500 940 C500 977 487 1012 460 1044 C433 1076 394 1092 342 1092 C291 1092 241 1072 192 1031 C143 990 119 938 119 874 C119 837 132 803 159 771 C186 739 225 723 277 723 L277 723 Z M-108 -354 C-5 -293 100 -215 208 -119 C316 -23 370 82 370 195 C370 284 311 345 211 345 C163 345 117 326 72 289 C27 252 5 204 5 146 C5 110 14 79 32 52 C49 25 58 4 58 -11 C58 -30 44 -58 17 -97 C-10 -136 -71 -194 -165 -272 L-108 -354 Z " />
<glyph glyph-name="less" unicode="&#x3c;" horiz-adv-x="1334" d="M1093 512 L533 728 L1169 945 L1211 1182 L220 828 L185 628 L1051 275 L1093 512 Z " />
<glyph glyph-name="equal" unicode="&#x3d;" horiz-adv-x="1334" d="M1148 822 L1187 1045 L259 1045 L220 822 L1148 822 Z M1075 412 L1115 635 L187 635 L147 412 L1075 412 Z " />
<glyph glyph-name="greater" unicode="&#x3e;" horiz-adv-x="1334" d="M1113 628 L1148 828 L283 1182 L241 945 L801 728 L165 512 L123 275 L1113 628 Z " />
<glyph glyph-name="question" unicode="&#x3f;" horiz-adv-x="1200" d="M664 467 L699 657 C860 680 986 730 1078 807 C1170 884 1217 986 1218 1113 C1218 1217 1175 1304 1088 1375 C1001 1445 882 1480 731 1480 C485 1480 284 1390 128 1209 L301 1028 C396 1148 517 1208 662 1208 C807 1208 898 1148 898 1061 C897 954 816 887 655 859 C550 841 489 784 473 687 L442 467 L664 467 Z M466 -24 C414 -24 375 -8 348 25 C321 57 308 91 308 128 C308 191 332 243 381 284 C430 325 480 345 531 345 C583 345 622 329 649 298 C676 266 689 232 689 195 C689 131 665 79 617 38 C568 -4 518 -24 466 -24 L466 -24 Z " />
<glyph glyph-name="at" unicode="&#x40;" horiz-adv-x="1676" d="M829 579 C760 579 710 631 710 700 C710 746 728 787 763 824 C798 860 839 878 884 878 C955 878 1003 828 1004 757 C1008 689 931 579 829 579 L829 579 Z M875 -24 C1178 -24 1412 118 1577 401 L1334 401 C1214 245 1061 167 875 167 C721 167 589 222 480 332 C371 441 316 573 316 728 C316 883 371 1015 480 1124 C589 1233 721 1288 875 1288 C1030 1288 1152 1245 1241 1158 C1330 1071 1374 968 1374 848 C1374 773 1336 573 1213 579 C1177 579 1160 615 1160 659 C1160 665 1167 709 1181 790 L1222 1023 L1044 1023 L1033 965 C988 1012 937 1035 878 1035 C784 1035 702 998 633 923 C564 848 529 765 529 673 C529 601 552 541 597 494 C642 446 700 422 772 422 C869 422 974 471 1045 532 C1045 465 1101 431 1213 430 C1350 430 1445 479 1499 578 C1552 676 1579 766 1579 848 C1579 1021 1515 1170 1386 1294 C1257 1417 1086 1479 875 1479 C664 1479 485 1406 336 1259 C187 1112 112 935 112 728 C112 520 187 343 336 196 C485 49 664 -24 875 -24 L875 -24 Z " />
<glyph glyph-name="A" unicode="A" horiz-adv-x="1550" d="M1359 -1 L1010 1458 L798 1458 L-65 -1 L314 -1 L492 337 L960 337 L1018 -1 L1359 -1 Z M918 574 L616 574 L845 1016 L918 574 Z " />
<glyph glyph-name="B" unicode="B" horiz-adv-x="1431" d="M752 848 L517 848 L578 1197 L813 1197 C862 1197 898 1181 923 1149 C948 1116 960 1082 960 1047 C960 988 937 941 892 904 C847 867 800 848 752 848 L752 848 Z M782 258 L413 258 L474 607 L841 607 C887 607 922 592 947 563 C971 534 983 503 983 471 C983 422 963 375 922 328 C881 281 835 258 782 258 L782 258 Z M726 -2 C873 -2 1003 46 1118 142 C1233 238 1290 352 1290 484 C1290 538 1273 594 1239 653 C1205 712 1155 754 1090 780 C1215 848 1278 955 1278 1101 C1278 1190 1242 1272 1170 1346 C1097 1420 994 1457 859 1457 L314 1457 L57 -2 L726 -2 Z " />
<glyph glyph-name="C" unicode="C" horiz-adv-x="1457" d="M738 -24 C949 -24 1143 49 1318 194 L1144 392 C1036 301 917 256 787 256 C656 256 560 296 498 377 C435 458 404 544 404 635 C406 786 461 917 568 1030 C675 1143 803 1199 954 1199 C1083 1199 1186 1154 1262 1063 L1506 1261 C1382 1407 1214 1480 1003 1480 C732 1480 511 1387 339 1200 C166 1013 80 809 80 588 C80 439 134 300 241 171 C348 41 514 -24 738 -24 L738 -24 Z " />
<glyph glyph-name="D" unicode="D" horiz-adv-x="1574" d="M622 258 L412 258 L578 1197 L787 1197 C916 1197 1013 1157 1080 1076 C1146 995 1179 908 1179 815 C1178 667 1119 537 1001 426 C883 314 757 258 622 258 L622 258 Z M576 -2 C803 -2 1013 81 1204 247 C1395 413 1491 616 1493 856 C1493 1003 1437 1140 1324 1267 C1211 1394 1048 1457 833 1457 L314 1457 L57 -2 L576 -2 Z " />
<glyph glyph-name="E" unicode="E" horiz-adv-x="1294" d="M1072 -2 L1118 258 L412 258 L473 607 L1060 607 L1102 848 L516 848 L578 1197 L1284 1197 L1330 1457 L313 1457 L56 -2 L1072 -2 Z " />
<glyph glyph-name="F" unicode="F" horiz-adv-x="1274" d="M366 -2 L474 607 L1060 607 L1102 848 L516 848 L578 1197 L1284 1197 L1330 1457 L314 1457 L56 -2 L366 -2 Z " />
<glyph glyph-name="G" unicode="G" horiz-adv-x="1592" d="M728 -24 C887 -24 1040 15 1185 93 L1269 -1 L1318 -1 L1445 723 L1136 723 L1064 318 C973 277 878 256 778 256 C647 256 551 297 488 378 C425 459 394 544 394 635 C396 794 452 928 563 1037 C673 1146 800 1200 944 1200 C1073 1200 1176 1154 1252 1063 L1496 1261 C1372 1407 1204 1480 993 1480 C749 1480 536 1392 354 1215 C171 1038 80 828 80 586 C80 439 132 300 236 171 C340 41 504 -24 728 -24 L728 -24 Z " />
<glyph glyph-name="H" unicode="H" horiz-adv-x="1614" d="M1301 -2 L1559 1457 L1249 1457 L1141 848 L516 848 L624 1457 L314 1457 L56 -2 L366 -2 L474 607 L1099 607 L991 -2 L1301 -2 Z " />
<glyph glyph-name="I" unicode="I" horiz-adv-x="680" d="M366 -2 L623 1457 L313 1457 L56 -2 L366 -2 Z " />
<glyph glyph-name="J" unicode="J" horiz-adv-x="1355" d="M477 -24 C639 -24 782 27 906 128 C1029 229 1104 355 1131 506 L1299 1457 L989 1457 L817 485 C806 418 771 364 712 321 C653 278 591 256 526 256 C392 256 275 316 174 435 L-44 224 C65 59 239 -24 477 -24 L477 -24 Z " />
<glyph glyph-name="K" unicode="K" horiz-adv-x="1538" d="M366 -2 L449 467 L612 607 L1009 -1 L1394 -1 L850 804 L1630 1458 L1192 1458 L512 829 L623 1458 L313 1458 L56 -2 L366 -2 Z " />
<glyph glyph-name="L" unicode="L" horiz-adv-x="1209" d="M1114 258 L413 258 L624 1457 L314 1457 L57 -2 L1069 -2 L1114 258 Z " />
<glyph glyph-name="M" unicode="M" horiz-adv-x="1884" d="M1571 -2 L1828 1457 L1586 1457 L933 676 L555 1457 L313 1457 L56 -2 L363 -2 L527 925 L787 328 L956 328 L1427 925 L1264 -2 L1571 -2 Z " />
<glyph glyph-name="N" unicode="N" horiz-adv-x="1669" d="M1356 -2 L1613 1457 L1306 1457 L1135 485 L556 1457 L313 1457 L56 -2 L363 -2 L534 970 L1113 -2 L1356 -2 Z " />
<glyph glyph-name="O" unicode="O" horiz-adv-x="1738" d="M785 254 C656 254 559 295 494 377 C428 458 395 545 395 638 C395 795 452 929 567 1038 C682 1147 810 1202 952 1202 C1081 1202 1178 1161 1244 1080 C1310 998 1343 911 1343 818 C1342 667 1285 536 1170 423 C1055 310 927 254 785 254 L785 254 Z M736 -24 C964 -24 1174 61 1367 232 C1559 402 1656 613 1657 864 C1657 1014 1601 1154 1490 1285 C1379 1415 1216 1480 1001 1480 C767 1480 556 1395 368 1225 C179 1054 84 843 81 592 C81 442 137 302 248 172 C359 41 522 -24 736 -24 L736 -24 Z " />
<glyph glyph-name="P" unicode="P" horiz-adv-x="1440" d="M502 766 L578 1197 L892 1197 C1013 1197 1088 1125 1088 1028 C1087 946 1058 882 1002 836 C945 789 883 766 816 766 L502 766 Z M456 506 L790 506 C948 506 1089 559 1213 665 C1337 770 1399 907 1399 1074 C1399 1175 1360 1264 1283 1341 C1206 1418 1097 1457 958 1457 L314 1457 L56 -2 L366 -2 L456 506 Z " />
<glyph glyph-name="Q" unicode="Q" horiz-adv-x="1738" d="M785 254 C656 254 559 295 494 376 C428 457 395 545 395 638 C395 795 454 929 572 1038 C690 1147 817 1201 953 1201 C1082 1201 1179 1160 1245 1079 C1310 998 1343 911 1343 818 C1342 660 1283 527 1166 418 C1048 309 921 254 785 254 L785 254 Z M951 -429 C1003 -429 1061 -424 1125 -414 L1167 -180 C1129 -190 1088 -195 1045 -195 C936 -195 881 -145 881 -73 C881 -62 884 -39 891 -5 C1092 31 1270 128 1425 286 C1580 444 1657 636 1657 863 C1657 1013 1601 1153 1490 1284 C1379 1414 1216 1479 1002 1479 C761 1479 547 1391 362 1214 C176 1037 82 830 81 593 C81 466 122 343 204 226 C285 108 414 31 589 -5 C581 -48 577 -88 577 -124 C577 -213 605 -287 662 -344 C718 -401 814 -429 951 -429 L951 -429 Z " />
<glyph glyph-name="R" unicode="R" horiz-adv-x="1473" d="M816 766 L502 766 L578 1197 L892 1197 C953 1197 1001 1181 1036 1149 C1071 1117 1089 1077 1089 1029 C1089 946 1060 882 1003 836 C946 789 883 766 816 766 L816 766 Z M1345 -2 L995 555 C1264 655 1399 828 1399 1074 C1399 1175 1360 1264 1283 1341 C1206 1418 1097 1457 958 1457 L314 1457 L57 -2 L367 -2 L456 506 L685 506 L1003 -2 L1345 -2 Z " />
<glyph glyph-name="S" unicode="S" horiz-adv-x="1353" d="M547 -30 C718 -30 876 17 1019 111 C1162 204 1234 327 1234 478 C1234 625 1146 725 970 780 L595 902 C540 919 512 951 512 1000 C512 1063 541 1111 598 1146 C655 1180 714 1197 774 1197 C918 1197 1016 1150 1069 1055 L1323 1241 C1223 1395 1053 1472 812 1472 C656 1472 509 1426 370 1333 C231 1240 162 1116 162 961 C162 898 181 841 218 789 C255 737 316 700 401 679 L734 575 C835 544 885 499 885 442 C885 392 857 348 802 311 C747 274 679 255 598 255 C524 255 451 273 380 310 C309 347 257 396 225 457 L-16 257 C29 166 104 96 210 46 C315 -5 428 -30 547 -30 L547 -30 Z " />
<glyph glyph-name="T" unicode="T" horiz-adv-x="1222" d="M637 -2 L849 1198 L1293 1198 L1339 1457 L141 1457 L95 1198 L539 1198 L327 -2 L637 -2 Z " />
<glyph glyph-name="U" unicode="U" horiz-adv-x="1567" d="M651 -24 C827 -24 979 20 1106 108 C1233 196 1307 305 1330 434 L1511 1458 L1201 1458 L1030 485 C1016 406 975 346 908 307 C840 268 770 248 699 248 C615 248 552 267 511 306 C469 344 448 389 448 441 C448 444 451 466 458 506 L623 1458 L314 1458 L134 434 C129 410 127 387 127 364 C127 271 167 184 248 101 C328 18 462 -24 651 -24 L651 -24 Z " />
<glyph glyph-name="V" unicode="V" horiz-adv-x="1550" d="M772 -1 L1616 1458 L1234 1458 L709 451 L530 1458 L191 1458 L520 -1 L772 -1 Z " />
<glyph glyph-name="W" unicode="W" horiz-adv-x="2134" d="M1511 -1 L2251 1458 L1861 1458 L1440 453 L1280 1458 L1052 1458 L579 453 L471 1458 L141 1458 L367 -1 L600 -1 L1109 963 L1278 -1 L1511 -1 Z " />
<glyph glyph-name="X" unicode="X" horiz-adv-x="1514" d="M1337 -2 L946 728 L1594 1457 L1178 1457 L782 982 L553 1457 L177 1457 L568 728 L-80 -2 L335 -2 L732 472 L961 -2 L1337 -2 Z " />
<glyph glyph-name="Y" unicode="Y" horiz-adv-x="1493" d="M773 -2 L892 674 L1584 1457 L1168 1457 L772 981 L542 1457 L167 1457 L582 675 L463 -2 L773 -2 Z " />
<glyph glyph-name="Z" unicode="Z" horiz-adv-x="1300" d="M1079 -2 L1125 258 L449 258 L1307 1291 L1336 1457 L221 1457 L175 1197 L851 1197 L-7 164 L-36 -2 L1079 -2 Z " />
<glyph glyph-name="bracketleft" unicode="&#x5b;" horiz-adv-x="573" d="M381 -405 L416 -204 L222 -204 L480 1256 L674 1256 L709 1458 L275 1458 L-54 -405 L381 -405 Z " />
<glyph glyph-name="backslash" unicode="&#x5c;" horiz-adv-x="743" d="M561 -24 L417 1480 L182 1480 L326 -24 L561 -24 Z " />
<glyph glyph-name="bracketright" unicode="&#x5d;" horiz-adv-x="572" d="M226 -405 L555 1458 L120 1458 L85 1256 L279 1256 L22 -204 L-173 -204 L-208 -405 L226 -405 Z " />
<glyph glyph-name="asciicircum" unicode="&#x5e;" horiz-adv-x="1334" d="M1253 728 L934 1458 L657 1458 L81 728 L372 728 L768 1223 L990 728 L1253 728 Z " />
<glyph glyph-name="underscore" unicode="&#x5f;" horiz-adv-x="1333" d="M1187 -405 L1222 -207 L-218 -207 L-253 -405 L1187 -405 Z " />
<glyph glyph-name="grave" unicode="&#x60;" horiz-adv-x="999" d="M894 1194 L636 1501 L318 1501 L685 1194 L894 1194 Z " />
<glyph glyph-name="a" unicode="a" horiz-adv-x="1227" d="M454 203 C373 203 312 227 312 282 C312 315 325 344 352 369 C379 393 424 405 489 405 L727 405 L716 341 C711 311 683 281 632 250 C581 219 522 203 454 203 L454 203 Z M344 -22 C479 -22 599 28 702 127 L679 -3 L953 -3 L1077 698 C1082 730 1085 760 1085 787 C1085 990 931 1092 623 1092 C468 1092 320 1032 178 913 L333 728 C424 798 510 833 589 833 C643 833 688 822 724 800 C759 777 777 748 777 711 C777 702 773 673 764 622 L514 622 C373 622 253 587 155 518 C57 448 8 356 8 242 C8 170 38 108 98 56 C157 4 239 -22 344 -22 L344 -22 Z " />
<glyph glyph-name="b" unicode="b" horiz-adv-x="1412" d="M638 236 C557 236 495 262 454 313 C412 364 391 419 391 478 C392 571 427 654 497 726 C566 797 648 833 743 833 C824 833 886 807 928 756 C970 704 991 648 991 589 C991 497 954 415 881 344 C807 272 726 236 638 236 L638 236 Z M651 -23 C815 -23 964 41 1098 170 C1231 299 1298 456 1298 641 C1298 750 1261 852 1186 948 C1111 1044 999 1092 848 1092 C728 1092 605 1030 479 906 L577 1458 L275 1458 L18 0 L302 0 L333 176 C417 43 523 -23 651 -23 L651 -23 Z " />
<glyph glyph-name="c" unicode="c" horiz-adv-x="1137" d="M559 -23 C710 -23 850 26 981 123 L839 324 C777 265 702 235 614 235 C529 235 464 259 421 308 C378 356 356 411 356 473 C356 576 392 662 464 731 C535 799 620 833 719 833 C807 833 872 803 913 744 L1126 945 C1030 1042 907 1091 756 1091 C561 1091 394 1028 255 901 C115 774 45 614 45 421 C45 302 89 198 177 110 C264 21 392 -23 559 -23 L559 -23 Z " />
<glyph glyph-name="d" unicode="d" horiz-adv-x="1411" d="M599 236 C518 236 456 262 415 313 C373 364 352 419 352 478 C352 583 390 669 467 735 C544 800 623 833 704 833 C785 833 847 807 889 756 C930 705 951 650 951 591 C951 486 913 400 836 335 C759 269 680 236 599 236 L599 236 Z M494 -23 C623 -23 752 43 883 176 L852 0 L1136 0 L1393 1458 L1091 1458 L994 906 C912 1030 811 1092 691 1092 C520 1092 370 1026 240 894 C110 761 45 605 45 425 C45 317 82 215 157 120 C232 25 344 -23 494 -23 L494 -23 Z " />
<glyph glyph-name="e" unicode="e" horiz-adv-x="1242" d="M378 646 C393 701 427 751 481 795 C534 839 598 861 672 861 C746 861 800 841 833 801 C866 760 882 717 882 670 L881 646 L378 646 Z M553 -23 C704 -23 852 26 997 125 L854 321 C781 261 695 231 598 231 C521 231 459 252 413 294 C366 336 343 381 343 430 L343 434 L1130 434 C1156 503 1169 574 1169 649 C1169 756 1134 856 1063 950 C992 1044 876 1091 713 1091 C538 1091 383 1027 249 899 C114 771 47 617 46 436 C46 319 89 214 176 119 C263 24 388 -23 553 -23 L553 -23 Z " />
<glyph glyph-name="f" unicode="f" horiz-adv-x="887" d="M401 -1 L548 833 L855 833 L896 1069 L590 1069 L596 1107 C611 1191 670 1235 807 1235 C850 1235 889 1230 923 1220 L966 1465 C905 1475 848 1480 797 1480 C667 1480 557 1450 466 1391 C375 1332 315 1224 288 1069 L84 1069 L43 833 L246 833 L99 -1 L401 -1 Z " />
<glyph glyph-name="g" unicode="g" horiz-adv-x="1411" d="M478 -427 C634 -427 778 -381 910 -288 C1041 -195 1120 -77 1145 66 L1325 1069 L1041 1069 L1010 893 C926 1025 820 1091 692 1091 C528 1091 380 1028 247 903 C114 778 48 622 47 437 C47 330 84 233 159 145 C234 56 346 12 497 12 C633 12 755 71 864 188 L842 66 C831 -1 791 -54 722 -95 C653 -135 583 -155 512 -155 C365 -155 263 -121 204 -52 L37 -254 C141 -369 288 -427 478 -427 L478 -427 Z M601 245 C520 245 458 271 417 322 C375 373 354 428 354 487 C355 588 392 672 465 741 C538 809 619 843 707 843 C788 843 850 817 892 766 C933 715 954 660 954 601 C953 500 914 416 838 348 C761 279 682 245 601 245 L601 245 Z " />
<glyph glyph-name="h" unicode="h" horiz-adv-x="1374" d="M1213 647 C1218 679 1221 710 1221 739 C1221 831 1191 913 1132 985 C1072 1056 975 1092 842 1092 C711 1092 591 1034 481 918 L576 1457 L274 1457 L17 -1 L319 -1 L424 591 C436 661 470 721 526 772 C582 822 648 847 724 847 C851 847 912 779 912 682 C912 663 910 643 907 622 L797 -1 L1099 -1 L1213 647 Z " />
<glyph glyph-name="i" unicode="i" horiz-adv-x="596" d="M377 1175 C428 1175 478 1195 526 1236 C574 1276 598 1328 598 1393 C598 1429 585 1463 559 1495 C532 1526 493 1542 441 1542 C390 1542 340 1522 292 1481 C243 1440 219 1388 219 1325 C219 1288 232 1254 259 1223 C286 1191 325 1175 377 1175 L377 1175 Z M320 -1 L509 1069 L207 1069 L18 -1 L320 -1 Z " />
<glyph glyph-name="j" unicode="j" horiz-adv-x="632" d="M395 1175 C446 1175 496 1195 545 1235 C593 1275 617 1327 617 1391 C617 1428 604 1462 577 1494 C550 1526 511 1542 460 1542 C408 1542 358 1522 310 1481 C262 1440 238 1388 238 1324 C238 1287 251 1253 278 1222 C305 1191 344 1175 395 1175 L395 1175 Z M-174 -427 C-43 -427 68 -395 160 -331 C252 -266 309 -169 332 -39 L527 1069 L225 1069 L30 -39 C14 -134 -64 -192 -185 -193 C-222 -193 -260 -188 -301 -178 L-342 -412 C-281 -422 -225 -427 -174 -427 L-174 -427 Z " />
<glyph glyph-name="k" unicode="k" horiz-adv-x="1296" d="M1175 -1 L771 596 L1335 1069 L907 1069 L422 583 L576 1457 L274 1457 L17 -1 L319 -1 L364 255 L538 401 L800 -1 L1175 -1 Z " />
<glyph glyph-name="l" unicode="l" horiz-adv-x="627" d="M336 -1 L593 1457 L291 1457 L34 -1 L336 -1 Z " />
<glyph glyph-name="m" unicode="m" horiz-adv-x="1927" d="M1769 660 C1775 692 1778 723 1778 753 C1778 833 1753 909 1702 981 C1651 1052 1569 1089 1455 1092 C1303 1092 1178 1030 1081 905 C1031 1030 938 1092 801 1092 C694 1092 589 1032 487 913 L514 1069 L230 1069 L42 -1 L344 -1 L455 630 C466 691 493 740 536 777 C579 814 628 833 682 833 C769 833 820 785 820 709 C820 704 816 678 808 630 L699 -1 L1001 -1 L1113 634 C1122 689 1148 736 1189 775 C1230 814 1279 833 1335 833 C1424 833 1472 783 1472 710 C1472 706 1468 682 1461 639 L1351 -1 L1653 -1 L1769 660 Z " />
<glyph glyph-name="n" unicode="n" horiz-adv-x="1398" d="M1235 632 C1241 669 1244 703 1244 735 C1244 829 1216 912 1159 984 C1102 1056 1007 1092 876 1092 C733 1092 603 1027 484 897 L514 1069 L230 1069 L41 -1 L343 -1 L449 596 C465 689 501 751 557 784 C613 817 676 833 745 833 C872 833 936 761 936 669 C936 664 932 640 925 597 L821 -1 L1123 -1 L1235 632 Z " />
<glyph glyph-name="o" unicode="o" horiz-adv-x="1340" d="M583 236 C506 236 449 262 410 313 C371 364 352 418 352 475 C353 570 388 654 458 726 C528 797 605 833 689 833 C766 833 823 808 862 757 C901 706 920 651 920 594 C920 488 883 402 810 336 C736 269 660 236 583 236 L583 236 Z M538 -23 C705 -23 861 38 1007 160 C1152 282 1225 440 1226 633 C1226 745 1184 850 1101 947 C1017 1044 895 1092 734 1092 C561 1092 403 1028 260 899 C117 770 46 615 46 434 C46 322 88 218 172 122 C255 25 377 -23 538 -23 L538 -23 Z " />
<glyph glyph-name="p" unicode="p" horiz-adv-x="1411" d="M638 235 C557 235 495 261 454 312 C412 363 391 418 391 477 C391 571 428 654 501 726 C574 797 655 833 744 833 C825 833 887 807 929 756 C970 705 991 650 991 591 C991 490 954 406 881 338 C807 269 726 235 638 235 L638 235 Z M248 -405 L348 157 C430 37 531 -23 652 -23 C815 -23 964 41 1098 170 C1231 299 1298 456 1298 642 C1298 751 1261 853 1186 948 C1111 1043 999 1091 848 1091 C719 1091 590 1025 459 893 L490 1069 L206 1069 L-54 -405 L248 -405 Z " />
<glyph glyph-name="q" unicode="q" horiz-adv-x="1412" d="M599 235 C518 235 456 261 415 312 C373 363 352 418 352 477 C352 571 389 654 462 726 C535 797 616 833 704 833 C785 833 847 807 889 756 C930 705 951 650 951 591 C951 485 913 399 836 334 C759 268 680 235 599 235 L599 235 Z M1325 1069 L1041 1069 L1010 893 C926 1025 820 1091 691 1091 C520 1091 370 1025 240 893 C110 761 45 605 45 425 C45 317 82 215 157 120 C232 25 344 -23 494 -23 C614 -23 737 39 863 162 L763 -405 L1065 -405 L1325 1069 Z " />
<glyph glyph-name="r" unicode="r" horiz-adv-x="885" d="M430 621 C441 682 469 732 516 773 C563 814 613 834 668 834 C699 834 727 827 752 812 L915 1042 C881 1077 825 1094 746 1094 C639 1094 545 1034 463 915 L491 1071 L207 1071 L18 0 L320 0 L430 621 Z " />
<glyph glyph-name="s" unicode="s" horiz-adv-x="1098" d="M396 -26 C534 -26 658 6 767 70 C876 134 930 228 929 352 C929 459 866 535 739 580 L494 668 C448 685 425 710 425 743 C425 804 486 854 598 854 C701 854 790 823 865 762 L1025 968 C932 1049 800 1089 627 1089 C493 1089 370 1052 257 979 C144 906 87 811 87 694 C87 596 141 529 248 492 L531 390 C573 375 594 354 594 326 C594 258 525 217 417 217 C292 217 181 257 82 336 L-69 114 C23 21 178 -26 396 -26 L396 -26 Z " />
<glyph glyph-name="t" unicode="t" horiz-adv-x="886" d="M533 -23 C600 -23 658 -18 707 -8 L748 226 C704 216 664 211 627 211 C512 211 463 265 463 333 C463 343 492 512 550 839 L856 839 L898 1075 L591 1075 L647 1394 L327 1288 L289 1075 L85 1075 L44 839 L247 839 L164 365 C158 332 155 302 155 273 C155 188 185 118 246 62 C307 5 402 -23 533 -23 L533 -23 Z " />
<glyph glyph-name="u" unicode="u" horiz-adv-x="1388" d="M462 -24 C605 -24 730 41 835 171 L805 -2 L1089 -2 L1278 1069 L976 1069 L870 471 C857 402 827 346 779 301 C731 256 664 234 578 234 C511 234 463 250 435 282 C406 314 392 352 392 395 C392 400 397 429 406 482 L507 1069 L205 1069 L94 436 C89 401 86 367 86 336 C86 241 116 157 176 85 C235 12 331 -24 462 -24 L462 -24 Z " />
<glyph glyph-name="v" unicode="v" horiz-adv-x="1241" d="M640 -2 L1289 1069 L909 1069 L515 279 L400 1069 L72 1069 L343 -2 L640 -2 Z " />
<glyph glyph-name="w" unicode="w" horiz-adv-x="1766" d="M1237 -2 L1814 1069 L1421 1069 L1128 319 L1042 1069 L791 1069 L464 319 L396 1069 L72 1069 L276 -2 L574 -2 L868 635 L939 -2 L1237 -2 Z " />
<glyph glyph-name="x" unicode="x" horiz-adv-x="1192" d="M1051 -2 L783 544 L1240 1069 L839 1069 L577 717 L437 1069 L72 1069 L357 545 L-116 -2 L285 -2 L553 373 L687 -2 L1051 -2 Z " />
<glyph glyph-name="y" unicode="y" horiz-adv-x="1191" d="M72 -428 C269 -428 421 -336 528 -153 L1235 1069 L879 1069 L533 394 L432 1069 L93 1069 L343 47 L251 -104 C214 -163 168 -193 113 -193 C48 -193 -6 -188 -49 -179 L-90 -412 C-35 -423 19 -428 72 -428 L72 -428 Z " />
<glyph glyph-name="z" unicode="z" horiz-adv-x="1114" d="M898 -2 L939 234 L402 234 L1045 833 L1086 1069 L149 1069 L107 833 L644 833 L2 234 L-40 -2 L898 -2 Z " />
<glyph glyph-name="braceleft" unicode="&#x7b;" horiz-adv-x="573" d="M344 -405 L380 -204 L334 -204 C289 -204 265 -171 265 -139 C265 -138 266 -131 268 -119 L346 336 C349 353 350 364 350 367 C350 394 342 424 327 455 C312 486 289 510 258 526 C295 542 328 568 359 605 C389 641 407 678 414 717 L495 1176 C503 1220 546 1256 591 1256 L637 1256 L673 1458 L591 1458 C512 1458 440 1430 375 1375 C309 1320 269 1253 255 1176 L174 717 C169 687 151 664 121 647 C91 630 62 620 33 617 L1 435 C56 430 108 396 108 351 C108 350 106 339 103 319 L26 -124 C23 -142 21 -159 21 -176 C21 -231 42 -283 83 -332 C124 -381 184 -405 263 -405 L344 -405 Z " />
<glyph glyph-name="bar" unicode="&#x7c;" horiz-adv-x="1334" d="M577 -427 L913 1480 L687 1480 L351 -427 L577 -427 Z " />
<glyph glyph-name="braceright" unicode="&#x7d;" horiz-adv-x="573" d="M158 1458 L122 1257 L168 1257 C213 1257 237 1224 237 1192 C237 1191 236 1184 234 1172 L156 717 C153 700 152 689 152 686 C152 659 160 629 175 598 C190 567 213 543 244 527 C207 511 174 485 144 449 C113 412 95 375 88 336 L7 -123 C-1 -167 -44 -203 -89 -203 L-135 -203 L-171 -405 L-89 -405 C-10 -405 62 -377 128 -322 C193 -267 233 -200 247 -123 L328 336 C333 366 351 390 381 407 C411 424 440 433 469 436 L501 618 C446 623 394 657 394 702 C394 703 396 714 399 734 L476 1177 C479 1195 481 1212 481 1229 C481 1284 461 1336 420 1385 C379 1434 318 1458 239 1458 L158 1458 Z " />
<glyph glyph-name="asciitilde" unicode="&#x7e;" horiz-adv-x="1335" d="M839 578 C972 578 1060 639 1101 762 L943 862 C926 818 889 776 830 776 C789 776 742 793 689 828 C635 862 568 879 487 879 C354 879 268 816 230 690 L383 595 C400 639 439 680 496 680 C537 680 584 663 637 629 C690 595 758 578 839 578 L839 578 Z " />
<glyph glyph-name="exclamdown" unicode="&#xa1;" horiz-adv-x="853" d="M355 587 L129 -426 L445 -426 L577 587 L355 587 Z M552 1078 C604 1078 643 1062 670 1030 C697 998 710 964 710 927 C710 863 686 811 638 770 C589 729 539 709 487 709 C436 709 397 725 370 757 C343 789 329 823 329 860 C329 923 353 976 402 1017 C450 1058 500 1078 552 1078 L552 1078 Z " />
<glyph glyph-name="cent" unicode="&#xa2;" horiz-adv-x="1334" d="M508 -7 C547 -18 588 -24 631 -24 C782 -24 922 25 1052 122 L905 314 C846 261 773 235 686 235 C607 235 546 259 503 308 C460 356 438 411 438 473 C438 570 472 654 541 725 C609 796 692 832 791 832 C879 832 943 806 982 753 L1197 945 C1140 1002 1071 1041 989 1064 L1088 1285 L852 1285 L763 1086 C590 1065 441 993 317 870 C193 747 131 601 131 431 C131 288 191 171 311 80 L178 -218 L413 -218 L508 -7 Z " />
<glyph glyph-name="sterling" unicode="&#xa3;" horiz-adv-x="1334" d="M1081 -1 L1123 235 L496 235 L563 610 L876 610 L915 830 L601 830 L634 1017 C655 1134 733 1200 844 1200 C903 1199 950 1186 985 1159 C1020 1132 1053 1092 1084 1040 L1297 1223 C1246 1306 1190 1370 1130 1414 C1069 1458 980 1480 861 1480 C724 1480 606 1435 507 1344 C408 1253 347 1144 325 1016 L292 830 L185 830 L146 610 L253 610 L187 235 L37 235 L-5 -1 L1081 -1 Z " />
<glyph glyph-name="currency" unicode="&#xa4;" horiz-adv-x="1333" d="M636 558 C589 558 553 573 528 602 C503 631 491 663 491 697 C491 755 513 803 558 841 C603 878 649 897 696 897 C743 897 780 882 805 853 C830 824 842 792 842 758 C842 699 820 651 775 614 C730 577 683 558 636 558 L636 558 Z M944 226 L1112 366 L963 545 C1023 625 1053 704 1054 783 C1054 826 1045 868 1028 911 L1240 1089 L1121 1229 L909 1051 C853 1086 794 1104 732 1104 C670 1104 605 1086 537 1051 L388 1229 L221 1089 L370 911 C310 832 280 752 280 672 C280 630 289 588 306 545 L93 366 L211 226 L423 404 C479 369 538 352 600 352 C662 352 727 369 795 404 L944 226 Z " />
<glyph glyph-name="yen" unicode="&#xa5;" horiz-adv-x="1333" d="M693 -2 L766 412 L1190 412 L1229 635 L805 635 L812 674 L943 822 L1262 822 L1301 1045 L1140 1045 L1504 1457 L1108 1457 L712 981 L482 1457 L87 1457 L306 1045 L143 1045 L104 822 L424 822 L502 675 L495 635 L71 635 L31 412 L456 412 L383 -2 L693 -2 Z " />
<glyph glyph-name="brokenbar" unicode="&#xa6;" horiz-adv-x="1335" d="M577 -427 L722 396 L496 396 L351 -427 L577 -427 Z M768 657 L913 1480 L687 1480 L542 657 L768 657 Z " />
<glyph glyph-name="section" unicode="&#xa7;" horiz-adv-x="1334" d="M456 -427 C609 -427 754 -381 891 -290 C1027 -199 1095 -75 1095 82 C1095 117 1090 149 1080 177 C1171 260 1216 363 1216 486 C1216 561 1194 619 1151 660 C1064 743 924 784 761 813 C661 830 579 853 515 881 C451 909 419 954 419 1015 C419 1097 458 1162 536 1211 C613 1259 694 1283 778 1283 C941 1283 1055 1228 1120 1119 L1305 1248 C1205 1402 1039 1479 806 1479 C653 1479 508 1433 371 1342 C234 1250 166 1126 166 971 C166 934 171 902 182 874 C91 791 46 689 46 567 C46 505 65 451 102 406 C139 360 194 324 268 299 C342 274 420 254 501 239 C601 222 683 199 747 171 C810 143 842 99 842 38 C842 -45 804 -111 727 -159 C650 -207 569 -231 484 -231 C321 -231 206 -176 141 -67 L-43 -196 C57 -350 223 -427 456 -427 L456 -427 Z M929 326 C866 357 769 385 640 410 C540 427 458 450 394 478 C330 505 298 550 298 612 C298 654 309 692 332 725 C400 692 497 665 622 642 C722 625 804 602 868 574 C931 546 963 502 963 441 C963 398 952 360 929 326 L929 326 Z " />
<glyph glyph-name="dieresis" unicode="&#xa8;" horiz-adv-x="999" d="M383 1219 C422 1219 459 1234 496 1265 C532 1295 550 1334 550 1383 C550 1410 540 1436 520 1461 C500 1485 471 1497 432 1497 C393 1497 355 1482 319 1451 C282 1420 264 1381 264 1333 C264 1305 274 1279 294 1255 C314 1231 344 1219 383 1219 L383 1219 Z M789 1219 C828 1219 866 1234 903 1265 C939 1295 957 1334 957 1383 C957 1410 947 1436 927 1461 C907 1485 877 1497 838 1497 C799 1497 762 1482 726 1451 C689 1420 671 1381 671 1333 C671 1305 681 1279 701 1255 C721 1231 750 1219 789 1219 L789 1219 Z " />
<glyph glyph-name="copyright" unicode="&#xa9;" horiz-adv-x="1892" d="M848 174 C691 174 572 222 491 318 C409 414 368 517 368 627 C368 800 436 953 573 1084 C710 1215 866 1281 1043 1281 C1200 1281 1320 1233 1401 1138 C1482 1042 1523 939 1523 829 C1522 662 1454 511 1318 376 C1182 241 1025 174 848 174 L848 174 Z M813 -25 C1054 -25 1268 64 1455 241 C1642 418 1735 625 1734 863 C1734 1014 1678 1154 1567 1284 C1456 1414 1293 1479 1078 1479 C837 1479 624 1391 438 1214 C251 1037 158 830 158 591 C158 441 214 301 325 171 C436 40 599 -25 813 -25 L813 -25 Z M898 376 C799 376 722 406 667 466 C612 526 585 592 585 664 C586 779 630 877 715 958 C800 1039 903 1079 1022 1079 C1109 1079 1182 1053 1241 1001 L1104 858 C1075 887 1038 901 991 901 C942 901 893 883 846 846 C798 809 774 759 774 696 C774 660 788 627 815 598 C842 569 880 554 929 554 C976 554 1019 568 1058 597 L1144 454 C1067 402 985 376 898 376 L898 376 Z " />
<glyph glyph-name="ordfeminine" unicode="&#xaa;" horiz-adv-x="824" d="M387 862 C338 862 296 887 296 926 C296 957 308 980 333 994 C357 1007 381 1014 406 1014 L571 1014 L561 953 C556 929 536 908 501 890 C466 871 428 862 387 862 L387 862 Z M312 720 C369 720 414 728 449 743 C484 758 518 781 551 813 L537 734 L733 734 L817 1212 C820 1233 822 1252 822 1271 C822 1336 795 1388 742 1425 C689 1462 618 1480 530 1480 C406 1480 295 1438 197 1354 L306 1226 C371 1275 429 1300 481 1300 C512 1300 540 1294 567 1281 C594 1268 607 1247 607 1220 C607 1215 604 1193 597 1156 L428 1156 C325 1156 242 1133 178 1088 C114 1043 82 978 82 895 C82 840 105 798 152 767 C199 736 252 720 312 720 L312 720 Z " />
<glyph glyph-name="guillemotleft" unicode="&#xab;" horiz-adv-x="1369" d="M621 79 L434 534 L782 989 L520 989 L173 534 L360 79 L621 79 Z M1074 79 L888 534 L1235 989 L974 989 L626 534 L813 79 L1074 79 Z " />
<glyph glyph-name="logicalnot" unicode="&#xac;" horiz-adv-x="1334" d="M1270 737 L68 737 L33 538 L1008 538 L972 331 L1198 331 L1270 737 Z " />
<glyph glyph-name="registered" unicode="&#xae;" horiz-adv-x="1891" d="M987 758 C1055 758 1094 809 1094 862 C1094 903 1068 923 1016 923 L914 923 L885 758 L987 758 L987 758 Z M1061 384 L935 626 L862 626 L819 384 L637 384 L758 1071 L1058 1071 C1199 1069 1270 1012 1270 899 C1270 783 1221 703 1123 659 L1276 384 L1061 384 Z M848 174 C691 174 572 222 491 318 C409 414 368 517 368 627 C368 800 436 953 573 1084 C710 1215 866 1281 1043 1281 C1200 1281 1320 1233 1401 1138 C1482 1042 1523 939 1523 829 C1522 662 1454 511 1318 376 C1182 241 1025 174 848 174 L848 174 Z M813 -25 C1054 -25 1268 65 1455 246 C1641 426 1734 632 1734 863 C1734 1014 1685 1146 1588 1259 C1463 1406 1293 1479 1078 1479 C837 1479 624 1391 438 1214 C251 1037 158 830 158 591 C158 441 206 309 303 196 C429 49 599 -25 813 -25 L813 -25 Z " />
<glyph glyph-name="overscore" unicode="&#xaf;" horiz-adv-x="1001" d="M918 1273 L948 1443 L306 1443 L276 1273 L918 1273 Z " />
<glyph glyph-name="degree" unicode="&#xb0;" horiz-adv-x="616" d="M362 1124 C306 1124 260 1171 260 1230 C260 1287 306 1335 362 1335 C418 1335 464 1287 464 1230 C464 1171 418 1124 362 1124 L362 1124 Z M362 979 C431 979 491 1004 540 1053 C589 1102 613 1161 613 1230 C613 1299 589 1358 540 1407 C491 1456 431 1480 362 1480 C293 1480 234 1456 185 1407 C136 1358 111 1299 111 1230 C111 1161 136 1102 185 1053 C234 1004 293 979 362 979 L362 979 Z " />
<glyph glyph-name="plusminus" unicode="&#xb1;" horiz-adv-x="1331" d="M770 676 L1111 676 L1146 875 L805 875 L866 1221 L640 1221 L579 875 L238 875 L203 676 L544 676 L483 330 L709 330 L770 676 Z M1027 198 L118 198 L83 -1 L992 -1 L1027 198 Z " />
<glyph glyph-name="uni00B2" unicode="&#xb2;" horiz-adv-x="709" d="M645 732 L683 945 L493 945 L607 1032 C697 1102 742 1182 742 1272 C742 1331 720 1382 676 1424 C632 1466 568 1487 485 1487 C354 1487 248 1439 166 1342 L306 1200 C341 1247 383 1270 432 1270 C464 1270 492 1254 492 1229 C492 1210 486 1195 473 1184 L98 888 L70 732 L645 732 Z " />
<glyph glyph-name="uni00B3" unicode="&#xb3;" horiz-adv-x="709" d="M345 720 C440 720 523 747 594 802 C664 857 699 920 699 992 C699 1027 681 1072 640 1104 C705 1152 737 1213 737 1287 C737 1345 714 1393 667 1431 C620 1468 558 1487 480 1487 C350 1487 245 1440 165 1347 L304 1205 C337 1248 379 1270 428 1270 C465 1270 483 1257 483 1230 C483 1194 459 1166 415 1166 L350 1166 L328 1042 L401 1042 C436 1042 454 1029 454 1002 C454 959 426 938 369 937 C320 937 286 959 268 1002 L79 861 C126 767 214 720 345 720 L345 720 Z " />
<glyph glyph-name="acute" unicode="&#xb4;" horiz-adv-x="999" d="M321 1194 L530 1194 L897 1501 L579 1501 L321 1194 Z " />
<glyph glyph-name="&amp;#xb5;" unicode="&#xb5;" horiz-adv-x="1364" d="M313 64 C345 5 397 -24 469 -24 C604 -24 726 34 833 151 L806 -1 L1090 -1 L1278 1069 L976 1069 L871 471 C843 318 734 235 579 235 C508 235 460 252 433 285 C406 318 393 354 393 393 C393 398 397 424 405 471 L508 1069 L206 1069 L-54 -405 L230 -405 L313 64 Z " />
<glyph glyph-name="&amp;#x3bc;" unicode="&#x3bc;" horiz-adv-x="1364" d="M313 64 C345 5 397 -24 469 -24 C604 -24 726 34 833 151 L806 -1 L1090 -1 L1278 1069 L976 1069 L871 471 C843 318 734 235 579 235 C508 235 460 252 433 285 C406 318 393 354 393 393 C393 398 397 424 405 471 L508 1069 L206 1069 L-54 -405 L230 -405 L313 64 Z " />
<glyph glyph-name="paragraph" unicode="&#xb6;" horiz-adv-x="1307" d="M1011 -426 L1347 1480 L607 1480 C482 1480 375 1435 287 1345 C198 1255 154 1152 153 1037 C153 962 180 892 235 827 C290 762 370 729 475 729 L271 -426 L497 -426 L799 1282 L1086 1282 L785 -426 L1011 -426 Z " />
<glyph glyph-name="&amp;#xb7;" unicode="&#xb7;" horiz-adv-x="667" d="M266 343 C318 343 368 363 416 404 C464 445 488 497 488 562 C488 598 475 632 448 664 C421 695 382 711 331 711 C279 711 229 691 181 650 C132 609 108 557 108 492 C108 456 121 422 148 391 C175 359 214 343 266 343 L266 343 Z " />
<glyph glyph-name="&amp;#x2219;" unicode="&#x2219;" horiz-adv-x="667" d="M266 343 C318 343 368 363 416 404 C464 445 488 497 488 562 C488 598 475 632 448 664 C421 695 382 711 331 711 C279 711 229 691 181 650 C132 609 108 557 108 492 C108 456 121 422 148 391 C175 359 214 343 266 343 L266 343 Z " />
<glyph glyph-name="cedilla" unicode="&#xb8;" horiz-adv-x="999" d="M261 -414 C336 -414 406 -398 473 -366 C539 -333 572 -280 572 -207 C572 -133 518 -94 410 -89 L486 -1 L332 -1 L251 -108 L236 -195 L294 -195 C339 -195 361 -208 361 -234 C361 -255 351 -270 332 -279 C312 -288 293 -292 275 -292 C227 -292 184 -280 147 -256 L66 -361 C109 -396 174 -414 261 -414 L261 -414 Z " />
<glyph glyph-name="uni00B9" unicode="&#xb9;" horiz-adv-x="707" d="M573 732 L704 1475 L474 1475 L245 1357 L320 1173 L413 1221 L327 732 L573 732 Z " />
<glyph glyph-name="ordmasculine" unicode="&#xba;" horiz-adv-x="934" d="M476 900 C424 900 385 917 360 952 C334 986 321 1022 321 1060 C321 1131 346 1188 395 1233 C444 1277 495 1299 546 1299 C597 1299 636 1282 662 1248 C687 1213 700 1177 700 1138 C700 1069 676 1013 627 968 C578 923 527 900 476 900 L476 900 Z M444 720 C560 720 667 764 766 851 C864 938 913 1044 913 1168 C913 1244 885 1315 828 1381 C771 1447 687 1480 578 1480 C455 1480 347 1436 252 1349 C157 1261 110 1155 109 1031 C109 955 138 884 195 819 C252 753 335 720 444 720 L444 720 Z " />
<glyph glyph-name="guillemotright" unicode="&#xbb;" horiz-adv-x="1369" d="M780 79 L1127 534 L941 989 L679 989 L866 534 L519 79 L780 79 Z M327 79 L674 534 L487 989 L226 989 L413 534 L66 79 L327 79 Z " />
<glyph glyph-name="onequarter" unicode="&#xbc;" horiz-adv-x="1758" d="M523 732 L654 1475 L424 1475 L194 1357 L270 1173 L363 1221 L276 732 L523 732 Z M453 -16 L1600 1487 L1297 1487 L150 -16 L453 -16 Z M1459 -1 L1473 82 L1562 82 L1594 265 L1505 265 L1522 356 L1300 356 L1284 265 L1175 265 L1548 743 L1284 743 L915 262 L883 82 L1252 82 L1237 -1 L1459 -1 Z " />
<glyph glyph-name="onehalf" unicode="&#xbd;" horiz-adv-x="1758" d="M1525 -1 L1562 212 L1373 212 L1487 299 C1576 368 1621 449 1621 541 C1621 600 1599 651 1555 692 C1511 733 1447 754 1364 754 C1233 754 1127 706 1045 609 L1185 468 C1220 515 1263 538 1312 538 C1343 538 1371 522 1371 497 C1371 476 1365 461 1353 452 L977 155 L949 -1 L1525 -1 Z M539 732 L670 1475 L440 1475 L211 1357 L286 1173 L379 1221 L293 732 L539 732 Z M466 -16 L1613 1487 L1309 1487 L162 -16 L466 -16 Z " />
<glyph glyph-name="threequarters" unicode="&#xbe;" horiz-adv-x="1759" d="M391 720 C261 720 172 767 125 861 L315 1002 C332 959 366 937 416 937 C473 937 501 958 501 1001 C501 1028 483 1041 447 1042 L375 1042 L396 1166 L462 1166 C503 1166 520 1206 520 1233 C520 1258 505 1270 475 1270 C432 1270 394 1248 361 1205 L221 1347 C301 1440 403 1487 527 1487 C604 1487 665 1468 708 1431 C751 1394 773 1347 773 1290 C773 1214 744 1152 686 1104 C729 1072 745 1027 745 994 C745 923 710 859 641 804 C572 748 488 720 391 720 L391 720 Z M435 -16 L1582 1487 L1279 1487 L132 -16 L435 -16 Z M1441 -1 L1455 82 L1544 82 L1576 265 L1488 265 L1504 356 L1282 356 L1266 265 L1158 265 L1530 743 L1266 743 L897 262 L865 82 L1234 82 L1219 -1 L1441 -1 Z " />
<glyph glyph-name="questiondown" unicode="&#xbf;" horiz-adv-x="1181" d="M517 587 L482 397 C321 374 195 325 103 248 C11 171 -36 68 -37 -59 C-37 -163 7 -250 94 -321 C181 -391 299 -426 450 -426 C696 -426 897 -336 1053 -155 L880 26 C785 -94 664 -154 519 -154 C374 -154 283 -94 283 -7 C284 100 365 167 526 195 C631 213 692 270 708 367 L739 587 L517 587 Z M715 1078 C767 1078 806 1062 833 1030 C860 997 873 963 873 926 C873 863 849 811 800 770 C751 729 701 709 650 709 C598 709 559 725 532 757 C505 788 492 822 492 859 C492 923 516 976 565 1017 C613 1058 663 1078 715 1078 L715 1078 Z " />
<glyph glyph-name="Agrave" unicode="&#xc0;" horiz-adv-x="1550" d="M1359 -1 L1010 1458 L798 1458 L-65 -1 L314 -1 L492 337 L960 337 L1018 -1 L1359 -1 Z M918 574 L616 574 L845 1016 L918 574 Z M1090 1593 L832 1900 L514 1900 L881 1593 L1090 1593 Z " />
<glyph glyph-name="Aacute" unicode="&#xc1;" horiz-adv-x="1550" d="M1359 -1 L1010 1458 L798 1458 L-65 -1 L314 -1 L492 337 L960 337 L1018 -1 L1359 -1 Z M918 574 L616 574 L845 1016 L918 574 Z M672 1593 L881 1593 L1248 1900 L930 1900 L672 1593 Z " />
<glyph glyph-name="Acircumflex" unicode="&#xc2;" horiz-adv-x="1550" d="M1359 -1 L1010 1458 L798 1458 L-65 -1 L314 -1 L492 337 L960 337 L1018 -1 L1359 -1 Z M918 574 L616 574 L845 1016 L918 574 Z M1293 1604 L1076 1911 L847 1911 L521 1604 L718 1604 L945 1770 L1112 1604 L1293 1604 Z " />
<glyph glyph-name="Atilde" unicode="&#xc3;" horiz-adv-x="1550" d="M1359 -1 L1010 1458 L798 1458 L-65 -1 L314 -1 L492 337 L960 337 L1018 -1 L1359 -1 Z M918 574 L616 574 L845 1016 L918 574 Z M1083 1621 C1193 1621 1270 1679 1315 1795 L1180 1872 C1159 1818 1123 1791 1074 1791 C1040 1791 995 1808 940 1843 C885 1877 832 1894 782 1894 C672 1894 596 1834 555 1714 L685 1642 C706 1696 742 1723 791 1723 C825 1723 870 1706 925 1672 C980 1638 1032 1621 1083 1621 L1083 1621 Z " />
<glyph glyph-name="Adieresis" unicode="&#xc4;" horiz-adv-x="1550" d="M1359 -1 L1010 1458 L798 1458 L-65 -1 L314 -1 L492 337 L960 337 L1018 -1 L1359 -1 Z M918 574 L616 574 L845 1016 L918 574 Z M706 1618 C745 1618 782 1633 819 1664 C855 1694 873 1733 873 1782 C873 1809 863 1835 843 1860 C823 1884 794 1896 755 1896 C716 1896 678 1881 642 1850 C605 1819 587 1780 587 1732 C587 1704 597 1678 617 1654 C637 1630 667 1618 706 1618 L706 1618 Z M1112 1618 C1151 1618 1189 1633 1226 1664 C1262 1694 1280 1733 1280 1782 C1280 1809 1270 1835 1250 1860 C1230 1884 1200 1896 1161 1896 C1122 1896 1085 1881 1049 1850 C1012 1819 994 1780 994 1732 C994 1704 1004 1678 1024 1654 C1044 1630 1073 1618 1112 1618 L1112 1618 Z " />
<glyph glyph-name="Aring" unicode="&#xc5;" horiz-adv-x="1550" d="M1359 -1 L1010 1458 L798 1458 L-65 -1 L314 -1 L492 337 L960 337 L1018 -1 L1359 -1 Z M918 574 L616 574 L845 1016 L918 574 Z M920 1643 C872 1643 848 1679 848 1712 C848 1741 859 1765 881 1784 C903 1802 926 1811 949 1811 C996 1811 1021 1777 1021 1742 C1021 1713 1010 1690 988 1671 C966 1652 943 1643 920 1643 L920 1643 Z M896 1510 C957 1510 1017 1534 1074 1582 C1131 1629 1159 1690 1159 1765 C1159 1809 1143 1850 1112 1888 C1080 1926 1034 1945 973 1945 C912 1945 852 1921 795 1873 C738 1824 709 1762 709 1687 C709 1644 725 1603 757 1566 C788 1529 835 1510 896 1510 L896 1510 Z " />
<glyph glyph-name="AE" unicode="&#xc6;" horiz-adv-x="2137" d="M1001 575 L611 575 L963 1198 L1111 1198 L1001 575 Z M1916 -1 L1961 259 L1255 259 L1317 608 L1903 608 L1945 849 L1359 849 L1421 1198 L2127 1198 L2173 1458 L867 1458 L-65 -1 L295 -1 L489 334 L959 334 L900 -1 L1916 -1 Z " />
<glyph glyph-name="Ccedilla" unicode="&#xc7;" horiz-adv-x="1533" d="M514 -414 C589 -414 659 -398 726 -366 C792 -333 825 -281 825 -208 C825 -133 771 -94 663 -89 L720 -24 L737 -24 C948 -24 1142 49 1317 194 L1143 392 C1036 301 917 256 787 256 C656 256 560 296 497 377 C434 458 403 544 403 635 C404 786 460 918 571 1031 C682 1143 809 1199 953 1199 C1083 1199 1186 1154 1261 1063 L1506 1261 C1382 1407 1214 1480 1003 1480 C772 1480 561 1395 369 1225 C176 1054 80 838 79 576 C79 437 118 319 197 224 C303 95 430 17 578 -10 L504 -108 L489 -195 L548 -195 C593 -195 615 -208 615 -235 C615 -256 605 -270 585 -279 C565 -288 546 -292 528 -292 C481 -292 438 -280 400 -256 L318 -361 C362 -396 427 -414 514 -414 L514 -414 Z " />
<glyph glyph-name="Egrave" unicode="&#xc8;" horiz-adv-x="1294" d="M1072 -2 L1118 258 L412 258 L473 607 L1060 607 L1102 848 L516 848 L578 1197 L1284 1197 L1330 1457 L313 1457 L56 -2 L1072 -2 Z M1030 1593 L772 1900 L454 1900 L821 1593 L1030 1593 Z " />
<glyph glyph-name="Eacute" unicode="&#xc9;" horiz-adv-x="1294" d="M1072 -2 L1118 258 L412 258 L473 607 L1060 607 L1102 848 L516 848 L578 1197 L1284 1197 L1330 1457 L313 1457 L56 -2 L1072 -2 Z M612 1593 L821 1593 L1188 1900 L870 1900 L612 1593 Z " />
<glyph glyph-name="Ecircumflex" unicode="&#xca;" horiz-adv-x="1294" d="M1072 -2 L1118 258 L412 258 L473 607 L1060 607 L1102 848 L516 848 L578 1197 L1284 1197 L1330 1457 L313 1457 L56 -2 L1072 -2 Z M1233 1604 L1016 1911 L787 1911 L461 1604 L658 1604 L885 1770 L1052 1604 L1233 1604 Z " />
<glyph glyph-name="Edieresis" unicode="&#xcb;" horiz-adv-x="1294" d="M1072 -2 L1118 258 L412 258 L473 607 L1060 607 L1102 848 L516 848 L578 1197 L1284 1197 L1330 1457 L313 1457 L56 -2 L1072 -2 Z M646 1618 C685 1618 722 1633 759 1664 C795 1694 813 1733 813 1782 C813 1809 803 1835 783 1860 C763 1884 734 1896 695 1896 C656 1896 618 1881 582 1850 C545 1819 527 1780 527 1732 C527 1704 537 1678 557 1654 C577 1630 607 1618 646 1618 L646 1618 Z M1052 1618 C1091 1618 1129 1633 1166 1664 C1202 1694 1220 1733 1220 1782 C1220 1809 1210 1835 1190 1860 C1170 1884 1140 1896 1101 1896 C1062 1896 1025 1881 989 1850 C952 1819 934 1780 934 1732 C934 1704 944 1678 964 1654 C984 1630 1013 1618 1052 1618 L1052 1618 Z " />
<glyph glyph-name="Igrave" unicode="&#xcc;" horiz-adv-x="680" d="M366 -2 L623 1457 L313 1457 L56 -2 L366 -2 Z M659 1593 L401 1900 L83 1900 L450 1593 L659 1593 Z " />
<glyph glyph-name="Iacute" unicode="&#xcd;" horiz-adv-x="680" d="M366 -2 L623 1457 L313 1457 L56 -2 L366 -2 Z M240 1593 L449 1593 L816 1900 L498 1900 L240 1593 Z " />
<glyph glyph-name="Icircumflex" unicode="&#xce;" horiz-adv-x="680" d="M366 -2 L623 1457 L313 1457 L56 -2 L366 -2 Z M861 1604 L644 1911 L415 1911 L89 1604 L286 1604 L513 1770 L680 1604 L861 1604 Z " />
<glyph glyph-name="Idieresis" unicode="&#xcf;" horiz-adv-x="680" d="M366 -2 L623 1457 L313 1457 L56 -2 L366 -2 Z M276 1618 C315 1618 352 1633 389 1664 C425 1694 443 1733 443 1782 C443 1809 433 1835 413 1860 C393 1884 364 1896 325 1896 C286 1896 248 1881 212 1850 C175 1819 157 1780 157 1732 C157 1704 167 1678 187 1654 C207 1630 237 1618 276 1618 L276 1618 Z M682 1618 C721 1618 759 1633 796 1664 C832 1694 850 1733 850 1782 C850 1809 840 1835 820 1860 C800 1884 770 1896 731 1896 C692 1896 655 1881 619 1850 C582 1819 564 1780 564 1732 C564 1704 574 1678 594 1654 C614 1630 643 1618 682 1618 L682 1618 Z " />
<glyph glyph-name="Eth" unicode="&#xd0;" horiz-adv-x="1568" d="M615 259 L406 259 L469 617 L863 617 L902 839 L508 839 L571 1197 L781 1197 C910 1197 1007 1157 1073 1076 C1139 995 1172 908 1172 815 C1172 654 1113 521 995 416 C877 311 750 259 615 259 L615 259 Z M569 -1 C797 -1 1007 82 1199 248 C1390 413 1486 616 1486 856 C1486 1003 1430 1140 1318 1267 C1205 1394 1041 1457 826 1457 L308 1457 L199 839 L-61 839 L-100 617 L160 617 L51 -1 L569 -1 Z " />
<glyph glyph-name="Ntilde" unicode="&#xd1;" horiz-adv-x="1669" d="M1356 -2 L1613 1457 L1306 1457 L1135 485 L556 1457 L313 1457 L56 -2 L363 -2 L534 970 L1113 -2 L1356 -2 Z M1088 1621 C1198 1621 1275 1679 1320 1795 L1185 1872 C1164 1818 1128 1791 1079 1791 C1045 1791 1000 1808 945 1843 C890 1877 837 1894 787 1894 C677 1894 601 1834 560 1714 L690 1642 C711 1696 747 1723 796 1723 C830 1723 875 1706 930 1672 C985 1638 1037 1621 1088 1621 L1088 1621 Z " />
<glyph glyph-name="Ograve" unicode="&#xd2;" horiz-adv-x="1738" d="M785 254 C656 254 559 295 494 377 C428 458 395 545 395 638 C395 795 452 929 567 1038 C682 1147 810 1202 952 1202 C1081 1202 1178 1161 1244 1080 C1310 998 1343 911 1343 818 C1342 667 1285 536 1170 423 C1055 310 927 254 785 254 L785 254 Z M736 -24 C964 -24 1174 61 1367 232 C1559 402 1656 613 1657 864 C1657 1014 1601 1154 1490 1285 C1379 1415 1216 1480 1001 1480 C767 1480 556 1395 368 1225 C179 1054 84 843 81 592 C81 442 137 302 248 172 C359 41 522 -24 736 -24 L736 -24 Z M1180 1593 L922 1900 L604 1900 L971 1593 L1180 1593 Z " />
<glyph glyph-name="Oacute" unicode="&#xd3;" horiz-adv-x="1738" d="M785 254 C656 254 559 295 494 377 C428 458 395 545 395 638 C395 795 452 929 567 1038 C682 1147 810 1202 952 1202 C1081 1202 1178 1161 1244 1080 C1310 998 1343 911 1343 818 C1342 667 1285 536 1170 423 C1055 310 927 254 785 254 L785 254 Z M736 -24 C964 -24 1174 61 1367 232 C1559 402 1656 613 1657 864 C1657 1014 1601 1154 1490 1285 C1379 1415 1216 1480 1001 1480 C767 1480 556 1395 368 1225 C179 1054 84 843 81 592 C81 442 137 302 248 172 C359 41 522 -24 736 -24 L736 -24 Z M762 1593 L971 1593 L1338 1900 L1020 1900 L762 1593 Z " />
<glyph glyph-name="Ocircumflex" unicode="&#xd4;" horiz-adv-x="1738" d="M785 254 C656 254 559 295 494 377 C428 458 395 545 395 638 C395 795 452 929 567 1038 C682 1147 810 1202 952 1202 C1081 1202 1178 1161 1244 1080 C1310 998 1343 911 1343 818 C1342 667 1285 536 1170 423 C1055 310 927 254 785 254 L785 254 Z M736 -24 C964 -24 1174 61 1367 232 C1559 402 1656 613 1657 864 C1657 1014 1601 1154 1490 1285 C1379 1415 1216 1480 1001 1480 C767 1480 556 1395 368 1225 C179 1054 84 843 81 592 C81 442 137 302 248 172 C359 41 522 -24 736 -24 L736 -24 Z M1383 1604 L1166 1911 L937 1911 L611 1604 L808 1604 L1035 1770 L1202 1604 L1383 1604 Z " />
<glyph glyph-name="Otilde" unicode="&#xd5;" horiz-adv-x="1738" d="M785 254 C656 254 559 295 494 377 C428 458 395 545 395 638 C395 795 452 929 567 1038 C682 1147 810 1202 952 1202 C1081 1202 1178 1161 1244 1080 C1310 998 1343 911 1343 818 C1342 667 1285 536 1170 423 C1055 310 927 254 785 254 L785 254 Z M736 -24 C964 -24 1174 61 1367 232 C1559 402 1656 613 1657 864 C1657 1014 1601 1154 1490 1285 C1379 1415 1216 1480 1001 1480 C767 1480 556 1395 368 1225 C179 1054 84 843 81 592 C81 442 137 302 248 172 C359 41 522 -24 736 -24 L736 -24 Z M1173 1621 C1283 1621 1360 1679 1405 1795 L1270 1872 C1249 1818 1213 1791 1164 1791 C1130 1791 1085 1808 1030 1843 C975 1877 922 1894 872 1894 C762 1894 686 1834 645 1714 L775 1642 C796 1696 832 1723 881 1723 C915 1723 960 1706 1015 1672 C1070 1638 1122 1621 1173 1621 L1173 1621 Z " />
<glyph glyph-name="Odieresis" unicode="&#xd6;" horiz-adv-x="1738" d="M785 254 C656 254 559 295 494 377 C428 458 395 545 395 638 C395 795 452 929 567 1038 C682 1147 810 1202 952 1202 C1081 1202 1178 1161 1244 1080 C1310 998 1343 911 1343 818 C1342 667 1285 536 1170 423 C1055 310 927 254 785 254 L785 254 Z M736 -24 C964 -24 1174 61 1367 232 C1559 402 1656 613 1657 864 C1657 1014 1601 1154 1490 1285 C1379 1415 1216 1480 1001 1480 C767 1480 556 1395 368 1225 C179 1054 84 843 81 592 C81 442 137 302 248 172 C359 41 522 -24 736 -24 L736 -24 Z M797 1618 C836 1618 873 1633 910 1664 C946 1694 964 1733 964 1782 C964 1809 954 1835 934 1860 C914 1884 885 1896 846 1896 C807 1896 769 1881 733 1850 C696 1819 678 1780 678 1732 C678 1704 688 1678 708 1654 C728 1630 758 1618 797 1618 L797 1618 Z M1203 1618 C1242 1618 1280 1633 1317 1664 C1353 1694 1371 1733 1371 1782 C1371 1809 1361 1835 1341 1860 C1321 1884 1291 1896 1252 1896 C1213 1896 1176 1881 1140 1850 C1103 1819 1085 1780 1085 1732 C1085 1704 1095 1678 1115 1654 C1135 1630 1164 1618 1203 1618 L1203 1618 Z " />
<glyph glyph-name="multiply" unicode="&#xd7;" horiz-adv-x="1334" d="M1104 400 L828 729 L1220 1059 L1088 1216 L695 887 L419 1216 L231 1059 L508 729 L115 400 L247 242 L640 572 L916 242 L1104 400 Z " />
<glyph glyph-name="Oslash" unicode="&#xd8;" horiz-adv-x="1737" d="M737 -23 C964 -23 1174 62 1367 232 C1559 402 1655 613 1656 864 C1656 1047 1584 1203 1441 1331 L1555 1480 L1331 1480 L1289 1425 C1204 1462 1109 1480 1002 1480 C767 1480 555 1395 366 1225 C176 1054 81 843 81 592 C81 407 153 251 298 126 L184 -23 L408 -23 L449 32 C534 -5 630 -23 737 -23 L737 -23 Z M492 380 C427 455 395 542 395 639 C396 795 454 928 569 1038 C683 1147 811 1202 953 1202 C1007 1202 1056 1194 1100 1178 L492 380 Z M786 255 C732 255 683 263 638 279 L1246 1076 C1311 1006 1343 920 1343 817 C1343 660 1284 528 1166 419 C1048 310 921 255 786 255 L786 255 Z " />
<glyph glyph-name="Ugrave" unicode="&#xd9;" horiz-adv-x="1567" d="M651 -24 C827 -24 979 20 1106 108 C1233 196 1307 305 1330 434 L1511 1458 L1201 1458 L1030 485 C1016 406 975 346 908 307 C840 268 770 248 699 248 C615 248 552 267 511 306 C469 344 448 389 448 441 C448 444 451 466 458 506 L623 1458 L314 1458 L134 434 C129 410 127 387 127 364 C127 271 167 184 248 101 C328 18 462 -24 651 -24 L651 -24 Z M1047 1593 L789 1900 L471 1900 L838 1593 L1047 1593 Z " />
<glyph glyph-name="Uacute" unicode="&#xda;" horiz-adv-x="1567" d="M651 -24 C827 -24 979 20 1106 108 C1233 196 1307 305 1330 434 L1511 1458 L1201 1458 L1030 485 C1016 406 975 346 908 307 C840 268 770 248 699 248 C615 248 552 267 511 306 C469 344 448 389 448 441 C448 444 451 466 458 506 L623 1458 L314 1458 L134 434 C129 410 127 387 127 364 C127 271 167 184 248 101 C328 18 462 -24 651 -24 L651 -24 Z M629 1593 L838 1593 L1205 1900 L887 1900 L629 1593 Z " />
<glyph glyph-name="Ucircumflex" unicode="&#xdb;" horiz-adv-x="1567" d="M651 -24 C827 -24 979 20 1106 108 C1233 196 1307 305 1330 434 L1511 1458 L1201 1458 L1030 485 C1016 406 975 346 908 307 C840 268 770 248 699 248 C615 248 552 267 511 306 C469 344 448 389 448 441 C448 444 451 466 458 506 L623 1458 L314 1458 L134 434 C129 410 127 387 127 364 C127 271 167 184 248 101 C328 18 462 -24 651 -24 L651 -24 Z M1260 1604 L1043 1911 L814 1911 L488 1604 L685 1604 L912 1770 L1079 1604 L1260 1604 Z " />
<glyph glyph-name="Udieresis" unicode="&#xdc;" horiz-adv-x="1567" d="M651 -24 C827 -24 979 20 1106 108 C1233 196 1307 305 1330 434 L1511 1458 L1201 1458 L1030 485 C1016 406 975 346 908 307 C840 268 770 248 699 248 C615 248 552 267 511 306 C469 344 448 389 448 441 C448 444 451 466 458 506 L623 1458 L314 1458 L134 434 C129 410 127 387 127 364 C127 271 167 184 248 101 C328 18 462 -24 651 -24 L651 -24 Z M673 1618 C712 1618 749 1633 786 1664 C822 1694 840 1733 840 1782 C840 1809 830 1835 810 1860 C790 1884 761 1896 722 1896 C683 1896 645 1881 609 1850 C572 1819 554 1780 554 1732 C554 1704 564 1678 584 1654 C604 1630 634 1618 673 1618 L673 1618 Z M1079 1618 C1118 1618 1156 1633 1193 1664 C1229 1694 1247 1733 1247 1782 C1247 1809 1237 1835 1217 1860 C1197 1884 1167 1896 1128 1896 C1089 1896 1052 1881 1016 1850 C979 1819 961 1780 961 1732 C961 1704 971 1678 991 1654 C1011 1630 1040 1618 1079 1618 L1079 1618 Z " />
<glyph glyph-name="Yacute" unicode="&#xdd;" horiz-adv-x="1493" d="M773 -2 L892 674 L1584 1457 L1168 1457 L772 981 L542 1457 L167 1457 L582 675 L463 -2 L773 -2 Z M641 1593 L850 1593 L1217 1900 L899 1900 L641 1593 Z " />
<glyph glyph-name="Thorn" unicode="&#xde;" horiz-adv-x="1439" d="M463 545 L539 976 L853 976 C914 976 962 960 997 928 C1032 896 1050 856 1050 808 C1050 732 1021 669 964 620 C907 570 844 545 777 545 L463 545 Z M417 285 L751 285 C902 285 1042 336 1169 439 C1296 541 1359 679 1360 853 C1360 954 1321 1043 1244 1120 C1167 1197 1058 1236 919 1236 L585 1236 L624 1458 L314 1458 L57 -2 L367 -2 L417 285 Z " />
<glyph glyph-name="germandbls" unicode="&#xdf;" horiz-adv-x="1370" d="M661 -23 C808 -23 940 29 1057 134 C1173 238 1231 359 1230 496 C1230 557 1212 614 1175 668 C1138 721 1086 756 1019 773 C1074 800 1121 848 1161 916 C1201 984 1221 1053 1221 1123 C1221 1212 1184 1294 1109 1369 C1034 1443 925 1480 781 1480 C646 1480 522 1441 409 1363 C296 1285 227 1181 203 1050 L18 -1 L328 -1 L512 1042 C521 1091 548 1133 594 1168 C639 1203 686 1220 735 1220 C784 1220 824 1204 855 1172 C886 1140 902 1104 902 1063 C902 998 879 945 833 904 C786 863 739 842 690 842 L627 842 L585 600 L759 600 C805 600 843 586 874 558 C904 529 919 496 919 459 C918 392 892 339 843 298 C793 257 745 237 698 237 C618 237 563 254 532 289 L438 45 C494 0 568 -23 661 -23 L661 -23 Z " />
<glyph glyph-name="agrave" unicode="&#xe0;" horiz-adv-x="1227" d="M454 203 C373 203 312 227 312 282 C312 315 325 344 352 369 C379 393 424 405 489 405 L727 405 L716 341 C711 311 683 281 632 250 C581 219 522 203 454 203 L454 203 Z M344 -22 C479 -22 599 28 702 127 L679 -3 L953 -3 L1077 698 C1082 730 1085 760 1085 787 C1085 990 931 1092 623 1092 C468 1092 320 1032 178 913 L333 728 C424 798 510 833 589 833 C643 833 688 822 724 800 C759 777 777 748 777 711 C777 702 773 673 764 622 L514 622 C373 622 253 587 155 518 C57 448 8 356 8 242 C8 170 38 108 98 56 C157 4 239 -22 344 -22 L344 -22 Z M927 1194 L669 1501 L351 1501 L718 1194 L927 1194 Z " />
<glyph glyph-name="aacute" unicode="&#xe1;" horiz-adv-x="1227" d="M454 203 C373 203 312 227 312 282 C312 315 325 344 352 369 C379 393 424 405 489 405 L727 405 L716 341 C711 311 683 281 632 250 C581 219 522 203 454 203 L454 203 Z M344 -22 C479 -22 599 28 702 127 L679 -3 L953 -3 L1077 698 C1082 730 1085 760 1085 787 C1085 990 931 1092 623 1092 C468 1092 320 1032 178 913 L333 728 C424 798 510 833 589 833 C643 833 688 822 724 800 C759 777 777 748 777 711 C777 702 773 673 764 622 L514 622 C373 622 253 587 155 518 C57 448 8 356 8 242 C8 170 38 108 98 56 C157 4 239 -22 344 -22 L344 -22 Z M509 1194 L718 1194 L1085 1501 L767 1501 L509 1194 Z " />
<glyph glyph-name="acircumflex" unicode="&#xe2;" horiz-adv-x="1227" d="M454 203 C373 203 312 227 312 282 C312 315 325 344 352 369 C379 393 424 405 489 405 L727 405 L716 341 C711 311 683 281 632 250 C581 219 522 203 454 203 L454 203 Z M344 -22 C479 -22 599 28 702 127 L679 -3 L953 -3 L1077 698 C1082 730 1085 760 1085 787 C1085 990 931 1092 623 1092 C468 1092 320 1032 178 913 L333 728 C424 798 510 833 589 833 C643 833 688 822 724 800 C759 777 777 748 777 711 C777 702 773 673 764 622 L514 622 C373 622 253 587 155 518 C57 448 8 356 8 242 C8 170 38 108 98 56 C157 4 239 -22 344 -22 L344 -22 Z M1080 1205 L863 1512 L634 1512 L308 1205 L505 1205 L732 1371 L899 1205 L1080 1205 Z " />
<glyph glyph-name="atilde" unicode="&#xe3;" horiz-adv-x="1227" d="M454 203 C373 203 312 227 312 282 C312 315 325 344 352 369 C379 393 424 405 489 405 L727 405 L716 341 C711 311 683 281 632 250 C581 219 522 203 454 203 L454 203 Z M344 -22 C479 -22 599 28 702 127 L679 -3 L953 -3 L1077 698 C1082 730 1085 760 1085 787 C1085 990 931 1092 623 1092 C468 1092 320 1032 178 913 L333 728 C424 798 510 833 589 833 C643 833 688 822 724 800 C759 777 777 748 777 711 C777 702 773 673 764 622 L514 622 C373 622 253 587 155 518 C57 448 8 356 8 242 C8 170 38 108 98 56 C157 4 239 -22 344 -22 L344 -22 Z M870 1222 C980 1222 1057 1280 1102 1396 L967 1473 C946 1419 910 1392 861 1392 C827 1392 782 1409 727 1444 C672 1478 619 1495 569 1495 C459 1495 383 1435 342 1315 L472 1243 C493 1297 529 1324 578 1324 C612 1324 657 1307 712 1273 C767 1239 819 1222 870 1222 L870 1222 Z " />
<glyph glyph-name="adieresis" unicode="&#xe4;" horiz-adv-x="1227" d="M454 203 C373 203 312 227 312 282 C312 315 325 344 352 369 C379 393 424 405 489 405 L727 405 L716 341 C711 311 683 281 632 250 C581 219 522 203 454 203 L454 203 Z M344 -22 C479 -22 599 28 702 127 L679 -3 L953 -3 L1077 698 C1082 730 1085 760 1085 787 C1085 990 931 1092 623 1092 C468 1092 320 1032 178 913 L333 728 C424 798 510 833 589 833 C643 833 688 822 724 800 C759 777 777 748 777 711 C777 702 773 673 764 622 L514 622 C373 622 253 587 155 518 C57 448 8 356 8 242 C8 170 38 108 98 56 C157 4 239 -22 344 -22 L344 -22 Z M493 1219 C532 1219 569 1234 606 1265 C642 1295 660 1334 660 1383 C660 1410 650 1436 630 1461 C610 1485 581 1497 542 1497 C503 1497 465 1482 429 1451 C392 1420 374 1381 374 1333 C374 1305 384 1279 404 1255 C424 1231 454 1219 493 1219 L493 1219 Z M899 1219 C938 1219 976 1234 1013 1265 C1049 1295 1067 1334 1067 1383 C1067 1410 1057 1436 1037 1461 C1017 1485 987 1497 948 1497 C909 1497 872 1482 836 1451 C799 1420 781 1381 781 1333 C781 1305 791 1279 811 1255 C831 1231 860 1219 899 1219 L899 1219 Z " />
<glyph glyph-name="aring" unicode="&#xe5;" horiz-adv-x="1227" d="M454 203 C373 203 312 227 312 282 C312 315 325 344 352 369 C379 393 424 405 489 405 L727 405 L716 341 C711 311 683 281 632 250 C581 219 522 203 454 203 L454 203 Z M344 -22 C479 -22 599 28 702 127 L679 -3 L953 -3 L1077 698 C1082 730 1085 760 1085 787 C1085 990 931 1092 623 1092 C468 1092 320 1032 178 913 L333 728 C424 798 510 833 589 833 C643 833 688 822 724 800 C759 777 777 748 777 711 C777 702 773 673 764 622 L514 622 C373 622 253 587 155 518 C57 448 8 356 8 242 C8 170 38 108 98 56 C157 4 239 -22 344 -22 L344 -22 Z M707 1274 C659 1274 635 1310 635 1343 C635 1372 646 1396 668 1415 C690 1433 713 1442 736 1442 C783 1442 808 1408 808 1373 C808 1344 797 1321 775 1302 C753 1283 730 1274 707 1274 L707 1274 Z M683 1141 C744 1141 804 1165 861 1213 C918 1260 946 1321 946 1396 C946 1440 930 1481 899 1519 C867 1557 821 1576 760 1576 C699 1576 639 1552 582 1504 C525 1455 496 1393 496 1318 C496 1275 512 1234 544 1197 C575 1160 622 1141 683 1141 L683 1141 Z " />
<glyph glyph-name="ae" unicode="&#xe6;" horiz-adv-x="1924" d="M1564 646 L1085 646 L1097 715 C1152 812 1238 860 1355 860 C1429 860 1483 840 1516 800 C1549 760 1565 717 1565 670 L1564 646 Z M1236 -24 C1387 -24 1535 26 1680 125 C1666 143 1618 208 1537 320 C1448 261 1363 231 1281 231 C1156 231 1076 280 1039 377 L1049 434 L1812 434 C1837 491 1852 576 1852 649 C1852 756 1817 856 1746 950 C1675 1044 1558 1091 1395 1091 C1256 1091 1129 1046 1015 955 C948 1046 818 1092 625 1092 C470 1092 321 1031 177 910 L334 726 C427 797 513 833 592 833 C703 833 780 787 780 712 C780 704 776 674 767 623 L515 623 C361 623 238 588 146 519 C54 449 8 355 7 236 C7 162 39 100 102 51 C165 2 245 -23 343 -23 C509 -23 669 40 823 166 C920 39 1058 -24 1236 -24 L1236 -24 Z M453 203 C373 203 311 227 311 282 C311 357 362 405 489 405 L727 405 L715 341 C710 311 682 281 632 250 C581 219 522 203 453 203 L453 203 Z " />
<glyph glyph-name="ccedilla" unicode="&#xe7;" horiz-adv-x="1193" d="M350 -414 C425 -414 495 -398 562 -366 C629 -333 662 -281 662 -208 C662 -133 608 -94 500 -89 L556 -23 C709 -23 851 26 981 123 L840 324 C777 265 702 235 614 235 C535 235 473 259 427 308 C380 357 357 412 357 474 C358 577 395 662 470 731 C544 799 627 833 719 833 C807 833 872 803 914 744 L1126 945 C1030 1042 906 1091 755 1091 C574 1091 410 1031 264 911 C118 790 45 628 45 423 C45 303 81 206 154 133 C226 60 313 12 415 -9 L340 -108 L324 -195 L383 -195 C428 -195 450 -208 450 -233 C450 -255 440 -270 421 -279 C401 -288 382 -292 364 -292 C316 -292 273 -280 236 -256 L155 -361 C198 -396 263 -414 350 -414 L350 -414 Z " />
<glyph glyph-name="egrave" unicode="&#xe8;" horiz-adv-x="1242" d="M378 646 C393 701 427 751 481 795 C534 839 598 861 672 861 C746 861 800 841 833 801 C866 760 882 717 882 670 L881 646 L378 646 Z M553 -23 C704 -23 852 26 997 125 L854 321 C781 261 695 231 598 231 C521 231 459 252 413 294 C366 336 343 381 343 430 L343 434 L1130 434 C1156 503 1169 574 1169 649 C1169 756 1134 856 1063 950 C992 1044 876 1091 713 1091 C538 1091 383 1027 249 899 C114 771 47 617 46 436 C46 319 89 214 176 119 C263 24 388 -23 553 -23 L553 -23 Z M960 1194 L702 1501 L384 1501 L751 1194 L960 1194 Z " />
<glyph glyph-name="eacute" unicode="&#xe9;" horiz-adv-x="1242" d="M378 646 C393 701 427 751 481 795 C534 839 598 861 672 861 C746 861 800 841 833 801 C866 760 882 717 882 670 L881 646 L378 646 Z M553 -23 C704 -23 852 26 997 125 L854 321 C781 261 695 231 598 231 C521 231 459 252 413 294 C366 336 343 381 343 430 L343 434 L1130 434 C1156 503 1169 574 1169 649 C1169 756 1134 856 1063 950 C992 1044 876 1091 713 1091 C538 1091 383 1027 249 899 C114 771 47 617 46 436 C46 319 89 214 176 119 C263 24 388 -23 553 -23 L553 -23 Z M542 1194 L751 1194 L1118 1501 L800 1501 L542 1194 Z " />
<glyph glyph-name="ecircumflex" unicode="&#xea;" horiz-adv-x="1242" d="M378 646 C393 701 427 751 481 795 C534 839 598 861 672 861 C746 861 800 841 833 801 C866 760 882 717 882 670 L881 646 L378 646 Z M553 -23 C704 -23 852 26 997 125 L854 321 C781 261 695 231 598 231 C521 231 459 252 413 294 C366 336 343 381 343 430 L343 434 L1130 434 C1156 503 1169 574 1169 649 C1169 756 1134 856 1063 950 C992 1044 876 1091 713 1091 C538 1091 383 1027 249 899 C114 771 47 617 46 436 C46 319 89 214 176 119 C263 24 388 -23 553 -23 L553 -23 Z M1113 1205 L896 1512 L667 1512 L341 1205 L538 1205 L765 1371 L932 1205 L1113 1205 Z " />
<glyph glyph-name="edieresis" unicode="&#xeb;" horiz-adv-x="1242" d="M378 646 C393 701 427 751 481 795 C534 839 598 861 672 861 C746 861 800 841 833 801 C866 760 882 717 882 670 L881 646 L378 646 Z M553 -23 C704 -23 852 26 997 125 L854 321 C781 261 695 231 598 231 C521 231 459 252 413 294 C366 336 343 381 343 430 L343 434 L1130 434 C1156 503 1169 574 1169 649 C1169 756 1134 856 1063 950 C992 1044 876 1091 713 1091 C538 1091 383 1027 249 899 C114 771 47 617 46 436 C46 319 89 214 176 119 C263 24 388 -23 553 -23 L553 -23 Z M526 1219 C565 1219 602 1234 639 1265 C675 1295 693 1334 693 1383 C693 1410 683 1436 663 1461 C643 1485 614 1497 575 1497 C536 1497 498 1482 462 1451 C425 1420 407 1381 407 1333 C407 1305 417 1279 437 1255 C457 1231 487 1219 526 1219 L526 1219 Z M932 1219 C971 1219 1009 1234 1046 1265 C1082 1295 1100 1334 1100 1383 C1100 1410 1090 1436 1070 1461 C1050 1485 1020 1497 981 1497 C942 1497 905 1482 869 1451 C832 1420 814 1381 814 1333 C814 1305 824 1279 844 1255 C864 1231 893 1219 932 1219 L932 1219 Z " />
<glyph glyph-name="igrave" unicode="&#xec;" horiz-adv-x="595" d="M322 -1 L510 1069 L208 1069 L20 -1 L322 -1 Z M629 1194 L371 1501 L53 1501 L420 1194 L629 1194 Z " />
<glyph glyph-name="iacute" unicode="&#xed;" horiz-adv-x="595" d="M322 -1 L510 1069 L208 1069 L20 -1 L322 -1 Z M186 1194 L395 1194 L762 1501 L444 1501 L186 1194 Z " />
<glyph glyph-name="icircumflex" unicode="&#xee;" horiz-adv-x="595" d="M322 -1 L510 1069 L208 1069 L20 -1 L322 -1 Z M749 1205 L532 1512 L303 1512 L-23 1205 L174 1205 L401 1371 L568 1205 L749 1205 Z " />
<glyph glyph-name="idieresis" unicode="&#xef;" horiz-adv-x="595" d="M322 -1 L510 1069 L208 1069 L20 -1 L322 -1 Z M163 1219 C202 1219 239 1234 276 1265 C312 1295 330 1334 330 1383 C330 1410 320 1436 300 1461 C280 1485 251 1497 212 1497 C173 1497 135 1482 99 1451 C62 1420 44 1381 44 1333 C44 1305 54 1279 74 1255 C94 1231 124 1219 163 1219 L163 1219 Z M569 1219 C608 1219 646 1234 683 1265 C719 1295 737 1334 737 1383 C737 1410 727 1436 707 1461 C687 1485 657 1497 618 1497 C579 1497 542 1482 506 1451 C469 1420 451 1381 451 1333 C451 1305 461 1279 481 1255 C501 1231 530 1219 569 1219 L569 1219 Z " />
<glyph glyph-name="eth" unicode="&#xf0;" horiz-adv-x="1339" d="M583 235 C506 235 449 261 410 312 C371 363 352 417 352 475 C353 570 388 654 457 725 C526 796 603 832 688 832 C765 832 823 807 862 756 C901 705 920 651 920 594 C919 498 884 414 814 343 C744 271 667 235 583 235 L583 235 Z M538 -23 C705 -23 863 41 1012 170 C1161 299 1236 495 1236 758 C1236 941 1195 1119 1113 1293 L1294 1347 L1325 1525 L1037 1441 C1014 1478 988 1510 960 1539 L669 1458 C692 1437 720 1407 754 1367 L564 1310 L533 1132 L864 1227 C911 1158 943 1081 960 996 C905 1059 830 1091 734 1091 C554 1091 395 1027 256 898 C117 769 47 615 46 435 C46 323 88 219 172 122 C255 25 377 -23 538 -23 L538 -23 Z " />
<glyph glyph-name="ntilde" unicode="&#xf1;" horiz-adv-x="1398" d="M1235 632 C1241 669 1244 703 1244 735 C1244 829 1216 912 1159 984 C1102 1056 1007 1092 876 1092 C733 1092 603 1027 484 897 L514 1069 L230 1069 L41 -1 L343 -1 L449 596 C465 689 501 751 557 784 C613 817 676 833 745 833 C872 833 936 761 936 669 C936 664 932 640 925 597 L821 -1 L1123 -1 L1235 632 Z M979 1222 C1089 1222 1166 1280 1211 1396 L1076 1473 C1055 1419 1019 1392 970 1392 C936 1392 891 1409 836 1444 C781 1478 728 1495 678 1495 C568 1495 492 1435 451 1315 L581 1243 C602 1297 638 1324 687 1324 C721 1324 766 1307 821 1273 C876 1239 928 1222 979 1222 L979 1222 Z " />
<glyph glyph-name="ograve" unicode="&#xf2;" horiz-adv-x="1340" d="M583 236 C506 236 449 262 410 313 C371 364 352 418 352 475 C353 570 388 654 458 726 C528 797 605 833 689 833 C766 833 823 808 862 757 C901 706 920 651 920 594 C920 488 883 402 810 336 C736 269 660 236 583 236 L583 236 Z M538 -23 C705 -23 861 38 1007 160 C1152 282 1225 440 1226 633 C1226 745 1184 850 1101 947 C1017 1044 895 1092 734 1092 C561 1092 403 1028 260 899 C117 770 46 615 46 434 C46 322 88 218 172 122 C255 25 377 -23 538 -23 L538 -23 Z M985 1194 L727 1501 L409 1501 L776 1194 L985 1194 Z " />
<glyph glyph-name="oacute" unicode="&#xf3;" horiz-adv-x="1340" d="M583 236 C506 236 449 262 410 313 C371 364 352 418 352 475 C353 570 388 654 458 726 C528 797 605 833 689 833 C766 833 823 808 862 757 C901 706 920 651 920 594 C920 488 883 402 810 336 C736 269 660 236 583 236 L583 236 Z M538 -23 C705 -23 861 38 1007 160 C1152 282 1225 440 1226 633 C1226 745 1184 850 1101 947 C1017 1044 895 1092 734 1092 C561 1092 403 1028 260 899 C117 770 46 615 46 434 C46 322 88 218 172 122 C255 25 377 -23 538 -23 L538 -23 Z M567 1194 L776 1194 L1143 1501 L825 1501 L567 1194 Z " />
<glyph glyph-name="ocircumflex" unicode="&#xf4;" horiz-adv-x="1340" d="M583 236 C506 236 449 262 410 313 C371 364 352 418 352 475 C353 570 388 654 458 726 C528 797 605 833 689 833 C766 833 823 808 862 757 C901 706 920 651 920 594 C920 488 883 402 810 336 C736 269 660 236 583 236 L583 236 Z M538 -23 C705 -23 861 38 1007 160 C1152 282 1225 440 1226 633 C1226 745 1184 850 1101 947 C1017 1044 895 1092 734 1092 C561 1092 403 1028 260 899 C117 770 46 615 46 434 C46 322 88 218 172 122 C255 25 377 -23 538 -23 L538 -23 Z M1138 1205 L921 1512 L692 1512 L366 1205 L563 1205 L790 1371 L957 1205 L1138 1205 Z " />
<glyph glyph-name="otilde" unicode="&#xf5;" horiz-adv-x="1340" d="M583 236 C506 236 449 262 410 313 C371 364 352 418 352 475 C353 570 388 654 458 726 C528 797 605 833 689 833 C766 833 823 808 862 757 C901 706 920 651 920 594 C920 488 883 402 810 336 C736 269 660 236 583 236 L583 236 Z M538 -23 C705 -23 861 38 1007 160 C1152 282 1225 440 1226 633 C1226 745 1184 850 1101 947 C1017 1044 895 1092 734 1092 C561 1092 403 1028 260 899 C117 770 46 615 46 434 C46 322 88 218 172 122 C255 25 377 -23 538 -23 L538 -23 Z M927 1222 C1037 1222 1114 1280 1159 1396 L1024 1473 C1003 1419 967 1392 918 1392 C884 1392 839 1409 784 1444 C729 1478 676 1495 626 1495 C516 1495 440 1435 399 1315 L529 1243 C550 1297 586 1324 635 1324 C669 1324 714 1307 769 1273 C824 1239 876 1222 927 1222 L927 1222 Z " />
<glyph glyph-name="odieresis" unicode="&#xf6;" horiz-adv-x="1340" d="M583 236 C506 236 449 262 410 313 C371 364 352 418 352 475 C353 570 388 654 458 726 C528 797 605 833 689 833 C766 833 823 808 862 757 C901 706 920 651 920 594 C920 488 883 402 810 336 C736 269 660 236 583 236 L583 236 Z M538 -23 C705 -23 861 38 1007 160 C1152 282 1225 440 1226 633 C1226 745 1184 850 1101 947 C1017 1044 895 1092 734 1092 C561 1092 403 1028 260 899 C117 770 46 615 46 434 C46 322 88 218 172 122 C255 25 377 -23 538 -23 L538 -23 Z M551 1219 C590 1219 627 1234 664 1265 C700 1295 718 1334 718 1383 C718 1410 708 1436 688 1461 C668 1485 639 1497 600 1497 C561 1497 523 1482 487 1451 C450 1420 432 1381 432 1333 C432 1305 442 1279 462 1255 C482 1231 512 1219 551 1219 L551 1219 Z M957 1219 C996 1219 1034 1234 1071 1265 C1107 1295 1125 1334 1125 1383 C1125 1410 1115 1436 1095 1461 C1075 1485 1045 1497 1006 1497 C967 1497 930 1482 894 1451 C857 1420 839 1381 839 1333 C839 1305 849 1279 869 1255 C889 1231 918 1219 957 1219 L957 1219 Z " />
<glyph glyph-name="divide" unicode="&#xf7;" horiz-adv-x="1334" d="M1211 829 L157 829 L121 630 L1176 630 L1211 829 Z M581 245 C620 245 659 261 696 292 C733 323 751 363 751 411 C751 439 741 465 721 490 C700 514 670 526 631 526 C592 526 554 511 517 480 C480 449 461 410 461 361 C461 333 471 307 492 282 C512 257 542 245 581 245 L581 245 Z M702 932 C742 932 780 948 817 979 C854 1010 872 1050 872 1098 C872 1126 862 1152 842 1177 C821 1201 791 1213 752 1213 C713 1213 675 1198 638 1167 C601 1136 582 1096 582 1047 C582 1019 592 993 613 969 C633 944 663 932 702 932 L702 932 Z " />
<glyph glyph-name="oslash" unicode="&#xf8;" horiz-adv-x="1339" d="M537 -23 C711 -23 869 40 1011 166 C1153 291 1224 448 1224 635 C1224 746 1188 844 1115 929 L1107 938 L1243 1092 L1020 1092 L974 1040 C904 1075 824 1092 733 1092 C553 1092 394 1026 255 894 C116 762 46 609 46 434 C46 323 85 221 164 130 L28 -23 L251 -23 L297 29 C366 -6 446 -23 537 -23 L537 -23 Z M366 357 C343 395 331 437 331 483 C331 585 371 669 452 735 C532 800 611 833 688 833 C719 833 749 828 776 818 L366 357 Z M582 236 C551 236 522 241 495 251 L905 711 C928 674 939 633 939 587 C938 490 898 407 818 339 C738 270 659 236 582 236 L582 236 Z " />
<glyph glyph-name="ugrave" unicode="&#xf9;" horiz-adv-x="1388" d="M461 -24 C604 -24 729 41 834 171 L804 -2 L1088 -2 L1277 1069 L975 1069 L869 471 C856 402 826 346 778 301 C730 256 663 234 577 234 C510 234 462 250 434 282 C405 314 391 352 391 395 C391 400 396 429 405 482 L506 1069 L204 1069 L93 436 C88 401 85 367 85 336 C85 241 115 157 175 85 C234 12 330 -24 461 -24 L461 -24 Z M985 1194 L727 1501 L409 1501 L776 1194 L985 1194 Z " />
<glyph glyph-name="uacute" unicode="&#xfa;" horiz-adv-x="1388" d="M461 -24 C604 -24 729 41 834 171 L804 -2 L1088 -2 L1277 1069 L975 1069 L869 471 C856 402 826 346 778 301 C730 256 663 234 577 234 C510 234 462 250 434 282 C405 314 391 352 391 395 C391 400 396 429 405 482 L506 1069 L204 1069 L93 436 C88 401 85 367 85 336 C85 241 115 157 175 85 C234 12 330 -24 461 -24 L461 -24 Z M567 1194 L776 1194 L1143 1501 L825 1501 L567 1194 Z " />
<glyph glyph-name="ucircumflex" unicode="&#xfb;" horiz-adv-x="1388" d="M461 -24 C604 -24 729 41 834 171 L804 -2 L1088 -2 L1277 1069 L975 1069 L869 471 C856 402 826 346 778 301 C730 256 663 234 577 234 C510 234 462 250 434 282 C405 314 391 352 391 395 C391 400 396 429 405 482 L506 1069 L204 1069 L93 436 C88 401 85 367 85 336 C85 241 115 157 175 85 C234 12 330 -24 461 -24 L461 -24 Z M1118 1205 L901 1512 L672 1512 L346 1205 L543 1205 L770 1371 L937 1205 L1118 1205 Z " />
<glyph glyph-name="udieresis" unicode="&#xfc;" horiz-adv-x="1388" d="M461 -24 C604 -24 729 41 834 171 L804 -2 L1088 -2 L1277 1069 L975 1069 L869 471 C856 402 826 346 778 301 C730 256 663 234 577 234 C510 234 462 250 434 282 C405 314 391 352 391 395 C391 400 396 429 405 482 L506 1069 L204 1069 L93 436 C88 401 85 367 85 336 C85 241 115 157 175 85 C234 12 330 -24 461 -24 L461 -24 Z M531 1219 C570 1219 607 1234 644 1265 C680 1295 698 1334 698 1383 C698 1410 688 1436 668 1461 C648 1485 619 1497 580 1497 C541 1497 503 1482 467 1451 C430 1420 412 1381 412 1333 C412 1305 422 1279 442 1255 C462 1231 492 1219 531 1219 L531 1219 Z M937 1219 C976 1219 1014 1234 1051 1265 C1087 1295 1105 1334 1105 1383 C1105 1410 1095 1436 1075 1461 C1055 1485 1025 1497 986 1497 C947 1497 910 1482 874 1451 C837 1420 819 1381 819 1333 C819 1305 829 1279 849 1255 C869 1231 898 1219 937 1219 L937 1219 Z " />
<glyph glyph-name="yacute" unicode="&#xfd;" horiz-adv-x="1191" d="M72 -428 C269 -428 421 -336 528 -153 L1235 1069 L879 1069 L533 394 L432 1069 L93 1069 L343 47 L251 -104 C214 -163 168 -193 113 -193 C48 -193 -6 -188 -49 -179 L-90 -412 C-35 -423 19 -428 72 -428 L72 -428 Z M503 1194 L712 1194 L1079 1501 L761 1501 L503 1194 Z " />
<glyph glyph-name="thorn" unicode="&#xfe;" horiz-adv-x="1411" d="M638 235 C557 235 495 261 454 312 C412 363 391 418 391 477 C392 571 426 654 492 726 C558 797 642 833 744 833 C825 833 887 807 929 756 C970 705 991 650 991 591 C991 497 956 414 886 343 C815 271 733 235 638 235 L638 235 Z M248 -405 L348 157 C430 37 531 -23 652 -23 C821 -23 971 43 1102 175 C1233 307 1298 463 1298 642 C1298 751 1261 853 1186 948 C1111 1043 999 1091 848 1091 C719 1091 590 1025 459 893 L559 1457 L275 1457 L-54 -405 L248 -405 Z " />
<glyph glyph-name="ydieresis" unicode="&#xff;" horiz-adv-x="1191" d="M72 -428 C269 -428 421 -336 528 -153 L1235 1069 L879 1069 L533 394 L432 1069 L93 1069 L343 47 L251 -104 C214 -163 168 -193 113 -193 C48 -193 -6 -188 -49 -179 L-90 -412 C-35 -423 19 -428 72 -428 L72 -428 Z M488 1219 C527 1219 564 1234 601 1265 C637 1295 655 1334 655 1383 C655 1410 645 1436 625 1461 C605 1485 576 1497 537 1497 C498 1497 460 1482 424 1451 C387 1420 369 1381 369 1333 C369 1305 379 1279 399 1255 C419 1231 449 1219 488 1219 L488 1219 Z M894 1219 C933 1219 971 1234 1008 1265 C1044 1295 1062 1334 1062 1383 C1062 1410 1052 1436 1032 1461 C1012 1485 982 1497 943 1497 C904 1497 867 1482 831 1451 C794 1420 776 1381 776 1333 C776 1305 786 1279 806 1255 C826 1231 855 1219 894 1219 L894 1219 Z " />
<glyph glyph-name="dotlessi" unicode="&#x131;" horiz-adv-x="595" d="M320 -1 L508 1069 L206 1069 L18 -1 L320 -1 Z " />
<glyph glyph-name="Lslash" unicode="&#x141;" horiz-adv-x="1209" d="M1114 259 L412 259 L480 645 L970 898 L1009 1118 L519 865 L624 1457 L314 1457 L178 689 L-74 558 L-113 338 L140 469 L57 -1 L1069 -1 L1114 259 Z " />
<glyph glyph-name="lslash" unicode="&#x142;" horiz-adv-x="632" d="M462 704 L719 837 L758 1056 L501 923 L595 1457 L293 1457 L169 752 L-88 619 L-127 399 L130 532 L36 -1 L338 -1 L462 704 Z " />
<glyph glyph-name="OE" unicode="&#x152;" horiz-adv-x="2301" d="M785 255 C656 255 559 296 494 377 C428 458 395 545 395 638 C397 829 458 970 579 1063 C699 1156 823 1202 952 1202 C1091 1202 1188 1139 1242 1012 L1142 444 C1043 318 924 255 785 255 L785 255 Z M736 -23 C851 -23 963 0 1071 45 L1063 -1 L2079 -1 L2125 259 L1419 259 L1480 607 L2066 607 L2109 848 L1523 848 L1584 1197 L2290 1197 L2336 1457 L1320 1457 L1312 1412 C1220 1457 1116 1480 1001 1480 C767 1480 555 1395 366 1225 C177 1054 82 843 81 592 C81 442 137 302 248 172 C359 42 522 -23 736 -23 L736 -23 Z " />
<glyph glyph-name="oe" unicode="&#x153;" horiz-adv-x="2127" d="M583 236 C506 236 448 262 410 313 C371 364 352 418 352 475 C352 556 382 636 443 715 C503 794 585 833 688 833 C765 833 823 808 862 757 C901 706 920 651 920 594 C919 505 886 424 819 349 C752 274 673 236 583 236 L583 236 Z M1269 646 C1284 701 1317 751 1369 795 C1421 839 1484 861 1558 861 C1633 861 1687 841 1720 801 C1753 760 1769 716 1769 668 L1768 646 L1269 646 Z M1440 -23 C1591 -23 1738 26 1883 125 L1741 321 C1666 261 1580 231 1485 231 C1408 231 1347 252 1302 294 C1257 335 1235 380 1235 428 L1235 434 L2016 434 C2042 493 2055 565 2055 648 C2055 756 2020 857 1949 951 C1878 1045 1762 1092 1599 1092 C1417 1092 1262 1018 1133 870 C1050 1018 917 1092 734 1092 C553 1092 394 1026 255 894 C116 761 46 608 46 434 C46 323 88 219 172 122 C255 25 377 -23 537 -23 C723 -23 884 53 1021 204 C1107 53 1247 -23 1440 -23 L1440 -23 Z " />
<glyph glyph-name="Scaron" unicode="&#x160;" horiz-adv-x="1353" d="M547 -30 C718 -30 876 17 1019 111 C1162 204 1234 327 1234 478 C1234 625 1146 725 970 780 L595 902 C540 919 512 951 512 1000 C512 1063 541 1111 598 1146 C655 1180 714 1197 774 1197 C918 1197 1016 1150 1069 1055 L1323 1241 C1223 1395 1053 1472 812 1472 C656 1472 509 1426 370 1333 C231 1240 162 1116 162 961 C162 898 181 841 218 789 C255 737 316 700 401 679 L734 575 C835 544 885 499 885 442 C885 392 857 348 802 311 C747 274 679 255 598 255 C524 255 451 273 380 310 C309 347 257 396 225 457 L-16 257 C29 166 104 96 210 46 C315 -5 428 -30 547 -30 L547 -30 Z M915 1604 L1240 1911 L1043 1911 L817 1744 L650 1911 L469 1911 L686 1604 L915 1604 Z " />
<glyph glyph-name="scaron" unicode="&#x161;" horiz-adv-x="1098" d="M396 -26 C534 -26 658 6 767 70 C876 134 930 228 929 352 C929 459 866 535 739 580 L494 668 C448 685 425 710 425 743 C425 804 486 854 598 854 C701 854 790 823 865 762 L1025 968 C932 1049 800 1089 627 1089 C493 1089 370 1052 257 979 C144 906 87 811 87 694 C87 596 141 529 248 492 L531 390 C573 375 594 354 594 326 C594 258 525 217 417 217 C292 217 181 257 82 336 L-69 114 C23 21 178 -26 396 -26 L396 -26 Z M763 1205 L1088 1512 L891 1512 L665 1345 L498 1512 L317 1512 L534 1205 L763 1205 Z " />
<glyph glyph-name="Ydieresis" unicode="&#x178;" horiz-adv-x="1493" d="M773 -2 L892 674 L1584 1457 L1168 1457 L772 981 L542 1457 L167 1457 L582 675 L463 -2 L773 -2 Z M645 1618 C684 1618 721 1633 758 1664 C794 1694 812 1733 812 1782 C812 1809 802 1835 782 1860 C762 1884 733 1896 694 1896 C655 1896 617 1881 581 1850 C544 1819 526 1780 526 1732 C526 1704 536 1678 556 1654 C576 1630 606 1618 645 1618 L645 1618 Z M1051 1618 C1090 1618 1128 1633 1165 1664 C1201 1694 1219 1733 1219 1782 C1219 1809 1209 1835 1189 1860 C1169 1884 1139 1896 1100 1896 C1061 1896 1024 1881 988 1850 C951 1819 933 1780 933 1732 C933 1704 943 1678 963 1654 C983 1630 1012 1618 1051 1618 L1051 1618 Z " />
<glyph glyph-name="Zcaron" unicode="&#x17d;" horiz-adv-x="1300" d="M1079 -2 L1125 258 L449 258 L1307 1291 L1336 1457 L221 1457 L175 1197 L851 1197 L-7 164 L-36 -2 L1079 -2 Z M864 1604 L1189 1911 L992 1911 L766 1744 L599 1911 L418 1911 L635 1604 L864 1604 Z " />
<glyph glyph-name="zcaron" unicode="&#x17e;" horiz-adv-x="1114" d="M898 -2 L939 234 L402 234 L1045 833 L1086 1069 L149 1069 L107 833 L644 833 L2 234 L-40 -2 L898 -2 Z M781 1205 L1106 1512 L909 1512 L683 1345 L516 1512 L335 1512 L552 1205 L781 1205 Z " />
<glyph glyph-name="florin" unicode="&#x192;" horiz-adv-x="1251" d="M142 -426 C424 -426 589 -297 638 -39 L792 834 L1074 834 L1114 1069 L834 1069 L840 1107 C853 1192 923 1235 1050 1235 C1088 1235 1126 1230 1164 1221 L1205 1465 C1140 1475 1080 1480 1023 1480 C750 1480 590 1353 541 1098 L536 1069 L315 1069 L275 834 L495 834 L341 -39 C321 -141 250 -192 129 -192 C92 -192 54 -187 15 -177 L-26 -412 C39 -421 95 -426 142 -426 L142 -426 Z " />
<glyph glyph-name="circumflex" unicode="&#x2c6;" horiz-adv-x="1000" d="M970 1205 L753 1512 L524 1512 L198 1205 L395 1205 L622 1371 L789 1205 L970 1205 Z " />
<glyph glyph-name="caron" unicode="&#x2c7;" horiz-adv-x="1000" d="M699 1205 L1024 1512 L827 1512 L601 1345 L434 1512 L253 1512 L470 1205 L699 1205 Z " />
<glyph glyph-name="uni02C9" unicode="&#x2c9;" horiz-adv-x="999" d="M917 1273 L947 1443 L305 1443 L275 1273 L917 1273 Z " />
<glyph glyph-name="breve" unicode="&#x2d8;" horiz-adv-x="1000" d="M584 1205 C693 1205 780 1236 845 1299 C909 1362 948 1433 962 1512 L835 1512 C828 1473 803 1439 761 1411 C719 1383 670 1369 613 1369 C556 1369 512 1382 483 1407 C454 1432 439 1460 439 1491 C439 1498 440 1505 441 1512 L313 1512 C310 1493 308 1474 308 1455 C308 1398 327 1343 364 1288 C401 1233 474 1205 584 1205 L584 1205 Z " />
<glyph glyph-name="dotaccent" unicode="&#x2d9;" horiz-adv-x="1000" d="M587 1220 C626 1220 663 1235 700 1266 C737 1297 755 1336 755 1383 C755 1411 745 1437 725 1461 C704 1485 675 1497 636 1497 C597 1497 559 1482 523 1452 C486 1421 468 1382 468 1333 C468 1306 478 1280 498 1256 C518 1232 548 1220 587 1220 L587 1220 Z " />
<glyph glyph-name="ring" unicode="&#x2da;" horiz-adv-x="999" d="M596 1274 C548 1274 524 1310 524 1343 C524 1372 535 1396 557 1415 C579 1433 602 1442 625 1442 C672 1442 697 1408 697 1373 C697 1344 686 1321 664 1302 C642 1283 619 1274 596 1274 L596 1274 Z M572 1141 C633 1141 693 1165 750 1213 C807 1260 835 1321 835 1396 C835 1440 819 1481 788 1519 C756 1557 710 1576 649 1576 C588 1576 528 1552 471 1504 C414 1455 385 1393 385 1318 C385 1275 401 1234 433 1197 C464 1160 511 1141 572 1141 L572 1141 Z " />
<glyph glyph-name="ogonek" unicode="&#x2db;" horiz-adv-x="1000" d="M335 -414 C425 -414 496 -394 548 -354 L501 -249 C460 -278 411 -292 355 -292 C312 -292 290 -277 290 -246 C290 -177 364 -95 511 -1 L324 -1 C165 -83 85 -177 85 -283 C85 -369 168 -413 335 -414 L335 -414 Z " />
<glyph glyph-name="tilde" unicode="&#x2dc;" horiz-adv-x="1000" d="M759 1222 C869 1222 946 1280 991 1396 L856 1473 C835 1419 799 1392 750 1392 C716 1392 671 1409 616 1444 C561 1478 508 1495 458 1495 C348 1495 272 1435 231 1315 L361 1243 C382 1297 418 1324 467 1324 C501 1324 546 1307 601 1273 C656 1239 708 1222 759 1222 L759 1222 Z " />
<glyph glyph-name="hungarumlaut" unicode="&#x2dd;" horiz-adv-x="1001" d="M664 1502 L415 1502 L157 1194 L343 1194 L664 1502 Z M1058 1502 L810 1502 L552 1194 L738 1194 L1058 1502 Z " />
<glyph glyph-name="&amp;#x3a9;" unicode="&#x3a9;" horiz-adv-x="1554" d="M1382 279 L1081 279 L1088 321 C1176 368 1264 431 1352 510 C1439 588 1485 735 1489 950 C1489 1086 1446 1201 1360 1295 C1248 1418 1098 1479 910 1479 C688 1479 498 1404 340 1255 C181 1106 101 921 99 702 C99 555 175 418 322 321 L315 279 L14 279 L-35 1 L547 1 L617 400 C464 457 394 578 394 711 C395 865 446 985 545 1072 C644 1158 750 1201 861 1201 C959 1201 1038 1170 1098 1109 C1158 1047 1188 975 1188 893 C1187 775 1152 671 1084 581 C1016 490 929 430 822 401 L751 1 L1333 1 L1382 279 Z " />
<glyph glyph-name="&amp;#x2126;" unicode="&#x2126;" horiz-adv-x="1554" d="M1382 279 L1081 279 L1088 321 C1176 368 1264 431 1352 510 C1439 588 1485 735 1489 950 C1489 1086 1446 1201 1360 1295 C1248 1418 1098 1479 910 1479 C688 1479 498 1404 340 1255 C181 1106 101 921 99 702 C99 555 175 418 322 321 L315 279 L14 279 L-35 1 L547 1 L617 400 C464 457 394 578 394 711 C395 865 446 985 545 1072 C644 1158 750 1201 861 1201 C959 1201 1038 1170 1098 1109 C1158 1047 1188 975 1188 893 C1187 775 1152 671 1084 581 C1016 490 929 430 822 401 L751 1 L1333 1 L1382 279 Z " />
<glyph glyph-name="pi" unicode="&#x3c0;" horiz-adv-x="1538" d="M1136 -23 C1159 -23 1189 -20 1226 -15 C1263 -10 1292 -2 1315 8 L1285 250 C1264 242 1246 238 1230 238 C1203 238 1190 258 1190 275 L1288 831 L1464 831 L1506 1069 L153 1069 L111 831 L287 831 L140 -1 L442 -1 L589 831 L986 831 L883 245 C880 227 878 210 878 193 C878 141 897 92 934 46 C971 0 1038 -23 1136 -23 L1136 -23 Z " />
<glyph glyph-name="uni1E9E" unicode="&#x1e9e;" horiz-adv-x="1428" d="M756 -23 C903 -23 1028 29 1130 134 C1232 238 1284 356 1287 488 C1287 569 1253 638 1186 697 C1119 756 1019 785 888 785 L1292 1137 C1235 1366 1081 1480 829 1480 C694 1480 569 1441 452 1363 C335 1285 265 1181 242 1050 L56 -1 L366 -1 L550 1041 C559 1090 587 1133 636 1168 C685 1203 734 1220 784 1220 C857 1220 928 1185 955 1128 L661 842 L618 600 L722 599 C901 599 977 541 977 456 C976 398 953 347 906 303 C859 259 809 237 756 237 C676 237 613 254 567 289 L451 45 C527 0 629 -23 756 -23 L756 -23 Z " />
<glyph glyph-name="endash" unicode="&#x2013;" horiz-adv-x="1334" d="M1097 423 L1136 646 L168 646 L128 423 L1097 423 Z " />
<glyph glyph-name="emdash" unicode="&#x2014;" horiz-adv-x="1938" d="M1884 423 L1923 646 L-14 646 L-53 423 L1884 423 Z " />
<glyph glyph-name="quoteleft" unicode="&#x2018;" horiz-adv-x="561" d="M303 843 C351 843 397 862 442 899 C487 936 509 984 509 1042 C509 1078 500 1110 483 1137 C465 1164 456 1185 456 1199 C456 1216 469 1245 495 1286 C521 1326 582 1384 679 1460 L622 1542 C515 1480 409 1401 303 1306 C197 1211 144 1106 144 993 C144 904 203 843 303 843 L303 843 Z " />
<glyph glyph-name="quoteright" unicode="&#x2019;" horiz-adv-x="562" d="M422 1542 C374 1542 328 1523 283 1486 C238 1449 216 1401 216 1343 C216 1307 225 1276 243 1249 C260 1222 269 1201 269 1186 C269 1169 256 1140 230 1100 C204 1059 143 1001 46 925 L103 843 C210 905 316 984 422 1079 C528 1174 581 1279 581 1392 C581 1481 522 1542 422 1542 L422 1542 Z " />
<glyph glyph-name="quotesinglbase" unicode="&#x201a;" horiz-adv-x="562" d="M211 345 C163 345 117 326 72 289 C27 252 5 204 5 146 C5 110 14 79 32 52 C49 25 58 4 58 -11 C58 -28 45 -57 19 -98 C-7 -138 -68 -196 -165 -272 L-108 -354 C-1 -292 105 -213 211 -118 C317 -23 370 82 370 195 C370 284 311 345 211 345 L211 345 Z " />
<glyph glyph-name="quotedblleft" unicode="&#x201c;" horiz-adv-x="1033" d="M303 843 C351 843 397 862 442 899 C487 936 509 984 509 1042 C509 1078 500 1110 483 1137 C465 1164 456 1185 456 1199 C456 1216 469 1245 495 1286 C521 1326 582 1384 679 1460 L622 1542 C515 1480 409 1401 303 1306 C197 1211 144 1106 144 993 C144 904 203 843 303 843 L303 843 Z M775 843 C823 843 869 862 914 899 C959 936 981 984 981 1042 C981 1078 972 1110 955 1137 C937 1164 928 1185 928 1199 C928 1216 941 1245 967 1286 C993 1326 1054 1384 1151 1460 L1094 1542 C987 1480 881 1401 775 1306 C669 1211 616 1106 616 993 C616 904 675 843 775 843 L775 843 Z " />
<glyph glyph-name="quotedblright" unicode="&#x201d;" horiz-adv-x="1034" d="M422 1542 C374 1542 328 1523 283 1486 C238 1449 216 1401 216 1343 C216 1307 225 1276 243 1249 C260 1222 269 1201 269 1186 C269 1169 256 1140 230 1100 C204 1059 143 1001 46 925 L103 843 C210 905 316 984 422 1079 C528 1174 581 1279 581 1392 C581 1481 522 1542 422 1542 L422 1542 Z M894 1542 C846 1542 800 1523 756 1486 C711 1449 689 1401 689 1343 C689 1307 698 1276 715 1249 C732 1222 741 1201 741 1186 C741 1169 728 1140 702 1100 C676 1059 615 1001 518 925 L575 843 C682 905 788 984 894 1079 C1000 1174 1053 1279 1053 1392 C1053 1481 994 1542 894 1542 L894 1542 Z " />
<glyph glyph-name="quotedblbase" unicode="&#x201e;" horiz-adv-x="1034" d="M211 345 C163 345 117 326 72 289 C27 252 5 204 5 146 C5 110 14 79 32 52 C49 25 58 4 58 -11 C58 -28 45 -57 19 -98 C-7 -138 -68 -196 -165 -272 L-108 -354 C-1 -292 105 -213 211 -118 C317 -23 370 82 370 195 C370 284 311 345 211 345 L211 345 Z M683 345 C635 345 589 326 545 289 C500 252 478 204 478 146 C478 110 487 79 504 52 C521 25 530 4 530 -11 C530 -28 517 -57 491 -98 C465 -138 404 -196 307 -272 L364 -354 C471 -292 577 -213 683 -118 C789 -23 842 82 842 195 C842 284 783 345 683 345 L683 345 Z " />
<glyph glyph-name="dagger" unicode="&#x2020;" horiz-adv-x="1336" d="M810 894 L1199 894 L1234 1092 L845 1092 L915 1485 L688 1485 L619 1092 L231 1092 L196 894 L584 894 L352 -422 L578 -422 L810 894 Z " />
<glyph glyph-name="daggerdbl" unicode="&#x2021;" horiz-adv-x="1336" d="M578 -422 L648 -29 L1036 -29 L1071 170 L683 170 L810 894 L1199 894 L1234 1092 L845 1092 L915 1485 L688 1485 L619 1092 L231 1092 L196 894 L584 894 L456 170 L68 170 L33 -29 L421 -29 L352 -422 L578 -422 Z " />
<glyph glyph-name="bullet" unicode="&#x2022;" horiz-adv-x="1333" d="M667 420 C752 420 825 450 885 511 C944 571 974 643 974 728 C974 813 944 886 884 946 C824 1006 752 1036 667 1036 C582 1036 509 1006 449 946 C389 886 359 813 359 728 C359 643 389 571 449 511 C509 450 582 420 667 420 L667 420 Z " />
<glyph glyph-name="ellipsis" unicode="&#x2026;" horiz-adv-x="1787" d="M148 -23 C200 -23 250 -3 299 39 C347 80 371 132 371 196 C371 233 358 267 331 299 C304 330 265 346 213 346 C162 346 112 326 63 285 C14 244 -10 192 -10 129 C-10 92 3 58 30 26 C57 -7 96 -23 148 -23 L148 -23 Z M761 -23 C813 -23 863 -3 912 39 C960 80 984 132 984 196 C984 233 971 267 944 299 C917 330 878 346 826 346 C775 346 725 326 677 285 C628 244 604 192 604 127 C604 91 617 57 644 25 C670 -7 709 -23 761 -23 L761 -23 Z M1374 -23 C1426 -23 1476 -3 1525 39 C1573 80 1597 132 1597 196 C1597 233 1584 267 1557 299 C1530 330 1491 346 1439 346 C1388 346 1338 326 1290 285 C1241 244 1217 192 1217 127 C1217 91 1230 57 1257 25 C1283 -7 1322 -23 1374 -23 L1374 -23 Z " />
<glyph glyph-name="perthousand" unicode="&#x2030;" horiz-adv-x="2775" d="M545 -23 L1692 1480 L1389 1480 L242 -23 L545 -23 Z M517 965 C478 965 448 977 428 1001 C407 1025 397 1051 397 1079 C397 1127 415 1167 452 1198 C489 1229 527 1244 566 1244 C605 1244 635 1232 655 1208 C675 1183 685 1157 685 1129 C685 1080 667 1041 631 1011 C594 980 556 965 517 965 L517 965 Z M475 728 C587 728 691 770 786 853 C881 936 929 1043 929 1174 C929 1248 902 1318 848 1383 C793 1448 713 1480 608 1480 C482 1480 375 1437 286 1350 C197 1263 153 1159 153 1036 C153 961 180 891 235 826 C290 761 370 728 475 728 L475 728 Z M1369 213 C1330 213 1300 225 1280 249 C1259 273 1249 299 1249 327 C1249 375 1267 415 1304 446 C1341 477 1379 492 1418 492 C1457 492 1487 480 1507 456 C1527 431 1537 405 1537 377 C1537 328 1519 289 1483 259 C1446 228 1408 213 1369 213 L1369 213 Z M1327 -24 C1439 -24 1543 18 1638 101 C1733 184 1781 291 1781 422 C1781 497 1754 566 1700 631 C1645 696 1565 728 1460 728 C1334 728 1227 685 1138 598 C1049 511 1005 407 1005 284 C1005 209 1032 139 1087 74 C1142 9 1222 -24 1327 -24 L1327 -24 Z M2168 -24 C2280 -24 2384 18 2479 101 C2574 184 2622 291 2622 422 C2622 497 2595 566 2541 631 C2486 696 2406 728 2301 728 C2175 728 2068 685 1979 598 C1890 511 1846 407 1846 284 C1846 209 1873 139 1928 74 C1983 9 2063 -24 2168 -24 L2168 -24 Z M2210 213 C2171 213 2141 225 2121 249 C2100 273 2090 299 2090 327 C2090 375 2108 415 2145 446 C2182 477 2220 492 2259 492 C2298 492 2328 480 2348 456 C2368 431 2378 405 2378 377 C2378 328 2360 289 2324 259 C2287 228 2249 213 2210 213 L2210 213 Z " />
<glyph glyph-name="guilsinglleft" unicode="&#x2039;" horiz-adv-x="915" d="M621 79 L434 534 L781 989 L520 989 L173 534 L359 79 L621 79 Z " />
<glyph glyph-name="guilsinglright" unicode="&#x203a;" horiz-adv-x="915" d="M327 79 L674 534 L488 989 L226 989 L413 534 L66 79 L327 79 Z " />
<glyph glyph-name="&amp;#x2044;" unicode="&#x2044;" horiz-adv-x="374" d="M-233 -16 L914 1487 L610 1487 L-537 -16 L-233 -16 Z " />
<glyph glyph-name="&amp;#x2215;" unicode="&#x2215;" horiz-adv-x="374" d="M-233 -16 L914 1487 L610 1487 L-537 -16 L-233 -16 Z " />
<glyph glyph-name="franc" unicode="&#x20a3;" horiz-adv-x="1334" d="M438 -1 L483 249 L939 249 L978 472 L522 472 L546 607 L1132 607 L1174 848 L588 848 L650 1197 L1356 1197 L1402 1457 L386 1457 L212 472 L16 472 L-23 249 L173 249 L129 -1 L438 -1 Z " />
<glyph glyph-name="lira" unicode="&#x20a4;" horiz-adv-x="1332" d="M1081 -1 L1122 235 L496 235 L533 441 L819 441 L857 654 L570 654 L597 804 L883 804 L921 1017 L634 1017 C645 1079 671 1129 710 1168 C749 1207 795 1227 849 1228 C908 1228 955 1216 990 1192 C1025 1167 1059 1129 1090 1077 L1299 1237 C1246 1320 1187 1382 1121 1421 C1054 1460 967 1480 860 1480 C737 1480 623 1436 520 1348 C417 1260 352 1150 325 1017 L218 1017 L180 804 L287 804 L260 654 L154 654 L116 441 L223 441 L186 235 L37 235 L-4 -1 L1081 -1 Z " />
<glyph glyph-name="Euro" unicode="&#x20ac;" horiz-adv-x="1333" d="M827 -24 C935 -24 1036 1 1129 52 L1175 312 C1073 253 972 224 871 224 C724 224 632 296 595 441 L961 441 L999 654 L576 654 C580 704 589 754 603 804 L1025 804 L1063 1017 L697 1017 C785 1160 902 1232 1049 1232 C1150 1232 1241 1203 1322 1144 L1368 1404 C1292 1455 1200 1480 1092 1480 C787 1480 551 1326 386 1017 L135 1017 L97 804 L307 804 C295 754 286 704 281 654 L71 654 L33 441 L284 441 C334 131 515 -24 827 -24 L827 -24 Z " />
<glyph glyph-name="uni20B9" unicode="&#x20b9;" horiz-adv-x="1333" d="M997 -2 L647 555 C834 615 956 722 1014 875 L1210 875 L1248 1088 L1051 1088 C1050 1146 1036 1198 1011 1245 L1276 1245 L1313 1457 L277 1457 L237 1234 L551 1234 C612 1234 659 1219 694 1190 C728 1160 748 1126 754 1088 L212 1088 L174 875 L717 875 C698 837 666 803 621 774 C576 744 523 729 462 729 L148 729 L109 506 L304 506 L622 -2 L997 -2 Z " />
<glyph glyph-name="uni20BA" unicode="&#x20ba;" horiz-adv-x="1335" d="M484 -1 C675 -1 847 61 999 184 C1151 307 1243 457 1274 635 L1007 635 C984 526 925 436 830 365 C735 294 635 259 530 259 L487 259 L532 515 L865 649 L907 887 L574 753 L606 935 L939 1069 L981 1306 L648 1172 L698 1457 L388 1457 L314 1037 L82 944 L40 707 L272 800 L240 618 L8 525 L-34 288 L198 381 L131 -1 L484 -1 Z " />
<glyph glyph-name="uni2113" unicode="&#x2113;" horiz-adv-x="920" d="M479 1221 C488 1274 513 1317 553 1350 C592 1383 636 1399 684 1399 C782 1399 831 1356 831 1270 C831 1173 789 1100 705 1053 L422 897 L479 1221 Z M422 -24 C545 -23 660 26 765 122 L779 200 C681 102 571 53 450 53 C356 53 309 107 309 214 C309 241 312 272 318 306 L409 825 L707 989 C778 1030 829 1071 859 1112 C888 1153 903 1206 903 1270 C903 1325 885 1374 848 1417 C811 1459 753 1480 674 1480 C562 1480 467 1449 388 1388 C309 1326 259 1243 239 1138 L172 759 L-3 662 L-16 590 L159 687 L99 347 C93 312 90 279 90 248 C90 67 201 -24 422 -24 L422 -24 Z " />
<glyph glyph-name="trademark" unicode="&#x2122;" horiz-adv-x="1651" d="M1558 729 L1687 1458 L1540 1458 L1248 1111 L1079 1458 L932 1458 L804 729 L991 729 L1057 1107 L1157 886 L1260 886 L1438 1107 L1371 729 L1558 729 Z M491 729 L591 1294 L800 1294 L829 1458 L222 1458 L193 1294 L402 1294 L303 729 L491 729 Z " />
<glyph glyph-name="estimated" unicode="&#x212e;" horiz-adv-x="1737" d="M1358 789 L378 789 L378 1137 C510 1291 673 1368 868 1368 C1063 1368 1226 1291 1358 1137 L1358 789 Z M868 -20 C1143 -20 1363 104 1527 351 L1424 411 C1283 201 1098 96 868 96 C673 96 510 173 378 326 L378 674 L1631 674 L1631 732 C1631 941 1556 1118 1407 1264 C1257 1410 1077 1483 868 1483 C659 1483 480 1410 330 1264 C180 1118 105 941 105 732 C105 523 180 345 330 199 C480 53 659 -20 868 -20 L868 -20 Z " />
<glyph glyph-name="onethird" unicode="&#x2153;" horiz-adv-x="1759" d="M545 732 L677 1475 L446 1475 L217 1357 L292 1173 L385 1221 L299 732 L545 732 Z M1215 -12 C1084 -12 996 35 949 128 L1139 270 C1156 227 1190 205 1239 205 C1296 205 1325 228 1325 275 C1325 297 1314 308 1291 308 L1198 309 L1220 433 L1286 433 C1325 433 1343 468 1343 500 C1343 525 1328 538 1298 538 C1255 538 1218 516 1185 473 L1045 614 C1125 707 1227 754 1351 754 C1428 754 1489 735 1532 698 C1575 661 1597 614 1597 557 C1597 482 1568 420 1510 372 C1549 343 1569 305 1569 260 C1569 189 1536 126 1469 71 C1402 16 1317 -12 1215 -12 L1215 -12 Z M472 -16 L1619 1487 L1316 1487 L168 -16 L472 -16 Z " />
<glyph glyph-name="twothirds" unicode="&#x2154;" horiz-adv-x="1757" d="M1203 -12 C1072 -12 984 35 937 128 L1127 270 C1144 227 1178 205 1227 205 C1284 205 1313 228 1313 275 C1313 298 1302 309 1279 309 L1186 309 L1208 433 L1274 433 C1311 433 1331 465 1331 500 C1331 525 1316 538 1286 538 C1243 538 1206 516 1173 473 L1033 614 C1113 707 1215 754 1339 754 C1416 754 1477 735 1520 698 C1563 661 1585 614 1585 557 C1585 475 1556 413 1498 372 C1537 343 1557 305 1557 260 C1557 185 1522 121 1453 68 C1384 15 1300 -12 1203 -12 L1203 -12 Z M704 732 L742 945 L552 945 L666 1032 C756 1101 801 1181 801 1272 C801 1331 779 1382 735 1424 C690 1466 626 1487 543 1487 C413 1487 307 1439 225 1342 L365 1200 C400 1247 442 1270 491 1270 C523 1270 551 1255 551 1228 C551 1209 545 1195 532 1184 L156 888 L129 732 L704 732 Z M460 -16 L1607 1487 L1304 1487 L157 -16 L460 -16 Z " />
<glyph glyph-name="partialdiff" unicode="&#x2202;" horiz-adv-x="1316" d="M544 247 C421 249 359 306 359 417 C360 492 384 559 429 616 C474 673 539 702 624 702 C715 702 800 674 877 619 C861 530 828 445 777 366 C726 287 649 247 544 247 L544 247 Z M497 -20 C750 -20 937 75 1058 266 C1179 456 1240 668 1240 903 C1240 1113 1183 1262 1069 1351 C955 1439 813 1483 644 1483 C561 1483 486 1470 419 1445 L484 1191 C520 1208 558 1216 597 1216 C706 1216 788 1186 841 1125 C894 1064 923 983 930 884 C855 938 769 965 670 965 C499 965 352 912 228 805 C103 698 40 552 38 368 C38 262 77 171 154 95 C231 18 346 -20 497 -20 L497 -20 Z " />
<glyph glyph-name="increment" unicode="&#x2206;" horiz-adv-x="1611" d="M460 279 L850 982 L991 279 L460 279 Z M1039 1457 L828 1457 L-36 -2 L1389 -2 L1039 1457 Z " />
<glyph glyph-name="product" unicode="&#x220f;" horiz-adv-x="1691" d="M1394 -427 L1730 1480 L226 1480 L-110 -427 L200 -427 L497 1257 L1381 1257 L1084 -427 L1394 -427 Z " />
<glyph glyph-name="summation" unicode="&#x2211;" horiz-adv-x="1691" d="M1433 -205 L292 -205 L982 526 L550 1257 L1691 1257 L1730 1480 L226 1480 L186 1257 L619 526 L-71 -205 L-111 -427 L1394 -427 L1433 -205 Z " />
<glyph glyph-name="minus" unicode="&#x2212;" horiz-adv-x="1334" d="M1132 620 L1171 843 L202 843 L163 620 L1132 620 Z " />
<glyph glyph-name="radical" unicode="&#x221a;" horiz-adv-x="1333" d="M688 -8 L1544 1899 L1308 1899 L627 379 L517 1092 L-24 955 L-3 739 L320 820 L453 -8 L688 -8 Z " />
<glyph glyph-name="infinity" unicode="&#x221e;" horiz-adv-x="1774" d="M450 548 C397 549 358 564 333 595 C307 625 294 659 294 696 C294 760 318 812 365 852 C412 891 461 911 514 911 C558 911 596 896 627 867 C658 837 686 805 711 771 L743 730 L696 688 C659 654 620 622 579 593 C537 563 494 548 450 548 L450 548 Z M1261 548 C1217 549 1180 564 1149 593 C1118 622 1090 654 1065 688 L1032 730 L1079 771 C1116 805 1156 837 1197 867 C1238 896 1281 911 1325 911 C1376 911 1415 895 1442 864 C1468 833 1481 799 1481 763 C1481 700 1454 646 1401 601 C1359 566 1312 548 1261 548 L1261 548 Z M1226 347 C1347 347 1453 391 1546 479 C1638 567 1685 674 1688 800 C1688 876 1660 947 1605 1013 C1550 1079 1468 1112 1361 1112 C1278 1110 1206 1090 1145 1052 C1083 1013 1022 967 962 914 L913 871 L878 914 C837 967 793 1014 746 1053 C699 1092 633 1112 549 1112 C428 1112 322 1070 229 985 C136 900 89 792 88 659 C88 583 116 512 171 446 C226 380 307 347 415 347 C498 347 570 367 631 406 C692 445 752 492 813 546 L863 588 L897 546 C939 492 984 446 1032 408 C1079 369 1144 349 1226 347 L1226 347 Z " />
<glyph glyph-name="integral" unicode="&#x222b;" horiz-adv-x="1186" d="M174 -428 C291 -425 392 -368 475 -257 C558 -145 613 -18 638 123 L863 1416 C888 1564 909 1657 926 1694 C943 1731 967 1750 999 1750 C990 1732 986 1711 986 1686 C986 1658 996 1632 1017 1607 C1037 1582 1067 1570 1107 1570 C1146 1570 1183 1586 1218 1618 C1252 1649 1269 1693 1269 1748 C1269 1844 1187 1892 1023 1892 C902 1892 800 1836 715 1723 C630 1610 575 1483 550 1341 L325 48 C298 -101 277 -194 261 -231 C244 -268 220 -286 189 -286 C197 -264 201 -244 201 -225 C201 -197 191 -171 171 -146 C150 -121 120 -109 80 -109 C41 -109 4 -125 -31 -157 C-65 -188 -82 -231 -82 -284 C-82 -380 3 -428 174 -428 L174 -428 Z " />
<glyph glyph-name="approxequal" unicode="&#x2248;" horiz-adv-x="1334" d="M897 775 C1011 775 1088 804 1127 861 L1166 1082 C1141 1058 1112 1038 1077 1022 C1042 1005 991 997 926 997 C859 997 786 1014 709 1048 C632 1081 566 1098 511 1098 C397 1098 320 1069 281 1011 L242 791 C267 815 297 835 332 852 C367 868 416 876 481 876 C548 876 621 859 698 826 C775 792 842 775 897 775 L897 775 Z M825 365 C939 365 1016 394 1055 452 L1094 672 C1069 648 1039 628 1004 612 C969 595 919 587 854 587 C787 587 714 604 637 638 C560 671 494 688 439 688 C325 688 248 659 209 601 L170 381 C195 405 224 425 259 442 C294 458 344 466 409 466 C476 466 549 449 626 416 C703 382 770 365 825 365 L825 365 Z " />
<glyph glyph-name="notequal" unicode="&#x2260;" horiz-adv-x="1334" d="M447 -24 L623 368 L1067 368 L1106 590 L722 590 L846 866 L1155 866 L1194 1089 L946 1089 L1121 1480 L886 1480 L711 1089 L267 1089 L227 866 L611 866 L487 590 L179 590 L140 368 L388 368 L212 -24 L447 -24 Z " />
<glyph glyph-name="lessequal" unicode="&#x2264;" horiz-adv-x="1334" d="M1113 628 L554 844 L1189 1061 L1231 1297 L241 944 L206 744 L1071 391 L1113 628 Z M90 87 L129 310 L1057 310 L1018 87 L90 87 Z " />
<glyph glyph-name="greaterequal" unicode="&#x2265;" horiz-adv-x="1334" d="M1134 744 L1169 944 L303 1297 L262 1061 L821 844 L185 628 L144 391 L1134 744 Z M90 87 L129 310 L1057 310 L1018 87 L90 87 Z " />
<glyph glyph-name="lozenge" unicode="&#x25ca;" horiz-adv-x="1169" d="M497 233 L370 728 L672 1223 L799 728 L497 233 Z M595 -1 L1076 728 L852 1457 L574 1457 L93 728 L317 -1 L595 -1 Z " />
<glyph glyph-name="&amp;#xf001;" unicode="&#xf001;" horiz-adv-x="1364" d="M401 -1 L548 833 L824 833 L866 1069 L589 1069 L596 1107 C611 1191 670 1235 807 1235 C850 1235 879 1230 892 1220 L935 1465 C894 1475 848 1480 797 1480 C667 1480 556 1450 465 1391 C374 1332 314 1224 287 1069 L84 1069 L42 833 L246 833 L99 -1 L401 -1 Z M1164 1191 C1211 1191 1256 1209 1300 1246 C1344 1283 1366 1330 1366 1388 C1366 1421 1354 1453 1330 1482 C1305 1511 1270 1525 1223 1525 C1176 1525 1130 1507 1087 1470 C1043 1433 1021 1385 1021 1326 C1021 1293 1033 1263 1057 1234 C1081 1205 1117 1191 1164 1191 L1164 1191 Z M1104 -1 L1293 1069 L991 1069 L802 -1 L1104 -1 Z " />
<glyph glyph-name="&amp;#xfb01;" unicode="&#xfb01;" horiz-adv-x="1364" d="M401 -1 L548 833 L824 833 L866 1069 L589 1069 L596 1107 C611 1191 670 1235 807 1235 C850 1235 879 1230 892 1220 L935 1465 C894 1475 848 1480 797 1480 C667 1480 556 1450 465 1391 C374 1332 314 1224 287 1069 L84 1069 L42 833 L246 833 L99 -1 L401 -1 Z M1164 1191 C1211 1191 1256 1209 1300 1246 C1344 1283 1366 1330 1366 1388 C1366 1421 1354 1453 1330 1482 C1305 1511 1270 1525 1223 1525 C1176 1525 1130 1507 1087 1470 C1043 1433 1021 1385 1021 1326 C1021 1293 1033 1263 1057 1234 C1081 1205 1117 1191 1164 1191 L1164 1191 Z M1104 -1 L1293 1069 L991 1069 L802 -1 L1104 -1 Z " />
<glyph glyph-name="&amp;#xf002;" unicode="&#xf002;" horiz-adv-x="1411" d="M401 -1 L548 833 L824 833 L866 1069 L590 1069 L597 1107 C612 1191 670 1235 807 1235 C850 1235 879 1230 893 1220 L936 1465 C895 1475 848 1480 797 1480 C667 1480 557 1450 466 1391 C375 1332 315 1224 288 1069 L84 1069 L43 833 L246 833 L99 -1 L401 -1 Z M1120 -1 L1378 1457 L1076 1457 L818 -1 L1120 -1 Z " />
<glyph glyph-name="&amp;#xfb02;" unicode="&#xfb02;" horiz-adv-x="1411" d="M401 -1 L548 833 L824 833 L866 1069 L590 1069 L597 1107 C612 1191 670 1235 807 1235 C850 1235 879 1230 893 1220 L936 1465 C895 1475 848 1480 797 1480 C667 1480 557 1450 466 1391 C375 1332 315 1224 288 1069 L84 1069 L43 833 L246 833 L99 -1 L401 -1 Z M1120 -1 L1378 1457 L1076 1457 L818 -1 L1120 -1 Z " />
<glyph glyph-name="uniFB00" unicode="&#xfb00;" horiz-adv-x="1570" d="M1085 -1 L1232 833 L1539 833 L1581 1069 L1274 1069 L1280 1107 C1297 1199 1364 1235 1491 1235 C1514 1235 1553 1230 1607 1220 L1650 1465 C1589 1475 1532 1480 1481 1480 C1351 1480 1240 1450 1149 1391 C1058 1332 998 1224 971 1069 L590 1069 L597 1107 C613 1200 684 1235 807 1235 C830 1235 859 1230 893 1220 L936 1465 C895 1475 849 1480 798 1480 C667 1480 556 1450 465 1391 C374 1332 314 1224 287 1069 L84 1069 L42 833 L246 833 L99 -1 L401 -1 L548 833 L929 833 L782 -1 L1085 -1 Z " />
<glyph glyph-name="uniFB03" unicode="&#xfb03;" horiz-adv-x="2064" d="M1086 -1 L1233 833 L1509 833 L1551 1069 L1274 1069 L1281 1107 C1296 1191 1355 1235 1491 1235 C1535 1235 1564 1230 1577 1220 L1620 1465 C1579 1475 1533 1480 1482 1480 C1352 1480 1241 1450 1150 1391 C1059 1332 999 1224 971 1069 L590 1069 L597 1107 C612 1191 671 1235 808 1235 C851 1235 880 1230 893 1220 L937 1465 C895 1475 849 1480 798 1480 C668 1480 557 1450 466 1391 C375 1332 315 1224 288 1069 L85 1069 L43 833 L246 833 L99 -1 L402 -1 L549 833 L930 833 L783 -1 L1086 -1 Z M1789 -1 L1977 1069 L1676 1069 L1487 -1 L1789 -1 Z M1846 1174 C1897 1174 1947 1194 1996 1235 C2044 1276 2068 1328 2068 1391 C2068 1428 2055 1462 2028 1494 C2001 1526 1961 1542 1910 1542 C1859 1542 1809 1522 1761 1481 C1712 1440 1688 1388 1688 1325 C1688 1288 1701 1254 1728 1222 C1755 1190 1794 1174 1846 1174 L1846 1174 Z " />
<glyph glyph-name="uniFB04" unicode="&#xfb04;" horiz-adv-x="2095" d="M1085 -1 L1232 833 L1509 833 L1550 1069 L1274 1069 L1281 1107 C1296 1191 1354 1235 1491 1235 C1534 1235 1563 1230 1577 1220 L1620 1465 C1579 1475 1532 1480 1481 1480 C1351 1480 1240 1450 1149 1391 C1058 1332 998 1224 971 1069 L590 1069 L597 1107 C612 1191 671 1235 807 1235 C850 1235 879 1230 893 1220 L936 1465 C895 1475 849 1480 798 1480 C668 1480 557 1450 466 1391 C374 1332 314 1224 287 1069 L84 1069 L42 833 L246 833 L99 -1 L401 -1 L548 833 L929 833 L782 -1 L1085 -1 Z M1805 -1 L2062 1457 L1759 1457 L1502 -1 L1805 -1 Z " />
</font>
</svg>
