<?xml version="1.0" encoding="UTF-8"?>
<svg xmlns="http://www.w3.org/2000/svg" xmlns:xlink="http://www.w3.org/1999/xlink" version="1.2" >
<font id="Guerrer Extralight">
<font-face  font-family="Guerrer" units-per-em="2048" ascent="1458" descent="-405" font-style="normal" font-weight="100" font-stretch="normal" cap-height="1457" x-height="1057" underline-position="-217" underline-thickness="150" />
<missing-glyph  horiz-adv-x="1024" d="" />
<glyph glyph-name="&amp;#x0;" d="" />
<glyph glyph-name="&amp;#x1d;" unicode="&#x1d;" d="" />
<glyph glyph-name="&amp;#x20;" unicode="&#x20;" horiz-adv-x="524" d="" />
<glyph glyph-name="&amp;#xa0;" unicode="&#xa0;" horiz-adv-x="524" d="" />
<glyph glyph-name="exclam" unicode="&#x21;" horiz-adv-x="665" d="M385 1480 L279 1480 L289 340 L375 340 L385 1480 Z M332 -23 C373 -23 407 10 407 51 C407 92 373 125 332 125 C291 125 258 92 258 51 C258 10 291 -23 332 -23 L332 -23 Z " />
<glyph glyph-name="quotedbl" unicode="&#x22;" horiz-adv-x="420" d="M362 1480 L268 1480 L283 1044 L347 1044 L362 1480 Z M152 1480 L58 1480 L73 1044 L137 1044 L152 1480 Z " />
<glyph glyph-name="numbersign" unicode="&#x23;" horiz-adv-x="1272" d="M391 476 L527 982 L899 982 L764 476 L391 476 Z M837 400 L1171 400 L1171 476 L857 476 L993 982 L1171 982 L1171 1059 L1013 1059 L1126 1481 L1033 1481 L920 1059 L547 1059 L660 1481 L567 1481 L454 1059 L100 1059 L100 982 L433 982 L298 476 L100 476 L100 400 L277 400 L164 -23 L257 -23 L371 400 L743 400 L630 -23 L723 -23 L837 400 Z " />
<glyph glyph-name="dollar" unicode="&#x24;" horiz-adv-x="1272" d="M680 -23 C826 -14 951 28 1056 103 C1161 178 1213 268 1213 374 C1213 473 1187 548 1135 599 C1083 650 1017 687 937 711 C857 734 773 753 686 767 C563 784 456 812 363 851 C270 889 224 965 224 1079 C224 1164 266 1236 349 1296 C432 1355 531 1385 647 1385 C740 1385 827 1367 907 1332 C986 1296 1045 1248 1082 1189 L1161 1248 C1050 1399 877 1463 680 1476 L680 1665 L592 1665 L592 1474 C455 1462 340 1419 249 1345 C158 1271 112 1182 112 1079 C112 980 138 906 190 855 C242 804 308 766 388 743 C468 719 552 700 639 686 C762 669 869 641 962 603 C1055 564 1101 488 1101 374 C1101 289 1055 216 963 157 C870 98 764 68 645 68 C540 68 438 92 337 139 C236 186 170 246 139 321 L59 269 C94 188 162 122 263 70 C364 17 473 -13 592 -22 L592 -208 L680 -208 L680 -23 Z " />
<glyph glyph-name="percent" unicode="&#x25;" horiz-adv-x="1860" d="M1419 1481 L1309 1481 L441 -23 L551 -23 L1419 1481 Z M484 816 C405 816 337 844 281 901 C224 957 196 1025 196 1105 C196 1184 224 1252 281 1309 C337 1365 405 1393 484 1393 C563 1393 631 1365 688 1309 C744 1252 772 1184 772 1105 C772 1025 744 957 688 901 C631 844 563 816 484 816 L484 816 Z M484 729 C588 729 677 766 750 839 C823 912 860 1001 860 1105 C860 1208 823 1297 750 1371 C677 1444 588 1481 484 1481 C380 1481 291 1444 218 1371 C145 1297 108 1208 108 1105 C108 1001 145 912 218 839 C291 766 380 729 484 729 L484 729 Z M1376 64 C1297 64 1229 92 1173 149 C1116 205 1088 273 1088 353 C1088 432 1116 500 1173 557 C1229 613 1297 641 1376 641 C1456 641 1524 613 1581 557 C1637 500 1665 432 1665 353 C1665 273 1637 205 1581 149 C1524 92 1456 64 1376 64 L1376 64 Z M1376 -23 C1480 -23 1569 14 1642 87 C1715 160 1752 249 1752 353 C1752 456 1715 545 1642 619 C1569 692 1480 729 1376 729 C1273 729 1184 692 1111 619 C1037 545 1000 456 1000 353 C1000 249 1037 160 1111 87 C1184 14 1273 -23 1376 -23 L1376 -23 Z " />
<glyph glyph-name="ampersand" unicode="&#x26;" horiz-adv-x="1408" d="M579 68 C452 68 359 98 298 158 C237 218 206 290 206 375 C206 443 236 509 297 573 L475 750 L990 267 C883 134 746 68 579 68 L579 68 Z M579 -23 C673 -23 763 -5 848 32 C933 68 1003 124 1059 200 L1272 0 L1399 0 L1112 272 L1385 660 L1269 660 L1043 339 L451 896 C378 966 342 1039 342 1115 C342 1204 374 1273 439 1320 C504 1367 582 1390 675 1390 C768 1390 846 1361 908 1302 C970 1243 1001 1181 1001 1115 L1098 1115 C1098 1216 1057 1303 975 1374 C892 1445 792 1481 675 1481 C554 1481 452 1449 369 1386 C286 1322 244 1232 244 1115 C244 1051 261 996 294 949 C327 902 365 858 410 817 L229 637 C148 554 108 467 108 375 C108 263 148 169 228 92 C308 15 425 -23 579 -23 L579 -23 Z " />
<glyph glyph-name="quotesingle" unicode="&#x27;" horiz-adv-x="210" d="M152 1480 L58 1480 L73 1044 L137 1044 L152 1480 Z " />
<glyph glyph-name="parenleft" unicode="&#x28;" horiz-adv-x="449" d="M441 -426 C376 -309 328 -162 297 13 C266 188 250 360 250 527 C250 695 266 867 297 1042 C328 1217 376 1363 441 1481 L343 1481 C221 1214 160 896 160 527 C160 158 221 -159 343 -426 L441 -426 L441 -426 Z " />
<glyph glyph-name="parenright" unicode="&#x29;" horiz-adv-x="449" d="M106 -426 C228 -159 289 158 289 527 C289 896 228 1214 106 1481 L8 1481 C73 1363 122 1217 153 1042 C184 867 199 695 199 527 C199 360 184 188 153 13 C122 -162 73 -309 8 -426 L106 -426 Z " />
<glyph glyph-name="asterisk" unicode="&#x2a;" horiz-adv-x="581" d="M458 1085 L342 1232 L523 1283 L499 1358 L322 1293 L330 1481 L251 1481 L259 1293 L82 1358 L58 1283 L239 1232 L123 1085 L186 1038 L290 1195 L395 1038 L458 1085 Z " />
<glyph glyph-name="plus" unicode="&#x2b;" horiz-adv-x="1272" d="M679 691 L1078 691 L1078 767 L679 767 L679 1170 L592 1170 L592 767 L193 767 L193 691 L592 691 L592 288 L679 288 L679 691 Z " />
<glyph glyph-name="comma" unicode="&#x2c;" horiz-adv-x="365" d="M28 -301 C110 -209 169 -139 204 -91 C239 -42 257 3 257 45 C257 100 223 125 183 125 C147 125 120 98 120 62 C120 47 127 30 141 11 C148 1 152 -9 152 -18 C152 -29 149 -43 142 -60 C123 -109 74 -178 -5 -269 L28 -301 Z " />
<glyph glyph-name="&amp;#x2d;" unicode="&#x2d;" horiz-adv-x="764" d="M656 572 L108 572 L108 485 L656 485 L656 572 Z " />
<glyph glyph-name="&amp;#xad;" unicode="&#xad;" horiz-adv-x="764" d="M656 572 L108 572 L108 485 L656 485 L656 572 Z " />
<glyph glyph-name="period" unicode="&#x2e;" horiz-adv-x="365" d="M182 -23 C223 -23 257 10 257 51 C257 92 223 125 182 125 C141 125 108 92 108 51 C108 10 141 -23 182 -23 L182 -23 Z " />
<glyph glyph-name="slash" unicode="&#x2f;" horiz-adv-x="624" d="M560 1481 L467 1481 L64 -23 L157 -23 L560 1481 Z " />
<glyph glyph-name="zero" unicode="0" horiz-adv-x="1272" d="M636 73 C519 73 428 108 364 179 C299 249 255 335 230 438 C205 540 192 644 192 751 C192 829 204 920 229 1024 C253 1128 297 1214 360 1282 C423 1350 515 1384 636 1384 C753 1384 844 1349 908 1279 C972 1208 1016 1122 1041 1021 C1066 920 1078 822 1078 729 C1078 632 1065 533 1040 432 C1015 331 970 246 906 177 C841 108 751 73 636 73 L636 73 Z M636 -23 C781 -23 894 17 974 98 C1053 178 1108 276 1139 393 C1169 509 1184 621 1184 729 C1184 838 1169 950 1139 1066 C1108 1181 1051 1279 966 1360 C881 1440 771 1480 636 1480 C490 1480 378 1440 299 1360 C220 1279 165 1181 134 1064 C103 947 87 836 87 729 C87 614 103 498 136 383 C168 267 224 170 304 93 C384 16 495 -23 636 -23 L636 -23 Z " />
<glyph glyph-name="one" unicode="1" horiz-adv-x="1272" d="M1086 90 L689 90 L689 1458 L583 1458 L187 1229 L232 1151 L583 1354 L583 90 L186 90 L186 -1 L1086 -1 L1086 90 Z " />
<glyph glyph-name="two" unicode="2" horiz-adv-x="1272" d="M1128 90 L325 90 L1032 824 C1105 897 1142 979 1142 1072 C1142 1190 1095 1288 1000 1365 C905 1442 781 1481 628 1481 C395 1481 228 1400 129 1238 L205 1179 C285 1315 424 1383 623 1383 C754 1383 855 1353 927 1293 C999 1233 1035 1160 1036 1073 C1036 1005 1010 945 958 893 L166 75 L166 -1 L1128 -1 L1128 90 Z " />
<glyph glyph-name="three" unicode="3" horiz-adv-x="1272" d="M610 -23 C764 -23 894 15 999 92 C1104 169 1156 265 1156 380 C1156 457 1125 529 1062 595 C999 661 918 706 819 729 C917 752 990 797 1039 863 C1088 929 1112 1001 1112 1078 C1112 1193 1068 1289 980 1366 C891 1443 770 1481 616 1481 C397 1481 240 1399 146 1235 L223 1173 C297 1313 427 1383 612 1383 C738 1383 835 1354 903 1296 C971 1237 1005 1165 1005 1079 C1005 994 969 923 898 864 C827 805 728 776 602 776 L498 776 L498 682 L602 682 C730 682 837 653 922 594 C1007 535 1050 464 1050 379 C1050 293 1008 221 924 163 C840 104 734 75 606 75 C507 75 422 95 353 135 C284 174 230 224 193 285 L116 223 C208 67 367 -23 610 -23 L610 -23 Z " />
<glyph glyph-name="four" unicode="4" horiz-adv-x="1272" d="M1003 299 L1184 299 L1184 389 L1003 389 L1003 757 L901 757 L901 389 L205 389 L832 1458 L716 1458 L87 384 L87 299 L901 299 L901 -1 L1003 -1 L1003 299 Z " />
<glyph glyph-name="five" unicode="5" horiz-adv-x="1272" d="M618 -24 C758 -24 883 21 993 110 C1103 199 1158 319 1158 470 C1158 610 1107 727 1005 822 C903 916 775 963 622 963 L319 963 L319 1368 L1047 1368 L1047 1458 L212 1458 L212 865 L618 865 C744 865 848 827 930 750 C1011 673 1052 580 1052 470 C1052 359 1011 266 928 189 C845 112 740 74 614 74 C430 74 290 150 191 298 L114 239 C235 80 398 -24 618 -24 L618 -24 Z " />
<glyph glyph-name="six" unicode="6" horiz-adv-x="1272" d="M639 74 C513 74 408 112 325 189 C241 266 199 359 199 470 C199 581 241 674 325 751 C408 827 513 865 639 865 C765 865 869 827 951 751 C1032 674 1073 581 1073 470 C1073 359 1032 266 951 189 C869 112 765 74 639 74 L639 74 Z M639 -23 C792 -23 921 24 1024 118 C1127 212 1179 329 1179 470 C1179 610 1128 727 1026 822 C924 916 796 963 643 963 C540 963 440 928 343 859 L738 1458 L620 1458 L204 809 C130 692 93 579 93 472 C93 331 146 213 251 119 C356 24 486 -23 639 -23 L639 -23 Z " />
<glyph glyph-name="seven" unicode="7" horiz-adv-x="1272" d="M1115 1372 L1115 1458 L156 1458 L156 1368 L1007 1368 L364 -1 L474 -1 L1115 1372 Z " />
<glyph glyph-name="eight" unicode="8" horiz-adv-x="1272" d="M635 67 C508 67 408 100 333 166 C258 231 220 310 220 403 C220 496 258 575 333 641 C408 706 508 739 635 739 C762 739 863 706 938 641 C1013 575 1050 496 1050 403 C1050 310 1013 231 938 166 C863 100 762 67 635 67 L635 67 Z M635 823 C534 823 453 851 390 906 C327 961 296 1028 296 1107 C296 1185 327 1252 390 1307 C453 1362 534 1390 635 1390 C736 1390 818 1362 881 1307 C944 1252 975 1185 975 1107 C975 1028 944 961 881 906 C818 851 736 823 635 823 L635 823 Z M635 -23 C793 -23 920 18 1015 101 C1110 183 1157 283 1157 400 C1157 487 1131 565 1080 634 C1028 703 951 753 849 784 C1004 857 1081 965 1081 1108 C1081 1211 1040 1298 957 1371 C874 1444 766 1480 635 1480 C504 1480 397 1444 314 1371 C231 1298 189 1211 189 1108 C189 965 267 857 422 784 C320 753 243 703 192 634 C140 565 114 487 114 400 C114 283 161 183 256 101 C351 18 477 -23 635 -23 L635 -23 Z " />
<glyph glyph-name="nine" unicode="9" horiz-adv-x="1272" d="M633 592 C507 592 403 630 322 707 C240 783 199 876 199 987 C199 1098 240 1191 322 1268 C403 1345 507 1383 633 1383 C759 1383 864 1345 948 1268 C1031 1191 1073 1098 1073 987 C1073 876 1031 783 948 707 C864 630 759 592 633 592 L633 592 Z M1068 648 C1142 765 1179 878 1179 985 C1179 1126 1126 1244 1021 1339 C916 1433 786 1480 633 1480 C480 1480 351 1433 248 1339 C145 1244 93 1127 93 987 C93 847 144 730 246 636 C348 541 476 494 629 494 C732 494 832 529 929 598 L534 -1 L652 -1 L1068 648 Z " />
<glyph glyph-name="colon" unicode="&#x3a;" horiz-adv-x="365" d="M182 -23 C223 -23 257 10 257 51 C257 92 223 125 182 125 C141 125 108 92 108 51 C108 10 141 -23 182 -23 L182 -23 Z M182 932 C223 932 257 965 257 1006 C257 1047 223 1081 182 1081 C141 1081 108 1047 108 1006 C108 965 141 932 182 932 L182 932 Z " />
<glyph glyph-name="&amp;#x3b;" unicode="&#x3b;" horiz-adv-x="365" d="M28 -324 C110 -232 169 -162 204 -114 C239 -65 257 -20 257 22 C257 77 231 103 183 103 C147 103 120 75 120 39 C120 24 127 7 141 -12 C148 -22 152 -32 152 -41 C152 -52 149 -66 142 -83 C123 -132 74 -201 -5 -292 L28 -324 Z M182 932 C223 932 257 965 257 1006 C257 1047 223 1081 182 1081 C141 1081 108 1047 108 1006 C108 965 141 932 182 932 L182 932 Z " />
<glyph glyph-name="&amp;#x37e;" unicode="&#x37e;" horiz-adv-x="365" d="M28 -324 C110 -232 169 -162 204 -114 C239 -65 257 -20 257 22 C257 77 231 103 183 103 C147 103 120 75 120 39 C120 24 127 7 141 -12 C148 -22 152 -32 152 -41 C152 -52 149 -66 142 -83 C123 -132 74 -201 -5 -292 L28 -324 Z M182 932 C223 932 257 965 257 1006 C257 1047 223 1081 182 1081 C141 1081 108 1047 108 1006 C108 965 141 932 182 932 L182 932 Z " />
<glyph glyph-name="less" unicode="&#x3c;" horiz-adv-x="1272" d="M1092 436 L305 729 L1092 1021 L1092 1114 L179 771 L179 686 L1092 344 L1092 436 Z " />
<glyph glyph-name="equal" unicode="&#x3d;" horiz-adv-x="1272" d="M1092 959 L179 959 L179 872 L1092 872 L1092 959 Z M1092 586 L179 586 L179 499 L1092 499 L1092 586 Z " />
<glyph glyph-name="greater" unicode="&#x3e;" horiz-adv-x="1272" d="M1092 686 L1092 771 L179 1114 L179 1021 L966 729 L179 436 L179 344 L1092 686 Z " />
<glyph glyph-name="question" unicode="&#x3f;" horiz-adv-x="1142" d="M611 696 C736 705 847 742 942 805 C1037 868 1084 959 1084 1078 C1084 1193 1035 1289 937 1366 C838 1442 712 1480 559 1480 C326 1480 159 1398 58 1234 L136 1173 C217 1313 356 1383 555 1383 C681 1383 783 1354 861 1295 C939 1236 978 1164 978 1079 C978 1000 943 932 872 876 C801 820 708 787 591 777 C552 774 523 746 523 702 L524 340 L611 340 L611 696 Z M568 -23 C609 -23 642 10 642 51 C642 92 608 125 568 125 C527 125 493 92 493 51 C493 10 527 -23 568 -23 L568 -23 Z " />
<glyph glyph-name="at" unicode="&#x40;" horiz-adv-x="1684" d="M809 502 C756 502 711 519 676 554 C641 589 623 633 623 687 C623 757 651 819 706 874 C761 929 823 956 893 956 C946 956 990 939 1025 905 C1060 871 1077 826 1078 771 C1078 742 1072 706 1059 664 C1046 621 1017 584 971 551 C924 518 870 502 809 502 L809 502 Z M872 -25 C1185 -25 1420 126 1576 428 L1482 428 C1342 177 1139 51 872 51 C683 51 523 117 390 249 C257 381 190 540 190 726 C190 913 257 1072 390 1204 C523 1336 683 1402 872 1402 C1059 1402 1209 1348 1320 1240 C1431 1132 1486 1003 1486 852 C1486 789 1462 715 1415 630 C1367 545 1293 502 1194 502 C1157 502 1121 529 1121 580 C1121 588 1122 595 1123 600 L1197 1015 L1120 1015 L1101 904 C1050 985 980 1026 892 1026 C801 1026 721 991 651 920 C581 849 546 769 546 678 C546 607 569 549 616 503 C662 456 720 433 791 433 C895 433 985 477 1062 564 C1062 477 1105 434 1190 434 C1319 434 1414 483 1475 582 C1536 681 1567 771 1567 852 C1567 1024 1504 1172 1378 1295 C1251 1418 1083 1479 872 1479 C661 1479 481 1406 332 1259 C183 1112 108 934 108 726 C108 519 183 343 332 196 C481 49 661 -25 872 -25 L872 -25 Z " />
<glyph glyph-name="A" unicode="A" horiz-adv-x="1458" d="M1379 -2 L767 1457 L689 1457 L78 -2 L199 -2 L395 491 L1062 491 L1258 -2 L1379 -2 Z M728 1330 L1029 574 L428 574 L728 1330 Z " />
<glyph glyph-name="B" unicode="B" horiz-adv-x="1374" d="M302 771 L302 1366 L738 1366 C824 1366 897 1335 958 1272 C1019 1209 1049 1133 1049 1044 C1049 969 1019 904 958 851 C897 798 824 771 738 771 L302 771 Z M302 89 L302 684 L856 684 C939 684 1011 657 1072 604 C1133 550 1163 486 1163 411 C1163 322 1134 247 1075 184 C1016 121 945 89 862 89 L302 89 Z M860 -2 C972 -2 1068 38 1147 118 C1226 197 1266 294 1266 408 C1266 491 1233 566 1168 633 C1103 700 1026 740 937 753 C1081 824 1153 922 1153 1047 C1153 1161 1113 1258 1032 1338 C951 1417 853 1457 738 1457 L198 1457 L198 -2 L860 -2 L860 -2 Z " />
<glyph glyph-name="C" unicode="C" horiz-adv-x="1465" d="M872 -24 C1079 -24 1257 47 1405 189 L1334 258 C1206 133 1052 71 872 71 C689 71 534 135 406 264 C278 392 214 547 214 728 C214 909 278 1064 406 1192 C534 1320 689 1384 872 1384 C1052 1384 1206 1322 1334 1197 L1405 1266 C1257 1409 1079 1480 872 1480 C659 1480 479 1407 331 1260 C182 1113 108 935 108 728 C108 520 182 343 331 196 C479 49 659 -24 872 -24 L872 -24 Z " />
<glyph glyph-name="D" unicode="D" horiz-adv-x="1524" d="M302 89 L302 1366 L670 1366 C847 1366 999 1304 1124 1179 C1249 1054 1312 904 1312 728 C1312 550 1249 399 1123 276 C996 152 845 90 670 90 L302 89 Z M670 -2 C876 -2 1052 69 1198 212 C1343 354 1416 526 1416 728 C1416 929 1343 1101 1198 1244 C1052 1386 876 1457 670 1457 L198 1457 L198 -2 L670 -2 L670 -2 Z " />
<glyph glyph-name="E" unicode="E" horiz-adv-x="1244" d="M1136 90 L302 90 L302 683 L1018 683 L1018 771 L302 771 L302 1366 L1136 1366 L1136 1457 L198 1457 L198 -2 L1136 -2 L1136 90 Z " />
<glyph glyph-name="F" unicode="F" horiz-adv-x="1194" d="M302 683 L1018 683 L1018 771 L302 771 L302 1366 L1136 1366 L1136 1457 L198 1457 L198 -2 L302 -2 L302 683 Z " />
<glyph glyph-name="G" unicode="G" horiz-adv-x="1578" d="M870 -24 C1043 -24 1202 19 1347 105 L1388 -2 L1417 -2 L1417 722 L1313 722 L1313 199 C1180 114 1033 71 870 71 C687 71 532 135 404 264 C276 392 212 547 212 728 C212 909 276 1064 404 1192 C532 1320 687 1384 870 1384 C1050 1384 1204 1322 1332 1197 L1403 1266 C1255 1409 1077 1480 870 1480 C657 1480 477 1407 330 1260 C182 1113 108 935 108 728 C108 520 182 343 330 196 C477 49 657 -24 870 -24 L870 -24 Z " />
<glyph glyph-name="H" unicode="H" horiz-adv-x="1512" d="M1314 1457 L1210 1457 L1210 771 L302 771 L302 1457 L198 1457 L198 -2 L302 -2 L302 684 L1210 684 L1210 -2 L1314 -2 L1314 1457 Z " />
<glyph glyph-name="I" unicode="I" horiz-adv-x="500" d="M302 1457 L198 1457 L198 -2 L302 -2 L302 1457 Z " />
<glyph glyph-name="J" unicode="J" horiz-adv-x="1246" d="M597 -24 C720 -24 826 17 915 99 C1004 180 1049 282 1049 405 L1049 1457 L945 1457 L945 401 C945 306 910 228 840 165 C770 102 689 71 597 71 C411 71 253 136 124 267 L60 196 C205 49 384 -24 597 -24 L597 -24 Z " />
<glyph glyph-name="K" unicode="K" horiz-adv-x="1352" d="M639 809 L1288 1457 L1141 1457 L302 604 L302 1457 L198 1457 L198 -3 L302 -3 L302 472 L565 735 L1184 -2 L1319 -2 L639 809 Z " />
<glyph glyph-name="L" unicode="L" horiz-adv-x="1153" d="M1125 89 L302 89 L302 1457 L198 1457 L198 -2 L1125 -2 L1125 89 Z " />
<glyph glyph-name="M" unicode="M" horiz-adv-x="1759" d="M1561 1457 L1473 1457 L879 645 L286 1457 L198 1457 L198 -2 L299 -2 L299 1299 L847 528 L912 528 L1460 1299 L1460 -2 L1561 -2 L1561 1457 Z " />
<glyph glyph-name="N" unicode="N" horiz-adv-x="1595" d="M1397 1457 L1296 1457 L1296 161 L286 1457 L198 1457 L198 -2 L299 -2 L299 1293 L1310 -2 L1397 -2 L1397 1457 Z " />
<glyph glyph-name="O" unicode="O" horiz-adv-x="1744" d="M872 70 C690 70 535 134 406 263 C277 391 212 546 212 727 C212 908 277 1063 406 1192 C535 1320 690 1384 872 1384 C1054 1384 1210 1320 1339 1192 C1468 1063 1532 908 1532 727 C1532 546 1468 391 1339 263 C1210 134 1054 70 872 70 L872 70 Z M872 -25 C1083 -25 1263 49 1412 196 C1561 343 1636 520 1636 727 C1636 935 1561 1112 1412 1259 C1263 1406 1083 1479 872 1479 C661 1479 481 1406 332 1259 C183 1112 108 935 108 727 C108 520 183 343 332 196 C481 49 661 -25 872 -25 L872 -25 Z " />
<glyph glyph-name="P" unicode="P" horiz-adv-x="1328" d="M302 690 L302 1365 L755 1365 C848 1365 933 1340 1008 1289 C1083 1238 1120 1151 1120 1028 C1120 905 1083 818 1008 767 C933 716 848 690 755 690 L302 690 Z M302 599 L759 599 C892 599 1003 636 1090 711 C1177 785 1220 891 1220 1028 C1220 1176 1173 1285 1080 1354 C986 1423 879 1457 759 1457 L198 1457 L198 -3 L302 -3 L302 599 Z " />
<glyph glyph-name="Q" unicode="Q" horiz-adv-x="1744" d="M872 70 C690 70 535 134 406 263 C277 391 212 546 212 727 C212 908 277 1063 406 1192 C535 1320 690 1384 872 1384 C1054 1384 1210 1320 1339 1192 C1468 1063 1532 908 1532 727 C1532 546 1468 391 1339 263 C1210 134 1054 70 872 70 L872 70 Z M1187 -432 C1227 -431 1266 -428 1304 -423 L1304 -339 C1273 -346 1237 -349 1198 -349 C1123 -349 1058 -325 1004 -277 C950 -228 923 -167 923 -93 L923 -20 C1126 -4 1296 74 1432 215 C1568 356 1636 526 1636 727 C1636 933 1561 1110 1412 1258 C1263 1405 1083 1479 872 1479 C661 1479 481 1406 332 1259 C183 1112 108 935 108 727 C108 528 176 358 312 217 C448 76 618 -3 821 -20 L821 -93 C821 -196 857 -278 928 -339 C999 -399 1085 -430 1187 -432 L1187 -432 Z " />
<glyph glyph-name="R" unicode="R" horiz-adv-x="1355" d="M302 690 L302 1365 L755 1365 C848 1365 933 1340 1008 1289 C1083 1238 1120 1151 1120 1028 C1120 905 1083 818 1008 767 C933 716 848 690 755 690 L302 690 Z M816 609 C936 619 1033 659 1108 730 C1183 801 1220 900 1220 1028 C1220 1176 1173 1285 1080 1354 C986 1423 879 1457 759 1457 L198 1457 L198 -3 L302 -3 L302 599 L696 599 L1171 -3 L1301 -3 L816 609 Z " />
<glyph glyph-name="S" unicode="S" horiz-adv-x="1329" d="M683 -24 C834 -24 966 15 1080 93 C1194 171 1251 265 1251 375 C1248 482 1217 558 1156 605 C1095 652 1019 687 928 710 L512 826 C357 869 262 948 262 1081 C262 1166 304 1239 387 1298 C470 1357 569 1386 685 1386 C778 1386 865 1368 945 1333 C1025 1297 1083 1250 1120 1191 L1199 1249 C1066 1413 887 1479 683 1479 C536 1479 411 1440 307 1363 C202 1285 150 1191 150 1080 C150 981 180 908 241 859 C302 810 370 775 445 753 L879 629 C954 610 1017 583 1066 548 C1115 513 1139 455 1139 374 C1139 289 1093 217 1001 158 C908 99 802 69 683 69 C578 69 476 93 375 140 C274 187 208 248 177 322 L97 271 C136 183 212 112 327 58 C442 3 560 -24 683 -24 L683 -24 Z " />
<glyph glyph-name="T" unicode="T" horiz-adv-x="1193" d="M648 1368 L1165 1368 L1165 1457 L28 1457 L28 1368 L544 1368 L544 -3 L648 -3 L648 1368 Z " />
<glyph glyph-name="U" unicode="U" horiz-adv-x="1503" d="M751 -25 C903 -25 1034 10 1143 79 C1252 148 1306 248 1306 380 L1306 1457 L1202 1457 L1202 391 C1202 280 1157 199 1067 147 C976 94 871 68 751 68 C626 68 520 99 433 162 C345 224 301 300 301 391 L301 1457 L197 1457 L197 380 C197 269 250 174 356 95 C461 15 593 -25 751 -25 L751 -25 Z " />
<glyph glyph-name="V" unicode="V" horiz-adv-x="1457" d="M1379 1457 L1258 1457 L729 155 L199 1457 L78 1457 L689 -2 L767 -2 L1379 1457 Z " />
<glyph glyph-name="W" unicode="W" horiz-adv-x="2017" d="M1988 1457 L1867 1457 L1485 161 L1055 1457 L961 1457 L536 161 L149 1457 L28 1457 L489 -2 L578 -2 L1008 1288 L1438 -2 L1528 -2 L1988 1457 Z " />
<glyph glyph-name="X" unicode="X" horiz-adv-x="1374" d="M754 727 L1311 1457 L1178 1457 L688 808 L196 1457 L63 1457 L620 727 L63 -2 L196 -2 L688 646 L1178 -2 L1311 -2 L754 727 Z " />
<glyph glyph-name="Y" unicode="Y" horiz-adv-x="1354" d="M729 704 L1301 1457 L1169 1457 L677 806 L186 1457 L53 1457 L625 705 L625 -2 L729 -2 L729 704 Z " />
<glyph glyph-name="Z" unicode="Z" horiz-adv-x="1226" d="M1118 89 L251 89 L1118 1389 L1118 1457 L108 1457 L108 1365 L975 1365 L108 65 L108 -2 L1118 -2 L1118 89 Z " />
<glyph glyph-name="bracketleft" unicode="&#x5b;" horiz-adv-x="449" d="M441 -322 L250 -322 L250 1376 L441 1376 L441 1458 L160 1458 L160 -405 L441 -405 L441 -322 Z " />
<glyph glyph-name="backslash" unicode="&#x5c;" horiz-adv-x="624" d="M560 -23 L157 1481 L64 1481 L467 -23 L560 -23 Z " />
<glyph glyph-name="bracketright" unicode="&#x5d;" horiz-adv-x="449" d="M289 -405 L289 1458 L8 1458 L8 1376 L199 1376 L199 -322 L8 -322 L8 -405 L289 -405 Z " />
<glyph glyph-name="asciicircum" unicode="&#x5e;" horiz-adv-x="1272" d="M689 1458 L584 1458 L115 729 L217 729 L637 1373 L1056 729 L1158 729 L689 1458 Z " />
<glyph glyph-name="underscore" unicode="&#x5f;" horiz-adv-x="1272" d="M1307 -328 L-37 -328 L-37 -405 L1307 -405 L1307 -328 Z " />
<glyph glyph-name="grave" unicode="&#x60;" horiz-adv-x="870" d="M363 1485 L249 1485 L543 1178 L621 1178 L363 1485 Z " />
<glyph glyph-name="a" unicode="a" horiz-adv-x="1184" d="M529 58 C448 58 374 78 307 119 C239 160 205 220 205 300 C205 380 238 437 304 472 C369 506 441 523 519 523 L923 523 L923 307 C923 248 883 192 804 139 C724 85 632 58 529 58 L529 58 Z M487 -23 C700 -23 848 47 933 188 L933 -1 L1024 -1 L1024 750 C1024 862 974 945 873 999 C772 1053 668 1080 559 1080 C493 1080 425 1069 356 1047 C287 1024 227 988 178 939 L243 875 C330 963 442 992 561 992 C653 992 736 969 811 922 C886 875 923 816 923 747 L923 601 L518 601 C412 601 317 575 232 524 C147 472 104 395 104 294 C104 198 144 121 223 64 C302 6 390 -23 487 -23 L487 -23 Z " />
<glyph glyph-name="b" unicode="b" horiz-adv-x="1370" d="M709 65 C583 65 475 110 386 201 C297 292 252 401 252 529 C252 657 297 766 386 857 C475 947 583 992 709 992 C835 992 943 947 1032 857 C1121 766 1165 657 1165 529 C1165 401 1121 292 1032 201 C943 110 835 65 709 65 L709 65 Z M726 -23 C876 -23 1004 31 1109 139 C1214 246 1267 376 1267 529 C1267 681 1214 811 1109 919 C1004 1026 876 1080 726 1080 C522 1080 367 980 261 781 L261 1458 L160 1458 L160 0 L252 0 L252 293 C357 82 515 -23 726 -23 L726 -23 Z " />
<glyph glyph-name="c" unicode="c" horiz-adv-x="1106" d="M681 -24 C813 -24 933 17 1042 100 L983 171 C898 100 798 65 683 65 C553 65 441 110 348 200 C255 289 208 399 208 528 C208 657 255 767 348 857 C441 946 553 991 683 991 C798 991 898 956 983 885 L1042 956 C933 1038 813 1079 681 1079 C526 1079 391 1028 278 926 C165 823 107 691 104 528 C105 365 163 233 277 130 C391 27 526 -24 681 -24 L681 -24 Z " />
<glyph glyph-name="d" unicode="d" horiz-adv-x="1370" d="M662 65 C536 65 428 110 339 201 C250 292 205 401 205 529 C205 657 250 766 339 857 C428 947 536 992 662 992 C788 992 896 947 985 857 C1074 766 1119 657 1119 529 C1119 401 1074 292 985 201 C896 110 788 65 662 65 L662 65 Z M645 -23 C856 -23 1014 82 1119 293 L1119 0 L1211 0 L1211 1458 L1109 1458 L1109 781 C1003 980 848 1080 645 1080 C495 1080 367 1026 262 919 C157 811 104 681 104 529 C104 376 157 246 262 139 C367 31 495 -23 645 -23 L645 -23 Z " />
<glyph glyph-name="e" unicode="e" horiz-adv-x="1231" d="M206 574 C213 692 255 792 332 874 C409 956 512 997 639 997 C892 997 1035 853 1066 574 L206 574 Z M678 -24 C810 -24 938 17 1061 100 L1002 170 C901 99 793 64 678 64 C547 64 437 106 349 189 C261 272 214 373 207 494 L1164 494 L1167 528 C1167 686 1119 817 1022 922 C925 1027 798 1079 639 1079 C481 1079 353 1027 254 922 C155 817 105 686 104 529 C107 372 163 240 272 135 C381 29 516 -24 678 -24 L678 -24 Z " />
<glyph glyph-name="f" unicode="f" horiz-adv-x="823" d="M377 974 L758 974 L758 1057 L377 1057 L377 1146 C377 1218 404 1278 458 1326 C512 1374 577 1398 653 1398 C692 1398 727 1395 758 1389 L758 1473 C721 1478 682 1481 641 1481 C540 1480 454 1449 383 1390 C312 1330 276 1249 276 1146 L276 1057 L40 1057 L40 974 L276 974 L276 -1 L377 -1 L377 974 Z " />
<glyph glyph-name="g" unicode="g" horiz-adv-x="1371" d="M651 -428 C804 -428 935 -384 1045 -297 C1155 -209 1210 -88 1210 66 L1211 1057 L1119 1057 L1119 764 C1014 974 856 1079 645 1079 C495 1079 367 1025 262 918 C157 810 104 680 104 528 C104 375 157 247 262 142 C367 37 494 -16 644 -16 C847 -16 1002 83 1108 281 L1108 66 C1108 -59 1063 -157 974 -229 C885 -301 776 -337 648 -337 C520 -337 408 -300 311 -227 L262 -298 C384 -385 514 -428 651 -428 L651 -428 Z M662 65 C536 65 428 110 339 201 C250 291 205 400 205 528 C205 656 250 765 339 856 C428 946 536 991 662 991 C788 991 896 946 985 856 C1074 765 1119 656 1119 528 C1119 400 1074 291 985 201 C896 110 788 65 662 65 L662 65 Z " />
<glyph glyph-name="h" unicode="h" horiz-adv-x="1284" d="M1124 668 C1121 793 1078 893 995 968 C912 1043 807 1080 681 1080 C586 1080 501 1056 426 1009 C351 961 296 902 261 831 L261 1458 L160 1458 L160 -1 L261 -1 L261 626 C261 727 300 813 377 886 C454 959 547 995 658 995 C762 995 848 965 917 904 C985 843 1020 762 1022 659 L1023 -1 L1124 -1 L1124 668 Z " />
<glyph glyph-name="i" unicode="i" horiz-adv-x="422" d="M262 1057 L160 1057 L160 -1 L262 -1 L262 1057 Z M211 1338 C251 1338 282 1370 282 1410 C282 1449 251 1481 211 1481 C172 1481 140 1449 140 1410 C140 1370 172 1338 211 1338 L211 1338 Z " />
<glyph glyph-name="j" unicode="j" horiz-adv-x="442" d="M-94 -427 C7 -426 94 -395 165 -334 C236 -273 271 -192 271 -89 L271 1057 L170 1057 L170 -89 C170 -163 143 -224 89 -272 C35 -320 -30 -344 -105 -344 C-145 -344 -180 -341 -211 -335 L-211 -419 C-174 -424 -135 -427 -94 -427 L-94 -427 Z M221 1338 C260 1338 292 1370 292 1410 C292 1449 260 1481 221 1481 C181 1481 149 1449 149 1410 C149 1370 181 1338 221 1338 L221 1338 Z " />
<glyph glyph-name="k" unicode="k" horiz-adv-x="1082" d="M568 602 L1023 1057 L879 1057 L261 420 L261 1458 L160 1458 L160 -1 L261 -1 L261 296 L496 530 L942 -1 L1074 -1 L568 602 Z " />
<glyph glyph-name="l" unicode="l" horiz-adv-x="451" d="M276 1458 L175 1458 L175 -1 L276 -1 L276 1458 Z " />
<glyph glyph-name="m" unicode="m" horiz-adv-x="1791" d="M1631 703 C1631 804 1598 892 1533 967 C1467 1042 1381 1079 1276 1079 C1179 1077 1105 1053 1052 1007 C999 961 959 906 934 841 C870 1000 761 1079 608 1079 C441 1079 335 995 275 844 L275 1056 L183 1056 L183 -2 L284 -2 L284 672 C284 766 314 843 375 902 C435 961 505 991 585 991 C658 991 722 964 777 911 C832 858 859 789 859 704 L859 -2 L960 -2 L960 673 C960 756 988 829 1044 894 C1100 959 1172 991 1260 991 C1332 991 1395 964 1449 911 C1503 858 1530 789 1530 704 L1530 -2 L1631 -2 L1631 703 Z " />
<glyph glyph-name="n" unicode="n" horiz-adv-x="1307" d="M1147 663 C1144 791 1102 892 1019 967 C936 1042 831 1079 705 1079 C607 1079 519 1054 442 1003 C365 952 309 889 275 813 L275 1056 L183 1056 L183 -2 L284 -2 L284 626 C284 727 323 814 400 885 C477 956 570 991 681 991 C784 991 870 961 939 902 C1008 843 1043 762 1045 660 L1046 -2 L1147 -2 L1147 663 Z " />
<glyph glyph-name="o" unicode="o" horiz-adv-x="1317" d="M659 64 C534 64 427 109 338 200 C249 291 205 400 205 528 C205 656 249 765 338 856 C427 946 534 991 659 991 C784 991 890 946 979 856 C1068 765 1112 656 1112 528 C1112 400 1068 291 979 200 C890 109 784 64 659 64 L659 64 Z M659 -24 C812 -24 942 30 1051 138 C1159 245 1213 375 1213 528 C1213 680 1159 810 1051 918 C942 1025 812 1079 659 1079 C506 1079 375 1025 267 918 C158 810 104 680 104 528 C104 375 158 245 267 138 C375 30 506 -24 659 -24 L659 -24 Z " />
<glyph glyph-name="p" unicode="p" horiz-adv-x="1371" d="M709 64 C583 64 475 109 386 200 C297 290 252 399 252 527 C252 655 297 764 386 855 C475 945 583 990 709 990 C835 990 943 945 1032 855 C1121 764 1165 655 1165 527 C1165 399 1121 290 1032 200 C943 109 835 64 709 64 L709 64 Z M261 273 C367 74 522 -25 726 -25 C876 -25 1004 29 1109 137 C1214 244 1267 374 1267 527 C1267 679 1214 809 1109 917 C1004 1024 876 1078 726 1078 C515 1078 357 973 252 763 L252 1056 L160 1056 L160 -406 L261 -406 L261 273 Z " />
<glyph glyph-name="q" unicode="q" horiz-adv-x="1371" d="M662 64 C536 64 428 109 339 200 C250 290 205 399 205 527 C205 655 250 764 339 855 C428 945 536 990 662 990 C788 990 896 945 985 855 C1074 764 1119 655 1119 527 C1119 399 1074 290 985 200 C896 109 788 64 662 64 L662 64 Z M1211 1056 L1119 1056 L1119 763 C1014 973 856 1078 645 1078 C495 1078 367 1024 262 917 C157 809 104 679 104 527 C104 374 157 244 262 137 C367 29 495 -25 645 -25 C848 -25 1003 75 1109 274 L1109 -406 L1211 -406 L1211 1056 Z " />
<glyph glyph-name="r" unicode="r" horiz-adv-x="750" d="M261 669 C261 762 292 839 353 900 C414 960 484 990 564 990 C599 990 634 983 669 970 L707 1053 C667 1070 624 1078 578 1078 C423 1078 315 1000 252 845 L252 1055 L160 1055 L160 -3 L261 -3 L261 669 Z " />
<glyph glyph-name="s" unicode="s" horiz-adv-x="1041" d="M519 -25 C627 -25 724 2 809 57 C894 111 937 180 937 264 C937 338 913 394 865 431 C817 468 761 495 698 512 L367 611 C267 642 206 695 206 783 C209 908 315 995 535 995 C652 995 756 961 847 894 L896 967 C781 1041 655 1078 516 1078 C403 1078 306 1050 223 993 C140 936 98 864 98 775 C98 647 182 576 306 540 L654 432 C771 395 829 337 829 264 C829 205 799 156 738 117 C677 77 597 57 499 57 C320 57 199 111 118 200 L64 136 C156 28 310 -25 519 -25 L519 -25 Z " />
<glyph glyph-name="t" unicode="t" horiz-adv-x="822" d="M641 -23 C678 -23 717 -20 758 -15 L758 69 C727 63 692 60 653 60 C577 60 512 84 458 132 C404 180 377 241 377 316 L377 989 L758 989 L758 1073 L377 1073 L377 1404 L276 1368 L276 1073 L40 1073 L40 989 L276 989 L276 316 C276 213 312 131 383 70 C454 9 540 -22 641 -23 L641 -23 Z " />
<glyph glyph-name="u" unicode="u" horiz-adv-x="1282" d="M593 -25 C790 -25 928 64 1008 242 L1008 -2 L1100 -2 L1100 1057 L999 1057 L999 429 C999 328 963 242 890 171 C817 100 725 64 614 64 C511 64 427 94 362 153 C297 212 263 292 262 395 L261 1057 L160 1057 L160 391 C163 264 204 163 284 88 C364 13 467 -25 593 -25 L593 -25 Z " />
<glyph glyph-name="v" unicode="v" horiz-adv-x="1080" d="M1052 1057 L930 1057 L540 92 L149 1057 L28 1057 L490 -2 L589 -2 L1052 1057 Z " />
<glyph glyph-name="w" unicode="w" horiz-adv-x="1627" d="M1599 1057 L1476 1057 L1172 93 L863 1057 L766 1057 L455 93 L151 1057 L28 1057 L405 -2 L504 -2 L813 910 L1123 -2 L1222 -2 L1599 1057 Z " />
<glyph glyph-name="x" unicode="x" horiz-adv-x="1020" d="M584 539 L991 1057 L864 1057 L510 597 L156 1057 L28 1057 L438 539 L28 -2 L156 -2 L510 481 L864 -2 L991 -2 L584 539 Z " />
<glyph glyph-name="y" unicode="y" horiz-adv-x="1070" d="M222 -428 C303 -428 362 -410 399 -375 C436 -339 470 -283 500 -208 L1034 1057 L923 1057 L549 153 L163 1057 L48 1057 L506 43 L394 -218 C357 -303 299 -346 222 -346 C193 -346 159 -343 122 -338 L122 -421 C152 -426 185 -428 222 -428 L222 -428 Z " />
<glyph glyph-name="z" unicode="z" horiz-adv-x="1076" d="M972 81 L236 81 L972 973 L972 1057 L104 1057 L104 973 L841 973 L104 81 L104 -2 L972 -2 L972 81 Z " />
<glyph glyph-name="braceleft" unicode="&#x7b;" horiz-adv-x="449" d="M374 -322 L332 -322 C301 -322 276 -297 276 -265 L276 405 C276 461 242 510 195 527 C243 543 276 593 276 649 L276 1319 C276 1351 301 1376 332 1376 L374 1376 L374 1458 L325 1458 C286 1458 253 1445 226 1418 C199 1391 185 1358 185 1319 L185 649 C185 604 143 569 98 566 L98 488 C143 485 185 450 185 405 L185 -265 C185 -304 199 -337 226 -364 C253 -391 286 -405 325 -405 L374 -405 L374 -322 Z " />
<glyph glyph-name="bar" unicode="&#x7c;" horiz-adv-x="1272" d="M679 1481 L592 1481 L592 -426 L679 -426 L679 1481 Z " />
<glyph glyph-name="braceright" unicode="&#x7d;" horiz-adv-x="449" d="M124 -405 C163 -405 196 -391 223 -364 C250 -337 263 -304 263 -265 L263 405 C263 450 304 485 351 488 L351 566 C304 569 263 604 263 649 L263 1319 C263 1358 250 1391 223 1418 C196 1445 163 1458 124 1458 L75 1458 L75 1376 L116 1376 C148 1376 173 1351 173 1319 L173 649 C173 593 205 543 253 527 C206 510 173 461 173 405 L173 -265 C173 -297 148 -322 116 -322 L75 -322 L75 -405 L124 -405 Z " />
<glyph glyph-name="asciitilde" unicode="&#x7e;" horiz-adv-x="1272" d="M826 626 C927 626 1003 672 1053 764 L987 804 C950 738 895 705 824 705 C761 705 704 725 653 764 C592 809 523 832 444 832 C343 832 267 786 218 693 L283 654 C320 719 374 752 446 752 C509 752 566 733 616 694 C677 649 747 626 826 626 L826 626 Z " />
<glyph glyph-name="exclamdown" unicode="&#xa1;" horiz-adv-x="665" d="M279 -425 L385 -425 L375 715 L289 715 L279 -425 Z M332 1078 C291 1078 257 1045 257 1004 C257 963 291 930 332 930 C373 930 406 963 406 1004 C406 1045 373 1078 332 1078 L332 1078 Z " />
<glyph glyph-name="cent" unicode="&#xa2;" horiz-adv-x="1272" d="M544 12 C607 -12 673 -24 742 -24 C873 -24 994 17 1103 99 L1043 169 C959 99 859 64 744 64 C614 64 503 109 410 199 C317 288 271 398 271 527 C271 657 317 767 410 857 C503 946 614 991 744 991 C859 991 959 956 1043 886 L1103 955 C1021 1018 929 1056 828 1070 L883 1279 L790 1279 L736 1078 C575 1071 440 1016 331 913 C222 810 168 681 168 527 C168 317 265 158 460 49 L387 -224 L481 -224 L544 12 Z " />
<glyph glyph-name="sterling" unicode="&#xa3;" horiz-adv-x="1272" d="M1134 83 L399 83 L399 695 L766 695 L766 776 L399 776 L399 1065 C399 1158 427 1234 483 1293 C539 1352 612 1383 703 1385 C790 1385 860 1368 915 1335 C969 1301 1020 1254 1069 1193 L1134 1258 C1076 1329 1015 1384 952 1423 C888 1462 803 1481 696 1481 C576 1481 479 1441 406 1360 C332 1279 295 1179 295 1061 L295 776 L178 776 L178 695 L295 695 L295 83 L138 83 L138 -1 L1134 -1 L1134 83 Z " />
<glyph glyph-name="currency" unicode="&#xa4;" horiz-adv-x="1272" d="M635 431 C555 431 486 460 427 518 C369 577 340 646 340 726 C340 807 369 877 427 936 C486 993 555 1021 635 1021 C716 1021 786 993 845 936 C902 877 931 807 931 726 C931 646 902 577 845 518 C786 460 716 431 635 431 L635 431 Z M1124 294 L925 491 C983 564 1012 643 1012 726 C1012 811 983 890 925 963 C939 976 1005 1041 1124 1160 L1069 1215 L871 1016 C798 1074 720 1103 635 1103 C552 1103 473 1074 400 1016 L203 1215 L148 1160 L347 963 C289 890 260 811 260 726 C260 643 289 564 347 491 L148 294 L203 239 L400 438 C473 380 552 351 635 351 C720 351 798 380 871 438 L1069 239 L1124 294 Z " />
<glyph glyph-name="yen" unicode="&#xa5;" horiz-adv-x="1272" d="M1128 1456 L636 805 L145 1456 L12 1456 L390 959 L141 959 L141 872 L456 872 L584 704 L584 586 L141 586 L141 499 L584 499 L584 -3 L688 -3 L688 499 L1131 499 L1131 586 L688 586 L688 704 L816 872 L1131 872 L1131 959 L882 959 L1260 1456 L1128 1456 Z " />
<glyph glyph-name="brokenbar" unicode="&#xa6;" horiz-adv-x="1272" d="M679 411 L592 411 L592 -426 L679 -426 L679 411 Z M679 1481 L592 1481 L592 643 L679 643 L679 1481 Z " />
<glyph glyph-name="section" unicode="&#xa7;" horiz-adv-x="1272" d="M1112 152 C1178 215 1211 288 1211 370 C1211 469 1185 543 1133 594 C1080 644 1014 681 934 704 C854 727 770 746 681 760 C556 777 445 806 350 845 C254 884 206 964 206 1083 C206 1172 249 1247 336 1309 C422 1370 526 1401 647 1401 C742 1401 830 1383 913 1346 C995 1309 1055 1261 1093 1201 L1159 1248 C1113 1317 1043 1373 950 1415 C856 1457 754 1478 645 1478 C499 1478 374 1440 271 1363 C167 1286 115 1192 115 1083 C115 1008 130 947 160 900 C94 837 61 764 61 681 C61 582 87 508 140 458 C192 407 258 370 338 347 C418 324 502 305 591 291 C716 274 827 245 923 206 C1018 167 1066 87 1066 -32 C1066 -120 1023 -195 937 -257 C850 -319 746 -350 625 -350 C530 -350 442 -332 360 -295 C277 -258 217 -210 179 -149 L113 -197 C159 -266 229 -322 323 -364 C416 -405 517 -426 626 -426 C773 -426 898 -388 1002 -311 C1105 -234 1157 -141 1157 -32 C1157 43 1142 105 1112 152 L1112 152 Z M216 839 C312 760 468 721 644 693 C770 676 881 647 977 608 C1072 569 1120 489 1120 370 C1120 312 1099 259 1056 212 C960 292 804 330 628 358 C502 375 391 404 296 443 C200 482 152 562 152 681 C152 739 173 792 216 839 L216 839 Z " />
<glyph glyph-name="dieresis" unicode="&#xa8;" horiz-adv-x="870" d="M285 1346 C321 1346 349 1374 349 1410 C349 1445 321 1474 285 1474 C250 1474 221 1445 221 1410 C221 1374 250 1346 285 1346 L285 1346 Z M584 1346 C619 1346 648 1374 648 1410 C648 1445 619 1474 584 1474 C549 1474 520 1445 520 1410 C520 1374 549 1346 584 1346 L584 1346 Z " />
<glyph glyph-name="copyright" unicode="&#xa9;" horiz-adv-x="1894" d="M947 53 C759 53 598 119 465 251 C332 382 265 541 265 727 C265 913 332 1072 465 1204 C598 1335 759 1401 947 1401 C1135 1401 1296 1335 1429 1204 C1562 1072 1628 913 1628 727 C1628 541 1562 382 1429 251 C1296 119 1135 53 947 53 L947 53 Z M947 -25 C1158 -25 1338 48 1487 195 C1636 342 1711 519 1711 727 C1711 934 1636 1112 1487 1259 C1338 1406 1158 1479 947 1479 C736 1479 556 1406 407 1259 C258 1112 183 934 183 727 C183 519 258 342 407 195 C556 48 736 -25 947 -25 L947 -25 Z M959 387 C1044 387 1118 413 1183 464 L1139 523 C1088 480 1028 458 959 458 C884 458 820 484 765 536 C710 587 682 651 682 727 C682 803 710 867 765 918 C820 969 884 995 959 995 C1028 995 1088 974 1139 931 L1183 990 C1118 1041 1044 1067 959 1067 C864 1067 782 1035 712 970 C641 905 606 824 606 727 C606 630 641 550 712 485 C782 420 864 387 959 387 L959 387 Z " />
<glyph glyph-name="ordfeminine" unicode="&#xaa;" horiz-adv-x="810" d="M360 788 C312 788 265 800 218 825 C171 850 148 889 148 944 C148 999 171 1037 216 1059 C261 1080 307 1091 353 1091 L619 1091 L619 949 C619 899 587 860 523 831 C459 802 405 788 360 788 L360 788 Z M331 718 C470 718 568 760 626 844 L626 732 L702 732 L702 1249 C702 1328 667 1386 597 1424 C527 1461 452 1480 371 1480 C272 1480 185 1446 110 1377 L166 1324 C235 1379 307 1406 381 1406 C426 1406 477 1393 534 1367 C591 1341 619 1301 619 1248 L619 1153 L351 1153 C285 1153 221 1137 158 1104 C95 1071 64 1016 64 941 C64 869 93 814 151 776 C208 737 268 718 331 718 L331 718 Z " />
<glyph glyph-name="guillemotleft" unicode="&#xab;" horiz-adv-x="1136" d="M321 529 L583 984 L483 984 L220 529 L483 74 L583 74 L321 529 Z M679 529 L942 984 L841 984 L579 529 L841 74 L942 74 L679 529 Z " />
<glyph glyph-name="logicalnot" unicode="&#xac;" horiz-adv-x="1272" d="M1165 694 L106 694 L106 617 L1078 617 L1078 364 L1165 364 L1165 694 Z " />
<glyph glyph-name="registered" unicode="&#xae;" horiz-adv-x="1894" d="M806 720 L806 1003 L994 1003 C1095 1003 1146 956 1147 861 C1147 767 1098 720 1001 720 L806 720 Z M1046 670 C1157 689 1213 753 1213 861 C1213 996 1141 1063 997 1064 L736 1064 L736 390 L806 390 L806 662 L967 662 L1177 390 L1264 390 L1046 670 Z M947 53 C759 53 598 119 465 251 C332 382 265 541 265 727 C265 913 332 1072 465 1204 C598 1335 759 1401 947 1401 C1135 1401 1296 1335 1429 1204 C1562 1072 1628 913 1628 727 C1628 541 1562 382 1429 251 C1296 119 1135 53 947 53 L947 53 Z M947 -25 C1158 -25 1338 48 1487 195 C1636 342 1711 519 1711 727 C1711 934 1636 1112 1487 1259 C1338 1406 1158 1479 947 1479 C736 1479 556 1406 407 1259 C258 1112 183 934 183 727 C183 519 258 342 407 195 C556 48 736 -25 947 -25 L947 -25 Z " />
<glyph glyph-name="overscore" unicode="&#xaf;" horiz-adv-x="870" d="M727 1396 L142 1396 L142 1320 L727 1320 L727 1396 Z " />
<glyph glyph-name="degree" unicode="&#xb0;" horiz-adv-x="653" d="M294 1048 C243 1048 200 1066 165 1101 C130 1136 112 1179 112 1230 C112 1281 130 1324 165 1359 C200 1394 243 1412 294 1412 C344 1412 387 1394 422 1359 C457 1324 475 1281 475 1230 C475 1179 457 1136 422 1101 C387 1066 344 1048 294 1048 L294 1048 Z M294 979 C363 979 422 1004 471 1053 C520 1102 544 1161 544 1230 C544 1299 520 1359 471 1408 C422 1457 363 1481 294 1481 C225 1481 166 1457 117 1408 C68 1359 43 1299 43 1230 C43 1161 68 1102 117 1053 C166 1004 225 979 294 979 L294 979 Z " />
<glyph glyph-name="plusminus" unicode="&#xb1;" horiz-adv-x="1272" d="M679 701 L1069 701 L1069 777 L679 777 L679 1171 L592 1171 L592 777 L203 777 L203 701 L592 701 L592 308 L679 308 L679 701 Z M1069 76 L203 76 L203 0 L1069 0 L1069 76 Z " />
<glyph glyph-name="uni00B2" unicode="&#xb2;" horiz-adv-x="678" d="M598 807 L235 807 L544 1129 C585 1169 605 1214 605 1263 C605 1336 577 1391 520 1427 C463 1463 402 1481 336 1481 C224 1481 136 1436 73 1347 L140 1297 C187 1364 252 1397 333 1397 C374 1397 414 1387 455 1367 C495 1346 515 1312 515 1264 C515 1234 504 1209 482 1188 L94 789 L94 726 L598 726 L598 807 Z " />
<glyph glyph-name="uni00B3" unicode="&#xb3;" horiz-adv-x="678" d="M327 715 C390 715 454 733 517 768 C580 803 611 856 611 929 C611 968 598 1003 571 1033 C544 1062 512 1084 476 1099 C543 1134 576 1191 576 1268 C576 1340 551 1394 501 1429 C451 1464 394 1481 330 1481 C218 1481 134 1436 77 1347 L144 1295 C183 1363 244 1397 327 1397 C366 1397 402 1387 436 1368 C470 1348 487 1315 487 1268 C487 1222 469 1189 434 1169 C398 1149 361 1139 323 1139 L261 1139 L261 1058 L323 1058 C360 1058 403 1048 450 1028 C497 1008 521 975 521 929 C521 882 498 848 452 829 C405 810 363 800 324 800 C241 800 178 834 134 902 L67 850 C128 760 215 715 327 715 L327 715 Z " />
<glyph glyph-name="acute" unicode="&#xb4;" horiz-adv-x="870" d="M328 1178 L621 1485 L507 1485 L249 1178 L328 1178 Z " />
<glyph glyph-name="&amp;#xb5;" unicode="&#xb5;" horiz-adv-x="1260" d="M252 165 C324 38 438 -25 594 -25 C791 -25 929 64 1008 242 L1008 -2 L1100 -2 L1100 1056 L999 1056 L999 429 C999 327 963 241 890 170 C817 99 725 63 615 63 C512 63 427 93 362 152 C297 211 263 292 262 395 L261 1056 L160 1056 L160 -405 L252 -405 L252 165 Z " />
<glyph glyph-name="&amp;#x3bc;" unicode="&#x3bc;" horiz-adv-x="1260" d="M252 165 C324 38 438 -25 594 -25 C791 -25 929 64 1008 242 L1008 -2 L1100 -2 L1100 1056 L999 1056 L999 429 C999 327 963 241 890 170 C817 99 725 63 615 63 C512 63 427 93 362 152 C297 211 263 292 262 395 L261 1056 L160 1056 L160 -405 L252 -405 L252 165 Z " />
<glyph glyph-name="paragraph" unicode="&#xb6;" horiz-adv-x="1086" d="M978 1481 L484 1481 C380 1481 291 1444 218 1371 C145 1298 108 1209 108 1105 C108 1001 145 912 218 839 C291 766 380 729 484 729 L484 -426 L571 -426 L571 1405 L891 1405 L891 -426 L978 -426 L978 1481 Z " />
<glyph glyph-name="&amp;#xb7;" unicode="&#xb7;" horiz-adv-x="469" d="M234 453 C275 453 309 487 309 527 C309 568 275 602 234 602 C193 602 160 568 160 527 C160 487 193 453 234 453 L234 453 Z " />
<glyph glyph-name="&amp;#x2219;" unicode="&#x2219;" horiz-adv-x="469" d="M234 453 C275 453 309 487 309 527 C309 568 275 602 234 602 C193 602 160 568 160 527 C160 487 193 453 234 453 L234 453 Z " />
<glyph glyph-name="cedilla" unicode="&#xb8;" horiz-adv-x="870" d="M410 -407 C460 -407 509 -395 557 -370 C604 -345 628 -307 628 -256 C628 -168 563 -121 434 -116 L502 0 L429 0 L356 -130 L356 -169 L407 -169 C498 -169 544 -198 544 -257 C544 -288 528 -312 497 -327 C466 -342 436 -350 409 -350 C356 -350 311 -336 272 -307 L241 -357 C294 -390 350 -407 410 -407 L410 -407 Z " />
<glyph glyph-name="uni00B9" unicode="&#xb9;" horiz-adv-x="678" d="M483 1470 L403 1470 L194 1349 L234 1280 L393 1371 L393 726 L483 726 L483 1470 Z " />
<glyph glyph-name="ordmasculine" unicode="&#xba;" horiz-adv-x="938" d="M447 793 C364 793 293 823 235 884 C177 944 148 1016 148 1099 C148 1183 177 1255 235 1316 C293 1376 364 1406 447 1406 C531 1406 602 1376 660 1316 C718 1255 747 1183 747 1099 C747 1016 718 944 660 884 C602 823 531 793 447 793 L447 793 Z M447 718 C553 718 644 755 719 830 C794 904 831 994 831 1099 C831 1204 794 1294 719 1369 C644 1444 553 1481 447 1481 C342 1481 252 1444 177 1369 C102 1294 64 1204 64 1099 C64 994 102 904 177 830 C252 755 342 718 447 718 L447 718 Z " />
<glyph glyph-name="guillemotright" unicode="&#xbb;" horiz-adv-x="1136" d="M653 74 L916 529 L653 984 L553 984 L815 529 L553 74 L653 74 Z M295 74 L557 529 L295 984 L194 984 L457 529 L194 74 L295 74 Z " />
<glyph glyph-name="onequarter" unicode="&#xbc;" horiz-adv-x="1557" d="M387 1470 L307 1470 L98 1349 L138 1280 L297 1371 L297 726 L387 726 L387 1470 Z M1249 1481 L1140 1481 L271 -22 L381 -22 L1249 1481 Z M1370 142 L1459 142 L1459 222 L1370 222 L1370 399 L1286 399 L1286 222 L987 222 L1293 743 L1193 743 L880 209 L880 142 L1286 142 L1286 -1 L1370 -1 L1370 142 Z " />
<glyph glyph-name="onehalf" unicode="&#xbd;" horiz-adv-x="1557" d="M1441 79 L1078 79 L1387 401 C1428 441 1448 486 1448 536 C1448 609 1420 664 1363 700 C1306 736 1245 754 1179 754 C1067 754 979 709 916 620 L983 570 C1030 637 1095 670 1176 670 C1217 670 1257 660 1298 639 C1338 618 1358 584 1358 537 C1358 507 1347 481 1325 460 L937 62 L937 -1 L1441 -1 L1441 79 Z M397 1470 L317 1470 L108 1349 L148 1280 L307 1371 L307 726 L397 726 L397 1470 Z M1258 1481 L1149 1481 L280 -22 L390 -22 L1258 1481 Z " />
<glyph glyph-name="threequarters" unicode="&#xbe;" horiz-adv-x="1557" d="M351 715 C414 715 478 733 541 768 C604 803 635 856 635 929 C635 968 622 1003 595 1033 C568 1062 536 1084 500 1099 C567 1134 600 1191 600 1268 C600 1340 575 1394 525 1429 C475 1464 418 1481 354 1481 C242 1481 158 1436 101 1347 L168 1295 C207 1363 268 1397 351 1397 C390 1397 426 1387 460 1368 C494 1348 511 1315 511 1268 C511 1222 493 1189 458 1169 C422 1149 385 1139 347 1139 L285 1139 L285 1058 L347 1058 C384 1058 427 1048 474 1028 C521 1008 545 975 545 929 C545 882 522 848 476 829 C429 810 387 800 348 800 C265 800 202 834 158 902 L91 850 C152 760 239 715 351 715 L351 715 Z M1256 1481 L1147 1481 L278 -22 L388 -22 L1256 1481 Z M1377 142 L1466 142 L1466 222 L1377 222 L1377 399 L1293 399 L1293 222 L994 222 L1300 743 L1200 743 L887 209 L887 142 L1293 142 L1293 -1 L1377 -1 L1377 142 Z " />
<glyph glyph-name="questiondown" unicode="&#xbf;" horiz-adv-x="1142" d="M531 358 C406 349 296 312 201 249 C106 186 58 95 58 -24 C58 -139 107 -235 206 -312 C304 -388 430 -426 583 -426 C816 -426 983 -344 1084 -180 L1006 -119 C925 -259 786 -329 587 -329 C461 -329 359 -300 281 -241 C203 -182 164 -110 164 -25 C164 54 199 122 270 178 C341 234 434 267 551 277 C590 280 619 308 619 352 L618 714 L531 714 L531 358 Z M574 1077 C533 1077 500 1044 500 1003 C500 962 534 929 574 929 C615 929 649 962 649 1003 C649 1044 615 1077 574 1077 L574 1077 Z " />
<glyph glyph-name="Agrave" unicode="&#xc0;" horiz-adv-x="1458" d="M1379 -2 L767 1457 L689 1457 L78 -2 L199 -2 L395 491 L1062 491 L1258 -2 L1379 -2 Z M728 1330 L1029 574 L428 574 L728 1330 Z M569 1884 L455 1884 L749 1577 L827 1577 L569 1884 Z " />
<glyph glyph-name="Aacute" unicode="&#xc1;" horiz-adv-x="1458" d="M1379 -2 L767 1457 L689 1457 L78 -2 L199 -2 L395 491 L1062 491 L1258 -2 L1379 -2 Z M728 1330 L1029 574 L428 574 L728 1330 Z M689 1577 L982 1884 L868 1884 L610 1577 L689 1577 Z " />
<glyph glyph-name="Acircumflex" unicode="&#xc2;" horiz-adv-x="1458" d="M1379 -2 L767 1457 L689 1457 L78 -2 L199 -2 L395 491 L1062 491 L1258 -2 L1379 -2 Z M728 1330 L1029 574 L428 574 L728 1330 Z M766 1911 L671 1911 L411 1604 L485 1604 L718 1855 L952 1604 L1026 1604 L766 1911 Z " />
<glyph glyph-name="Atilde" unicode="&#xc3;" horiz-adv-x="1458" d="M1379 -2 L767 1457 L689 1457 L78 -2 L199 -2 L395 491 L1062 491 L1258 -2 L1379 -2 Z M728 1330 L1029 574 L428 574 L728 1330 Z M877 1658 C973 1658 1041 1703 1080 1793 L1019 1828 C994 1763 946 1731 875 1731 C830 1731 782 1752 729 1794 C678 1837 621 1858 560 1858 C463 1858 396 1812 357 1721 L417 1687 C442 1752 490 1784 562 1784 C605 1784 651 1765 700 1727 C756 1681 815 1658 877 1658 L877 1658 Z " />
<glyph glyph-name="Adieresis" unicode="&#xc4;" horiz-adv-x="1458" d="M1379 -2 L767 1457 L689 1457 L78 -2 L199 -2 L395 491 L1062 491 L1258 -2 L1379 -2 Z M728 1330 L1029 574 L428 574 L728 1330 Z M579 1746 C615 1746 643 1774 643 1810 C643 1845 615 1874 579 1874 C544 1874 515 1845 515 1810 C515 1774 544 1746 579 1746 L579 1746 Z M878 1746 C913 1746 942 1774 942 1810 C942 1845 913 1874 878 1874 C843 1874 814 1845 814 1810 C814 1774 843 1746 878 1746 L878 1746 Z " />
<glyph glyph-name="Aring" unicode="&#xc5;" horiz-adv-x="1458" d="M1379 -2 L767 1457 L689 1457 L78 -2 L199 -2 L395 491 L1062 491 L1258 -2 L1379 -2 Z M728 1330 L1029 574 L428 574 L728 1330 Z M719 1620 C682 1620 651 1633 625 1659 C599 1685 586 1716 586 1753 C586 1790 599 1821 625 1847 C651 1872 682 1885 719 1885 C756 1885 787 1872 813 1847 C839 1821 852 1790 852 1753 C852 1716 839 1685 813 1659 C787 1633 756 1620 719 1620 L719 1620 Z M719 1561 C772 1561 818 1580 855 1617 C892 1654 911 1700 911 1753 C911 1806 892 1851 855 1889 C818 1926 772 1945 719 1945 C666 1945 620 1926 583 1889 C546 1851 527 1806 527 1753 C527 1700 546 1654 583 1617 C620 1580 666 1561 719 1561 L719 1561 Z " />
<glyph glyph-name="AE" unicode="&#xc6;" horiz-adv-x="2086" d="M452 575 L806 1367 L1040 1367 L1040 575 L452 575 Z M1978 91 L1144 91 L1144 685 L1860 685 L1860 772 L1144 772 L1144 1367 L1978 1367 L1978 1459 L754 1459 L78 0 L199 0 L420 491 L1040 491 L1040 0 L1978 0 L1978 91 Z " />
<glyph glyph-name="Ccedilla" unicode="&#xc7;" horiz-adv-x="1539" d="M678 -130 L678 -169 L729 -169 C820 -169 866 -198 866 -257 C866 -288 850 -312 819 -327 C787 -342 757 -350 730 -350 C678 -350 632 -336 593 -307 L563 -357 C616 -390 672 -407 732 -407 C782 -407 831 -395 878 -370 C925 -345 949 -307 949 -256 C949 -168 885 -121 756 -116 L810 -22 C831 -23 851 -24 872 -24 C1079 -24 1257 47 1404 189 L1334 258 C1206 133 1052 71 872 71 C689 71 534 135 406 264 C278 392 214 547 214 728 C214 909 278 1064 406 1192 C534 1320 689 1384 872 1384 C1052 1384 1206 1322 1334 1197 L1404 1266 C1257 1409 1079 1480 872 1480 C659 1480 478 1407 330 1260 C182 1113 108 935 108 728 C108 520 174 349 307 214 C440 79 585 3 743 -14 L678 -130 Z " />
<glyph glyph-name="Egrave" unicode="&#xc8;" horiz-adv-x="1244" d="M1136 90 L302 90 L302 683 L1018 683 L1018 771 L302 771 L302 1366 L1136 1366 L1136 1457 L198 1457 L198 -2 L1136 -2 L1136 90 Z M499 1884 L385 1884 L679 1577 L757 1577 L499 1884 Z " />
<glyph glyph-name="Eacute" unicode="&#xc9;" horiz-adv-x="1244" d="M1136 90 L302 90 L302 683 L1018 683 L1018 771 L302 771 L302 1366 L1136 1366 L1136 1457 L198 1457 L198 -2 L1136 -2 L1136 90 Z M619 1577 L912 1884 L798 1884 L540 1577 L619 1577 Z " />
<glyph glyph-name="Ecircumflex" unicode="&#xca;" horiz-adv-x="1244" d="M1136 90 L302 90 L302 683 L1018 683 L1018 771 L302 771 L302 1366 L1136 1366 L1136 1457 L198 1457 L198 -2 L1136 -2 L1136 90 Z M696 1911 L601 1911 L341 1604 L415 1604 L648 1855 L882 1604 L956 1604 L696 1911 Z " />
<glyph glyph-name="Edieresis" unicode="&#xcb;" horiz-adv-x="1244" d="M1136 90 L302 90 L302 683 L1018 683 L1018 771 L302 771 L302 1366 L1136 1366 L1136 1457 L198 1457 L198 -2 L1136 -2 L1136 90 Z M498 1745 C534 1745 562 1773 562 1809 C562 1844 534 1873 498 1873 C463 1873 434 1844 434 1809 C434 1773 463 1745 498 1745 L498 1745 Z M797 1745 C832 1745 861 1773 861 1809 C861 1844 832 1873 797 1873 C762 1873 733 1844 733 1809 C733 1773 762 1745 797 1745 L797 1745 Z " />
<glyph glyph-name="Igrave" unicode="&#xcc;" horiz-adv-x="500" d="M302 1457 L198 1457 L198 -2 L302 -2 L302 1457 Z M113 1884 L-1 1884 L293 1577 L371 1577 L113 1884 Z " />
<glyph glyph-name="Iacute" unicode="&#xcd;" horiz-adv-x="500" d="M302 1457 L198 1457 L198 -2 L302 -2 L302 1457 Z M233 1577 L526 1884 L412 1884 L154 1577 L233 1577 Z " />
<glyph glyph-name="Icircumflex" unicode="&#xce;" horiz-adv-x="500" d="M302 1457 L198 1457 L198 -2 L302 -2 L302 1457 Z M310 1911 L215 1911 L-45 1604 L29 1604 L262 1855 L496 1604 L570 1604 L310 1911 Z " />
<glyph glyph-name="Idieresis" unicode="&#xcf;" horiz-adv-x="500" d="M302 1457 L198 1457 L198 -2 L302 -2 L302 1457 Z M113 1745 C149 1745 177 1773 177 1809 C177 1844 149 1873 113 1873 C78 1873 49 1844 49 1809 C49 1773 78 1745 113 1745 L113 1745 Z M412 1745 C447 1745 476 1773 476 1809 C476 1844 447 1873 412 1873 C377 1873 348 1844 348 1809 C348 1773 377 1745 412 1745 L412 1745 Z " />
<glyph glyph-name="Eth" unicode="&#xd0;" horiz-adv-x="1527" d="M305 1366 L673 1366 C850 1366 1001 1304 1127 1179 C1252 1054 1315 904 1315 728 C1315 550 1252 399 1126 275 C999 151 848 89 672 89 L305 89 L305 684 L891 684 L891 771 L305 771 L305 1366 Z M-63 684 L201 684 L201 -2 L673 -2 C879 -2 1055 69 1201 212 C1346 354 1419 526 1419 728 C1419 929 1346 1101 1201 1244 C1055 1386 879 1457 673 1457 L201 1457 L201 771 L-63 771 L-63 684 Z " />
<glyph glyph-name="Ntilde" unicode="&#xd1;" horiz-adv-x="1595" d="M1397 1457 L1296 1457 L1296 161 L286 1457 L198 1457 L198 -2 L299 -2 L299 1293 L1310 -2 L1397 -2 L1397 1457 Z M941 1658 C1037 1658 1105 1703 1144 1793 L1083 1828 C1058 1763 1010 1731 939 1731 C894 1731 846 1752 793 1794 C742 1837 685 1858 624 1858 C527 1858 460 1812 421 1721 L481 1687 C506 1752 554 1784 626 1784 C669 1784 715 1765 764 1727 C820 1681 879 1658 941 1658 L941 1658 Z " />
<glyph glyph-name="Ograve" unicode="&#xd2;" horiz-adv-x="1744" d="M872 70 C690 70 535 134 406 263 C277 391 212 546 212 727 C212 908 277 1063 406 1192 C535 1320 690 1384 872 1384 C1054 1384 1210 1320 1339 1192 C1468 1063 1532 908 1532 727 C1532 546 1468 391 1339 263 C1210 134 1054 70 872 70 L872 70 Z M872 -25 C1083 -25 1263 49 1412 196 C1561 343 1636 520 1636 727 C1636 935 1561 1112 1412 1259 C1263 1406 1083 1479 872 1479 C661 1479 481 1406 332 1259 C183 1112 108 935 108 727 C108 520 183 343 332 196 C481 49 661 -25 872 -25 L872 -25 Z M689 1884 L575 1884 L869 1577 L947 1577 L689 1884 Z " />
<glyph glyph-name="Oacute" unicode="&#xd3;" horiz-adv-x="1744" d="M872 70 C690 70 535 134 406 263 C277 391 212 546 212 727 C212 908 277 1063 406 1192 C535 1320 690 1384 872 1384 C1054 1384 1210 1320 1339 1192 C1468 1063 1532 908 1532 727 C1532 546 1468 391 1339 263 C1210 134 1054 70 872 70 L872 70 Z M872 -25 C1083 -25 1263 49 1412 196 C1561 343 1636 520 1636 727 C1636 935 1561 1112 1412 1259 C1263 1406 1083 1479 872 1479 C661 1479 481 1406 332 1259 C183 1112 108 935 108 727 C108 520 183 343 332 196 C481 49 661 -25 872 -25 L872 -25 Z M809 1577 L1102 1884 L988 1884 L730 1577 L809 1577 Z " />
<glyph glyph-name="Ocircumflex" unicode="&#xd4;" horiz-adv-x="1744" d="M872 70 C690 70 535 134 406 263 C277 391 212 546 212 727 C212 908 277 1063 406 1192 C535 1320 690 1384 872 1384 C1054 1384 1210 1320 1339 1192 C1468 1063 1532 908 1532 727 C1532 546 1468 391 1339 263 C1210 134 1054 70 872 70 L872 70 Z M872 -25 C1083 -25 1263 49 1412 196 C1561 343 1636 520 1636 727 C1636 935 1561 1112 1412 1259 C1263 1406 1083 1479 872 1479 C661 1479 481 1406 332 1259 C183 1112 108 935 108 727 C108 520 183 343 332 196 C481 49 661 -25 872 -25 L872 -25 Z M886 1911 L791 1911 L531 1604 L605 1604 L838 1855 L1072 1604 L1146 1604 L886 1911 Z " />
<glyph glyph-name="Otilde" unicode="&#xd5;" horiz-adv-x="1744" d="M872 70 C690 70 535 134 406 263 C277 391 212 546 212 727 C212 908 277 1063 406 1192 C535 1320 690 1384 872 1384 C1054 1384 1210 1320 1339 1192 C1468 1063 1532 908 1532 727 C1532 546 1468 391 1339 263 C1210 134 1054 70 872 70 L872 70 Z M872 -25 C1083 -25 1263 49 1412 196 C1561 343 1636 520 1636 727 C1636 935 1561 1112 1412 1259 C1263 1406 1083 1479 872 1479 C661 1479 481 1406 332 1259 C183 1112 108 935 108 727 C108 520 183 343 332 196 C481 49 661 -25 872 -25 L872 -25 Z M997 1658 C1093 1658 1161 1703 1200 1793 L1139 1828 C1114 1763 1066 1731 995 1731 C950 1731 902 1752 849 1794 C798 1837 741 1858 680 1858 C583 1858 516 1812 477 1721 L537 1687 C562 1752 610 1784 682 1784 C725 1784 771 1765 820 1727 C876 1681 935 1658 997 1658 L997 1658 Z " />
<glyph glyph-name="Odieresis" unicode="&#xd6;" horiz-adv-x="1744" d="M872 70 C690 70 535 134 406 263 C277 391 212 546 212 727 C212 908 277 1063 406 1192 C535 1320 690 1384 872 1384 C1054 1384 1210 1320 1339 1192 C1468 1063 1532 908 1532 727 C1532 546 1468 391 1339 263 C1210 134 1054 70 872 70 L872 70 Z M872 -25 C1083 -25 1263 49 1412 196 C1561 343 1636 520 1636 727 C1636 935 1561 1112 1412 1259 C1263 1406 1083 1479 872 1479 C661 1479 481 1406 332 1259 C183 1112 108 935 108 727 C108 520 183 343 332 196 C481 49 661 -25 872 -25 L872 -25 Z M689 1745 C725 1745 753 1773 753 1809 C753 1844 725 1873 689 1873 C654 1873 625 1844 625 1809 C625 1773 654 1745 689 1745 L689 1745 Z M988 1745 C1023 1745 1052 1773 1052 1809 C1052 1844 1023 1873 988 1873 C953 1873 924 1844 924 1809 C924 1773 953 1745 988 1745 L988 1745 Z " />
<glyph glyph-name="multiply" unicode="&#xd7;" horiz-adv-x="1272" d="M1046 381 L697 729 L1046 1078 L984 1140 L636 791 L287 1140 L225 1078 L574 729 L225 381 L287 319 L636 668 L984 319 L1046 381 Z " />
<glyph glyph-name="Oslash" unicode="&#xd8;" horiz-adv-x="1744" d="M1353 1481 L1260 1481 L1214 1402 C1111 1453 997 1479 872 1479 C661 1479 481 1406 332 1259 C183 1112 108 935 108 727 C108 520 183 343 332 196 C372 156 414 122 459 93 L392 -23 L484 -23 L528 53 C632 1 747 -25 872 -25 C1083 -25 1264 49 1413 196 C1562 343 1636 520 1636 727 C1636 935 1562 1112 1413 1259 C1372 1299 1329 1333 1284 1362 L1353 1481 Z M508 178 C472 202 438 230 406 263 C277 391 212 546 212 727 C212 908 277 1063 406 1192 C535 1320 690 1384 872 1384 C979 1384 1077 1362 1166 1317 L508 178 Z M1235 1277 C1271 1252 1306 1224 1339 1192 C1468 1063 1532 908 1532 727 C1532 546 1468 391 1339 263 C1210 134 1054 70 872 70 C764 70 666 92 577 137 L1235 1277 Z " />
<glyph glyph-name="Ugrave" unicode="&#xd9;" horiz-adv-x="1503" d="M751 -25 C903 -25 1034 10 1143 79 C1252 148 1306 248 1306 380 L1306 1457 L1202 1457 L1202 391 C1202 280 1157 199 1067 147 C976 94 871 68 751 68 C626 68 520 99 433 162 C345 224 301 300 301 391 L301 1457 L197 1457 L197 380 C197 269 250 174 356 95 C461 15 593 -25 751 -25 L751 -25 Z M546 1884 L432 1884 L726 1577 L804 1577 L546 1884 Z " />
<glyph glyph-name="Uacute" unicode="&#xda;" horiz-adv-x="1503" d="M751 -25 C903 -25 1034 10 1143 79 C1252 148 1306 248 1306 380 L1306 1457 L1202 1457 L1202 391 C1202 280 1157 199 1067 147 C976 94 871 68 751 68 C626 68 520 99 433 162 C345 224 301 300 301 391 L301 1457 L197 1457 L197 380 C197 269 250 174 356 95 C461 15 593 -25 751 -25 L751 -25 Z M666 1577 L959 1884 L845 1884 L587 1577 L666 1577 Z " />
<glyph glyph-name="Ucircumflex" unicode="&#xdb;" horiz-adv-x="1503" d="M751 -25 C903 -25 1034 10 1143 79 C1252 148 1306 248 1306 380 L1306 1457 L1202 1457 L1202 391 C1202 280 1157 199 1067 147 C976 94 871 68 751 68 C626 68 520 99 433 162 C345 224 301 300 301 391 L301 1457 L197 1457 L197 380 C197 269 250 174 356 95 C461 15 593 -25 751 -25 L751 -25 Z M743 1911 L648 1911 L388 1604 L462 1604 L695 1855 L929 1604 L1003 1604 L743 1911 Z " />
<glyph glyph-name="Udieresis" unicode="&#xdc;" horiz-adv-x="1503" d="M751 -25 C903 -25 1034 10 1143 79 C1252 148 1306 248 1306 380 L1306 1457 L1202 1457 L1202 391 C1202 280 1157 199 1067 147 C976 94 871 68 751 68 C626 68 520 99 433 162 C345 224 301 300 301 391 L301 1457 L197 1457 L197 380 C197 269 250 174 356 95 C461 15 593 -25 751 -25 L751 -25 Z M545 1745 C581 1745 609 1773 609 1809 C609 1844 581 1873 545 1873 C510 1873 481 1844 481 1809 C481 1773 510 1745 545 1745 L545 1745 Z M844 1745 C879 1745 908 1773 908 1809 C908 1844 879 1873 844 1873 C809 1873 780 1844 780 1809 C780 1773 809 1745 844 1745 L844 1745 Z " />
<glyph glyph-name="Yacute" unicode="&#xdd;" horiz-adv-x="1354" d="M729 704 L1301 1457 L1169 1457 L677 806 L186 1457 L53 1457 L625 705 L625 -2 L729 -2 L729 704 Z M648 1577 L941 1884 L827 1884 L569 1577 L648 1577 Z " />
<glyph glyph-name="Thorn" unicode="&#xde;" horiz-adv-x="1328" d="M302 423 L302 1099 L755 1099 C848 1099 933 1074 1008 1023 C1083 972 1120 884 1120 761 C1120 638 1083 551 1008 500 C933 449 848 423 755 423 L302 423 Z M302 332 L759 332 C892 332 1003 369 1090 444 C1177 518 1220 624 1220 761 C1220 909 1173 1018 1080 1087 C986 1156 879 1190 759 1190 L302 1190 L302 1459 L198 1459 L198 -3 L302 -3 L302 332 Z " />
<glyph glyph-name="germandbls" unicode="&#xdf;" horiz-adv-x="1252" d="M738 -23 C850 -23 946 18 1025 99 C1104 180 1144 277 1144 390 C1144 478 1111 555 1045 620 C979 685 901 724 812 735 C877 764 930 812 971 879 C1011 946 1031 1011 1031 1074 C1031 1187 988 1284 901 1363 C814 1442 712 1481 595 1481 C478 1481 377 1443 291 1366 C205 1289 161 1191 160 1074 L160 -2 L264 -2 L264 1072 C264 1159 297 1233 364 1296 C430 1359 507 1390 595 1390 C681 1390 758 1359 826 1297 C893 1235 927 1159 927 1069 C927 992 897 921 836 854 C775 787 702 754 616 754 L434 754 L434 666 L730 666 C813 666 885 640 947 587 C1009 534 1040 468 1040 391 C1040 301 1010 225 951 163 C891 100 819 69 736 69 C620 69 520 104 436 174 L400 95 C480 16 593 -23 738 -23 L738 -23 Z " />
<glyph glyph-name="agrave" unicode="&#xe0;" horiz-adv-x="1184" d="M529 58 C448 58 374 78 307 119 C239 160 205 220 205 300 C205 380 238 437 304 472 C369 506 441 523 519 523 L923 523 L923 307 C923 248 883 192 804 139 C724 85 632 58 529 58 L529 58 Z M487 -23 C700 -23 848 47 933 188 L933 -1 L1024 -1 L1024 750 C1024 862 974 945 873 999 C772 1053 668 1080 559 1080 C493 1080 425 1069 356 1047 C287 1024 227 988 178 939 L243 875 C330 963 442 992 561 992 C653 992 736 969 811 922 C886 875 923 816 923 747 L923 601 L518 601 C412 601 317 575 232 524 C147 472 104 395 104 294 C104 198 144 121 223 64 C302 6 390 -23 487 -23 L487 -23 Z M396 1485 L282 1485 L576 1178 L654 1178 L396 1485 Z " />
<glyph glyph-name="aacute" unicode="&#xe1;" horiz-adv-x="1184" d="M529 58 C448 58 374 78 307 119 C239 160 205 220 205 300 C205 380 238 437 304 472 C369 506 441 523 519 523 L923 523 L923 307 C923 248 883 192 804 139 C724 85 632 58 529 58 L529 58 Z M487 -23 C700 -23 848 47 933 188 L933 -1 L1024 -1 L1024 750 C1024 862 974 945 873 999 C772 1053 668 1080 559 1080 C493 1080 425 1069 356 1047 C287 1024 227 988 178 939 L243 875 C330 963 442 992 561 992 C653 992 736 969 811 922 C886 875 923 816 923 747 L923 601 L518 601 C412 601 317 575 232 524 C147 472 104 395 104 294 C104 198 144 121 223 64 C302 6 390 -23 487 -23 L487 -23 Z M516 1178 L809 1485 L695 1485 L437 1178 L516 1178 Z " />
<glyph glyph-name="acircumflex" unicode="&#xe2;" horiz-adv-x="1184" d="M529 58 C448 58 374 78 307 119 C239 160 205 220 205 300 C205 380 238 437 304 472 C369 506 441 523 519 523 L923 523 L923 307 C923 248 883 192 804 139 C724 85 632 58 529 58 L529 58 Z M487 -23 C700 -23 848 47 933 188 L933 -1 L1024 -1 L1024 750 C1024 862 974 945 873 999 C772 1053 668 1080 559 1080 C493 1080 425 1069 356 1047 C287 1024 227 988 178 939 L243 875 C330 963 442 992 561 992 C653 992 736 969 811 922 C886 875 923 816 923 747 L923 601 L518 601 C412 601 317 575 232 524 C147 472 104 395 104 294 C104 198 144 121 223 64 C302 6 390 -23 487 -23 L487 -23 Z M593 1512 L498 1512 L238 1205 L312 1205 L545 1456 L779 1205 L853 1205 L593 1512 Z " />
<glyph glyph-name="atilde" unicode="&#xe3;" horiz-adv-x="1184" d="M529 58 C448 58 374 78 307 119 C239 160 205 220 205 300 C205 380 238 437 304 472 C369 506 441 523 519 523 L923 523 L923 307 C923 248 883 192 804 139 C724 85 632 58 529 58 L529 58 Z M487 -23 C700 -23 848 47 933 188 L933 -1 L1024 -1 L1024 750 C1024 862 974 945 873 999 C772 1053 668 1080 559 1080 C493 1080 425 1069 356 1047 C287 1024 227 988 178 939 L243 875 C330 963 442 992 561 992 C653 992 736 969 811 922 C886 875 923 816 923 747 L923 601 L518 601 C412 601 317 575 232 524 C147 472 104 395 104 294 C104 198 144 121 223 64 C302 6 390 -23 487 -23 L487 -23 Z M704 1259 C800 1259 868 1304 907 1394 L846 1429 C821 1364 773 1332 702 1332 C657 1332 609 1353 556 1395 C505 1438 448 1459 387 1459 C290 1459 223 1413 184 1322 L244 1288 C269 1353 317 1385 389 1385 C432 1385 478 1366 527 1328 C583 1282 642 1259 704 1259 L704 1259 Z " />
<glyph glyph-name="adieresis" unicode="&#xe4;" horiz-adv-x="1184" d="M529 58 C448 58 374 78 307 119 C239 160 205 220 205 300 C205 380 238 437 304 472 C369 506 441 523 519 523 L923 523 L923 307 C923 248 883 192 804 139 C724 85 632 58 529 58 L529 58 Z M487 -23 C700 -23 848 47 933 188 L933 -1 L1024 -1 L1024 750 C1024 862 974 945 873 999 C772 1053 668 1080 559 1080 C493 1080 425 1069 356 1047 C287 1024 227 988 178 939 L243 875 C330 963 442 992 561 992 C653 992 736 969 811 922 C886 875 923 816 923 747 L923 601 L518 601 C412 601 317 575 232 524 C147 472 104 395 104 294 C104 198 144 121 223 64 C302 6 390 -23 487 -23 L487 -23 Z M395 1346 C431 1346 459 1374 459 1410 C459 1445 431 1474 395 1474 C360 1474 331 1445 331 1410 C331 1374 360 1346 395 1346 L395 1346 Z M694 1346 C729 1346 758 1374 758 1410 C758 1445 729 1474 694 1474 C659 1474 630 1445 630 1410 C630 1374 659 1346 694 1346 L694 1346 Z " />
<glyph glyph-name="aring" unicode="&#xe5;" horiz-adv-x="1184" d="M529 58 C448 58 374 78 307 119 C239 160 205 220 205 300 C205 380 238 437 304 472 C369 506 441 523 519 523 L923 523 L923 307 C923 248 883 192 804 139 C724 85 632 58 529 58 L529 58 Z M487 -23 C700 -23 848 47 933 188 L933 -1 L1024 -1 L1024 750 C1024 862 974 945 873 999 C772 1053 668 1080 559 1080 C493 1080 425 1069 356 1047 C287 1024 227 988 178 939 L243 875 C330 963 442 992 561 992 C653 992 736 969 811 922 C886 875 923 816 923 747 L923 601 L518 601 C412 601 317 575 232 524 C147 472 104 395 104 294 C104 198 144 121 223 64 C302 6 390 -23 487 -23 L487 -23 Z M546 1226 C509 1226 478 1239 452 1265 C426 1291 413 1322 413 1359 C413 1396 426 1427 452 1453 C478 1478 509 1491 546 1491 C583 1491 614 1478 640 1453 C666 1427 679 1396 679 1359 C679 1322 666 1291 640 1265 C614 1239 583 1226 546 1226 L546 1226 Z M546 1167 C599 1167 645 1186 682 1223 C719 1260 738 1306 738 1359 C738 1412 719 1457 682 1495 C645 1532 599 1551 546 1551 C493 1551 447 1532 410 1495 C373 1457 354 1412 354 1359 C354 1306 373 1260 410 1223 C447 1186 493 1167 546 1167 L546 1167 Z " />
<glyph glyph-name="ae" unicode="&#xe6;" horiz-adv-x="2003" d="M529 57 C448 57 374 77 307 118 C239 159 205 219 205 299 C205 378 238 435 304 470 C369 504 441 521 519 521 L923 521 L923 306 C923 247 883 191 804 138 C724 84 632 57 529 57 L529 57 Z M1027 759 C1102 917 1230 996 1411 996 C1554 996 1660 956 1727 876 C1794 796 1831 695 1838 572 L1027 572 L1027 759 Z M1451 -25 C1583 -25 1710 16 1833 99 L1774 169 C1673 98 1565 62 1451 62 C1259 62 1117 145 1026 312 L1027 493 L1937 493 L1939 527 C1939 685 1891 816 1795 921 C1698 1026 1570 1078 1411 1078 C1228 1078 1088 1007 990 866 C954 937 894 990 811 1026 C728 1061 644 1079 559 1079 C493 1079 425 1068 356 1046 C287 1023 227 987 178 937 L243 874 C322 954 428 991 561 991 C653 991 736 968 811 921 C886 874 923 815 923 745 L923 600 L518 600 C412 600 317 574 232 523 C147 471 104 394 104 293 C104 197 144 120 223 63 C302 5 390 -24 487 -24 C602 -24 703 -1 790 46 C877 93 938 150 975 217 C1090 56 1249 -25 1451 -25 L1451 -25 Z " />
<glyph glyph-name="ccedilla" unicode="&#xe7;" horiz-adv-x="1162" d="M495 -130 L495 -169 L546 -169 C637 -169 683 -198 683 -257 C683 -288 667 -312 636 -327 C604 -342 574 -350 547 -350 C495 -350 449 -336 410 -307 L380 -357 C433 -390 489 -407 549 -407 C599 -407 648 -395 695 -370 C742 -345 766 -307 766 -256 C766 -168 702 -121 573 -116 L627 -22 C645 -23 663 -24 681 -24 C813 -24 933 17 1042 100 L983 171 C898 100 798 65 683 65 C553 65 441 110 348 200 C255 289 208 399 208 528 C208 657 255 767 348 857 C441 946 553 991 683 991 C798 991 898 956 983 885 L1042 956 C933 1038 813 1079 681 1079 C526 1079 391 1028 278 926 C165 823 107 691 104 528 C105 365 155 238 254 146 C353 53 455 0 561 -13 L495 -130 Z " />
<glyph glyph-name="egrave" unicode="&#xe8;" horiz-adv-x="1231" d="M206 574 C213 692 255 792 332 874 C409 956 512 997 639 997 C892 997 1035 853 1066 574 L206 574 Z M678 -24 C810 -24 938 17 1061 100 L1002 170 C901 99 793 64 678 64 C547 64 437 106 349 189 C261 272 214 373 207 494 L1164 494 L1167 528 C1167 686 1119 817 1022 922 C925 1027 798 1079 639 1079 C481 1079 353 1027 254 922 C155 817 105 686 104 529 C107 372 163 240 272 135 C381 29 516 -24 678 -24 L678 -24 Z M459 1485 L345 1485 L639 1178 L717 1178 L459 1485 Z " />
<glyph glyph-name="eacute" unicode="&#xe9;" horiz-adv-x="1231" d="M206 574 C213 692 255 792 332 874 C409 956 512 997 639 997 C892 997 1035 853 1066 574 L206 574 Z M678 -24 C810 -24 938 17 1061 100 L1002 170 C901 99 793 64 678 64 C547 64 437 106 349 189 C261 272 214 373 207 494 L1164 494 L1167 528 C1167 686 1119 817 1022 922 C925 1027 798 1079 639 1079 C481 1079 353 1027 254 922 C155 817 105 686 104 529 C107 372 163 240 272 135 C381 29 516 -24 678 -24 L678 -24 Z M579 1178 L872 1485 L758 1485 L500 1178 L579 1178 Z " />
<glyph glyph-name="ecircumflex" unicode="&#xea;" horiz-adv-x="1231" d="M206 574 C213 692 255 792 332 874 C409 956 512 997 639 997 C892 997 1035 853 1066 574 L206 574 Z M678 -24 C810 -24 938 17 1061 100 L1002 170 C901 99 793 64 678 64 C547 64 437 106 349 189 C261 272 214 373 207 494 L1164 494 L1167 528 C1167 686 1119 817 1022 922 C925 1027 798 1079 639 1079 C481 1079 353 1027 254 922 C155 817 105 686 104 529 C107 372 163 240 272 135 C381 29 516 -24 678 -24 L678 -24 Z M656 1512 L561 1512 L301 1205 L375 1205 L608 1456 L842 1205 L916 1205 L656 1512 Z " />
<glyph glyph-name="edieresis" unicode="&#xeb;" horiz-adv-x="1231" d="M206 574 C213 692 255 792 332 874 C409 956 512 997 639 997 C892 997 1035 853 1066 574 L206 574 Z M678 -24 C810 -24 938 17 1061 100 L1002 170 C901 99 793 64 678 64 C547 64 437 106 349 189 C261 272 214 373 207 494 L1164 494 L1167 528 C1167 686 1119 817 1022 922 C925 1027 798 1079 639 1079 C481 1079 353 1027 254 922 C155 817 105 686 104 529 C107 372 163 240 272 135 C381 29 516 -24 678 -24 L678 -24 Z M458 1346 C494 1346 522 1374 522 1410 C522 1445 494 1474 458 1474 C423 1474 394 1445 394 1410 C394 1374 423 1346 458 1346 L458 1346 Z M757 1346 C792 1346 821 1374 821 1410 C821 1445 792 1474 757 1474 C722 1474 693 1445 693 1410 C693 1374 722 1346 757 1346 L757 1346 Z " />
<glyph glyph-name="igrave" unicode="&#xec;" horiz-adv-x="421" d="M269 1057 L168 1057 L168 -1 L269 -1 L269 1057 Z M94 1485 L-20 1485 L274 1178 L352 1178 L94 1485 Z " />
<glyph glyph-name="iacute" unicode="&#xed;" horiz-adv-x="421" d="M269 1057 L168 1057 L168 -1 L269 -1 L269 1057 Z M189 1178 L482 1485 L368 1485 L110 1178 L189 1178 Z " />
<glyph glyph-name="icircumflex" unicode="&#xee;" horiz-adv-x="421" d="M269 1057 L168 1057 L168 -1 L269 -1 L269 1057 Z M278 1512 L183 1512 L-77 1205 L-3 1205 L230 1456 L464 1205 L538 1205 L278 1512 Z " />
<glyph glyph-name="idieresis" unicode="&#xef;" horiz-adv-x="421" d="M269 1057 L168 1057 L168 -1 L269 -1 L269 1057 Z M81 1346 C117 1346 145 1374 145 1410 C145 1445 117 1474 81 1474 C46 1474 17 1445 17 1410 C17 1374 46 1346 81 1346 L81 1346 Z M380 1346 C415 1346 444 1374 444 1410 C444 1445 415 1474 380 1474 C345 1474 316 1445 316 1410 C316 1374 345 1346 380 1346 L380 1346 Z " />
<glyph glyph-name="eth" unicode="&#xf0;" horiz-adv-x="1318" d="M659 65 C534 65 427 110 338 201 C249 292 205 401 205 528 C205 656 249 765 338 856 C427 947 534 992 659 992 C784 992 890 947 979 856 C1068 765 1112 656 1112 528 C1112 401 1068 292 979 201 C890 110 784 65 659 65 L659 65 Z M659 -23 C812 -23 942 31 1051 139 C1159 246 1213 376 1213 528 C1213 829 1119 1096 930 1331 L1158 1415 L1158 1491 L883 1392 C850 1428 815 1462 778 1494 L689 1459 C720 1434 754 1401 791 1362 L554 1275 L554 1200 L844 1304 C955 1175 1033 1025 1077 855 C974 1005 834 1080 659 1080 C506 1080 375 1026 267 919 C158 811 104 681 104 528 C104 376 158 246 267 139 C375 31 506 -23 659 -23 L659 -23 Z " />
<glyph glyph-name="ntilde" unicode="&#xf1;" horiz-adv-x="1307" d="M1147 663 C1144 791 1102 892 1019 967 C936 1042 831 1079 705 1079 C607 1079 519 1054 442 1003 C365 952 309 889 275 813 L275 1056 L183 1056 L183 -2 L284 -2 L284 626 C284 727 323 814 400 885 C477 956 570 991 681 991 C784 991 870 961 939 902 C1008 843 1043 762 1045 660 L1046 -2 L1147 -2 L1147 663 Z M813 1259 C909 1259 977 1304 1016 1394 L955 1429 C930 1364 882 1332 811 1332 C766 1332 718 1353 665 1395 C614 1438 557 1459 496 1459 C399 1459 332 1413 293 1322 L353 1288 C378 1353 426 1385 498 1385 C541 1385 587 1366 636 1328 C692 1282 751 1259 813 1259 L813 1259 Z " />
<glyph glyph-name="ograve" unicode="&#xf2;" horiz-adv-x="1317" d="M659 64 C534 64 427 109 338 200 C249 291 205 400 205 528 C205 656 249 765 338 856 C427 946 534 991 659 991 C784 991 890 946 979 856 C1068 765 1112 656 1112 528 C1112 400 1068 291 979 200 C890 109 784 64 659 64 L659 64 Z M659 -24 C812 -24 942 30 1051 138 C1159 245 1213 375 1213 528 C1213 680 1159 810 1051 918 C942 1025 812 1079 659 1079 C506 1079 375 1025 267 918 C158 810 104 680 104 528 C104 375 158 245 267 138 C375 30 506 -24 659 -24 L659 -24 Z M484 1485 L370 1485 L664 1178 L742 1178 L484 1485 Z " />
<glyph glyph-name="oacute" unicode="&#xf3;" horiz-adv-x="1317" d="M659 64 C534 64 427 109 338 200 C249 291 205 400 205 528 C205 656 249 765 338 856 C427 946 534 991 659 991 C784 991 890 946 979 856 C1068 765 1112 656 1112 528 C1112 400 1068 291 979 200 C890 109 784 64 659 64 L659 64 Z M659 -24 C812 -24 942 30 1051 138 C1159 245 1213 375 1213 528 C1213 680 1159 810 1051 918 C942 1025 812 1079 659 1079 C506 1079 375 1025 267 918 C158 810 104 680 104 528 C104 375 158 245 267 138 C375 30 506 -24 659 -24 L659 -24 Z M604 1178 L897 1485 L783 1485 L525 1178 L604 1178 Z " />
<glyph glyph-name="ocircumflex" unicode="&#xf4;" horiz-adv-x="1317" d="M659 64 C534 64 427 109 338 200 C249 291 205 400 205 528 C205 656 249 765 338 856 C427 946 534 991 659 991 C784 991 890 946 979 856 C1068 765 1112 656 1112 528 C1112 400 1068 291 979 200 C890 109 784 64 659 64 L659 64 Z M659 -24 C812 -24 942 30 1051 138 C1159 245 1213 375 1213 528 C1213 680 1159 810 1051 918 C942 1025 812 1079 659 1079 C506 1079 375 1025 267 918 C158 810 104 680 104 528 C104 375 158 245 267 138 C375 30 506 -24 659 -24 L659 -24 Z M681 1512 L586 1512 L326 1205 L400 1205 L633 1456 L867 1205 L941 1205 L681 1512 Z " />
<glyph glyph-name="otilde" unicode="&#xf5;" horiz-adv-x="1317" d="M659 64 C534 64 427 109 338 200 C249 291 205 400 205 528 C205 656 249 765 338 856 C427 946 534 991 659 991 C784 991 890 946 979 856 C1068 765 1112 656 1112 528 C1112 400 1068 291 979 200 C890 109 784 64 659 64 L659 64 Z M659 -24 C812 -24 942 30 1051 138 C1159 245 1213 375 1213 528 C1213 680 1159 810 1051 918 C942 1025 812 1079 659 1079 C506 1079 375 1025 267 918 C158 810 104 680 104 528 C104 375 158 245 267 138 C375 30 506 -24 659 -24 L659 -24 Z M791 1259 C887 1259 955 1304 994 1394 L933 1429 C908 1364 860 1332 789 1332 C744 1332 696 1353 643 1395 C592 1438 535 1459 474 1459 C377 1459 310 1413 271 1322 L331 1288 C356 1353 404 1385 476 1385 C519 1385 565 1366 614 1328 C670 1282 729 1259 791 1259 L791 1259 Z " />
<glyph glyph-name="odieresis" unicode="&#xf6;" horiz-adv-x="1317" d="M659 64 C534 64 427 109 338 200 C249 291 205 400 205 528 C205 656 249 765 338 856 C427 946 534 991 659 991 C784 991 890 946 979 856 C1068 765 1112 656 1112 528 C1112 400 1068 291 979 200 C890 109 784 64 659 64 L659 64 Z M659 -24 C812 -24 942 30 1051 138 C1159 245 1213 375 1213 528 C1213 680 1159 810 1051 918 C942 1025 812 1079 659 1079 C506 1079 375 1025 267 918 C158 810 104 680 104 528 C104 375 158 245 267 138 C375 30 506 -24 659 -24 L659 -24 Z M483 1346 C519 1346 547 1374 547 1410 C547 1445 519 1474 483 1474 C448 1474 419 1445 419 1410 C419 1374 448 1346 483 1346 L483 1346 Z M782 1346 C817 1346 846 1374 846 1410 C846 1445 817 1474 782 1474 C747 1474 718 1445 718 1410 C718 1374 747 1346 782 1346 L782 1346 Z " />
<glyph glyph-name="divide" unicode="&#xf7;" horiz-adv-x="1272" d="M1084 768 L187 768 L187 691 L1084 691 L1084 768 Z M635 987 C671 987 699 1015 699 1050 C699 1086 671 1114 635 1114 C600 1114 571 1086 571 1050 C571 1015 600 987 635 987 L635 987 Z M635 345 C671 345 699 373 699 408 C699 444 671 472 635 472 C600 472 571 444 571 408 C571 373 600 345 635 345 L635 345 Z " />
<glyph glyph-name="oslash" unicode="&#xf8;" horiz-adv-x="1318" d="M1094 1081 L1001 1081 L946 1002 C861 1054 766 1080 659 1080 C506 1080 375 1026 267 919 C158 811 104 681 104 529 C104 376 158 246 267 139 C281 124 295 111 310 99 L224 -23 L317 -23 L372 55 C457 3 552 -23 659 -23 C812 -23 943 31 1052 139 C1160 246 1214 376 1214 529 C1214 681 1160 811 1052 919 C1037 933 1023 946 1008 958 L1094 1081 Z M363 175 C354 183 345 192 336 201 C246 292 201 401 201 529 C201 657 246 766 336 857 C426 947 534 992 659 992 C746 992 824 970 893 927 L363 175 Z M954 882 C963 874 973 866 982 857 C1071 766 1116 657 1116 529 C1116 401 1071 292 982 201 C892 110 784 65 659 65 C572 65 494 87 425 130 L954 882 Z " />
<glyph glyph-name="ugrave" unicode="&#xf9;" horiz-adv-x="1282" d="M593 -25 C790 -25 928 64 1008 242 L1008 -2 L1100 -2 L1100 1057 L999 1057 L999 429 C999 328 963 242 890 171 C817 100 725 64 614 64 C511 64 427 94 362 153 C297 212 263 292 262 395 L261 1057 L160 1057 L160 391 C163 264 204 163 284 88 C364 13 467 -25 593 -25 L593 -25 Z M474 1485 L360 1485 L654 1178 L732 1178 L474 1485 Z " />
<glyph glyph-name="uacute" unicode="&#xfa;" horiz-adv-x="1282" d="M593 -25 C790 -25 928 64 1008 242 L1008 -2 L1100 -2 L1100 1057 L999 1057 L999 429 C999 328 963 242 890 171 C817 100 725 64 614 64 C511 64 427 94 362 153 C297 212 263 292 262 395 L261 1057 L160 1057 L160 391 C163 264 204 163 284 88 C364 13 467 -25 593 -25 L593 -25 Z M594 1178 L887 1485 L773 1485 L515 1178 L594 1178 Z " />
<glyph glyph-name="ucircumflex" unicode="&#xfb;" horiz-adv-x="1282" d="M593 -25 C790 -25 928 64 1008 242 L1008 -2 L1100 -2 L1100 1057 L999 1057 L999 429 C999 328 963 242 890 171 C817 100 725 64 614 64 C511 64 427 94 362 153 C297 212 263 292 262 395 L261 1057 L160 1057 L160 391 C163 264 204 163 284 88 C364 13 467 -25 593 -25 L593 -25 Z M671 1512 L576 1512 L316 1205 L390 1205 L623 1456 L857 1205 L931 1205 L671 1512 Z " />
<glyph glyph-name="udieresis" unicode="&#xfc;" horiz-adv-x="1282" d="M593 -25 C790 -25 928 64 1008 242 L1008 -2 L1100 -2 L1100 1057 L999 1057 L999 429 C999 328 963 242 890 171 C817 100 725 64 614 64 C511 64 427 94 362 153 C297 212 263 292 262 395 L261 1057 L160 1057 L160 391 C163 264 204 163 284 88 C364 13 467 -25 593 -25 L593 -25 Z M473 1346 C509 1346 537 1374 537 1410 C537 1445 509 1474 473 1474 C438 1474 409 1445 409 1410 C409 1374 438 1346 473 1346 L473 1346 Z M772 1346 C807 1346 836 1374 836 1410 C836 1445 807 1474 772 1474 C737 1474 708 1445 708 1410 C708 1374 737 1346 772 1346 L772 1346 Z " />
<glyph glyph-name="yacute" unicode="&#xfd;" horiz-adv-x="1070" d="M222 -428 C303 -428 362 -410 399 -375 C436 -339 470 -283 500 -208 L1034 1057 L923 1057 L549 153 L163 1057 L48 1057 L506 43 L394 -218 C357 -303 299 -346 222 -346 C193 -346 159 -343 122 -338 L122 -421 C152 -426 185 -428 222 -428 L222 -428 Z M510 1178 L803 1485 L689 1485 L431 1178 L510 1178 Z " />
<glyph glyph-name="thorn" unicode="&#xfe;" horiz-adv-x="1371" d="M709 64 C583 64 475 109 386 200 C297 291 252 400 252 528 C252 656 297 765 386 856 C475 946 583 991 709 991 C835 991 943 946 1032 856 C1121 765 1165 656 1165 528 C1165 400 1121 291 1032 200 C943 109 835 64 709 64 L709 64 Z M261 274 C367 75 522 -24 726 -24 C876 -24 1004 30 1109 138 C1214 245 1267 375 1267 528 C1267 680 1214 810 1109 918 C1004 1025 876 1079 726 1079 C515 1079 357 974 252 764 L252 1459 L160 1459 L160 -405 L261 -405 L261 274 Z " />
<glyph glyph-name="ydieresis" unicode="&#xff;" horiz-adv-x="1070" d="M222 -428 C303 -428 362 -410 399 -375 C436 -339 470 -283 500 -208 L1034 1057 L923 1057 L549 153 L163 1057 L48 1057 L506 43 L394 -218 C357 -303 299 -346 222 -346 C193 -346 159 -343 122 -338 L122 -421 C152 -426 185 -428 222 -428 L222 -428 Z M390 1346 C426 1346 454 1374 454 1410 C454 1445 426 1474 390 1474 C355 1474 326 1445 326 1410 C326 1374 355 1346 390 1346 L390 1346 Z M689 1346 C724 1346 753 1374 753 1410 C753 1445 724 1474 689 1474 C654 1474 625 1445 625 1410 C625 1374 654 1346 689 1346 L689 1346 Z " />
<glyph glyph-name="dotlessi" unicode="&#x131;" horiz-adv-x="421" d="M261 1057 L160 1057 L160 -1 L261 -1 L261 1057 Z " />
<glyph glyph-name="Lslash" unicode="&#x141;" horiz-adv-x="1152" d="M771 911 L771 1004 L301 733 L301 1457 L197 1457 L197 673 L-28 543 L-28 450 L197 580 L197 -2 L1124 -2 L1124 89 L301 89 L301 640 L771 911 Z " />
<glyph glyph-name="lslash" unicode="&#x142;" horiz-adv-x="449" d="M501 840 L501 933 L276 803 L276 1457 L174 1457 L174 744 L-51 614 L-51 521 L174 651 L174 -2 L276 -2 L276 710 L501 840 Z " />
<glyph glyph-name="OE" unicode="&#x152;" horiz-adv-x="2242" d="M872 70 C690 70 535 134 406 263 C277 391 212 546 212 727 C212 908 277 1063 406 1192 C535 1320 690 1384 872 1384 C993 1384 1101 1350 1195 1283 L1196 171 C1101 104 993 70 872 70 L872 70 Z M872 -25 C987 -25 1095 -1 1196 46 L1196 -2 L2134 -2 L2134 89 L1300 89 L1300 683 L2016 683 L2016 770 L1300 770 L1300 1366 L2134 1366 L2134 1457 L1195 1457 L1195 1409 C1095 1456 987 1479 872 1479 C661 1479 481 1406 332 1259 C183 1112 108 935 108 727 C108 520 183 343 332 196 C481 49 661 -25 872 -25 L872 -25 Z " />
<glyph glyph-name="oe" unicode="&#x153;" horiz-adv-x="2244" d="M659 65 C534 65 427 110 338 201 C249 292 205 401 205 529 C205 657 249 766 338 857 C427 947 534 992 659 992 C784 992 890 947 979 857 C1068 766 1112 657 1112 529 C1112 401 1068 292 979 201 C890 110 784 65 659 65 L659 65 Z M1221 573 C1228 692 1270 792 1347 874 C1424 956 1525 997 1652 997 C1897 997 2048 866 2080 573 L1221 573 Z M1692 -24 C1824 -24 1951 17 2074 100 L2016 170 C1915 99 1807 63 1692 63 C1561 63 1451 105 1364 188 C1276 271 1228 373 1221 494 L2178 494 L2180 528 C2180 686 2132 817 2036 922 C1939 1027 1811 1079 1652 1079 C1412 1079 1249 963 1163 731 C1059 964 891 1080 659 1080 C506 1080 375 1026 267 919 C158 811 104 681 104 529 C104 376 158 246 267 139 C375 31 506 -23 659 -23 C892 -23 1061 95 1165 331 C1268 94 1443 -24 1692 -24 L1692 -24 Z " />
<glyph glyph-name="Scaron" unicode="&#x160;" horiz-adv-x="1329" d="M683 -24 C834 -24 966 15 1080 93 C1194 171 1251 265 1251 375 C1248 482 1217 558 1156 605 C1095 652 1019 687 928 710 L512 826 C357 869 262 948 262 1081 C262 1166 304 1239 387 1298 C470 1357 569 1386 685 1386 C778 1386 865 1368 945 1333 C1025 1297 1083 1250 1120 1191 L1199 1249 C1066 1413 887 1479 683 1479 C536 1479 411 1440 307 1363 C202 1285 150 1191 150 1080 C150 981 180 908 241 859 C302 810 370 775 445 753 L879 629 C954 610 1017 583 1066 548 C1115 513 1139 455 1139 374 C1139 289 1093 217 1001 158 C908 99 802 69 683 69 C578 69 476 93 375 140 C274 187 208 248 177 322 L97 271 C136 183 212 112 327 58 C442 3 560 -24 683 -24 L683 -24 Z M885 1911 L651 1660 L418 1911 L344 1911 L604 1604 L699 1604 L959 1911 L885 1911 Z " />
<glyph glyph-name="scaron" unicode="&#x161;" horiz-adv-x="1041" d="M519 -25 C627 -25 724 2 809 57 C894 111 937 180 937 264 C937 338 913 394 865 431 C817 468 761 495 698 512 L367 611 C267 642 206 695 206 783 C209 908 315 995 535 995 C652 995 756 961 847 894 L896 967 C781 1041 655 1078 516 1078 C403 1078 306 1050 223 993 C140 936 98 864 98 775 C98 647 182 576 306 540 L654 432 C771 395 829 337 829 264 C829 205 799 156 738 117 C677 77 597 57 499 57 C320 57 199 111 118 200 L64 136 C156 28 310 -25 519 -25 L519 -25 Z M773 1512 L539 1261 L306 1512 L232 1512 L492 1205 L587 1205 L847 1512 L773 1512 Z " />
<glyph glyph-name="Ydieresis" unicode="&#x178;" horiz-adv-x="1354" d="M729 704 L1301 1457 L1169 1457 L677 806 L186 1457 L53 1457 L625 705 L625 -2 L729 -2 L729 704 Z M527 1745 C563 1745 591 1773 591 1809 C591 1844 563 1873 527 1873 C492 1873 463 1844 463 1809 C463 1773 492 1745 527 1745 L527 1745 Z M826 1745 C861 1745 890 1773 890 1809 C890 1844 861 1873 826 1873 C791 1873 762 1844 762 1809 C762 1773 791 1745 826 1745 L826 1745 Z " />
<glyph glyph-name="Zcaron" unicode="&#x17d;" horiz-adv-x="1226" d="M1118 89 L251 89 L1118 1389 L1118 1457 L108 1457 L108 1365 L975 1365 L108 65 L108 -2 L1118 -2 L1118 89 Z M834 1911 L600 1660 L367 1911 L293 1911 L553 1604 L648 1604 L908 1911 L834 1911 Z " />
<glyph glyph-name="zcaron" unicode="&#x17e;" horiz-adv-x="1076" d="M972 81 L236 81 L972 973 L972 1057 L104 1057 L104 973 L841 973 L104 81 L104 -2 L972 -2 L972 81 Z M751 1512 L517 1261 L284 1512 L210 1512 L470 1205 L565 1205 L825 1512 L751 1512 Z " />
<glyph glyph-name="florin" unicode="&#x192;" horiz-adv-x="1197" d="M115 -426 C217 -425 308 -394 389 -334 C470 -274 520 -192 541 -88 L728 974 L1109 974 L1109 1057 L743 1057 L759 1144 C774 1227 812 1290 873 1333 C934 1376 1003 1398 1078 1398 C1117 1398 1152 1395 1182 1389 L1197 1473 C1160 1478 1122 1481 1081 1481 C980 1480 889 1450 809 1391 C728 1332 678 1250 657 1146 L641 1057 L391 1057 L391 974 L626 974 L439 -88 C424 -163 386 -225 325 -272 C263 -319 194 -343 119 -343 C80 -343 45 -340 15 -334 L0 -418 C37 -423 75 -426 115 -426 L115 -426 Z " />
<glyph glyph-name="circumflex" unicode="&#x2c6;" horiz-adv-x="870" d="M483 1512 L388 1512 L128 1205 L202 1205 L435 1456 L669 1205 L743 1205 L483 1512 Z " />
<glyph glyph-name="caron" unicode="&#x2c7;" horiz-adv-x="869" d="M669 1512 L435 1261 L202 1512 L128 1512 L388 1205 L483 1205 L743 1512 L669 1512 Z " />
<glyph glyph-name="uni02C9" unicode="&#x2c9;" horiz-adv-x="870" d="M727 1397 L142 1397 L142 1321 L727 1321 L727 1397 Z " />
<glyph glyph-name="breve" unicode="&#x2d8;" horiz-adv-x="870" d="M434 1205 C540 1205 616 1238 661 1305 C706 1372 729 1441 729 1512 L679 1512 C679 1451 658 1398 617 1351 C576 1304 515 1280 434 1280 C354 1280 293 1304 252 1351 C211 1398 190 1451 190 1512 L140 1512 C140 1441 163 1372 208 1305 C253 1238 329 1205 434 1205 L434 1205 Z " />
<glyph glyph-name="dotaccent" unicode="&#x2d9;" horiz-adv-x="869" d="M435 1304 C470 1304 499 1333 499 1368 C499 1404 470 1432 435 1432 C399 1432 371 1404 371 1368 C371 1333 399 1304 435 1304 L435 1304 Z " />
<glyph glyph-name="ring" unicode="&#x2da;" horiz-adv-x="870" d="M435 1226 C398 1226 367 1239 341 1265 C315 1291 302 1322 302 1359 C302 1396 315 1427 341 1453 C367 1478 398 1491 435 1491 C472 1491 503 1478 529 1453 C555 1427 568 1396 568 1359 C568 1322 555 1291 529 1265 C503 1239 472 1226 435 1226 L435 1226 Z M435 1167 C488 1167 534 1186 571 1223 C608 1260 627 1306 627 1359 C627 1412 608 1457 571 1495 C534 1532 488 1551 435 1551 C382 1551 336 1532 299 1495 C262 1457 243 1412 243 1359 C243 1306 262 1260 299 1223 C336 1186 382 1167 435 1167 L435 1167 Z " />
<glyph glyph-name="ogonek" unicode="&#x2db;" horiz-adv-x="870" d="M440 -407 C523 -405 585 -382 628 -339 L591 -289 C555 -330 505 -350 442 -350 C363 -350 324 -320 324 -259 C324 -182 377 -96 483 0 L415 0 C300 -88 242 -176 242 -265 C242 -360 308 -407 440 -407 L440 -407 Z " />
<glyph glyph-name="tilde" unicode="&#x2dc;" horiz-adv-x="870" d="M593 1259 C689 1259 757 1304 796 1394 L735 1429 C710 1364 662 1332 591 1332 C546 1332 498 1353 445 1395 C394 1438 337 1459 276 1459 C179 1459 112 1413 73 1322 L133 1288 C158 1353 206 1385 278 1385 C321 1385 367 1366 416 1328 C472 1282 531 1259 593 1259 L593 1259 Z " />
<glyph glyph-name="hungarumlaut" unicode="&#x2dd;" horiz-adv-x="870" d="M435 1486 L335 1486 L77 1178 L151 1178 L435 1486 Z M793 1486 L694 1486 L436 1178 L509 1178 L793 1486 Z " />
<glyph glyph-name="&amp;#x3a9;" unicode="&#x3a9;" horiz-adv-x="1562" d="M1454 94 L1017 94 L1017 180 C1144 223 1248 299 1331 407 C1413 515 1454 646 1454 801 C1454 1006 1386 1170 1251 1293 C1116 1416 959 1478 781 1478 C603 1478 446 1416 311 1293 C176 1170 108 1006 108 801 C108 646 149 515 232 407 C314 299 418 223 545 180 L545 94 L108 94 L108 -1 L643 -1 L643 224 C520 255 417 321 334 420 C251 519 209 645 209 799 C209 978 267 1121 384 1226 C501 1331 633 1383 781 1383 C930 1383 1062 1330 1179 1225 C1295 1120 1353 978 1353 799 C1353 646 1312 520 1229 421 C1146 322 1042 256 919 224 L919 -1 L1454 -1 L1454 94 Z " />
<glyph glyph-name="&amp;#x2126;" unicode="&#x2126;" horiz-adv-x="1562" d="M1454 94 L1017 94 L1017 180 C1144 223 1248 299 1331 407 C1413 515 1454 646 1454 801 C1454 1006 1386 1170 1251 1293 C1116 1416 959 1478 781 1478 C603 1478 446 1416 311 1293 C176 1170 108 1006 108 801 C108 646 149 515 232 407 C314 299 418 223 545 180 L545 94 L108 94 L108 -1 L643 -1 L643 224 C520 255 417 321 334 420 C251 519 209 645 209 799 C209 978 267 1121 384 1226 C501 1331 633 1383 781 1383 C930 1383 1062 1330 1179 1225 C1295 1120 1353 978 1353 799 C1353 646 1312 520 1229 421 C1146 322 1042 256 919 224 L919 -1 L1454 -1 L1454 94 Z " />
<glyph glyph-name="pi" unicode="&#x3c0;" horiz-adv-x="1320" d="M1127 -23 C1160 -23 1188 -17 1211 -4 L1182 82 C1167 75 1152 71 1137 71 C1088 71 1069 97 1069 138 L1069 968 L1212 968 L1212 1058 L108 1058 L108 968 L251 968 L251 -2 L352 -2 L352 968 L968 968 L968 130 C968 87 983 51 1012 22 C1041 -8 1080 -23 1127 -23 L1127 -23 Z " />
<glyph glyph-name="uni1E9E" unicode="&#x1e9e;" horiz-adv-x="1294" d="M788 -23 C900 -23 994 18 1071 99 C1148 180 1186 277 1186 390 C1186 504 1156 584 1096 630 C1035 676 970 706 900 720 C829 734 721 741 575 742 L1042 1232 C945 1398 810 1481 635 1481 C518 1481 416 1443 329 1366 C242 1289 198 1191 198 1074 L198 -2 L302 -2 L302 1070 C302 1157 336 1232 403 1295 C470 1358 547 1390 635 1390 C751 1390 847 1337 922 1230 L471 754 L471 666 L581 667 C657 667 730 664 799 659 C868 653 933 631 993 593 C1052 554 1082 487 1082 391 C1082 301 1052 225 993 163 C933 100 861 69 778 69 C662 69 560 104 473 174 L437 95 C526 16 643 -23 788 -23 L788 -23 Z " />
<glyph glyph-name="endash" unicode="&#x2013;" horiz-adv-x="1272" d="M1113 573 L159 573 L159 485 L1113 485 L1113 573 Z " />
<glyph glyph-name="emdash" unicode="&#x2014;" horiz-adv-x="1908" d="M1908 573 L0 573 L0 485 L1908 485 L1908 573 Z " />
<glyph glyph-name="quoteleft" unicode="&#x2018;" horiz-adv-x="365" d="M337 1495 C255 1403 196 1333 161 1285 C126 1237 108 1192 108 1149 C108 1094 134 1069 182 1069 C218 1069 244 1096 244 1132 C244 1147 237 1164 224 1183 C216 1194 212 1203 212 1212 C212 1224 215 1238 222 1254 C242 1303 291 1372 370 1463 L337 1495 Z " />
<glyph glyph-name="quoteright" unicode="&#x2019;" horiz-adv-x="365" d="M28 1067 C110 1158 169 1228 204 1277 C239 1325 257 1370 257 1413 C257 1468 231 1493 183 1493 C147 1493 120 1466 120 1430 C120 1415 127 1398 141 1379 C148 1368 152 1359 152 1350 C152 1338 149 1324 142 1308 C123 1259 74 1190 -5 1099 L28 1067 Z " />
<glyph glyph-name="quotesinglbase" unicode="&#x201a;" horiz-adv-x="365" d="M28 -301 C110 -209 169 -139 204 -91 C239 -42 257 3 257 45 C257 100 231 125 183 125 C147 125 120 98 120 62 C120 47 127 30 141 11 C148 1 152 -9 152 -18 C152 -29 149 -43 142 -60 C123 -109 74 -178 -5 -269 L28 -301 Z " />
<glyph glyph-name="quotedblleft" unicode="&#x201c;" horiz-adv-x="685" d="M657 1495 C575 1403 516 1333 481 1285 C446 1237 428 1192 428 1149 C428 1094 454 1069 502 1069 C538 1069 564 1096 564 1132 C564 1147 557 1164 544 1183 C536 1194 532 1203 532 1212 C532 1224 535 1238 542 1254 C562 1303 611 1372 690 1463 L657 1495 Z M337 1495 C255 1403 196 1333 161 1285 C126 1237 108 1192 108 1149 C108 1094 134 1069 182 1069 C218 1069 244 1096 244 1132 C244 1147 237 1164 224 1183 C216 1194 212 1203 212 1212 C212 1224 215 1238 222 1254 C242 1303 291 1372 370 1463 L337 1495 Z " />
<glyph glyph-name="quotedblright" unicode="&#x201d;" horiz-adv-x="685" d="M28 1069 C110 1160 169 1230 204 1279 C239 1327 257 1372 257 1415 C257 1470 231 1495 183 1495 C147 1495 120 1468 120 1432 C120 1417 127 1400 141 1381 C148 1370 152 1361 152 1352 C152 1340 149 1326 142 1310 C123 1261 74 1191 -5 1100 L28 1069 Z M348 1069 C430 1160 489 1230 524 1279 C559 1327 577 1372 577 1415 C577 1470 551 1495 502 1495 C467 1495 440 1468 440 1432 C440 1417 447 1400 461 1381 C468 1370 472 1361 472 1352 C472 1340 469 1326 462 1310 C442 1261 393 1191 315 1100 L348 1069 Z " />
<glyph glyph-name="quotedblbase" unicode="&#x201e;" horiz-adv-x="685" d="M28 -301 C110 -209 169 -139 204 -91 C239 -42 257 3 257 45 C257 100 231 125 183 125 C147 125 120 98 120 62 C120 47 127 30 141 11 C148 1 152 -9 152 -18 C152 -29 149 -43 142 -60 C123 -109 74 -178 -5 -269 L28 -301 Z M348 -301 C430 -209 489 -139 524 -91 C559 -42 577 3 577 45 C577 100 551 125 502 125 C467 125 440 98 440 62 C440 47 447 30 461 11 C468 1 472 -9 472 -18 C472 -29 469 -43 462 -60 C442 -109 393 -178 315 -269 L348 -301 Z " />
<glyph glyph-name="dagger" unicode="&#x2020;" horiz-adv-x="1272" d="M679 1014 L1079 1014 L1079 1090 L679 1090 L679 1493 L592 1493 L592 1090 L193 1090 L193 1014 L592 1014 L592 -414 L679 -414 L679 1014 Z " />
<glyph glyph-name="daggerdbl" unicode="&#x2021;" horiz-adv-x="1272" d="M679 -11 L1079 -11 L1079 65 L679 65 L679 1014 L1079 1014 L1079 1090 L679 1090 L679 1493 L592 1493 L592 1090 L193 1090 L193 1014 L592 1014 L592 65 L193 65 L193 -11 L592 -11 L592 -414 L679 -414 L679 -11 Z " />
<glyph glyph-name="bullet" unicode="&#x2022;" horiz-adv-x="1272" d="M635 593 C672 593 704 606 731 633 C757 659 770 690 770 727 C770 764 757 796 731 823 C704 849 672 862 635 862 C598 862 567 849 541 823 C514 796 501 764 501 727 C501 690 514 659 541 633 C567 606 598 593 635 593 L635 593 Z " />
<glyph glyph-name="ellipsis" unicode="&#x2026;" horiz-adv-x="1206" d="M182 -23 C223 -23 257 10 257 51 C257 92 223 125 182 125 C141 125 108 92 108 51 C108 10 141 -23 182 -23 L182 -23 Z M603 -23 C644 -23 677 10 677 51 C677 92 644 125 603 125 C562 125 528 92 528 51 C528 10 562 -23 603 -23 L603 -23 Z M1024 -23 C1065 -23 1098 10 1098 51 C1098 92 1065 125 1024 125 C983 125 949 92 949 51 C949 10 983 -23 1024 -23 L1024 -23 Z " />
<glyph glyph-name="perthousand" unicode="&#x2030;" horiz-adv-x="2715" d="M1419 1481 L1310 1481 L441 -23 L551 -23 L1419 1481 Z M484 817 C405 817 337 845 281 902 C224 958 196 1026 196 1105 C196 1185 224 1253 281 1309 C337 1365 405 1393 484 1393 C563 1393 631 1365 688 1309 C744 1253 772 1185 772 1105 C772 1026 744 958 688 902 C631 845 563 817 484 817 L484 817 Z M484 729 C588 729 677 766 750 839 C823 912 860 1001 860 1105 C860 1209 823 1298 750 1371 C677 1444 588 1481 484 1481 C380 1481 291 1444 218 1371 C145 1298 108 1209 108 1105 C108 1001 145 912 218 839 C291 766 380 729 484 729 L484 729 Z M1377 65 C1297 65 1229 93 1173 149 C1116 205 1088 273 1088 353 C1088 432 1116 500 1173 557 C1229 613 1297 641 1377 641 C1456 641 1524 613 1581 557 C1637 500 1665 432 1665 353 C1665 273 1637 205 1581 149 C1524 93 1456 65 1377 65 L1377 65 Z M1377 -23 C1480 -23 1569 14 1643 87 C1716 160 1753 249 1753 353 C1753 457 1716 546 1643 619 C1569 692 1480 729 1377 729 C1273 729 1184 692 1111 619 C1037 546 1000 457 1000 353 C1000 249 1037 160 1111 87 C1184 14 1273 -23 1377 -23 L1377 -23 Z M2230 65 C2151 65 2083 93 2027 149 C1970 205 1942 273 1942 353 C1942 432 1970 500 2027 557 C2083 613 2151 641 2230 641 C2310 641 2378 613 2435 557 C2491 500 2519 432 2519 353 C2519 273 2491 205 2435 149 C2378 93 2310 65 2230 65 L2230 65 Z M2230 -23 C2334 -23 2423 14 2496 87 C2569 160 2606 249 2606 353 C2606 457 2569 546 2496 619 C2423 692 2334 729 2230 729 C2126 729 2037 692 1964 619 C1891 546 1854 457 1854 353 C1854 249 1891 160 1964 87 C2037 14 2126 -23 2230 -23 L2230 -23 Z " />
<glyph glyph-name="guilsinglleft" unicode="&#x2039;" horiz-adv-x="777" d="M321 529 L583 984 L483 984 L220 529 L483 74 L583 74 L321 529 Z " />
<glyph glyph-name="guilsinglright" unicode="&#x203a;" horiz-adv-x="777" d="M295 74 L557 529 L295 984 L194 984 L457 529 L194 74 L295 74 Z " />
<glyph glyph-name="&amp;#x2044;" unicode="&#x2044;" horiz-adv-x="194" d="M586 1481 L476 1481 L-392 -22 L-282 -22 L586 1481 Z " />
<glyph glyph-name="&amp;#x2215;" unicode="&#x2215;" horiz-adv-x="194" d="M586 1481 L476 1481 L-392 -22 L-282 -22 L586 1481 Z " />
<glyph glyph-name="franc" unicode="&#x20a3;" horiz-adv-x="1272" d="M946 472 L376 472 L376 683 L1093 683 L1093 770 L376 770 L376 1366 L1211 1366 L1211 1457 L272 1457 L272 472 L61 472 L61 385 L272 385 L272 -2 L376 -2 L376 385 L946 385 L946 472 Z " />
<glyph glyph-name="lira" unicode="&#x20a4;" horiz-adv-x="1272" d="M198 868 L295 868 L295 590 L198 590 L198 505 L295 505 L295 84 L138 84 L138 -1 L1134 -1 L1134 84 L399 84 L399 505 L834 505 L834 590 L399 590 L399 868 L834 868 L834 954 L399 954 L399 1068 C399 1160 427 1237 483 1298 C539 1359 612 1390 703 1391 C844 1391 967 1329 1070 1202 L1134 1262 C1017 1403 872 1481 696 1481 C576 1481 479 1441 406 1360 C332 1279 295 1180 295 1061 L295 954 L198 954 L198 868 Z " />
<glyph glyph-name="Euro" unicode="&#x20ac;" horiz-adv-x="1272" d="M53 954 L53 868 L311 868 C306 823 303 776 303 728 C303 681 306 635 311 590 L53 590 L53 505 L325 505 C349 390 393 287 456 196 C557 49 713 -25 923 -25 C1030 -25 1129 3 1219 60 L1219 159 C1129 96 1030 64 923 64 C750 64 620 129 533 260 C484 333 449 415 428 505 L967 505 L967 590 L412 590 C406 634 403 680 403 728 C403 777 406 823 412 868 L967 868 L967 954 L429 954 C450 1042 485 1122 533 1195 C620 1326 750 1391 923 1391 C1030 1391 1129 1359 1219 1296 L1219 1395 C1129 1452 1030 1480 923 1480 C713 1480 557 1407 456 1260 C393 1169 350 1067 326 954 L53 954 Z " />
<glyph glyph-name="uni20B9" unicode="&#x20b9;" horiz-adv-x="1272" d="M89 1373 L542 1373 C670 1373 761 1345 816 1290 C871 1234 901 1164 908 1079 L89 1079 L89 994 L909 994 C906 903 876 828 821 770 C766 711 673 682 542 682 L89 682 L89 598 L480 598 L955 -3 L1088 -3 L603 609 C723 619 819 658 890 726 C961 793 1000 883 1006 994 L1182 994 L1182 1079 L1005 1079 C1001 1218 930 1310 835 1375 L1182 1375 L1182 1457 L89 1457 L89 1373 Z " />
<glyph glyph-name="uni20BA" unicode="&#x20ba;" horiz-adv-x="1272" d="M103 740 L324 861 L324 538 L103 417 L103 321 L324 442 L324 -2 L486 -2 C687 -2 851 58 978 178 C1105 298 1168 456 1168 653 L1073 653 C1073 476 1016 339 903 240 C790 141 651 90 486 89 L428 89 L428 499 L881 746 L881 842 L428 595 L428 918 L881 1165 L881 1261 L428 1014 L428 1457 L324 1457 L324 957 L103 836 L103 740 Z " />
<glyph glyph-name="uni2113" unicode="&#x2113;" horiz-adv-x="778" d="M241 1257 C241 1310 258 1353 291 1388 C324 1422 365 1439 412 1439 C459 1439 500 1422 533 1389 C566 1355 583 1311 583 1257 C583 1180 553 1124 493 1089 L241 933 L241 1257 Z M413 -25 C518 -23 618 26 714 122 L714 166 C615 68 516 19 416 19 C299 19 241 102 241 269 L241 894 L498 1051 C581 1101 622 1170 622 1257 C622 1319 602 1372 561 1415 C520 1458 467 1480 403 1480 C334 1480 276 1457 229 1412 C181 1367 157 1309 156 1239 L156 880 L24 798 L24 759 L156 841 L156 277 C156 76 242 -25 413 -25 L413 -25 Z " />
<glyph glyph-name="trademark" unicode="&#x2122;" horiz-adv-x="1593" d="M1485 1459 L1423 1459 L1144 1079 L864 1459 L802 1459 L802 729 L877 729 L877 1320 L1121 986 L1166 986 L1410 1320 L1410 729 L1485 729 L1485 1459 Z M433 1389 L682 1389 L682 1459 L108 1459 L108 1389 L357 1389 L357 729 L433 729 L433 1389 Z " />
<glyph glyph-name="estimated" unicode="&#x212e;" horiz-adv-x="1744" d="M286 767 L286 1111 C431 1322 626 1428 872 1428 C1117 1428 1312 1322 1457 1111 L1457 767 L286 767 Z M872 -15 C1151 -15 1371 109 1530 356 L1476 388 C1323 159 1121 45 872 45 C626 45 431 151 286 362 L286 707 L1635 707 L1635 737 C1635 945 1560 1122 1411 1269 C1262 1415 1082 1488 872 1488 C661 1488 481 1415 332 1269 C183 1122 108 945 108 737 C108 529 183 352 332 205 C481 58 661 -15 872 -15 L872 -15 Z " />
<glyph glyph-name="onethird" unicode="&#x2153;" horiz-adv-x="1557" d="M396 1470 L316 1470 L107 1349 C120 1326 134 1303 147 1280 L306 1371 L306 726 L396 726 L396 1470 Z M1166 -12 C1229 -12 1292 6 1355 41 C1418 76 1449 129 1449 202 C1449 279 1387 343 1314 371 C1381 407 1415 463 1415 540 C1415 613 1390 667 1340 702 C1290 737 1233 754 1169 754 C1057 754 973 709 916 619 L982 568 C1022 636 1083 670 1166 670 C1205 670 1241 660 1275 641 C1308 621 1325 588 1325 541 C1325 494 1307 461 1272 442 C1237 422 1200 412 1162 412 L1100 412 L1100 330 L1162 330 C1199 330 1242 320 1289 301 C1336 281 1360 248 1360 201 C1360 154 1337 121 1290 102 C1243 82 1201 72 1163 72 C1080 72 1017 106 972 174 L906 123 C967 33 1053 -12 1166 -12 L1166 -12 Z M1257 1481 L1148 1481 L279 -22 L389 -22 L1257 1481 Z " />
<glyph glyph-name="twothirds" unicode="&#x2154;" horiz-adv-x="1557" d="M618 807 L255 807 L564 1129 C605 1168 625 1212 625 1263 C625 1336 597 1391 540 1427 C483 1463 422 1481 356 1481 C244 1481 156 1436 93 1347 L160 1297 C207 1364 272 1397 353 1397 C394 1397 434 1387 475 1367 C515 1346 535 1312 535 1264 C535 1234 524 1209 502 1188 L114 789 L114 726 L618 726 L618 807 Z M1271 1481 L1161 1481 L293 -22 L403 -22 L1271 1481 Z M1180 -12 C1243 -12 1306 6 1369 41 C1432 76 1463 129 1463 202 C1463 241 1450 275 1423 305 C1396 335 1364 357 1328 371 C1395 407 1429 463 1429 540 C1429 613 1404 667 1354 702 C1304 737 1247 754 1183 754 C1071 754 987 709 930 619 L996 568 C1036 636 1097 670 1180 670 C1219 670 1255 660 1289 641 C1322 621 1339 588 1339 541 C1339 494 1321 461 1286 442 C1251 422 1214 412 1176 412 L1114 412 L1114 330 L1176 330 C1213 330 1256 320 1303 301 C1350 281 1373 248 1373 201 C1373 154 1350 121 1304 102 C1257 82 1215 72 1177 72 C1094 72 1031 106 986 174 L920 123 C981 33 1067 -12 1180 -12 L1180 -12 Z " />
<glyph glyph-name="partialdiff" unicode="&#x2202;" horiz-adv-x="1253" d="M595 82 C470 82 375 121 311 198 C246 275 214 368 214 479 C214 589 246 683 311 760 C375 837 470 875 595 875 C746 875 893 822 1037 717 C1037 610 1026 510 1004 416 C981 321 938 242 875 178 C812 114 718 82 595 82 L595 82 Z M595 -15 C962 -15 1145 237 1145 741 C1145 946 1094 1122 991 1269 C888 1416 729 1489 516 1489 C413 1489 324 1468 248 1426 L292 1335 C359 1372 434 1391 516 1392 C680 1392 805 1336 890 1224 C975 1111 1023 978 1036 825 C893 922 746 971 595 971 C442 971 322 924 237 830 C151 735 108 618 108 478 C108 338 151 221 237 127 C322 32 442 -15 595 -15 L595 -15 Z " />
<glyph glyph-name="increment" unicode="&#x2206;" horiz-adv-x="1517" d="M263 94 L759 1308 L1254 94 L263 94 Z M797 1455 L719 1455 L108 -3 L1409 -3 L797 1455 Z " />
<glyph glyph-name="product" unicode="&#x220f;" horiz-adv-x="1697" d="M1589 1480 L108 1480 L108 -427 L212 -427 L212 1392 L1485 1392 L1485 -427 L1589 -427 L1589 1480 Z " />
<glyph glyph-name="summation" unicode="&#x2211;" horiz-adv-x="1697" d="M1589 -340 L239 -340 L892 526 L239 1392 L1589 1392 L1589 1480 L108 1480 L108 1392 L761 526 L108 -340 L108 -427 L1589 -427 L1589 -340 Z " />
<glyph glyph-name="minus" unicode="&#x2212;" horiz-adv-x="1272" d="M1113 780 L159 780 L159 693 L1113 693 L1113 780 Z " />
<glyph glyph-name="radical" unicode="&#x221a;" horiz-adv-x="1272" d="M1260 1886 L1167 1886 L698 137 L397 1080 L-47 961 L-24 874 L338 970 L656 -21 L749 -21 L1260 1886 Z " />
<glyph glyph-name="infinity" unicode="&#x221e;" horiz-adv-x="1551" d="M409 520 C349 520 298 541 256 584 C214 626 193 677 193 737 C193 797 214 848 256 890 C298 932 349 953 409 953 C461 952 508 935 551 900 C593 865 632 827 669 786 L715 737 L668 687 C632 646 593 609 551 574 C508 539 461 521 409 520 L409 520 Z M1142 520 C1090 521 1043 539 1001 574 C958 609 919 646 882 687 L835 737 L882 786 C919 827 958 865 1001 900 C1043 935 1090 952 1142 953 C1202 953 1253 932 1295 890 C1337 848 1358 797 1358 737 C1358 677 1337 626 1295 584 C1253 541 1202 520 1142 520 L1142 520 Z M1142 436 C1225 436 1296 465 1355 524 C1414 583 1443 654 1443 737 C1443 820 1414 891 1355 950 C1296 1009 1225 1038 1142 1038 C1073 1038 1014 1019 965 980 C916 941 869 897 826 849 L775 797 L725 849 C681 898 635 941 586 980 C537 1019 478 1038 409 1038 C326 1038 255 1009 196 950 C137 891 108 820 108 737 C108 654 137 583 196 524 C255 465 326 436 409 436 C478 436 537 455 586 494 C635 533 682 576 725 624 L775 677 L826 624 C869 576 916 533 965 494 C1014 455 1073 436 1142 436 L1142 436 Z " />
<glyph glyph-name="integral" unicode="&#x222b;" horiz-adv-x="737" d="M233 -428 C301 -428 349 -372 377 -259 C405 -146 419 -23 419 110 L418 1457 C418 1538 422 1621 429 1705 C436 1788 462 1830 505 1830 L512 1829 C506 1820 503 1810 503 1799 C503 1764 531 1735 566 1735 C603 1735 629 1764 629 1799 C629 1861 587 1892 503 1892 C436 1892 388 1836 360 1724 C331 1611 317 1488 317 1355 L318 -1 C318 -78 314 -158 307 -241 C300 -324 272 -365 223 -365 C230 -359 233 -349 233 -335 C233 -300 205 -272 169 -272 C134 -272 108 -300 108 -335 C108 -396 150 -427 233 -428 L233 -428 Z " />
<glyph glyph-name="approxequal" unicode="&#x2248;" horiz-adv-x="1272" d="M846 828 C959 828 1032 857 1065 914 L1065 1002 C1044 978 1018 958 987 942 C956 925 908 917 844 917 C778 917 704 935 621 970 C544 1002 479 1018 425 1018 C313 1018 240 989 206 931 L206 844 C226 868 252 888 284 905 C315 921 363 929 427 929 C493 929 567 911 650 876 C727 844 792 828 846 828 L846 828 Z M846 455 C959 455 1032 484 1065 541 L1065 629 C1044 605 1018 585 987 569 C956 552 908 544 844 544 C778 544 704 562 621 597 C544 629 479 645 425 645 C313 645 240 616 206 558 L206 471 C226 495 252 515 284 532 C315 548 363 556 427 556 C493 556 567 538 650 503 C727 471 792 455 846 455 L846 455 Z " />
<glyph glyph-name="notequal" unicode="&#x2260;" horiz-adv-x="1272" d="M790 1480 L660 995 L179 995 L179 908 L637 908 L540 548 L179 548 L179 461 L517 461 L387 -24 L481 -24 L611 461 L1092 461 L1092 548 L634 548 L731 908 L1092 908 L1092 995 L754 995 L884 1480 L790 1480 Z " />
<glyph glyph-name="lessequal" unicode="&#x2264;" horiz-adv-x="1272" d="M1092 538 L305 830 L1092 1123 L1092 1215 L179 873 L179 788 L1092 445 L1092 538 Z M1092 313 L179 313 L179 226 L1092 226 L1092 313 Z " />
<glyph glyph-name="greaterequal" unicode="&#x2265;" horiz-adv-x="1272" d="M1092 788 L1092 873 L179 1215 L179 1123 L966 830 L179 538 L179 445 L1092 788 Z M1092 226 L1092 313 L179 313 L179 226 L1092 226 Z " />
<glyph glyph-name="lozenge" unicode="&#x25ca;" horiz-adv-x="1001" d="M210 728 L500 1372 L790 728 L500 84 L210 728 Z M893 728 L553 1457 L448 1457 L108 728 L448 -1 L553 -1 L893 728 Z " />
<glyph glyph-name="&amp;#xf001;" unicode="&#xf001;" horiz-adv-x="1129" d="M377 974 L758 974 L758 1057 L377 1057 L377 1146 C377 1218 404 1278 458 1326 C512 1374 577 1398 653 1398 C692 1398 727 1395 758 1389 L758 1473 C721 1478 682 1481 641 1481 C540 1480 454 1449 383 1390 C312 1330 276 1249 276 1146 L276 1057 L40 1057 L40 974 L276 974 L276 -1 L377 -1 L377 974 Z M969 1057 L867 1057 L867 -1 L969 -1 L969 1057 Z M918 1338 C958 1338 989 1370 989 1410 C989 1449 958 1481 918 1481 C879 1481 847 1449 847 1410 C847 1370 879 1338 918 1338 L918 1338 Z " />
<glyph glyph-name="&amp;#xfb01;" unicode="&#xfb01;" horiz-adv-x="1129" d="M377 974 L758 974 L758 1057 L377 1057 L377 1146 C377 1218 404 1278 458 1326 C512 1374 577 1398 653 1398 C692 1398 727 1395 758 1389 L758 1473 C721 1478 682 1481 641 1481 C540 1480 454 1449 383 1390 C312 1330 276 1249 276 1146 L276 1057 L40 1057 L40 974 L276 974 L276 -1 L377 -1 L377 974 Z M969 1057 L867 1057 L867 -1 L969 -1 L969 1057 Z M918 1338 C958 1338 989 1370 989 1410 C989 1449 958 1481 918 1481 C879 1481 847 1449 847 1410 C847 1370 879 1338 918 1338 L918 1338 Z " />
<glyph glyph-name="&amp;#xf002;" unicode="&#xf002;" horiz-adv-x="1159" d="M377 974 L758 974 L758 1057 L377 1057 L377 1146 C377 1218 404 1278 458 1326 C512 1374 577 1398 653 1398 C692 1398 727 1395 758 1389 L758 1473 C721 1478 682 1481 641 1481 C540 1480 454 1449 383 1390 C312 1330 276 1249 276 1146 L276 1057 L40 1057 L40 974 L276 974 L276 -1 L377 -1 L377 974 Z M983 1458 L882 1458 L882 -1 L983 -1 L983 1458 Z " />
<glyph glyph-name="&amp;#xfb02;" unicode="&#xfb02;" horiz-adv-x="1159" d="M377 974 L758 974 L758 1057 L377 1057 L377 1146 C377 1218 404 1278 458 1326 C512 1374 577 1398 653 1398 C692 1398 727 1395 758 1389 L758 1473 C721 1478 682 1481 641 1481 C540 1480 454 1449 383 1390 C312 1330 276 1249 276 1146 L276 1057 L40 1057 L40 974 L276 974 L276 -1 L377 -1 L377 974 Z M983 1458 L882 1458 L882 -1 L983 -1 L983 1458 Z " />
<glyph glyph-name="uniFB00" unicode="&#xfb00;" horiz-adv-x="1431" d="M883 -1 L985 -1 L985 974 L1366 974 L1366 1057 L985 1057 L985 1146 C985 1218 1012 1278 1066 1326 C1120 1374 1185 1398 1260 1398 C1299 1398 1335 1395 1366 1389 L1366 1473 C1328 1478 1289 1481 1249 1481 C1148 1480 1061 1449 990 1390 C919 1330 883 1249 883 1146 L883 1057 L378 1057 L378 1146 C378 1218 405 1278 459 1326 C513 1374 578 1398 653 1398 C692 1398 728 1395 759 1389 L759 1473 C721 1478 682 1481 642 1481 C541 1480 454 1449 383 1390 C312 1330 276 1249 276 1146 L276 1057 L40 1057 L40 974 L276 974 L276 -1 L378 -1 L378 974 L883 974 L883 -1 Z " />
<glyph glyph-name="uniFB03" unicode="&#xfb03;" horiz-adv-x="1739" d="M883 -1 L985 -1 L985 974 L1366 974 L1366 1057 L985 1057 L985 1146 C985 1218 1012 1278 1066 1326 C1120 1374 1185 1398 1260 1398 C1299 1398 1335 1395 1366 1389 L1366 1473 C1328 1478 1289 1481 1249 1481 C1148 1480 1061 1449 990 1390 C919 1330 883 1249 883 1146 L883 1057 L378 1057 L378 1146 C378 1218 405 1278 459 1326 C513 1374 578 1398 653 1398 C692 1398 728 1395 759 1389 L759 1473 C721 1478 682 1481 642 1481 C541 1480 454 1449 383 1390 C312 1330 276 1249 276 1146 L276 1057 L40 1057 L40 974 L276 974 L276 -1 L378 -1 L378 974 L883 974 L883 -1 Z M1576 1057 L1475 1057 L1475 -1 L1576 -1 L1576 1057 Z M1526 1335 C1566 1335 1599 1368 1599 1408 C1599 1448 1566 1481 1526 1481 C1486 1481 1453 1448 1453 1408 C1453 1368 1486 1335 1526 1335 L1526 1335 Z " />
<glyph glyph-name="uniFB04" unicode="&#xfb04;" horiz-adv-x="1766" d="M883 -1 L985 -1 L985 974 L1366 974 L1366 1057 L985 1057 L985 1146 C985 1218 1012 1278 1066 1326 C1120 1374 1185 1398 1260 1398 C1299 1398 1335 1395 1366 1389 L1366 1473 C1328 1478 1289 1481 1249 1481 C1148 1480 1061 1449 990 1390 C919 1330 883 1249 883 1146 L883 1057 L378 1057 L378 1146 C378 1218 405 1278 459 1326 C513 1374 578 1398 653 1398 C692 1398 728 1395 759 1389 L759 1473 C721 1478 682 1481 642 1481 C541 1480 454 1449 383 1390 C312 1330 276 1249 276 1146 L276 1057 L40 1057 L40 974 L276 974 L276 -1 L378 -1 L378 974 L883 974 L883 -1 Z M1591 1458 L1490 1458 L1490 -1 L1591 -1 L1591 1458 Z " />
</font>
</svg>
