<?xml version="1.0" encoding="UTF-8"?>
<svg xmlns="http://www.w3.org/2000/svg" xmlns:xlink="http://www.w3.org/1999/xlink" version="1.2" >
<font id="Guerrer Medium">
<font-face  font-family="Guerrer" units-per-em="2048" ascent="1458" descent="-405" font-style="normal" font-weight="500" font-stretch="normal" cap-height="1457" x-height="1066" underline-position="-217" underline-thickness="150" />
<missing-glyph  horiz-adv-x="1024" d="" />
<glyph glyph-name="&amp;#x0;" d="" />
<glyph glyph-name="&amp;#x1d;" unicode="&#x1d;" d="" />
<glyph glyph-name="&amp;#x20;" unicode="&#x20;" horiz-adv-x="500" d="" />
<glyph glyph-name="&amp;#xa0;" unicode="&#xa0;" horiz-adv-x="500" d="" />
<glyph glyph-name="exclam" unicode="&#x21;" horiz-adv-x="804" d="M493 432 L530 1480 L275 1480 L311 432 L493 432 Z M402 -24 C359 -24 322 -9 292 22 C261 53 246 89 246 132 C246 175 261 212 292 243 C323 273 359 288 402 288 C445 288 482 273 513 243 C543 212 558 175 558 132 C558 89 543 53 513 22 C482 -9 445 -24 402 -24 L402 -24 Z " />
<glyph glyph-name="quotedbl" unicode="&#x22;" horiz-adv-x="601" d="M555 1513 L348 1513 L380 1049 L522 1049 L555 1513 Z M253 1513 L46 1513 L79 1049 L220 1049 L253 1513 Z " />
<glyph glyph-name="numbersign" unicode="&#x23;" horiz-adv-x="1301" d="M752 565 L480 565 L570 901 L843 901 L752 565 Z M789 -24 L902 399 L1223 399 L1223 565 L947 565 L1037 901 L1223 901 L1223 1066 L1081 1066 L1192 1480 L998 1480 L887 1066 L615 1066 L725 1480 L531 1480 L420 1066 L78 1066 L78 901 L376 901 L286 565 L78 565 L78 399 L242 399 L128 -24 L323 -24 L436 399 L708 399 L595 -24 L789 -24 Z " />
<glyph glyph-name="dollar" unicode="&#x24;" horiz-adv-x="1301" d="M743 -18 C886 -1 1006 47 1101 126 C1196 205 1243 298 1243 407 C1243 510 1217 589 1166 644 C1114 698 1050 738 973 764 C896 789 813 810 724 826 C634 842 555 864 487 893 C418 921 384 972 384 1047 C384 1106 412 1156 468 1196 C524 1235 589 1255 664 1255 C821 1255 936 1200 1011 1099 L1192 1247 C1134 1320 1066 1374 988 1408 C909 1442 828 1463 743 1472 L743 1665 L557 1665 L557 1468 C426 1448 318 1399 233 1322 C148 1244 105 1152 105 1047 C105 943 131 864 183 810 C234 755 298 716 373 691 C448 666 527 645 610 630 C707 612 791 589 860 561 C929 532 963 481 963 407 C963 348 933 298 874 258 C814 218 741 198 656 198 C575 198 492 218 409 258 C326 297 264 350 225 415 L57 264 C153 96 328 10 557 -17 L557 -209 L743 -209 L743 -18 Z " />
<glyph glyph-name="percent" unicode="&#x25;" horiz-adv-x="1892" d="M636 -24 L1504 1480 L1257 1480 L388 -24 L636 -24 Z M472 924 C422 924 380 942 345 977 C310 1012 292 1055 292 1104 C292 1154 310 1197 345 1232 C380 1267 422 1284 472 1284 C522 1284 565 1267 600 1232 C635 1197 652 1154 652 1104 C652 1055 635 1012 600 977 C565 942 522 924 472 924 L472 924 Z M472 728 C576 728 665 765 738 838 C811 911 848 1000 848 1104 C848 1208 811 1297 738 1370 C665 1443 576 1480 472 1480 C368 1480 279 1443 206 1370 C133 1297 96 1208 96 1104 C96 1000 133 911 206 838 C279 765 368 728 472 728 L472 728 Z M1420 172 C1370 172 1328 190 1293 225 C1258 260 1240 302 1240 352 C1240 402 1258 445 1293 480 C1328 515 1370 532 1420 532 C1470 532 1513 515 1548 480 C1583 445 1600 402 1600 352 C1600 302 1583 260 1548 225 C1513 190 1470 172 1420 172 L1420 172 Z M1420 -24 C1524 -24 1613 13 1686 86 C1759 159 1796 248 1796 352 C1796 456 1759 545 1686 618 C1613 691 1524 728 1420 728 C1316 728 1227 691 1154 618 C1081 545 1044 456 1044 352 C1044 248 1081 159 1154 86 C1227 13 1316 -24 1420 -24 L1420 -24 Z " />
<glyph glyph-name="ampersand" unicode="&#x26;" horiz-adv-x="1475" d="M589 176 C500 176 434 198 389 242 C344 285 322 339 322 402 C322 459 343 508 385 550 L506 671 L874 320 C803 224 708 176 589 176 L589 176 Z M589 -24 C764 -24 912 38 1031 162 L1201 -1 L1479 -1 L1150 320 L1435 712 L1163 712 L994 476 L543 907 C490 957 464 1015 464 1082 C465 1137 484 1183 522 1222 C560 1261 618 1280 697 1280 C764 1280 819 1259 862 1217 C905 1175 926 1130 926 1082 L1151 1082 C1151 1198 1108 1293 1022 1368 C935 1443 827 1480 697 1480 C568 1479 459 1445 371 1378 C282 1311 238 1212 238 1082 C238 1001 280 916 363 825 L233 695 C142 607 96 509 96 402 C97 271 138 168 221 91 C304 14 426 -24 589 -24 L589 -24 Z " />
<glyph glyph-name="quotesingle" unicode="&#x27;" horiz-adv-x="299" d="M253 1513 L46 1513 L79 1049 L220 1049 L253 1513 Z " />
<glyph glyph-name="parenleft" unicode="&#x28;" horiz-adv-x="532" d="M536 -427 C409 -195 345 123 345 526 C345 929 409 1247 536 1480 L342 1480 C213 1201 148 883 148 526 C148 169 213 -148 342 -427 L536 -427 Z " />
<glyph glyph-name="parenright" unicode="&#x29;" horiz-adv-x="532" d="M-4 -427 L190 -427 C319 -148 384 169 384 526 C384 883 319 1201 190 1480 L-4 1480 C123 1247 187 929 187 526 C187 123 123 -195 -4 -427 L-4 -427 Z " />
<glyph glyph-name="asterisk" unicode="&#x2a;" horiz-adv-x="602" d="M503 1078 L398 1203 L556 1243 L513 1378 L361 1317 L372 1480 L230 1480 L241 1317 L90 1378 L46 1243 L204 1203 L100 1078 L214 995 L301 1133 L388 995 L503 1078 Z " />
<glyph glyph-name="plus" unicode="&#x2b;" horiz-adv-x="1301" d="M743 646 L1130 646 L1130 811 L743 811 L743 1207 L557 1207 L557 811 L170 811 L170 646 L557 646 L557 250 L743 250 L743 646 Z " />
<glyph glyph-name="comma" unicode="&#x2c;" horiz-adv-x="504" d="M63 -339 C162 -262 244 -188 310 -118 C375 -48 408 30 408 116 C408 173 392 216 359 245 C326 274 289 288 248 288 C207 288 173 274 146 245 C119 216 106 183 106 146 C106 117 123 79 156 30 C169 9 176 -8 176 -19 C176 -36 171 -56 161 -77 C138 -128 87 -193 8 -272 L63 -339 Z " />
<glyph glyph-name="&amp;#x2d;" unicode="&#x2d;" horiz-adv-x="782" d="M685 439 L685 625 L96 625 L96 439 L685 439 Z " />
<glyph glyph-name="&amp;#xad;" unicode="&#xad;" horiz-adv-x="782" d="M685 439 L685 625 L96 625 L96 439 L685 439 Z " />
<glyph glyph-name="period" unicode="&#x2e;" horiz-adv-x="504" d="M252 -24 C295 -24 332 -9 363 22 C393 53 408 89 408 132 C408 175 393 212 363 243 C332 273 295 288 252 288 C209 288 173 273 142 243 C111 212 96 175 96 132 C96 89 111 53 142 22 C172 -9 209 -24 252 -24 L252 -24 Z " />
<glyph glyph-name="slash" unicode="&#x2f;" horiz-adv-x="701" d="M246 -24 L649 1480 L455 1480 L52 -24 L246 -24 Z " />
<glyph glyph-name="zero" unicode="0" horiz-adv-x="1301" d="M651 197 C566 197 500 226 454 285 C361 402 330 557 330 728 C330 811 340 891 359 968 C378 1044 410 1112 455 1171 C500 1230 565 1259 651 1259 C736 1259 801 1230 848 1172 C940 1055 972 899 972 728 C972 641 963 559 944 484 C925 408 893 341 847 284 C800 226 735 197 651 197 L651 197 Z M651 -24 C804 -24 922 16 1005 97 C1088 177 1146 272 1178 382 C1210 492 1226 607 1226 728 C1226 851 1209 967 1175 1076 C1140 1185 1081 1279 998 1360 C914 1440 798 1480 651 1480 C498 1480 380 1440 297 1360 C214 1279 156 1184 124 1074 C91 964 75 849 75 728 C75 599 92 481 127 372 C161 263 220 169 303 92 C386 15 502 -24 651 -24 L651 -24 Z " />
<glyph glyph-name="one" unicode="1" horiz-adv-x="1301" d="M1150 216 L793 216 L793 1458 L537 1458 L150 1234 L259 1045 L537 1206 L537 216 L180 216 L180 -2 L1150 -2 L1150 216 Z " />
<glyph glyph-name="two" unicode="2" horiz-adv-x="1300" d="M1173 -2 L1173 216 L544 216 L1051 722 C1141 809 1186 908 1186 1019 C1186 1165 1133 1278 1028 1359 C923 1440 795 1480 645 1480 C405 1480 228 1393 115 1218 L283 1071 C356 1194 471 1255 629 1255 C716 1255 788 1234 845 1191 C902 1148 930 1092 930 1023 C930 964 911 916 872 878 L150 164 L150 -2 L1173 -2 Z " />
<glyph glyph-name="three" unicode="3" horiz-adv-x="1302" d="M634 -23 C784 -23 916 16 1029 94 C1142 171 1198 279 1198 416 C1198 480 1174 542 1127 603 C1079 664 1018 705 944 728 C1017 751 1070 793 1103 854 C1135 915 1151 977 1151 1041 C1151 1178 1103 1285 1007 1363 C910 1441 787 1480 637 1480 C411 1480 243 1392 133 1216 L301 1068 C370 1193 476 1255 621 1255 C794 1255 895 1174 895 1045 C895 982 871 931 823 892 C775 853 708 833 622 833 L506 833 L506 624 L620 624 C824 624 943 540 943 412 C943 347 912 295 851 258 C789 221 711 202 618 202 C457 202 343 266 271 389 L103 241 C153 163 220 100 305 51 C390 2 499 -23 634 -23 L634 -23 Z " />
<glyph glyph-name="four" unicode="4" horiz-adv-x="1300" d="M1047 -2 L1047 237 L1228 237 L1228 454 L1047 454 L1047 757 L807 757 L807 454 L352 454 L942 1458 L671 1458 L73 434 L73 237 L807 237 L807 -2 L1047 -2 Z " />
<glyph glyph-name="five" unicode="5" horiz-adv-x="1301" d="M638 -24 C781 -24 910 19 1026 105 C1141 190 1199 311 1199 468 C1199 619 1145 739 1038 828 C931 917 802 961 653 961 L472 961 L472 1240 L1088 1240 L1088 1458 L216 1458 L216 737 L638 737 C725 737 797 712 856 662 C915 612 944 547 944 468 C944 389 912 325 848 275 C784 225 709 200 622 200 C471 200 354 267 270 396 L102 249 C234 70 411 -24 638 -24 L638 -24 Z " />
<glyph glyph-name="six" unicode="6" horiz-adv-x="1300" d="M652 201 C565 201 492 226 432 276 C372 326 342 390 342 469 C342 548 372 613 432 663 C492 712 565 737 652 737 C738 737 810 712 869 663 C928 613 957 548 957 469 C957 390 928 326 869 276 C810 226 738 201 652 201 L652 201 Z M652 -24 C802 -24 933 21 1045 110 C1157 199 1213 318 1213 469 C1213 620 1159 740 1052 829 C945 918 816 962 666 962 C608 962 552 943 497 904 L855 1458 L583 1458 L190 810 C121 704 87 593 87 476 C87 322 144 200 257 111 C370 21 501 -24 652 -24 L652 -24 Z " />
<glyph glyph-name="seven" unicode="7" horiz-adv-x="1302" d="M557 -2 L1162 1257 L1162 1458 L139 1458 L139 1240 L898 1240 L289 -1 L557 -2 Z " />
<glyph glyph-name="eight" unicode="8" horiz-adv-x="1301" d="M650 194 C561 194 490 218 437 265 C384 312 357 370 357 437 C357 504 384 562 437 610 C490 657 561 681 650 681 C739 681 811 657 864 610 C917 562 943 504 943 437 C943 370 917 312 864 265 C811 218 739 194 650 194 L650 194 Z M650 895 C583 895 528 913 486 949 C443 985 422 1028 422 1079 C422 1130 443 1173 486 1209 C528 1245 583 1263 650 1263 C717 1263 772 1245 815 1209 C857 1173 878 1130 878 1079 C878 1028 857 985 815 949 C772 913 717 895 650 895 L650 895 Z M650 -24 C817 -24 950 20 1049 108 C1148 195 1198 302 1198 427 C1198 580 1118 701 957 790 C1074 865 1133 963 1133 1082 C1133 1193 1088 1288 999 1365 C909 1442 793 1480 650 1480 C507 1480 391 1442 302 1365 C212 1288 167 1193 167 1082 C167 963 226 865 344 790 C183 701 102 580 102 427 C102 302 152 195 251 108 C350 20 483 -24 650 -24 L650 -24 Z " />
<glyph glyph-name="nine" unicode="9" horiz-adv-x="1300" d="M648 719 C562 719 490 744 431 794 C372 844 342 908 342 987 C342 1066 372 1131 431 1181 C490 1230 562 1255 648 1255 C735 1255 808 1230 868 1181 C928 1131 958 1066 958 987 C958 908 928 844 868 794 C808 744 735 719 648 719 L648 719 Z M717 -2 L1110 646 C1179 752 1213 863 1213 980 C1213 1134 1156 1256 1043 1346 C930 1435 798 1480 648 1480 C498 1480 367 1436 255 1347 C143 1258 87 1138 87 987 C87 836 141 717 248 628 C355 539 484 494 634 494 C692 494 748 513 803 552 L445 -1 L717 -2 Z " />
<glyph glyph-name="colon" unicode="&#x3a;" horiz-adv-x="504" d="M252 -24 C295 -24 332 -9 363 22 C393 53 408 89 408 132 C408 175 393 212 363 243 C332 273 295 288 252 288 C209 288 173 273 142 243 C111 212 96 175 96 132 C96 89 111 53 142 22 C172 -9 209 -24 252 -24 L252 -24 Z M252 777 C295 777 332 792 363 823 C393 854 408 890 408 933 C408 976 393 1012 363 1043 C332 1074 295 1089 252 1089 C209 1089 173 1074 142 1043 C111 1012 96 976 96 933 C96 890 111 854 142 823 C172 792 209 777 252 777 L252 777 Z " />
<glyph glyph-name="&amp;#x3b;" unicode="&#x3b;" horiz-adv-x="503" d="M253 777 C296 777 333 792 364 823 C394 854 409 890 409 933 C409 976 394 1012 364 1043 C333 1074 296 1089 253 1089 C210 1089 174 1074 143 1043 C112 1012 97 976 97 933 C97 890 112 854 143 823 C173 792 210 777 253 777 L253 777 Z M63 -339 C162 -262 244 -188 310 -118 C375 -48 408 30 408 116 C408 173 392 216 359 245 C326 274 289 288 248 288 C207 288 173 274 146 245 C119 216 106 183 106 146 C106 117 123 79 156 30 C169 9 176 -8 176 -19 C176 -36 171 -56 161 -77 C138 -128 87 -193 8 -272 L63 -339 Z " />
<glyph glyph-name="&amp;#x37e;" unicode="&#x37e;" horiz-adv-x="503" d="M253 777 C296 777 333 792 364 823 C394 854 409 890 409 933 C409 976 394 1012 364 1043 C333 1074 296 1089 253 1089 C210 1089 174 1074 143 1043 C112 1012 97 976 97 933 C97 890 112 854 143 823 C173 792 210 777 253 777 L253 777 Z M63 -339 C162 -262 244 -188 310 -118 C375 -48 408 30 408 116 C408 173 392 216 359 245 C326 274 289 288 248 288 C207 288 173 274 146 245 C119 216 106 183 106 146 C106 117 123 79 156 30 C169 9 176 -8 176 -19 C176 -36 171 -56 161 -77 C138 -128 87 -193 8 -272 L63 -339 Z " />
<glyph glyph-name="less" unicode="&#x3c;" horiz-adv-x="1300" d="M1107 491 L464 728 L1107 965 L1107 1163 L193 812 L193 644 L1107 294 L1107 491 Z " />
<glyph glyph-name="equal" unicode="&#x3d;" horiz-adv-x="1301" d="M1107 835 L1107 1021 L193 1021 L193 835 L1107 835 Z M1107 436 L1107 621 L193 621 L193 436 L1107 436 Z " />
<glyph glyph-name="greater" unicode="&#x3e;" horiz-adv-x="1300" d="M1107 644 L1107 812 L193 1163 L193 965 L836 728 L193 491 L193 294 L1107 644 Z " />
<glyph glyph-name="question" unicode="&#x3f;" horiz-adv-x="1170" d="M674 432 L675 667 C805 690 912 731 997 789 C1082 846 1124 930 1124 1041 C1124 1178 1071 1285 965 1363 C858 1441 730 1480 580 1480 C341 1480 163 1392 46 1216 L214 1068 C289 1193 406 1255 564 1255 C651 1255 723 1236 781 1199 C839 1161 868 1110 868 1045 C868 925 770 861 613 836 C524 821 486 767 486 690 C486 664 488 578 492 432 L674 432 Z M583 -24 C540 -24 503 -9 473 22 C442 53 427 89 427 132 C427 175 442 212 473 243 C503 273 540 288 583 288 C626 288 662 273 693 243 C724 212 739 175 739 132 C739 89 724 53 694 22 C663 -9 626 -24 583 -24 L583 -24 Z " />
<glyph glyph-name="at" unicode="&#x40;" horiz-adv-x="1658" d="M809 558 C729 558 672 616 672 696 C672 749 692 796 733 837 C774 878 820 899 872 899 C910 899 942 889 969 870 C995 851 1009 814 1010 761 C1010 734 1004 704 993 672 C981 640 957 613 922 591 C886 569 848 558 809 558 L809 558 Z M860 -25 C1166 -25 1400 119 1562 408 L1360 408 C1235 226 1068 135 860 135 C696 135 556 193 441 309 C325 424 267 564 267 727 C267 890 325 1030 441 1146 C556 1261 696 1319 860 1319 C1023 1319 1153 1273 1248 1181 C1343 1088 1390 978 1390 849 C1390 778 1369 711 1328 650 C1286 589 1241 558 1194 558 C1150 558 1135 586 1135 626 C1135 633 1157 764 1201 1021 L1050 1021 L1037 948 C990 1004 934 1032 867 1032 C774 1032 693 995 624 922 C554 849 519 766 519 674 C519 603 542 543 588 496 C633 448 692 424 763 424 C862 424 952 463 1035 540 C1035 469 1088 432 1194 431 C1327 431 1422 480 1478 579 C1533 677 1561 767 1561 849 C1561 1022 1497 1170 1369 1294 C1240 1417 1071 1479 860 1479 C649 1479 469 1406 320 1259 C171 1112 96 935 96 727 C96 520 171 343 320 196 C469 49 649 -25 860 -25 L860 -25 Z " />
<glyph glyph-name="A" unicode="A" horiz-adv-x="1507" d="M1150 -1 L1441 -1 L840 1458 L667 1458 L66 -1 L357 -1 L498 392 L1009 392 L1150 -1 Z M563 574 L753 1105 L944 574 L563 574 Z " />
<glyph glyph-name="B" unicode="B" horiz-adv-x="1398" d="M723 827 L436 827 L436 1243 L723 1243 C782 1243 832 1221 873 1178 C914 1134 934 1082 934 1022 C934 969 914 924 873 885 C832 846 782 827 723 827 L723 827 Z M854 212 L436 212 L436 628 L850 628 C905 628 953 609 994 571 C1034 532 1054 487 1054 434 C1054 373 1035 321 996 278 C957 234 909 212 854 212 L854 212 Z M845 -2 C972 -2 1080 39 1169 121 C1258 203 1303 304 1303 423 C1303 500 1276 572 1222 639 C1167 706 1103 750 1029 773 C1077 799 1115 836 1144 884 C1172 932 1186 982 1186 1033 C1186 1152 1141 1253 1051 1335 C960 1416 851 1457 723 1457 L186 1457 L186 -2 L845 -2 Z " />
<glyph glyph-name="C" unicode="C" horiz-adv-x="1442" d="M861 -24 C1069 -24 1247 48 1394 193 L1225 356 C1124 256 1003 206 861 206 C718 206 597 257 500 359 C403 461 354 584 354 728 C354 872 403 995 500 1097 C597 1199 718 1250 861 1250 C1003 1250 1124 1200 1225 1100 L1394 1263 C1247 1408 1069 1480 861 1480 C643 1480 461 1407 315 1260 C169 1113 96 935 96 728 C96 520 169 343 315 196 C461 49 643 -24 861 -24 L861 -24 Z " />
<glyph glyph-name="D" unicode="D" horiz-adv-x="1542" d="M686 212 L436 212 L436 1243 L686 1243 C827 1243 947 1193 1046 1092 C1145 991 1195 870 1195 728 C1195 585 1145 463 1046 363 C946 262 826 212 686 212 L686 212 Z M686 -2 C896 -2 1075 69 1224 212 C1372 355 1446 527 1446 728 C1446 929 1372 1101 1224 1244 C1075 1386 896 1457 686 1457 L186 1457 L186 -2 L686 -2 Z " />
<glyph glyph-name="E" unicode="E" horiz-adv-x="1265" d="M1169 -2 L1169 212 L436 212 L436 628 L1051 628 L1051 827 L436 827 L436 1243 L1169 1243 L1169 1457 L186 1457 L186 -2 L1169 -2 Z " />
<glyph glyph-name="F" unicode="F" horiz-adv-x="1245" d="M436 -2 L436 628 L1051 628 L1051 827 L436 827 L436 1243 L1169 1243 L1169 1457 L186 1457 L186 -2 L436 -2 Z " />
<glyph glyph-name="G" unicode="G" horiz-adv-x="1570" d="M854 -24 C1015 -24 1162 16 1296 97 L1379 -1 L1422 -1 L1422 723 L1172 723 L1172 286 C1076 233 970 206 854 206 C711 206 590 257 493 359 C395 461 346 584 346 728 C346 872 395 995 493 1097 C590 1199 711 1250 854 1250 C995 1250 1117 1200 1218 1100 L1386 1263 C1239 1408 1061 1480 854 1480 C635 1480 454 1407 311 1260 C168 1113 96 936 96 728 C96 521 168 344 311 197 C454 50 635 -24 854 -24 L854 -24 Z " />
<glyph glyph-name="H" unicode="H" horiz-adv-x="1568" d="M1382 -2 L1382 1457 L1132 1457 L1132 827 L436 827 L436 1457 L186 1457 L186 -2 L436 -2 L436 628 L1132 628 L1132 -2 L1382 -2 Z " />
<glyph glyph-name="I" unicode="I" horiz-adv-x="623" d="M436 -2 L436 1457 L186 1457 L186 -2 L436 -2 Z " />
<glyph glyph-name="J" unicode="J" horiz-adv-x="1309" d="M599 -24 C748 -24 873 24 973 120 C1073 215 1123 335 1123 479 L1123 1457 L873 1457 L873 462 C873 388 845 327 790 279 C734 230 670 206 599 206 C450 206 316 267 195 389 L48 216 C187 56 370 -24 599 -24 L599 -24 Z " />
<glyph glyph-name="K" unicode="K" horiz-adv-x="1470" d="M436 -2 L436 468 L595 627 L1123 -1 L1450 -1 L773 805 L1426 1458 L1072 1458 L436 768 L436 1458 L186 1458 L186 -2 L436 -2 Z " />
<glyph glyph-name="L" unicode="L" horiz-adv-x="1179" d="M1163 212 L436 212 L436 1457 L186 1457 L186 -2 L1163 -2 L1163 212 Z " />
<glyph glyph-name="M" unicode="M" horiz-adv-x="1828" d="M1642 -2 L1642 1457 L1445 1457 L914 668 L383 1457 L186 1457 L186 -2 L433 -2 L433 1036 L845 383 L983 383 L1395 1036 L1395 -2 L1642 -2 Z " />
<glyph glyph-name="N" unicode="N" horiz-adv-x="1630" d="M1444 -2 L1444 1457 L1197 1457 L1197 394 L384 1457 L186 1457 L186 -2 L433 -2 L433 1061 L1246 -2 L1444 -2 Z " />
<glyph glyph-name="O" unicode="O" horiz-adv-x="1720" d="M860 204 C718 204 597 255 497 358 C396 460 346 583 346 728 C346 873 396 996 497 1099 C597 1201 718 1252 860 1252 C1002 1252 1123 1201 1224 1099 C1324 996 1374 873 1374 728 C1374 583 1324 460 1224 358 C1123 255 1002 204 860 204 L860 204 Z M860 -24 C1071 -24 1251 49 1400 196 C1549 343 1624 520 1624 728 C1624 935 1549 1113 1400 1260 C1251 1407 1071 1480 860 1480 C649 1480 469 1407 320 1260 C171 1113 96 935 96 728 C96 520 171 343 320 196 C469 49 649 -24 860 -24 L860 -24 Z " />
<glyph glyph-name="P" unicode="P" horiz-adv-x="1391" d="M436 745 L436 1243 L785 1243 C854 1243 915 1223 969 1183 C1022 1142 1049 1079 1049 994 C1049 909 1022 846 969 806 C915 765 854 745 785 745 L436 745 Z M436 531 L800 531 C940 531 1058 574 1153 659 C1248 744 1296 856 1296 994 C1296 1139 1247 1252 1148 1334 C1049 1416 933 1457 800 1457 L186 1457 L186 -2 L436 -2 L436 531 Z " />
<glyph glyph-name="Q" unicode="Q" horiz-adv-x="1720" d="M860 204 C718 204 597 255 497 358 C396 460 346 583 346 728 C346 873 396 996 497 1098 C597 1200 718 1251 860 1251 C1002 1251 1123 1200 1224 1098 C1324 996 1374 873 1374 728 C1374 583 1324 460 1224 358 C1123 255 1002 204 860 204 L860 204 Z M1151 -430 C1198 -430 1249 -426 1305 -417 L1305 -223 C1258 -232 1221 -237 1192 -237 C1068 -237 982 -175 982 -55 L982 -9 C1167 22 1321 105 1442 242 C1563 378 1624 540 1624 728 C1624 935 1549 1112 1400 1259 C1251 1406 1071 1480 860 1480 C649 1480 469 1407 320 1260 C171 1113 96 935 96 728 C96 541 157 379 278 242 C399 105 553 22 738 -9 L738 -55 C738 -178 777 -271 854 -334 C931 -397 1030 -429 1151 -430 L1151 -430 Z " />
<glyph glyph-name="R" unicode="R" horiz-adv-x="1409" d="M785 745 L436 745 L436 1243 L785 1243 C854 1243 915 1223 969 1183 C1022 1142 1049 1079 1049 994 C1049 909 1022 846 969 806 C915 765 854 745 785 745 L785 745 Z M1409 -2 L956 570 C1057 597 1139 643 1202 710 C1265 776 1296 871 1296 994 C1296 1139 1247 1252 1148 1334 C1049 1416 933 1457 800 1457 L186 1457 L186 -2 L436 -2 L436 531 L693 531 L1115 -2 L1409 -2 Z " />
<glyph glyph-name="S" unicode="S" horiz-adv-x="1327" d="M684 -23 C848 -23 987 19 1101 103 C1214 187 1271 289 1271 408 C1268 522 1236 605 1175 656 C1114 707 1039 744 951 769 L590 877 C537 892 494 913 462 938 C429 963 413 1001 412 1052 C412 1111 440 1160 496 1199 C552 1238 617 1257 692 1257 C847 1257 962 1204 1039 1100 L1220 1248 C1093 1404 913 1480 684 1480 C532 1480 402 1438 295 1354 C187 1269 133 1167 133 1048 C133 937 161 857 217 806 C273 755 342 718 425 695 L792 584 C850 567 898 547 935 523 C972 499 991 459 991 404 C991 345 961 296 902 258 C842 219 769 200 684 200 C603 200 520 220 437 260 C354 299 292 351 253 416 L85 266 C139 176 223 105 336 54 C449 3 565 -23 684 -23 L684 -23 Z " />
<glyph glyph-name="T" unicode="T" horiz-adv-x="1200" d="M725 -2 L725 1244 L1184 1244 L1184 1457 L16 1457 L16 1244 L475 1244 L475 -2 L725 -2 Z " />
<glyph glyph-name="U" unicode="U" horiz-adv-x="1531" d="M766 -24 C925 -24 1062 19 1175 105 C1288 191 1345 296 1345 420 L1345 1458 L1096 1458 L1096 460 C1096 378 1063 314 998 268 C933 222 855 199 766 199 C671 199 593 223 530 272 C467 320 436 383 436 460 L436 1458 L186 1458 L186 420 C186 301 238 198 342 109 C446 20 587 -24 766 -24 L766 -24 Z " />
<glyph glyph-name="V" unicode="V" horiz-adv-x="1506" d="M860 -1 L1441 1458 L1150 1458 L753 341 L357 1458 L66 1458 L647 -1 L860 -1 Z " />
<glyph glyph-name="W" unicode="W" horiz-adv-x="2077" d="M1595 -1 L2061 1458 L1770 1458 L1477 365 L1133 1458 L944 1458 L602 365 L307 1458 L16 1458 L482 -1 L686 -1 L1039 1055 L1392 -1 L1595 -1 Z " />
<glyph glyph-name="X" unicode="X" horiz-adv-x="1458" d="M1406 -2 L882 728 L1406 1457 L1087 1457 L729 935 L371 1457 L51 1457 L575 728 L51 -2 L371 -2 L729 520 L1087 -2 L1406 -2 Z " />
<glyph glyph-name="Y" unicode="Y" horiz-adv-x="1438" d="M844 -2 L844 683 L1396 1457 L1077 1457 L719 934 L361 1457 L41 1457 L593 683 L593 -2 L844 -2 Z " />
<glyph glyph-name="Z" unicode="Z" horiz-adv-x="1266" d="M1170 -2 L1170 212 L450 212 L1170 1318 L1170 1457 L96 1457 L96 1243 L816 1243 L96 137 L96 -2 L1170 -2 Z " />
<glyph glyph-name="bracketleft" unicode="&#x5b;" horiz-adv-x="531" d="M536 -406 L536 -237 L345 -237 L345 1289 L536 1289 L536 1458 L148 1458 L148 -406 L536 -406 Z " />
<glyph glyph-name="backslash" unicode="&#x5c;" horiz-adv-x="701" d="M455 -24 L649 -24 L246 1480 L52 1480 L455 -24 Z " />
<glyph glyph-name="bracketright" unicode="&#x5d;" horiz-adv-x="531" d="M-4 -406 L384 -406 L384 1458 L-4 1458 L-4 1289 L187 1289 L187 -237 L-4 -237 L-4 -406 Z " />
<glyph glyph-name="asciicircum" unicode="&#x5e;" horiz-adv-x="1301" d="M1212 728 L764 1458 L537 1458 L89 728 L315 728 L651 1264 L986 728 L1212 728 Z " />
<glyph glyph-name="underscore" unicode="&#x5f;" horiz-adv-x="1301" d="M1350 -406 L1350 -240 L-48 -240 L-48 -406 L1350 -406 Z " />
<glyph glyph-name="grave" unicode="&#x60;" horiz-adv-x="951" d="M736 1189 L477 1497 L215 1497 L562 1189 L736 1189 Z " />
<glyph glyph-name="a" unicode="a" horiz-adv-x="1206" d="M537 164 C486 164 439 177 398 203 C357 229 336 267 336 316 C336 365 356 398 395 415 C434 432 478 440 526 440 L814 440 L814 332 C814 294 790 257 742 220 C694 183 626 164 537 164 L537 164 Z M473 -23 C652 -23 772 29 833 132 L833 -1 L1058 -1 L1058 714 C1058 840 1009 934 912 996 C814 1058 704 1089 582 1089 C401 1089 261 1023 152 918 L306 767 C389 840 475 877 563 877 C628 877 686 862 737 832 C788 801 814 758 814 703 L814 619 L523 619 C394 619 290 591 211 534 C132 477 92 398 92 296 C92 190 133 110 214 57 C295 4 381 -23 473 -23 L473 -23 Z " />
<glyph glyph-name="b" unicode="b" horiz-adv-x="1384" d="M712 189 C619 189 540 223 475 290 C410 357 377 438 377 533 C377 628 410 709 475 776 C540 843 619 876 712 876 C805 876 884 843 950 776 C1015 709 1048 628 1048 533 C1048 438 1015 357 950 290 C884 223 805 189 712 189 L712 189 Z M759 -23 C908 -23 1034 31 1137 140 C1240 249 1292 380 1292 533 C1292 686 1240 817 1137 926 C1034 1035 908 1089 759 1089 C612 1089 490 1022 392 887 L392 1458 L148 1458 L148 0 L377 0 L377 193 C478 49 605 -23 759 -23 L759 -23 Z " />
<glyph glyph-name="c" unicode="c" horiz-adv-x="1116" d="M681 -24 C824 -24 952 23 1063 117 L920 282 C859 220 782 189 688 189 C596 189 515 221 446 286 C376 350 341 432 341 532 C341 633 376 715 446 780 C515 844 596 876 688 876 C782 876 859 845 920 782 L1063 948 C952 1041 825 1088 681 1088 C518 1088 380 1038 267 937 C153 836 95 701 92 532 C93 363 151 228 266 127 C380 26 518 -24 681 -24 L681 -24 Z " />
<glyph glyph-name="d" unicode="d" horiz-adv-x="1383" d="M672 189 C579 189 500 223 435 290 C369 357 336 438 336 533 C336 628 369 709 435 776 C500 843 579 876 672 876 C765 876 844 843 909 776 C974 709 1007 628 1007 533 C1007 438 974 357 909 290 C844 223 765 189 672 189 L672 189 Z M625 -23 C779 -23 906 49 1007 193 L1007 0 L1236 0 L1236 1458 L992 1458 L992 887 C893 1022 771 1089 625 1089 C476 1089 350 1035 247 926 C144 817 92 686 92 533 C92 380 144 249 247 140 C350 31 476 -23 625 -23 L625 -23 Z " />
<glyph glyph-name="e" unicode="e" horiz-adv-x="1224" d="M338 623 C343 698 373 762 427 817 C480 871 551 898 639 898 C738 898 810 873 854 822 C898 771 924 704 932 623 L338 623 Z M676 -24 C820 -24 954 23 1079 118 L937 280 C862 217 775 185 676 185 C585 185 508 212 445 266 C382 319 347 378 340 441 L1164 441 C1169 476 1172 507 1172 532 C1172 689 1123 821 1025 928 C927 1035 798 1088 639 1088 C484 1088 355 1036 251 931 C146 826 93 694 92 535 C94 375 151 242 264 136 C377 29 514 -24 676 -24 L676 -24 Z " />
<glyph glyph-name="f" unicode="f" horiz-adv-x="858" d="M482 -1 L482 872 L805 872 L805 1066 L482 1066 L482 1118 C482 1164 500 1203 537 1235 C574 1266 625 1282 692 1282 C727 1282 765 1278 805 1269 L805 1467 C749 1476 698 1480 651 1480 C530 1480 431 1450 354 1391 C277 1332 238 1241 238 1118 L238 1066 L28 1066 L28 872 L238 872 L238 -1 L482 -1 Z " />
<glyph glyph-name="g" unicode="g" horiz-adv-x="1384" d="M665 -428 C818 -428 951 -382 1064 -291 C1177 -199 1233 -80 1233 66 L1236 1066 L1007 1066 L1007 872 C906 1016 779 1088 625 1088 C476 1088 350 1034 247 926 C144 817 92 686 92 532 C92 379 143 252 246 153 C348 54 473 4 621 4 C768 4 890 69 989 199 L989 66 C989 -17 955 -82 886 -131 C817 -180 740 -204 654 -204 C514 -204 406 -169 329 -100 L221 -266 C274 -313 341 -352 422 -383 C503 -413 584 -428 665 -428 L665 -428 Z M672 189 C579 189 500 223 435 290 C369 357 336 437 336 532 C336 627 369 709 435 776 C500 843 579 876 672 876 C765 876 844 843 909 776 C974 709 1007 627 1007 532 C1007 437 974 357 909 290 C844 223 765 189 672 189 L672 189 Z " />
<glyph glyph-name="h" unicode="h" horiz-adv-x="1334" d="M1186 653 C1183 784 1141 890 1060 970 C978 1049 872 1089 743 1089 C578 1089 467 1017 392 909 L392 1458 L148 1458 L148 -1 L392 -1 L392 600 C392 679 419 746 474 803 C529 859 598 887 682 887 C835 887 939 804 942 633 L942 -1 L1186 -1 L1186 653 Z " />
<glyph glyph-name="i" unicode="i" horiz-adv-x="540" d="M270 1204 C313 1204 349 1219 380 1249 C410 1279 425 1316 425 1359 C425 1402 410 1438 380 1468 C349 1498 313 1513 270 1513 C227 1513 191 1498 161 1468 C130 1438 115 1402 115 1359 C115 1316 130 1279 161 1249 C191 1219 227 1204 270 1204 L270 1204 Z M392 -1 L392 1066 L148 1066 L148 -1 L392 -1 Z " />
<glyph glyph-name="j" unicode="j" horiz-adv-x="572" d="M285 1204 C328 1204 364 1219 395 1249 C425 1279 440 1316 440 1359 C440 1402 425 1438 395 1468 C364 1498 328 1513 285 1513 C242 1513 206 1498 176 1468 C146 1438 131 1402 131 1359 C131 1316 146 1279 176 1249 C206 1219 242 1204 285 1204 L285 1204 Z M-5 -427 C116 -426 215 -395 292 -332 C369 -269 407 -176 407 -53 L407 1066 L163 1066 L163 -53 C163 -114 143 -159 103 -189 C63 -218 13 -233 -46 -234 C-69 -234 -107 -230 -160 -221 L-160 -414 C-104 -423 -52 -427 -5 -427 L-5 -427 Z " />
<glyph glyph-name="k" unicode="k" horiz-adv-x="1222" d="M1226 -1 L724 598 L1192 1066 L847 1066 L392 538 L392 1458 L148 1458 L148 -1 L392 -1 L392 266 L550 425 L908 -1 L1226 -1 Z " />
<glyph glyph-name="l" unicode="l" horiz-adv-x="570" d="M407 -1 L407 1458 L163 1458 L163 -1 L407 -1 Z " />
<glyph glyph-name="m" unicode="m" horiz-adv-x="1867" d="M1719 672 C1719 787 1684 886 1614 967 C1544 1048 1454 1088 1343 1089 C1256 1087 1186 1067 1133 1030 C1079 993 1036 945 1005 888 C936 1022 832 1089 692 1089 C559 1089 467 1014 400 909 L400 1066 L171 1066 L171 -1 L415 -1 L415 642 C415 711 436 768 479 811 C522 854 573 876 634 876 C687 876 733 857 770 820 C807 783 826 734 826 673 L826 -1 L1070 -1 L1070 645 C1070 708 1090 762 1130 808 C1169 853 1221 876 1286 876 C1339 876 1383 857 1420 820 C1457 783 1475 734 1475 673 L1475 -1 L1719 -1 L1719 672 Z " />
<glyph glyph-name="n" unicode="n" horiz-adv-x="1357" d="M1209 641 C1206 778 1165 887 1086 968 C1006 1049 902 1089 773 1089 C593 1089 476 1006 400 889 L400 1066 L171 1066 L171 -1 L415 -1 L415 605 C415 686 442 752 497 802 C552 851 621 876 705 876 C778 876 840 855 889 814 C938 772 963 714 965 639 L965 -1 L1209 -1 L1209 641 Z " />
<glyph glyph-name="o" unicode="o" horiz-adv-x="1318" d="M659 189 C570 189 494 223 431 290 C368 357 336 438 336 533 C336 628 368 709 431 776 C494 843 570 876 659 876 C748 876 825 843 888 776 C951 709 982 628 982 533 C982 438 951 357 888 290 C825 223 748 189 659 189 L659 189 Z M659 -23 C816 -23 949 31 1060 140 C1171 249 1226 380 1226 533 C1226 686 1171 817 1060 926 C949 1035 816 1089 659 1089 C502 1089 369 1035 258 926 C147 817 92 686 92 533 C92 380 147 249 258 140 C369 31 502 -23 659 -23 L659 -23 Z " />
<glyph glyph-name="p" unicode="p" horiz-adv-x="1384" d="M712 189 C619 189 540 223 475 290 C410 357 377 437 377 532 C377 627 410 709 475 776 C540 843 619 876 712 876 C805 876 884 843 950 776 C1015 709 1048 627 1048 532 C1048 437 1015 357 950 290 C884 223 805 189 712 189 L712 189 Z M392 -405 L392 175 C490 42 612 -24 759 -24 C908 -24 1034 30 1137 139 C1240 248 1292 379 1292 532 C1292 686 1240 817 1137 926 C1034 1034 908 1088 759 1088 C605 1088 478 1016 377 872 L377 1066 L148 1066 L148 -405 L392 -405 Z " />
<glyph glyph-name="q" unicode="q" horiz-adv-x="1384" d="M672 189 C579 189 500 223 435 290 C369 357 336 437 336 532 C336 627 369 709 435 776 C500 843 579 876 672 876 C765 876 844 843 909 776 C974 709 1007 627 1007 532 C1007 437 974 357 909 290 C844 223 765 189 672 189 L672 189 Z M1236 1066 L1007 1066 L1007 872 C906 1016 779 1088 625 1088 C476 1088 350 1034 247 926 C144 817 92 686 92 532 C92 379 144 248 247 139 C350 30 476 -24 625 -24 C771 -24 893 43 992 178 L992 -405 L1236 -405 L1236 1066 Z " />
<glyph glyph-name="r" unicode="r" horiz-adv-x="838" d="M392 625 C392 694 415 752 460 798 C505 844 557 867 618 867 C650 867 681 860 710 846 L808 1035 C769 1065 715 1080 646 1080 C522 1080 432 1023 377 908 L377 1057 L148 1057 L148 -10 L392 -10 L392 625 Z " />
<glyph glyph-name="s" unicode="s" horiz-adv-x="1070" d="M528 -32 C645 -32 749 -4 841 52 C932 108 978 185 978 283 C978 366 955 427 910 467 C864 506 809 536 745 556 L466 651 C405 671 365 695 365 759 C366 794 381 824 412 849 C443 874 494 887 565 887 C640 887 736 856 853 793 L956 962 C825 1041 690 1080 552 1080 C427 1080 320 1049 231 988 C142 927 98 844 97 741 C98 620 160 533 299 489 L593 395 C661 374 710 351 710 283 C710 204 638 157 507 157 C454 157 395 168 328 189 C261 210 201 241 148 283 L53 114 C106 64 178 27 270 4 C361 -20 447 -32 528 -32 L528 -32 Z " />
<glyph glyph-name="t" unicode="t" horiz-adv-x="858" d="M651 -32 C698 -32 749 -28 805 -19 L805 175 C765 166 727 162 692 162 C635 163 586 177 545 206 C503 234 482 280 482 343 L482 871 L805 871 L805 1066 L482 1066 L482 1388 L238 1301 L238 1066 L28 1066 L28 871 L238 871 L238 343 C238 220 277 127 354 64 C431 1 530 -31 651 -32 L651 -32 Z " />
<glyph glyph-name="u" unicode="u" horiz-adv-x="1343" d="M588 -25 C749 -25 868 42 944 175 L944 -2 L1172 -2 L1172 1066 L928 1066 L928 460 C928 285 820 188 645 188 C572 188 512 209 465 251 C418 293 393 351 392 426 L392 1066 L148 1066 L148 424 C151 286 193 177 274 96 C355 15 459 -25 588 -25 L588 -25 Z " />
<glyph glyph-name="v" unicode="v" horiz-adv-x="1183" d="M711 -2 L1167 1066 L883 1066 L591 225 L300 1066 L16 1066 L471 -2 L711 -2 Z " />
<glyph glyph-name="w" unicode="w" horiz-adv-x="1707" d="M1311 -2 L1691 1066 L1414 1066 L1190 240 L963 1066 L757 1066 L520 240 L293 1066 L16 1066 L400 -2 L640 -2 L854 710 L1070 -2 L1311 -2 Z " />
<glyph glyph-name="x" unicode="x" horiz-adv-x="1130" d="M1115 -2 L743 542 L1115 1066 L806 1066 L566 684 L325 1066 L16 1066 L398 543 L16 -2 L325 -2 L566 403 L806 -2 L1115 -2 Z " />
<glyph glyph-name="y" unicode="y" horiz-adv-x="1144" d="M257 -428 C344 -428 417 -410 476 -373 C535 -336 585 -268 625 -168 L1122 1066 L850 1066 L586 328 L323 1066 L36 1066 L477 46 L410 -111 C395 -147 378 -177 357 -200 C336 -223 303 -235 257 -235 C200 -235 152 -231 112 -223 L112 -414 C163 -423 211 -428 257 -428 L257 -428 Z " />
<glyph glyph-name="z" unicode="z" horiz-adv-x="1092" d="M1000 -2 L1000 192 L415 192 L1000 871 L1000 1066 L92 1066 L92 871 L677 871 L92 192 L92 -2 L1000 -2 Z " />
<glyph glyph-name="braceleft" unicode="&#x7b;" horiz-adv-x="531" d="M490 -406 L490 -237 L452 -237 C395 -237 371 -207 371 -164 L372 354 C372 435 335 493 262 526 C335 559 372 616 372 698 L371 1218 C371 1258 395 1289 451 1289 L490 1289 L490 1458 L419 1458 C352 1458 294 1434 247 1387 C199 1339 175 1282 175 1215 L175 698 C175 640 138 608 63 603 L63 449 C138 444 175 412 175 354 L175 -163 C175 -230 199 -287 247 -335 C294 -382 352 -406 419 -406 L490 -406 Z " />
<glyph glyph-name="bar" unicode="&#x7c;" horiz-adv-x="1301" d="M743 -427 L743 1480 L557 1480 L557 -427 L743 -427 Z " />
<glyph glyph-name="braceright" unicode="&#x7d;" horiz-adv-x="531" d="M41 -406 L113 -406 C180 -406 237 -382 285 -335 C332 -287 356 -230 356 -163 L356 354 C356 412 393 444 468 449 L468 603 C393 608 356 640 356 698 L356 1215 C356 1282 332 1339 285 1387 C237 1434 180 1458 113 1458 L41 1458 L41 1289 L80 1289 C136 1289 160 1258 160 1218 L159 698 C159 616 196 559 269 526 C196 493 159 435 159 354 L160 -164 C160 -207 136 -237 80 -237 L41 -237 L41 -406 Z " />
<glyph glyph-name="asciitilde" unicode="&#x7e;" horiz-adv-x="1301" d="M829 591 C953 591 1037 648 1081 762 L948 846 C921 787 879 757 822 757 C775 757 726 775 675 811 C624 848 555 866 468 866 C344 866 261 808 219 691 L349 611 C376 670 418 700 475 700 C521 700 570 682 622 645 C673 609 742 591 829 591 L829 591 Z " />
<glyph glyph-name="exclamdown" unicode="&#xa1;" horiz-adv-x="804" d="M312 622 L275 -426 L530 -426 L494 622 L312 622 Z M403 1078 C446 1078 483 1063 514 1032 C544 1001 559 965 559 922 C559 879 544 842 513 812 C482 781 446 766 403 766 C360 766 323 781 293 812 C262 842 247 879 247 922 C247 965 262 1001 293 1032 C323 1063 360 1078 403 1078 L403 1078 Z " />
<glyph glyph-name="cent" unicode="&#xa2;" horiz-adv-x="1301" d="M604 -2 C650 -17 698 -24 748 -24 C891 -24 1019 23 1130 116 L983 274 C925 217 849 188 755 188 C663 188 583 220 516 285 C449 349 415 431 415 532 C415 632 449 714 516 779 C583 843 663 875 755 875 C849 875 925 846 983 789 L1130 948 C1059 1006 979 1045 890 1066 L948 1284 L754 1284 L701 1083 C548 1066 422 1007 321 904 C220 801 170 677 170 532 C170 336 256 182 429 71 L351 -220 L545 -220 L604 -2 Z " />
<glyph glyph-name="sterling" unicode="&#xa3;" horiz-adv-x="1301" d="M1175 -2 L1175 193 L526 193 L526 633 L851 633 L851 815 L526 815 L526 1030 C526 1104 546 1159 586 1196 C625 1232 675 1250 736 1250 C851 1250 947 1188 1028 1081 L1175 1232 C1112 1312 1048 1373 982 1416 C915 1459 825 1480 711 1480 C577 1480 471 1435 393 1346 C315 1257 276 1153 276 1034 L276 815 L168 815 L168 633 L276 633 L276 193 L126 193 L126 -2 L1175 -2 Z " />
<glyph glyph-name="currency" unicode="&#xa4;" horiz-adv-x="1301" d="M650 522 C589 522 539 542 498 581 C460 621 441 669 441 725 C441 786 461 837 500 877 C539 915 589 934 650 934 C707 934 755 915 794 876 C833 835 853 785 853 725 C853 668 834 620 795 579 C757 541 709 522 650 522 L650 522 Z M1031 226 L1148 343 L964 528 C1003 593 1023 659 1023 726 C1023 793 1003 860 964 927 L1148 1106 L1031 1223 L847 1044 C781 1084 715 1104 650 1104 C585 1104 519 1084 453 1044 L269 1223 L152 1106 L336 927 C295 860 274 793 274 726 C274 659 295 593 336 528 L152 343 L269 226 L453 411 C519 371 585 351 650 351 C715 351 781 371 847 411 L1031 226 Z " />
<glyph glyph-name="yen" unicode="&#xa5;" horiz-adv-x="1301" d="M1328 1456 L1009 1456 L651 933 L292 1456 L-27 1456 L284 1021 L101 1021 L101 835 L417 835 L525 683 L525 621 L101 621 L101 436 L525 436 L525 -3 L776 -3 L776 436 L1200 436 L1200 621 L776 621 L776 682 L885 835 L1200 835 L1200 1021 L1018 1021 L1328 1456 Z " />
<glyph glyph-name="brokenbar" unicode="&#xa6;" horiz-adv-x="1301" d="M743 -427 L743 400 L557 400 L557 -427 L743 -427 Z M743 653 L743 1480 L557 1480 L557 653 L743 653 Z " />
<glyph glyph-name="section" unicode="&#xa7;" horiz-adv-x="1301" d="M1146 170 C1206 234 1236 308 1236 392 C1236 493 1210 570 1159 623 C1107 676 1042 714 964 739 C885 764 804 783 720 798 C611 815 517 841 438 874 C358 907 318 970 318 1062 C318 1133 352 1193 421 1242 C489 1291 570 1315 663 1315 C826 1315 958 1261 1051 1141 L1185 1248 C1058 1404 881 1479 658 1479 C508 1479 380 1438 274 1357 C168 1276 115 1177 115 1062 C115 989 129 929 156 881 C95 817 65 743 65 659 C65 558 91 481 143 429 C194 376 259 338 338 313 C416 288 497 268 581 253 C689 236 783 211 863 178 C943 145 983 82 983 -11 C983 -82 949 -142 881 -191 C812 -240 731 -264 638 -264 C451 -264 330 -194 250 -90 L116 -197 C236 -342 407 -427 643 -427 C792 -427 920 -386 1027 -305 C1133 -224 1186 -126 1186 -11 C1186 62 1173 122 1146 170 L1146 170 Z M295 755 C352 724 463 685 631 656 C739 639 833 614 913 581 C993 548 1033 485 1033 392 C1033 357 1024 326 1007 297 C950 328 838 366 669 395 C561 412 467 438 387 471 C307 504 267 567 267 659 C267 694 276 726 295 755 L295 755 Z " />
<glyph glyph-name="dieresis" unicode="&#xa8;" horiz-adv-x="952" d="M290 1226 C323 1226 351 1238 374 1261 C397 1284 409 1312 409 1345 C409 1378 397 1406 374 1429 C351 1452 323 1464 290 1464 C257 1464 228 1452 205 1429 C182 1406 170 1378 170 1345 C170 1312 182 1284 205 1261 C228 1238 257 1226 290 1226 L290 1226 Z M662 1226 C695 1226 724 1238 747 1261 C770 1284 781 1312 781 1345 C781 1378 770 1406 747 1429 C724 1452 695 1464 662 1464 C629 1464 601 1452 578 1429 C555 1406 543 1378 543 1345 C543 1312 555 1284 578 1261 C601 1238 629 1226 662 1226 L662 1226 Z " />
<glyph glyph-name="copyright" unicode="&#xa9;" horiz-adv-x="1870" d="M935 141 C772 141 632 198 516 313 C400 427 342 565 342 727 C342 889 400 1027 516 1142 C632 1257 772 1314 935 1314 C1099 1314 1239 1257 1355 1142 C1470 1027 1528 889 1528 727 C1528 565 1470 427 1355 313 C1239 198 1099 141 935 141 L935 141 Z M935 -25 C1146 -25 1327 49 1476 196 C1625 343 1699 520 1699 727 C1699 935 1625 1112 1476 1259 C1327 1406 1146 1479 935 1479 C724 1479 544 1406 395 1259 C246 1112 171 935 171 727 C171 520 246 343 395 196 C544 49 724 -25 935 -25 L935 -25 Z M949 378 C852 378 767 412 696 479 C624 546 588 628 588 727 C588 826 624 909 696 976 C767 1043 852 1076 949 1076 C1034 1076 1110 1050 1176 997 L1085 878 C1046 911 1001 927 949 927 C893 927 845 908 804 870 C763 831 742 784 742 727 C742 670 763 623 804 585 C845 547 893 528 949 528 C1001 528 1046 544 1085 577 L1176 457 C1110 404 1034 378 949 378 L949 378 Z " />
<glyph glyph-name="ordfeminine" unicode="&#xaa;" horiz-adv-x="812" d="M360 849 C259 849 228 884 228 941 C228 1001 268 1029 353 1029 L544 1029 L544 958 C544 927 524 902 484 881 C443 860 402 849 360 849 L360 849 Z M316 718 C411 718 491 751 556 817 L556 731 L716 731 L716 1223 C716 1313 682 1379 615 1420 C547 1461 467 1481 375 1481 C270 1481 177 1440 95 1358 C148 1305 185 1270 206 1253 C263 1302 321 1327 378 1327 C483 1327 544 1285 544 1217 L544 1155 L353 1155 C150 1155 52 1081 52 940 C52 866 81 811 138 774 C195 737 255 718 316 718 L316 718 Z " />
<glyph glyph-name="guillemotleft" unicode="&#xab;" horiz-adv-x="1289" d="M685 77 L423 532 L685 987 L471 987 L208 532 L471 77 L685 77 Z M1108 77 L845 532 L1108 987 L893 987 L630 532 L893 77 L1108 77 Z " />
<glyph glyph-name="logicalnot" unicode="&#xac;" horiz-adv-x="1301" d="M1225 725 L76 725 L76 559 L1039 559 L1039 340 L1225 340 L1225 725 Z " />
<glyph glyph-name="registered" unicode="&#xae;" horiz-adv-x="1870" d="M974 748 C1045 748 1080 781 1080 846 C1080 911 1045 944 974 944 L849 944 L849 748 L974 748 L974 748 Z M1124 385 L946 636 L849 636 L849 385 L700 385 L700 1069 L986 1069 C1143 1066 1221 992 1221 846 C1221 754 1180 692 1098 661 L1301 385 L1124 385 Z M935 141 C771 141 631 198 516 313 C400 427 342 565 342 727 C342 889 400 1027 516 1142 C631 1257 771 1314 935 1314 C1099 1314 1239 1257 1355 1142 C1470 1027 1528 889 1528 727 C1528 565 1470 427 1355 313 C1239 198 1099 141 935 141 L935 141 Z M935 -25 C1146 -25 1326 49 1475 196 C1624 343 1699 520 1699 727 C1699 935 1624 1112 1475 1259 C1326 1406 1146 1479 935 1479 C724 1479 544 1406 395 1259 C246 1112 171 935 171 727 C171 520 246 343 395 196 C544 49 724 -25 935 -25 L935 -25 Z " />
<glyph glyph-name="overscore" unicode="&#xaf;" horiz-adv-x="953" d="M785 1286 L785 1430 L166 1430 L166 1286 L785 1286 Z " />
<glyph glyph-name="degree" unicode="&#xb0;" horiz-adv-x="629" d="M282 1103 C247 1103 218 1115 194 1140 C170 1165 158 1195 158 1230 C158 1265 170 1294 194 1319 C218 1344 247 1356 282 1356 C316 1356 345 1344 369 1319 C393 1294 405 1265 405 1230 C405 1195 393 1165 369 1140 C345 1115 316 1103 282 1103 L282 1103 Z M282 979 C351 979 410 1004 459 1053 C508 1102 532 1161 532 1230 C532 1299 508 1358 459 1407 C410 1456 351 1480 282 1480 C213 1480 154 1456 105 1407 C56 1358 31 1299 31 1230 C31 1161 56 1102 105 1053 C154 1004 213 979 282 979 L282 979 Z " />
<glyph glyph-name="plusminus" unicode="&#xb1;" horiz-adv-x="1300" d="M743 683 L1094 683 L1094 849 L743 849 L743 1208 L557 1208 L557 849 L207 849 L207 683 L557 683 L557 324 L743 324 L743 683 Z M1094 165 L207 165 L207 0 L1094 0 L1094 165 Z " />
<glyph glyph-name="uni00B2" unicode="&#xb2;" horiz-adv-x="691" d="M624 730 L624 907 L397 907 L516 1024 C592 1099 630 1167 630 1229 C630 1312 602 1375 545 1420 C488 1464 420 1486 342 1486 C218 1486 124 1438 61 1343 L197 1227 C229 1279 274 1305 332 1305 C401 1305 429 1277 429 1232 C429 1211 412 1186 379 1155 L75 861 L75 730 L624 730 Z " />
<glyph glyph-name="uni00B3" unicode="&#xb3;" horiz-adv-x="691" d="M336 719 C409 719 477 739 540 780 C603 820 634 880 634 961 C634 1020 602 1067 539 1103 C586 1143 609 1190 609 1244 C609 1324 582 1384 528 1425 C474 1466 410 1486 337 1486 C220 1486 130 1440 67 1347 L203 1230 C234 1280 275 1305 326 1305 C381 1305 408 1282 408 1237 C408 1191 382 1168 329 1168 L265 1168 L265 1037 L326 1037 C397 1037 432 1014 432 968 C432 923 396 900 325 900 C267 900 223 925 193 975 L57 858 C119 765 212 719 336 719 L336 719 Z " />
<glyph glyph-name="acute" unicode="&#xb4;" horiz-adv-x="951" d="M215 1189 L389 1189 L736 1497 L473 1497 L215 1189 Z " />
<glyph glyph-name="&amp;#xb5;" unicode="&#xb5;" horiz-adv-x="1320" d="M377 92 C426 15 498 -24 592 -24 C753 -24 871 59 944 176 L944 -1 L1172 -1 L1172 1066 L928 1066 L928 460 C928 281 816 188 644 188 C571 188 512 209 465 251 C418 293 393 351 392 426 L392 1066 L148 1066 L148 -404 L377 -404 L377 92 Z " />
<glyph glyph-name="&amp;#x3bc;" unicode="&#x3bc;" horiz-adv-x="1320" d="M377 92 C426 15 498 -24 592 -24 C753 -24 871 59 944 176 L944 -1 L1172 -1 L1172 1066 L928 1066 L928 460 C928 281 816 188 644 188 C571 188 512 209 465 251 C418 293 393 351 392 426 L392 1066 L148 1066 L148 -404 L377 -404 L377 92 Z " />
<glyph glyph-name="paragraph" unicode="&#xb6;" horiz-adv-x="1232" d="M1136 -426 L1136 1481 L472 1481 C368 1481 279 1444 206 1371 C133 1298 96 1209 96 1105 C96 1001 133 912 206 839 C279 766 368 729 472 729 L472 -426 L658 -426 L658 1315 L950 1315 L950 -426 L1136 -426 Z " />
<glyph glyph-name="&amp;#xb7;" unicode="&#xb7;" horiz-adv-x="608" d="M304 371 C347 371 384 386 415 417 C445 448 460 484 460 527 C460 570 445 607 415 638 C384 668 347 683 304 683 C261 683 225 668 194 638 C163 607 148 570 148 527 C148 484 163 448 194 417 C224 386 261 371 304 371 L304 371 Z " />
<glyph glyph-name="&amp;#x2219;" unicode="&#x2219;" horiz-adv-x="608" d="M304 371 C347 371 384 386 415 417 C445 448 460 484 460 527 C460 570 445 607 415 638 C384 668 347 683 304 683 C261 683 225 668 194 638 C163 607 148 570 148 527 C148 484 163 448 194 417 C224 386 261 371 304 371 L304 371 Z " />
<glyph glyph-name="cedilla" unicode="&#xb8;" horiz-adv-x="952" d="M442 -412 C509 -412 569 -398 622 -370 C675 -341 701 -300 701 -245 C701 -150 639 -101 515 -96 L576 0 L446 0 L382 -114 L382 -188 L438 -188 C498 -188 528 -207 528 -246 C528 -267 518 -283 498 -293 C477 -303 457 -308 436 -308 C391 -308 346 -295 303 -270 L250 -360 C300 -395 364 -412 442 -412 L442 -412 Z " />
<glyph glyph-name="uni00B9" unicode="&#xb9;" horiz-adv-x="691" d="M542 730 L542 1474 L355 1474 L149 1355 L237 1202 L341 1262 L341 730 L542 730 Z " />
<glyph glyph-name="ordmasculine" unicode="&#xba;" horiz-adv-x="925" d="M440 871 C381 871 330 893 288 938 C246 983 225 1037 225 1100 C225 1163 246 1216 288 1261 C330 1306 381 1328 440 1328 C500 1328 551 1306 593 1261 C634 1216 655 1163 655 1100 C655 1037 634 983 593 938 C551 893 500 871 440 871 L440 871 Z M440 719 C547 719 639 756 715 831 C790 905 828 995 828 1100 C828 1205 790 1294 715 1369 C639 1443 547 1480 440 1480 C333 1480 241 1443 166 1369 C90 1294 52 1205 52 1100 C52 995 90 905 166 831 C241 756 333 719 440 719 L440 719 Z " />
<glyph glyph-name="guillemotright" unicode="&#xbb;" horiz-adv-x="1289" d="M604 77 L819 77 L1082 532 L819 987 L604 987 L867 532 L604 77 Z M182 77 L397 77 L659 532 L397 987 L182 987 L445 532 L182 77 Z " />
<glyph glyph-name="onequarter" unicode="&#xbc;" horiz-adv-x="1683" d="M479 730 L479 1474 L292 1474 L86 1355 L174 1202 L278 1262 L278 730 L479 730 Z M522 -18 L1390 1486 L1143 1486 L275 -18 L522 -18 Z M1510 -1 L1510 98 L1597 98 L1597 265 L1510 265 L1510 394 L1328 394 L1328 265 L1184 265 L1459 743 L1243 743 L954 247 L954 98 L1328 98 L1328 -1 L1510 -1 Z " />
<glyph glyph-name="onehalf" unicode="&#xbd;" horiz-adv-x="1683" d="M1576 -1 L1576 176 L1348 176 L1504 328 C1556 379 1582 436 1582 498 C1582 581 1553 644 1496 688 C1439 732 1371 754 1294 754 C1170 754 1076 707 1012 612 L1148 496 C1181 548 1226 574 1283 574 C1348 574 1381 550 1381 501 C1381 480 1375 465 1364 454 L1026 130 L1026 -1 L1576 -1 Z M493 730 L493 1474 L306 1474 L100 1355 L188 1202 L292 1262 L292 730 L493 730 Z M533 -18 L1401 1486 L1154 1486 L286 -18 L533 -18 Z " />
<glyph glyph-name="threequarters" unicode="&#xbe;" horiz-adv-x="1683" d="M376 719 C252 719 159 765 97 858 L233 975 C263 925 307 900 365 900 C436 900 472 923 472 968 C472 1013 439 1036 374 1037 L305 1037 L305 1168 L369 1168 C422 1168 448 1191 448 1237 C448 1282 421 1305 366 1305 C315 1305 274 1280 243 1230 L107 1347 C170 1440 260 1486 377 1486 C450 1486 514 1466 568 1425 C622 1384 649 1324 649 1244 C649 1190 626 1143 579 1103 C642 1067 674 1020 674 961 C674 880 643 820 580 780 C517 739 449 719 376 719 L376 719 Z M511 -18 L1379 1486 L1132 1486 L263 -18 L511 -18 Z M1498 -1 L1498 98 L1586 98 L1586 265 L1498 265 L1498 394 L1317 394 L1317 265 L1172 265 L1447 743 L1231 743 L942 247 L942 98 L1317 98 L1317 -1 L1498 -1 Z " />
<glyph glyph-name="questiondown" unicode="&#xbf;" horiz-adv-x="1170" d="M496 622 L495 387 C365 364 258 323 173 266 C88 208 46 124 46 13 C46 -124 99 -231 206 -309 C312 -387 440 -426 590 -426 C829 -426 1007 -338 1124 -162 L956 -14 C881 -139 764 -201 606 -201 C519 -201 447 -182 389 -145 C331 -107 302 -56 302 9 C302 129 400 193 557 218 C646 233 684 287 684 364 C684 390 682 476 678 622 L496 622 Z M587 1078 C630 1078 667 1063 698 1032 C728 1001 743 965 743 922 C743 879 728 842 698 812 C667 781 630 766 587 766 C544 766 508 781 477 812 C446 842 431 879 431 922 C431 965 446 1001 477 1032 C507 1063 544 1078 587 1078 L587 1078 Z " />
<glyph glyph-name="Agrave" unicode="&#xc0;" horiz-adv-x="1507" d="M1150 -1 L1441 -1 L840 1458 L667 1458 L66 -1 L357 -1 L498 392 L1009 392 L1150 -1 Z M563 574 L753 1105 L944 574 L563 574 Z M932 1588 L673 1896 L411 1896 L758 1588 L932 1588 Z " />
<glyph glyph-name="Aacute" unicode="&#xc1;" horiz-adv-x="1507" d="M1150 -1 L1441 -1 L840 1458 L667 1458 L66 -1 L357 -1 L498 392 L1009 392 L1150 -1 Z M563 574 L753 1105 L944 574 L563 574 Z M566 1588 L740 1588 L1087 1896 L824 1896 L566 1588 Z " />
<glyph glyph-name="Acircumflex" unicode="&#xc2;" horiz-adv-x="1507" d="M1150 -1 L1441 -1 L840 1458 L667 1458 L66 -1 L357 -1 L498 392 L1009 392 L1150 -1 Z M563 574 L753 1105 L944 574 L563 574 Z M1109 1604 L844 1911 L654 1911 L389 1604 L544 1604 L749 1794 L954 1604 L1109 1604 Z " />
<glyph glyph-name="Atilde" unicode="&#xc3;" horiz-adv-x="1507" d="M1150 -1 L1441 -1 L840 1458 L667 1458 L66 -1 L357 -1 L498 392 L1009 392 L1150 -1 Z M563 574 L753 1105 L944 574 L563 574 Z M901 1631 C1007 1631 1082 1686 1125 1795 L1010 1861 C985 1804 947 1775 894 1775 C857 1775 818 1790 777 1821 C719 1863 658 1884 595 1884 C489 1884 416 1828 375 1716 L486 1654 C511 1711 550 1740 603 1740 C640 1740 678 1725 719 1694 C777 1652 838 1631 901 1631 L901 1631 Z " />
<glyph glyph-name="Adieresis" unicode="&#xc4;" horiz-adv-x="1507" d="M1150 -1 L1441 -1 L840 1458 L667 1458 L66 -1 L357 -1 L498 392 L1009 392 L1150 -1 Z M563 574 L753 1105 L944 574 L563 574 Z M563 1625 C596 1625 624 1637 647 1660 C670 1683 682 1711 682 1744 C682 1777 670 1805 647 1828 C624 1851 596 1863 563 1863 C530 1863 501 1851 478 1828 C455 1805 443 1777 443 1744 C443 1711 455 1683 478 1660 C501 1637 530 1625 563 1625 L563 1625 Z M935 1625 C968 1625 997 1637 1020 1660 C1043 1683 1054 1711 1054 1744 C1054 1777 1043 1805 1020 1828 C997 1851 968 1863 935 1863 C902 1863 874 1851 851 1828 C828 1805 816 1777 816 1744 C816 1711 828 1683 851 1660 C874 1637 902 1625 935 1625 L935 1625 Z " />
<glyph glyph-name="Aring" unicode="&#xc5;" horiz-adv-x="1507" d="M1150 -1 L1441 -1 L840 1458 L667 1458 L66 -1 L357 -1 L498 392 L1009 392 L1150 -1 Z M563 574 L753 1105 L944 574 L563 574 Z M750 1640 C695 1640 653 1684 653 1737 C653 1792 695 1835 750 1835 C803 1835 847 1792 847 1737 C847 1684 803 1640 750 1640 L750 1640 Z M750 1527 C808 1527 858 1548 899 1589 C940 1630 960 1679 960 1737 C960 1796 940 1846 899 1887 C858 1928 808 1948 750 1948 C691 1948 642 1928 601 1887 C560 1846 539 1796 539 1737 C539 1679 560 1630 601 1589 C642 1548 691 1527 750 1527 L750 1527 Z " />
<glyph glyph-name="AE" unicode="&#xc6;" horiz-adv-x="2098" d="M1019 575 L579 575 L849 1244 L1019 1244 L1019 575 Z M2002 0 L2002 214 L1269 214 L1269 629 L1884 629 L1884 828 L1269 828 L1269 1244 L2002 1244 L2002 1458 L733 1458 L66 0 L357 0 L513 377 L1019 377 L1019 0 L2002 0 Z " />
<glyph glyph-name="Ccedilla" unicode="&#xc7;" horiz-adv-x="1517" d="M652 -114 L652 -188 L708 -188 C768 -188 798 -207 798 -246 C798 -267 788 -283 768 -293 C747 -303 727 -308 706 -308 C661 -308 616 -295 573 -270 L520 -360 C570 -395 634 -412 712 -412 C779 -412 839 -398 892 -370 C944 -341 970 -300 970 -245 C970 -150 908 -101 784 -96 L831 -24 L861 -24 C1069 -24 1247 48 1394 193 L1225 356 C1124 256 1003 206 861 206 C718 206 597 257 500 359 C403 461 354 584 354 728 C354 872 403 995 500 1097 C597 1199 718 1250 861 1250 C1003 1250 1124 1200 1225 1100 L1394 1263 C1247 1408 1069 1480 861 1480 C643 1480 461 1407 315 1260 C169 1113 96 935 96 728 C96 520 160 352 289 223 C417 94 557 16 710 -11 L652 -114 Z " />
<glyph glyph-name="Egrave" unicode="&#xc8;" horiz-adv-x="1265" d="M1169 -2 L1169 212 L436 212 L436 628 L1051 628 L1051 827 L436 827 L436 1243 L1169 1243 L1169 1457 L186 1457 L186 -2 L1169 -2 Z M872 1588 L613 1896 L351 1896 L698 1588 L872 1588 Z " />
<glyph glyph-name="Eacute" unicode="&#xc9;" horiz-adv-x="1265" d="M1169 -2 L1169 212 L436 212 L436 628 L1051 628 L1051 827 L436 827 L436 1243 L1169 1243 L1169 1457 L186 1457 L186 -2 L1169 -2 Z M506 1588 L680 1588 L1027 1896 L764 1896 L506 1588 Z " />
<glyph glyph-name="Ecircumflex" unicode="&#xca;" horiz-adv-x="1265" d="M1169 -2 L1169 212 L436 212 L436 628 L1051 628 L1051 827 L436 827 L436 1243 L1169 1243 L1169 1457 L186 1457 L186 -2 L1169 -2 Z M1049 1604 L784 1911 L594 1911 L329 1604 L484 1604 L689 1794 L894 1604 L1049 1604 Z " />
<glyph glyph-name="Edieresis" unicode="&#xcb;" horiz-adv-x="1265" d="M1169 -2 L1169 212 L436 212 L436 628 L1051 628 L1051 827 L436 827 L436 1243 L1169 1243 L1169 1457 L186 1457 L186 -2 L1169 -2 Z M503 1625 C536 1625 564 1637 587 1660 C610 1683 622 1711 622 1744 C622 1777 610 1805 587 1828 C564 1851 536 1863 503 1863 C470 1863 441 1851 418 1828 C395 1805 383 1777 383 1744 C383 1711 395 1683 418 1660 C441 1637 470 1625 503 1625 L503 1625 Z M875 1625 C908 1625 937 1637 960 1660 C983 1683 994 1711 994 1744 C994 1777 983 1805 960 1828 C937 1851 908 1863 875 1863 C842 1863 814 1851 791 1828 C768 1805 756 1777 756 1744 C756 1711 768 1683 791 1660 C814 1637 842 1625 875 1625 L875 1625 Z " />
<glyph glyph-name="Igrave" unicode="&#xcc;" horiz-adv-x="623" d="M436 -2 L436 1457 L186 1457 L186 -2 L436 -2 Z M486 1588 L227 1896 L-35 1896 L312 1588 L486 1588 Z " />
<glyph glyph-name="Iacute" unicode="&#xcd;" horiz-adv-x="623" d="M436 -2 L436 1457 L186 1457 L186 -2 L436 -2 Z M120 1588 L294 1588 L641 1896 L378 1896 L120 1588 Z " />
<glyph glyph-name="Icircumflex" unicode="&#xce;" horiz-adv-x="623" d="M436 -2 L436 1457 L186 1457 L186 -2 L436 -2 Z M663 1604 L398 1911 L208 1911 L-57 1604 L98 1604 L303 1794 L508 1604 L663 1604 Z " />
<glyph glyph-name="Idieresis" unicode="&#xcf;" horiz-adv-x="623" d="M436 -2 L436 1457 L186 1457 L186 -2 L436 -2 Z M118 1625 C151 1625 179 1637 202 1660 C225 1683 237 1711 237 1744 C237 1777 225 1805 202 1828 C179 1851 151 1863 118 1863 C85 1863 56 1851 33 1828 C10 1805 -2 1777 -2 1744 C-2 1711 10 1683 33 1660 C56 1637 85 1625 118 1625 L118 1625 Z M490 1625 C523 1625 552 1637 575 1660 C598 1683 609 1711 609 1744 C609 1777 598 1805 575 1828 C552 1851 523 1863 490 1863 C457 1863 429 1851 406 1828 C383 1805 371 1777 371 1744 C371 1711 383 1683 406 1660 C429 1637 457 1625 490 1625 L490 1625 Z " />
<glyph glyph-name="Eth" unicode="&#xd0;" horiz-adv-x="1538" d="M433 821 L433 1243 L683 1243 C824 1243 944 1193 1043 1092 C1142 991 1192 870 1192 728 C1192 585 1142 463 1042 363 C942 263 822 213 683 213 L433 213 L433 635 L875 635 L875 821 L433 821 Z M-75 821 L-75 635 L183 635 L183 -1 L683 -1 C892 -1 1071 70 1220 213 C1368 355 1442 527 1442 728 C1442 929 1368 1101 1220 1244 C1071 1386 892 1457 683 1457 L183 1457 L183 821 L-75 821 Z " />
<glyph glyph-name="Ntilde" unicode="&#xd1;" horiz-adv-x="1630" d="M1444 -2 L1444 1457 L1197 1457 L1197 394 L384 1457 L186 1457 L186 -2 L433 -2 L433 1061 L1246 -2 L1444 -2 Z M975 1631 C1081 1631 1156 1686 1199 1795 L1084 1861 C1059 1804 1021 1775 968 1775 C931 1775 892 1790 851 1821 C793 1863 732 1884 669 1884 C563 1884 490 1828 449 1716 L560 1654 C585 1711 624 1740 677 1740 C714 1740 752 1725 793 1694 C851 1652 912 1631 975 1631 L975 1631 Z " />
<glyph glyph-name="Ograve" unicode="&#xd2;" horiz-adv-x="1720" d="M860 204 C718 204 597 255 497 358 C396 460 346 583 346 728 C346 873 396 996 497 1099 C597 1201 718 1252 860 1252 C1002 1252 1123 1201 1224 1099 C1324 996 1374 873 1374 728 C1374 583 1324 460 1224 358 C1123 255 1002 204 860 204 L860 204 Z M860 -24 C1071 -24 1251 49 1400 196 C1549 343 1624 520 1624 728 C1624 935 1549 1113 1400 1260 C1251 1407 1071 1480 860 1480 C649 1480 469 1407 320 1260 C171 1113 96 935 96 728 C96 520 171 343 320 196 C469 49 649 -24 860 -24 L860 -24 Z M1042 1588 L783 1896 L521 1896 L868 1588 L1042 1588 Z " />
<glyph glyph-name="Oacute" unicode="&#xd3;" horiz-adv-x="1720" d="M860 204 C718 204 597 255 497 358 C396 460 346 583 346 728 C346 873 396 996 497 1099 C597 1201 718 1252 860 1252 C1002 1252 1123 1201 1224 1099 C1324 996 1374 873 1374 728 C1374 583 1324 460 1224 358 C1123 255 1002 204 860 204 L860 204 Z M860 -24 C1071 -24 1251 49 1400 196 C1549 343 1624 520 1624 728 C1624 935 1549 1113 1400 1260 C1251 1407 1071 1480 860 1480 C649 1480 469 1407 320 1260 C171 1113 96 935 96 728 C96 520 171 343 320 196 C469 49 649 -24 860 -24 L860 -24 Z M676 1588 L850 1588 L1197 1896 L934 1896 L676 1588 Z " />
<glyph glyph-name="Ocircumflex" unicode="&#xd4;" horiz-adv-x="1720" d="M860 204 C718 204 597 255 497 358 C396 460 346 583 346 728 C346 873 396 996 497 1099 C597 1201 718 1252 860 1252 C1002 1252 1123 1201 1224 1099 C1324 996 1374 873 1374 728 C1374 583 1324 460 1224 358 C1123 255 1002 204 860 204 L860 204 Z M860 -24 C1071 -24 1251 49 1400 196 C1549 343 1624 520 1624 728 C1624 935 1549 1113 1400 1260 C1251 1407 1071 1480 860 1480 C649 1480 469 1407 320 1260 C171 1113 96 935 96 728 C96 520 171 343 320 196 C469 49 649 -24 860 -24 L860 -24 Z M1219 1604 L954 1911 L764 1911 L499 1604 L654 1604 L859 1794 L1064 1604 L1219 1604 Z " />
<glyph glyph-name="Otilde" unicode="&#xd5;" horiz-adv-x="1720" d="M860 204 C718 204 597 255 497 358 C396 460 346 583 346 728 C346 873 396 996 497 1099 C597 1201 718 1252 860 1252 C1002 1252 1123 1201 1224 1099 C1324 996 1374 873 1374 728 C1374 583 1324 460 1224 358 C1123 255 1002 204 860 204 L860 204 Z M860 -24 C1071 -24 1251 49 1400 196 C1549 343 1624 520 1624 728 C1624 935 1549 1113 1400 1260 C1251 1407 1071 1480 860 1480 C649 1480 469 1407 320 1260 C171 1113 96 935 96 728 C96 520 171 343 320 196 C469 49 649 -24 860 -24 L860 -24 Z M1011 1631 C1117 1631 1192 1686 1235 1795 L1120 1861 C1095 1804 1057 1775 1004 1775 C967 1775 928 1790 887 1821 C829 1863 768 1884 705 1884 C599 1884 526 1828 485 1716 L596 1654 C621 1711 660 1740 713 1740 C750 1740 788 1725 829 1694 C887 1652 948 1631 1011 1631 L1011 1631 Z " />
<glyph glyph-name="Odieresis" unicode="&#xd6;" horiz-adv-x="1720" d="M860 204 C718 204 597 255 497 358 C396 460 346 583 346 728 C346 873 396 996 497 1099 C597 1201 718 1252 860 1252 C1002 1252 1123 1201 1224 1099 C1324 996 1374 873 1374 728 C1374 583 1324 460 1224 358 C1123 255 1002 204 860 204 L860 204 Z M860 -24 C1071 -24 1251 49 1400 196 C1549 343 1624 520 1624 728 C1624 935 1549 1113 1400 1260 C1251 1407 1071 1480 860 1480 C649 1480 469 1407 320 1260 C171 1113 96 935 96 728 C96 520 171 343 320 196 C469 49 649 -24 860 -24 L860 -24 Z M674 1625 C707 1625 735 1637 758 1660 C781 1683 793 1711 793 1744 C793 1777 781 1805 758 1828 C735 1851 707 1863 674 1863 C641 1863 612 1851 589 1828 C566 1805 554 1777 554 1744 C554 1711 566 1683 589 1660 C612 1637 641 1625 674 1625 L674 1625 Z M1046 1625 C1079 1625 1108 1637 1131 1660 C1154 1683 1165 1711 1165 1744 C1165 1777 1154 1805 1131 1828 C1108 1851 1079 1863 1046 1863 C1013 1863 985 1851 962 1828 C939 1805 927 1777 927 1744 C927 1711 939 1683 962 1660 C985 1637 1013 1625 1046 1625 L1046 1625 Z " />
<glyph glyph-name="multiply" unicode="&#xd7;" horiz-adv-x="1301" d="M1116 395 L781 729 L1116 1064 L985 1195 L650 861 L315 1195 L184 1064 L519 729 L184 395 L315 263 L650 598 L985 263 L1116 395 Z " />
<glyph glyph-name="Oslash" unicode="&#xd8;" horiz-adv-x="1720" d="M1387 1481 L1201 1481 L1165 1420 C1072 1460 970 1480 860 1480 C649 1480 469 1407 320 1260 C171 1113 96 935 96 728 C96 521 171 344 320 197 C350 167 381 140 413 117 L333 -23 L519 -23 L553 37 C647 -4 749 -24 860 -24 C1071 -24 1251 50 1400 197 C1549 344 1624 521 1624 728 C1624 935 1549 1113 1400 1260 C1369 1289 1338 1316 1305 1340 L1387 1481 Z M533 323 C520 334 508 345 496 358 C396 460 346 583 346 728 C346 873 396 996 497 1099 C597 1201 718 1252 860 1252 C927 1252 990 1240 1048 1217 L533 323 Z M1186 1133 C1199 1122 1211 1111 1223 1099 C1323 996 1373 873 1373 728 C1373 583 1323 460 1223 358 C1123 255 1002 204 860 204 C792 204 729 216 670 239 L1186 1133 Z " />
<glyph glyph-name="Ugrave" unicode="&#xd9;" horiz-adv-x="1531" d="M766 -24 C925 -24 1062 19 1175 105 C1288 191 1345 296 1345 420 L1345 1458 L1096 1458 L1096 460 C1096 378 1063 314 998 268 C933 222 855 199 766 199 C671 199 593 223 530 272 C467 320 436 383 436 460 L436 1458 L186 1458 L186 420 C186 301 238 198 342 109 C446 20 587 -24 766 -24 L766 -24 Z M909 1588 L650 1896 L388 1896 L735 1588 L909 1588 Z " />
<glyph glyph-name="Uacute" unicode="&#xda;" horiz-adv-x="1531" d="M766 -24 C925 -24 1062 19 1175 105 C1288 191 1345 296 1345 420 L1345 1458 L1096 1458 L1096 460 C1096 378 1063 314 998 268 C933 222 855 199 766 199 C671 199 593 223 530 272 C467 320 436 383 436 460 L436 1458 L186 1458 L186 420 C186 301 238 198 342 109 C446 20 587 -24 766 -24 L766 -24 Z M543 1588 L717 1588 L1064 1896 L801 1896 L543 1588 Z " />
<glyph glyph-name="Ucircumflex" unicode="&#xdb;" horiz-adv-x="1531" d="M766 -24 C925 -24 1062 19 1175 105 C1288 191 1345 296 1345 420 L1345 1458 L1096 1458 L1096 460 C1096 378 1063 314 998 268 C933 222 855 199 766 199 C671 199 593 223 530 272 C467 320 436 383 436 460 L436 1458 L186 1458 L186 420 C186 301 238 198 342 109 C446 20 587 -24 766 -24 L766 -24 Z M1086 1604 L821 1911 L631 1911 L366 1604 L521 1604 L726 1794 L931 1604 L1086 1604 Z " />
<glyph glyph-name="Udieresis" unicode="&#xdc;" horiz-adv-x="1531" d="M766 -24 C925 -24 1062 19 1175 105 C1288 191 1345 296 1345 420 L1345 1458 L1096 1458 L1096 460 C1096 378 1063 314 998 268 C933 222 855 199 766 199 C671 199 593 223 530 272 C467 320 436 383 436 460 L436 1458 L186 1458 L186 420 C186 301 238 198 342 109 C446 20 587 -24 766 -24 L766 -24 Z M540 1625 C573 1625 601 1637 624 1660 C647 1683 659 1711 659 1744 C659 1777 647 1805 624 1828 C601 1851 573 1863 540 1863 C507 1863 478 1851 455 1828 C432 1805 420 1777 420 1744 C420 1711 432 1683 455 1660 C478 1637 507 1625 540 1625 L540 1625 Z M912 1625 C945 1625 974 1637 997 1660 C1020 1683 1031 1711 1031 1744 C1031 1777 1020 1805 997 1828 C974 1851 945 1863 912 1863 C879 1863 851 1851 828 1828 C805 1805 793 1777 793 1744 C793 1711 805 1683 828 1660 C851 1637 879 1625 912 1625 L912 1625 Z " />
<glyph glyph-name="Yacute" unicode="&#xdd;" horiz-adv-x="1438" d="M844 -2 L844 683 L1396 1457 L1077 1457 L719 934 L361 1457 L41 1457 L593 683 L593 -2 L844 -2 Z M535 1588 L709 1588 L1056 1896 L793 1896 L535 1588 Z " />
<glyph glyph-name="Thorn" unicode="&#xde;" horiz-adv-x="1392" d="M436 512 L436 1009 L784 1009 C853 1009 915 989 968 949 C1021 908 1048 846 1048 761 C1048 676 1021 613 968 573 C915 532 853 512 784 512 L436 512 Z M436 298 L800 298 C940 298 1058 341 1153 426 C1248 511 1295 622 1295 761 C1295 905 1246 1018 1147 1100 C1048 1182 933 1223 800 1223 L436 1223 L436 1458 L186 1458 L186 -2 L436 -2 L436 298 Z " />
<glyph glyph-name="germandbls" unicode="&#xdf;" horiz-adv-x="1322" d="M769 -23 C895 -23 1003 20 1092 106 C1181 192 1226 294 1226 413 C1226 504 1198 582 1142 645 C1085 708 1020 748 945 763 C994 790 1033 834 1064 893 C1094 952 1109 1006 1109 1057 C1109 1176 1062 1277 969 1358 C876 1439 761 1480 626 1480 C497 1480 386 1441 291 1364 C196 1286 148 1184 148 1057 L148 -1 L398 -1 L398 1050 C398 1109 421 1160 468 1203 C514 1245 567 1266 626 1266 C684 1266 737 1245 786 1202 C834 1159 858 1105 858 1039 C858 981 837 930 796 885 C755 840 705 818 647 818 L558 818 L558 619 L758 619 C813 619 864 600 909 563 C954 525 977 476 977 417 C977 350 955 296 912 254 C868 212 818 191 762 191 C677 191 609 213 560 257 L514 59 C581 4 666 -23 769 -23 L769 -23 Z " />
<glyph glyph-name="agrave" unicode="&#xe0;" horiz-adv-x="1206" d="M537 164 C486 164 439 177 398 203 C357 229 336 267 336 316 C336 365 356 398 395 415 C434 432 478 440 526 440 L814 440 L814 332 C814 294 790 257 742 220 C694 183 626 164 537 164 L537 164 Z M473 -23 C652 -23 772 29 833 132 L833 -1 L1058 -1 L1058 714 C1058 840 1009 934 912 996 C814 1058 704 1089 582 1089 C401 1089 261 1023 152 918 L306 767 C389 840 475 877 563 877 C628 877 686 862 737 832 C788 801 814 758 814 703 L814 619 L523 619 C394 619 290 591 211 534 C132 477 92 398 92 296 C92 190 133 110 214 57 C295 4 381 -23 473 -23 L473 -23 Z M769 1189 L510 1497 L248 1497 L595 1189 L769 1189 Z " />
<glyph glyph-name="aacute" unicode="&#xe1;" horiz-adv-x="1206" d="M537 164 C486 164 439 177 398 203 C357 229 336 267 336 316 C336 365 356 398 395 415 C434 432 478 440 526 440 L814 440 L814 332 C814 294 790 257 742 220 C694 183 626 164 537 164 L537 164 Z M473 -23 C652 -23 772 29 833 132 L833 -1 L1058 -1 L1058 714 C1058 840 1009 934 912 996 C814 1058 704 1089 582 1089 C401 1089 261 1023 152 918 L306 767 C389 840 475 877 563 877 C628 877 686 862 737 832 C788 801 814 758 814 703 L814 619 L523 619 C394 619 290 591 211 534 C132 477 92 398 92 296 C92 190 133 110 214 57 C295 4 381 -23 473 -23 L473 -23 Z M403 1189 L577 1189 L924 1497 L661 1497 L403 1189 Z " />
<glyph glyph-name="acircumflex" unicode="&#xe2;" horiz-adv-x="1206" d="M537 164 C486 164 439 177 398 203 C357 229 336 267 336 316 C336 365 356 398 395 415 C434 432 478 440 526 440 L814 440 L814 332 C814 294 790 257 742 220 C694 183 626 164 537 164 L537 164 Z M473 -23 C652 -23 772 29 833 132 L833 -1 L1058 -1 L1058 714 C1058 840 1009 934 912 996 C814 1058 704 1089 582 1089 C401 1089 261 1023 152 918 L306 767 C389 840 475 877 563 877 C628 877 686 862 737 832 C788 801 814 758 814 703 L814 619 L523 619 C394 619 290 591 211 534 C132 477 92 398 92 296 C92 190 133 110 214 57 C295 4 381 -23 473 -23 L473 -23 Z M946 1205 L681 1512 L491 1512 L226 1205 L381 1205 L586 1395 L791 1205 L946 1205 Z " />
<glyph glyph-name="atilde" unicode="&#xe3;" horiz-adv-x="1206" d="M537 164 C486 164 439 177 398 203 C357 229 336 267 336 316 C336 365 356 398 395 415 C434 432 478 440 526 440 L814 440 L814 332 C814 294 790 257 742 220 C694 183 626 164 537 164 L537 164 Z M473 -23 C652 -23 772 29 833 132 L833 -1 L1058 -1 L1058 714 C1058 840 1009 934 912 996 C814 1058 704 1089 582 1089 C401 1089 261 1023 152 918 L306 767 C389 840 475 877 563 877 C628 877 686 862 737 832 C788 801 814 758 814 703 L814 619 L523 619 C394 619 290 591 211 534 C132 477 92 398 92 296 C92 190 133 110 214 57 C295 4 381 -23 473 -23 L473 -23 Z M738 1232 C844 1232 919 1287 962 1396 L847 1462 C822 1405 784 1376 731 1376 C694 1376 655 1391 614 1422 C556 1464 495 1485 432 1485 C326 1485 253 1429 212 1317 L323 1255 C348 1312 387 1341 440 1341 C477 1341 515 1326 556 1295 C614 1253 675 1232 738 1232 L738 1232 Z " />
<glyph glyph-name="adieresis" unicode="&#xe4;" horiz-adv-x="1206" d="M537 164 C486 164 439 177 398 203 C357 229 336 267 336 316 C336 365 356 398 395 415 C434 432 478 440 526 440 L814 440 L814 332 C814 294 790 257 742 220 C694 183 626 164 537 164 L537 164 Z M473 -23 C652 -23 772 29 833 132 L833 -1 L1058 -1 L1058 714 C1058 840 1009 934 912 996 C814 1058 704 1089 582 1089 C401 1089 261 1023 152 918 L306 767 C389 840 475 877 563 877 C628 877 686 862 737 832 C788 801 814 758 814 703 L814 619 L523 619 C394 619 290 591 211 534 C132 477 92 398 92 296 C92 190 133 110 214 57 C295 4 381 -23 473 -23 L473 -23 Z M400 1226 C433 1226 461 1238 484 1261 C507 1284 519 1312 519 1345 C519 1378 507 1406 484 1429 C461 1452 433 1464 400 1464 C367 1464 338 1452 315 1429 C292 1406 280 1378 280 1345 C280 1312 292 1284 315 1261 C338 1238 367 1226 400 1226 L400 1226 Z M772 1226 C805 1226 834 1238 857 1261 C880 1284 891 1312 891 1345 C891 1378 880 1406 857 1429 C834 1452 805 1464 772 1464 C739 1464 711 1452 688 1429 C665 1406 653 1378 653 1345 C653 1312 665 1284 688 1261 C711 1238 739 1226 772 1226 L772 1226 Z " />
<glyph glyph-name="aring" unicode="&#xe5;" horiz-adv-x="1206" d="M537 164 C486 164 439 177 398 203 C357 229 336 267 336 316 C336 365 356 398 395 415 C434 432 478 440 526 440 L814 440 L814 332 C814 294 790 257 742 220 C694 183 626 164 537 164 L537 164 Z M473 -23 C652 -23 772 29 833 132 L833 -1 L1058 -1 L1058 714 C1058 840 1009 934 912 996 C814 1058 704 1089 582 1089 C401 1089 261 1023 152 918 L306 767 C389 840 475 877 563 877 C628 877 686 862 737 832 C788 801 814 758 814 703 L814 619 L523 619 C394 619 290 591 211 534 C132 477 92 398 92 296 C92 190 133 110 214 57 C295 4 381 -23 473 -23 L473 -23 Z M587 1261 C532 1261 490 1305 490 1358 C490 1413 532 1456 587 1456 C640 1456 684 1413 684 1358 C684 1305 640 1261 587 1261 L587 1261 Z M587 1148 C645 1148 695 1169 736 1210 C777 1251 797 1300 797 1358 C797 1417 777 1467 736 1508 C695 1549 645 1569 587 1569 C528 1569 479 1549 438 1508 C397 1467 376 1417 376 1358 C376 1300 397 1251 438 1210 C479 1169 528 1148 587 1148 L587 1148 Z " />
<glyph glyph-name="ae" unicode="&#xe6;" horiz-adv-x="1923" d="M536 163 C485 163 439 176 398 203 C356 229 335 267 335 316 C335 365 355 398 395 415 C434 432 478 440 526 440 L814 440 L814 331 C814 294 788 256 737 219 C685 182 618 163 536 163 L536 163 Z M1066 622 L1066 727 C1113 841 1204 898 1337 898 C1521 898 1611 801 1631 622 L1066 622 Z M1375 -24 C1519 -24 1653 23 1777 118 L1635 279 C1554 216 1467 185 1375 185 C1233 185 1131 243 1068 360 L1068 441 L1862 441 C1868 476 1871 507 1871 532 C1871 689 1822 821 1724 928 C1626 1035 1497 1088 1337 1088 C1187 1088 1064 1036 968 931 C888 1036 736 1089 553 1089 C386 1089 256 1019 152 918 L305 767 C380 832 466 877 563 877 C628 877 686 862 737 831 C788 800 814 757 814 702 L814 619 L523 619 C394 619 290 591 211 534 C132 477 92 398 92 296 C92 190 133 110 214 57 C295 4 381 -23 473 -23 C654 -23 805 45 926 180 C1043 44 1192 -24 1375 -24 L1375 -24 Z " />
<glyph glyph-name="ccedilla" unicode="&#xe7;" horiz-adv-x="1170" d="M484 -114 L484 -188 L540 -188 C600 -188 630 -207 630 -246 C630 -267 620 -283 600 -293 C579 -303 559 -308 538 -308 C493 -308 448 -295 405 -270 L352 -360 C402 -395 466 -412 544 -412 C611 -412 671 -398 724 -370 C777 -341 803 -300 803 -245 C803 -150 741 -101 617 -96 L663 -24 L680 -24 C824 -24 951 23 1062 117 L920 282 C859 220 782 189 688 189 C596 189 515 221 445 286 C375 350 340 432 340 532 C340 633 375 715 445 780 C515 844 596 876 688 876 C782 876 859 845 920 782 L1062 948 C951 1041 824 1088 680 1088 C518 1088 380 1038 266 937 C151 836 93 701 92 532 C94 369 144 244 241 155 C338 66 438 10 542 -11 L484 -114 Z " />
<glyph glyph-name="egrave" unicode="&#xe8;" horiz-adv-x="1224" d="M338 623 C343 698 373 762 427 817 C480 871 551 898 639 898 C738 898 810 873 854 822 C898 771 924 704 932 623 L338 623 Z M676 -24 C820 -24 954 23 1079 118 L937 280 C862 217 775 185 676 185 C585 185 508 212 445 266 C382 319 347 378 340 441 L1164 441 C1169 476 1172 507 1172 532 C1172 689 1123 821 1025 928 C927 1035 798 1088 639 1088 C484 1088 355 1036 251 931 C146 826 93 694 92 535 C94 375 151 242 264 136 C377 29 514 -24 676 -24 L676 -24 Z M832 1189 L573 1497 L311 1497 L658 1189 L832 1189 Z " />
<glyph glyph-name="eacute" unicode="&#xe9;" horiz-adv-x="1224" d="M338 623 C343 698 373 762 427 817 C480 871 551 898 639 898 C738 898 810 873 854 822 C898 771 924 704 932 623 L338 623 Z M676 -24 C820 -24 954 23 1079 118 L937 280 C862 217 775 185 676 185 C585 185 508 212 445 266 C382 319 347 378 340 441 L1164 441 C1169 476 1172 507 1172 532 C1172 689 1123 821 1025 928 C927 1035 798 1088 639 1088 C484 1088 355 1036 251 931 C146 826 93 694 92 535 C94 375 151 242 264 136 C377 29 514 -24 676 -24 L676 -24 Z M466 1189 L640 1189 L987 1497 L724 1497 L466 1189 Z " />
<glyph glyph-name="ecircumflex" unicode="&#xea;" horiz-adv-x="1224" d="M338 623 C343 698 373 762 427 817 C480 871 551 898 639 898 C738 898 810 873 854 822 C898 771 924 704 932 623 L338 623 Z M676 -24 C820 -24 954 23 1079 118 L937 280 C862 217 775 185 676 185 C585 185 508 212 445 266 C382 319 347 378 340 441 L1164 441 C1169 476 1172 507 1172 532 C1172 689 1123 821 1025 928 C927 1035 798 1088 639 1088 C484 1088 355 1036 251 931 C146 826 93 694 92 535 C94 375 151 242 264 136 C377 29 514 -24 676 -24 L676 -24 Z M1009 1205 L744 1512 L554 1512 L289 1205 L444 1205 L649 1395 L854 1205 L1009 1205 Z " />
<glyph glyph-name="edieresis" unicode="&#xeb;" horiz-adv-x="1224" d="M338 623 C343 698 373 762 427 817 C480 871 551 898 639 898 C738 898 810 873 854 822 C898 771 924 704 932 623 L338 623 Z M676 -24 C820 -24 954 23 1079 118 L937 280 C862 217 775 185 676 185 C585 185 508 212 445 266 C382 319 347 378 340 441 L1164 441 C1169 476 1172 507 1172 532 C1172 689 1123 821 1025 928 C927 1035 798 1088 639 1088 C484 1088 355 1036 251 931 C146 826 93 694 92 535 C94 375 151 242 264 136 C377 29 514 -24 676 -24 L676 -24 Z M463 1226 C496 1226 524 1238 547 1261 C570 1284 582 1312 582 1345 C582 1378 570 1406 547 1429 C524 1452 496 1464 463 1464 C430 1464 401 1452 378 1429 C355 1406 343 1378 343 1345 C343 1312 355 1284 378 1261 C401 1238 430 1226 463 1226 L463 1226 Z M835 1226 C868 1226 897 1238 920 1261 C943 1284 954 1312 954 1345 C954 1378 943 1406 920 1429 C897 1452 868 1464 835 1464 C802 1464 774 1452 751 1429 C728 1406 716 1378 716 1345 C716 1312 728 1284 751 1261 C774 1238 802 1226 835 1226 L835 1226 Z " />
<glyph glyph-name="igrave" unicode="&#xec;" horiz-adv-x="540" d="M392 -1 L392 1066 L148 1066 L148 -1 L392 -1 Z M459 1189 L200 1497 L-62 1497 L285 1189 L459 1189 Z " />
<glyph glyph-name="iacute" unicode="&#xed;" horiz-adv-x="540" d="M392 -1 L392 1066 L148 1066 L148 -1 L392 -1 Z M68 1189 L242 1189 L589 1497 L326 1497 L68 1189 Z " />
<glyph glyph-name="icircumflex" unicode="&#xee;" horiz-adv-x="540" d="M392 -1 L392 1066 L148 1066 L148 -1 L392 -1 Z M623 1205 L358 1512 L168 1512 L-97 1205 L58 1205 L263 1395 L468 1205 L623 1205 Z " />
<glyph glyph-name="idieresis" unicode="&#xef;" horiz-adv-x="540" d="M392 -1 L392 1066 L148 1066 L148 -1 L392 -1 Z M78 1226 C111 1226 139 1238 162 1261 C185 1284 197 1312 197 1345 C197 1378 185 1406 162 1429 C139 1452 111 1464 78 1464 C45 1464 16 1452 -7 1429 C-30 1406 -42 1378 -42 1345 C-42 1312 -30 1284 -7 1261 C16 1238 45 1226 78 1226 L78 1226 Z M450 1226 C483 1226 512 1238 535 1261 C558 1284 569 1312 569 1345 C569 1378 558 1406 535 1429 C512 1452 483 1464 450 1464 C417 1464 389 1452 366 1429 C343 1406 331 1378 331 1345 C331 1312 343 1284 366 1261 C389 1238 417 1226 450 1226 L450 1226 Z " />
<glyph glyph-name="eth" unicode="&#xf0;" horiz-adv-x="1318" d="M659 189 C570 189 494 223 431 290 C368 357 336 438 336 533 C336 628 368 709 431 776 C494 843 570 876 659 876 C748 876 825 843 888 776 C951 709 982 628 982 533 C982 438 951 357 888 290 C825 223 748 189 659 189 L659 189 Z M659 -23 C816 -23 949 31 1060 140 C1171 248 1226 379 1226 533 C1226 805 1144 1062 979 1303 L1163 1366 L1163 1516 L893 1428 C862 1465 830 1498 797 1527 L574 1458 C601 1437 634 1406 675 1366 L481 1300 L481 1151 L786 1248 C859 1163 912 1066 947 957 C872 1044 776 1088 659 1088 C502 1088 369 1034 258 926 C147 817 92 686 92 533 C92 379 147 248 258 140 C369 31 502 -23 659 -23 L659 -23 Z " />
<glyph glyph-name="ntilde" unicode="&#xf1;" horiz-adv-x="1357" d="M1209 641 C1206 778 1165 887 1086 968 C1006 1049 902 1089 773 1089 C593 1089 476 1006 400 889 L400 1066 L171 1066 L171 -1 L415 -1 L415 605 C415 686 442 752 497 802 C552 851 621 876 705 876 C778 876 840 855 889 814 C938 772 963 714 965 639 L965 -1 L1209 -1 L1209 641 Z M847 1232 C953 1232 1028 1287 1071 1396 L956 1462 C931 1405 893 1376 840 1376 C803 1376 764 1391 723 1422 C665 1464 604 1485 541 1485 C435 1485 362 1429 321 1317 L432 1255 C457 1312 496 1341 549 1341 C586 1341 624 1326 665 1295 C723 1253 784 1232 847 1232 L847 1232 Z " />
<glyph glyph-name="ograve" unicode="&#xf2;" horiz-adv-x="1318" d="M659 189 C570 189 494 223 431 290 C368 357 336 438 336 533 C336 628 368 709 431 776 C494 843 570 876 659 876 C748 876 825 843 888 776 C951 709 982 628 982 533 C982 438 951 357 888 290 C825 223 748 189 659 189 L659 189 Z M659 -23 C816 -23 949 31 1060 140 C1171 249 1226 380 1226 533 C1226 686 1171 817 1060 926 C949 1035 816 1089 659 1089 C502 1089 369 1035 258 926 C147 817 92 686 92 533 C92 380 147 249 258 140 C369 31 502 -23 659 -23 L659 -23 Z M837 1189 L578 1497 L316 1497 L663 1189 L837 1189 Z " />
<glyph glyph-name="oacute" unicode="&#xf3;" horiz-adv-x="1318" d="M659 189 C570 189 494 223 431 290 C368 357 336 438 336 533 C336 628 368 709 431 776 C494 843 570 876 659 876 C748 876 825 843 888 776 C951 709 982 628 982 533 C982 438 951 357 888 290 C825 223 748 189 659 189 L659 189 Z M659 -23 C816 -23 949 31 1060 140 C1171 249 1226 380 1226 533 C1226 686 1171 817 1060 926 C949 1035 816 1089 659 1089 C502 1089 369 1035 258 926 C147 817 92 686 92 533 C92 380 147 249 258 140 C369 31 502 -23 659 -23 L659 -23 Z M471 1189 L645 1189 L992 1497 L729 1497 L471 1189 Z " />
<glyph glyph-name="ocircumflex" unicode="&#xf4;" horiz-adv-x="1318" d="M659 189 C570 189 494 223 431 290 C368 357 336 438 336 533 C336 628 368 709 431 776 C494 843 570 876 659 876 C748 876 825 843 888 776 C951 709 982 628 982 533 C982 438 951 357 888 290 C825 223 748 189 659 189 L659 189 Z M659 -23 C816 -23 949 31 1060 140 C1171 249 1226 380 1226 533 C1226 686 1171 817 1060 926 C949 1035 816 1089 659 1089 C502 1089 369 1035 258 926 C147 817 92 686 92 533 C92 380 147 249 258 140 C369 31 502 -23 659 -23 L659 -23 Z M1014 1205 L749 1512 L559 1512 L294 1205 L449 1205 L654 1395 L859 1205 L1014 1205 Z " />
<glyph glyph-name="otilde" unicode="&#xf5;" horiz-adv-x="1318" d="M659 189 C570 189 494 223 431 290 C368 357 336 438 336 533 C336 628 368 709 431 776 C494 843 570 876 659 876 C748 876 825 843 888 776 C951 709 982 628 982 533 C982 438 951 357 888 290 C825 223 748 189 659 189 L659 189 Z M659 -23 C816 -23 949 31 1060 140 C1171 249 1226 380 1226 533 C1226 686 1171 817 1060 926 C949 1035 816 1089 659 1089 C502 1089 369 1035 258 926 C147 817 92 686 92 533 C92 380 147 249 258 140 C369 31 502 -23 659 -23 L659 -23 Z M805 1232 C911 1232 986 1287 1029 1396 L914 1462 C889 1405 851 1376 798 1376 C761 1376 722 1391 681 1422 C623 1464 562 1485 499 1485 C393 1485 320 1429 279 1317 L390 1255 C415 1312 454 1341 507 1341 C544 1341 582 1326 623 1295 C681 1253 742 1232 805 1232 L805 1232 Z " />
<glyph glyph-name="odieresis" unicode="&#xf6;" horiz-adv-x="1318" d="M659 189 C570 189 494 223 431 290 C368 357 336 438 336 533 C336 628 368 709 431 776 C494 843 570 876 659 876 C748 876 825 843 888 776 C951 709 982 628 982 533 C982 438 951 357 888 290 C825 223 748 189 659 189 L659 189 Z M659 -23 C816 -23 949 31 1060 140 C1171 249 1226 380 1226 533 C1226 686 1171 817 1060 926 C949 1035 816 1089 659 1089 C502 1089 369 1035 258 926 C147 817 92 686 92 533 C92 380 147 249 258 140 C369 31 502 -23 659 -23 L659 -23 Z M468 1226 C501 1226 529 1238 552 1261 C575 1284 587 1312 587 1345 C587 1378 575 1406 552 1429 C529 1452 501 1464 468 1464 C435 1464 406 1452 383 1429 C360 1406 348 1378 348 1345 C348 1312 360 1284 383 1261 C406 1238 435 1226 468 1226 L468 1226 Z M840 1226 C873 1226 902 1238 925 1261 C948 1284 959 1312 959 1345 C959 1378 948 1406 925 1429 C902 1452 873 1464 840 1464 C807 1464 779 1452 756 1429 C733 1406 721 1378 721 1345 C721 1312 733 1284 756 1261 C779 1238 807 1226 840 1226 L840 1226 Z " />
<glyph glyph-name="divide" unicode="&#xf7;" horiz-adv-x="1301" d="M1151 812 L151 812 L151 647 L1151 647 L1151 812 Z M651 272 C684 272 713 284 736 308 C759 331 771 360 771 393 C771 426 759 455 736 479 C713 502 684 514 651 514 C618 514 589 502 566 479 C542 455 530 426 530 393 C530 360 542 331 566 308 C589 284 618 272 651 272 L651 272 Z M651 945 C684 945 713 957 736 981 C759 1004 771 1032 771 1065 C771 1098 759 1127 736 1151 C713 1174 684 1186 651 1186 C618 1186 589 1174 566 1151 C542 1127 530 1098 530 1065 C530 1032 542 1004 566 981 C589 957 618 945 651 945 L651 945 Z " />
<glyph glyph-name="oslash" unicode="&#xf8;" horiz-adv-x="1317" d="M1142 1089 L957 1089 L916 1030 C839 1069 753 1089 659 1089 C502 1089 369 1035 258 926 C147 817 92 686 92 533 C92 380 147 249 258 140 C265 134 271 128 277 122 L175 -23 L361 -23 L402 36 C479 -3 565 -23 659 -23 C815 -23 948 31 1059 140 C1170 249 1225 380 1225 533 C1225 686 1170 817 1059 926 C1053 932 1047 938 1040 944 L1142 1089 Z M407 307 C349 370 320 446 320 533 C320 628 354 709 423 776 C491 843 570 877 659 877 C705 877 748 868 789 850 L407 307 Z M911 759 C968 695 997 620 997 533 C997 438 963 358 895 291 C826 224 748 190 659 190 C613 190 570 199 530 217 L911 759 Z " />
<glyph glyph-name="ugrave" unicode="&#xf9;" horiz-adv-x="1343" d="M588 -25 C749 -25 868 42 944 175 L944 -2 L1172 -2 L1172 1066 L928 1066 L928 460 C928 285 820 188 645 188 C572 188 512 209 465 251 C418 293 393 351 392 426 L392 1066 L148 1066 L148 424 C151 286 193 177 274 96 C355 15 459 -25 588 -25 L588 -25 Z M847 1189 L588 1497 L326 1497 L673 1189 L847 1189 Z " />
<glyph glyph-name="uacute" unicode="&#xfa;" horiz-adv-x="1343" d="M588 -25 C749 -25 868 42 944 175 L944 -2 L1172 -2 L1172 1066 L928 1066 L928 460 C928 285 820 188 645 188 C572 188 512 209 465 251 C418 293 393 351 392 426 L392 1066 L148 1066 L148 424 C151 286 193 177 274 96 C355 15 459 -25 588 -25 L588 -25 Z M481 1189 L655 1189 L1002 1497 L739 1497 L481 1189 Z " />
<glyph glyph-name="ucircumflex" unicode="&#xfb;" horiz-adv-x="1343" d="M588 -25 C749 -25 868 42 944 175 L944 -2 L1172 -2 L1172 1066 L928 1066 L928 460 C928 285 820 188 645 188 C572 188 512 209 465 251 C418 293 393 351 392 426 L392 1066 L148 1066 L148 424 C151 286 193 177 274 96 C355 15 459 -25 588 -25 L588 -25 Z M1024 1205 L759 1512 L569 1512 L304 1205 L459 1205 L664 1395 L869 1205 L1024 1205 Z " />
<glyph glyph-name="udieresis" unicode="&#xfc;" horiz-adv-x="1343" d="M588 -25 C749 -25 868 42 944 175 L944 -2 L1172 -2 L1172 1066 L928 1066 L928 460 C928 285 820 188 645 188 C572 188 512 209 465 251 C418 293 393 351 392 426 L392 1066 L148 1066 L148 424 C151 286 193 177 274 96 C355 15 459 -25 588 -25 L588 -25 Z M478 1226 C511 1226 539 1238 562 1261 C585 1284 597 1312 597 1345 C597 1378 585 1406 562 1429 C539 1452 511 1464 478 1464 C445 1464 416 1452 393 1429 C370 1406 358 1378 358 1345 C358 1312 370 1284 393 1261 C416 1238 445 1226 478 1226 L478 1226 Z M850 1226 C883 1226 912 1238 935 1261 C958 1284 969 1312 969 1345 C969 1378 958 1406 935 1429 C912 1452 883 1464 850 1464 C817 1464 789 1452 766 1429 C743 1406 731 1378 731 1345 C731 1312 743 1284 766 1261 C789 1238 817 1226 850 1226 L850 1226 Z " />
<glyph glyph-name="yacute" unicode="&#xfd;" horiz-adv-x="1144" d="M257 -428 C344 -428 417 -410 476 -373 C535 -336 585 -268 625 -168 L1122 1066 L850 1066 L586 328 L323 1066 L36 1066 L477 46 L410 -111 C395 -147 378 -177 357 -200 C336 -223 303 -235 257 -235 C200 -235 152 -231 112 -223 L112 -414 C163 -423 211 -428 257 -428 L257 -428 Z M397 1189 L571 1189 L918 1497 L655 1497 L397 1189 Z " />
<glyph glyph-name="thorn" unicode="&#xfe;" horiz-adv-x="1384" d="M712 189 C619 189 540 223 475 290 C409 357 376 438 376 533 C376 628 409 709 475 776 C540 843 619 876 712 876 C805 876 884 843 949 776 C1014 709 1047 628 1047 533 C1047 438 1014 357 949 290 C884 223 805 189 712 189 L712 189 Z M392 -405 L392 175 C490 43 612 -23 759 -23 C908 -23 1034 31 1137 140 C1240 248 1291 379 1291 533 C1291 686 1240 817 1137 926 C1034 1034 908 1088 759 1088 C605 1088 477 1016 376 872 L376 1458 L148 1458 L148 -405 L392 -405 Z " />
<glyph glyph-name="ydieresis" unicode="&#xff;" horiz-adv-x="1144" d="M257 -428 C344 -428 417 -410 476 -373 C535 -336 585 -268 625 -168 L1122 1066 L850 1066 L586 328 L323 1066 L36 1066 L477 46 L410 -111 C395 -147 378 -177 357 -200 C336 -223 303 -235 257 -235 C200 -235 152 -231 112 -223 L112 -414 C163 -423 211 -428 257 -428 L257 -428 Z M395 1226 C428 1226 456 1238 479 1261 C502 1284 514 1312 514 1345 C514 1378 502 1406 479 1429 C456 1452 428 1464 395 1464 C362 1464 333 1452 310 1429 C287 1406 275 1378 275 1345 C275 1312 287 1284 310 1261 C333 1238 362 1226 395 1226 L395 1226 Z M767 1226 C800 1226 829 1238 852 1261 C875 1284 886 1312 886 1345 C886 1378 875 1406 852 1429 C829 1452 800 1464 767 1464 C734 1464 706 1452 683 1429 C660 1406 648 1378 648 1345 C648 1312 660 1284 683 1261 C706 1238 734 1226 767 1226 L767 1226 Z " />
<glyph glyph-name="dotlessi" unicode="&#x131;" horiz-adv-x="540" d="M392 -1 L392 1066 L148 1066 L148 -1 L392 -1 Z " />
<glyph glyph-name="Lslash" unicode="&#x141;" horiz-adv-x="1180" d="M884 901 L884 1087 L437 829 L437 1457 L187 1457 L187 685 L-39 554 L-39 369 L187 499 L187 -2 L1164 -2 L1164 213 L437 213 L437 643 L884 901 Z " />
<glyph glyph-name="lslash" unicode="&#x142;" horiz-adv-x="574" d="M638 838 L638 1023 L409 891 L409 1457 L165 1457 L165 750 L-64 618 L-64 433 L165 565 L165 -2 L409 -2 L409 706 L638 838 Z " />
<glyph glyph-name="OE" unicode="&#x152;" horiz-adv-x="2259" d="M860 204 C718 204 597 255 497 358 C396 460 346 583 346 728 C346 873 396 996 497 1099 C597 1201 718 1252 860 1252 C992 1252 1098 1197 1179 1086 L1179 370 C1098 259 992 204 860 204 L860 204 Z M860 -24 C974 -24 1080 -1 1179 45 L1179 -1 L2162 -1 L2162 213 L1429 213 L1429 628 L2044 628 L2044 827 L1429 827 L1429 1243 L2162 1243 L2162 1457 L1179 1457 L1179 1411 C1080 1457 974 1480 860 1480 C649 1480 469 1407 320 1260 C171 1113 96 935 96 728 C96 521 171 344 320 197 C469 50 649 -24 860 -24 L860 -24 Z " />
<glyph glyph-name="oe" unicode="&#x153;" horiz-adv-x="2135" d="M659 190 C570 190 494 224 431 291 C368 358 336 438 336 533 C336 628 368 709 431 776 C494 843 570 877 659 877 C748 877 825 843 888 776 C951 709 982 628 982 533 C982 438 951 358 888 291 C825 224 748 190 659 190 L659 190 Z M1252 623 C1257 698 1286 762 1339 817 C1392 871 1462 898 1549 898 C1736 898 1824 798 1843 623 L1252 623 Z M1587 -23 C1731 -23 1865 24 1990 119 L1847 280 C1759 217 1672 186 1587 186 C1496 186 1419 213 1357 267 C1295 320 1261 378 1254 441 L2074 441 C2080 476 2083 507 2083 533 C2083 690 2034 821 1936 928 C1838 1035 1709 1088 1549 1088 C1354 1088 1207 1003 1110 832 C1003 1003 853 1089 659 1089 C502 1089 369 1035 258 926 C147 817 92 686 92 533 C92 380 147 249 258 140 C369 31 502 -23 659 -23 C856 -23 1008 64 1115 239 C1224 64 1381 -23 1587 -23 L1587 -23 Z " />
<glyph glyph-name="Scaron" unicode="&#x160;" horiz-adv-x="1327" d="M684 -23 C848 -23 987 19 1101 103 C1214 187 1271 289 1271 408 C1268 522 1236 605 1175 656 C1114 707 1039 744 951 769 L590 877 C537 892 494 913 462 938 C429 963 413 1001 412 1052 C412 1111 440 1160 496 1199 C552 1238 617 1257 692 1257 C847 1257 962 1204 1039 1100 L1220 1248 C1093 1404 913 1480 684 1480 C532 1480 402 1438 295 1354 C187 1269 133 1167 133 1048 C133 937 161 857 217 806 C273 755 342 718 425 695 L792 584 C850 567 898 547 935 523 C972 499 991 459 991 404 C991 345 961 296 902 258 C842 219 769 200 684 200 C603 200 520 220 437 260 C354 299 292 351 253 416 L85 266 C139 176 223 105 336 54 C449 3 565 -23 684 -23 L684 -23 Z M1052 1911 L897 1911 L692 1721 L487 1911 L332 1911 L597 1604 L787 1604 L1052 1911 Z " />
<glyph glyph-name="scaron" unicode="&#x161;" horiz-adv-x="1070" d="M528 -32 C645 -32 749 -4 841 52 C932 108 978 185 978 283 C978 366 955 427 910 467 C864 506 809 536 745 556 L466 651 C405 671 365 695 365 759 C366 794 381 824 412 849 C443 874 494 887 565 887 C640 887 736 856 853 793 L956 962 C825 1041 690 1080 552 1080 C427 1080 320 1049 231 988 C142 927 98 844 97 741 C98 620 160 533 299 489 L593 395 C661 374 710 351 710 283 C710 204 638 157 507 157 C454 157 395 168 328 189 C261 210 201 241 148 283 L53 114 C106 64 178 27 270 4 C361 -20 447 -32 528 -32 L528 -32 Z M940 1512 L785 1512 L580 1322 L375 1512 L220 1512 L485 1205 L675 1205 L940 1512 Z " />
<glyph glyph-name="Ydieresis" unicode="&#x178;" horiz-adv-x="1438" d="M844 -2 L844 683 L1396 1457 L1077 1457 L719 934 L361 1457 L41 1457 L593 683 L593 -2 L844 -2 Z M532 1625 C565 1625 593 1637 616 1660 C639 1683 651 1711 651 1744 C651 1777 639 1805 616 1828 C593 1851 565 1863 532 1863 C499 1863 470 1851 447 1828 C424 1805 412 1777 412 1744 C412 1711 424 1683 447 1660 C470 1637 499 1625 532 1625 L532 1625 Z M904 1625 C937 1625 966 1637 989 1660 C1012 1683 1023 1711 1023 1744 C1023 1777 1012 1805 989 1828 C966 1851 937 1863 904 1863 C871 1863 843 1851 820 1828 C797 1805 785 1777 785 1744 C785 1711 797 1683 820 1660 C843 1637 871 1625 904 1625 L904 1625 Z " />
<glyph glyph-name="Zcaron" unicode="&#x17d;" horiz-adv-x="1266" d="M1170 -2 L1170 212 L450 212 L1170 1318 L1170 1457 L96 1457 L96 1243 L816 1243 L96 137 L96 -2 L1170 -2 Z M1001 1911 L846 1911 L641 1721 L436 1911 L281 1911 L546 1604 L736 1604 L1001 1911 Z " />
<glyph glyph-name="zcaron" unicode="&#x17e;" horiz-adv-x="1092" d="M1000 -2 L1000 192 L415 192 L1000 871 L1000 1066 L92 1066 L92 871 L677 871 L92 192 L92 -2 L1000 -2 Z M918 1512 L763 1512 L558 1322 L353 1512 L198 1512 L463 1205 L653 1205 L918 1512 Z " />
<glyph glyph-name="florin" unicode="&#x192;" horiz-adv-x="1222" d="M152 -426 C275 -425 380 -394 465 -334 C550 -274 605 -180 630 -52 C719 452 774 760 793 872 L1117 872 L1117 1066 L828 1066 L837 1118 C854 1213 943 1282 1076 1282 C1115 1282 1152 1278 1187 1269 L1222 1467 C1167 1476 1114 1480 1063 1480 C794 1480 637 1342 593 1118 L584 1066 L340 1066 L340 872 L549 872 L387 -52 C377 -117 350 -163 305 -191 C260 -219 207 -233 145 -233 C106 -233 69 -229 34 -220 L0 -413 C53 -422 104 -426 152 -426 L152 -426 Z " />
<glyph glyph-name="circumflex" unicode="&#x2c6;" horiz-adv-x="952" d="M836 1205 L571 1512 L381 1512 L116 1205 L271 1205 L476 1395 L681 1205 L836 1205 Z " />
<glyph glyph-name="caron" unicode="&#x2c7;" horiz-adv-x="952" d="M836 1512 L681 1512 L476 1322 L271 1512 L116 1512 L381 1205 L571 1205 L836 1512 Z " />
<glyph glyph-name="uni02C9" unicode="&#x2c9;" horiz-adv-x="953" d="M785 1286 L785 1431 L166 1431 L166 1286 L785 1286 Z " />
<glyph glyph-name="breve" unicode="&#x2d8;" horiz-adv-x="952" d="M476 1205 C583 1205 661 1237 712 1301 C763 1364 788 1435 788 1512 L683 1512 C683 1463 663 1423 622 1392 C581 1361 533 1345 476 1345 C419 1345 370 1361 329 1392 C288 1423 268 1463 268 1512 L163 1512 C163 1435 188 1364 239 1301 C290 1237 369 1205 476 1205 L476 1205 Z " />
<glyph glyph-name="dotaccent" unicode="&#x2d9;" horiz-adv-x="952" d="M476 1239 C509 1239 537 1251 560 1274 C583 1297 595 1325 595 1358 C595 1391 583 1420 560 1443 C537 1466 509 1478 476 1478 C410 1478 356 1424 356 1358 C356 1325 368 1297 391 1274 C414 1251 443 1239 476 1239 L476 1239 Z " />
<glyph glyph-name="ring" unicode="&#x2da;" horiz-adv-x="952" d="M476 1261 C421 1261 379 1305 379 1358 C379 1413 421 1456 476 1456 C529 1456 573 1413 573 1358 C573 1305 529 1261 476 1261 L476 1261 Z M476 1148 C534 1148 584 1169 625 1210 C666 1251 686 1300 686 1358 C686 1417 666 1467 625 1508 C584 1549 534 1569 476 1569 C417 1569 368 1549 327 1508 C286 1467 265 1417 265 1358 C265 1300 286 1251 327 1210 C368 1169 417 1148 476 1148 L476 1148 Z " />
<glyph glyph-name="ogonek" unicode="&#x2db;" horiz-adv-x="952" d="M497 -412 C587 -412 654 -391 699 -350 L642 -260 C606 -292 560 -308 503 -308 C446 -308 417 -285 417 -239 C417 -169 474 -89 589 0 L436 0 C313 -79 252 -166 252 -259 C252 -361 334 -412 497 -412 L497 -412 Z " />
<glyph glyph-name="tilde" unicode="&#x2dc;" horiz-adv-x="952" d="M627 1232 C733 1232 808 1287 851 1396 L736 1462 C711 1405 673 1376 620 1376 C583 1376 544 1391 503 1422 C445 1464 384 1485 321 1485 C215 1485 142 1429 101 1317 L212 1255 C237 1312 276 1341 329 1341 C366 1341 404 1326 445 1295 C503 1253 564 1232 627 1232 L627 1232 Z " />
<glyph glyph-name="hungarumlaut" unicode="&#x2dd;" horiz-adv-x="952" d="M516 1497 L308 1497 L50 1190 L205 1190 L516 1497 Z M901 1497 L693 1497 L435 1190 L590 1190 L901 1497 Z " />
<glyph glyph-name="&amp;#x3a9;" unicode="&#x3a9;" horiz-adv-x="1539" d="M1442 228 L1108 228 L1108 282 C1205 333 1285 400 1348 485 C1411 570 1442 680 1442 815 C1442 1012 1376 1171 1243 1294 C1110 1417 952 1478 769 1478 C586 1478 428 1417 295 1294 C162 1171 96 1012 96 815 C96 670 130 557 197 475 C264 392 342 328 431 282 L431 228 L96 228 L96 0 L658 0 L658 352 C566 381 489 434 428 509 C366 584 335 684 335 807 C335 945 380 1053 469 1132 C558 1211 658 1250 769 1250 C880 1250 980 1210 1069 1131 C1158 1051 1203 943 1203 807 C1203 686 1172 587 1111 511 C1049 435 972 382 880 353 L880 0 L1442 0 L1442 228 Z " />
<glyph glyph-name="&amp;#x2126;" unicode="&#x2126;" horiz-adv-x="1539" d="M1442 228 L1108 228 L1108 282 C1205 333 1285 400 1348 485 C1411 570 1442 680 1442 815 C1442 1012 1376 1171 1243 1294 C1110 1417 952 1478 769 1478 C586 1478 428 1417 295 1294 C162 1171 96 1012 96 815 C96 670 130 557 197 475 C264 392 342 328 431 282 L431 228 L96 228 L96 0 L658 0 L658 352 C566 381 489 434 428 509 C366 584 335 684 335 807 C335 945 380 1053 469 1132 C558 1211 658 1250 769 1250 C880 1250 980 1210 1069 1131 C1158 1051 1203 943 1203 807 C1203 686 1172 587 1111 511 C1049 435 972 382 880 353 L880 0 L1442 0 L1442 228 Z " />
<glyph glyph-name="pi" unicode="&#x3c0;" horiz-adv-x="1461" d="M1215 -23 C1252 -23 1328 -11 1363 5 L1302 204 C1284 197 1267 193 1252 193 C1224 193 1200 216 1200 244 L1200 868 L1365 868 L1365 1066 L96 1066 L96 868 L261 868 L261 -2 L504 -2 L504 868 L957 868 L957 213 C958 56 1050 -23 1215 -23 L1215 -23 Z " />
<glyph glyph-name="uni1E9E" unicode="&#x1e9e;" horiz-adv-x="1374" d="M850 -23 C977 -23 1080 20 1159 106 C1238 192 1278 294 1278 413 C1278 538 1243 625 1174 674 C1105 723 1031 752 954 761 C877 769 820 773 784 773 L1157 1163 C1061 1374 899 1480 671 1480 C542 1480 429 1441 332 1364 C235 1286 186 1184 186 1057 L186 -1 L436 -1 L436 1049 C436 1108 460 1159 509 1202 C558 1245 612 1266 671 1266 C756 1266 827 1229 884 1156 L592 818 L592 619 L728 621 C767 621 807 619 848 615 C889 610 929 594 970 566 C1010 537 1030 488 1030 417 C1030 350 1008 296 964 254 C920 212 870 191 814 191 C729 191 656 213 594 257 L548 59 C647 4 748 -23 850 -23 L850 -23 Z " />
<glyph glyph-name="endash" unicode="&#x2013;" horiz-adv-x="1301" d="M1127 440 L1127 626 L173 626 L173 440 L1127 440 Z " />
<glyph glyph-name="emdash" unicode="&#x2014;" horiz-adv-x="1907" d="M1907 440 L1907 626 L0 626 L0 440 L1907 440 Z " />
<glyph glyph-name="quoteleft" unicode="&#x2018;" horiz-adv-x="504" d="M440 1513 C342 1435 260 1361 195 1292 C129 1222 96 1144 96 1058 C96 1001 112 958 145 929 C178 900 215 886 256 886 C297 886 330 900 357 929 C384 958 397 990 397 1027 C397 1056 381 1095 348 1144 C334 1165 327 1181 327 1193 C327 1210 332 1229 343 1251 C366 1302 417 1367 496 1446 L440 1513 Z " />
<glyph glyph-name="quoteright" unicode="&#x2019;" horiz-adv-x="504" d="M63 886 C162 964 244 1038 309 1108 C374 1177 407 1255 407 1341 C407 1398 391 1441 358 1470 C325 1499 288 1513 247 1513 C206 1513 173 1499 146 1470 C119 1441 106 1409 106 1372 C106 1343 122 1304 155 1255 C169 1234 176 1218 176 1206 C176 1189 171 1170 161 1148 C137 1097 86 1032 8 954 L63 886 Z " />
<glyph glyph-name="quotesinglbase" unicode="&#x201a;" horiz-adv-x="504" d="M63 -339 C162 -262 244 -188 309 -118 C374 -48 407 30 407 116 C407 173 391 216 358 245 C325 274 288 288 247 288 C206 288 173 274 146 245 C119 216 106 183 106 146 C106 117 122 79 155 30 C169 9 176 -8 176 -19 C176 -36 171 -56 161 -77 C137 -128 86 -193 8 -272 L63 -339 Z " />
<glyph glyph-name="quotedblleft" unicode="&#x201c;" horiz-adv-x="929" d="M865 1513 C767 1435 685 1361 620 1292 C554 1222 521 1144 521 1058 C521 1001 537 958 570 929 C603 900 640 886 681 886 C722 886 755 900 782 929 C809 958 822 990 822 1027 C822 1056 806 1095 773 1144 C759 1165 752 1181 752 1193 C752 1210 757 1229 768 1251 C791 1302 842 1367 921 1446 L865 1513 Z M440 1513 C342 1435 260 1361 195 1292 C129 1222 96 1144 96 1058 C96 1001 112 958 145 929 C178 900 215 886 256 886 C297 886 330 900 357 929 C384 958 397 990 397 1027 C397 1056 381 1095 348 1144 C334 1165 327 1181 327 1193 C327 1210 332 1229 343 1251 C366 1302 417 1367 496 1446 L440 1513 Z " />
<glyph glyph-name="quotedblright" unicode="&#x201d;" horiz-adv-x="929" d="M63 886 C162 964 244 1038 309 1108 C374 1177 407 1255 407 1341 C407 1398 391 1441 358 1470 C325 1499 288 1513 247 1513 C206 1513 173 1499 146 1470 C119 1441 106 1409 106 1372 C106 1343 122 1304 155 1255 C169 1234 176 1218 176 1206 C176 1189 171 1170 161 1148 C137 1097 86 1032 8 954 L63 886 Z M488 886 C587 964 669 1038 734 1108 C799 1177 832 1255 832 1341 C832 1398 816 1441 783 1470 C750 1499 713 1513 672 1513 C631 1513 598 1499 571 1470 C544 1441 531 1409 531 1372 C531 1343 547 1304 580 1255 C594 1234 601 1218 601 1206 C601 1189 596 1170 586 1148 C562 1097 511 1032 433 954 L488 886 Z " />
<glyph glyph-name="quotedblbase" unicode="&#x201e;" horiz-adv-x="929" d="M63 -339 C162 -262 244 -188 309 -118 C374 -48 407 30 407 116 C407 173 391 216 358 245 C325 274 288 288 247 288 C206 288 173 274 146 245 C119 216 106 183 106 146 C106 117 122 79 155 30 C169 9 176 -8 176 -19 C176 -36 171 -56 161 -77 C137 -128 86 -193 8 -272 L63 -339 Z M488 -339 C587 -262 669 -188 734 -118 C799 -48 832 30 832 116 C832 173 816 216 783 245 C750 274 713 288 672 288 C631 288 598 274 571 245 C544 216 531 183 531 146 C531 117 547 79 580 30 C594 9 601 -8 601 -19 C601 -36 596 -56 586 -77 C562 -128 511 -193 433 -272 L488 -339 Z " />
<glyph glyph-name="dagger" unicode="&#x2020;" horiz-adv-x="1301" d="M743 926 L1130 926 L1130 1092 L743 1092 L743 1487 L557 1487 L557 1092 L170 1092 L170 926 L557 926 L557 -420 L743 -420 L743 926 Z " />
<glyph glyph-name="daggerdbl" unicode="&#x2021;" horiz-adv-x="1301" d="M743 -420 L743 -24 L1130 -24 L1130 141 L743 141 L743 926 L1130 926 L1130 1092 L743 1092 L743 1487 L557 1487 L557 1092 L170 1092 L170 926 L557 926 L557 141 L170 141 L170 -24 L557 -24 L557 -420 L743 -420 Z " />
<glyph glyph-name="bullet" unicode="&#x2022;" horiz-adv-x="1301" d="M651 467 C723 467 784 493 835 544 C886 595 911 657 911 728 C911 800 886 862 835 913 C784 964 722 989 651 989 C579 989 518 964 467 913 C416 862 390 800 390 728 C390 657 415 595 466 544 C517 493 578 467 651 467 L651 467 Z " />
<glyph glyph-name="ellipsis" unicode="&#x2026;" horiz-adv-x="1611" d="M252 -23 C295 -23 332 -8 363 23 C393 54 408 90 408 133 C408 176 393 213 363 244 C332 274 295 289 252 289 C209 289 173 274 142 244 C111 213 96 176 96 133 C96 90 111 54 142 23 C172 -8 209 -23 252 -23 L252 -23 Z M806 -23 C849 -23 886 -8 917 23 C947 54 962 90 962 133 C962 176 947 213 916 244 C885 274 849 289 806 289 C763 289 726 274 696 244 C665 213 650 176 650 133 C650 90 665 54 696 23 C726 -8 763 -23 806 -23 L806 -23 Z M1359 -23 C1402 -23 1439 -8 1470 23 C1500 54 1515 90 1515 133 C1515 176 1500 213 1470 244 C1439 274 1402 289 1359 289 C1316 289 1280 274 1250 244 C1219 213 1204 176 1204 133 C1204 90 1219 54 1250 23 C1280 -8 1316 -23 1359 -23 L1359 -23 Z " />
<glyph glyph-name="perthousand" unicode="&#x2030;" horiz-adv-x="2727" d="M635 -23 L1503 1481 L1256 1481 L388 -23 L635 -23 Z M472 925 C422 925 380 943 345 978 C310 1013 292 1055 292 1105 C292 1155 310 1198 345 1233 C380 1268 422 1285 472 1285 C522 1285 565 1268 600 1233 C635 1198 652 1155 652 1105 C652 1055 635 1013 600 978 C565 943 522 925 472 925 L472 925 Z M472 729 C576 729 665 766 738 839 C811 912 848 1001 848 1105 C848 1209 811 1298 738 1371 C665 1444 576 1481 472 1481 C368 1481 279 1444 206 1371 C133 1298 96 1209 96 1105 C96 1001 133 912 206 839 C279 766 368 729 472 729 L472 729 Z M1420 173 C1370 173 1327 191 1292 226 C1257 261 1239 303 1239 353 C1239 403 1257 446 1292 481 C1327 516 1370 533 1420 533 C1469 533 1512 516 1547 481 C1582 446 1600 403 1600 353 C1600 303 1582 261 1547 226 C1512 191 1469 173 1420 173 L1420 173 Z M1420 -23 C1523 -23 1612 14 1686 87 C1759 160 1796 249 1796 353 C1796 457 1759 546 1686 619 C1612 692 1523 729 1420 729 C1316 729 1227 692 1154 619 C1081 546 1044 457 1044 353 C1044 249 1081 160 1154 87 C1227 14 1316 -23 1420 -23 L1420 -23 Z M2255 173 C2205 173 2163 191 2128 226 C2093 261 2075 303 2075 353 C2075 403 2093 446 2128 481 C2163 516 2205 533 2255 533 C2305 533 2348 516 2383 481 C2418 446 2435 403 2435 353 C2435 303 2418 261 2383 226 C2348 191 2305 173 2255 173 L2255 173 Z M2255 -23 C2359 -23 2448 14 2521 87 C2594 160 2631 249 2631 353 C2631 457 2594 546 2521 619 C2448 692 2359 729 2255 729 C2151 729 2062 692 1989 619 C1916 546 1879 457 1879 353 C1879 249 1916 160 1989 87 C2062 14 2151 -23 2255 -23 L2255 -23 Z " />
<glyph glyph-name="guilsinglleft" unicode="&#x2039;" horiz-adv-x="867" d="M685 77 L423 532 L685 987 L471 987 L208 532 L471 77 L685 77 Z " />
<glyph glyph-name="guilsinglright" unicode="&#x203a;" horiz-adv-x="867" d="M182 77 L397 77 L659 532 L397 987 L182 987 L445 532 L182 77 Z " />
<glyph glyph-name="&amp;#x2044;" unicode="&#x2044;" horiz-adv-x="316" d="M-153 -18 L715 1486 L468 1486 L-400 -18 L-153 -18 Z " />
<glyph glyph-name="&amp;#x2215;" unicode="&#x2215;" horiz-adv-x="316" d="M-153 -18 L715 1486 L468 1486 L-400 -18 L-153 -18 Z " />
<glyph glyph-name="franc" unicode="&#x20a3;" horiz-adv-x="1301" d="M990 286 L990 472 L508 472 L508 628 L1123 628 L1123 827 L508 827 L508 1243 L1241 1243 L1241 1457 L258 1457 L258 472 L60 472 L60 286 L258 286 L258 -1 L508 -1 L508 286 L990 286 Z " />
<glyph glyph-name="lira" unicode="&#x20a4;" horiz-adv-x="1301" d="M173 1000 L173 822 L276 822 L276 637 L173 637 L173 459 L276 459 L276 194 L126 194 L126 0 L1175 0 L1175 194 L526 194 L526 459 L850 459 L850 637 L526 637 L526 822 L850 822 L850 1000 L526 1000 L526 1038 C526 1103 545 1159 584 1204 C622 1249 673 1272 736 1273 C802 1273 857 1260 900 1233 C943 1206 985 1166 1028 1111 L1175 1244 C1111 1323 1044 1383 974 1422 C903 1461 816 1481 711 1481 C584 1481 479 1435 398 1342 C317 1249 276 1146 276 1034 L276 1000 L173 1000 Z " />
<glyph glyph-name="Euro" unicode="&#x20ac;" horiz-adv-x="1301" d="M74 1000 L74 822 L295 822 C292 791 291 760 291 728 C291 697 292 666 295 637 L74 637 L74 459 L327 459 C355 363 399 276 458 197 C569 50 730 -24 939 -24 C1045 -24 1141 2 1226 54 L1226 270 C1135 210 1040 180 939 180 C800 180 697 235 630 346 C608 382 590 420 575 459 L987 459 L987 637 L534 637 C531 666 529 697 529 728 C529 760 531 791 534 822 L987 822 L987 1000 L576 1000 C591 1038 609 1075 630 1110 C697 1221 800 1276 939 1276 C1040 1276 1135 1246 1226 1186 L1226 1402 C1141 1454 1045 1480 939 1480 C730 1480 569 1407 458 1260 C399 1181 355 1095 328 1000 L74 1000 Z " />
<glyph glyph-name="uni20B9" unicode="&#x20b9;" horiz-adv-x="1301" d="M130 1457 L130 1272 L479 1272 C548 1272 606 1255 653 1220 C700 1185 730 1141 743 1086 L130 1086 L130 907 L744 907 C732 850 702 804 654 769 C606 734 548 716 479 716 L130 716 L130 531 L376 531 L798 -2 L1103 -2 L650 570 C857 625 957 744 982 907 L1170 907 L1170 1086 L981 1086 C968 1161 939 1226 894 1281 L1170 1281 L1170 1457 L130 1457 Z " />
<glyph glyph-name="uni20BA" unicode="&#x20ba;" horiz-adv-x="1300" d="M59 915 L59 716 L273 816 L273 596 L59 495 L59 297 L273 397 L273 -1 L571 -1 C762 -1 922 60 1050 182 C1177 304 1241 457 1241 640 L1024 640 C1020 513 974 411 886 332 C797 253 692 213 571 213 L523 213 L523 514 L868 676 L868 875 L523 713 L523 933 L868 1095 L868 1294 L523 1132 L523 1457 L273 1457 L273 1015 L59 915 Z " />
<glyph glyph-name="uni2113" unicode="&#x2113;" horiz-adv-x="870" d="M346 1231 C346 1284 363 1327 396 1360 C429 1393 470 1410 517 1410 C618 1409 687 1356 687 1231 C687 1156 657 1100 597 1063 L346 906 L346 1231 Z M509 -24 C623 -23 726 25 818 122 L818 191 C733 93 633 44 520 44 C404 44 346 128 346 296 L346 844 L610 1008 C703 1065 750 1139 750 1230 C750 1314 726 1377 679 1418 C632 1459 571 1480 496 1480 C397 1480 317 1451 256 1394 C195 1337 163 1261 161 1166 L161 792 L12 699 L12 636 L161 729 L161 328 C161 93 277 -24 509 -24 L509 -24 Z " />
<glyph glyph-name="trademark" unicode="&#x2122;" horiz-adv-x="1616" d="M1520 729 L1520 1458 L1398 1458 L1157 1102 L916 1458 L794 1458 L794 729 L948 729 L948 1158 L1114 913 L1200 913 L1366 1158 L1366 729 L1520 729 Z M469 729 L469 1320 L687 1320 L687 1458 L96 1458 L96 1320 L314 1320 L314 729 L469 729 Z " />
<glyph glyph-name="estimated" unicode="&#x212e;" horiz-adv-x="1718" d="M1375 783 L343 783 L343 1130 C478 1299 650 1384 859 1384 C1068 1384 1240 1299 1375 1130 L1375 783 Z M859 -19 C1136 -19 1355 105 1518 352 L1428 404 C1285 189 1095 81 859 81 C650 81 478 166 343 335 L343 682 L1623 682 L1623 733 C1623 942 1548 1119 1399 1265 C1249 1411 1069 1484 859 1484 C650 1484 470 1411 321 1265 C171 1119 96 942 96 733 C96 524 171 346 321 200 C470 54 650 -19 859 -19 L859 -19 Z " />
<glyph glyph-name="onethird" unicode="&#x2153;" horiz-adv-x="1683" d="M497 730 L497 1474 L310 1474 L104 1355 L192 1202 L296 1262 L296 730 L497 730 Z M1280 -12 C1156 -12 1063 34 1001 127 L1137 244 C1167 193 1211 168 1270 168 C1341 168 1377 191 1377 237 C1377 283 1344 306 1277 306 L1210 306 L1210 436 L1274 436 C1326 436 1352 459 1352 505 C1352 551 1325 574 1270 574 C1219 574 1178 549 1147 498 L1011 616 C1074 708 1164 754 1281 754 C1354 754 1418 734 1472 694 C1526 653 1553 593 1553 513 C1553 458 1530 411 1484 371 C1547 335 1578 288 1578 229 C1578 148 1547 88 1484 48 C1421 8 1353 -12 1280 -12 L1280 -12 Z M537 -18 L1405 1486 L1158 1486 L290 -18 L537 -18 Z " />
<glyph glyph-name="twothirds" unicode="&#x2154;" horiz-adv-x="1683" d="M672 730 L672 907 L445 907 L600 1059 C652 1110 678 1167 678 1229 C678 1312 650 1375 593 1420 C536 1464 468 1486 390 1486 C266 1486 172 1438 109 1343 L245 1227 C277 1279 322 1305 380 1305 C445 1305 477 1281 477 1232 C477 1212 471 1196 460 1185 L123 861 L123 730 L672 730 Z M533 -18 L1402 1486 L1154 1486 L286 -18 L533 -18 Z M1277 -12 C1153 -12 1060 34 998 127 L1134 244 C1164 193 1208 168 1266 168 C1337 168 1373 191 1373 237 C1373 283 1338 306 1269 306 L1206 306 L1206 436 L1270 436 C1322 436 1348 459 1348 505 C1348 551 1321 574 1267 574 C1216 574 1175 549 1144 498 L1008 616 C1071 708 1161 754 1278 754 C1351 754 1414 734 1468 694 C1522 653 1549 593 1549 513 C1549 458 1526 411 1480 371 C1543 335 1574 288 1574 229 C1574 148 1543 88 1480 48 C1417 8 1349 -12 1277 -12 L1277 -12 Z " />
<glyph glyph-name="partialdiff" unicode="&#x2202;" horiz-adv-x="1284" d="M612 202 C529 202 465 228 420 279 C374 330 351 394 351 473 C351 642 433 749 612 749 C719 749 823 715 924 646 C924 545 915 469 898 417 C881 364 849 315 802 270 C755 225 692 202 612 202 L612 202 Z M612 -19 C995 -19 1187 235 1188 744 C1188 941 1134 1114 1027 1263 C920 1411 746 1485 506 1485 C419 1485 343 1470 277 1440 L367 1230 C410 1252 456 1263 506 1264 C630 1264 726 1227 795 1152 C864 1077 908 982 929 867 C830 933 724 966 612 966 C452 966 326 921 234 832 C142 743 96 623 96 473 C96 322 145 203 242 114 C339 25 462 -19 612 -19 L612 -19 Z " />
<glyph glyph-name="increment" unicode="&#x2206;" horiz-adv-x="1566" d="M458 228 L783 1070 L1108 228 L458 228 Z M870 1456 L697 1456 L96 -3 L1471 -3 L870 1456 Z " />
<glyph glyph-name="product" unicode="&#x220f;" horiz-adv-x="1673" d="M1577 -428 L1577 1480 L96 1480 L96 -428 L346 -428 L346 1294 L1327 1294 L1327 -428 L1577 -428 Z " />
<glyph glyph-name="summation" unicode="&#x2211;" horiz-adv-x="1673" d="M1577 -242 L392 -242 L972 526 L392 1294 L1577 1294 L1577 1480 L96 1480 L96 1294 L676 526 L96 -242 L96 -428 L1577 -428 L1577 -242 Z " />
<glyph glyph-name="minus" unicode="&#x2212;" horiz-adv-x="1301" d="M1127 640 L1127 825 L173 825 L173 640 L1127 640 Z " />
<glyph glyph-name="radical" unicode="&#x221a;" horiz-adv-x="1301" d="M790 -12 L1301 1895 L1107 1895 L683 313 L432 1088 L-59 957 L-10 775 L309 861 L596 -12 L790 -12 Z " />
<glyph glyph-name="infinity" unicode="&#x221e;" horiz-adv-x="1693" d="M456 541 C403 541 358 560 321 597 C284 634 265 680 265 733 C265 786 284 831 321 868 C358 905 403 924 456 924 C502 923 544 908 581 877 C618 846 653 813 686 776 C700 761 714 746 727 733 L685 689 C653 653 618 620 581 589 C544 558 502 542 456 541 L456 541 Z M1237 541 C1191 542 1149 558 1112 589 C1075 620 1040 653 1008 689 L966 733 C979 746 993 761 1008 776 C1040 813 1075 846 1112 877 C1149 908 1191 923 1237 924 C1290 924 1335 905 1372 868 C1409 831 1428 786 1428 733 C1428 680 1409 634 1372 597 C1335 560 1290 541 1237 541 L1237 541 Z M1237 372 C1336 372 1421 407 1492 478 C1562 548 1597 633 1597 733 C1597 832 1562 917 1492 988 C1421 1058 1336 1093 1237 1093 C1158 1093 1093 1073 1041 1034 C988 995 938 949 891 897 L847 852 L802 897 C755 949 705 995 653 1034 C600 1073 535 1093 456 1093 C357 1093 272 1058 202 988 C131 917 96 832 96 733 C96 633 131 548 202 478 C272 407 357 372 456 372 C535 372 600 392 653 431 C705 470 755 516 802 568 L847 613 L891 568 C938 516 989 471 1042 433 C1095 394 1160 374 1237 372 L1237 372 Z " />
<glyph glyph-name="integral" unicode="&#x222b;" horiz-adv-x="1050" d="M324 -428 C433 -428 514 -372 567 -259 C620 -146 647 -20 647 119 L644 1514 C645 1610 651 1677 662 1715 C673 1752 692 1771 720 1771 L726 1771 C722 1763 720 1751 720 1735 C720 1702 732 1673 756 1650 C779 1627 808 1615 841 1615 C908 1615 954 1668 954 1735 C954 1840 876 1892 721 1892 C616 1892 536 1836 483 1723 C430 1610 403 1483 403 1344 L406 -35 C405 -142 399 -214 388 -252 C377 -289 358 -308 330 -308 L324 -308 C328 -300 330 -289 330 -274 C330 -241 318 -212 295 -189 C271 -166 242 -154 209 -154 C142 -154 96 -207 96 -274 C96 -377 172 -428 324 -428 L324 -428 Z " />
<glyph glyph-name="approxequal" unicode="&#x2248;" horiz-adv-x="1301" d="M866 789 C979 789 1050 818 1080 875 L1080 1060 C1060 1036 1034 1016 1003 1000 C971 983 923 975 859 975 C793 975 718 993 633 1028 C555 1060 489 1076 435 1076 C323 1076 252 1047 221 989 L221 805 C241 829 267 849 299 866 C330 882 378 890 442 890 C508 890 583 872 668 837 C746 805 812 789 866 789 L866 789 Z M866 389 C979 389 1050 418 1080 476 L1080 660 C1060 636 1034 616 1003 600 C971 583 923 575 859 575 C793 575 718 593 633 628 C555 660 489 676 435 676 C323 676 252 647 221 589 L221 406 C241 430 267 450 299 467 C330 483 378 491 442 491 C508 491 583 473 668 437 C746 405 812 389 866 389 L866 389 Z " />
<glyph glyph-name="notequal" unicode="&#x2260;" horiz-adv-x="1301" d="M949 1480 L755 1480 L643 1063 L194 1063 L194 877 L593 877 L513 578 L194 578 L194 393 L464 393 L352 -24 L546 -24 L658 393 L1107 393 L1107 578 L707 578 L787 877 L1107 877 L1107 1063 L837 1063 L949 1480 Z " />
<glyph glyph-name="lessequal" unicode="&#x2264;" horiz-adv-x="1301" d="M1107 603 L465 840 L1107 1077 L1107 1275 L194 924 L194 756 L1107 405 L1107 603 Z M194 124 L194 310 L1107 310 L1107 124 L194 124 Z " />
<glyph glyph-name="greaterequal" unicode="&#x2265;" horiz-adv-x="1301" d="M1107 756 L1107 924 L194 1275 L194 1077 L837 840 L194 603 L194 405 L1107 756 Z M194 310 L1107 310 L1107 124 L194 124 L194 310 Z " />
<glyph glyph-name="lozenge" unicode="&#x25ca;" horiz-adv-x="1110" d="M555 192 L322 728 L555 1263 L787 728 L555 192 Z M668 -2 L1013 728 L668 1457 L441 1457 L96 728 L441 -2 L668 -2 Z " />
<glyph glyph-name="&amp;#xf001;" unicode="&#xf001;" horiz-adv-x="1282" d="M482 -1 L482 872 L775 872 L775 1066 L482 1066 L482 1118 C482 1164 500 1203 537 1235 C574 1266 625 1282 692 1282 C727 1282 755 1278 775 1269 L775 1467 C739 1476 698 1480 651 1480 C530 1480 431 1450 354 1391 C277 1332 238 1241 238 1118 L238 1066 L28 1066 L28 872 L238 872 L238 -1 L482 -1 Z M1028 1220 C1066 1220 1099 1234 1126 1261 C1153 1288 1166 1320 1166 1359 C1166 1397 1153 1430 1126 1457 C1099 1484 1066 1497 1028 1497 C990 1497 958 1484 931 1457 C904 1430 890 1397 890 1359 C890 1320 904 1288 931 1261 C958 1234 990 1220 1028 1220 L1028 1220 Z M1150 -1 L1150 1066 L906 1066 L906 -1 L1150 -1 Z " />
<glyph glyph-name="&amp;#xfb01;" unicode="&#xfb01;" horiz-adv-x="1282" d="M482 -1 L482 872 L775 872 L775 1066 L482 1066 L482 1118 C482 1164 500 1203 537 1235 C574 1266 625 1282 692 1282 C727 1282 755 1278 775 1269 L775 1467 C739 1476 698 1480 651 1480 C530 1480 431 1450 354 1391 C277 1332 238 1241 238 1118 L238 1066 L28 1066 L28 872 L238 872 L238 -1 L482 -1 Z M1028 1220 C1066 1220 1099 1234 1126 1261 C1153 1288 1166 1320 1166 1359 C1166 1397 1153 1430 1126 1457 C1099 1484 1066 1497 1028 1497 C990 1497 958 1484 931 1457 C904 1430 890 1397 890 1359 C890 1320 904 1288 931 1261 C958 1234 990 1220 1028 1220 L1028 1220 Z M1150 -1 L1150 1066 L906 1066 L906 -1 L1150 -1 Z " />
<glyph glyph-name="&amp;#xf002;" unicode="&#xf002;" horiz-adv-x="1328" d="M481 -1 L481 872 L775 872 L775 1066 L481 1066 L481 1118 C481 1164 499 1203 536 1235 C573 1266 624 1282 691 1282 C727 1282 755 1278 775 1269 L775 1467 C738 1476 697 1480 650 1480 C529 1480 431 1450 354 1391 C277 1332 238 1241 238 1118 L238 1066 L28 1066 L28 872 L238 872 L238 -1 L481 -1 Z M1164 -1 L1164 1458 L921 1458 L921 -1 L1164 -1 Z " />
<glyph glyph-name="&amp;#xfb02;" unicode="&#xfb02;" horiz-adv-x="1328" d="M481 -1 L481 872 L775 872 L775 1066 L481 1066 L481 1118 C481 1164 499 1203 536 1235 C573 1266 624 1282 691 1282 C727 1282 755 1278 775 1269 L775 1467 C738 1476 697 1480 650 1480 C529 1480 431 1450 354 1391 C277 1332 238 1241 238 1118 L238 1066 L28 1066 L28 872 L238 872 L238 -1 L481 -1 Z M1164 -1 L1164 1458 L921 1458 L921 -1 L1164 -1 Z " />
<glyph glyph-name="uniFB00" unicode="&#xfb00;" horiz-adv-x="1516" d="M896 872 L896 -1 L1140 -1 L1140 872 L1464 872 L1464 1066 L1140 1066 L1140 1118 C1140 1164 1158 1203 1195 1235 C1232 1266 1283 1282 1350 1282 C1386 1282 1424 1278 1464 1269 L1464 1467 C1407 1476 1356 1480 1309 1480 C1188 1480 1089 1450 1012 1391 C935 1332 896 1241 896 1118 L896 1066 L482 1066 L482 1118 C482 1164 500 1203 537 1235 C574 1266 625 1282 692 1282 C728 1282 756 1278 776 1269 L776 1467 C739 1476 698 1480 651 1480 C530 1480 431 1450 354 1391 C277 1332 238 1241 238 1118 L238 1066 L28 1066 L28 872 L238 872 L238 -1 L482 -1 L482 872 L896 872 Z " />
<glyph glyph-name="uniFB03" unicode="&#xfb03;" horiz-adv-x="1956" d="M896 872 L896 -1 L1140 -1 L1140 872 L1434 872 L1434 1066 L1140 1066 L1140 1118 C1140 1164 1158 1203 1195 1235 C1232 1266 1283 1282 1350 1282 C1386 1282 1414 1278 1434 1269 L1434 1467 C1397 1476 1356 1480 1309 1480 C1188 1480 1089 1450 1012 1391 C935 1332 896 1241 896 1118 L896 1066 L482 1066 L482 1118 C482 1164 500 1203 537 1235 C574 1266 625 1282 692 1282 C728 1282 756 1278 776 1269 L776 1467 C739 1476 698 1480 651 1480 C530 1480 431 1450 354 1391 C277 1332 238 1241 238 1118 L238 1066 L28 1066 L28 872 L238 872 L238 -1 L482 -1 L482 872 L896 872 Z M1808 -1 L1808 1066 L1564 1066 L1564 -1 L1808 -1 Z M1686 1203 C1728 1203 1764 1218 1795 1249 C1825 1279 1840 1316 1840 1359 C1840 1402 1825 1438 1795 1469 C1764 1499 1728 1514 1686 1514 C1643 1514 1607 1499 1577 1469 C1546 1438 1531 1402 1531 1359 C1531 1316 1546 1279 1577 1249 C1607 1218 1643 1203 1686 1203 L1686 1203 Z " />
<glyph glyph-name="uniFB04" unicode="&#xfb04;" horiz-adv-x="1986" d="M896 872 L896 -1 L1140 -1 L1140 872 L1434 872 L1434 1066 L1140 1066 L1140 1118 C1140 1164 1158 1203 1195 1235 C1232 1266 1283 1282 1350 1282 C1386 1282 1414 1278 1434 1269 L1434 1467 C1397 1476 1356 1480 1309 1480 C1188 1480 1089 1450 1012 1391 C935 1332 896 1241 896 1118 L896 1066 L482 1066 L482 1118 C482 1164 500 1203 537 1235 C574 1266 625 1282 692 1282 C728 1282 756 1278 776 1269 L776 1467 C739 1476 698 1480 651 1480 C530 1480 431 1450 354 1391 C277 1332 238 1241 238 1118 L238 1066 L28 1066 L28 872 L238 872 L238 -1 L482 -1 L482 872 L896 872 Z M1823 -1 L1823 1458 L1579 1458 L1579 -1 L1823 -1 Z " />
</font>
</svg>
