<?xml version="1.0" encoding="utf-8"?>
<svg version="1.1" xmlns="http://www.w3.org/2000/svg" xmlns:xlink="http://www.w3.org/1999/xlink" x="0px" y="0px"
	 viewBox="0 0 74 99.1" style="enable-background:new 0 0 74 99.1;" xml:space="preserve">
<polygon points="8.1,0 0,16.2 2.5,16.2 9.4,2.2 "/>
<polygon points="4.7,14.3 16.3,14.3 15,12.1 5.8,12.1 "/>
<polygon points="9.9,3.2 8.7,5.7 12.1,11.2 14.5,11.2 "/>
<polygon points="20.2,16.2 28.3,0 25.8,0 18.9,14 "/>
<polygon points="23.6,2 12,2 13.3,4.2 22.5,4.2 "/>
<polygon points="18.4,13.1 19.6,10.5 16.2,5.1 13.8,5.1 "/>
<polygon points="30.7,0 22.6,16.2 25.1,16.2 32,2.2 "/>
<polygon points="27.3,14.3 38.8,14.3 37.6,12.1 28.3,12.1 "/>
<polygon points="32.5,3.2 31.3,5.7 34.6,11.2 37.1,11.2 "/>
<polygon points="42.7,16.2 50.9,0 48.3,0 41.5,14 "/>
<polygon points="46.2,2 34.6,2 35.8,4.2 45.1,4.2 "/>
<polygon points="40.9,13.1 42.2,10.5 38.8,5.1 36.4,5.1 "/>
<polygon points="53.8,0 45.7,16.2 48.2,16.2 55,2.2 "/>
<polygon points="50.3,14.3 61.9,14.3 60.7,12.1 51.4,12.1 "/>
<polygon points="55.6,3.2 54.4,5.7 57.7,11.2 60.2,11.2 "/>
<polygon points="65.8,16.2 74,0 71.4,0 64.6,14 "/>
<polygon points="69.3,2 57.7,2 58.9,4.2 68.2,4.2 "/>
<polygon points="64,13.1 65.2,10.5 61.9,5.1 59.5,5.1 "/>
<polygon points="64.3,16.6 56.2,32.8 58.7,32.8 65.6,18.8 "/>
<polygon points="60.9,30.9 72.5,30.9 71.2,28.7 62,28.7 "/>
<polygon points="66.2,19.8 64.9,22.3 68.3,27.8 70.7,27.8 "/>
<polygon points="53.8,32.8 61.9,16.6 59.4,16.6 52.5,30.6 "/>
<polygon points="57.2,18.6 45.7,18.6 46.9,20.8 56.2,20.8 "/>
<polygon points="52,29.6 53.2,27.1 49.9,21.7 47.4,21.7 "/>
<polygon points="41.8,16.6 33.6,32.8 36.2,32.8 43,18.8 "/>
<polygon points="38.3,30.9 49.9,30.9 48.7,28.7 39.4,28.7 "/>
<polygon points="43.6,19.8 42.3,22.3 45.7,27.8 48.1,27.8 "/>
<polygon points="30.7,32.8 38.8,16.6 36.3,16.6 29.5,30.6 "/>
<polygon points="34.2,18.6 22.6,18.6 23.8,20.8 33.1,20.8 "/>
<polygon points="28.9,29.6 30.1,27.1 26.8,21.7 24.4,21.7 "/>
<polygon points="18.7,16.6 10.5,32.8 13.1,32.8 19.9,18.8 "/>
<polygon points="15.2,30.9 26.8,30.9 25.6,28.7 16.3,28.7 "/>
<polygon points="20.5,19.8 19.3,22.3 22.6,27.8 25,27.8 "/>
<polygon points="8.2,32.8 16.3,16.6 13.8,16.6 6.9,30.6 "/>
<polygon points="11.6,18.6 0,18.6 1.3,20.8 10.5,20.8 "/>
<polygon points="6.3,29.6 7.6,27.1 4.2,21.7 1.8,21.7 "/>
<polygon points="8.1,33.1 0,49.4 2.5,49.4 9.4,35.3 "/>
<polygon points="4.7,47.4 16.3,47.4 15,45.2 5.8,45.2 "/>
<polygon points="9.9,36.3 8.7,38.8 12.1,44.3 14.5,44.3 "/>
<polygon points="20.2,49.4 28.3,33.1 25.8,33.1 18.9,47.1 "/>
<polygon points="23.6,35.1 12,35.1 13.3,37.3 22.5,37.3 "/>
<polygon points="18.4,46.2 19.6,43.7 16.2,38.2 13.8,38.2 "/>
<polygon points="30.7,33.1 22.6,49.4 25.1,49.4 32,35.3 "/>
<polygon points="27.3,47.4 38.8,47.4 37.6,45.2 28.3,45.2 "/>
<polygon points="32.5,36.3 31.3,38.8 34.6,44.3 37.1,44.3 "/>
<polygon points="42.7,49.4 50.9,33.1 48.3,33.1 41.5,47.1 "/>
<polygon points="46.2,35.1 34.6,35.1 35.8,37.3 45.1,37.3 "/>
<polygon points="40.9,46.2 42.2,43.7 38.8,38.2 36.4,38.2 "/>
<polygon points="53.8,33.1 45.7,49.4 48.2,49.4 55,35.3 "/>
<polygon points="50.3,47.4 61.9,47.4 60.7,45.2 51.4,45.2 "/>
<polygon points="55.6,36.3 54.4,38.8 57.7,44.3 60.2,44.3 "/>
<polygon points="65.8,49.4 74,33.1 71.4,33.1 64.6,47.1 "/>
<polygon points="69.3,35.1 57.7,35.1 58.9,37.3 68.2,37.3 "/>
<polygon points="64,46.2 65.2,43.7 61.9,38.2 59.5,38.2 "/>
<polygon points="64.3,49.7 56.2,66 58.7,66 65.6,51.9 "/>
<polygon points="60.9,64 72.5,64 71.2,61.8 62,61.8 "/>
<polygon points="66.2,52.9 64.9,55.4 68.3,60.9 70.7,60.9 "/>
<polygon points="53.8,66 61.9,49.7 59.4,49.7 52.5,63.7 "/>
<polygon points="57.2,51.7 45.7,51.7 46.9,53.9 56.2,53.9 "/>
<polygon points="52,62.8 53.2,60.2 49.9,54.8 47.4,54.8 "/>
<polygon points="41.8,49.7 33.6,66 36.2,66 43,51.9 "/>
<polygon points="38.3,64 49.9,64 48.7,61.8 39.4,61.8 "/>
<polygon points="43.6,52.9 42.3,55.4 45.7,60.9 48.1,60.9 "/>
<polygon points="30.7,66 38.8,49.7 36.3,49.7 29.5,63.7 "/>
<polygon points="34.2,51.7 22.6,51.7 23.8,53.9 33.1,53.9 "/>
<polygon points="28.9,62.8 30.1,60.2 26.8,54.8 24.4,54.8 "/>
<polygon points="18.7,49.7 10.5,66 13.1,66 19.9,51.9 "/>
<polygon points="15.2,64 26.8,64 25.6,61.8 16.3,61.8 "/>
<polygon points="20.5,52.9 19.3,55.4 22.6,60.9 25,60.9 "/>
<polygon points="8.2,66 16.3,49.7 13.8,49.7 6.9,63.7 "/>
<polygon points="11.6,51.7 0,51.7 1.3,53.9 10.5,53.9 "/>
<polygon points="6.3,62.8 7.6,60.2 4.2,54.8 1.8,54.8 "/>
<polygon points="8.1,66.2 0,82.5 2.5,82.5 9.4,68.4 "/>
<polygon points="4.7,80.5 16.3,80.5 15,78.3 5.8,78.3 "/>
<polygon points="9.9,69.4 8.7,71.9 12.1,77.4 14.5,77.4 "/>
<polygon points="20.2,82.5 28.3,66.2 25.8,66.2 18.9,80.2 "/>
<polygon points="23.6,68.2 12,68.2 13.3,70.4 22.5,70.4 "/>
<polygon points="18.4,79.3 19.6,76.8 16.2,71.3 13.8,71.3 "/>
<polygon points="30.7,66.2 22.6,82.5 25.1,82.5 32,68.4 "/>
<polygon points="27.3,80.5 38.8,80.5 37.6,78.3 28.3,78.3 "/>
<polygon points="32.5,69.4 31.3,71.9 34.6,77.4 37.1,77.4 "/>
<polygon points="42.7,82.5 50.9,66.2 48.3,66.2 41.5,80.2 "/>
<polygon points="46.2,68.2 34.6,68.2 35.8,70.4 45.1,70.4 "/>
<polygon points="40.9,79.3 42.2,76.8 38.8,71.3 36.4,71.3 "/>
<polygon points="53.8,66.2 45.7,82.5 48.2,82.5 55,68.4 "/>
<polygon points="50.3,80.5 61.9,80.5 60.7,78.3 51.4,78.3 "/>
<polygon points="55.6,69.4 54.4,71.9 57.7,77.4 60.2,77.4 "/>
<polygon points="65.8,82.5 74,66.2 71.4,66.2 64.6,80.2 "/>
<polygon points="69.3,68.2 57.7,68.2 58.9,70.4 68.2,70.4 "/>
<polygon points="64,79.3 65.2,76.8 61.9,71.3 59.5,71.3 "/>
<polygon points="64.3,82.8 56.2,99.1 58.7,99.1 65.6,85.1 "/>
<polygon points="60.9,97.1 72.5,97.1 71.2,94.9 62,94.9 "/>
<polygon points="66.2,86 64.9,88.5 68.3,94 70.7,94 "/>
<polygon points="53.8,99.1 61.9,82.8 59.4,82.8 52.5,96.8 "/>
<polygon points="57.2,84.8 45.7,84.8 46.9,87 56.2,87 "/>
<polygon points="52,95.9 53.2,93.4 49.9,87.9 47.4,87.9 "/>
<polygon points="41.8,82.8 33.6,99.1 36.2,99.1 43,85.1 "/>
<polygon points="38.3,97.1 49.9,97.1 48.7,94.9 39.4,94.9 "/>
<polygon points="43.6,86 42.3,88.5 45.7,94 48.1,94 "/>
<polygon points="30.7,99.1 38.8,82.8 36.3,82.8 29.5,96.8 "/>
<polygon points="34.2,84.8 22.6,84.8 23.8,87 33.1,87 "/>
<polygon points="28.9,95.9 30.1,93.4 26.8,87.9 24.4,87.9 "/>
<polygon points="18.7,82.8 10.5,99.1 13.1,99.1 19.9,85.1 "/>
<polygon points="15.2,97.1 26.8,97.1 25.6,94.9 16.3,94.9 "/>
<polygon points="20.5,86 19.3,88.5 22.6,94 25,94 "/>
<polygon points="8.2,99.1 16.3,82.8 13.8,82.8 6.9,96.8 "/>
<polygon points="11.6,84.8 0,84.8 1.3,87 10.5,87 "/>
<polygon points="6.3,95.9 7.6,93.4 4.2,87.9 1.8,87.9 "/>
</svg>
