<svg viewBox="0 0 1762 883" xmlns="http://www.w3.org/2000/svg">
    <g transform="matrix(4.16667,0,0,4.16667,0,0)">
        <path d="M211.312,0.693L161.627,100.107L177.115,100.107L219.093,14.3L211.312,0.693Z"/>
        <path d="M190.365,88.002L261.239,88.014L253.551,74.567L196.834,74.567L190.365,88.002Z"/>
        <path d="M222.493,20.248L214.962,35.654L235.4,68.938L250.332,68.938L222.493,20.248Z"/>
        <path d="M19.936,155.263C20.741,154.331 21.145,153.237 21.145,151.982C21.145,150.862 20.728,149.883 19.898,149.042C19.065,148.203 18.081,147.783 16.946,147.783L7.761,147.783L7.761,156.664L16.997,156.664C18.151,156.664 19.128,156.197 19.936,155.263ZM16.753,140.392C17.612,139.553 18.04,138.574 18.04,137.454C18.04,136.199 17.612,135.105 16.753,134.171C15.898,133.239 14.858,132.772 13.637,132.772L7.761,132.772L7.761,141.651L13.637,141.651C14.858,141.651 15.898,141.233 16.753,140.392ZM0,163.278L0,126.158L13.637,126.158C17.014,126.158 19.892,127.208 22.275,129.313C24.659,131.416 25.85,134.01 25.85,137.098C25.85,139.897 24.705,141.991 22.416,143.381C24.162,144.043 25.672,145.231 26.945,146.945C28.217,148.657 28.853,150.456 28.853,152.339C28.853,155.426 27.669,158.021 25.303,160.123C22.936,162.228 20.083,163.278 16.741,163.278L0,163.278Z"/>
        <path d="M36.062,160.356C33.425,158.014 32.104,155.301 32.104,152.212L32.104,126.158L39.866,126.158L39.866,150.914C39.866,152.746 40.543,154.211 41.901,155.303C43.257,156.398 44.988,156.945 47.092,156.945C48.872,156.945 50.526,156.445 52.053,155.445C53.579,154.444 54.342,152.935 54.342,150.914L54.342,126.158L62.078,126.158L62.078,152.212C62.078,155.504 60.681,158.268 57.892,160.508C55.1,162.745 51.502,163.865 47.092,163.865C42.375,163.865 38.699,162.695 36.062,160.356Z"/>
        <rect x="67.903" y="126.158" width="7.761" height="37.12"/>
        <path d="M106.832,163.278L81.49,163.278L81.49,126.158L89.251,126.158L89.251,156.664L106.832,156.664L106.832,163.278Z"/>
        <path d="M131.596,153.165C133.885,150.832 135.029,148.013 135.029,144.704C135.029,141.414 133.889,138.604 131.608,136.271C129.326,133.939 126.567,132.772 123.326,132.772L118.11,132.772L118.11,156.664L123.326,156.664C126.548,156.664 129.306,155.497 131.596,153.165ZM110.35,163.278L110.35,126.158L123.326,126.158C128.703,126.158 133.291,127.969 137.092,131.589C140.892,135.21 142.791,139.582 142.791,144.704C142.791,149.828 140.892,154.204 137.092,157.834C133.291,161.463 128.703,163.278 123.326,163.278L110.35,163.278Z"/>
        <path d="M146.97,163.278L146.97,126.158L172.412,126.158L172.412,132.772L154.73,132.772L154.73,141.651L169.412,141.651L169.412,147.783L154.73,147.783L154.73,156.664L172.412,156.664L172.412,163.278L146.97,163.278Z"/>
        <path d="M225.099,164.372C222.096,164.372 219.16,163.732 216.295,162.451C213.428,161.171 211.241,159.377 209.73,157.07L214.846,152.314C215.913,153.872 217.428,155.119 219.387,156.053C221.346,156.986 223.249,157.452 225.099,157.452C226.947,157.452 228.473,157.061 229.677,156.281C230.882,155.502 231.483,154.475 231.483,153.203C231.483,152.372 231.129,151.631 230.417,150.978C229.702,150.325 228.585,149.769 227.057,149.311L218.305,146.665C216.067,145.97 214.268,144.893 212.91,143.432C211.554,141.974 210.875,139.973 210.875,137.429C210.875,134.325 212.266,131.671 215.049,129.465C217.829,127.261 221.181,126.158 225.099,126.158C228.033,126.158 230.657,126.638 232.974,127.595C235.287,128.555 237.269,130.033 238.913,132.034L233.341,136.666C232.476,135.479 231.378,134.578 230.047,133.968C228.716,133.358 227.142,133.053 225.326,133.053C223.835,133.053 222.508,133.447 221.346,134.237C220.184,135.025 219.602,136.056 219.602,137.327C219.585,138.141 219.788,138.82 220.213,139.363C220.638,139.906 221.282,140.303 222.146,140.559L232.069,143.662C234.63,144.425 236.614,145.579 238.023,147.121C239.431,148.666 240.151,150.658 240.185,153.102C240.185,156.205 238.744,158.86 235.859,161.066C232.977,163.27 229.39,164.372 225.099,164.372Z"/>
        <path d="M329.695,160.356C327.058,158.014 325.737,155.301 325.737,152.212L325.737,126.158L333.498,126.158L333.498,150.914C333.498,152.746 334.177,154.211 335.533,155.303C336.89,156.398 338.62,156.945 340.725,156.945C342.504,156.945 344.158,156.445 345.686,155.445C347.212,154.444 347.975,152.935 347.975,150.914L347.975,126.158L355.71,126.158L355.71,152.212C355.71,155.504 354.313,158.268 351.524,160.508C348.733,162.745 345.135,163.865 340.725,163.865C336.009,163.865 332.332,162.695 329.695,160.356Z"/>
        <path d="M374.027,164.372C371.025,164.372 368.09,163.732 365.225,162.451C362.357,161.171 360.171,159.377 358.66,157.07L363.775,152.314C364.843,153.872 366.357,155.119 368.316,156.053C370.275,156.986 372.179,157.452 374.027,157.452C375.877,157.452 377.402,157.061 378.606,156.281C379.811,155.502 380.413,154.475 380.413,153.203C380.413,152.372 380.059,151.631 379.347,150.978C378.632,150.325 377.515,149.769 375.986,149.311L367.234,146.665C364.997,145.97 363.198,144.893 361.84,143.432C360.483,141.974 359.805,139.973 359.805,137.429C359.805,134.325 361.195,131.671 363.978,129.465C366.759,127.261 370.11,126.158 374.027,126.158C376.963,126.158 379.587,126.638 381.903,127.595C384.217,128.555 386.199,130.033 387.843,132.034L382.27,136.666C381.406,135.479 380.308,134.578 378.976,133.968C377.645,133.358 376.071,133.053 374.256,133.053C372.765,133.053 371.437,133.447 370.275,134.237C369.113,135.025 368.532,136.056 368.532,137.327C368.515,138.141 368.718,138.82 369.142,139.363C369.567,139.906 370.212,140.303 371.076,140.559L380.999,143.662C383.559,144.425 385.544,145.579 386.953,147.121C388.36,148.666 389.081,150.658 389.115,153.102C389.115,156.205 387.674,158.86 384.789,161.066C381.907,163.27 378.319,164.372 374.027,164.372Z"/>
        <path d="M210.182,163.225L204.147,155.658L198.961,149.108C201.201,148.326 203.097,147.101 204.649,145.431C206.2,143.76 206.975,141.372 206.975,138.268C206.975,134.621 205.695,131.691 203.135,129.478C200.573,127.263 197.546,126.158 194.051,126.158L177.92,126.158L177.92,163.278L185.681,163.278L185.681,132.772L193.544,132.772C195.053,132.772 196.388,133.235 197.55,134.158C198.712,135.083 199.293,136.453 199.293,138.268C199.293,140.067 198.712,141.427 197.55,142.353C196.661,143.059 195.669,143.49 194.578,143.657C194.242,143.708 193.898,143.739 193.544,143.739L186.217,143.739L193.01,152.258L201.798,163.278L210.182,163.278L210.155,163.245L210.182,163.225Z"/>
        <path d="M324.985,163.225L318.951,155.658L313.765,149.108C316.005,148.326 317.9,147.101 319.453,145.431C321.004,143.76 321.779,141.372 321.779,138.268C321.779,134.621 320.499,131.691 317.938,129.478C315.377,127.263 312.35,126.158 308.854,126.158L292.724,126.158L292.724,163.278L300.484,163.278L300.484,132.772L308.348,132.772C309.855,132.772 311.191,133.235 312.353,134.158C313.516,135.083 314.097,136.453 314.097,138.268C314.097,140.067 313.516,141.427 312.353,142.353C311.465,143.059 310.473,143.49 309.382,143.657C309.046,143.708 308.702,143.739 308.348,143.739L301.02,143.739L307.813,152.258L316.601,163.278L324.985,163.278L324.959,163.245L324.985,163.225Z"/>
        <path d="M269.807,163.278L269.807,132.746L258.686,132.746L256.122,126.158L288.686,126.158L288.686,132.746L277.568,132.746L277.568,163.278L269.807,163.278Z"/>
        <path d="M401.421,163.278L401.421,132.746L390.303,132.746L390.303,126.158L422.866,126.158L420.303,132.746L409.183,132.746L409.183,163.278L401.421,163.278Z"/>
        <path d="M133.637,212C128.022,212 123.374,210.134 119.695,206.403C116.014,202.671 114.174,198.159 114.174,192.866C114.174,187.592 116.014,183.085 119.695,179.345C123.374,175.605 128.022,173.736 133.637,173.736C138.93,173.736 143.449,175.592 147.198,179.307L141.958,184.345C139.65,182.037 136.876,180.883 133.637,180.883C130.363,180.883 127.632,182.054 125.444,184.396C123.256,186.737 122.163,189.56 122.163,192.866C122.163,196.193 123.256,199.024 125.444,201.365C127.632,203.706 130.363,204.877 133.637,204.877C136.876,204.877 139.65,203.723 141.958,201.415L147.198,206.453C143.449,210.151 138.93,212 133.637,212Z"/>
        <path d="M201.577,191.316C203.086,191.316 204.422,190.853 205.584,189.929C206.746,189.004 207.327,187.643 207.327,185.845C207.327,184.03 206.746,182.66 205.584,181.735C204.422,180.812 203.086,180.349 201.577,180.349L193.715,180.349L193.715,191.316L201.577,191.316ZM193.715,210.855L185.928,210.855L185.928,173.736L202.059,173.736C205.554,173.736 208.586,174.84 211.155,177.055C213.725,179.267 215.01,182.197 215.01,185.845C215.01,189.373 213.759,192.269 211.257,194.533C208.755,196.799 205.689,197.931 202.059,197.931L193.715,197.931L193.715,210.855Z"/>
        <rect x="219.046" y="173.736" width="7.762" height="37.119"/>
        <path d="M241.963,210.855L241.963,180.323L230.844,180.323L230.844,173.736L263.408,173.736L260.845,180.323L249.724,180.323L249.724,210.855L241.963,210.855Z"/>
        <path d="M318.325,210.855L292.984,210.855L292.984,173.736L300.745,173.736L300.745,204.24L318.325,204.24L318.325,210.855Z"/>
        <path d="M169.633,196.375L165.817,185.055L162.026,196.375L169.633,196.375ZM171.733,202.445L159.927,202.445L156.956,211.101L147.89,211.101L163.179,173.736L168.506,173.736L183.796,211.101L174.704,211.101L171.733,202.445Z"/>
        <path d="M275.445,196.375L271.63,185.055L267.839,196.375L275.445,196.375ZM277.546,202.445L265.739,202.445L262.768,211.101L253.702,211.101L268.991,173.736L274.318,173.736L289.608,211.101L280.517,211.101L277.546,202.445Z"/>
        <path d="M337.551,210.855L336.512,210.855L336.512,206.246L334.659,208.858L334.072,208.858L332.22,206.246L332.22,210.855L331.181,210.855L331.181,204.258L332.012,204.258L334.361,207.593L336.711,204.258L337.551,204.258L337.551,210.855ZM328.045,210.855L326.997,210.855L326.997,205.198L324.892,205.198L324.892,204.258L330.159,204.258L330.159,205.198L328.045,205.198L328.045,210.855Z"/>
    </g>
</svg>
