<?xml version="1.0" encoding="UTF-8"?>
<svg xmlns="http://www.w3.org/2000/svg" xmlns:xlink="http://www.w3.org/1999/xlink" version="1.2" >
<font id="BR Hendrix Regular">
<font-face  font-family="BR Hendrix" units-per-em="1000" ascent="760" descent="-240" font-style="normal" font-weight="400" font-stretch="normal" cap-height="700" x-height="470" underline-position="-145" underline-thickness="50" />
<missing-glyph  horiz-adv-x="768" d="M96 0 L672 0 L672 700 L96 700 L96 0 Z M335 265 L335 296 C335 341 344 359 387 394 L419 420 C440 437 449 452 449 471 C449 502 426 518 390 518 C346 518 322 494 319 448 L243 448 C244 537 305 590 391 590 C472 590 527 543 527 474 C527 439 513 408 468 371 L439 347 C416 328 411 320 411 293 L411 265 L335 265 Z M373 105 C343 105 322 126 322 157 C322 188 343 209 373 209 C403 209 424 188 424 157 C424 126 403 105 373 105 L373 105 Z " />
<glyph glyph-name="CR" unicode="&#xd;" horiz-adv-x="240" d="" />
<glyph glyph-name="space" unicode="&#x20;" horiz-adv-x="240" d="" />
<glyph glyph-name="exclam" unicode="&#x21;" horiz-adv-x="278" d="M105 216 L173 216 L185 700 L93 700 L105 216 Z M139 -7 C175 -7 202 20 202 56 C202 92 175 119 139 119 C103 119 76 92 76 56 C76 20 103 -7 139 -7 L139 -7 Z " />
<glyph glyph-name="quotedbl" unicode="&#x22;" horiz-adv-x="358" d="M66 442 L126 442 L142 712 L50 712 L66 442 Z M232 442 L292 442 L308 712 L216 712 L232 442 Z " />
<glyph glyph-name="numbersign" unicode="&#x23;" horiz-adv-x="704" d="M654 427 L654 497 L547 497 L584 685 L504 685 L467 497 L295 497 L332 685 L252 685 L215 497 L92 497 L92 427 L201 427 L171 273 L50 273 L50 203 L157 203 L120 15 L200 15 L237 203 L409 203 L372 15 L452 15 L489 203 L612 203 L612 273 L503 273 L533 427 L654 427 Z M423 273 L251 273 L281 427 L453 427 L423 273 Z " />
<glyph glyph-name="dollar" unicode="&#x24;" horiz-adv-x="543" d="M501 219 C501 303 450 358 330 384 L302 390 L302 596 C363 588 397 552 401 491 L493 491 C486 601 410 665 302 675 L302 742 L246 742 L246 675 C129 665 52 590 52 491 C52 410 104 351 223 325 L242 321 L242 105 C177 116 135 157 130 229 L38 229 C42 112 125 37 242 26 L242 -42 L298 -42 L298 25 C419 34 501 111 501 219 L501 219 Z M141 494 C141 550 179 588 246 596 L246 403 C165 424 141 449 141 494 L141 494 Z M298 104 L298 308 C385 287 412 259 412 213 C412 155 369 112 298 104 L298 104 Z " />
<glyph glyph-name="percent" unicode="&#x25;" horiz-adv-x="871" d="M217 356 C317 356 394 435 394 534 C394 633 317 712 217 712 C117 712 40 633 40 534 C40 435 117 356 217 356 L217 356 Z M164 0 L253 0 L707 700 L618 700 L164 0 Z M217 425 C155 425 115 471 115 534 C115 597 155 643 217 643 C279 643 319 597 319 534 C319 471 279 425 217 425 L217 425 Z M654 -12 C754 -12 831 67 831 166 C831 265 754 344 654 344 C554 344 477 265 477 166 C477 67 554 -12 654 -12 L654 -12 Z M654 57 C592 57 552 102 552 166 C552 230 592 275 654 275 C716 275 756 230 756 166 C756 102 716 57 654 57 L654 57 Z " />
<glyph glyph-name="ampersand" unicode="&#x26;" horiz-adv-x="652" d="M632 0 L517 132 C548 184 571 251 579 335 L498 335 C493 280 480 233 461 195 L317 360 L354 381 C437 429 473 491 473 555 C473 647 395 712 291 712 C183 712 107 641 107 552 C107 499 133 452 196 380 L197 379 L189 375 C87 316 45 252 45 178 C45 68 139 -12 269 -12 C344 -12 414 15 468 73 L532 0 L632 0 Z M191 553 C191 601 232 638 291 638 C347 638 391 604 391 547 C391 507 369 474 317 444 L268 416 L249 437 C207 485 191 522 191 553 L191 553 Z M267 66 C187 66 133 110 133 181 C133 230 159 273 238 319 L246 323 L416 129 C375 86 323 66 267 66 L267 66 Z " />
<glyph glyph-name="quotesingle" unicode="&#x27;" horiz-adv-x="192" d="M66 442 L126 442 L142 712 L50 712 L66 442 Z " />
<glyph glyph-name="parenleft" unicode="&#x28;" horiz-adv-x="328" d="M228 -124 L294 -76 C220 14 160 168 160 315 C160 462 220 616 294 706 L228 754 C126 635 70 475 70 315 C70 155 126 -5 228 -124 L228 -124 Z " />
<glyph glyph-name="parenright" unicode="&#x29;" horiz-adv-x="328" d="M100 -124 C202 -5 258 155 258 315 C258 475 202 635 100 754 L34 706 C108 616 168 462 168 315 C168 168 108 14 34 -76 L100 -124 Z " />
<glyph glyph-name="asterisk" unicode="&#x2a;" horiz-adv-x="466" d="M198 712 L203 558 L57 610 L35 543 L182 500 L88 377 L146 336 L233 464 L320 336 L378 377 L284 500 L431 543 L409 610 L263 558 L268 712 L198 712 Z " />
<glyph glyph-name="plus" unicode="&#x2b;" horiz-adv-x="650" d="M545 356 L366 356 L366 547 L284 547 L284 356 L105 356 L105 278 L284 278 L284 87 L366 87 L366 278 L545 278 L545 356 Z " />
<glyph glyph-name="comma" unicode="&#x2c;" horiz-adv-x="264" d="M127 119 C89 119 62 92 62 58 C62 24 87 -3 123 -3 C128 -3 132 -3 137 -2 C137 -42 115 -90 68 -137 L101 -172 C169 -115 202 -43 202 23 C202 84 170 119 127 119 L127 119 Z " />
<glyph glyph-name="hyphen" unicode="&#x2d;" horiz-adv-x="414" d="M52 238 L362 238 L362 316 L52 316 L52 238 Z " />
<glyph glyph-name="period" unicode="&#x2e;" horiz-adv-x="250" d="M125 -7 C161 -7 188 20 188 56 C188 92 161 119 125 119 C89 119 62 92 62 56 C62 20 89 -7 125 -7 L125 -7 Z " />
<glyph glyph-name="slash" unicode="&#x2f;" horiz-adv-x="488" d="M15 -92 L103 -92 L473 742 L385 742 L15 -92 Z " />
<glyph glyph-name="zero" unicode="0" horiz-adv-x="646" d="M323 -12 C482 -12 570 87 570 249 L570 451 C570 613 482 712 323 712 C164 712 76 613 76 451 L76 249 C76 87 164 -12 323 -12 L323 -12 Z M323 68 C225 68 166 127 166 249 L166 451 C166 573 225 632 323 632 C421 632 480 573 480 451 L480 249 C480 127 421 68 323 68 L323 68 Z " />
<glyph glyph-name="one" unicode="1" horiz-adv-x="412" d="M237 700 C221 638 194 620 110 620 L80 620 L80 548 L217 548 L217 0 L307 0 L307 700 L237 700 Z " />
<glyph glyph-name="two" unicode="2" horiz-adv-x="573" d="M154 80 C162 144 201 188 323 263 C469 353 513 418 513 508 C513 635 424 712 298 712 C161 712 65 623 62 469 L152 469 C156 580 210 633 296 633 C377 633 423 587 423 512 C423 451 393 400 263 319 C105 221 61 151 61 42 L61 0 L517 0 L517 80 L154 80 Z " />
<glyph glyph-name="three" unicode="3" horiz-adv-x="594" d="M292 -12 C436 -12 532 77 532 195 C532 273 490 331 416 360 L416 363 C480 397 511 451 511 519 C511 633 425 712 296 712 C166 712 74 632 69 499 L159 499 C165 591 214 632 294 632 C377 632 422 588 422 516 C422 446 380 399 289 399 L228 399 L228 322 L289 322 C386 322 442 276 442 199 C442 122 386 68 296 68 C213 68 156 114 152 200 L62 200 C65 65 157 -12 292 -12 L292 -12 Z " />
<glyph glyph-name="four" unicode="4" horiz-adv-x="588" d="M562 212 L465 212 L465 700 L358 700 L40 208 L40 136 L380 136 L380 0 L465 0 L465 136 L562 136 L562 212 Z M132 212 L380 596 L380 212 L132 212 Z " />
<glyph glyph-name="five" unicode="5" horiz-adv-x="591" d="M320 455 C269 455 220 440 179 409 L203 620 L496 620 L496 700 L126 700 L84 309 L162 309 C196 355 249 379 307 379 C396 379 453 323 453 228 C453 131 393 68 300 68 C223 68 168 113 158 198 L68 198 C75 65 170 -12 297 -12 C442 -12 543 86 543 226 C543 363 446 455 320 455 L320 455 Z " />
<glyph glyph-name="six" unicode="6" horiz-adv-x="587" d="M307 464 C283 464 260 460 239 453 L407 700 L305 700 L135 446 C73 354 48 289 48 223 C48 90 155 -12 293 -12 C435 -12 542 96 542 229 C542 363 436 464 307 464 L307 464 Z M295 68 C206 68 138 134 138 228 C138 322 206 388 295 388 C384 388 452 322 452 228 C452 134 384 68 295 68 L295 68 Z " />
<glyph glyph-name="seven" unicode="7" horiz-adv-x="522" d="M42 700 L42 620 L387 620 L105 0 L201 0 L484 628 L484 700 L42 700 Z " />
<glyph glyph-name="eight" unicode="8" horiz-adv-x="602" d="M301 -12 C444 -12 540 69 540 186 C540 266 494 332 422 362 L422 364 C493 395 526 454 526 521 C526 632 435 712 301 712 C167 712 76 632 76 521 C76 454 109 395 180 364 L180 362 C108 332 62 266 62 186 C62 69 158 -12 301 -12 L301 -12 Z M301 400 C214 400 164 446 164 517 C164 587 212 634 301 634 C390 634 438 587 438 517 C438 446 388 400 301 400 L301 400 Z M301 66 C210 66 151 115 151 192 C151 269 211 323 301 323 C391 323 451 269 451 192 C451 115 392 66 301 66 L301 66 Z " />
<glyph glyph-name="nine" unicode="9" horiz-adv-x="587" d="M294 712 C152 712 45 604 45 471 C45 337 151 236 280 236 C304 236 327 240 348 247 L180 0 L282 0 L452 254 C514 346 539 411 539 477 C539 610 432 712 294 712 L294 712 Z M292 312 C203 312 135 378 135 472 C135 566 203 632 292 632 C381 632 449 566 449 472 C449 378 381 312 292 312 L292 312 Z " />
<glyph glyph-name="colon" unicode="&#x3a;" horiz-adv-x="260" d="M135 344 C171 344 198 371 198 407 C198 443 171 470 135 470 C99 470 72 443 72 407 C72 371 99 344 135 344 L135 344 Z M135 -7 C171 -7 198 20 198 56 C198 92 171 119 135 119 C99 119 72 92 72 56 C72 20 99 -7 135 -7 L135 -7 Z " />
<glyph glyph-name="semicolon" unicode="&#x3b;" horiz-adv-x="274" d="M135 344 C171 344 198 371 198 407 C198 443 171 470 135 470 C99 470 72 443 72 407 C72 371 99 344 135 344 L135 344 Z M137 119 C99 119 72 92 72 58 C72 24 97 -3 133 -3 C138 -3 142 -3 147 -2 C147 -42 125 -90 78 -137 L111 -172 C179 -115 212 -43 212 23 C212 84 180 119 137 119 L137 119 Z " />
<glyph glyph-name="less" unicode="&#x3c;" horiz-adv-x="650" d="M545 533 L105 359 L105 275 L545 101 L545 187 L207 317 L545 447 L545 533 Z " />
<glyph glyph-name="equal" unicode="&#x3d;" horiz-adv-x="650" d="M105 378 L545 378 L545 457 L105 457 L105 378 Z M105 177 L545 177 L545 256 L105 256 L105 177 Z " />
<glyph glyph-name="greater" unicode="&#x3e;" horiz-adv-x="650" d="M105 533 L105 447 L443 317 L105 187 L105 101 L545 275 L545 359 L105 533 Z " />
<glyph glyph-name="question" unicode="&#x3f;" horiz-adv-x="481" d="M177 216 L265 216 L265 262 C265 306 270 320 306 350 L355 391 C422 447 445 495 445 547 C445 644 366 712 255 712 C138 712 50 637 46 510 L135 510 C136 589 184 634 256 634 C320 634 357 598 357 544 C357 513 345 489 304 454 L255 413 C192 360 177 328 177 262 L177 216 Z M221 -7 C257 -7 284 20 284 56 C284 92 257 119 221 119 C185 119 158 92 158 56 C158 20 185 -7 221 -7 L221 -7 Z " />
<glyph glyph-name="at" unicode="&#x40;" horiz-adv-x="945" d="M494 -193 C566 -193 634 -179 693 -153 L693 -76 C641 -103 570 -120 496 -120 C283 -120 136 21 136 229 C136 435 282 583 488 583 C674 583 820 463 820 259 C820 150 781 88 721 88 C681 88 660 116 660 172 L660 420 L593 420 L587 361 L584 361 C561 409 513 434 458 434 C355 434 277 350 277 228 C277 106 355 22 458 22 C520 22 575 52 599 112 L602 112 C618 52 665 22 720 22 C819 22 897 119 897 268 C897 499 709 657 486 657 C248 657 54 478 54 227 C54 -20 239 -193 494 -193 L494 -193 Z M473 95 C408 95 359 144 359 228 C359 312 408 361 473 361 C538 361 587 312 587 228 C587 144 538 95 473 95 L473 95 Z " />
<glyph glyph-name="A" unicode="A" horiz-adv-x="647" d="M538 0 L631 0 L373 700 L274 700 L16 0 L109 0 L172 175 L475 175 L538 0 Z M200 255 L322 594 L325 594 L447 255 L200 255 Z " />
<glyph glyph-name="B" unicode="B" horiz-adv-x="646" d="M472 357 L472 360 C533 389 564 441 564 509 C564 623 477 700 333 700 L96 700 L96 0 L360 0 C510 0 590 72 590 193 C590 282 548 334 472 357 L472 357 Z M472 504 C472 429 425 390 333 390 L188 390 L188 620 L333 620 C425 620 472 579 472 504 L472 504 Z M356 80 L188 80 L188 312 L356 312 C453 312 496 273 496 196 C496 119 453 80 356 80 L356 80 Z " />
<glyph glyph-name="C" unicode="C" horiz-adv-x="761" d="M395 -12 C564 -12 696 95 713 254 L622 254 C601 139 514 72 399 72 C256 72 147 178 147 350 C147 522 256 628 399 628 C511 628 595 565 617 446 L711 446 C693 605 562 712 396 712 C202 712 53 564 53 350 C53 136 201 -12 395 -12 L395 -12 Z " />
<glyph glyph-name="D" unicode="D" horiz-adv-x="694" d="M268 700 L96 700 L96 0 L268 0 C490 0 640 135 640 350 C640 565 490 700 268 700 L268 700 Z M272 84 L188 84 L188 616 L272 616 C436 616 546 522 546 350 C546 178 436 84 272 84 L272 84 Z " />
<glyph glyph-name="E" unicode="E" horiz-adv-x="588" d="M522 616 L522 700 L96 700 L96 0 L522 0 L522 84 L188 84 L188 310 L494 310 L494 394 L188 394 L188 616 L522 616 Z " />
<glyph glyph-name="F" unicode="F" horiz-adv-x="578" d="M522 616 L522 700 L96 700 L96 0 L188 0 L188 292 L502 292 L502 376 L188 376 L188 616 L522 616 Z " />
<glyph glyph-name="G" unicode="G" horiz-adv-x="781" d="M410 280 L627 280 C612 149 520 71 398 71 C254 71 147 178 147 350 C147 522 254 629 403 629 C515 629 596 569 615 470 L711 470 C685 620 561 712 401 712 C200 712 53 564 53 349 C53 134 199 -12 389 -12 C490 -12 578 30 624 104 L627 104 L638 0 L711 0 L711 362 L410 362 L410 280 Z " />
<glyph glyph-name="H" unicode="H" horiz-adv-x="710" d="M522 700 L522 382 L188 382 L188 700 L96 700 L96 0 L188 0 L188 298 L522 298 L522 0 L614 0 L614 700 L522 700 Z " />
<glyph glyph-name="I" unicode="I" horiz-adv-x="284" d="M96 0 L188 0 L188 700 L96 700 L96 0 Z " />
<glyph glyph-name="J" unicode="J" horiz-adv-x="604" d="M130 700 L130 616 L426 616 L426 245 C426 125 374 72 280 72 C186 72 134 123 134 245 L134 316 L42 316 L42 239 C42 71 130 -12 280 -12 C430 -12 518 71 518 239 L518 700 L130 700 Z " />
<glyph glyph-name="K" unicode="K" horiz-adv-x="629" d="M282 352 L609 700 L495 700 L191 375 L188 375 L188 700 L96 700 L96 0 L188 0 L188 319 L191 319 L495 0 L617 0 L282 352 Z " />
<glyph glyph-name="L" unicode="L" horiz-adv-x="540" d="M188 84 L188 700 L96 700 L96 0 L508 0 L508 84 L188 84 Z " />
<glyph glyph-name="M" unicode="M" horiz-adv-x="917" d="M721 700 L460 123 L457 123 L196 700 L96 700 L96 0 L186 0 L186 509 L189 509 L423 0 L494 0 L728 509 L731 509 L731 0 L821 0 L821 700 L721 700 Z " />
<glyph glyph-name="N" unicode="N" horiz-adv-x="747" d="M559 700 L559 149 L556 149 L193 700 L96 700 L96 0 L188 0 L188 551 L191 551 L554 0 L651 0 L651 700 L559 700 Z " />
<glyph glyph-name="O" unicode="O" horiz-adv-x="796" d="M398 -12 C596 -12 743 138 743 350 C743 562 596 712 398 712 C200 712 53 562 53 350 C53 138 200 -12 398 -12 L398 -12 Z M398 72 C253 72 147 180 147 350 C147 520 253 628 398 628 C543 628 649 520 649 350 C649 180 543 72 398 72 L398 72 Z " />
<glyph glyph-name="P" unicode="P" horiz-adv-x="631" d="M321 700 L96 700 L96 0 L188 0 L188 232 L321 232 C483 232 586 322 586 466 C586 610 483 700 321 700 L321 700 Z M319 316 L188 316 L188 616 L319 616 C433 616 492 564 492 466 C492 368 433 316 319 316 L319 316 Z " />
<glyph glyph-name="Q" unicode="Q" horiz-adv-x="796" d="M743 350 C743 562 596 712 398 712 C200 712 53 562 53 350 C53 138 200 -12 398 -12 C460 -12 517 3 566 29 L653 -75 L718 -21 L634 79 C702 143 743 238 743 350 L743 350 Z M398 72 C253 72 147 180 147 350 C147 520 253 628 398 628 C543 628 649 520 649 350 C649 265 622 195 577 147 L440 310 L375 256 L509 96 C476 80 439 72 398 72 L398 72 Z " />
<glyph glyph-name="R" unicode="R" horiz-adv-x="649" d="M482 0 L595 0 L405 253 C518 280 586 360 586 472 C586 610 483 700 319 700 L96 700 L96 0 L188 0 L188 244 L301 244 L482 0 Z M188 616 L319 616 C432 616 492 564 492 472 C492 380 432 328 319 328 L188 328 L188 616 Z " />
<glyph glyph-name="S" unicode="S" horiz-adv-x="596" d="M303 -12 C449 -12 552 76 552 203 C552 296 497 356 362 386 L298 400 C184 425 149 456 149 512 C149 582 205 629 295 629 C378 629 435 589 448 500 L542 500 C530 633 435 712 297 712 C156 712 56 627 56 508 C56 415 116 352 245 324 L309 310 C424 285 459 250 459 195 C459 123 399 71 306 71 C215 71 149 121 140 220 L46 220 C50 77 157 -12 303 -12 L303 -12 Z " />
<glyph glyph-name="T" unicode="T" horiz-adv-x="564" d="M542 700 L22 700 L22 616 L236 616 L236 0 L328 0 L328 616 L542 616 L542 700 Z " />
<glyph glyph-name="U" unicode="U" horiz-adv-x="706" d="M353 -12 C516 -12 620 98 620 274 L620 700 L528 700 L528 270 C528 142 460 72 353 72 C246 72 178 142 178 270 L178 700 L86 700 L86 274 C86 98 190 -12 353 -12 L353 -12 Z " />
<glyph glyph-name="V" unicode="V" horiz-adv-x="639" d="M266 0 L373 0 L623 700 L529 700 L321 107 L318 107 L110 700 L16 700 L266 0 Z " />
<glyph glyph-name="W" unicode="W" horiz-adv-x="1001" d="M238 0 L330 0 L499 566 L502 566 L671 0 L763 0 L980 700 L887 700 L716 141 L713 141 L545 700 L456 700 L288 141 L285 141 L114 700 L21 700 L238 0 Z " />
<glyph glyph-name="X" unicode="X" horiz-adv-x="596" d="M578 0 L353 365 L568 700 L466 700 L298 433 L130 700 L28 700 L243 365 L18 0 L118 0 L298 296 L478 0 L578 0 Z " />
<glyph glyph-name="Y" unicode="Y" horiz-adv-x="624" d="M266 0 L358 0 L358 275 L616 700 L512 700 L313 361 L311 361 L112 700 L8 700 L266 275 L266 0 Z " />
<glyph glyph-name="Z" unicode="Z" horiz-adv-x="574" d="M161 84 L516 630 L516 700 L58 700 L58 616 L405 616 L50 70 L50 0 L524 0 L524 84 L161 84 Z " />
<glyph glyph-name="bracketleft" unicode="&#x5b;" horiz-adv-x="363" d="M328 664 L328 742 L96 742 L96 -114 L328 -114 L328 -36 L184 -36 L184 664 L328 664 Z " />
<glyph glyph-name="backslash" unicode="&#x5c;" horiz-adv-x="488" d="M473 -92 L103 742 L15 742 L385 -92 L473 -92 Z " />
<glyph glyph-name="bracketright" unicode="&#x5d;" horiz-adv-x="363" d="M35 742 L35 664 L179 664 L179 -36 L35 -36 L35 -114 L267 -114 L267 742 L35 742 Z " />
<glyph glyph-name="asciicircum" unicode="&#x5e;" horiz-adv-x="579" d="M549 349 L331 676 L248 676 L30 349 L130 349 L290 597 L449 349 L549 349 Z " />
<glyph glyph-name="underscore" unicode="&#x5f;" horiz-adv-x="410" d="M10 -131 L400 -131 L400 -55 L10 -55 L10 -131 Z " />
<glyph glyph-name="grave" unicode="&#x60;" horiz-adv-x="600" d="M290 544 L367 544 L300 684 L191 684 L290 544 Z " />
<glyph glyph-name="a" unicode="a" horiz-adv-x="542" d="M274 482 C154 482 79 420 72 319 L162 319 C166 375 202 407 271 407 C345 407 381 371 381 299 L381 289 L221 267 C113 252 56 200 56 123 C56 44 118 -12 214 -12 C286 -12 350 20 380 64 L383 64 L389 0 L468 0 L468 299 C468 415 398 482 274 482 L274 482 Z M233 61 C177 61 146 86 146 126 C146 166 175 194 250 204 L381 222 L381 202 C381 121 320 61 233 61 L233 61 Z " />
<glyph glyph-name="b" unicode="b" horiz-adv-x="599" d="M325 482 C260 482 197 454 169 408 L166 408 L166 700 L78 700 L78 0 L157 0 L163 63 L166 63 C193 19 255 -12 325 -12 C453 -12 550 90 550 235 C550 380 452 482 325 482 L325 482 Z M311 64 C220 64 162 129 162 235 C162 341 220 406 311 406 C400 406 460 341 460 235 C460 129 400 64 311 64 L311 64 Z " />
<glyph glyph-name="c" unicode="c" horiz-adv-x="548" d="M289 -12 C408 -12 499 57 512 172 L425 172 C416 106 359 64 290 64 C204 64 139 129 139 235 C139 341 204 406 291 406 C360 406 410 364 419 298 L509 298 C496 414 410 482 292 482 C150 482 49 380 49 235 C49 90 147 -12 289 -12 L289 -12 Z " />
<glyph glyph-name="d" unicode="d" horiz-adv-x="599" d="M433 700 L433 408 L430 408 C402 454 339 482 274 482 C147 482 49 380 49 235 C49 90 146 -12 274 -12 C344 -12 406 19 433 63 L436 63 L442 0 L521 0 L521 700 L433 700 Z M288 64 C199 64 139 129 139 235 C139 341 199 406 288 406 C379 406 437 341 437 235 C437 129 379 64 288 64 L288 64 Z " />
<glyph glyph-name="e" unicode="e" horiz-adv-x="559" d="M513 252 C513 391 420 482 290 482 C152 482 48 380 48 232 C48 87 148 -12 289 -12 C395 -12 481 45 506 138 L423 138 C399 90 351 64 292 64 C208 64 145 115 138 214 L510 214 C512 227 513 238 513 252 L513 252 Z M290 409 C362 409 413 368 424 283 L142 283 C158 364 215 409 290 409 L290 409 Z " />
<glyph glyph-name="f" unicode="f" horiz-adv-x="346" d="M287 636 C304 636 317 634 326 632 L326 705 C311 709 290 712 268 712 C166 712 106 649 106 529 L106 470 L18 470 L18 395 L106 395 L106 0 L194 0 L194 395 L322 395 L322 470 L194 470 L194 531 C194 608 224 636 287 636 L287 636 Z " />
<glyph glyph-name="g" unicode="g" horiz-adv-x="501" d="M489 482 L254 482 C141 482 66 410 66 310 C66 261 84 219 115 189 C73 174 44 139 44 93 C44 57 61 29 91 11 C48 -10 24 -47 24 -95 C24 -181 99 -236 249 -236 C413 -236 489 -173 489 -73 C489 15 433 65 334 65 L182 65 C145 65 124 80 124 106 C124 130 142 149 169 154 C194 144 222 138 254 138 C367 138 442 210 442 310 C442 354 428 392 402 421 L489 428 L489 482 Z M254 208 C188 208 148 249 148 310 C148 372 188 413 254 413 C320 413 360 372 360 310 C360 249 320 208 254 208 L254 208 Z M405 -75 C405 -129 362 -161 255 -161 C151 -161 108 -131 108 -82 C108 -41 138 -12 184 -12 L316 -12 C381 -12 405 -35 405 -75 L405 -75 Z " />
<glyph glyph-name="h" unicode="h" horiz-adv-x="563" d="M319 482 C252 482 200 454 169 407 L166 407 L166 700 L78 700 L78 0 L166 0 L166 256 C166 355 217 404 295 404 C363 404 401 367 401 263 L401 0 L489 0 L489 297 C489 415 422 482 319 482 L319 482 Z " />
<glyph glyph-name="i" unicode="i" horiz-adv-x="244" d="M122 554 C155 554 182 580 182 614 C182 648 155 674 122 674 C89 674 62 648 62 614 C62 580 89 554 122 554 L122 554 Z M78 0 L166 0 L166 470 L78 470 L78 0 Z " />
<glyph glyph-name="j" unicode="j" horiz-adv-x="244" d="M122 554 C155 554 182 580 182 614 C182 648 155 674 122 674 C89 674 62 648 62 614 C62 580 89 554 122 554 L122 554 Z M31 -236 C123 -236 166 -192 166 -84 L166 470 L78 470 L78 -84 C78 -142 59 -160 12 -160 C1 -160 -10 -159 -18 -158 L-18 -231 C-5 -234 11 -236 31 -236 L31 -236 Z " />
<glyph glyph-name="k" unicode="k" horiz-adv-x="506" d="M496 0 L259 248 L490 470 L377 470 L168 269 L166 269 L166 700 L78 700 L78 0 L166 0 L166 223 L169 223 L381 0 L496 0 Z " />
<glyph glyph-name="l" unicode="l" horiz-adv-x="244" d="M78 0 L166 0 L166 700 L78 700 L78 0 Z " />
<glyph glyph-name="m" unicode="m" horiz-adv-x="858" d="M620 482 C549 482 488 446 457 394 L454 394 C428 452 376 482 313 482 C253 482 196 454 166 407 L163 407 L157 470 L78 470 L78 0 L166 0 L166 258 C166 353 217 404 289 404 C352 404 387 365 387 267 L387 0 L475 0 L475 258 C475 352 525 404 597 404 C660 404 696 364 696 267 L696 0 L784 0 L784 297 C784 415 717 482 620 482 L620 482 Z " />
<glyph glyph-name="n" unicode="n" horiz-adv-x="563" d="M319 482 C252 482 196 454 166 407 L163 407 L157 470 L78 470 L78 0 L166 0 L166 256 C166 355 217 404 295 404 C363 404 401 367 401 263 L401 0 L489 0 L489 297 C489 415 422 482 319 482 L319 482 Z " />
<glyph glyph-name="o" unicode="o" horiz-adv-x="580" d="M290 -12 C429 -12 532 90 532 235 C532 380 429 482 290 482 C151 482 48 380 48 235 C48 90 151 -12 290 -12 L290 -12 Z M290 64 C202 64 138 132 138 235 C138 338 202 406 290 406 C378 406 442 338 442 235 C442 132 378 64 290 64 L290 64 Z " />
<glyph glyph-name="p" unicode="p" horiz-adv-x="599" d="M325 482 C255 482 193 451 166 407 L163 407 L157 470 L78 470 L78 -224 L166 -224 L166 62 L169 62 C197 16 260 -12 325 -12 C452 -12 550 90 550 235 C550 380 453 482 325 482 L325 482 Z M311 64 C224 64 162 129 162 235 C162 341 224 406 311 406 C398 406 460 341 460 235 C460 129 398 64 311 64 L311 64 Z " />
<glyph glyph-name="q" unicode="q" horiz-adv-x="599" d="M442 470 L436 407 L433 407 C406 451 344 482 274 482 C146 482 49 380 49 235 C49 90 147 -12 274 -12 C339 -12 402 16 430 62 L433 62 L433 -224 L521 -224 L521 470 L442 470 Z M288 64 C201 64 139 129 139 235 C139 341 201 406 288 406 C375 406 437 341 437 235 C437 129 375 64 288 64 L288 64 Z " />
<glyph glyph-name="r" unicode="r" horiz-adv-x="367" d="M296 479 C238 479 188 448 166 398 L163 398 L156 470 L78 470 L78 0 L166 0 L166 246 C166 349 215 398 302 398 C315 398 329 397 343 395 L343 471 C330 476 314 479 296 479 L296 479 Z " />
<glyph glyph-name="s" unicode="s" horiz-adv-x="462" d="M237 -12 C354 -12 423 50 423 138 C423 210 380 252 285 270 L228 281 C151 296 134 314 134 343 C134 384 169 411 229 411 C288 411 322 385 327 341 L415 341 C407 431 340 482 234 482 C119 482 49 421 49 338 C49 270 93 228 186 210 L243 199 C314 185 338 164 338 131 C338 89 299 59 238 59 C178 59 137 88 130 142 L42 142 C49 47 123 -12 237 -12 L237 -12 Z " />
<glyph glyph-name="t" unicode="t" horiz-adv-x="361" d="M282 63 C216 63 190 85 190 164 L190 395 L323 395 L323 470 L190 470 L190 589 L102 589 L102 470 L16 470 L16 395 L102 395 L102 164 C102 37 155 -12 264 -12 C291 -12 312 -9 327 -5 L327 67 C312 64 296 63 282 63 L282 63 Z " />
<glyph glyph-name="u" unicode="u" horiz-adv-x="557" d="M391 470 L391 214 C391 115 340 66 265 66 C200 66 162 103 162 207 L162 470 L74 470 L74 173 C74 54 144 -12 241 -12 C304 -12 361 16 391 63 L394 63 L400 0 L479 0 L479 470 L391 470 Z " />
<glyph glyph-name="v" unicode="v" horiz-adv-x="497" d="M204 0 L293 0 L485 470 L393 470 L250 105 L247 105 L104 470 L12 470 L204 0 Z " />
<glyph glyph-name="w" unicode="w" horiz-adv-x="788" d="M179 0 L269 0 L393 355 L395 355 L519 0 L609 0 L766 470 L675 470 L562 113 L559 113 L434 470 L354 470 L229 113 L226 113 L113 470 L22 470 L179 0 Z " />
<glyph glyph-name="x" unicode="x" horiz-adv-x="489" d="M471 0 L296 243 L461 470 L364 470 L245 305 L125 470 L28 470 L193 243 L18 0 L116 0 L245 180 L373 0 L471 0 Z " />
<glyph glyph-name="y" unicode="y" horiz-adv-x="499" d="M396 470 L251 105 L248 105 L105 470 L12 470 L205 0 L113 -224 L202 -224 L487 470 L396 470 Z " />
<glyph glyph-name="z" unicode="z" horiz-adv-x="446" d="M149 76 L402 412 L402 470 L42 470 L42 395 L292 395 L38 58 L38 0 L408 0 L408 76 L149 76 Z " />
<glyph glyph-name="braceleft" unicode="&#x7b;" horiz-adv-x="371" d="M254 -114 L336 -114 L336 -36 L260 -36 C222 -36 202 -19 202 21 L202 210 C202 262 179 297 135 312 L135 316 C179 331 202 366 202 418 L202 607 C202 647 222 664 260 664 L336 664 L336 742 L254 742 C156 742 114 703 114 615 L114 411 C114 371 96 353 50 353 L38 353 L38 275 L50 275 C96 275 114 257 114 217 L114 13 C114 -75 156 -114 254 -114 L254 -114 Z " />
<glyph glyph-name="bar" unicode="&#x7c;" horiz-adv-x="316" d="M116 -100 L200 -100 L200 765 L116 765 L116 -100 Z " />
<glyph glyph-name="braceright" unicode="&#x7d;" horiz-adv-x="371" d="M117 -114 C215 -114 257 -75 257 13 L257 217 C257 257 275 275 321 275 L333 275 L333 353 L321 353 C275 353 257 371 257 411 L257 615 C257 703 215 742 117 742 L35 742 L35 664 L111 664 C149 664 169 647 169 607 L169 418 C169 366 192 331 236 316 L236 312 C192 297 169 262 169 210 L169 21 C169 -19 149 -36 111 -36 L35 -36 L35 -114 L117 -114 Z " />
<glyph glyph-name="asciitilde" unicode="&#x7e;" horiz-adv-x="650" d="M430 257 C471 257 507 270 545 297 L545 375 C516 351 471 334 429 334 C362 334 293 376 223 376 C184 376 143 364 105 336 L105 258 C149 288 183 299 221 299 C294 299 357 257 430 257 L430 257 Z " />
<glyph glyph-name="uni00A0" unicode="&#xa0;" horiz-adv-x="240" d="" />
<glyph glyph-name="exclamdown" unicode="&#xa1;" horiz-adv-x="278" d="M139 482 C103 482 76 455 76 419 C76 383 103 356 139 356 C175 356 202 383 202 419 C202 455 175 482 139 482 L139 482 Z M105 259 L93 -225 L185 -225 L173 259 L105 259 Z " />
<glyph glyph-name="cent" unicode="&#xa2;" horiz-adv-x="562" d="M520 287 L437 287 C429 226 382 186 317 178 L317 522 C381 514 423 474 431 413 L517 413 C505 520 428 589 317 596 L317 700 L259 700 L259 595 C137 578 53 482 53 350 C53 217 136 120 259 105 L259 0 L317 0 L317 104 C428 113 508 181 520 287 L520 287 Z M140 350 C140 443 188 504 259 519 L259 181 C188 196 140 257 140 350 L140 350 Z " />
<glyph glyph-name="sterling" unicode="&#xa3;" horiz-adv-x="539" d="M189 78 C235 114 261 165 261 226 C261 248 257 269 252 290 L416 290 L416 360 L226 360 C200 416 171 468 171 521 C171 589 219 639 296 639 C371 639 413 592 415 499 L502 499 C502 636 420 712 296 712 C168 712 84 630 84 523 C84 461 112 410 137 360 L50 360 L50 290 L167 290 C172 271 176 251 176 230 C176 160 136 106 46 61 L46 0 L503 0 L503 78 L189 78 Z " />
<glyph glyph-name="currency" unicode="&#xa4;" horiz-adv-x="548" d="M466 350 C466 391 455 429 434 461 L508 536 L460 584 L386 511 C356 532 318 544 274 544 C230 544 193 532 162 511 L89 584 L40 536 L115 461 C94 430 83 391 83 350 C83 309 94 270 115 239 L40 164 L89 116 L162 189 C193 168 230 156 274 156 C318 156 356 168 386 189 L460 116 L508 164 L434 239 C455 271 466 309 466 350 L466 350 Z M274 231 C206 231 161 279 161 350 C161 421 206 469 274 469 C342 469 388 421 388 350 C388 279 342 231 274 231 L274 231 Z " />
<glyph glyph-name="yen" unicode="&#xa5;" horiz-adv-x="562" d="M544 700 L449 700 L281 374 L113 700 L18 700 L208 345 L58 345 L58 283 L238 283 L238 195 L58 195 L58 133 L238 133 L238 0 L324 0 L324 133 L504 133 L504 195 L324 195 L324 283 L504 283 L504 345 L354 345 L544 700 Z " />
<glyph glyph-name="brokenbar" unicode="&#xa6;" horiz-adv-x="316" d="M116 407 L200 407 L200 765 L116 765 L116 407 Z M116 -100 L200 -100 L200 250 L116 250 L116 -100 Z " />
<glyph glyph-name="section" unicode="&#xa7;" horiz-adv-x="543" d="M390 165 C445 187 478 242 478 304 C478 393 417 435 322 456 L268 468 C180 488 156 511 156 549 C156 598 195 632 262 632 C327 632 367 600 372 537 L464 537 C457 647 379 712 265 712 C147 712 65 641 65 546 C65 489 94 444 153 416 C98 394 65 339 65 277 C65 188 126 146 221 125 L275 113 C363 93 387 68 387 32 C387 -15 346 -51 276 -51 C207 -51 163 -16 160 54 L68 54 C72 -66 155 -131 274 -131 C397 -131 478 -60 478 35 C478 92 449 137 390 165 L390 165 Z M288 194 L253 202 C179 219 155 241 155 288 C155 353 208 398 255 387 L290 379 C364 362 388 340 388 293 C388 228 335 183 288 194 L288 194 Z " />
<glyph glyph-name="dieresis" unicode="&#xa8;" horiz-adv-x="600" d="M200 554 C233 554 260 580 260 614 C260 648 233 674 200 674 C167 674 140 648 140 614 C140 580 167 554 200 554 L200 554 Z M400 554 C433 554 460 580 460 614 C460 648 433 674 400 674 C367 674 340 648 340 614 C340 580 367 554 400 554 L400 554 Z " />
<glyph glyph-name="copyright" unicode="&#xa9;" horiz-adv-x="836" d="M418 -12 C622 -12 783 148 783 350 C783 552 622 712 418 712 C214 712 53 552 53 350 C53 148 214 -12 418 -12 L418 -12 Z M418 56 C251 56 127 187 127 350 C127 513 251 644 418 644 C585 644 709 513 709 350 C709 187 585 56 418 56 L418 56 Z M427 150 C523 150 595 207 604 305 L523 305 C518 256 482 224 426 224 C364 224 316 272 316 350 C316 428 364 476 426 476 C478 476 514 444 519 395 L602 395 C595 493 523 550 427 550 C313 550 231 468 231 350 C231 232 313 150 427 150 L427 150 Z " />
<glyph glyph-name="ordfeminine" unicode="&#xaa;" horiz-adv-x="497" d="M363 702 L358 648 L355 648 C333 686 281 712 223 712 C117 712 34 626 34 500 C34 375 117 289 223 289 C281 289 332 314 355 353 L358 353 L363 299 L441 299 L441 702 L363 702 Z M241 364 C171 364 122 416 122 500 C122 585 172 636 241 636 C310 636 360 585 360 500 C360 416 311 364 241 364 L241 364 Z " />
<glyph glyph-name="guillemotleft" unicode="&#xab;" horiz-adv-x="560" d="M295 500 L195 500 L45 286 L195 72 L295 72 L146 286 L295 500 Z M510 500 L410 500 L260 286 L410 72 L510 72 L361 286 L510 500 Z " />
<glyph glyph-name="logicalnot" unicode="&#xac;" horiz-adv-x="650" d="M105 356 L105 278 L463 278 L463 173 L545 173 L545 356 L105 356 Z " />
<glyph glyph-name="registered" unicode="&#xae;" horiz-adv-x="473" d="M237 712 C125 712 35 623 35 511 C35 400 125 310 237 310 C349 310 438 400 438 511 C438 622 349 712 237 712 L237 712 Z M237 350 C147 350 79 422 79 511 C79 600 147 672 237 672 C326 672 394 600 394 511 C394 422 326 350 237 350 L237 350 Z M326 550 C326 595 298 621 253 621 L157 621 L157 408 L205 408 L205 481 L226 481 L275 408 L333 408 L277 484 C308 491 326 512 326 550 L326 550 Z M205 572 L250 572 C266 572 275 564 275 549 C275 533 265 526 250 526 L205 526 L205 572 Z " />
<glyph glyph-name="macron" unicode="&#xaf;" horiz-adv-x="600" d="M169 575 L431 575 L431 643 L169 643 L169 575 Z " />
<glyph glyph-name="degree" unicode="&#xb0;" horiz-adv-x="376" d="M188 420 C274 420 336 484 336 566 C336 648 274 712 188 712 C102 712 40 648 40 566 C40 484 102 420 188 420 L188 420 Z M188 488 C141 488 112 521 112 566 C112 611 141 644 188 644 C235 644 264 611 264 566 C264 521 235 488 188 488 L188 488 Z " />
<glyph glyph-name="plusminus" unicode="&#xb1;" horiz-adv-x="650" d="M105 337 L284 337 L284 158 L367 158 L367 337 L545 337 L545 415 L367 415 L367 595 L284 595 L284 415 L105 415 L105 337 Z M105 0 L545 0 L545 78 L105 78 L105 0 Z " />
<glyph glyph-name="uni00B2" unicode="&#xb2;" horiz-adv-x="370" d="M215 433 C304 487 332 529 332 584 C332 661 278 712 192 712 C101 712 39 655 37 560 L116 560 C118 616 148 642 191 642 C231 642 254 620 254 583 C254 551 237 529 162 482 C64 421 42 386 42 311 L42 271 L331 271 L331 342 L124 342 C131 370 153 396 215 433 L215 433 Z " />
<glyph glyph-name="uni00B3" unicode="&#xb3;" horiz-adv-x="378" d="M267 494 C309 512 330 547 330 591 C330 664 274 712 192 712 C105 712 48 658 44 577 L123 577 C125 620 150 641 189 641 C229 641 253 619 253 583 C253 548 230 525 187 525 L145 525 L145 460 L188 460 C236 460 262 436 262 400 C262 363 234 335 191 335 C149 335 120 361 120 406 L41 406 C41 316 100 264 189 264 C279 264 340 318 340 390 C340 437 314 476 267 494 L267 494 Z " />
<glyph glyph-name="acute" unicode="&#xb4;" horiz-adv-x="600" d="M225 544 L302 544 L401 684 L292 684 L225 544 Z " />
<glyph glyph-name="uni00B5" unicode="&#xb5;" horiz-adv-x="561" d="M395 470 L395 214 C395 117 347 68 277 68 C207 68 166 110 166 204 L166 470 L78 470 L78 -224 L166 -224 L166 40 C192 4 228 -12 269 -12 C323 -12 365 16 395 63 L398 63 L404 0 L483 0 L483 470 L395 470 Z " />
<glyph glyph-name="paragraph" unicode="&#xb6;" horiz-adv-x="662" d="M70 550 C70 464 137 400 250 400 L265 400 L265 -128 L353 -128 L353 700 L260 700 C137 700 70 636 70 550 L70 550 Z M458 700 L458 -128 L546 -128 L546 700 L458 700 Z " />
<glyph glyph-name="periodcentered" unicode="&#xb7;" horiz-adv-x="250" d="M125 252 C161 252 188 279 188 315 C188 351 161 378 125 378 C89 378 62 351 62 315 C62 279 89 252 125 252 L125 252 Z " />
<glyph glyph-name="cedilla" unicode="&#xb8;" horiz-adv-x="600" d="M297 -53 L298 0 L236 0 L228 -101 C300 -101 312 -112 312 -129 C312 -149 295 -162 252 -162 C242 -162 229 -162 215 -160 L215 -223 C230 -225 245 -226 258 -226 C341 -226 384 -189 384 -135 C384 -88 352 -59 297 -53 L297 -53 Z " />
<glyph glyph-name="uni00B9" unicode="&#xb9;" horiz-adv-x="283" d="M152 700 C141 656 122 643 62 643 L44 643 L44 588 L137 588 L137 266 L215 266 L215 700 L152 700 Z " />
<glyph glyph-name="ordmasculine" unicode="&#xba;" horiz-adv-x="484" d="M242 289 C362 289 450 376 450 500 C450 625 362 712 242 712 C122 712 34 624 34 500 C34 376 122 289 242 289 L242 289 Z M242 364 C173 364 122 418 122 500 C122 582 173 636 242 636 C312 636 363 582 363 500 C363 419 312 364 242 364 L242 364 Z " />
<glyph glyph-name="guillemotright" unicode="&#xbb;" horiz-adv-x="560" d="M150 500 L50 500 L199 286 L50 72 L150 72 L300 286 L150 500 Z M365 500 L265 500 L414 286 L265 72 L365 72 L515 286 L365 500 Z " />
<glyph glyph-name="onequarter" unicode="&#xbc;" horiz-adv-x="878" d="M153 266 L231 266 L231 700 L168 700 C157 656 138 643 78 643 L60 643 L60 588 L153 588 L153 266 Z M601 700 L147 0 L236 0 L690 700 L601 700 Z M808 149 L755 149 L755 434 L662 434 L473 144 L473 82 L682 82 L682 0 L755 0 L755 82 L808 82 L808 149 Z M553 149 L682 347 L682 149 L553 149 Z " />
<glyph glyph-name="onehalf" unicode="&#xbd;" horiz-adv-x="904" d="M153 266 L231 266 L231 700 L168 700 C157 656 138 643 78 643 L60 643 L60 588 L153 588 L153 266 Z M597 700 L143 0 L232 0 L686 700 L597 700 Z M717 162 C806 216 834 258 834 313 C834 390 780 441 694 441 C603 441 541 384 539 289 L618 289 C620 345 650 371 693 371 C733 371 756 349 756 312 C756 280 739 258 664 211 C566 150 544 115 544 40 L544 0 L833 0 L833 71 L626 71 C633 99 655 125 717 162 L717 162 Z " />
<glyph glyph-name="threequarters" unicode="&#xbe;" horiz-adv-x="977" d="M364 390 C364 437 338 476 291 494 C333 512 354 547 354 591 C354 664 298 712 216 712 C129 712 72 658 68 577 L147 577 C149 620 174 641 213 641 C253 641 277 619 277 583 C277 548 254 525 211 525 L169 525 L169 460 L212 460 C260 460 286 436 286 400 C286 363 258 335 215 335 C173 335 144 361 144 406 L65 406 C65 316 124 264 213 264 C303 264 364 318 364 390 L364 390 Z M700 700 L246 0 L335 0 L789 700 L700 700 Z M907 149 L854 149 L854 434 L761 434 L572 144 L572 82 L781 82 L781 0 L854 0 L854 82 L907 82 L907 149 Z M652 149 L781 347 L781 149 L652 149 Z " />
<glyph glyph-name="questiondown" unicode="&#xbf;" horiz-adv-x="491" d="M270 483 C234 483 207 456 207 420 C207 384 234 357 270 357 C306 357 333 384 333 420 C333 456 306 483 270 483 L270 483 Z M314 260 L226 260 L226 214 C226 170 221 156 185 126 L136 85 C69 29 46 -19 46 -71 C46 -168 125 -236 236 -236 C353 -236 441 -161 445 -34 L356 -34 C355 -113 307 -158 235 -158 C171 -158 134 -122 134 -68 C134 -37 146 -13 187 22 L236 63 C299 116 314 148 314 214 L314 260 Z " />
<glyph glyph-name="Agrave" unicode="&#xc0;" horiz-adv-x="647" d="M380 770 L309 918 L194 918 L299 770 L380 770 Z M538 0 L631 0 L373 700 L274 700 L16 0 L109 0 L172 175 L475 175 L538 0 Z M200 255 L322 594 L325 594 L447 255 L200 255 Z " />
<glyph glyph-name="Aacute" unicode="&#xc1;" horiz-adv-x="647" d="M450 918 L335 918 L264 770 L345 770 L450 918 Z M538 0 L631 0 L373 700 L274 700 L16 0 L109 0 L172 175 L475 175 L538 0 Z M200 255 L322 594 L325 594 L447 255 L200 255 Z " />
<glyph glyph-name="Acircumflex" unicode="&#xc2;" horiz-adv-x="647" d="M324 862 L400 770 L489 770 L365 918 L283 918 L159 770 L248 770 L324 862 Z M538 0 L631 0 L373 700 L274 700 L16 0 L109 0 L172 175 L475 175 L538 0 Z M200 255 L322 594 L325 594 L447 255 L200 255 Z " />
<glyph glyph-name="Atilde" unicode="&#xc3;" horiz-adv-x="647" d="M254 856 C266 856 279 848 304 821 C337 784 363 768 396 768 C453 768 495 815 495 913 L430 913 C430 855 414 833 395 833 C384 833 370 840 345 868 C313 905 286 921 253 921 C196 921 154 874 154 776 L219 776 C219 834 235 856 254 856 L254 856 Z M538 0 L631 0 L373 700 L274 700 L16 0 L109 0 L172 175 L475 175 L538 0 Z M200 255 L322 594 L325 594 L447 255 L200 255 Z " />
<glyph glyph-name="Adieresis" unicode="&#xc4;" horiz-adv-x="647" d="M218 780 C253 780 282 808 282 844 C282 880 253 908 218 908 C183 908 154 880 154 844 C154 808 183 780 218 780 L218 780 Z M430 780 C465 780 494 808 494 844 C494 880 465 908 430 908 C395 908 366 880 366 844 C366 808 395 780 430 780 L430 780 Z M538 0 L631 0 L373 700 L274 700 L16 0 L109 0 L172 175 L475 175 L538 0 Z M200 255 L322 594 L325 594 L447 255 L200 255 Z " />
<glyph glyph-name="Aring" unicode="&#xc5;" horiz-adv-x="647" d="M538 0 L631 0 L388 659 C418 678 436 710 436 747 C436 807 388 854 324 854 C260 854 212 807 212 747 C212 710 230 678 259 659 L16 0 L109 0 L172 175 L475 175 L538 0 Z M324 794 C353 794 371 773 371 747 C371 721 353 700 324 700 C295 700 277 721 277 747 C277 773 295 794 324 794 L324 794 Z M200 255 L322 594 L325 594 L447 255 L200 255 Z " />
<glyph glyph-name="AE" unicode="&#xc6;" horiz-adv-x="1008" d="M942 616 L942 700 L466 700 L12 0 L119 0 L235 183 L516 183 L516 0 L942 0 L942 84 L608 84 L608 310 L914 310 L914 394 L608 394 L608 616 L942 616 Z M286 263 L510 616 L516 616 L516 263 L286 263 Z " />
<glyph glyph-name="Ccedilla" unicode="&#xc7;" horiz-adv-x="761" d="M713 254 L622 254 C601 139 514 72 399 72 C256 72 147 178 147 350 C147 522 256 628 399 628 C511 628 595 565 617 446 L711 446 C693 605 562 712 396 712 C202 712 53 564 53 350 C53 155 176 15 344 -9 L337 -101 C409 -101 421 -112 421 -129 C421 -149 404 -162 361 -162 C351 -162 338 -162 324 -160 L324 -223 C339 -225 354 -226 367 -226 C450 -226 493 -189 493 -135 C493 -88 461 -59 406 -53 L407 -12 C570 -7 696 99 713 254 L713 254 Z " />
<glyph glyph-name="Egrave" unicode="&#xc8;" horiz-adv-x="588" d="M365 770 L294 918 L179 918 L284 770 L365 770 Z M522 616 L522 700 L96 700 L96 0 L522 0 L522 84 L188 84 L188 310 L494 310 L494 394 L188 394 L188 616 L522 616 Z " />
<glyph glyph-name="Eacute" unicode="&#xc9;" horiz-adv-x="588" d="M435 918 L320 918 L249 770 L330 770 L435 918 Z M522 616 L522 700 L96 700 L96 0 L522 0 L522 84 L188 84 L188 310 L494 310 L494 394 L188 394 L188 616 L522 616 Z " />
<glyph glyph-name="Ecircumflex" unicode="&#xca;" horiz-adv-x="588" d="M309 862 L385 770 L474 770 L350 918 L268 918 L144 770 L233 770 L309 862 Z M522 616 L522 700 L96 700 L96 0 L522 0 L522 84 L188 84 L188 310 L494 310 L494 394 L188 394 L188 616 L522 616 Z " />
<glyph glyph-name="Edieresis" unicode="&#xcb;" horiz-adv-x="588" d="M203 780 C238 780 267 808 267 844 C267 880 238 908 203 908 C168 908 139 880 139 844 C139 808 168 780 203 780 L203 780 Z M415 780 C450 780 479 808 479 844 C479 880 450 908 415 908 C380 908 351 880 351 844 C351 808 380 780 415 780 L415 780 Z M522 616 L522 700 L96 700 L96 0 L522 0 L522 84 L188 84 L188 310 L494 310 L494 394 L188 394 L188 616 L522 616 Z " />
<glyph glyph-name="Igrave" unicode="&#xcc;" horiz-adv-x="284" d="M117 770 L198 770 L127 918 L12 918 L117 770 Z M96 0 L188 0 L188 700 L96 700 L96 0 Z " />
<glyph glyph-name="Iacute" unicode="&#xcd;" horiz-adv-x="284" d="M82 770 L163 770 L268 918 L153 918 L82 770 Z M96 0 L188 0 L188 700 L96 700 L96 0 Z " />
<glyph glyph-name="Icircumflex" unicode="&#xce;" horiz-adv-x="284" d="M183 918 L101 918 L-23 770 L66 770 L142 862 L218 770 L307 770 L183 918 Z M96 0 L188 0 L188 700 L96 700 L96 0 Z " />
<glyph glyph-name="Idieresis" unicode="&#xcf;" horiz-adv-x="284" d="M36 780 C71 780 100 808 100 844 C100 880 71 908 36 908 C1 908 -28 880 -28 844 C-28 808 1 780 36 780 L36 780 Z M248 780 C283 780 312 808 312 844 C312 880 283 908 248 908 C213 908 184 880 184 844 C184 808 213 780 248 780 L248 780 Z M96 0 L188 0 L188 700 L96 700 L96 0 Z " />
<glyph glyph-name="Eth" unicode="&#xd0;" horiz-adv-x="702" d="M276 700 L104 700 L104 387 L0 387 L0 313 L104 313 L104 0 L276 0 C498 0 648 135 648 350 C648 565 498 700 276 700 L276 700 Z M280 84 L196 84 L196 313 L354 313 L354 387 L196 387 L196 616 L280 616 C444 616 554 522 554 350 C554 178 444 84 280 84 L280 84 Z " />
<glyph glyph-name="Ntilde" unicode="&#xd1;" horiz-adv-x="747" d="M304 856 C316 856 329 848 354 821 C387 784 413 768 446 768 C503 768 545 815 545 913 L480 913 C480 855 464 833 445 833 C434 833 420 840 395 868 C363 905 336 921 303 921 C246 921 204 874 204 776 L269 776 C269 834 285 856 304 856 L304 856 Z M559 700 L559 149 L556 149 L193 700 L96 700 L96 0 L188 0 L188 551 L191 551 L554 0 L651 0 L651 700 L559 700 Z " />
<glyph glyph-name="Ograve" unicode="&#xd2;" horiz-adv-x="796" d="M373 770 L454 770 L383 918 L268 918 L373 770 Z M398 -12 C596 -12 743 138 743 350 C743 562 596 712 398 712 C200 712 53 562 53 350 C53 138 200 -12 398 -12 L398 -12 Z M398 72 C253 72 147 180 147 350 C147 520 253 628 398 628 C543 628 649 520 649 350 C649 180 543 72 398 72 L398 72 Z " />
<glyph glyph-name="Oacute" unicode="&#xd3;" horiz-adv-x="796" d="M338 770 L419 770 L524 918 L409 918 L338 770 Z M398 -12 C596 -12 743 138 743 350 C743 562 596 712 398 712 C200 712 53 562 53 350 C53 138 200 -12 398 -12 L398 -12 Z M398 72 C253 72 147 180 147 350 C147 520 253 628 398 628 C543 628 649 520 649 350 C649 180 543 72 398 72 L398 72 Z " />
<glyph glyph-name="Ocircumflex" unicode="&#xd4;" horiz-adv-x="796" d="M398 862 L474 770 L563 770 L439 918 L357 918 L233 770 L322 770 L398 862 Z M398 712 C200 712 53 562 53 350 C53 138 200 -12 398 -12 C596 -12 743 138 743 350 C743 562 596 712 398 712 L398 712 Z M398 72 C253 72 147 180 147 350 C147 520 253 628 398 628 C543 628 649 520 649 350 C649 180 543 72 398 72 L398 72 Z " />
<glyph glyph-name="Otilde" unicode="&#xd5;" horiz-adv-x="796" d="M470 768 C527 768 569 815 569 913 L504 913 C504 855 488 833 469 833 C458 833 444 840 419 868 C387 905 360 921 327 921 C270 921 228 874 228 776 L293 776 C293 834 309 856 328 856 C340 856 353 848 378 821 C411 784 437 768 470 768 L470 768 Z M398 -12 C596 -12 743 138 743 350 C743 562 596 712 398 712 C200 712 53 562 53 350 C53 138 200 -12 398 -12 L398 -12 Z M398 72 C253 72 147 180 147 350 C147 520 253 628 398 628 C543 628 649 520 649 350 C649 180 543 72 398 72 L398 72 Z " />
<glyph glyph-name="Odieresis" unicode="&#xd6;" horiz-adv-x="796" d="M292 780 C327 780 356 808 356 844 C356 880 327 908 292 908 C257 908 228 880 228 844 C228 808 257 780 292 780 L292 780 Z M504 780 C539 780 568 808 568 844 C568 880 539 908 504 908 C469 908 440 880 440 844 C440 808 469 780 504 780 L504 780 Z M398 -12 C596 -12 743 138 743 350 C743 562 596 712 398 712 C200 712 53 562 53 350 C53 138 200 -12 398 -12 L398 -12 Z M398 72 C253 72 147 180 147 350 C147 520 253 628 398 628 C543 628 649 520 649 350 C649 180 543 72 398 72 L398 72 Z " />
<glyph glyph-name="multiply" unicode="&#xd7;" horiz-adv-x="650" d="M173 112 L325 264 L477 112 L530 165 L378 317 L530 469 L477 522 L325 370 L173 522 L120 469 L272 317 L120 165 L173 112 Z " />
<glyph glyph-name="Oslash" unicode="&#xd8;" horiz-adv-x="810" d="M762 652 L707 707 L631 631 C571 682 493 712 405 712 C207 712 60 562 60 350 C60 263 85 187 127 127 L48 48 L103 -7 L179 69 C239 18 317 -12 405 -12 C603 -12 750 138 750 350 C750 437 725 513 683 573 L762 652 Z M405 628 C469 628 526 607 569 568 L193 192 C168 235 154 288 154 350 C154 520 260 628 405 628 L405 628 Z M405 72 C341 72 284 93 241 132 L617 508 C642 465 656 412 656 350 C656 180 550 72 405 72 L405 72 Z " />
<glyph glyph-name="Ugrave" unicode="&#xd9;" horiz-adv-x="706" d="M328 770 L409 770 L338 918 L223 918 L328 770 Z M353 -12 C516 -12 620 98 620 274 L620 700 L528 700 L528 270 C528 142 460 72 353 72 C246 72 178 142 178 270 L178 700 L86 700 L86 274 C86 98 190 -12 353 -12 L353 -12 Z " />
<glyph glyph-name="Uacute" unicode="&#xda;" horiz-adv-x="706" d="M293 770 L374 770 L479 918 L364 918 L293 770 Z M353 -12 C516 -12 620 98 620 274 L620 700 L528 700 L528 270 C528 142 460 72 353 72 C246 72 178 142 178 270 L178 700 L86 700 L86 274 C86 98 190 -12 353 -12 L353 -12 Z " />
<glyph glyph-name="Ucircumflex" unicode="&#xdb;" horiz-adv-x="706" d="M353 862 L429 770 L518 770 L394 918 L312 918 L188 770 L277 770 L353 862 Z M528 700 L528 270 C528 142 460 72 353 72 C246 72 178 142 178 270 L178 700 L86 700 L86 274 C86 98 190 -12 353 -12 C516 -12 620 98 620 274 L620 700 L528 700 Z " />
<glyph glyph-name="Udieresis" unicode="&#xdc;" horiz-adv-x="706" d="M247 780 C282 780 311 808 311 844 C311 880 282 908 247 908 C212 908 183 880 183 844 C183 808 212 780 247 780 L247 780 Z M459 780 C494 780 523 808 523 844 C523 880 494 908 459 908 C424 908 395 880 395 844 C395 808 424 780 459 780 L459 780 Z M353 -12 C516 -12 620 98 620 274 L620 700 L528 700 L528 270 C528 142 460 72 353 72 C246 72 178 142 178 270 L178 700 L86 700 L86 274 C86 98 190 -12 353 -12 L353 -12 Z " />
<glyph glyph-name="Yacute" unicode="&#xdd;" horiz-adv-x="624" d="M252 770 L333 770 L438 918 L323 918 L252 770 Z M266 0 L358 0 L358 275 L616 700 L512 700 L313 361 L311 361 L112 700 L8 700 L266 275 L266 0 Z " />
<glyph glyph-name="Thorn" unicode="&#xde;" horiz-adv-x="635" d="M317 583 L188 583 L188 700 L96 700 L96 0 L188 0 L188 115 L317 115 C487 115 586 205 586 350 C586 493 487 583 317 583 L317 583 Z M309 199 L188 199 L188 499 L309 499 C435 499 492 447 492 350 C492 251 435 199 309 199 L309 199 Z " />
<glyph glyph-name="germandbls" unicode="&#xdf;" horiz-adv-x="577" d="M316 -12 C450 -12 531 68 531 182 C531 277 474 342 375 357 L375 359 C450 381 492 443 492 525 C492 638 412 712 287 712 C157 712 78 633 78 493 L78 0 L166 0 L166 489 C166 590 207 636 289 636 C364 636 404 597 404 521 C404 440 359 390 265 390 L248 390 L248 310 L302 310 C393 310 441 265 441 187 C441 111 395 64 298 64 C278 64 262 66 243 71 L243 -3 C265 -9 290 -12 316 -12 L316 -12 Z " />
<glyph glyph-name="agrave" unicode="&#xe0;" horiz-adv-x="542" d="M318 544 L251 684 L142 684 L241 544 L318 544 Z M274 482 C154 482 79 420 72 319 L162 319 C166 375 202 407 271 407 C345 407 381 371 381 299 L381 289 L221 267 C113 252 56 200 56 123 C56 44 118 -12 214 -12 C286 -12 350 20 380 64 L383 64 L389 0 L468 0 L468 299 C468 415 398 482 274 482 L274 482 Z M233 61 C177 61 146 86 146 126 C146 166 175 194 250 204 L381 222 L381 202 C381 121 320 61 233 61 L233 61 Z " />
<glyph glyph-name="aacute" unicode="&#xe1;" horiz-adv-x="542" d="M388 684 L279 684 L212 544 L289 544 L388 684 Z M274 482 C154 482 79 420 72 319 L162 319 C166 375 202 407 271 407 C345 407 381 371 381 299 L381 289 L221 267 C113 252 56 200 56 123 C56 44 118 -12 214 -12 C286 -12 350 20 380 64 L383 64 L389 0 L468 0 L468 299 C468 415 398 482 274 482 L274 482 Z M233 61 C177 61 146 86 146 126 C146 166 175 194 250 204 L381 222 L381 202 C381 121 320 61 233 61 L233 61 Z " />
<glyph glyph-name="acircumflex" unicode="&#xe2;" horiz-adv-x="542" d="M267 631 L339 544 L423 544 L306 684 L228 684 L111 544 L195 544 L267 631 Z M274 482 C154 482 79 420 72 319 L162 319 C166 375 202 407 271 407 C345 407 381 371 381 299 L381 289 L221 267 C113 252 56 200 56 123 C56 44 118 -12 214 -12 C286 -12 350 20 380 64 L383 64 L389 0 L468 0 L468 299 C468 415 398 482 274 482 L274 482 Z M233 61 C177 61 146 86 146 126 C146 166 175 194 250 204 L381 222 L381 202 C381 121 320 61 233 61 L233 61 Z " />
<glyph glyph-name="atilde" unicode="&#xe3;" horiz-adv-x="542" d="M201 625 C212 625 225 618 248 592 C279 557 304 542 335 542 C389 542 428 587 428 679 L367 679 C367 624 352 604 334 604 C324 604 310 610 287 637 C257 672 231 687 200 687 C146 687 107 642 107 550 L168 550 C168 605 183 625 201 625 L201 625 Z M274 482 C154 482 79 420 72 319 L162 319 C166 375 202 407 271 407 C345 407 381 371 381 299 L381 289 L221 267 C113 252 56 200 56 123 C56 44 118 -12 214 -12 C286 -12 350 20 380 64 L383 64 L389 0 L468 0 L468 299 C468 415 398 482 274 482 L274 482 Z M233 61 C177 61 146 86 146 126 C146 166 175 194 250 204 L381 222 L381 202 C381 121 320 61 233 61 L233 61 Z " />
<glyph glyph-name="adieresis" unicode="&#xe4;" horiz-adv-x="542" d="M167 554 C200 554 227 580 227 614 C227 648 200 674 167 674 C134 674 107 648 107 614 C107 580 134 554 167 554 L167 554 Z M367 554 C400 554 427 580 427 614 C427 648 400 674 367 674 C334 674 307 648 307 614 C307 580 334 554 367 554 L367 554 Z M274 482 C154 482 79 420 72 319 L162 319 C166 375 202 407 271 407 C345 407 381 371 381 299 L381 289 L221 267 C113 252 56 200 56 123 C56 44 118 -12 214 -12 C286 -12 350 20 380 64 L383 64 L389 0 L468 0 L468 299 C468 415 398 482 274 482 L274 482 Z M233 61 C177 61 146 86 146 126 C146 166 175 194 250 204 L381 222 L381 202 C381 121 320 61 233 61 L233 61 Z " />
<glyph glyph-name="aring" unicode="&#xe5;" horiz-adv-x="542" d="M267 537 C327 537 373 581 373 638 C373 695 327 739 267 739 C207 739 161 695 161 638 C161 581 207 537 267 537 L267 537 Z M267 682 C294 682 311 663 311 638 C311 613 294 594 267 594 C240 594 223 613 223 638 C223 663 240 682 267 682 L267 682 Z M274 482 C154 482 79 420 72 319 L162 319 C166 375 202 407 271 407 C345 407 381 371 381 299 L381 289 L221 267 C113 252 56 200 56 123 C56 44 118 -12 214 -12 C286 -12 350 20 380 64 L383 64 L389 0 L468 0 L468 299 C468 415 398 482 274 482 L274 482 Z M233 61 C177 61 146 86 146 126 C146 166 175 194 250 204 L381 222 L381 202 C381 121 320 61 233 61 L233 61 Z " />
<glyph glyph-name="ae" unicode="&#xe6;" horiz-adv-x="894" d="M848 252 C848 391 755 482 629 482 C557 482 493 453 450 401 L447 401 C418 455 364 482 280 482 C154 482 79 420 72 319 L162 319 C166 375 202 407 277 407 C354 407 391 373 391 293 L391 278 L276 278 C129 278 56 218 56 127 C56 44 118 -12 228 -12 C320 -12 394 27 427 90 L430 90 C467 27 542 -12 624 -12 C729 -12 815 45 840 138 L756 138 C732 90 685 64 627 64 C551 64 488 115 481 214 L845 214 C847 227 848 238 848 252 L848 252 Z M629 407 C697 407 748 368 759 283 L485 283 C501 364 557 407 629 407 L629 407 Z M237 63 C177 63 146 88 146 131 C146 178 183 208 275 208 L391 208 L391 204 C391 123 330 63 237 63 L237 63 Z " />
<glyph glyph-name="ccedilla" unicode="&#xe7;" horiz-adv-x="548" d="M512 172 L425 172 C416 106 359 64 290 64 C204 64 139 129 139 235 C139 341 204 406 291 406 C360 406 410 364 419 298 L509 298 C496 414 410 482 292 482 C150 482 49 380 49 235 C49 107 125 13 240 -8 L233 -101 C305 -101 317 -112 317 -129 C317 -149 300 -162 257 -162 C247 -162 234 -162 220 -160 L220 -223 C235 -225 250 -226 263 -226 C346 -226 389 -189 389 -135 C389 -88 357 -59 302 -53 L303 -12 C415 -7 500 61 512 172 L512 172 Z " />
<glyph glyph-name="egrave" unicode="&#xe8;" horiz-adv-x="559" d="M340 544 L273 684 L164 684 L263 544 L340 544 Z M513 252 C513 391 420 482 290 482 C152 482 48 380 48 232 C48 87 148 -12 289 -12 C395 -12 481 45 506 138 L423 138 C399 90 351 64 292 64 C208 64 145 115 138 214 L510 214 C512 227 513 238 513 252 L513 252 Z M290 409 C362 409 413 368 424 283 L142 283 C158 364 215 409 290 409 L290 409 Z " />
<glyph glyph-name="eacute" unicode="&#xe9;" horiz-adv-x="559" d="M410 684 L301 684 L234 544 L311 544 L410 684 Z M513 252 C513 391 420 482 290 482 C152 482 48 380 48 232 C48 87 148 -12 289 -12 C395 -12 481 45 506 138 L423 138 C399 90 351 64 292 64 C208 64 145 115 138 214 L510 214 C512 227 513 238 513 252 L513 252 Z M290 409 C362 409 413 368 424 283 L142 283 C158 364 215 409 290 409 L290 409 Z " />
<glyph glyph-name="ecircumflex" unicode="&#xea;" horiz-adv-x="559" d="M289 631 L361 544 L445 544 L328 684 L250 684 L133 544 L217 544 L289 631 Z M513 252 C513 391 420 482 290 482 C152 482 48 380 48 232 C48 87 148 -12 289 -12 C395 -12 481 45 506 138 L423 138 C399 90 351 64 292 64 C208 64 145 115 138 214 L510 214 C512 227 513 238 513 252 L513 252 Z M290 409 C362 409 413 368 424 283 L142 283 C158 364 215 409 290 409 L290 409 Z " />
<glyph glyph-name="edieresis" unicode="&#xeb;" horiz-adv-x="559" d="M189 554 C222 554 249 580 249 614 C249 648 222 674 189 674 C156 674 129 648 129 614 C129 580 156 554 189 554 L189 554 Z M389 554 C422 554 449 580 449 614 C449 648 422 674 389 674 C356 674 329 648 329 614 C329 580 356 554 389 554 L389 554 Z M513 252 C513 391 420 482 290 482 C152 482 48 380 48 232 C48 87 148 -12 289 -12 C395 -12 481 45 506 138 L423 138 C399 90 351 64 292 64 C208 64 145 115 138 214 L510 214 C512 227 513 238 513 252 L513 252 Z M290 409 C362 409 413 368 424 283 L142 283 C158 364 215 409 290 409 L290 409 Z " />
<glyph glyph-name="igrave" unicode="&#xec;" horiz-adv-x="244" d="M96 544 L173 544 L126 684 L17 684 L96 544 Z M78 0 L166 0 L166 470 L78 470 L78 0 Z " />
<glyph glyph-name="iacute" unicode="&#xed;" horiz-adv-x="244" d="M67 544 L144 544 L223 684 L114 684 L67 544 Z M78 0 L166 0 L166 470 L78 470 L78 0 Z " />
<glyph glyph-name="icircumflex" unicode="&#xee;" horiz-adv-x="244" d="M157 684 L87 684 L-20 544 L60 544 L122 628 L184 544 L264 544 L157 684 Z M78 0 L166 0 L166 470 L78 470 L78 0 Z " />
<glyph glyph-name="idieresis" unicode="&#xef;" horiz-adv-x="244" d="M35 554 C68 554 95 580 95 614 C95 648 68 674 35 674 C2 674 -25 648 -25 614 C-25 580 2 554 35 554 L35 554 Z M209 554 C242 554 269 580 269 614 C269 648 242 674 209 674 C176 674 149 648 149 614 C149 580 176 554 209 554 L209 554 Z M78 0 L166 0 L166 470 L78 470 L78 0 Z " />
<glyph glyph-name="eth" unicode="&#xf0;" horiz-adv-x="579" d="M384 627 L466 687 L434 729 L342 661 C298 693 246 717 189 733 L164 662 C206 649 244 633 276 613 L194 553 L225 511 L322 582 C374 538 410 482 431 410 C396 457 345 477 285 477 C143 477 48 361 48 234 C48 106 143 -12 290 -12 C367 -12 430 21 471 74 C509 123 531 187 531 274 C531 415 478 540 384 627 L384 627 Z M289 64 C197 64 136 139 136 234 C136 328 197 401 289 401 C381 401 444 331 444 234 C444 139 381 64 289 64 L289 64 Z " />
<glyph glyph-name="ntilde" unicode="&#xf1;" horiz-adv-x="563" d="M219 625 C230 625 243 618 266 592 C297 557 322 542 353 542 C407 542 446 587 446 679 L385 679 C385 624 370 604 352 604 C342 604 328 610 305 637 C275 672 249 687 218 687 C164 687 125 642 125 550 L186 550 C186 605 201 625 219 625 L219 625 Z M319 482 C252 482 196 454 166 407 L163 407 L157 470 L78 470 L78 0 L166 0 L166 256 C166 355 217 404 295 404 C363 404 401 367 401 263 L401 0 L489 0 L489 297 C489 415 422 482 319 482 L319 482 Z " />
<glyph glyph-name="ograve" unicode="&#xf2;" horiz-adv-x="580" d="M264 544 L341 544 L274 684 L165 684 L264 544 Z M290 -12 C429 -12 532 90 532 235 C532 380 429 482 290 482 C151 482 48 380 48 235 C48 90 151 -12 290 -12 L290 -12 Z M290 64 C202 64 138 132 138 235 C138 338 202 406 290 406 C378 406 442 338 442 235 C442 132 378 64 290 64 L290 64 Z " />
<glyph glyph-name="oacute" unicode="&#xf3;" horiz-adv-x="580" d="M235 544 L312 544 L411 684 L302 684 L235 544 Z M290 -12 C429 -12 532 90 532 235 C532 380 429 482 290 482 C151 482 48 380 48 235 C48 90 151 -12 290 -12 L290 -12 Z M290 64 C202 64 138 132 138 235 C138 338 202 406 290 406 C378 406 442 338 442 235 C442 132 378 64 290 64 L290 64 Z " />
<glyph glyph-name="ocircumflex" unicode="&#xf4;" horiz-adv-x="580" d="M290 631 L362 544 L446 544 L329 684 L251 684 L134 544 L218 544 L290 631 Z M290 482 C151 482 48 380 48 235 C48 90 151 -12 290 -12 C429 -12 532 90 532 235 C532 380 429 482 290 482 L290 482 Z M290 64 C202 64 138 132 138 235 C138 338 202 406 290 406 C378 406 442 338 442 235 C442 132 378 64 290 64 L290 64 Z " />
<glyph glyph-name="otilde" unicode="&#xf5;" horiz-adv-x="580" d="M358 542 C412 542 451 587 451 679 L390 679 C390 624 375 604 357 604 C347 604 333 610 310 637 C280 672 254 687 223 687 C169 687 130 642 130 550 L191 550 C191 605 206 625 224 625 C235 625 248 618 271 592 C302 557 327 542 358 542 L358 542 Z M290 -12 C429 -12 532 90 532 235 C532 380 429 482 290 482 C151 482 48 380 48 235 C48 90 151 -12 290 -12 L290 -12 Z M290 64 C202 64 138 132 138 235 C138 338 202 406 290 406 C378 406 442 338 442 235 C442 132 378 64 290 64 L290 64 Z " />
<glyph glyph-name="odieresis" unicode="&#xf6;" horiz-adv-x="580" d="M190 554 C223 554 250 580 250 614 C250 648 223 674 190 674 C157 674 130 648 130 614 C130 580 157 554 190 554 L190 554 Z M390 554 C423 554 450 580 450 614 C450 648 423 674 390 674 C357 674 330 648 330 614 C330 580 357 554 390 554 L390 554 Z M290 -12 C429 -12 532 90 532 235 C532 380 429 482 290 482 C151 482 48 380 48 235 C48 90 151 -12 290 -12 L290 -12 Z M290 64 C202 64 138 132 138 235 C138 338 202 406 290 406 C378 406 442 338 442 235 C442 132 378 64 290 64 L290 64 Z " />
<glyph glyph-name="divide" unicode="&#xf7;" horiz-adv-x="650" d="M325 434 C360 434 385 460 385 493 C385 527 360 553 325 553 C289 553 264 527 264 493 C264 460 289 434 325 434 L325 434 Z M104 278 L545 278 L545 356 L104 356 L104 278 Z M325 81 C360 81 385 107 385 141 C385 174 360 200 325 200 C289 200 264 174 264 141 C264 107 289 81 325 81 L325 81 Z " />
<glyph glyph-name="oslash" unicode="&#xf8;" horiz-adv-x="587" d="M557 451 L510 498 L445 433 C404 464 352 482 294 482 C155 482 52 380 52 235 C52 177 69 126 97 85 L30 18 L77 -29 L143 37 C184 6 236 -12 294 -12 C433 -12 536 90 536 235 C536 293 519 344 491 385 L557 451 Z M294 409 C332 409 365 397 391 375 L159 143 C146 169 139 200 139 235 C139 340 204 409 294 409 L294 409 Z M294 61 C256 61 223 73 197 95 L429 327 C442 301 449 270 449 235 C449 130 384 61 294 61 L294 61 Z " />
<glyph glyph-name="ugrave" unicode="&#xf9;" horiz-adv-x="557" d="M330 544 L263 684 L154 684 L253 544 L330 544 Z M391 470 L391 214 C391 115 340 66 265 66 C200 66 162 103 162 207 L162 470 L74 470 L74 173 C74 54 144 -12 241 -12 C304 -12 361 16 391 63 L394 63 L400 0 L479 0 L479 470 L391 470 Z " />
<glyph glyph-name="uacute" unicode="&#xfa;" horiz-adv-x="557" d="M400 684 L291 684 L224 544 L301 544 L400 684 Z M391 470 L391 214 C391 115 340 66 265 66 C200 66 162 103 162 207 L162 470 L74 470 L74 173 C74 54 144 -12 241 -12 C304 -12 361 16 391 63 L394 63 L400 0 L479 0 L479 470 L391 470 Z " />
<glyph glyph-name="ucircumflex" unicode="&#xfb;" horiz-adv-x="557" d="M279 631 L351 544 L435 544 L318 684 L240 684 L123 544 L207 544 L279 631 Z M391 470 L391 214 C391 115 340 66 265 66 C200 66 162 103 162 207 L162 470 L74 470 L74 173 C74 54 144 -12 241 -12 C304 -12 361 16 391 63 L394 63 L400 0 L479 0 L479 470 L391 470 Z " />
<glyph glyph-name="udieresis" unicode="&#xfc;" horiz-adv-x="557" d="M179 554 C212 554 239 580 239 614 C239 648 212 674 179 674 C146 674 119 648 119 614 C119 580 146 554 179 554 L179 554 Z M379 554 C412 554 439 580 439 614 C439 648 412 674 379 674 C346 674 319 648 319 614 C319 580 346 554 379 554 L379 554 Z M391 470 L391 214 C391 115 340 66 265 66 C200 66 162 103 162 207 L162 470 L74 470 L74 173 C74 54 144 -12 241 -12 C304 -12 361 16 391 63 L394 63 L400 0 L479 0 L479 470 L391 470 Z " />
<glyph glyph-name="yacute" unicode="&#xfd;" horiz-adv-x="499" d="M371 684 L262 684 L195 544 L272 544 L371 684 Z M396 470 L251 105 L248 105 L105 470 L12 470 L205 0 L113 -224 L202 -224 L487 470 L396 470 Z " />
<glyph glyph-name="thorn" unicode="&#xfe;" horiz-adv-x="599" d="M325 482 C257 482 196 452 169 408 L166 408 L166 700 L78 700 L78 -224 L166 -224 L166 62 L169 62 C197 16 260 -12 325 -12 C452 -12 550 90 550 235 C550 380 453 482 325 482 L325 482 Z M311 64 C224 64 162 129 162 235 C162 341 224 406 311 406 C398 406 460 341 460 235 C460 129 398 64 311 64 L311 64 Z " />
<glyph glyph-name="ydieresis" unicode="&#xff;" horiz-adv-x="499" d="M150 554 C183 554 210 580 210 614 C210 648 183 674 150 674 C117 674 90 648 90 614 C90 580 117 554 150 554 L150 554 Z M350 554 C383 554 410 580 410 614 C410 648 383 674 350 674 C317 674 290 648 290 614 C290 580 317 554 350 554 L350 554 Z M396 470 L251 105 L248 105 L105 470 L12 470 L205 0 L113 -224 L202 -224 L487 470 L396 470 Z " />
<glyph glyph-name="Amacron" unicode="&#x100;" horiz-adv-x="647" d="M463 875 L185 875 L185 803 L463 803 L463 875 Z M538 0 L631 0 L373 700 L274 700 L16 0 L109 0 L172 175 L475 175 L538 0 Z M200 255 L322 594 L325 594 L447 255 L200 255 Z " />
<glyph glyph-name="amacron" unicode="&#x101;" horiz-adv-x="542" d="M398 643 L136 643 L136 575 L398 575 L398 643 Z M274 482 C154 482 79 420 72 319 L162 319 C166 375 202 407 271 407 C345 407 381 371 381 299 L381 289 L221 267 C113 252 56 200 56 123 C56 44 118 -12 214 -12 C286 -12 350 20 380 64 L383 64 L389 0 L468 0 L468 299 C468 415 398 482 274 482 L274 482 Z M233 61 C177 61 146 86 146 126 C146 166 175 194 250 204 L381 222 L381 202 C381 121 320 61 233 61 L233 61 Z " />
<glyph glyph-name="Abreve" unicode="&#x102;" horiz-adv-x="647" d="M324 770 C414 770 467 823 467 909 L467 914 L391 914 C391 858 365 832 324 832 C283 832 257 858 257 914 L181 914 L181 909 C181 823 234 770 324 770 L324 770 Z M538 0 L631 0 L373 700 L274 700 L16 0 L109 0 L172 175 L475 175 L538 0 Z M200 255 L322 594 L325 594 L447 255 L200 255 Z " />
<glyph glyph-name="abreve" unicode="&#x103;" horiz-adv-x="542" d="M267 544 C352 544 402 594 402 675 L402 680 L330 680 C330 627 306 603 267 603 C228 603 204 627 204 680 L132 680 L132 675 C132 594 182 544 267 544 L267 544 Z M274 482 C154 482 79 420 72 319 L162 319 C166 375 202 407 271 407 C345 407 381 371 381 299 L381 289 L221 267 C113 252 56 200 56 123 C56 44 118 -12 214 -12 C286 -12 350 20 380 64 L383 64 L389 0 L468 0 L468 299 C468 415 398 482 274 482 L274 482 Z M233 61 C177 61 146 86 146 126 C146 166 175 194 250 204 L381 222 L381 202 C381 121 320 61 233 61 L233 61 Z " />
<glyph glyph-name="Aogonek" unicode="&#x104;" horiz-adv-x="647" d="M548 -111 C548 -81 568 -48 631 0 L373 700 L274 700 L16 0 L109 0 L172 175 L475 175 L538 0 L554 0 C496 -30 465 -78 465 -127 C465 -188 511 -227 584 -227 C601 -227 617 -225 631 -222 L631 -148 C619 -152 607 -153 598 -153 C564 -153 548 -139 548 -111 L548 -111 Z M200 255 L322 594 L325 594 L447 255 L200 255 Z " />
<glyph glyph-name="aogonek" unicode="&#x105;" horiz-adv-x="542" d="M468 0 L468 299 C468 415 398 482 274 482 C154 482 79 420 72 319 L162 319 C166 375 202 407 271 407 C345 407 381 371 381 299 L381 289 L221 267 C113 252 56 200 56 123 C56 44 118 -12 214 -12 C286 -12 350 20 380 64 L383 64 L389 0 L396 0 C341 -28 312 -73 312 -120 C312 -177 355 -214 424 -214 C440 -214 455 -212 468 -209 L468 -140 C457 -143 446 -144 437 -144 C405 -144 390 -131 390 -105 C390 -76 409 -45 468 0 L468 0 Z M233 61 C177 61 146 86 146 126 C146 166 175 194 250 204 L381 222 L381 202 C381 121 320 61 233 61 L233 61 Z " />
<glyph glyph-name="Cacute" unicode="&#x106;" horiz-adv-x="761" d="M335 770 L416 770 L521 918 L406 918 L335 770 Z M395 -12 C564 -12 696 95 713 254 L622 254 C601 139 514 72 399 72 C256 72 147 178 147 350 C147 522 256 628 399 628 C511 628 595 565 617 446 L711 446 C693 605 562 712 396 712 C202 712 53 564 53 350 C53 136 201 -12 395 -12 L395 -12 Z " />
<glyph glyph-name="cacute" unicode="&#x107;" horiz-adv-x="548" d="M232 544 L309 544 L408 684 L299 684 L232 544 Z M289 -12 C408 -12 499 57 512 172 L425 172 C416 106 359 64 290 64 C204 64 139 129 139 235 C139 341 204 406 291 406 C360 406 410 364 419 298 L509 298 C496 414 410 482 292 482 C150 482 49 380 49 235 C49 90 147 -12 289 -12 L289 -12 Z " />
<glyph glyph-name="Ccircumflex" unicode="&#x108;" horiz-adv-x="761" d="M395 862 L471 770 L560 770 L436 918 L354 918 L230 770 L319 770 L395 862 Z M622 254 C601 139 514 72 399 72 C256 72 147 178 147 350 C147 522 256 628 399 628 C511 628 595 565 617 446 L711 446 C693 605 562 712 396 712 C202 712 53 564 53 350 C53 136 201 -12 395 -12 C564 -12 696 95 713 254 L622 254 Z " />
<glyph glyph-name="ccircumflex" unicode="&#x109;" horiz-adv-x="548" d="M287 631 L359 544 L443 544 L326 684 L248 684 L131 544 L215 544 L287 631 Z M425 172 C416 106 359 64 290 64 C204 64 139 129 139 235 C139 341 204 406 291 406 C360 406 410 364 419 298 L509 298 C496 414 410 482 292 482 C150 482 49 380 49 235 C49 90 147 -12 289 -12 C408 -12 499 57 512 172 L425 172 Z " />
<glyph glyph-name="Cdotaccent" unicode="&#x10a;" horiz-adv-x="761" d="M395 780 C430 780 459 808 459 844 C459 880 430 908 395 908 C360 908 331 880 331 844 C331 808 360 780 395 780 L395 780 Z M395 -12 C564 -12 696 95 713 254 L622 254 C601 139 514 72 399 72 C256 72 147 178 147 350 C147 522 256 628 399 628 C511 628 595 565 617 446 L711 446 C693 605 562 712 396 712 C202 712 53 564 53 350 C53 136 201 -12 395 -12 L395 -12 Z " />
<glyph glyph-name="cdotaccent" unicode="&#x10b;" horiz-adv-x="548" d="M287 554 C320 554 347 580 347 614 C347 648 320 674 287 674 C254 674 227 648 227 614 C227 580 254 554 287 554 L287 554 Z M289 -12 C408 -12 499 57 512 172 L425 172 C416 106 359 64 290 64 C204 64 139 129 139 235 C139 341 204 406 291 406 C360 406 410 364 419 298 L509 298 C496 414 410 482 292 482 C150 482 49 380 49 235 C49 90 147 -12 289 -12 L289 -12 Z " />
<glyph glyph-name="Ccaron" unicode="&#x10c;" horiz-adv-x="761" d="M436 770 L560 918 L471 918 L395 826 L319 918 L230 918 L354 770 L436 770 Z M622 254 C601 139 514 72 399 72 C256 72 147 178 147 350 C147 522 256 628 399 628 C511 628 595 565 617 446 L711 446 C693 605 562 712 396 712 C202 712 53 564 53 350 C53 136 201 -12 395 -12 C564 -12 696 95 713 254 L622 254 Z " />
<glyph glyph-name="ccaron" unicode="&#x10d;" horiz-adv-x="548" d="M326 544 L443 684 L359 684 L287 597 L215 684 L131 684 L248 544 L326 544 Z M425 172 C416 106 359 64 290 64 C204 64 139 129 139 235 C139 341 204 406 291 406 C360 406 410 364 419 298 L509 298 C496 414 410 482 292 482 C150 482 49 380 49 235 C49 90 147 -12 289 -12 C408 -12 499 57 512 172 L425 172 Z " />
<glyph glyph-name="Dcaron" unicode="&#x10e;" horiz-adv-x="694" d="M358 770 L482 918 L393 918 L317 826 L241 918 L152 918 L276 770 L358 770 Z M268 700 L96 700 L96 0 L268 0 C490 0 640 135 640 350 C640 565 490 700 268 700 L268 700 Z M272 84 L188 84 L188 616 L272 616 C436 616 546 522 546 350 C546 178 436 84 272 84 L272 84 Z " />
<glyph glyph-name="dcaron" unicode="&#x10f;" horiz-adv-x="677" d="M656 712 C621 712 595 686 595 655 C595 622 619 597 652 597 C658 597 663 598 668 599 C669 568 652 539 609 501 L640 468 C700 513 727 566 727 621 C727 679 696 712 656 712 L656 712 Z M433 408 L430 408 C402 454 339 482 274 482 C147 482 49 380 49 235 C49 90 146 -12 274 -12 C344 -12 406 19 433 63 L436 63 L442 0 L521 0 L521 700 L433 700 L433 408 Z M288 64 C199 64 139 129 139 235 C139 341 199 406 288 406 C379 406 437 341 437 235 C437 129 379 64 288 64 L288 64 Z " />
<glyph glyph-name="Dcroat" unicode="&#x110;" horiz-adv-x="702" d="M276 700 L104 700 L104 387 L0 387 L0 313 L104 313 L104 0 L276 0 C498 0 648 135 648 350 C648 565 498 700 276 700 L276 700 Z M280 84 L196 84 L196 313 L354 313 L354 387 L196 387 L196 616 L280 616 C444 616 554 522 554 350 C554 178 444 84 280 84 L280 84 Z " />
<glyph glyph-name="dcroat" unicode="&#x111;" horiz-adv-x="599" d="M620 609 L521 609 L521 700 L433 700 L433 609 L286 609 L286 543 L433 543 L433 408 L430 408 C402 454 339 482 274 482 C147 482 49 380 49 235 C49 90 146 -12 274 -12 C344 -12 406 19 433 63 L436 63 L442 0 L521 0 L521 543 L620 543 L620 609 Z M288 64 C199 64 139 129 139 235 C139 341 199 406 288 406 C379 406 437 341 437 235 C437 129 379 64 288 64 L288 64 Z " />
<glyph glyph-name="Emacron" unicode="&#x112;" horiz-adv-x="588" d="M448 875 L170 875 L170 803 L448 803 L448 875 Z M522 616 L522 700 L96 700 L96 0 L522 0 L522 84 L188 84 L188 310 L494 310 L494 394 L188 394 L188 616 L522 616 Z " />
<glyph glyph-name="emacron" unicode="&#x113;" horiz-adv-x="559" d="M420 643 L158 643 L158 575 L420 575 L420 643 Z M513 252 C513 391 420 482 290 482 C152 482 48 380 48 232 C48 87 148 -12 289 -12 C395 -12 481 45 506 138 L423 138 C399 90 351 64 292 64 C208 64 145 115 138 214 L510 214 C512 227 513 238 513 252 L513 252 Z M290 409 C362 409 413 368 424 283 L142 283 C158 364 215 409 290 409 L290 409 Z " />
<glyph glyph-name="Ebreve" unicode="&#x114;" horiz-adv-x="588" d="M309 770 C399 770 452 823 452 909 L452 914 L376 914 C376 858 350 832 309 832 C268 832 242 858 242 914 L166 914 L166 909 C166 823 219 770 309 770 L309 770 Z M522 616 L522 700 L96 700 L96 0 L522 0 L522 84 L188 84 L188 310 L494 310 L494 394 L188 394 L188 616 L522 616 Z " />
<glyph glyph-name="ebreve" unicode="&#x115;" horiz-adv-x="559" d="M289 544 C374 544 424 594 424 675 L424 680 L352 680 C352 627 328 603 289 603 C250 603 226 627 226 680 L154 680 L154 675 C154 594 204 544 289 544 L289 544 Z M513 252 C513 391 420 482 290 482 C152 482 48 380 48 232 C48 87 148 -12 289 -12 C395 -12 481 45 506 138 L423 138 C399 90 351 64 292 64 C208 64 145 115 138 214 L510 214 C512 227 513 238 513 252 L513 252 Z M290 409 C362 409 413 368 424 283 L142 283 C158 364 215 409 290 409 L290 409 Z " />
<glyph glyph-name="Edotaccent" unicode="&#x116;" horiz-adv-x="588" d="M309 780 C344 780 373 808 373 844 C373 880 344 908 309 908 C274 908 245 880 245 844 C245 808 274 780 309 780 L309 780 Z M522 616 L522 700 L96 700 L96 0 L522 0 L522 84 L188 84 L188 310 L494 310 L494 394 L188 394 L188 616 L522 616 Z " />
<glyph glyph-name="edotaccent" unicode="&#x117;" horiz-adv-x="559" d="M289 554 C322 554 349 580 349 614 C349 648 322 674 289 674 C256 674 229 648 229 614 C229 580 256 554 289 554 L289 554 Z M513 252 C513 391 420 482 290 482 C152 482 48 380 48 232 C48 87 148 -12 289 -12 C395 -12 481 45 506 138 L423 138 C399 90 351 64 292 64 C208 64 145 115 138 214 L510 214 C512 227 513 238 513 252 L513 252 Z M290 409 C362 409 413 368 424 283 L142 283 C158 364 215 409 290 409 L290 409 Z " />
<glyph glyph-name="Eogonek" unicode="&#x118;" horiz-adv-x="588" d="M522 616 L522 700 L96 700 L96 0 L445 0 C387 -30 356 -78 356 -127 C356 -188 402 -227 475 -227 C492 -227 508 -225 522 -222 L522 -148 C510 -152 498 -153 489 -153 C455 -153 439 -139 439 -111 C439 -81 459 -48 522 0 L522 84 L188 84 L188 310 L494 310 L494 394 L188 394 L188 616 L522 616 Z " />
<glyph glyph-name="eogonek" unicode="&#x119;" horiz-adv-x="559" d="M513 252 C513 391 420 482 290 482 C152 482 48 380 48 232 C48 90 145 -9 282 -12 C244 -40 224 -77 224 -116 C224 -173 267 -210 336 -210 C352 -210 367 -208 380 -205 L380 -136 C369 -139 358 -140 349 -140 C317 -140 302 -127 302 -101 C302 -72 321 -41 379 3 C442 26 489 73 506 138 L423 138 C399 90 351 64 292 64 C208 64 145 115 138 214 L510 214 C512 227 513 238 513 252 L513 252 Z M290 409 C362 409 413 368 424 283 L142 283 C158 364 215 409 290 409 L290 409 Z " />
<glyph glyph-name="Ecaron" unicode="&#x11a;" horiz-adv-x="588" d="M350 770 L474 918 L385 918 L309 826 L233 918 L144 918 L268 770 L350 770 Z M522 616 L522 700 L96 700 L96 0 L522 0 L522 84 L188 84 L188 310 L494 310 L494 394 L188 394 L188 616 L522 616 Z " />
<glyph glyph-name="ecaron" unicode="&#x11b;" horiz-adv-x="559" d="M328 544 L445 684 L361 684 L289 597 L217 684 L133 684 L250 544 L328 544 Z M513 252 C513 391 420 482 290 482 C152 482 48 380 48 232 C48 87 148 -12 289 -12 C395 -12 481 45 506 138 L423 138 C399 90 351 64 292 64 C208 64 145 115 138 214 L510 214 C512 227 513 238 513 252 L513 252 Z M290 409 C362 409 413 368 424 283 L142 283 C158 364 215 409 290 409 L290 409 Z " />
<glyph glyph-name="Gcircumflex" unicode="&#x11c;" horiz-adv-x="781" d="M400 862 L476 770 L565 770 L441 918 L359 918 L235 770 L324 770 L400 862 Z M410 280 L627 280 C612 149 520 71 398 71 C254 71 147 178 147 350 C147 522 254 629 403 629 C515 629 596 569 615 470 L711 470 C685 620 561 712 401 712 C200 712 53 564 53 349 C53 134 199 -12 389 -12 C490 -12 578 30 624 104 L627 104 L638 0 L711 0 L711 362 L410 362 L410 280 Z " />
<glyph glyph-name="gcircumflex" unicode="&#x11d;" horiz-adv-x="501" d="M260 631 L332 544 L416 544 L299 684 L221 684 L104 544 L188 544 L260 631 Z M489 482 L254 482 C141 482 66 410 66 310 C66 261 84 219 115 189 C73 174 44 139 44 93 C44 57 61 29 91 11 C48 -10 24 -47 24 -95 C24 -181 99 -236 249 -236 C413 -236 489 -173 489 -73 C489 15 433 65 334 65 L182 65 C145 65 124 80 124 106 C124 130 142 149 169 154 C194 144 222 138 254 138 C367 138 442 210 442 310 C442 354 428 392 402 421 L489 428 L489 482 Z M254 208 C188 208 148 249 148 310 C148 372 188 413 254 413 C320 413 360 372 360 310 C360 249 320 208 254 208 L254 208 Z M405 -75 C405 -129 362 -161 255 -161 C151 -161 108 -131 108 -82 C108 -41 138 -12 184 -12 L316 -12 C381 -12 405 -35 405 -75 L405 -75 Z " />
<glyph glyph-name="Gbreve" unicode="&#x11e;" horiz-adv-x="781" d="M400 770 C490 770 543 823 543 909 L543 914 L467 914 C467 858 441 832 400 832 C359 832 333 858 333 914 L257 914 L257 909 C257 823 310 770 400 770 L400 770 Z M410 280 L627 280 C612 149 520 71 398 71 C254 71 147 178 147 350 C147 522 254 629 403 629 C515 629 596 569 615 470 L711 470 C685 620 561 712 401 712 C200 712 53 564 53 349 C53 134 199 -12 389 -12 C490 -12 578 30 624 104 L627 104 L638 0 L711 0 L711 362 L410 362 L410 280 Z " />
<glyph glyph-name="gbreve" unicode="&#x11f;" horiz-adv-x="501" d="M260 544 C345 544 395 594 395 675 L395 680 L323 680 C323 627 299 603 260 603 C221 603 197 627 197 680 L125 680 L125 675 C125 594 175 544 260 544 L260 544 Z M489 482 L254 482 C141 482 66 410 66 310 C66 261 84 219 115 189 C73 174 44 139 44 93 C44 57 61 29 91 11 C48 -10 24 -47 24 -95 C24 -181 99 -236 249 -236 C413 -236 489 -173 489 -73 C489 15 433 65 334 65 L182 65 C145 65 124 80 124 106 C124 130 142 149 169 154 C194 144 222 138 254 138 C367 138 442 210 442 310 C442 354 428 392 402 421 L489 428 L489 482 Z M254 208 C188 208 148 249 148 310 C148 372 188 413 254 413 C320 413 360 372 360 310 C360 249 320 208 254 208 L254 208 Z M405 -75 C405 -129 362 -161 255 -161 C151 -161 108 -131 108 -82 C108 -41 138 -12 184 -12 L316 -12 C381 -12 405 -35 405 -75 L405 -75 Z " />
<glyph glyph-name="Gdotaccent" unicode="&#x120;" horiz-adv-x="781" d="M400 780 C435 780 464 808 464 844 C464 880 435 908 400 908 C365 908 336 880 336 844 C336 808 365 780 400 780 L400 780 Z M410 280 L627 280 C612 149 520 71 398 71 C254 71 147 178 147 350 C147 522 254 629 403 629 C515 629 596 569 615 470 L711 470 C685 620 561 712 401 712 C200 712 53 564 53 349 C53 134 199 -12 389 -12 C490 -12 578 30 624 104 L627 104 L638 0 L711 0 L711 362 L410 362 L410 280 Z " />
<glyph glyph-name="gdotaccent" unicode="&#x121;" horiz-adv-x="501" d="M260 554 C293 554 320 580 320 614 C320 648 293 674 260 674 C227 674 200 648 200 614 C200 580 227 554 260 554 L260 554 Z M489 482 L254 482 C141 482 66 410 66 310 C66 261 84 219 115 189 C73 174 44 139 44 93 C44 57 61 29 91 11 C48 -10 24 -47 24 -95 C24 -181 99 -236 249 -236 C413 -236 489 -173 489 -73 C489 15 433 65 334 65 L182 65 C145 65 124 80 124 106 C124 130 142 149 169 154 C194 144 222 138 254 138 C367 138 442 210 442 310 C442 354 428 392 402 421 L489 428 L489 482 Z M254 208 C188 208 148 249 148 310 C148 372 188 413 254 413 C320 413 360 372 360 310 C360 249 320 208 254 208 L254 208 Z M405 -75 C405 -129 362 -161 255 -161 C151 -161 108 -131 108 -82 C108 -41 138 -12 184 -12 L316 -12 C381 -12 405 -35 405 -75 L405 -75 Z " />
<glyph glyph-name="uni0122" unicode="&#x122;" horiz-adv-x="781" d="M410 280 L627 280 C612 149 520 71 398 71 C254 71 147 178 147 350 C147 522 254 629 403 629 C515 629 596 569 615 470 L711 470 C685 620 561 712 401 712 C200 712 53 564 53 349 C53 134 199 -12 389 -12 C490 -12 578 30 624 104 L627 104 L638 0 L711 0 L711 362 L410 362 L410 280 Z M392 -79 C357 -79 331 -105 331 -136 C331 -169 355 -194 388 -194 C394 -194 399 -193 404 -192 C404 -212 398 -231 384 -252 L439 -252 C456 -225 463 -196 463 -170 C463 -112 432 -79 392 -79 L392 -79 Z " />
<glyph glyph-name="uni0123" unicode="&#x123;" horiz-adv-x="501" d="M265 549 C300 549 326 575 326 606 C326 639 302 664 269 664 C263 664 258 663 253 662 C253 682 259 701 273 722 L218 722 C201 695 194 666 194 640 C194 582 225 549 265 549 L265 549 Z M489 482 L254 482 C141 482 66 410 66 310 C66 261 84 219 115 189 C73 174 44 139 44 93 C44 57 61 29 91 11 C48 -10 24 -47 24 -95 C24 -181 99 -236 249 -236 C413 -236 489 -173 489 -73 C489 15 433 65 334 65 L182 65 C145 65 124 80 124 106 C124 130 142 149 169 154 C194 144 222 138 254 138 C367 138 442 210 442 310 C442 354 428 392 402 421 L489 428 L489 482 Z M254 208 C188 208 148 249 148 310 C148 372 188 413 254 413 C320 413 360 372 360 310 C360 249 320 208 254 208 L254 208 Z M405 -75 C405 -129 362 -161 255 -161 C151 -161 108 -131 108 -82 C108 -41 138 -12 184 -12 L316 -12 C381 -12 405 -35 405 -75 L405 -75 Z " />
<glyph glyph-name="Hcircumflex" unicode="&#x124;" horiz-adv-x="710" d="M355 862 L431 770 L520 770 L396 918 L314 918 L190 770 L279 770 L355 862 Z M522 700 L522 382 L188 382 L188 700 L96 700 L96 0 L188 0 L188 298 L522 298 L522 0 L614 0 L614 700 L522 700 Z " />
<glyph glyph-name="hcircumflex" unicode="&#x125;" horiz-adv-x="563" d="M198 770 L287 770 L163 918 L81 918 L-43 770 L46 770 L122 862 L198 770 Z M319 482 C252 482 200 454 169 407 L166 407 L166 700 L78 700 L78 0 L166 0 L166 256 C166 355 217 404 295 404 C363 404 401 367 401 263 L401 0 L489 0 L489 297 C489 415 422 482 319 482 L319 482 Z " />
<glyph glyph-name="Hbar" unicode="&#x126;" horiz-adv-x="740" d="M720 564 L629 564 L629 700 L537 700 L537 564 L203 564 L203 700 L111 700 L111 564 L20 564 L20 494 L111 494 L111 0 L203 0 L203 298 L537 298 L537 0 L629 0 L629 494 L720 494 L720 564 Z M537 382 L203 382 L203 494 L537 494 L537 382 Z " />
<glyph glyph-name="hbar" unicode="&#x127;" horiz-adv-x="563" d="M319 482 C252 482 200 454 169 407 L166 407 L166 543 L313 543 L313 609 L166 609 L166 700 L78 700 L78 609 L-21 609 L-21 543 L78 543 L78 0 L166 0 L166 256 C166 355 217 404 295 404 C363 404 401 367 401 263 L401 0 L489 0 L489 297 C489 415 422 482 319 482 L319 482 Z " />
<glyph glyph-name="Itilde" unicode="&#x128;" horiz-adv-x="284" d="M214 768 C271 768 313 815 313 913 L248 913 C248 855 232 833 213 833 C202 833 188 840 163 868 C131 905 104 921 71 921 C14 921 -28 874 -28 776 L37 776 C37 834 53 856 72 856 C84 856 97 848 122 821 C155 784 181 768 214 768 L214 768 Z M96 0 L188 0 L188 700 L96 700 L96 0 Z " />
<glyph glyph-name="itilde" unicode="&#x129;" horiz-adv-x="244" d="M187 542 C237 542 274 587 274 679 L216 679 C216 624 201 604 186 604 C176 604 165 610 142 637 C112 672 88 687 57 687 C7 687 -30 642 -30 550 L28 550 C28 605 43 625 58 625 C69 625 80 618 103 592 C134 557 156 542 187 542 L187 542 Z M78 0 L166 0 L166 470 L78 470 L78 0 Z " />
<glyph glyph-name="Imacron" unicode="&#x12a;" horiz-adv-x="284" d="M3 803 L281 803 L281 875 L3 875 L3 803 Z M96 0 L188 0 L188 700 L96 700 L96 0 Z " />
<glyph glyph-name="imacron" unicode="&#x12b;" horiz-adv-x="244" d="M0 575 L244 575 L244 643 L0 643 L0 575 Z M78 0 L166 0 L166 470 L78 470 L78 0 Z " />
<glyph glyph-name="Ibreve" unicode="&#x12c;" horiz-adv-x="284" d="M142 770 C232 770 285 823 285 909 L285 914 L209 914 C209 858 183 832 142 832 C101 832 75 858 75 914 L-1 914 L-1 909 C-1 823 52 770 142 770 L142 770 Z M96 0 L188 0 L188 700 L96 700 L96 0 Z " />
<glyph glyph-name="ibreve" unicode="&#x12d;" horiz-adv-x="244" d="M122 544 C204 544 249 594 249 675 L249 680 L182 680 C182 627 158 603 122 603 C86 603 62 627 62 680 L-5 680 L-5 675 C-5 594 40 544 122 544 L122 544 Z M78 0 L166 0 L166 470 L78 470 L78 0 Z " />
<glyph glyph-name="Iogonek" unicode="&#x12e;" horiz-adv-x="284" d="M188 700 L96 700 L96 0 L128 0 C77 -29 47 -78 47 -124 C47 -177 88 -214 149 -214 C163 -214 176 -212 188 -209 L188 -140 C178 -143 170 -144 163 -144 C139 -144 124 -132 124 -104 C124 -79 136 -52 188 0 L188 700 Z " />
<glyph glyph-name="iogonek" unicode="&#x12f;" horiz-adv-x="244" d="M122 554 C155 554 182 580 182 614 C182 648 155 674 122 674 C89 674 62 648 62 614 C62 580 89 554 122 554 L122 554 Z M78 0 L106 0 C55 -29 25 -78 25 -124 C25 -177 66 -214 127 -214 C141 -214 154 -212 166 -209 L166 -140 C156 -143 148 -144 141 -144 C117 -144 102 -132 102 -104 C102 -79 114 -52 166 0 L166 470 L78 470 L78 0 Z " />
<glyph glyph-name="Idotaccent" unicode="&#x130;" horiz-adv-x="284" d="M142 780 C177 780 206 808 206 844 C206 880 177 908 142 908 C107 908 78 880 78 844 C78 808 107 780 142 780 L142 780 Z M96 0 L188 0 L188 700 L96 700 L96 0 Z " />
<glyph glyph-name="dotlessi" unicode="&#x131;" horiz-adv-x="244" d="M78 0 L166 0 L166 470 L78 470 L78 0 Z " />
<glyph glyph-name="Jcircumflex" unicode="&#x134;" horiz-adv-x="604" d="M321 862 L397 770 L486 770 L362 918 L280 918 L156 770 L245 770 L321 862 Z M130 700 L130 616 L426 616 L426 245 C426 125 374 72 280 72 C186 72 134 123 134 245 L134 316 L42 316 L42 239 C42 71 130 -12 280 -12 C430 -12 518 71 518 239 L518 700 L130 700 Z " />
<glyph glyph-name="jcircumflex" unicode="&#x135;" horiz-adv-x="244" d="M157 684 L87 684 L-20 544 L60 544 L122 628 L184 544 L264 544 L157 684 Z M78 -84 C78 -142 59 -160 12 -160 C1 -160 -10 -159 -18 -158 L-18 -231 C-5 -234 11 -236 31 -236 C123 -236 166 -192 166 -84 L166 470 L78 470 L78 -84 Z " />
<glyph glyph-name="uni0136" unicode="&#x136;" horiz-adv-x="629" d="M282 352 L609 700 L495 700 L191 375 L188 375 L188 700 L96 700 L96 0 L188 0 L188 319 L191 319 L495 0 L617 0 L282 352 Z M330 -79 C295 -79 269 -105 269 -136 C269 -169 293 -194 326 -194 C332 -194 337 -193 342 -192 C342 -212 336 -231 322 -252 L377 -252 C394 -225 401 -196 401 -170 C401 -112 370 -79 330 -79 L330 -79 Z " />
<glyph glyph-name="uni0137" unicode="&#x137;" horiz-adv-x="505" d="M259 248 L490 470 L377 470 L168 269 L166 269 L166 700 L78 700 L78 0 L166 0 L166 223 L169 223 L381 0 L496 0 L259 248 Z M259 -79 C224 -79 198 -105 198 -136 C198 -169 222 -194 255 -194 C261 -194 266 -193 271 -192 C271 -212 265 -231 251 -252 L306 -252 C323 -225 330 -196 330 -170 C330 -112 299 -79 259 -79 L259 -79 Z " />
<glyph glyph-name="Lacute" unicode="&#x139;" horiz-adv-x="540" d="M268 918 L153 918 L82 770 L163 770 L268 918 Z M188 84 L188 700 L96 700 L96 0 L508 0 L508 84 L188 84 Z " />
<glyph glyph-name="lacute" unicode="&#x13a;" horiz-adv-x="244" d="M62 770 L143 770 L248 918 L133 918 L62 770 Z M78 0 L166 0 L166 700 L78 700 L78 0 Z " />
<glyph glyph-name="uni013B" unicode="&#x13b;" horiz-adv-x="540" d="M188 84 L188 700 L96 700 L96 0 L508 0 L508 84 L188 84 Z M304 -79 C269 -79 243 -105 243 -136 C243 -169 267 -194 300 -194 C306 -194 311 -193 316 -192 C316 -212 310 -231 296 -252 L351 -252 C368 -225 375 -196 375 -170 C375 -112 344 -79 304 -79 L304 -79 Z " />
<glyph glyph-name="uni013C" unicode="&#x13c;" horiz-adv-x="244" d="M166 700 L78 700 L78 0 L166 0 L166 700 Z M117 -79 C82 -79 56 -105 56 -136 C56 -169 80 -194 113 -194 C119 -194 124 -193 129 -192 C129 -212 123 -231 109 -252 L164 -252 C181 -225 188 -196 188 -170 C188 -112 157 -79 117 -79 L117 -79 Z " />
<glyph glyph-name="Lcaron" unicode="&#x13d;" horiz-adv-x="540" d="M349 597 C355 597 360 598 365 599 C366 568 349 539 306 501 L337 468 C397 513 424 566 424 621 C424 679 393 712 353 712 C318 712 292 686 292 655 C292 622 316 597 349 597 L349 597 Z M188 84 L188 700 L96 700 L96 0 L508 0 L508 84 L188 84 Z " />
<glyph glyph-name="lcaron" unicode="&#x13e;" horiz-adv-x="322" d="M301 712 C266 712 240 686 240 655 C240 622 264 597 297 597 C303 597 308 598 313 599 C314 568 297 539 254 501 L285 468 C345 513 372 566 372 621 C372 679 341 712 301 712 L301 712 Z M78 0 L166 0 L166 700 L78 700 L78 0 Z " />
<glyph glyph-name="Ldot" unicode="&#x13f;" horiz-adv-x="560" d="M188 84 L188 700 L96 700 L96 0 L508 0 L508 84 L188 84 Z M378 239 C414 239 441 266 441 302 C441 338 414 365 378 365 C342 365 315 338 315 302 C315 266 342 239 378 239 L378 239 Z " />
<glyph glyph-name="ldot" unicode="&#x140;" horiz-adv-x="418" d="M78 0 L166 0 L166 700 L78 700 L78 0 Z M325 182 C361 182 388 209 388 245 C388 281 361 308 325 308 C289 308 262 281 262 245 C262 209 289 182 325 182 L325 182 Z " />
<glyph glyph-name="Lslash" unicode="&#x141;" horiz-adv-x="558" d="M206 84 L206 309 L385 439 L385 519 L206 389 L206 700 L114 700 L114 322 L-5 236 L-5 156 L114 242 L114 0 L526 0 L526 84 L206 84 Z " />
<glyph glyph-name="lslash" unicode="&#x142;" horiz-adv-x="332" d="M318 487 L210 409 L210 700 L122 700 L122 345 L14 267 L14 187 L122 265 L122 0 L210 0 L210 329 L318 407 L318 487 Z " />
<glyph glyph-name="Nacute" unicode="&#x143;" horiz-adv-x="747" d="M500 918 L385 918 L314 770 L395 770 L500 918 Z M559 700 L559 149 L556 149 L193 700 L96 700 L96 0 L188 0 L188 551 L191 551 L554 0 L651 0 L651 700 L559 700 Z " />
<glyph glyph-name="nacute" unicode="&#x144;" horiz-adv-x="563" d="M406 684 L297 684 L230 544 L307 544 L406 684 Z M319 482 C252 482 196 454 166 407 L163 407 L157 470 L78 470 L78 0 L166 0 L166 256 C166 355 217 404 295 404 C363 404 401 367 401 263 L401 0 L489 0 L489 297 C489 415 422 482 319 482 L319 482 Z " />
<glyph glyph-name="uni0145" unicode="&#x145;" horiz-adv-x="747" d="M559 700 L559 149 L556 149 L193 700 L96 700 L96 0 L188 0 L188 551 L191 551 L554 0 L651 0 L651 700 L559 700 Z M369 -79 C334 -79 308 -105 308 -136 C308 -169 332 -194 365 -194 C371 -194 376 -193 381 -192 C381 -212 375 -231 361 -252 L416 -252 C433 -225 440 -196 440 -170 C440 -112 409 -79 369 -79 L369 -79 Z " />
<glyph glyph-name="uni0146" unicode="&#x146;" horiz-adv-x="563" d="M319 482 C252 482 196 454 166 407 L163 407 L157 470 L78 470 L78 0 L166 0 L166 256 C166 355 217 404 295 404 C363 404 401 367 401 263 L401 0 L489 0 L489 297 C489 415 422 482 319 482 L319 482 Z M277 -79 C242 -79 216 -105 216 -136 C216 -169 240 -194 273 -194 C279 -194 284 -193 289 -192 C289 -212 283 -231 269 -252 L324 -252 C341 -225 348 -196 348 -170 C348 -112 317 -79 277 -79 L277 -79 Z " />
<glyph glyph-name="Ncaron" unicode="&#x147;" horiz-adv-x="747" d="M415 770 L539 918 L450 918 L374 826 L298 918 L209 918 L333 770 L415 770 Z M559 700 L559 149 L556 149 L193 700 L96 700 L96 0 L188 0 L188 551 L191 551 L554 0 L651 0 L651 700 L559 700 Z " />
<glyph glyph-name="ncaron" unicode="&#x148;" horiz-adv-x="563" d="M324 544 L441 684 L357 684 L285 597 L213 684 L129 684 L246 544 L324 544 Z M319 482 C252 482 196 454 166 407 L163 407 L157 470 L78 470 L78 0 L166 0 L166 256 C166 355 217 404 295 404 C363 404 401 367 401 263 L401 0 L489 0 L489 297 C489 415 422 482 319 482 L319 482 Z " />
<glyph glyph-name="Eng" unicode="&#x14a;" horiz-adv-x="747" d="M559 700 L559 149 L556 149 L193 700 L96 700 L96 0 L188 0 L188 551 L191 551 L554 0 L554 -31 C554 -80 535 -98 497 -98 C486 -98 475 -97 467 -96 L467 -178 C480 -181 496 -183 516 -183 C608 -183 651 -137 651 -31 L651 700 L559 700 Z " />
<glyph glyph-name="eng" unicode="&#x14b;" horiz-adv-x="563" d="M319 482 C252 482 196 454 166 407 L163 407 L157 470 L78 470 L78 0 L166 0 L166 256 C166 355 217 404 295 404 C363 404 401 367 401 263 L401 -7 C401 -65 382 -83 335 -83 C324 -83 313 -82 305 -81 L305 -154 C318 -157 334 -159 354 -159 C446 -159 489 -115 489 -7 L489 297 C489 415 422 482 319 482 L319 482 Z " />
<glyph glyph-name="Omacron" unicode="&#x14c;" horiz-adv-x="796" d="M259 803 L537 803 L537 875 L259 875 L259 803 Z M398 -12 C596 -12 743 138 743 350 C743 562 596 712 398 712 C200 712 53 562 53 350 C53 138 200 -12 398 -12 L398 -12 Z M398 72 C253 72 147 180 147 350 C147 520 253 628 398 628 C543 628 649 520 649 350 C649 180 543 72 398 72 L398 72 Z " />
<glyph glyph-name="omacron" unicode="&#x14d;" horiz-adv-x="580" d="M159 575 L421 575 L421 643 L159 643 L159 575 Z M290 -12 C429 -12 532 90 532 235 C532 380 429 482 290 482 C151 482 48 380 48 235 C48 90 151 -12 290 -12 L290 -12 Z M290 64 C202 64 138 132 138 235 C138 338 202 406 290 406 C378 406 442 338 442 235 C442 132 378 64 290 64 L290 64 Z " />
<glyph glyph-name="Obreve" unicode="&#x14e;" horiz-adv-x="796" d="M398 770 C488 770 541 823 541 909 L541 914 L465 914 C465 858 439 832 398 832 C357 832 331 858 331 914 L255 914 L255 909 C255 823 308 770 398 770 L398 770 Z M398 -12 C596 -12 743 138 743 350 C743 562 596 712 398 712 C200 712 53 562 53 350 C53 138 200 -12 398 -12 L398 -12 Z M398 72 C253 72 147 180 147 350 C147 520 253 628 398 628 C543 628 649 520 649 350 C649 180 543 72 398 72 L398 72 Z " />
<glyph glyph-name="obreve" unicode="&#x14f;" horiz-adv-x="580" d="M290 544 C375 544 425 594 425 675 L425 680 L353 680 C353 627 329 603 290 603 C251 603 227 627 227 680 L155 680 L155 675 C155 594 205 544 290 544 L290 544 Z M290 -12 C429 -12 532 90 532 235 C532 380 429 482 290 482 C151 482 48 380 48 235 C48 90 151 -12 290 -12 L290 -12 Z M290 64 C202 64 138 132 138 235 C138 338 202 406 290 406 C378 406 442 338 442 235 C442 132 378 64 290 64 L290 64 Z " />
<glyph glyph-name="Ohungarumlaut" unicode="&#x150;" horiz-adv-x="796" d="M255 770 L325 770 L413 918 L317 918 L255 770 Z M421 770 L491 770 L579 918 L484 918 L421 770 Z M398 -12 C596 -12 743 138 743 350 C743 562 596 712 398 712 C200 712 53 562 53 350 C53 138 200 -12 398 -12 L398 -12 Z M398 72 C253 72 147 180 147 350 C147 520 253 628 398 628 C543 628 649 520 649 350 C649 180 543 72 398 72 L398 72 Z " />
<glyph glyph-name="ohungarumlaut" unicode="&#x151;" horiz-adv-x="580" d="M156 544 L222 544 L305 684 L215 684 L156 544 Z M313 544 L379 544 L462 684 L372 684 L313 544 Z M290 -12 C429 -12 532 90 532 235 C532 380 429 482 290 482 C151 482 48 380 48 235 C48 90 151 -12 290 -12 L290 -12 Z M290 64 C202 64 138 132 138 235 C138 338 202 406 290 406 C378 406 442 338 442 235 C442 132 378 64 290 64 L290 64 Z " />
<glyph glyph-name="OE" unicode="&#x152;" horiz-adv-x="998" d="M932 616 L932 700 L426 700 C204 700 54 565 54 350 C54 135 204 0 426 0 L932 0 L932 84 L598 84 L598 310 L904 310 L904 394 L598 394 L598 616 L932 616 Z M422 84 C258 84 148 178 148 350 C148 522 258 616 422 616 L506 616 L506 84 L422 84 Z " />
<glyph glyph-name="oe" unicode="&#x153;" horiz-adv-x="953" d="M907 252 C907 391 814 482 684 482 C602 482 532 446 490 383 L486 383 C443 446 373 482 290 482 C151 482 48 380 48 235 C48 90 151 -12 290 -12 C372 -12 441 23 484 86 L488 86 C529 23 598 -12 682 -12 C789 -12 875 45 900 138 L817 138 C793 90 745 64 684 64 C602 64 539 115 532 214 L904 214 C906 227 907 238 907 252 L907 252 Z M684 409 C756 409 807 368 818 283 L536 283 C552 364 609 409 684 409 L684 409 Z M290 64 C202 64 138 132 138 235 C138 338 202 406 290 406 C378 406 442 338 442 235 C442 132 378 64 290 64 L290 64 Z " />
<glyph glyph-name="Racute" unicode="&#x154;" horiz-adv-x="649" d="M427 918 L312 918 L241 770 L322 770 L427 918 Z M482 0 L595 0 L405 253 C518 280 586 360 586 472 C586 610 483 700 319 700 L96 700 L96 0 L188 0 L188 244 L301 244 L482 0 Z M188 616 L319 616 C432 616 492 564 492 472 C492 380 432 328 319 328 L188 328 L188 616 Z " />
<glyph glyph-name="racute" unicode="&#x155;" horiz-adv-x="367" d="M325 684 L216 684 L149 544 L226 544 L325 684 Z M296 479 C238 479 188 448 166 398 L163 398 L156 470 L78 470 L78 0 L166 0 L166 246 C166 349 215 398 302 398 C315 398 329 397 343 395 L343 471 C330 476 314 479 296 479 L296 479 Z " />
<glyph glyph-name="uni0156" unicode="&#x156;" horiz-adv-x="649" d="M405 253 C518 280 586 360 586 472 C586 610 483 700 319 700 L96 700 L96 0 L188 0 L188 244 L301 244 L482 0 L595 0 L405 253 Z M188 616 L319 616 C432 616 492 564 492 472 C492 380 432 328 319 328 L188 328 L188 616 Z M320 -79 C285 -79 259 -105 259 -136 C259 -169 283 -194 316 -194 C322 -194 327 -193 332 -192 C332 -212 326 -231 312 -252 L367 -252 C384 -225 391 -196 391 -170 C391 -112 360 -79 320 -79 L320 -79 Z " />
<glyph glyph-name="uni0157" unicode="&#x157;" horiz-adv-x="367" d="M296 479 C238 479 188 448 166 398 L163 398 L156 470 L78 470 L78 0 L166 0 L166 246 C166 349 215 398 302 398 C315 398 329 397 343 395 L343 471 C330 476 314 479 296 479 L296 479 Z M117 -79 C82 -79 56 -105 56 -136 C56 -169 80 -194 113 -194 C119 -194 124 -193 129 -192 C129 -212 123 -231 109 -252 L164 -252 C181 -225 188 -196 188 -170 C188 -112 157 -79 117 -79 L117 -79 Z " />
<glyph glyph-name="Rcaron" unicode="&#x158;" horiz-adv-x="649" d="M342 770 L466 918 L377 918 L301 826 L225 918 L136 918 L260 770 L342 770 Z M482 0 L595 0 L405 253 C518 280 586 360 586 472 C586 610 483 700 319 700 L96 700 L96 0 L188 0 L188 244 L301 244 L482 0 Z M188 616 L319 616 C432 616 492 564 492 472 C492 380 432 328 319 328 L188 328 L188 616 Z " />
<glyph glyph-name="rcaron" unicode="&#x159;" horiz-adv-x="367" d="M239 544 L346 684 L266 684 L204 600 L142 684 L62 684 L169 544 L239 544 Z M166 398 L163 398 L156 470 L78 470 L78 0 L166 0 L166 246 C166 349 215 398 302 398 C315 398 329 397 343 395 L343 471 C330 476 314 479 296 479 C238 479 188 448 166 398 L166 398 Z " />
<glyph glyph-name="Sacute" unicode="&#x15a;" horiz-adv-x="596" d="M233 770 L314 770 L419 918 L304 918 L233 770 Z M303 -12 C449 -12 552 76 552 203 C552 296 497 356 362 386 L298 400 C184 425 149 456 149 512 C149 582 205 629 295 629 C378 629 435 589 448 500 L542 500 C530 633 435 712 297 712 C156 712 56 627 56 508 C56 415 116 352 245 324 L309 310 C424 285 459 250 459 195 C459 123 399 71 306 71 C215 71 149 121 140 220 L46 220 C50 77 157 -12 303 -12 L303 -12 Z " />
<glyph glyph-name="sacute" unicode="&#x15b;" horiz-adv-x="462" d="M176 544 L253 544 L352 684 L243 684 L176 544 Z M237 -12 C354 -12 423 50 423 138 C423 210 380 252 285 270 L228 281 C151 296 134 314 134 343 C134 384 169 411 229 411 C288 411 322 385 327 341 L415 341 C407 431 340 482 234 482 C119 482 49 421 49 338 C49 270 93 228 186 210 L243 199 C314 185 338 164 338 131 C338 89 299 59 238 59 C178 59 137 88 130 142 L42 142 C49 47 123 -12 237 -12 L237 -12 Z " />
<glyph glyph-name="Scircumflex" unicode="&#x15c;" horiz-adv-x="596" d="M293 862 L369 770 L458 770 L334 918 L252 918 L128 770 L217 770 L293 862 Z M362 386 L298 400 C184 425 149 456 149 512 C149 582 205 629 295 629 C378 629 435 589 448 500 L542 500 C530 633 435 712 297 712 C156 712 56 627 56 508 C56 415 116 352 245 324 L309 310 C424 285 459 250 459 195 C459 123 399 71 306 71 C215 71 149 121 140 220 L46 220 C50 77 157 -12 303 -12 C449 -12 552 76 552 203 C552 296 497 356 362 386 L362 386 Z " />
<glyph glyph-name="scircumflex" unicode="&#x15d;" horiz-adv-x="462" d="M231 631 L303 544 L387 544 L270 684 L192 684 L75 544 L159 544 L231 631 Z M285 270 L228 281 C151 296 134 314 134 343 C134 384 169 411 229 411 C288 411 322 385 327 341 L415 341 C407 431 340 482 234 482 C119 482 49 421 49 338 C49 270 93 228 186 210 L243 199 C314 185 338 164 338 131 C338 89 299 59 238 59 C178 59 137 88 130 142 L42 142 C49 47 123 -12 237 -12 C354 -12 423 50 423 138 C423 210 380 252 285 270 L285 270 Z " />
<glyph glyph-name="Scedilla" unicode="&#x15e;" horiz-adv-x="596" d="M552 203 C552 296 497 356 362 386 L298 400 C184 425 149 456 149 512 C149 582 205 629 295 629 C378 629 435 589 448 500 L542 500 C530 633 435 712 297 712 C156 712 56 627 56 508 C56 415 116 352 245 324 L309 310 C424 285 459 250 459 195 C459 123 399 71 306 71 C215 71 149 121 140 220 L46 220 C50 91 137 6 261 -9 L254 -101 C326 -101 338 -112 338 -129 C338 -149 321 -162 278 -162 C268 -162 255 -162 241 -160 L241 -223 C256 -225 271 -226 284 -226 C367 -226 410 -189 410 -135 C410 -88 378 -59 323 -53 L324 -11 C459 -3 552 82 552 203 L552 203 Z " />
<glyph glyph-name="scedilla" unicode="&#x15f;" horiz-adv-x="462" d="M423 138 C423 210 380 252 285 270 L228 281 C151 296 134 314 134 343 C134 384 169 411 229 411 C288 411 322 385 327 341 L415 341 C407 431 340 482 234 482 C119 482 49 421 49 338 C49 270 93 228 186 210 L243 199 C314 185 338 164 338 131 C338 89 299 59 238 59 C178 59 137 88 130 142 L42 142 C48 60 104 5 192 -9 L185 -101 C257 -101 269 -112 269 -129 C269 -149 252 -162 209 -162 C199 -162 186 -162 172 -160 L172 -223 C187 -225 202 -226 215 -226 C298 -226 341 -189 341 -135 C341 -88 309 -59 254 -53 L255 -12 C361 -6 423 55 423 138 L423 138 Z " />
<glyph glyph-name="Scaron" unicode="&#x160;" horiz-adv-x="596" d="M334 770 L458 918 L369 918 L293 826 L217 918 L128 918 L252 770 L334 770 Z M362 386 L298 400 C184 425 149 456 149 512 C149 582 205 629 295 629 C378 629 435 589 448 500 L542 500 C530 633 435 712 297 712 C156 712 56 627 56 508 C56 415 116 352 245 324 L309 310 C424 285 459 250 459 195 C459 123 399 71 306 71 C215 71 149 121 140 220 L46 220 C50 77 157 -12 303 -12 C449 -12 552 76 552 203 C552 296 497 356 362 386 L362 386 Z " />
<glyph glyph-name="scaron" unicode="&#x161;" horiz-adv-x="462" d="M270 544 L387 684 L303 684 L231 597 L159 684 L75 684 L192 544 L270 544 Z M285 270 L228 281 C151 296 134 314 134 343 C134 384 169 411 229 411 C288 411 322 385 327 341 L415 341 C407 431 340 482 234 482 C119 482 49 421 49 338 C49 270 93 228 186 210 L243 199 C314 185 338 164 338 131 C338 89 299 59 238 59 C178 59 137 88 130 142 L42 142 C49 47 123 -12 237 -12 C354 -12 423 50 423 138 C423 210 380 252 285 270 L285 270 Z " />
<glyph glyph-name="uni0162" unicode="&#x162;" horiz-adv-x="564" d="M22 700 L22 616 L236 616 L236 0 L328 0 L328 616 L542 616 L542 700 L22 700 Z M277 -79 C242 -79 216 -105 216 -136 C216 -169 240 -194 273 -194 C279 -194 284 -193 289 -192 C289 -212 283 -231 269 -252 L324 -252 C341 -225 348 -196 348 -170 C348 -112 317 -79 277 -79 L277 -79 Z " />
<glyph glyph-name="uni0163" unicode="&#x163;" horiz-adv-x="361" d="M282 63 C216 63 190 85 190 164 L190 395 L323 395 L323 470 L190 470 L190 589 L102 589 L102 470 L16 470 L16 395 L102 395 L102 164 C102 37 155 -12 264 -12 C291 -12 312 -9 327 -5 L327 67 C312 64 296 63 282 63 L282 63 Z M214 -79 C179 -79 153 -105 153 -136 C153 -169 177 -194 210 -194 C216 -194 221 -193 226 -192 C226 -212 220 -231 206 -252 L261 -252 C278 -225 285 -196 285 -170 C285 -112 254 -79 214 -79 L214 -79 Z " />
<glyph glyph-name="Tcaron" unicode="&#x164;" horiz-adv-x="564" d="M323 770 L447 918 L358 918 L282 826 L206 918 L117 918 L241 770 L323 770 Z M542 700 L22 700 L22 616 L236 616 L236 0 L328 0 L328 616 L542 616 L542 700 Z " />
<glyph glyph-name="tcaron" unicode="&#x165;" horiz-adv-x="361" d="M287 737 C252 737 226 711 226 680 C226 647 250 622 283 622 C289 622 294 623 299 624 C299 604 293 585 279 564 L334 564 C351 591 358 620 358 646 C358 704 327 737 287 737 L287 737 Z M190 164 L190 395 L323 395 L323 470 L190 470 L190 589 L102 589 L102 470 L16 470 L16 395 L102 395 L102 164 C102 37 155 -12 264 -12 C291 -12 312 -9 327 -5 L327 67 C312 64 296 63 282 63 C216 63 190 85 190 164 L190 164 Z " />
<glyph glyph-name="Tbar" unicode="&#x166;" horiz-adv-x="564" d="M542 616 L542 700 L22 700 L22 616 L236 616 L236 354 L105 354 L105 280 L236 280 L236 0 L328 0 L328 280 L459 280 L459 354 L328 354 L328 616 L542 616 Z " />
<glyph glyph-name="tbar" unicode="&#x167;" horiz-adv-x="373" d="M288 63 C222 63 196 85 196 164 L196 206 L329 206 L329 270 L196 270 L196 395 L329 395 L329 470 L196 470 L196 589 L108 589 L108 470 L22 470 L22 395 L108 395 L108 270 L22 270 L22 206 L108 206 L108 164 C108 37 161 -12 270 -12 C297 -12 318 -9 333 -5 L333 67 C318 64 302 63 288 63 L288 63 Z " />
<glyph glyph-name="Utilde" unicode="&#x168;" horiz-adv-x="706" d="M425 768 C482 768 524 815 524 913 L459 913 C459 855 443 833 424 833 C413 833 399 840 374 868 C342 905 315 921 282 921 C225 921 183 874 183 776 L248 776 C248 834 264 856 283 856 C295 856 308 848 333 821 C366 784 392 768 425 768 L425 768 Z M353 -12 C516 -12 620 98 620 274 L620 700 L528 700 L528 270 C528 142 460 72 353 72 C246 72 178 142 178 270 L178 700 L86 700 L86 274 C86 98 190 -12 353 -12 L353 -12 Z " />
<glyph glyph-name="utilde" unicode="&#x169;" horiz-adv-x="557" d="M213 625 C224 625 237 618 260 592 C291 557 316 542 347 542 C401 542 440 587 440 679 L379 679 C379 624 364 604 346 604 C336 604 322 610 299 637 C269 672 243 687 212 687 C158 687 119 642 119 550 L180 550 C180 605 195 625 213 625 L213 625 Z M391 470 L391 214 C391 115 340 66 265 66 C200 66 162 103 162 207 L162 470 L74 470 L74 173 C74 54 144 -12 241 -12 C304 -12 361 16 391 63 L394 63 L400 0 L479 0 L479 470 L391 470 Z " />
<glyph glyph-name="Umacron" unicode="&#x16a;" horiz-adv-x="706" d="M214 803 L492 803 L492 875 L214 875 L214 803 Z M353 -12 C516 -12 620 98 620 274 L620 700 L528 700 L528 270 C528 142 460 72 353 72 C246 72 178 142 178 270 L178 700 L86 700 L86 274 C86 98 190 -12 353 -12 L353 -12 Z " />
<glyph glyph-name="umacron" unicode="&#x16b;" horiz-adv-x="557" d="M410 643 L148 643 L148 575 L410 575 L410 643 Z M391 470 L391 214 C391 115 340 66 265 66 C200 66 162 103 162 207 L162 470 L74 470 L74 173 C74 54 144 -12 241 -12 C304 -12 361 16 391 63 L394 63 L400 0 L479 0 L479 470 L391 470 Z " />
<glyph glyph-name="Ubreve" unicode="&#x16c;" horiz-adv-x="706" d="M353 770 C443 770 496 823 496 909 L496 914 L420 914 C420 858 394 832 353 832 C312 832 286 858 286 914 L210 914 L210 909 C210 823 263 770 353 770 L353 770 Z M353 -12 C516 -12 620 98 620 274 L620 700 L528 700 L528 270 C528 142 460 72 353 72 C246 72 178 142 178 270 L178 700 L86 700 L86 274 C86 98 190 -12 353 -12 L353 -12 Z " />
<glyph glyph-name="ubreve" unicode="&#x16d;" horiz-adv-x="557" d="M279 544 C364 544 414 594 414 675 L414 680 L342 680 C342 627 318 603 279 603 C240 603 216 627 216 680 L144 680 L144 675 C144 594 194 544 279 544 L279 544 Z M391 470 L391 214 C391 115 340 66 265 66 C200 66 162 103 162 207 L162 470 L74 470 L74 173 C74 54 144 -12 241 -12 C304 -12 361 16 391 63 L394 63 L400 0 L479 0 L479 470 L391 470 Z " />
<glyph glyph-name="Uring" unicode="&#x16e;" horiz-adv-x="706" d="M353 761 C417 761 465 808 465 868 C465 928 417 975 353 975 C289 975 241 928 241 868 C241 808 289 761 353 761 L353 761 Z M353 821 C324 821 306 842 306 868 C306 894 324 915 353 915 C382 915 400 894 400 868 C400 842 382 821 353 821 L353 821 Z M353 -12 C516 -12 620 98 620 274 L620 700 L528 700 L528 270 C528 142 460 72 353 72 C246 72 178 142 178 270 L178 700 L86 700 L86 274 C86 98 190 -12 353 -12 L353 -12 Z " />
<glyph glyph-name="uring" unicode="&#x16f;" horiz-adv-x="557" d="M279 537 C339 537 385 581 385 638 C385 695 339 739 279 739 C219 739 173 695 173 638 C173 581 219 537 279 537 L279 537 Z M279 682 C306 682 323 663 323 638 C323 613 306 594 279 594 C252 594 235 613 235 638 C235 663 252 682 279 682 L279 682 Z M391 470 L391 214 C391 115 340 66 265 66 C200 66 162 103 162 207 L162 470 L74 470 L74 173 C74 54 144 -12 241 -12 C304 -12 361 16 391 63 L394 63 L400 0 L479 0 L479 470 L391 470 Z " />
<glyph glyph-name="Uhungarumlaut" unicode="&#x170;" horiz-adv-x="706" d="M210 770 L280 770 L368 918 L272 918 L210 770 Z M376 770 L446 770 L534 918 L439 918 L376 770 Z M353 -12 C516 -12 620 98 620 274 L620 700 L528 700 L528 270 C528 142 460 72 353 72 C246 72 178 142 178 270 L178 700 L86 700 L86 274 C86 98 190 -12 353 -12 L353 -12 Z " />
<glyph glyph-name="uhungarumlaut" unicode="&#x171;" horiz-adv-x="557" d="M294 684 L204 684 L145 544 L211 544 L294 684 Z M451 684 L361 684 L302 544 L368 544 L451 684 Z M391 470 L391 214 C391 115 340 66 265 66 C200 66 162 103 162 207 L162 470 L74 470 L74 173 C74 54 144 -12 241 -12 C304 -12 361 16 391 63 L394 63 L400 0 L479 0 L479 470 L391 470 Z " />
<glyph glyph-name="Uogonek" unicode="&#x172;" horiz-adv-x="706" d="M528 700 L528 270 C528 142 460 72 353 72 C246 72 178 142 178 270 L178 700 L86 700 L86 274 C86 100 187 -9 347 -12 C304 -42 281 -83 281 -125 C281 -186 327 -225 400 -225 C417 -225 433 -223 447 -220 L447 -146 C435 -150 423 -151 414 -151 C380 -151 364 -137 364 -109 C364 -79 384 -46 447 2 C555 37 620 135 620 274 L620 700 L528 700 Z " />
<glyph glyph-name="uogonek" unicode="&#x173;" horiz-adv-x="557" d="M479 0 L479 470 L391 470 L391 214 C391 115 340 66 265 66 C200 66 162 103 162 207 L162 470 L74 470 L74 173 C74 54 144 -12 241 -12 C304 -12 361 16 391 63 L394 63 L400 0 L407 0 C352 -28 323 -73 323 -120 C323 -177 366 -214 435 -214 C451 -214 466 -212 479 -209 L479 -140 C468 -143 457 -144 448 -144 C416 -144 401 -131 401 -105 C401 -76 420 -45 479 0 L479 0 Z " />
<glyph glyph-name="Wcircumflex" unicode="&#x174;" horiz-adv-x="1001" d="M501 862 L577 770 L666 770 L542 918 L460 918 L336 770 L425 770 L501 862 Z M887 700 L716 141 L713 141 L545 700 L456 700 L288 141 L285 141 L114 700 L21 700 L238 0 L330 0 L499 566 L502 566 L671 0 L763 0 L980 700 L887 700 Z " />
<glyph glyph-name="wcircumflex" unicode="&#x175;" horiz-adv-x="788" d="M394 631 L466 544 L550 544 L433 684 L355 684 L238 544 L322 544 L394 631 Z M675 470 L562 113 L559 113 L434 470 L354 470 L229 113 L226 113 L113 470 L22 470 L179 0 L269 0 L393 355 L395 355 L519 0 L609 0 L766 470 L675 470 Z " />
<glyph glyph-name="Ycircumflex" unicode="&#x176;" horiz-adv-x="624" d="M312 862 L388 770 L477 770 L353 918 L271 918 L147 770 L236 770 L312 862 Z M512 700 L313 361 L311 361 L112 700 L8 700 L266 275 L266 0 L358 0 L358 275 L616 700 L512 700 Z " />
<glyph glyph-name="ycircumflex" unicode="&#x177;" horiz-adv-x="499" d="M250 631 L322 544 L406 544 L289 684 L211 684 L94 544 L178 544 L250 631 Z M396 470 L251 105 L248 105 L105 470 L12 470 L205 0 L113 -224 L202 -224 L487 470 L396 470 Z " />
<glyph glyph-name="Ydieresis" unicode="&#x178;" horiz-adv-x="624" d="M206 780 C241 780 270 808 270 844 C270 880 241 908 206 908 C171 908 142 880 142 844 C142 808 171 780 206 780 L206 780 Z M418 780 C453 780 482 808 482 844 C482 880 453 908 418 908 C383 908 354 880 354 844 C354 808 383 780 418 780 L418 780 Z M266 0 L358 0 L358 275 L616 700 L512 700 L313 361 L311 361 L112 700 L8 700 L266 275 L266 0 Z " />
<glyph glyph-name="Zacute" unicode="&#x179;" horiz-adv-x="574" d="M411 918 L296 918 L225 770 L306 770 L411 918 Z M161 84 L516 630 L516 700 L58 700 L58 616 L405 616 L50 70 L50 0 L524 0 L524 84 L161 84 Z " />
<glyph glyph-name="zacute" unicode="&#x17a;" horiz-adv-x="446" d="M344 684 L235 684 L168 544 L245 544 L344 684 Z M149 76 L402 412 L402 470 L42 470 L42 395 L292 395 L38 58 L38 0 L408 0 L408 76 L149 76 Z " />
<glyph glyph-name="Zdotaccent" unicode="&#x17b;" horiz-adv-x="574" d="M285 780 C320 780 349 808 349 844 C349 880 320 908 285 908 C250 908 221 880 221 844 C221 808 250 780 285 780 L285 780 Z M161 84 L516 630 L516 700 L58 700 L58 616 L405 616 L50 70 L50 0 L524 0 L524 84 L161 84 Z " />
<glyph glyph-name="zdotaccent" unicode="&#x17c;" horiz-adv-x="446" d="M223 554 C256 554 283 580 283 614 C283 648 256 674 223 674 C190 674 163 648 163 614 C163 580 190 554 223 554 L223 554 Z M149 76 L402 412 L402 470 L42 470 L42 395 L292 395 L38 58 L38 0 L408 0 L408 76 L149 76 Z " />
<glyph glyph-name="Zcaron" unicode="&#x17d;" horiz-adv-x="574" d="M326 770 L450 918 L361 918 L285 826 L209 918 L120 918 L244 770 L326 770 Z M161 84 L516 630 L516 700 L58 700 L58 616 L405 616 L50 70 L50 0 L524 0 L524 84 L161 84 Z " />
<glyph glyph-name="zcaron" unicode="&#x17e;" horiz-adv-x="446" d="M262 544 L379 684 L295 684 L223 597 L151 684 L67 684 L184 544 L262 544 Z M149 76 L402 412 L402 470 L42 470 L42 395 L292 395 L38 58 L38 0 L408 0 L408 76 L149 76 Z " />
<glyph glyph-name="florin" unicode="&#x192;" horiz-adv-x="464" d="M402 632 C413 632 425 631 438 629 L438 706 C424 710 410 712 391 712 C304 712 249 669 229 564 L203 427 L78 427 L78 357 L190 357 L153 163 C139 88 111 68 62 68 C51 68 39 69 26 71 L26 -6 C40 -10 54 -12 73 -12 C160 -12 215 31 235 136 L277 357 L420 357 L420 427 L290 427 L311 537 C325 612 353 632 402 632 L402 632 Z " />
<glyph glyph-name="uni01CD" unicode="&#x1cd;" horiz-adv-x="647" d="M365 770 L489 918 L400 918 L324 826 L248 918 L159 918 L283 770 L365 770 Z M538 0 L631 0 L373 700 L274 700 L16 0 L109 0 L172 175 L475 175 L538 0 Z M200 255 L322 594 L325 594 L447 255 L200 255 Z " />
<glyph glyph-name="uni01CE" unicode="&#x1ce;" horiz-adv-x="542" d="M306 544 L423 684 L339 684 L267 597 L195 684 L111 684 L228 544 L306 544 Z M274 482 C154 482 79 420 72 319 L162 319 C166 375 202 407 271 407 C345 407 381 371 381 299 L381 289 L221 267 C113 252 56 200 56 123 C56 44 118 -12 214 -12 C286 -12 350 20 380 64 L383 64 L389 0 L468 0 L468 299 C468 415 398 482 274 482 L274 482 Z M233 61 C177 61 146 86 146 126 C146 166 175 194 250 204 L381 222 L381 202 C381 121 320 61 233 61 L233 61 Z " />
<glyph glyph-name="uni01E2" unicode="&#x1e2;" horiz-adv-x="1008" d="M814 875 L536 875 L536 803 L814 803 L814 875 Z M942 616 L942 700 L466 700 L12 0 L119 0 L235 183 L516 183 L516 0 L942 0 L942 84 L608 84 L608 310 L914 310 L914 394 L608 394 L608 616 L942 616 Z M286 263 L510 616 L516 616 L516 263 L286 263 Z " />
<glyph glyph-name="uni01E3" unicode="&#x1e3;" horiz-adv-x="894" d="M588 643 L326 643 L326 575 L588 575 L588 643 Z M848 252 C848 391 755 482 629 482 C557 482 493 453 450 401 L447 401 C418 455 364 482 280 482 C154 482 79 420 72 319 L162 319 C166 375 202 407 277 407 C354 407 391 373 391 293 L391 278 L276 278 C129 278 56 218 56 127 C56 44 118 -12 228 -12 C320 -12 394 27 427 90 L430 90 C467 27 542 -12 624 -12 C729 -12 815 45 840 138 L756 138 C732 90 685 64 627 64 C551 64 488 115 481 214 L845 214 C847 227 848 238 848 252 L848 252 Z M629 407 C697 407 748 368 759 283 L485 283 C501 364 557 407 629 407 L629 407 Z M237 63 C177 63 146 88 146 131 C146 178 183 208 275 208 L391 208 L391 204 C391 123 330 63 237 63 L237 63 Z " />
<glyph glyph-name="Gcaron" unicode="&#x1e6;" horiz-adv-x="781" d="M441 770 L565 918 L476 918 L400 826 L324 918 L235 918 L359 770 L441 770 Z M410 280 L627 280 C612 149 520 71 398 71 C254 71 147 178 147 350 C147 522 254 629 403 629 C515 629 596 569 615 470 L711 470 C685 620 561 712 401 712 C200 712 53 564 53 349 C53 134 199 -12 389 -12 C490 -12 578 30 624 104 L627 104 L638 0 L711 0 L711 362 L410 362 L410 280 Z " />
<glyph glyph-name="gcaron" unicode="&#x1e7;" horiz-adv-x="501" d="M299 544 L416 684 L332 684 L260 597 L188 684 L104 684 L221 544 L299 544 Z M489 482 L254 482 C141 482 66 410 66 310 C66 261 84 219 115 189 C73 174 44 139 44 93 C44 57 61 29 91 11 C48 -10 24 -47 24 -95 C24 -181 99 -236 249 -236 C413 -236 489 -173 489 -73 C489 15 433 65 334 65 L182 65 C145 65 124 80 124 106 C124 130 142 149 169 154 C194 144 222 138 254 138 C367 138 442 210 442 310 C442 354 428 392 402 421 L489 428 L489 482 Z M254 208 C188 208 148 249 148 310 C148 372 188 413 254 413 C320 413 360 372 360 310 C360 249 320 208 254 208 L254 208 Z M405 -75 C405 -129 362 -161 255 -161 C151 -161 108 -131 108 -82 C108 -41 138 -12 184 -12 L316 -12 C381 -12 405 -35 405 -75 L405 -75 Z " />
<glyph glyph-name="uni01E8" unicode="&#x1e8;" horiz-adv-x="629" d="M369 770 L493 918 L404 918 L328 826 L252 918 L163 918 L287 770 L369 770 Z M282 352 L609 700 L495 700 L191 375 L188 375 L188 700 L96 700 L96 0 L188 0 L188 319 L191 319 L495 0 L617 0 L282 352 Z " />
<glyph glyph-name="uni01E9" unicode="&#x1e9;" horiz-adv-x="505" d="M161 774 L278 914 L194 914 L122 827 L50 914 L-34 914 L83 774 L161 774 Z M496 0 L259 248 L490 470 L377 470 L168 269 L166 269 L166 700 L78 700 L78 0 L166 0 L166 223 L169 223 L381 0 L496 0 Z " />
<glyph glyph-name="AEacute" unicode="&#x1fc;" horiz-adv-x="1008" d="M801 918 L686 918 L615 770 L696 770 L801 918 Z M942 616 L942 700 L466 700 L12 0 L119 0 L235 183 L516 183 L516 0 L942 0 L942 84 L608 84 L608 310 L914 310 L914 394 L608 394 L608 616 L942 616 Z M286 263 L510 616 L516 616 L516 263 L286 263 Z " />
<glyph glyph-name="aeacute" unicode="&#x1fd;" horiz-adv-x="894" d="M578 684 L469 684 L402 544 L479 544 L578 684 Z M848 252 C848 391 755 482 629 482 C557 482 493 453 450 401 L447 401 C418 455 364 482 280 482 C154 482 79 420 72 319 L162 319 C166 375 202 407 277 407 C354 407 391 373 391 293 L391 278 L276 278 C129 278 56 218 56 127 C56 44 118 -12 228 -12 C320 -12 394 27 427 90 L430 90 C467 27 542 -12 624 -12 C729 -12 815 45 840 138 L756 138 C732 90 685 64 627 64 C551 64 488 115 481 214 L845 214 C847 227 848 238 848 252 L848 252 Z M629 407 C697 407 748 368 759 283 L485 283 C501 364 557 407 629 407 L629 407 Z M237 63 C177 63 146 88 146 131 C146 178 183 208 275 208 L391 208 L391 204 C391 123 330 63 237 63 L237 63 Z " />
<glyph glyph-name="Oslashacute" unicode="&#x1fe;" horiz-adv-x="810" d="M531 918 L416 918 L345 770 L426 770 L531 918 Z M762 652 L707 707 L631 631 C571 682 493 712 405 712 C207 712 60 562 60 350 C60 263 85 187 127 127 L48 48 L103 -7 L179 69 C239 18 317 -12 405 -12 C603 -12 750 138 750 350 C750 437 725 513 683 573 L762 652 Z M405 628 C469 628 526 607 569 568 L193 192 C168 235 154 288 154 350 C154 520 260 628 405 628 L405 628 Z M405 72 C341 72 284 93 241 132 L617 508 C642 465 656 412 656 350 C656 180 550 72 405 72 L405 72 Z " />
<glyph glyph-name="oslashacute" unicode="&#x1ff;" horiz-adv-x="587" d="M415 684 L306 684 L239 544 L316 544 L415 684 Z M557 451 L510 498 L445 433 C404 464 352 482 294 482 C155 482 52 380 52 235 C52 177 69 126 97 85 L30 18 L77 -29 L143 37 C184 6 236 -12 294 -12 C433 -12 536 90 536 235 C536 293 519 344 491 385 L557 451 Z M294 409 C332 409 365 397 391 375 L159 143 C146 169 139 200 139 235 C139 340 204 409 294 409 L294 409 Z M294 61 C256 61 223 73 197 95 L429 327 C442 301 449 270 449 235 C449 130 384 61 294 61 L294 61 Z " />
<glyph glyph-name="uni0218" unicode="&#x218;" horiz-adv-x="596" d="M362 386 L298 400 C184 425 149 456 149 512 C149 582 205 629 295 629 C378 629 435 589 448 500 L542 500 C530 633 435 712 297 712 C156 712 56 627 56 508 C56 415 116 352 245 324 L309 310 C424 285 459 250 459 195 C459 123 399 71 306 71 C215 71 149 121 140 220 L46 220 C50 77 157 -12 303 -12 C449 -12 552 76 552 203 C552 296 497 356 362 386 L362 386 Z M288 -79 C253 -79 227 -105 227 -136 C227 -169 251 -194 284 -194 C290 -194 295 -193 300 -192 C300 -212 294 -231 280 -252 L335 -252 C352 -225 359 -196 359 -170 C359 -112 328 -79 288 -79 L288 -79 Z " />
<glyph glyph-name="uni0219" unicode="&#x219;" horiz-adv-x="462" d="M285 270 L228 281 C151 296 134 314 134 343 C134 384 169 411 229 411 C288 411 322 385 327 341 L415 341 C407 431 340 482 234 482 C119 482 49 421 49 338 C49 270 93 228 186 210 L243 199 C314 185 338 164 338 131 C338 89 299 59 238 59 C178 59 137 88 130 142 L42 142 C49 47 123 -12 237 -12 C354 -12 423 50 423 138 C423 210 380 252 285 270 L285 270 Z M219 -79 C184 -79 158 -105 158 -136 C158 -169 182 -194 215 -194 C221 -194 226 -193 231 -192 C231 -212 225 -231 211 -252 L266 -252 C283 -225 290 -196 290 -170 C290 -112 259 -79 219 -79 L219 -79 Z " />
<glyph glyph-name="uni021A" unicode="&#x21a;" horiz-adv-x="564" d="M22 700 L22 616 L236 616 L236 0 L328 0 L328 616 L542 616 L542 700 L22 700 Z M277 -79 C242 -79 216 -105 216 -136 C216 -169 240 -194 273 -194 C279 -194 284 -193 289 -192 C289 -212 283 -231 269 -252 L324 -252 C341 -225 348 -196 348 -170 C348 -112 317 -79 277 -79 L277 -79 Z " />
<glyph glyph-name="uni021B" unicode="&#x21b;" horiz-adv-x="361" d="M282 63 C216 63 190 85 190 164 L190 395 L323 395 L323 470 L190 470 L190 589 L102 589 L102 470 L16 470 L16 395 L102 395 L102 164 C102 37 155 -12 264 -12 C291 -12 312 -9 327 -5 L327 67 C312 64 296 63 282 63 L282 63 Z M214 -79 C179 -79 153 -105 153 -136 C153 -169 177 -194 210 -194 C216 -194 221 -193 226 -192 C226 -212 220 -231 206 -252 L261 -252 C278 -225 285 -196 285 -170 C285 -112 254 -79 214 -79 L214 -79 Z " />
<glyph glyph-name="uni0237" unicode="&#x237;" horiz-adv-x="244" d="M31 -236 C123 -236 166 -192 166 -84 L166 470 L78 470 L78 -84 C78 -142 59 -160 12 -160 C1 -160 -10 -159 -18 -158 L-18 -231 C-5 -234 11 -236 31 -236 L31 -236 Z " />
<glyph glyph-name="circumflex" unicode="&#x2c6;" horiz-adv-x="600" d="M456 544 L339 684 L261 684 L144 544 L228 544 L300 631 L372 544 L456 544 Z " />
<glyph glyph-name="caron" unicode="&#x2c7;" horiz-adv-x="600" d="M372 684 L300 597 L228 684 L144 684 L261 544 L339 544 L456 684 L372 684 Z " />
<glyph glyph-name="breve" unicode="&#x2d8;" horiz-adv-x="600" d="M300 544 C385 544 435 594 435 675 L435 680 L363 680 C363 627 339 603 300 603 C261 603 237 627 237 680 L165 680 L165 675 C165 594 215 544 300 544 L300 544 Z " />
<glyph glyph-name="dotaccent" unicode="&#x2d9;" horiz-adv-x="600" d="M300 554 C333 554 360 580 360 614 C360 648 333 674 300 674 C267 674 240 648 240 614 C240 580 267 554 300 554 L300 554 Z " />
<glyph glyph-name="ring" unicode="&#x2da;" horiz-adv-x="600" d="M300 537 C360 537 406 581 406 638 C406 695 360 739 300 739 C240 739 194 695 194 638 C194 581 240 537 300 537 L300 537 Z M300 594 C273 594 256 613 256 638 C256 663 273 682 300 682 C327 682 344 663 344 638 C344 613 327 594 300 594 L300 594 Z " />
<glyph glyph-name="ogonek" unicode="&#x2db;" horiz-adv-x="600" d="M334 -214 C350 -214 365 -212 378 -209 L378 -140 C367 -143 356 -144 347 -144 C315 -144 300 -131 300 -105 C300 -76 319 -45 378 0 L346 16 C265 -8 222 -63 222 -120 C222 -177 265 -214 334 -214 L334 -214 Z " />
<glyph glyph-name="tilde" unicode="&#x2dc;" horiz-adv-x="600" d="M368 542 C422 542 461 587 461 679 L400 679 C400 624 385 604 367 604 C357 604 343 610 320 637 C290 672 264 687 233 687 C179 687 140 642 140 550 L201 550 C201 605 216 625 234 625 C245 625 258 618 281 592 C312 557 337 542 368 542 L368 542 Z " />
<glyph glyph-name="hungarumlaut" unicode="&#x2dd;" horiz-adv-x="600" d="M170 544 L236 544 L319 684 L229 684 L170 544 Z M327 544 L393 544 L476 684 L386 684 L327 544 Z " />
<glyph glyph-name="gravecomb" unicode="&#x300;" d="M-310 544 L-233 544 L-300 684 L-409 684 L-310 544 Z " />
<glyph glyph-name="acutecomb" unicode="&#x301;" d="M-375 544 L-298 544 L-199 684 L-308 684 L-375 544 Z " />
<glyph glyph-name="uni0302" unicode="&#x302;" d="M-144 544 L-261 684 L-339 684 L-456 544 L-372 544 L-300 631 L-228 544 L-144 544 Z " />
<glyph glyph-name="tildecomb" unicode="&#x303;" d="M-232 542 C-178 542 -139 587 -139 679 L-200 679 C-200 624 -215 604 -233 604 C-243 604 -257 610 -280 637 C-310 672 -336 687 -367 687 C-421 687 -460 642 -460 550 L-399 550 C-399 605 -384 625 -366 625 C-355 625 -342 618 -319 592 C-288 557 -263 542 -232 542 L-232 542 Z " />
<glyph glyph-name="uni0304" unicode="&#x304;" d="M-431 575 L-169 575 L-169 643 L-431 643 L-431 575 Z " />
<glyph glyph-name="uni0306" unicode="&#x306;" d="M-300 544 C-215 544 -165 594 -165 675 L-165 680 L-237 680 C-237 627 -261 603 -300 603 C-339 603 -363 627 -363 680 L-435 680 L-435 675 C-435 594 -385 544 -300 544 L-300 544 Z " />
<glyph glyph-name="uni0307" unicode="&#x307;" d="M-300 554 C-267 554 -240 580 -240 614 C-240 648 -267 674 -300 674 C-333 674 -360 648 -360 614 C-360 580 -333 554 -300 554 L-300 554 Z " />
<glyph glyph-name="uni0308" unicode="&#x308;" d="M-400 554 C-367 554 -340 580 -340 614 C-340 648 -367 674 -400 674 C-433 674 -460 648 -460 614 C-460 580 -433 554 -400 554 L-400 554 Z M-200 554 C-167 554 -140 580 -140 614 C-140 648 -167 674 -200 674 C-233 674 -260 648 -260 614 C-260 580 -233 554 -200 554 L-200 554 Z " />
<glyph glyph-name="uni030A" unicode="&#x30a;" d="M-300 537 C-240 537 -194 581 -194 638 C-194 695 -240 739 -300 739 C-360 739 -406 695 -406 638 C-406 581 -360 537 -300 537 L-300 537 Z M-300 594 C-327 594 -344 613 -344 638 C-344 663 -327 682 -300 682 C-273 682 -256 663 -256 638 C-256 613 -273 594 -300 594 L-300 594 Z " />
<glyph glyph-name="uni030B" unicode="&#x30b;" d="M-430 544 L-364 544 L-281 684 L-371 684 L-430 544 Z M-273 544 L-207 544 L-124 684 L-214 684 L-273 544 Z " />
<glyph glyph-name="uni030C" unicode="&#x30c;" d="M-228 684 L-300 597 L-372 684 L-456 684 L-339 544 L-261 544 L-144 684 L-228 684 Z " />
<glyph glyph-name="uni0315" unicode="&#x315;" d="M-305 712 C-340 712 -366 686 -366 655 C-366 622 -342 597 -309 597 C-303 597 -298 598 -293 599 C-292 568 -309 539 -352 501 L-321 468 C-261 513 -234 566 -234 621 C-234 679 -265 712 -305 712 L-305 712 Z " />
<glyph glyph-name="uni0326" unicode="&#x326;" d="M-305 -79 C-340 -79 -366 -105 -366 -136 C-366 -169 -342 -194 -309 -194 C-303 -194 -298 -193 -293 -192 C-293 -212 -299 -231 -313 -252 L-258 -252 C-241 -225 -234 -196 -234 -170 C-234 -112 -265 -79 -305 -79 L-305 -79 Z " />
<glyph glyph-name="uni0327" unicode="&#x327;" d="M-303 -53 L-302 0 L-364 0 L-372 -101 C-300 -101 -288 -112 -288 -129 C-288 -149 -305 -162 -348 -162 C-358 -162 -371 -162 -385 -160 L-385 -223 C-370 -225 -355 -226 -342 -226 C-259 -226 -216 -189 -216 -135 C-216 -88 -248 -59 -303 -53 L-303 -53 Z " />
<glyph glyph-name="uni0328" unicode="&#x328;" d="M-266 -214 C-250 -214 -235 -212 -222 -209 L-222 -140 C-233 -143 -244 -144 -253 -144 C-285 -144 -300 -131 -300 -105 C-300 -76 -281 -45 -222 0 L-254 16 C-335 -8 -378 -63 -378 -120 C-378 -177 -335 -214 -266 -214 L-266 -214 Z " />
<glyph glyph-name="uni03BC" unicode="&#x3bc;" horiz-adv-x="561" d="M395 470 L395 214 C395 117 347 68 277 68 C207 68 166 110 166 204 L166 470 L78 470 L78 -224 L166 -224 L166 40 C192 4 228 -12 269 -12 C323 -12 365 16 395 63 L398 63 L404 0 L483 0 L483 470 L395 470 Z " />
<glyph glyph-name="pi" unicode="&#x3c0;" horiz-adv-x="564" d="M513 78 C475 78 457 97 457 140 L457 470 L78 470 L78 0 L166 0 L166 392 L369 392 L369 130 C369 45 411 0 501 0 L538 0 L538 78 L513 78 Z " />
<glyph glyph-name="uni1E20" unicode="&#x1e20;" horiz-adv-x="781" d="M539 875 L261 875 L261 803 L539 803 L539 875 Z M410 280 L627 280 C612 149 520 71 398 71 C254 71 147 178 147 350 C147 522 254 629 403 629 C515 629 596 569 615 470 L711 470 C685 620 561 712 401 712 C200 712 53 564 53 349 C53 134 199 -12 389 -12 C490 -12 578 30 624 104 L627 104 L638 0 L711 0 L711 362 L410 362 L410 280 Z " />
<glyph glyph-name="uni1E21" unicode="&#x1e21;" horiz-adv-x="501" d="M391 643 L129 643 L129 575 L391 575 L391 643 Z M489 482 L254 482 C141 482 66 410 66 310 C66 261 84 219 115 189 C73 174 44 139 44 93 C44 57 61 29 91 11 C48 -10 24 -47 24 -95 C24 -181 99 -236 249 -236 C413 -236 489 -173 489 -73 C489 15 433 65 334 65 L182 65 C145 65 124 80 124 106 C124 130 142 149 169 154 C194 144 222 138 254 138 C367 138 442 210 442 310 C442 354 428 392 402 421 L489 428 L489 482 Z M254 208 C188 208 148 249 148 310 C148 372 188 413 254 413 C320 413 360 372 360 310 C360 249 320 208 254 208 L254 208 Z M405 -75 C405 -129 362 -161 255 -161 C151 -161 108 -131 108 -82 C108 -41 138 -12 184 -12 L316 -12 C381 -12 405 -35 405 -75 L405 -75 Z " />
<glyph glyph-name="uni1E30" unicode="&#x1e30;" horiz-adv-x="629" d="M454 918 L339 918 L268 770 L349 770 L454 918 Z M282 352 L609 700 L495 700 L191 375 L188 375 L188 700 L96 700 L96 0 L188 0 L188 319 L191 319 L495 0 L617 0 L282 352 Z " />
<glyph glyph-name="uni1E31" unicode="&#x1e31;" horiz-adv-x="505" d="M243 914 L134 914 L67 774 L144 774 L243 914 Z M496 0 L259 248 L490 470 L377 470 L168 269 L166 269 L166 700 L78 700 L78 0 L166 0 L166 223 L169 223 L381 0 L496 0 Z " />
<glyph glyph-name="uni1E3E" unicode="&#x1e3e;" horiz-adv-x="917" d="M585 918 L470 918 L399 770 L480 770 L585 918 Z M721 700 L460 123 L457 123 L196 700 L96 700 L96 0 L186 0 L186 509 L189 509 L423 0 L494 0 L728 509 L731 509 L731 0 L821 0 L821 700 L721 700 Z " />
<glyph glyph-name="uni1E3F" unicode="&#x1e3f;" horiz-adv-x="858" d="M550 684 L441 684 L374 544 L451 544 L550 684 Z M620 482 C549 482 488 446 457 394 L454 394 C428 452 376 482 313 482 C253 482 196 454 166 407 L163 407 L157 470 L78 470 L78 0 L166 0 L166 258 C166 353 217 404 289 404 C352 404 387 365 387 267 L387 0 L475 0 L475 258 C475 352 525 404 597 404 C660 404 696 364 696 267 L696 0 L784 0 L784 297 C784 415 717 482 620 482 L620 482 Z " />
<glyph glyph-name="uni1E40" unicode="&#x1e40;" horiz-adv-x="917" d="M459 780 C494 780 523 808 523 844 C523 880 494 908 459 908 C424 908 395 880 395 844 C395 808 424 780 459 780 L459 780 Z M721 700 L460 123 L457 123 L196 700 L96 700 L96 0 L186 0 L186 509 L189 509 L423 0 L494 0 L728 509 L731 509 L731 0 L821 0 L821 700 L721 700 Z " />
<glyph glyph-name="uni1E41" unicode="&#x1e41;" horiz-adv-x="858" d="M429 554 C462 554 489 580 489 614 C489 648 462 674 429 674 C396 674 369 648 369 614 C369 580 396 554 429 554 L429 554 Z M620 482 C549 482 488 446 457 394 L454 394 C428 452 376 482 313 482 C253 482 196 454 166 407 L163 407 L157 470 L78 470 L78 0 L166 0 L166 258 C166 353 217 404 289 404 C352 404 387 365 387 267 L387 0 L475 0 L475 258 C475 352 525 404 597 404 C660 404 696 364 696 267 L696 0 L784 0 L784 297 C784 415 717 482 620 482 L620 482 Z " />
<glyph glyph-name="uni1E44" unicode="&#x1e44;" horiz-adv-x="747" d="M374 780 C409 780 438 808 438 844 C438 880 409 908 374 908 C339 908 310 880 310 844 C310 808 339 780 374 780 L374 780 Z M559 700 L559 149 L556 149 L193 700 L96 700 L96 0 L188 0 L188 551 L191 551 L554 0 L651 0 L651 700 L559 700 Z " />
<glyph glyph-name="uni1E45" unicode="&#x1e45;" horiz-adv-x="563" d="M285 554 C318 554 345 580 345 614 C345 648 318 674 285 674 C252 674 225 648 225 614 C225 580 252 554 285 554 L285 554 Z M319 482 C252 482 196 454 166 407 L163 407 L157 470 L78 470 L78 0 L166 0 L166 256 C166 355 217 404 295 404 C363 404 401 367 401 263 L401 0 L489 0 L489 297 C489 415 422 482 319 482 L319 482 Z " />
<glyph glyph-name="Wgrave" unicode="&#x1e80;" horiz-adv-x="1001" d="M476 770 L557 770 L486 918 L371 918 L476 770 Z M238 0 L330 0 L499 566 L502 566 L671 0 L763 0 L980 700 L887 700 L716 141 L713 141 L545 700 L456 700 L288 141 L285 141 L114 700 L21 700 L238 0 Z " />
<glyph glyph-name="wgrave" unicode="&#x1e81;" horiz-adv-x="788" d="M368 544 L445 544 L378 684 L269 684 L368 544 Z M179 0 L269 0 L393 355 L395 355 L519 0 L609 0 L766 470 L675 470 L562 113 L559 113 L434 470 L354 470 L229 113 L226 113 L113 470 L22 470 L179 0 Z " />
<glyph glyph-name="Wacute" unicode="&#x1e82;" horiz-adv-x="1001" d="M441 770 L522 770 L627 918 L512 918 L441 770 Z M238 0 L330 0 L499 566 L502 566 L671 0 L763 0 L980 700 L887 700 L716 141 L713 141 L545 700 L456 700 L288 141 L285 141 L114 700 L21 700 L238 0 Z " />
<glyph glyph-name="wacute" unicode="&#x1e83;" horiz-adv-x="788" d="M339 544 L416 544 L515 684 L406 684 L339 544 Z M179 0 L269 0 L393 355 L395 355 L519 0 L609 0 L766 470 L675 470 L562 113 L559 113 L434 470 L354 470 L229 113 L226 113 L113 470 L22 470 L179 0 Z " />
<glyph glyph-name="Wdieresis" unicode="&#x1e84;" horiz-adv-x="1001" d="M395 780 C430 780 459 808 459 844 C459 880 430 908 395 908 C360 908 331 880 331 844 C331 808 360 780 395 780 L395 780 Z M607 780 C642 780 671 808 671 844 C671 880 642 908 607 908 C572 908 543 880 543 844 C543 808 572 780 607 780 L607 780 Z M238 0 L330 0 L499 566 L502 566 L671 0 L763 0 L980 700 L887 700 L716 141 L713 141 L545 700 L456 700 L288 141 L285 141 L114 700 L21 700 L238 0 Z " />
<glyph glyph-name="wdieresis" unicode="&#x1e85;" horiz-adv-x="788" d="M294 554 C327 554 354 580 354 614 C354 648 327 674 294 674 C261 674 234 648 234 614 C234 580 261 554 294 554 L294 554 Z M494 554 C527 554 554 580 554 614 C554 648 527 674 494 674 C461 674 434 648 434 614 C434 580 461 554 494 554 L494 554 Z M179 0 L269 0 L393 355 L395 355 L519 0 L609 0 L766 470 L675 470 L562 113 L559 113 L434 470 L354 470 L229 113 L226 113 L113 470 L22 470 L179 0 Z " />
<glyph glyph-name="uni1E90" unicode="&#x1e90;" horiz-adv-x="574" d="M285 862 L361 770 L450 770 L326 918 L244 918 L120 770 L209 770 L285 862 Z M161 84 L516 630 L516 700 L58 700 L58 616 L405 616 L50 70 L50 0 L524 0 L524 84 L161 84 Z " />
<glyph glyph-name="uni1E91" unicode="&#x1e91;" horiz-adv-x="446" d="M223 631 L295 544 L379 544 L262 684 L184 684 L67 544 L151 544 L223 631 Z M149 76 L402 412 L402 470 L42 470 L42 395 L292 395 L38 58 L38 0 L408 0 L408 76 L149 76 Z " />
<glyph glyph-name="uni1E9E" unicode="&#x1e9e;" horiz-adv-x="694" d="M445 379 L617 589 C564 666 475 712 354 712 C186 712 86 622 86 441 L86 0 L178 0 L178 441 C178 571 237 629 359 629 C421 629 468 614 503 580 L340 381 L340 304 L384 304 C506 304 556 268 556 189 C556 114 510 72 406 72 C378 72 341 75 308 83 L308 -1 C345 -9 385 -12 416 -12 C569 -12 650 65 650 188 C650 302 581 367 445 379 L445 379 Z " />
<glyph glyph-name="Ygrave" unicode="&#x1ef2;" horiz-adv-x="624" d="M287 770 L368 770 L297 918 L182 918 L287 770 Z M266 0 L358 0 L358 275 L616 700 L512 700 L313 361 L311 361 L112 700 L8 700 L266 275 L266 0 Z " />
<glyph glyph-name="ygrave" unicode="&#x1ef3;" horiz-adv-x="499" d="M301 544 L234 684 L125 684 L224 544 L301 544 Z M396 470 L251 105 L248 105 L105 470 L12 470 L205 0 L113 -224 L202 -224 L487 470 L396 470 Z " />
<glyph glyph-name="uni2000" unicode="&#x2000;" horiz-adv-x="500" d="" />
<glyph glyph-name="uni2001" unicode="&#x2001;" horiz-adv-x="1000" d="" />
<glyph glyph-name="uni2002" unicode="&#x2002;" horiz-adv-x="500" d="" />
<glyph glyph-name="uni2003" unicode="&#x2003;" horiz-adv-x="1000" d="" />
<glyph glyph-name="uni2009" unicode="&#x2009;" horiz-adv-x="150" d="" />
<glyph glyph-name="uni200A" unicode="&#x200a;" horiz-adv-x="100" d="" />
<glyph glyph-name="uni200B" unicode="&#x200b;" d="" />
<glyph glyph-name="endash" unicode="&#x2013;" horiz-adv-x="500" d="M0 238 L500 238 L500 316 L0 316 L0 238 Z " />
<glyph glyph-name="emdash" unicode="&#x2014;" horiz-adv-x="1000" d="M0 238 L1000 238 L1000 316 L0 316 L0 238 Z " />
<glyph glyph-name="quoteleft" unicode="&#x2018;" horiz-adv-x="222" d="M120 583 C115 583 110 582 106 581 C105 612 120 641 163 679 L132 712 C72 667 45 614 45 559 C45 501 76 468 116 468 C151 468 177 494 177 525 C177 558 153 583 120 583 L120 583 Z " />
<glyph glyph-name="quoteright" unicode="&#x2019;" horiz-adv-x="222" d="M106 712 C71 712 45 686 45 655 C45 622 69 597 102 597 C107 597 112 598 116 599 C117 568 102 539 59 501 L90 468 C150 513 177 566 177 621 C177 679 146 712 106 712 L106 712 Z " />
<glyph glyph-name="quotesinglbase" unicode="&#x201a;" horiz-adv-x="256" d="M123 115 C88 115 62 89 62 58 C62 25 86 0 119 0 C124 0 129 1 133 2 C134 -29 119 -58 76 -96 L107 -129 C167 -84 194 -31 194 24 C194 82 163 115 123 115 L123 115 Z " />
<glyph glyph-name="quotedblleft" unicode="&#x201c;" horiz-adv-x="394" d="M120 583 C115 583 110 582 106 581 C105 612 120 641 163 679 L132 712 C72 667 45 614 45 559 C45 501 76 468 116 468 C151 468 177 494 177 525 C177 558 153 583 120 583 L120 583 Z M292 583 C287 583 282 582 278 581 C277 612 292 641 335 679 L304 712 C244 667 217 614 217 559 C217 501 248 468 288 468 C323 468 349 494 349 525 C349 558 325 583 292 583 L292 583 Z " />
<glyph glyph-name="quotedblright" unicode="&#x201d;" horiz-adv-x="394" d="M106 712 C71 712 45 686 45 655 C45 622 69 597 102 597 C107 597 112 598 116 599 C117 568 102 539 59 501 L90 468 C150 513 177 566 177 621 C177 679 146 712 106 712 L106 712 Z M278 712 C243 712 217 686 217 655 C217 622 241 597 274 597 C279 597 284 598 288 599 C289 568 274 539 231 501 L262 468 C322 513 349 566 349 621 C349 679 318 712 278 712 L278 712 Z " />
<glyph glyph-name="quotedblbase" unicode="&#x201e;" horiz-adv-x="428" d="M123 115 C88 115 62 89 62 58 C62 25 86 0 119 0 C124 0 129 1 133 2 C134 -29 119 -58 76 -96 L107 -129 C167 -84 194 -31 194 24 C194 82 163 115 123 115 L123 115 Z M295 115 C260 115 234 89 234 58 C234 25 258 0 291 0 C296 0 301 1 305 2 C306 -29 291 -58 248 -96 L279 -129 C339 -84 366 -31 366 24 C366 82 335 115 295 115 L295 115 Z " />
<glyph glyph-name="dagger" unicode="&#x2020;" horiz-adv-x="518" d="M473 508 L301 508 L301 742 L217 742 L217 508 L45 508 L45 428 L217 428 L217 -128 L301 -128 L301 428 L473 428 L473 508 Z " />
<glyph glyph-name="daggerdbl" unicode="&#x2021;" horiz-adv-x="538" d="M483 428 L483 508 L311 508 L311 742 L227 742 L227 508 L55 508 L55 428 L227 428 L227 208 L75 208 L75 128 L227 128 L227 -128 L311 -128 L311 128 L463 128 L463 208 L311 208 L311 428 L483 428 Z " />
<glyph glyph-name="bullet" unicode="&#x2022;" horiz-adv-x="518" d="M259 201 C344 201 408 266 408 350 C408 434 344 499 259 499 C174 499 110 434 110 350 C110 266 174 201 259 201 L259 201 Z " />
<glyph glyph-name="ellipsis" unicode="&#x2026;" horiz-adv-x="730" d="M125 -7 C161 -7 188 20 188 56 C188 92 161 119 125 119 C89 119 62 92 62 56 C62 20 89 -7 125 -7 L125 -7 Z M365 -7 C401 -7 428 20 428 56 C428 92 401 119 365 119 C329 119 302 92 302 56 C302 20 329 -7 365 -7 L365 -7 Z M605 -7 C641 -7 668 20 668 56 C668 92 641 119 605 119 C569 119 542 92 542 56 C542 20 569 -7 605 -7 L605 -7 Z " />
<glyph glyph-name="perthousand" unicode="&#x2030;" horiz-adv-x="1283" d="M217 356 C317 356 394 435 394 534 C394 633 317 712 217 712 C117 712 40 633 40 534 C40 435 117 356 217 356 L217 356 Z M164 0 L253 0 L707 700 L618 700 L164 0 Z M217 425 C155 425 115 471 115 534 C115 597 155 643 217 643 C279 643 319 597 319 534 C319 471 279 425 217 425 L217 425 Z M654 -12 C754 -12 831 67 831 166 C831 265 754 344 654 344 C554 344 477 265 477 166 C477 67 554 -12 654 -12 L654 -12 Z M1066 -12 C1166 -12 1243 67 1243 166 C1243 265 1166 344 1066 344 C966 344 889 265 889 166 C889 67 966 -12 1066 -12 L1066 -12 Z M654 57 C592 57 552 102 552 166 C552 230 592 275 654 275 C716 275 756 230 756 166 C756 102 716 57 654 57 L654 57 Z M1066 57 C1004 57 964 102 964 166 C964 230 1004 275 1066 275 C1128 275 1168 230 1168 166 C1168 102 1128 57 1066 57 L1066 57 Z " />
<glyph glyph-name="guilsinglleft" unicode="&#x2039;" horiz-adv-x="345" d="M295 500 L195 500 L45 286 L195 72 L295 72 L146 286 L295 500 Z " />
<glyph glyph-name="guilsinglright" unicode="&#x203a;" horiz-adv-x="345" d="M150 500 L50 500 L199 286 L50 72 L150 72 L300 286 L150 500 Z " />
<glyph glyph-name="fraction" unicode="&#x2044;" horiz-adv-x="543" d="M0 0 L89 0 L543 700 L454 700 L0 0 Z " />
<glyph glyph-name="uni2070" unicode="&#x2070;" horiz-adv-x="401" d="M200 264 C302 264 359 324 359 427 L359 549 C359 652 302 712 200 712 C99 712 42 652 42 549 L42 427 C42 324 99 264 200 264 L200 264 Z M200 335 C150 335 120 364 120 423 L120 553 C120 612 150 641 200 641 C251 641 281 612 281 553 L281 423 C281 364 251 335 200 335 L200 335 Z " />
<glyph glyph-name="uni2074" unicode="&#x2074;" horiz-adv-x="393" d="M369 415 L316 415 L316 700 L223 700 L34 410 L34 348 L243 348 L243 266 L316 266 L316 348 L369 348 L369 415 Z M114 415 L243 613 L243 415 L114 415 Z " />
<glyph glyph-name="uni2075" unicode="&#x2075;" horiz-adv-x="380" d="M212 549 C182 549 155 541 132 525 L145 629 L321 629 L321 700 L79 700 L50 452 L126 452 C141 472 167 485 196 485 C239 485 270 457 270 410 C270 362 238 330 194 330 C156 330 125 354 122 393 L44 393 C46 309 108 259 192 259 C284 259 347 318 347 407 C347 493 290 549 212 549 L212 549 Z " />
<glyph glyph-name="uni2076" unicode="&#x2076;" horiz-adv-x="386" d="M206 562 C200 562 194 562 188 561 L282 700 L190 700 L83 540 C50 491 35 454 35 415 C35 325 105 259 193 259 C283 259 352 327 352 415 C352 501 286 562 206 562 L206 562 Z M194 330 C148 330 112 365 112 414 C112 463 148 497 194 497 C240 497 274 463 274 414 C274 365 240 330 194 330 L194 330 Z " />
<glyph glyph-name="uni2077" unicode="&#x2077;" horiz-adv-x="331" d="M24 700 L24 627 L215 627 L58 266 L151 266 L303 629 L303 700 L24 700 Z " />
<glyph glyph-name="uni2078" unicode="&#x2078;" horiz-adv-x="384" d="M275 496 C318 517 339 553 339 593 C339 660 280 712 192 712 C105 712 45 661 45 593 C45 554 65 517 109 496 C63 476 38 436 38 389 C38 317 96 264 192 264 C288 264 346 317 346 389 C346 437 321 476 275 496 L275 496 Z M192 648 C233 648 262 622 262 585 C262 549 235 523 192 523 C149 523 122 549 122 585 C122 622 151 648 192 648 L192 648 Z M192 330 C150 330 116 356 116 396 C116 435 148 462 192 462 C236 462 268 435 268 396 C268 357 235 330 192 330 L192 330 Z " />
<glyph glyph-name="uni2079" unicode="&#x2079;" horiz-adv-x="386" d="M194 712 C104 712 35 644 35 556 C35 470 101 409 181 409 C187 409 193 409 199 410 L105 271 L197 271 L304 431 C337 480 352 517 352 556 C352 646 282 712 194 712 L194 712 Z M193 474 C147 474 113 508 113 557 C113 606 147 641 193 641 C239 641 275 606 275 557 C275 508 239 474 193 474 L193 474 Z " />
<glyph glyph-name="Euro" unicode="&#x20ac;" horiz-adv-x="640" d="M520 189 C510 110 456 65 387 65 C311 65 245 123 221 244 L457 244 L457 306 L213 306 C212 320 212 335 212 350 C212 365 213 380 214 394 L457 394 L457 456 L222 456 C247 576 316 637 393 637 C457 637 504 595 514 509 L604 509 C589 639 503 712 392 712 C269 712 166 623 134 456 L44 456 L44 394 L126 394 C125 378 124 361 124 344 C124 331 124 318 125 306 L44 306 L44 244 L132 244 C159 77 258 -12 383 -12 C497 -12 589 62 608 189 L520 189 Z " />
<glyph glyph-name="uni2116" unicode="&#x2116;" horiz-adv-x="1245" d="M977 289 C1097 289 1185 376 1185 500 C1185 625 1097 712 977 712 C857 712 769 624 769 500 C769 376 857 289 977 289 L977 289 Z M559 149 L556 149 L193 700 L96 700 L96 0 L188 0 L188 551 L191 551 L554 0 L651 0 L651 700 L559 700 L559 149 Z M977 636 C1047 636 1098 582 1098 500 C1098 419 1047 364 977 364 C908 364 857 418 857 500 C857 582 908 636 977 636 L977 636 Z M822 121 L1132 121 L1132 199 L822 199 L822 121 Z " />
<glyph glyph-name="trademark" unicode="&#x2122;" horiz-adv-x="750" d="M35 635 L124 635 L124 394 L194 394 L194 635 L283 635 L283 700 L35 700 L35 635 Z M620 700 L516 546 L412 700 L338 700 L338 394 L405 394 L405 603 L492 474 L540 474 L627 603 L627 394 L695 394 L695 700 L620 700 Z " />
<glyph glyph-name="uni2126" unicode="&#x2126;" horiz-adv-x="816" d="M742 362 C742 568 591 712 408 712 C225 712 74 568 74 362 C74 238 128 141 221 80 L74 80 L74 0 L353 0 L353 80 C235 131 162 222 162 360 C162 525 264 634 408 634 C552 634 654 525 654 360 C654 222 581 131 463 80 L463 0 L742 0 L742 80 L595 80 C688 141 742 238 742 362 L742 362 Z " />
<glyph glyph-name="estimated" unicode="&#x212e;" horiz-adv-x="840" d="M420 0 C539 0 645 55 708 149 L687 165 C630 77 532 26 420 26 C347 26 283 47 228 88 C194 113 183 141 183 187 L183 338 L767 338 L767 350 C767 452 728 545 665 605 C603 664 515 700 420 700 C325 700 237 664 174 605 C112 545 73 452 73 350 C73 247 112 157 174 97 C237 36 325 0 420 0 L420 0 Z M183 362 L183 512 C183 558 194 587 228 612 C283 653 347 674 420 674 C497 674 562 652 619 609 C651 584 662 553 662 508 L662 362 L183 362 Z " />
<glyph glyph-name="arrowleft" unicode="&#x2190;" horiz-adv-x="710" d="M675 392 L185 392 L349 553 L294 610 L36 350 L294 90 L349 147 L185 308 L675 308 L675 392 Z " />
<glyph glyph-name="arrowup" unicode="&#x2191;" horiz-adv-x="710" d="M615 415 L355 673 L95 415 L152 360 L313 524 L313 34 L397 34 L397 524 L558 360 L615 415 Z " />
<glyph glyph-name="arrowright" unicode="&#x2192;" horiz-adv-x="710" d="M416 610 L361 553 L525 392 L35 392 L35 308 L525 308 L361 147 L416 90 L674 350 L416 610 Z " />
<glyph glyph-name="arrowdown" unicode="&#x2193;" horiz-adv-x="710" d="M558 340 L397 176 L397 666 L313 666 L313 176 L152 340 L95 285 L355 27 L615 285 L558 340 Z " />
<glyph glyph-name="uni2196" unicode="&#x2196;" horiz-adv-x="710" d="M597 168 L250 515 L480 512 L481 591 L115 590 L114 224 L193 225 L190 455 L537 108 L597 168 Z " />
<glyph glyph-name="uni2197" unicode="&#x2197;" horiz-adv-x="710" d="M596 224 L595 590 L229 591 L230 512 L460 515 L113 168 L173 108 L520 455 L517 225 L596 224 Z " />
<glyph glyph-name="uni2198" unicode="&#x2198;" horiz-adv-x="710" d="M517 475 L520 245 L173 592 L113 532 L460 185 L230 188 L229 109 L595 110 L596 476 L517 475 Z " />
<glyph glyph-name="uni2199" unicode="&#x2199;" horiz-adv-x="710" d="M250 185 L597 532 L537 592 L190 245 L193 475 L114 476 L115 110 L481 109 L480 188 L250 185 Z " />
<glyph glyph-name="partialdiff" unicode="&#x2202;" horiz-adv-x="636" d="M290 712 C230 712 181 699 140 680 L140 597 C194 625 239 635 286 635 C415 635 486 560 494 365 L492 365 C451 431 379 466 295 466 C153 466 50 364 50 232 C50 90 155 -12 310 -12 C386 -12 450 14 498 61 C553 115 581 206 581 331 C581 574 484 712 290 712 L290 712 Z M310 67 C207 67 138 132 138 232 C138 326 207 388 310 388 C413 388 482 326 482 232 C482 132 413 67 310 67 L310 67 Z " />
<glyph glyph-name="uni2206" unicode="&#x2206;" horiz-adv-x="681" d="M364 700 L317 700 L25 49 L55 0 L626 0 L656 49 L364 700 Z M552 80 L129 80 L341 552 L552 80 Z " />
<glyph glyph-name="product" unicode="&#x220f;" horiz-adv-x="680" d="M96 742 L96 -128 L184 -128 L184 660 L496 660 L496 -128 L584 -128 L584 742 L96 742 Z " />
<glyph glyph-name="summation" unicode="&#x2211;" horiz-adv-x="540" d="M510 742 L55 742 L55 662 L310 307 L55 -48 L55 -128 L510 -128 L510 -48 L151 -48 L406 307 L151 662 L510 662 L510 742 Z " />
<glyph glyph-name="minus" unicode="&#x2212;" horiz-adv-x="650" d="M105 278 L545 278 L545 356 L105 356 L105 278 Z " />
<glyph glyph-name="radical" unicode="&#x221a;" horiz-adv-x="630" d="M523 742 L310 -6 L194 325 L25 325 L25 245 L132 245 L267 -128 L360 -128 L610 742 L523 742 Z " />
<glyph glyph-name="infinity" unicode="&#x221e;" horiz-adv-x="764" d="M545 520 C463 520 417 472 382 416 C347 472 301 520 219 520 C116 520 45 446 45 338 C45 230 116 156 219 156 C301 156 347 204 382 260 C417 204 463 156 545 156 C648 156 719 230 719 338 C719 446 648 520 545 520 L545 520 Z M216 230 C162 230 125 272 125 338 C125 404 162 446 216 446 C276 446 308 396 339 338 C308 280 276 230 216 230 L216 230 Z M548 230 C488 230 456 280 425 338 C456 396 488 446 548 446 C602 446 639 404 639 338 C639 272 602 230 548 230 L548 230 Z " />
<glyph glyph-name="integral" unicode="&#x222b;" horiz-adv-x="394" d="M25 -128 L107 -128 C199 -128 241 -91 241 -1 L241 607 C241 647 261 664 299 664 L369 664 L369 742 L287 742 C195 742 153 705 153 615 L153 7 C153 -33 133 -50 95 -50 L25 -50 L25 -128 Z " />
<glyph glyph-name="approxequal" unicode="&#x2248;" horiz-adv-x="650" d="M430 357 C473 357 509 372 545 398 L545 476 C516 452 472 434 429 434 C362 434 293 477 223 477 C186 477 143 465 105 437 L105 359 C151 390 184 400 221 400 C294 400 357 357 430 357 L430 357 Z M430 157 C473 157 509 172 545 197 L545 276 C518 253 473 234 429 234 C362 234 293 277 223 277 C187 277 145 266 105 237 L105 158 C147 187 180 200 221 200 C294 200 357 157 430 157 L430 157 Z " />
<glyph glyph-name="notequal" unicode="&#x2260;" horiz-adv-x="650" d="M545 378 L545 457 L427 457 L489 587 L418 587 L356 457 L105 457 L105 378 L318 378 L260 256 L105 256 L105 177 L222 177 L160 47 L231 47 L293 177 L545 177 L545 256 L331 256 L389 378 L545 378 Z " />
<glyph glyph-name="lessequal" unicode="&#x2264;" horiz-adv-x="650" d="M545 563 L104 391 L104 307 L545 136 L545 220 L201 349 L545 479 L545 563 Z M104 0 L545 0 L545 78 L104 78 L104 0 Z " />
<glyph glyph-name="greaterequal" unicode="&#x2265;" horiz-adv-x="650" d="M105 563 L105 479 L449 349 L105 220 L105 136 L545 307 L545 391 L105 563 Z M105 0 L545 0 L545 78 L105 78 L105 0 Z " />
<glyph glyph-name="filledbox" unicode="&#x25a0;" horiz-adv-x="900" d="M100 0 L800 0 L800 700 L100 700 L100 0 Z " />
<glyph glyph-name="triagup" unicode="&#x25b2;" horiz-adv-x="900" d="M100 0 L800 0 L450 700 L100 0 Z " />
<glyph glyph-name="triagdn" unicode="&#x25bc;" horiz-adv-x="900" d="M450 0 L800 700 L100 700 L450 0 Z " />
<glyph glyph-name="uni25C6" unicode="&#x25c6;" horiz-adv-x="900" d="M449 0 L800 349 L449 700 L100 349 L449 0 Z " />
<glyph glyph-name="lozenge" unicode="&#x25ca;" horiz-adv-x="630" d="M30 350 L281 0 L349 0 L600 350 L349 700 L281 700 L30 350 Z M131 349 L316 607 L499 351 L314 93 L131 349 Z " />
<glyph glyph-name="uni25CF" unicode="&#x25cf;" horiz-adv-x="900" d="M450 0 C643 0 800 157 800 350 C800 543 643 700 450 700 C257 700 100 543 100 350 C100 157 257 0 450 0 L450 0 Z " />
<glyph glyph-name="uni2610" unicode="&#x2610;" horiz-adv-x="900" d="M100 0 L800 0 L800 700 L100 700 L100 0 Z M175 70 L175 630 L725 630 L725 70 L175 70 Z " />
<glyph glyph-name="uni2611" unicode="&#x2611;" horiz-adv-x="900" d="M100 700 L100 0 L800 0 L800 700 L100 700 Z M725 70 L175 70 L175 630 L725 630 L725 70 Z M638 522 L573 559 L392 245 L302 298 L263 230 L418 141 L638 522 Z " />
<glyph glyph-name="uni2612" unicode="&#x2612;" horiz-adv-x="900" d="M100 700 L100 0 L800 0 L800 700 L100 700 Z M725 70 L175 70 L175 630 L725 630 L725 70 Z M297 147 L450 300 L603 147 L653 197 L500 350 L653 503 L603 553 L450 400 L297 553 L247 503 L400 350 L247 197 L297 147 Z " />
<glyph glyph-name="heart" unicode="&#x2665;" horiz-adv-x="900" d="M450 48 C593 188 776 221 776 409 C776 541 684 606 599 606 C526 606 459 560 452 470 L448 470 C441 560 374 606 301 606 C216 606 124 541 124 409 C124 221 307 188 450 48 L450 48 Z " />
<glyph glyph-name="uni2B51" unicode="&#x2b51;" horiz-adv-x="900" d="M218 -3 L449 165 L679 -3 L591 267 L822 434 L536 434 L449 705 L362 435 L78 435 L307 269 L218 -3 Z " />
</font>
</svg>
