<?xml version="1.0" encoding="UTF-8"?>
<svg xmlns="http://www.w3.org/2000/svg" xmlns:xlink="http://www.w3.org/1999/xlink" version="1.2" >
<font id="BR Hendrix Light Italic">
<font-face  font-family="BR Hendrix" units-per-em="1000" ascent="760" descent="-240" font-style="normal" font-weight="300" font-stretch="normal" slope="-6" cap-height="700" x-height="465" underline-position="-145" underline-thickness="50" />
<missing-glyph  horiz-adv-x="780" d="M77 0 L653 0 L727 700 L151 700 L77 0 Z M344 265 L347 296 C352 341 363 359 409 394 L444 420 C464 434 479 450 479 478 C479 504 459 519 425 519 C381 519 355 494 348 448 L272 448 C281 537 343 590 431 590 C506 590 559 547 559 486 C559 439 531 405 488 372 L456 348 C431 329 426 320 423 293 L420 265 L344 265 Z M366 105 C340 105 319 123 319 151 C319 184 343 209 375 209 C400 209 422 192 422 165 C422 136 403 105 366 105 L366 105 Z " />
<glyph glyph-name="CR" unicode="&#xd;" horiz-adv-x="244" d="" />
<glyph glyph-name="space" unicode="&#x20;" horiz-adv-x="244" d="" />
<glyph glyph-name="exclam" unicode="&#x21;" horiz-adv-x="260" d="M104 201 L150 201 L210 700 L149 700 L104 201 Z M108 -6 C133 -6 158 15 158 48 C158 72 139 90 113 90 C83 90 62 66 62 37 C62 13 82 -6 108 -6 L108 -6 Z " />
<glyph glyph-name="quotedbl" unicode="&#x22;" horiz-adv-x="335" d="M91 447 L132 447 L169 712 L109 712 L91 447 Z M248 447 L290 447 L327 712 L266 712 L248 447 Z " />
<glyph glyph-name="numbersign" unicode="&#x23;" horiz-adv-x="718" d="M681 439 L686 486 L566 486 L626 685 L573 685 L513 486 L311 486 L371 685 L318 685 L258 486 L128 486 L122 439 L244 439 L190 261 L62 261 L57 214 L176 214 L116 15 L169 15 L229 214 L431 214 L371 15 L424 15 L484 214 L615 214 L620 261 L498 261 L552 439 L681 439 Z M445 261 L243 261 L297 439 L499 439 L445 261 Z " />
<glyph glyph-name="dollar" unicode="&#x24;" horiz-adv-x="543" d="M513 496 C515 603 443 667 339 675 L346 742 L307 742 L300 675 C184 669 88 591 88 479 C88 409 139 361 245 337 L262 333 L235 78 C155 86 107 136 106 222 L46 222 C43 108 119 36 229 25 L222 -42 L262 -42 L269 24 C392 29 492 112 492 231 C492 302 441 347 335 372 L308 378 L334 623 C410 617 454 575 453 496 L513 496 Z M147 486 C147 562 209 616 294 623 L269 386 C180 408 147 436 147 486 L147 486 Z M433 222 C433 142 364 84 275 78 L301 324 C401 301 433 271 433 222 L433 222 Z " />
<glyph glyph-name="percent" unicode="&#x25;" horiz-adv-x="848" d="M234 373 C336 373 419 458 419 562 C419 648 356 712 267 712 C164 712 80 627 80 524 C80 437 144 373 234 373 L234 373 Z M137 0 L197 0 L737 700 L677 700 L137 0 Z M237 419 C172 419 131 463 131 526 C131 602 185 666 264 666 C329 666 369 622 369 560 C369 481 314 419 237 419 L237 419 Z M608 -12 C710 -12 793 73 793 177 C793 263 729 327 641 327 C538 327 454 242 454 139 C454 52 518 -12 608 -12 L608 -12 Z M610 34 C545 34 504 78 504 141 C504 217 559 281 637 281 C702 281 743 237 743 175 C743 96 688 34 610 34 L610 34 Z " />
<glyph glyph-name="ampersand" unicode="&#x26;" horiz-adv-x="647" d="M588 0 L495 120 C536 174 567 246 584 337 L530 337 C517 265 493 207 464 161 L309 361 L352 385 C435 429 503 492 503 575 C503 654 435 712 341 712 C238 712 152 641 152 542 C152 498 174 455 223 389 L232 377 L222 371 C121 316 47 254 47 154 C47 56 128 -12 246 -12 C327 -12 402 18 462 83 L525 0 L588 0 Z M208 545 C208 615 268 663 341 663 C404 663 448 627 448 569 C448 506 399 465 331 427 L280 399 L259 426 C221 475 208 511 208 545 L208 545 Z M249 39 C161 39 105 85 105 158 C105 238 165 286 250 332 L262 339 L431 121 C380 65 316 39 249 39 L249 39 Z " />
<glyph glyph-name="quotesingle" unicode="&#x27;" horiz-adv-x="177" d="M91 447 L132 447 L169 712 L109 712 L91 447 Z " />
<glyph glyph-name="parenleft" unicode="&#x28;" horiz-adv-x="316" d="M197 -123 L244 -92 C181 -5 141 122 141 251 C141 272 143 294 145 315 C161 463 234 619 329 720 L288 754 C174 635 101 478 85 318 C83 294 81 270 81 247 C81 111 121 -20 197 -123 L197 -123 Z " />
<glyph glyph-name="parenright" unicode="&#x29;" horiz-adv-x="316" d="M137 753 L90 722 C153 635 193 508 193 379 C193 358 191 336 189 315 C173 167 100 11 5 -90 L46 -124 C160 -5 232 152 249 312 C251 336 253 360 253 383 C253 519 213 650 137 753 L137 753 Z " />
<glyph glyph-name="asterisk" unicode="&#x2a;" horiz-adv-x="461" d="M257 712 L243 547 L93 601 L73 556 L226 509 L112 376 L150 348 L259 484 L339 348 L379 377 L293 508 L456 556 L445 601 L284 547 L305 712 L257 712 Z " />
<glyph glyph-name="plus" unicode="&#x2b;" horiz-adv-x="650" d="M552 343 L364 343 L385 543 L330 543 L309 343 L121 343 L116 291 L304 291 L283 91 L337 91 L358 291 L547 291 L552 343 Z " />
<glyph glyph-name="comma" unicode="&#x2c;" horiz-adv-x="238" d="M99 90 C69 90 45 68 45 39 C45 15 62 -3 88 -3 C93 -3 97 -3 102 -1 C98 -38 75 -83 33 -122 L54 -147 C107 -104 150 -35 150 28 C150 69 128 90 99 90 L99 90 Z " />
<glyph glyph-name="hyphen" unicode="&#x2d;" horiz-adv-x="412" d="M57 249 L359 249 L364 301 L63 301 L57 249 Z " />
<glyph glyph-name="period" unicode="&#x2e;" horiz-adv-x="226" d="M91 -6 C117 -6 141 15 141 48 C141 72 122 90 97 90 C67 90 45 66 45 37 C45 13 65 -6 91 -6 L91 -6 Z " />
<glyph glyph-name="slash" unicode="&#x2f;" horiz-adv-x="462" d="M-17 -92 L42 -92 L499 742 L440 742 L-17 -92 Z " />
<glyph glyph-name="zero" unicode="0" horiz-adv-x="639" d="M294 -12 C449 -12 542 82 559 248 L581 452 C583 468 584 483 584 497 C584 635 509 712 370 712 C216 712 123 618 105 452 L83 248 C81 232 81 217 81 202 C81 65 155 -12 294 -12 L294 -12 Z M297 41 C191 41 141 94 141 205 C141 218 142 233 143 248 L165 452 C180 592 253 659 368 659 C473 659 524 606 524 497 C524 483 524 468 522 452 L500 248 C486 108 411 41 297 41 L297 41 Z " />
<glyph glyph-name="one" unicode="1" horiz-adv-x="397" d="M284 700 C265 637 245 623 173 623 L128 623 L123 575 L257 575 L197 0 L257 0 L331 700 L284 700 Z " />
<glyph glyph-name="two" unicode="2" horiz-adv-x="570" d="M315 275 C384 316 433 350 466 383 C513 429 534 477 534 541 C534 646 458 712 347 712 C217 712 115 629 96 479 L155 479 C176 601 249 659 345 659 C429 659 475 615 475 540 C475 491 460 454 425 419 C396 390 350 356 278 313 C110 215 63 150 51 37 L47 0 L486 0 L492 53 L113 53 C124 139 163 186 315 275 L315 275 Z " />
<glyph glyph-name="three" unicode="3" horiz-adv-x="587" d="M270 -12 C409 -12 518 80 518 212 C518 284 478 337 405 361 L405 364 C482 393 532 460 532 545 C532 645 454 712 344 712 C223 712 128 638 109 514 L168 514 C187 611 251 659 340 659 C426 659 473 615 473 542 C473 446 407 388 305 388 L243 388 L237 336 L299 336 C402 336 458 288 458 211 C458 111 377 41 271 41 C176 41 119 96 123 193 L64 193 C56 63 142 -12 270 -12 L270 -12 Z " />
<glyph glyph-name="four" unicode="4" horiz-adv-x="580" d="M547 198 L444 198 L497 700 L428 700 L40 195 L35 147 L382 147 L367 0 L423 0 L439 147 L542 147 L547 198 Z M106 198 L433 624 L388 198 L106 198 Z " />
<glyph glyph-name="five" unicode="5" horiz-adv-x="588" d="M533 647 L539 700 L181 700 L99 318 L153 318 C199 368 261 396 326 396 C419 396 474 342 474 250 C474 132 396 41 276 41 C189 41 131 93 129 188 L70 188 C68 61 154 -12 275 -12 C425 -12 533 103 533 251 C533 371 452 447 335 447 C274 447 217 426 170 387 L227 647 L533 647 Z " />
<glyph glyph-name="six" unicode="6" horiz-adv-x="586" d="M324 452 C292 452 259 445 230 431 L442 700 L371 700 L155 422 C98 347 55 277 55 193 C55 75 145 -12 270 -12 C413 -12 531 105 531 247 C531 365 442 452 324 452 L324 452 Z M273 41 C180 41 115 105 115 199 C115 311 202 401 313 401 C408 401 472 338 472 244 C472 132 385 41 273 41 L273 41 Z " />
<glyph glyph-name="seven" unicode="7" horiz-adv-x="513" d="M95 700 L89 647 L448 647 L94 0 L160 0 L515 652 L521 700 L95 700 Z " />
<glyph glyph-name="eight" unicode="8" horiz-adv-x="593" d="M273 -12 C410 -12 523 75 523 205 C523 280 478 338 407 361 L407 363 C490 389 545 458 545 543 C545 641 461 712 345 712 C218 712 110 625 110 504 C110 440 144 386 214 363 L214 361 C124 337 60 257 60 164 C60 61 144 -12 273 -12 L273 -12 Z M312 387 C218 387 168 434 168 504 C168 597 244 660 343 660 C434 660 487 611 487 538 C487 446 415 387 312 387 L312 387 Z M275 40 C179 40 119 93 119 171 C119 267 201 335 308 335 C405 335 464 282 464 205 C464 106 381 40 275 40 L275 40 Z " />
<glyph glyph-name="nine" unicode="9" horiz-adv-x="586" d="M341 712 C198 712 79 595 79 453 C79 335 169 248 286 248 C318 248 351 255 379 269 L169 0 L240 0 L455 278 C513 353 556 423 556 507 C556 625 465 712 341 712 L341 712 Z M297 299 C202 299 139 362 139 456 C139 568 225 659 337 659 C431 659 496 595 496 501 C496 389 408 299 297 299 L297 299 Z " />
<glyph glyph-name="colon" unicode="&#x3a;" horiz-adv-x="237" d="M141 368 C166 368 191 390 191 422 C191 446 172 464 146 464 C116 464 95 440 95 412 C95 387 115 368 141 368 L141 368 Z M101 -6 C127 -6 151 15 151 48 C151 72 132 90 107 90 C77 90 55 66 55 37 C55 13 75 -6 101 -6 L101 -6 Z " />
<glyph glyph-name="semicolon" unicode="&#x3b;" horiz-adv-x="248" d="M146 465 C116 465 95 441 95 412 C95 388 115 369 141 369 C166 369 191 390 191 422 C191 446 172 465 146 465 L146 465 Z M109 90 C79 90 55 68 55 39 C55 15 72 -3 98 -3 C103 -3 107 -3 112 -1 C108 -38 85 -83 43 -122 L64 -147 C117 -104 160 -35 160 28 C160 69 138 90 109 90 L109 90 Z " />
<glyph glyph-name="less" unicode="&#x3c;" horiz-adv-x="650" d="M571 522 L121 346 L115 289 L528 114 L534 170 L185 316 L564 462 L571 522 Z " />
<glyph glyph-name="equal" unicode="&#x3d;" horiz-adv-x="650" d="M126 395 L558 395 L563 448 L132 448 L126 395 Z M105 186 L536 186 L541 239 L110 239 L105 186 Z " />
<glyph glyph-name="greater" unicode="&#x3e;" horiz-adv-x="650" d="M139 521 L133 465 L483 319 L103 173 L97 113 L546 289 L552 345 L139 521 Z " />
<glyph glyph-name="question" unicode="&#x3f;" horiz-adv-x="478" d="M186 201 L244 201 L250 258 C254 307 262 323 309 359 L362 400 C423 446 467 500 467 571 C467 657 398 712 299 712 C193 712 102 649 79 529 L137 527 C157 616 221 660 298 660 C366 660 408 625 408 566 C408 515 381 479 336 444 L283 403 C214 350 199 323 192 258 L186 201 Z M196 -6 C221 -6 246 15 246 48 C246 72 227 90 201 90 C171 90 150 66 150 37 C150 13 170 -6 196 -6 L196 -6 Z " />
<glyph glyph-name="at" unicode="&#x40;" horiz-adv-x="938" d="M445 -189 C520 -189 592 -173 651 -147 L656 -95 C600 -123 524 -140 449 -140 C243 -140 110 -12 110 181 C110 415 290 600 526 600 C707 600 839 493 839 302 C839 174 789 67 705 67 C660 67 636 100 643 166 L670 416 L624 416 L612 341 L610 341 C590 398 542 430 479 430 C360 430 277 324 277 200 C277 93 343 22 439 22 C507 22 568 57 597 122 L599 122 C605 54 650 22 703 22 C824 22 891 164 891 307 C891 515 734 650 527 650 C264 650 55 439 55 177 C55 -41 211 -189 445 -189 L445 -189 Z M451 71 C381 71 332 119 332 202 C332 300 392 381 485 381 C555 381 602 333 602 251 C602 154 544 71 451 71 L451 71 Z " />
<glyph glyph-name="A" unicode="A" horiz-adv-x="635" d="M529 0 L588 0 L398 700 L336 700 L-3 0 L61 0 L153 192 L478 192 L529 0 Z M179 246 L360 625 L362 625 L463 246 L179 246 Z " />
<glyph glyph-name="B" unicode="B" horiz-adv-x="639" d="M458 357 L458 360 C537 388 578 450 578 535 C578 636 503 700 373 700 L151 700 L77 0 L331 0 C479 0 574 75 574 216 C574 294 534 340 458 357 L458 357 Z M517 530 C517 426 452 379 338 379 L178 379 L206 647 L367 647 C470 647 517 604 517 530 L517 530 Z M334 53 L144 53 L173 327 L361 327 C467 327 512 290 512 215 C512 106 450 53 334 53 L334 53 Z " />
<glyph glyph-name="C" unicode="C" horiz-adv-x="760" d="M371 -12 C533 -12 672 92 708 243 L648 243 C612 121 503 44 376 44 C229 44 128 145 128 306 C128 500 257 656 443 656 C572 656 660 581 667 456 L729 456 C726 607 608 712 447 712 C231 712 66 530 66 304 C66 114 194 -12 371 -12 L371 -12 Z " />
<glyph glyph-name="D" unicode="D" horiz-adv-x="685" d="M305 700 L151 700 L77 0 L232 0 C473 0 642 158 642 395 C642 584 508 700 305 700 L305 700 Z M241 56 L144 56 L205 644 L303 644 C478 644 580 552 580 393 C580 191 446 56 241 56 L241 56 Z " />
<glyph glyph-name="E" unicode="E" horiz-adv-x="588" d="M560 644 L566 700 L151 700 L77 0 L492 0 L498 56 L144 56 L172 325 L500 325 L506 381 L178 381 L206 644 L560 644 Z " />
<glyph glyph-name="F" unicode="F" horiz-adv-x="577" d="M560 644 L566 700 L151 700 L77 0 L138 0 L171 310 L507 310 L513 366 L177 366 L206 644 L560 644 Z " />
<glyph glyph-name="G" unicode="G" horiz-adv-x="782" d="M419 292 L658 292 C631 135 514 43 375 43 C230 43 128 142 128 305 C128 501 256 657 446 657 C571 657 661 587 670 476 L733 476 C723 619 605 712 448 712 C226 712 65 529 65 301 C65 112 190 -12 367 -12 C483 -12 586 45 639 142 L641 142 L634 0 L683 0 L719 347 L425 347 L419 292 Z " />
<glyph glyph-name="H" unicode="H" horiz-adv-x="702" d="M589 700 L554 373 L177 373 L212 700 L151 700 L77 0 L138 0 L172 317 L549 317 L515 0 L576 0 L650 700 L589 700 Z " />
<glyph glyph-name="I" unicode="I" horiz-adv-x="265" d="M77 0 L138 0 L212 700 L151 700 L77 0 Z " />
<glyph glyph-name="J" unicode="J" horiz-adv-x="609" d="M190 700 L184 644 L500 644 L457 237 C443 104 378 44 266 44 C169 44 117 88 117 192 C117 204 118 217 119 230 L128 314 L67 314 L58 227 C57 212 56 199 56 187 C56 52 132 -12 262 -12 C411 -12 500 70 517 234 L567 700 L190 700 Z " />
<glyph glyph-name="K" unicode="K" horiz-adv-x="614" d="M631 700 L553 700 L179 367 L177 367 L212 700 L151 700 L77 0 L138 0 L173 329 L175 329 L488 0 L565 0 L237 349 L631 700 Z " />
<glyph glyph-name="L" unicode="L" horiz-adv-x="536" d="M144 56 L212 700 L151 700 L77 0 L474 0 L480 56 L144 56 Z " />
<glyph glyph-name="M" unicode="M" horiz-adv-x="916" d="M797 700 L442 84 L440 84 L215 700 L151 700 L77 0 L137 0 L197 572 L200 572 L411 0 L456 0 L788 572 L790 572 L730 0 L790 0 L864 700 L797 700 Z " />
<glyph glyph-name="N" unicode="N" horiz-adv-x="731" d="M618 700 L555 100 L553 100 L212 700 L151 700 L77 0 L138 0 L201 600 L203 600 L544 0 L605 0 L679 700 L618 700 Z " />
<glyph glyph-name="O" unicode="O" horiz-adv-x="796" d="M374 -12 C590 -12 754 171 754 395 C754 583 627 712 446 712 C230 712 66 529 66 304 C66 116 193 -12 374 -12 L374 -12 Z M376 44 C229 44 128 145 128 306 C128 500 257 656 444 656 C592 656 692 555 692 394 C692 200 563 44 376 44 L376 44 Z " />
<glyph glyph-name="P" unicode="P" horiz-adv-x="625" d="M364 700 L151 700 L77 0 L138 0 L165 253 L319 253 C484 253 601 349 601 504 C601 625 515 700 364 700 L364 700 Z M323 309 L170 309 L206 644 L359 644 C482 644 539 592 539 503 C539 379 458 309 323 309 L323 309 Z " />
<glyph glyph-name="Q" unicode="Q" horiz-adv-x="796" d="M754 395 C754 583 627 712 446 712 C230 712 66 529 66 304 C66 116 193 -12 374 -12 C444 -12 508 7 563 41 L642 -67 L686 -34 L608 72 C698 147 754 264 754 395 L754 395 Z M376 44 C229 44 128 145 128 306 C128 500 257 656 444 656 C592 656 692 555 692 394 C692 281 648 181 575 117 L445 295 L401 263 L531 85 C486 59 434 44 376 44 L376 44 Z " />
<glyph glyph-name="R" unicode="R" horiz-adv-x="645" d="M601 507 C601 624 514 700 363 700 L151 700 L77 0 L138 0 L166 264 L318 264 L320 264 L488 0 L558 0 L385 270 C512 291 601 377 601 507 L601 507 Z M206 644 L359 644 C481 644 539 591 539 505 C539 386 455 319 324 319 L172 319 L206 644 Z " />
<glyph glyph-name="S" unicode="S" horiz-adv-x="590" d="M276 -12 C419 -12 537 78 537 214 C537 293 485 344 363 372 L304 385 C190 412 152 442 152 501 C152 595 234 657 338 657 C436 657 496 607 497 509 L559 509 C560 634 472 712 343 712 C207 712 91 626 91 496 C91 417 145 364 262 337 L322 324 C437 298 475 266 475 207 C475 112 391 43 282 43 C176 43 109 102 110 210 L48 210 C42 72 139 -12 276 -12 L276 -12 Z " />
<glyph glyph-name="T" unicode="T" horiz-adv-x="564" d="M590 700 L73 700 L67 644 L295 644 L227 0 L288 0 L356 644 L584 644 L590 700 Z " />
<glyph glyph-name="U" unicode="U" horiz-adv-x="700" d="M324 -12 C483 -12 594 93 612 269 L657 700 L597 700 L551 267 C536 121 449 44 329 44 C219 44 154 107 154 226 C154 239 155 253 157 267 L202 700 L141 700 L96 269 C95 254 94 239 94 225 C94 75 180 -12 324 -12 L324 -12 Z " />
<glyph glyph-name="V" unicode="V" horiz-adv-x="632" d="M258 0 L325 0 L660 700 L596 700 L300 76 L297 76 L132 700 L71 700 L258 0 Z " />
<glyph glyph-name="W" unicode="W" horiz-adv-x="986" d="M222 0 L281 0 L533 605 L535 605 L659 0 L715 0 L1005 700 L944 700 L697 100 L695 100 L571 700 L513 700 L263 100 L261 100 L140 700 L79 700 L222 0 Z " />
<glyph glyph-name="X" unicode="X" horiz-adv-x="589" d="M602 700 L532 700 L310 408 L150 700 L85 700 L271 365 L1 0 L70 0 L305 318 L474 0 L538 0 L344 363 L602 700 Z " />
<glyph glyph-name="Y" unicode="Y" horiz-adv-x="609" d="M250 0 L310 0 L340 281 L647 700 L577 700 L315 339 L314 339 L129 700 L61 700 L279 281 L250 0 Z " />
<glyph glyph-name="Z" unicode="Z" horiz-adv-x="569" d="M559 700 L109 700 L103 644 L478 644 L33 46 L28 0 L492 0 L498 56 L110 56 L554 654 L559 700 Z " />
<glyph glyph-name="bracketleft" unicode="&#x5b;" horiz-adv-x="351" d="M362 690 L368 742 L155 742 L65 -114 L278 -114 L284 -62 L127 -62 L206 690 L362 690 Z " />
<glyph glyph-name="backslash" unicode="&#x5c;" horiz-adv-x="462" d="M354 -92 L411 -92 L127 742 L71 742 L354 -92 Z " />
<glyph glyph-name="bracketright" unicode="&#x5d;" horiz-adv-x="352" d="M91 742 L85 690 L241 690 L163 -62 L7 -62 L1 -114 L213 -114 L303 742 L91 742 Z " />
<glyph glyph-name="asciicircum" unicode="&#x5e;" horiz-adv-x="555" d="M534 353 L351 676 L297 676 L47 353 L115 353 L321 623 L470 353 L534 353 Z " />
<glyph glyph-name="underscore" unicode="&#x5f;" horiz-adv-x="406" d="M-26 -116 L359 -116 L365 -65 L-21 -65 L-26 -116 Z " />
<glyph glyph-name="grave" unicode="&#x60;" horiz-adv-x="600" d="M329 541 L379 541 L327 681 L257 681 L329 541 Z " />
<glyph glyph-name="a" unicode="a" horiz-adv-x="597" d="M484 465 L470 374 L469 374 C442 438 377 477 302 477 C160 477 51 354 51 200 C51 74 134 -12 251 -12 C329 -12 401 27 439 91 L440 91 L435 0 L488 0 L537 465 L484 465 Z M263 39 C173 39 110 102 110 204 C110 328 191 426 306 426 C397 426 460 363 460 261 C460 138 380 39 263 39 L263 39 Z " />
<glyph glyph-name="b" unicode="b" horiz-adv-x="597" d="M346 477 C272 477 199 439 160 375 L158 375 L192 700 L134 700 L60 0 L113 0 L127 91 L128 91 C153 27 218 -12 295 -12 C439 -12 546 114 546 264 C546 391 462 477 346 477 L346 477 Z M292 39 C200 39 139 102 139 204 C139 326 217 426 335 426 C427 426 487 363 487 262 C487 142 410 39 292 39 L292 39 Z " />
<glyph glyph-name="c" unicode="c" horiz-adv-x="545" d="M261 -12 C371 -12 466 55 492 162 L435 162 C414 88 342 39 263 39 C175 39 110 101 110 204 C110 326 191 426 308 426 C388 426 440 379 446 303 L505 303 C502 411 421 477 312 477 C162 477 51 354 51 201 C51 74 135 -12 261 -12 L261 -12 Z " />
<glyph glyph-name="d" unicode="d" horiz-adv-x="597" d="M504 700 L470 375 L467 375 C440 439 375 477 301 477 C159 477 51 353 51 200 C51 74 134 -12 251 -12 C329 -12 401 27 439 91 L440 91 L435 0 L488 0 L562 700 L504 700 Z M262 39 C171 39 110 102 110 204 C110 323 188 426 307 426 C398 426 459 364 459 262 C459 140 381 39 262 39 L262 39 Z " />
<glyph glyph-name="e" unicode="e" horiz-adv-x="552" d="M498 220 C501 237 504 260 504 279 C504 401 425 477 310 477 C161 477 50 351 50 196 C50 69 135 -12 260 -12 C360 -12 447 41 483 127 L427 127 C392 70 332 39 264 39 C172 39 109 96 109 201 C109 207 109 214 110 220 L498 220 Z M307 428 C392 428 446 376 446 278 L446 267 L117 267 C139 359 207 428 307 428 L307 428 Z " />
<glyph glyph-name="f" unicode="f" horiz-adv-x="335" d="M319 661 C336 661 349 659 359 657 L364 706 C351 709 333 712 314 712 C216 712 158 653 146 534 L139 465 L43 465 L38 415 L133 415 L89 0 L147 0 L191 415 L329 415 L335 465 L197 465 L204 535 C213 627 252 661 319 661 L319 661 Z " />
<glyph glyph-name="g" unicode="g" horiz-adv-x="599" d="M486 465 L472 374 L470 374 C445 438 379 477 303 477 C160 477 53 349 53 203 C53 79 137 -6 253 -6 C331 -6 403 32 441 96 L444 96 L432 -12 C420 -121 347 -186 237 -186 C148 -186 96 -145 89 -71 L30 -71 C33 -175 113 -236 235 -236 C379 -236 473 -153 488 -9 L538 465 L486 465 Z M265 44 C175 44 113 107 113 207 C113 328 193 426 309 426 C399 426 460 363 460 263 C460 143 380 44 265 44 L265 44 Z " />
<glyph glyph-name="h" unicode="h" horiz-adv-x="559" d="M335 477 C262 477 199 443 161 384 L159 384 L192 700 L134 700 L60 0 L118 0 L146 260 C157 367 226 425 316 425 C388 425 426 390 426 307 C426 296 425 284 424 271 L396 0 L454 0 L484 290 C485 301 486 311 486 321 C486 422 429 477 335 477 L335 477 Z " />
<glyph glyph-name="i" unicode="i" horiz-adv-x="228" d="M149 563 C177 563 200 585 200 614 C200 638 182 656 158 656 C131 656 107 634 107 604 C107 581 125 563 149 563 L149 563 Z M60 0 L118 0 L167 465 L109 465 L60 0 Z " />
<glyph glyph-name="j" unicode="j" horiz-adv-x="228" d="M149 563 C177 563 200 585 200 614 C200 638 182 656 158 656 C131 656 107 634 107 604 C107 581 125 563 149 563 L149 563 Z M-24 -236 C58 -236 98 -197 108 -100 L167 465 L109 465 L50 -99 C43 -163 20 -185 -29 -185 C-40 -185 -51 -184 -62 -182 L-67 -231 C-56 -234 -41 -236 -24 -236 L-24 -236 Z " />
<glyph glyph-name="k" unicode="k" horiz-adv-x="484" d="M483 465 L405 465 L149 260 L146 260 L192 700 L134 700 L60 0 L118 0 L143 229 L145 229 L367 0 L441 0 L207 243 L483 465 Z " />
<glyph glyph-name="l" unicode="l" horiz-adv-x="228" d="M60 0 L118 0 L192 700 L134 700 L60 0 Z " />
<glyph glyph-name="m" unicode="m" horiz-adv-x="853" d="M639 477 C566 477 495 437 458 371 L456 371 C442 440 391 477 326 477 C260 477 196 443 159 384 L158 384 L162 465 L109 465 L60 0 L118 0 L146 261 C157 367 227 425 307 425 C370 425 406 389 406 310 C406 299 405 287 404 274 L375 0 L433 0 L460 262 C471 366 541 425 621 425 C684 425 720 389 720 310 C720 299 719 286 718 273 L689 0 L747 0 L778 290 C779 301 780 311 780 322 C780 422 724 477 639 477 L639 477 Z " />
<glyph glyph-name="n" unicode="n" horiz-adv-x="559" d="M335 477 C262 477 198 443 159 384 L158 384 L162 465 L109 465 L60 0 L118 0 L146 260 C157 367 226 425 316 425 C388 425 426 390 426 307 C426 296 425 284 424 271 L396 0 L454 0 L484 290 C485 301 486 311 486 321 C486 422 428 477 335 477 L335 477 Z " />
<glyph glyph-name="o" unicode="o" horiz-adv-x="578" d="M265 -12 C416 -12 528 112 528 263 C528 390 440 477 314 477 C162 477 51 353 51 202 C51 75 139 -12 265 -12 L265 -12 Z M268 39 C175 39 110 104 110 205 C110 326 193 426 310 426 C404 426 468 361 468 260 C468 138 385 39 268 39 L268 39 Z " />
<glyph glyph-name="p" unicode="p" horiz-adv-x="597" d="M346 477 C269 477 199 438 158 374 L157 374 L162 465 L109 465 L37 -224 L95 -224 L127 90 L130 90 C156 25 221 -12 295 -12 C437 -12 546 112 546 264 C546 391 463 477 346 477 L346 477 Z M291 39 C201 39 139 102 139 204 C139 327 220 426 336 426 C426 426 487 363 487 262 C487 139 407 39 291 39 L291 39 Z " />
<glyph glyph-name="q" unicode="q" horiz-adv-x="597" d="M484 465 L470 374 L469 374 C442 438 377 477 302 477 C158 477 51 353 51 202 C51 75 134 -12 251 -12 C326 -12 399 25 437 90 L439 90 L406 -224 L464 -224 L537 465 L484 465 Z M265 39 C175 39 110 102 110 205 C110 326 189 426 304 426 C394 426 458 363 458 260 C458 139 380 39 265 39 L265 39 Z " />
<glyph glyph-name="r" unicode="r" horiz-adv-x="358" d="M306 473 C247 473 189 438 159 378 L156 378 L161 465 L109 465 L60 0 L118 0 L145 250 C157 365 221 420 304 420 C319 420 334 418 348 415 L353 465 C340 470 324 473 306 473 L306 473 Z " />
<glyph glyph-name="s" unicode="s" horiz-adv-x="452" d="M208 -12 C317 -12 398 52 398 146 C398 202 360 238 270 256 L220 266 C144 281 122 301 122 334 C122 390 174 429 248 429 C315 429 351 399 354 343 L412 343 C410 428 349 477 252 477 C151 477 65 418 65 326 C65 272 104 237 187 220 L238 210 C315 194 341 172 341 136 C341 77 286 36 210 36 C141 36 98 70 95 134 L37 134 C38 41 104 -12 208 -12 L208 -12 Z " />
<glyph glyph-name="t" unicode="t" horiz-adv-x="350" d="M187 415 L329 415 L334 465 L193 465 L205 585 L147 585 L135 465 L41 465 L36 415 L129 415 L102 153 C100 139 100 128 100 116 C100 24 145 -12 232 -12 C256 -12 275 -9 290 -6 L295 43 C280 40 263 38 247 38 C177 38 150 66 160 153 L187 415 Z " />
<glyph glyph-name="u" unicode="u" horiz-adv-x="554" d="M436 465 L408 205 C397 97 326 40 240 40 C172 40 133 76 133 157 C133 169 134 180 135 192 L163 465 L105 465 L74 173 C73 163 73 153 73 144 C73 43 132 -12 222 -12 C292 -12 358 22 395 81 L396 81 L392 0 L445 0 L494 465 L436 465 Z " />
<glyph glyph-name="v" unicode="v" horiz-adv-x="486" d="M191 0 L246 0 L493 465 L431 465 L226 73 L224 73 L101 465 L42 465 L191 0 Z " />
<glyph glyph-name="w" unicode="w" horiz-adv-x="769" d="M161 0 L218 0 L400 385 L402 385 L502 0 L559 0 L768 465 L709 465 L540 80 L537 80 L437 465 L382 465 L199 80 L197 80 L108 465 L50 465 L161 0 Z " />
<glyph glyph-name="x" unicode="x" horiz-adv-x="471" d="M463 465 L397 465 L238 280 L120 465 L57 465 L202 240 L-3 0 L64 0 L235 200 L362 0 L425 0 L271 241 L463 465 Z " />
<glyph glyph-name="y" unicode="y" horiz-adv-x="489" d="M436 465 L227 73 L225 73 L102 465 L42 465 L190 6 L68 -224 L128 -224 L497 465 L436 465 Z " />
<glyph glyph-name="z" unicode="z" horiz-adv-x="443" d="M421 465 L70 465 L65 415 L341 415 L21 40 L17 0 L377 0 L382 51 L98 51 L417 425 L421 465 Z " />
<glyph glyph-name="braceleft" unicode="&#x7b;" horiz-adv-x="366" d="M218 -114 L292 -114 L298 -62 L228 -62 C176 -62 156 -43 162 16 L183 214 C189 267 172 300 131 312 L132 316 C174 328 198 361 204 414 L225 611 C231 671 254 690 306 690 L377 690 L382 742 L308 742 C216 742 177 707 167 616 L145 410 C140 360 119 340 67 340 L56 340 L51 288 L61 288 C113 288 131 268 125 218 L104 12 C94 -79 126 -114 218 -114 L218 -114 Z " />
<glyph glyph-name="bar" unicode="&#x7c;" horiz-adv-x="300" d="M87 -100 L143 -100 L234 765 L178 765 L87 -100 Z " />
<glyph glyph-name="braceright" unicode="&#x7d;" horiz-adv-x="366" d="M165 742 L91 742 L85 690 L156 690 C208 690 228 671 221 612 L201 414 C195 361 211 328 252 316 L252 312 C209 300 185 267 179 214 L159 17 C152 -43 129 -62 77 -62 L7 -62 L1 -114 L75 -114 C167 -114 207 -79 216 12 L238 218 C243 268 265 288 317 288 L327 288 L332 340 L322 340 C270 340 253 360 258 410 L279 616 C289 707 257 742 165 742 L165 742 Z " />
<glyph glyph-name="asciitilde" unicode="&#x7e;" horiz-adv-x="650" d="M429 267 C472 267 509 282 549 310 L554 362 C517 336 477 319 434 319 C371 319 307 366 241 366 C202 366 160 353 119 323 L113 271 C162 303 197 315 234 315 C303 315 361 267 429 267 L429 267 Z " />
<glyph glyph-name="uni00A0" unicode="&#xa0;" horiz-adv-x="244" d="" />
<glyph glyph-name="exclamdown" unicode="&#xa1;" horiz-adv-x="259" d="M148 381 C174 381 198 402 198 434 C198 458 179 477 154 477 C124 477 102 453 102 424 C102 400 122 381 148 381 L148 381 Z M51 -229 L112 -229 L157 271 L111 271 L51 -229 Z " />
<glyph glyph-name="cent" unicode="&#xa2;" horiz-adv-x="571" d="M304 156 L346 545 C422 540 469 493 474 421 L531 421 C528 522 455 588 351 594 L362 700 L321 700 L310 593 C174 580 75 461 75 317 C75 200 148 119 258 107 L247 0 L288 0 L299 106 C407 111 494 178 518 279 L463 279 C444 209 381 162 304 156 L304 156 Z M133 321 C133 435 201 528 304 543 L264 156 C186 166 133 226 133 321 L133 321 Z " />
<glyph glyph-name="sterling" unicode="&#xa3;" horiz-adv-x="535" d="M524 508 C532 639 454 712 341 712 C217 712 122 626 122 504 C122 456 138 414 155 372 L164 349 L62 349 L57 302 L179 302 C183 284 186 266 186 247 C186 154 126 85 35 42 L30 0 L470 0 L476 52 L133 52 C200 95 243 165 243 245 C243 265 240 284 236 302 L415 302 L420 349 L223 349 L211 381 C195 421 180 462 180 504 C180 599 245 663 338 663 C423 663 470 612 466 508 L524 508 Z " />
<glyph glyph-name="currency" unicode="&#xa4;" horiz-adv-x="550" d="M482 369 C482 406 473 439 456 467 L534 538 L503 572 L426 502 C396 528 355 544 305 544 C255 544 211 528 176 501 L116 569 L81 538 L143 469 C112 430 93 380 93 324 C93 288 102 255 119 227 L41 156 L72 122 L149 192 C178 166 219 150 268 150 C318 150 362 166 398 193 L459 125 L493 156 L431 225 C463 264 482 314 482 369 L482 369 Z M271 201 C194 201 145 251 145 328 C145 419 210 493 303 493 C380 493 429 443 429 367 C429 275 365 201 271 201 L271 201 Z " />
<glyph glyph-name="yen" unicode="&#xa5;" horiz-adv-x="549" d="M578 700 L513 700 L285 351 L130 700 L69 700 L238 330 L71 330 L66 288 L252 288 L241 183 L55 183 L51 141 L237 141 L222 0 L278 0 L293 141 L479 141 L484 183 L298 183 L309 288 L495 288 L500 330 L333 330 L578 700 Z " />
<glyph glyph-name="brokenbar" unicode="&#xa6;" horiz-adv-x="300" d="M141 414 L197 414 L234 765 L178 765 L141 414 Z M87 -100 L143 -100 L179 243 L124 243 L87 -100 Z " />
<glyph glyph-name="section" unicode="&#xa7;" horiz-adv-x="543" d="M491 544 C494 648 420 712 313 712 C202 712 106 641 106 536 C106 486 134 447 195 423 C125 403 78 342 78 267 C78 198 126 161 219 139 L269 128 C360 107 388 77 388 36 C388 -30 322 -78 243 -78 C164 -78 116 -37 118 43 L58 43 C51 -67 130 -131 241 -131 C354 -131 449 -61 449 43 C449 94 422 133 361 158 C430 177 477 239 477 314 C477 383 429 420 336 441 L286 453 C196 474 167 501 167 542 C167 614 232 659 309 659 C386 659 432 620 431 544 L491 544 Z M289 397 L320 389 C389 372 417 349 417 305 C417 225 344 163 266 184 L236 191 C167 208 139 232 139 276 C139 355 211 418 289 397 L289 397 Z " />
<glyph glyph-name="dieresis" unicode="&#xa8;" horiz-adv-x="600" d="M239 563 C266 563 289 585 289 613 C289 638 271 656 247 656 C221 656 197 634 197 604 C197 581 215 563 239 563 L239 563 Z M432 563 C459 563 482 585 482 613 C482 638 464 656 440 656 C414 656 390 634 390 604 C390 581 408 563 432 563 L432 563 Z " />
<glyph glyph-name="copyright" unicode="&#xa9;" horiz-adv-x="837" d="M394 -12 C612 -12 795 171 795 388 C795 570 658 712 468 712 C251 712 66 531 66 312 C66 130 203 -12 394 -12 L394 -12 Z M397 34 C230 34 116 155 116 314 C116 504 272 666 464 666 C633 666 746 545 746 386 C746 197 589 34 397 34 L397 34 Z M420 153 C510 153 586 208 605 298 L551 298 C537 241 486 203 422 203 C356 203 306 250 306 330 C306 422 367 498 455 498 C517 498 557 460 560 403 L615 403 C611 493 548 547 459 547 C339 547 250 450 250 325 C250 222 320 153 420 153 L420 153 Z " />
<glyph glyph-name="ordfeminine" unicode="&#xaa;" horiz-adv-x="499" d="M435 702 L424 630 L422 630 C399 683 346 712 285 712 C162 712 68 610 68 476 C68 367 138 295 241 295 C305 295 363 324 395 377 L396 377 L393 305 L445 305 L487 702 L435 702 Z M254 345 C176 345 126 396 126 479 C126 584 194 661 291 661 C368 661 413 611 413 529 C413 428 355 345 254 345 L254 345 Z " />
<glyph glyph-name="guillemotleft" unicode="&#xab;" horiz-adv-x="518" d="M290 496 L223 496 L55 286 L181 76 L246 76 L121 282 L290 496 Z M489 496 L422 496 L253 286 L380 76 L445 76 L319 282 L489 496 Z " />
<glyph glyph-name="logicalnot" unicode="&#xac;" horiz-adv-x="650" d="M121 343 L116 291 L492 291 L480 182 L535 182 L552 343 L121 343 Z " />
<glyph glyph-name="registered" unicode="&#xae;" horiz-adv-x="479" d="M289 712 C171 712 68 611 68 490 C68 389 145 311 250 311 C369 311 471 414 471 532 C471 633 394 712 289 712 L289 712 Z M251 340 C161 340 99 407 99 492 C99 596 185 684 288 684 C377 684 439 617 439 531 C439 428 353 340 251 340 L251 340 Z M362 561 C362 597 338 621 294 621 L205 621 L182 407 L216 407 L225 487 L262 487 L312 407 L351 407 L297 488 C338 493 362 519 362 561 L362 561 Z M283 519 L228 519 L235 587 L290 587 C315 587 326 577 326 558 C326 533 310 519 283 519 L283 519 Z " />
<glyph glyph-name="macron" unicode="&#xaf;" horiz-adv-x="600" d="M208 581 L466 581 L471 628 L213 628 L208 581 Z " />
<glyph glyph-name="degree" unicode="&#xb0;" horiz-adv-x="369" d="M206 434 C293 434 362 503 362 589 C362 659 310 712 234 712 C148 712 79 644 79 558 C79 487 130 434 206 434 L206 434 Z M210 479 C160 479 128 513 128 561 C128 617 170 666 231 666 C281 666 313 633 313 585 C313 528 271 479 210 479 L210 479 Z " />
<glyph glyph-name="plusminus" unicode="&#xb1;" horiz-adv-x="650" d="M368 374 L387 562 L332 562 L313 374 L124 374 L119 322 L307 322 L288 136 L343 136 L362 322 L550 322 L556 374 L368 374 Z M85 0 L516 0 L522 52 L90 52 L85 0 Z " />
<glyph glyph-name="uni00B2" unicode="&#xb2;" horiz-adv-x="372" d="M228 440 C308 487 364 530 364 604 C364 669 314 712 242 712 C157 712 93 659 81 566 L134 566 C145 633 186 665 239 665 C285 665 311 641 311 599 C311 546 269 517 195 474 C91 412 65 376 57 302 L54 271 L331 271 L336 319 L113 319 C121 361 142 390 228 440 L228 440 Z " />
<glyph glyph-name="uni00B3" unicode="&#xb3;" horiz-adv-x="379" d="M282 495 C333 513 363 555 363 608 C363 671 312 712 241 712 C162 712 103 664 90 586 L143 586 C153 638 189 664 238 664 C284 664 311 640 311 600 C311 549 273 516 217 516 L177 516 L172 472 L214 472 C269 472 300 445 300 404 C300 352 256 312 199 312 C146 312 115 343 119 400 L66 400 C58 313 114 264 197 264 C283 264 352 321 352 401 C352 445 328 480 282 495 L282 495 Z " />
<glyph glyph-name="acute" unicode="&#xb4;" horiz-adv-x="600" d="M266 541 L318 541 L421 681 L348 681 L266 541 Z " />
<glyph glyph-name="uni00B5" unicode="&#xb5;" horiz-adv-x="558" d="M440 465 L412 205 C401 98 332 41 249 41 C170 41 128 89 139 191 L167 465 L109 465 L37 -224 L95 -224 L124 54 C145 9 187 -12 240 -12 C306 -12 363 22 399 81 L400 81 L396 0 L449 0 L498 465 L440 465 Z " />
<glyph glyph-name="paragraph" unicode="&#xb6;" horiz-adv-x="648" d="M107 538 C107 465 163 409 273 409 L291 409 L234 -128 L292 -128 L380 700 L314 700 C198 700 107 642 107 538 L107 538 Z M518 700 L430 -128 L488 -128 L576 700 L518 700 Z " />
<glyph glyph-name="periodcentered" unicode="&#xb7;" horiz-adv-x="226" d="M119 264 C145 264 169 286 169 318 C169 342 150 360 125 360 C95 360 73 336 73 308 C73 283 94 264 119 264 L119 264 Z " />
<glyph glyph-name="cedilla" unicode="&#xb8;" horiz-adv-x="600" d="M254 -63 L265 0 L223 0 L203 -97 C269 -97 285 -108 285 -128 C285 -157 265 -174 218 -174 C208 -174 196 -173 185 -172 L180 -215 C193 -216 206 -217 219 -217 C291 -217 334 -181 334 -127 C334 -89 306 -66 254 -63 L254 -63 Z " />
<glyph glyph-name="uni00B9" unicode="&#xb9;" horiz-adv-x="272" d="M202 700 C188 653 172 642 115 642 L91 642 L87 604 L182 604 L146 266 L199 266 L245 700 L202 700 Z " />
<glyph glyph-name="ordmasculine" unicode="&#xba;" horiz-adv-x="487" d="M252 295 C379 295 475 396 475 529 C475 637 400 712 292 712 C165 712 68 609 68 479 C68 369 144 295 252 295 L252 295 Z M254 345 C179 345 126 398 126 480 C126 580 194 661 289 661 C366 661 418 608 418 524 C418 426 349 345 254 345 L254 345 Z " />
<glyph glyph-name="guillemotright" unicode="&#xbb;" horiz-adv-x="519" d="M149 496 L84 496 L210 290 L40 76 L107 76 L276 286 L149 496 Z M348 496 L283 496 L409 290 L239 76 L306 76 L475 286 L348 496 Z " />
<glyph glyph-name="onequarter" unicode="&#xbc;" horiz-adv-x="867" d="M164 266 L216 266 L262 700 L220 700 C205 653 190 642 133 642 L109 642 L105 604 L200 604 L164 266 Z M664 700 L125 0 L187 0 L726 700 L664 700 Z M782 134 L722 134 L754 434 L693 434 L459 131 L455 89 L668 89 L659 0 L708 0 L717 89 L777 89 L782 134 Z M516 134 L698 370 L673 134 L516 134 Z " />
<glyph glyph-name="onehalf" unicode="&#xbd;" horiz-adv-x="898" d="M164 266 L216 266 L262 700 L220 700 C205 653 190 642 133 642 L109 642 L105 604 L200 604 L164 266 Z M658 700 L120 0 L182 0 L720 700 L658 700 Z M694 169 C774 216 830 259 830 333 C830 398 780 441 708 441 C623 441 559 388 547 295 L600 295 C611 362 652 394 705 394 C751 394 777 370 777 328 C777 275 735 246 661 203 C557 141 531 105 523 31 L520 0 L797 0 L802 48 L579 48 C586 90 608 119 694 169 L694 169 Z " />
<glyph glyph-name="threequarters" unicode="&#xbe;" horiz-adv-x="976" d="M378 401 C378 445 354 480 308 495 C359 513 389 555 389 608 C389 671 338 712 267 712 C188 712 129 664 116 586 L169 586 C179 638 214 664 264 664 C310 664 336 640 336 600 C336 549 299 516 243 516 L202 516 L198 472 L239 472 C295 472 325 445 325 404 C325 352 282 312 225 312 C172 312 140 343 144 400 L92 400 C83 313 140 264 222 264 C309 264 378 321 378 401 L378 401 Z M773 700 L234 0 L296 0 L835 700 L773 700 Z M890 134 L831 134 L863 434 L801 434 L568 131 L563 89 L777 89 L768 0 L817 0 L826 89 L886 89 L890 134 Z M625 134 L807 370 L782 134 L625 134 Z " />
<glyph glyph-name="questiondown" unicode="&#xbf;" horiz-adv-x="488" d="M293 482 C268 482 243 461 243 428 C243 404 262 386 288 386 C318 386 339 410 339 439 C339 463 319 482 293 482 L293 482 Z M303 275 L245 275 L239 218 C235 169 227 153 180 117 L127 76 C66 30 22 -24 22 -95 C22 -181 91 -236 190 -236 C296 -236 387 -173 410 -53 L352 -51 C332 -140 268 -184 191 -184 C123 -184 81 -149 81 -90 C81 -39 108 -3 153 32 L206 73 C275 126 290 153 297 218 L303 275 Z " />
<glyph glyph-name="Agrave" unicode="&#xc0;" horiz-adv-x="635" d="M418 772 L363 920 L289 920 L366 772 L418 772 Z M529 0 L588 0 L398 700 L336 700 L-3 0 L61 0 L153 192 L478 192 L529 0 Z M179 246 L360 625 L362 625 L463 246 L179 246 Z " />
<glyph glyph-name="Aacute" unicode="&#xc1;" horiz-adv-x="635" d="M490 920 L412 920 L325 772 L381 772 L490 920 Z M529 0 L588 0 L398 700 L336 700 L-3 0 L61 0 L153 192 L478 192 L529 0 Z M179 246 L360 625 L362 625 L463 246 L179 246 Z " />
<glyph glyph-name="Acircumflex" unicode="&#xc2;" horiz-adv-x="635" d="M389 886 L470 775 L528 775 L419 923 L363 923 L223 775 L285 775 L389 886 Z M529 0 L588 0 L398 700 L336 700 L-3 0 L61 0 L153 192 L478 192 L529 0 Z M179 246 L360 625 L362 625 L463 246 L179 246 Z " />
<glyph glyph-name="Atilde" unicode="&#xc3;" horiz-adv-x="635" d="M314 875 C332 875 345 865 369 832 C398 794 419 777 448 777 C500 777 541 819 549 909 L505 909 C498 846 477 822 452 822 C437 822 423 831 399 864 C372 903 349 919 319 919 C267 919 225 877 217 788 L264 788 C270 850 290 875 314 875 L314 875 Z M529 0 L588 0 L398 700 L336 700 L-3 0 L61 0 L153 192 L478 192 L529 0 Z M179 246 L360 625 L362 625 L463 246 L179 246 Z " />
<glyph glyph-name="Adieresis" unicode="&#xc4;" horiz-adv-x="635" d="M275 795 C304 795 329 820 329 850 C329 875 310 894 285 894 C255 894 231 868 231 839 C231 814 250 795 275 795 L275 795 Z M480 795 C509 795 534 820 534 850 C534 875 515 894 489 894 C460 894 436 868 436 839 C436 814 455 795 480 795 L480 795 Z M529 0 L588 0 L398 700 L336 700 L-3 0 L61 0 L153 192 L478 192 L529 0 Z M179 246 L360 625 L362 625 L463 246 L179 246 Z " />
<glyph glyph-name="Aring" unicode="&#xc5;" horiz-adv-x="635" d="M529 0 L588 0 L407 667 C447 683 475 721 475 767 C475 816 436 854 382 854 C322 854 270 806 270 746 C270 712 290 682 320 668 L-3 0 L61 0 L153 192 L478 192 L529 0 Z M379 813 C411 813 430 791 430 763 C430 727 402 700 366 700 C334 700 315 722 315 749 C315 783 342 813 379 813 L379 813 Z M179 246 L360 625 L362 625 L463 246 L179 246 Z " />
<glyph glyph-name="AE" unicode="&#xc6;" horiz-adv-x="1011" d="M983 644 L989 700 L538 700 L-7 0 L67 0 L222 201 L521 201 L500 0 L915 0 L921 56 L567 56 L595 325 L923 325 L929 381 L601 381 L629 644 L983 644 Z M263 254 L564 644 L569 644 L527 254 L263 254 Z " />
<glyph glyph-name="Ccedilla" unicode="&#xc7;" horiz-adv-x="760" d="M376 44 C229 44 128 145 128 306 C128 500 257 656 443 656 C572 656 660 581 667 456 L729 456 C726 607 608 712 447 712 C231 712 66 530 66 304 C66 129 174 9 329 -10 L311 -97 C377 -97 393 -108 393 -128 C393 -158 371 -174 326 -174 C316 -174 304 -173 293 -172 L288 -215 C301 -216 314 -217 327 -217 C394 -217 442 -185 442 -127 C442 -89 413 -66 362 -63 L371 -12 C533 -12 672 92 708 243 L648 243 C612 121 503 44 376 44 L376 44 Z " />
<glyph glyph-name="Egrave" unicode="&#xc8;" horiz-adv-x="588" d="M409 772 L354 920 L280 920 L357 772 L409 772 Z M560 644 L566 700 L151 700 L77 0 L492 0 L498 56 L144 56 L172 325 L500 325 L506 381 L178 381 L206 644 L560 644 Z " />
<glyph glyph-name="Eacute" unicode="&#xc9;" horiz-adv-x="588" d="M482 920 L404 920 L317 772 L373 772 L482 920 Z M560 644 L566 700 L151 700 L77 0 L492 0 L498 56 L144 56 L172 325 L500 325 L506 381 L178 381 L206 644 L560 644 Z " />
<glyph glyph-name="Ecircumflex" unicode="&#xca;" horiz-adv-x="588" d="M380 886 L461 775 L519 775 L410 923 L354 923 L214 775 L276 775 L380 886 Z M560 644 L566 700 L151 700 L77 0 L492 0 L498 56 L144 56 L172 325 L500 325 L506 381 L178 381 L206 644 L560 644 Z " />
<glyph glyph-name="Edieresis" unicode="&#xcb;" horiz-adv-x="588" d="M266 795 C295 795 320 820 320 850 C320 875 301 894 276 894 C246 894 222 868 222 839 C222 814 241 795 266 795 L266 795 Z M471 795 C500 795 525 820 525 850 C525 875 506 894 480 894 C451 894 427 868 427 839 C427 814 446 795 471 795 L471 795 Z M560 644 L566 700 L151 700 L77 0 L492 0 L498 56 L144 56 L172 325 L500 325 L506 381 L178 381 L206 644 L560 644 Z " />
<glyph glyph-name="Igrave" unicode="&#xcc;" horiz-adv-x="265" d="M181 772 L233 772 L178 920 L104 920 L181 772 Z M77 0 L138 0 L212 700 L151 700 L77 0 Z " />
<glyph glyph-name="Iacute" unicode="&#xcd;" horiz-adv-x="265" d="M140 772 L196 772 L305 920 L227 920 L140 772 Z M77 0 L138 0 L212 700 L151 700 L77 0 Z " />
<glyph glyph-name="Icircumflex" unicode="&#xce;" horiz-adv-x="265" d="M233 923 L177 923 L37 775 L99 775 L203 886 L284 775 L342 775 L233 923 Z M77 0 L138 0 L212 700 L151 700 L77 0 Z " />
<glyph glyph-name="Idieresis" unicode="&#xcf;" horiz-adv-x="265" d="M89 795 C118 795 143 820 143 850 C143 875 124 894 99 894 C69 894 45 868 45 839 C45 814 64 795 89 795 L89 795 Z M294 795 C323 795 348 820 348 850 C348 875 329 894 303 894 C274 894 250 868 250 839 C250 814 269 795 294 795 L294 795 Z M77 0 L138 0 L212 700 L151 700 L77 0 Z " />
<glyph glyph-name="Eth" unicode="&#xd0;" horiz-adv-x="693" d="M313 700 L160 700 L126 375 L17 375 L12 325 L120 325 L86 0 L241 0 C481 0 650 158 650 395 C650 584 517 700 313 700 L313 700 Z M249 56 L153 56 L181 325 L356 325 L361 375 L186 375 L214 644 L311 644 C487 644 589 552 589 393 C589 191 455 56 249 56 L249 56 Z " />
<glyph glyph-name="Ntilde" unicode="&#xd1;" horiz-adv-x="731" d="M362 875 C380 875 393 865 417 832 C446 794 467 777 496 777 C548 777 589 819 597 909 L553 909 C546 846 525 822 500 822 C485 822 471 831 447 864 C420 903 397 919 367 919 C315 919 273 877 265 788 L312 788 C318 850 338 875 362 875 L362 875 Z M618 700 L555 100 L553 100 L212 700 L151 700 L77 0 L138 0 L201 600 L203 600 L544 0 L605 0 L679 700 L618 700 Z " />
<glyph glyph-name="Ograve" unicode="&#xd2;" horiz-adv-x="796" d="M446 772 L498 772 L443 920 L369 920 L446 772 Z M374 -12 C590 -12 754 171 754 395 C754 583 627 712 446 712 C230 712 66 529 66 304 C66 116 193 -12 374 -12 L374 -12 Z M376 44 C229 44 128 145 128 306 C128 500 257 656 444 656 C592 656 692 555 692 394 C692 200 563 44 376 44 L376 44 Z " />
<glyph glyph-name="Oacute" unicode="&#xd3;" horiz-adv-x="796" d="M405 772 L461 772 L570 920 L492 920 L405 772 Z M374 -12 C590 -12 754 171 754 395 C754 583 627 712 446 712 C230 712 66 529 66 304 C66 116 193 -12 374 -12 L374 -12 Z M376 44 C229 44 128 145 128 306 C128 500 257 656 444 656 C592 656 692 555 692 394 C692 200 563 44 376 44 L376 44 Z " />
<glyph glyph-name="Ocircumflex" unicode="&#xd4;" horiz-adv-x="796" d="M468 886 L549 775 L607 775 L498 923 L442 923 L302 775 L364 775 L468 886 Z M446 712 C230 712 66 529 66 304 C66 116 193 -12 374 -12 C590 -12 754 171 754 395 C754 583 627 712 446 712 L446 712 Z M376 44 C229 44 128 145 128 306 C128 500 257 656 444 656 C592 656 692 555 692 394 C692 200 563 44 376 44 L376 44 Z " />
<glyph glyph-name="Otilde" unicode="&#xd5;" horiz-adv-x="796" d="M527 777 C579 777 620 819 628 909 L584 909 C577 846 556 822 531 822 C516 822 502 831 478 864 C451 903 428 919 398 919 C346 919 304 877 296 788 L343 788 C349 850 369 875 393 875 C411 875 424 865 448 832 C477 794 498 777 527 777 L527 777 Z M374 -12 C590 -12 754 171 754 395 C754 583 627 712 446 712 C230 712 66 529 66 304 C66 116 193 -12 374 -12 L374 -12 Z M376 44 C229 44 128 145 128 306 C128 500 257 656 444 656 C592 656 692 555 692 394 C692 200 563 44 376 44 L376 44 Z " />
<glyph glyph-name="Odieresis" unicode="&#xd6;" horiz-adv-x="796" d="M354 795 C383 795 408 820 408 850 C408 875 389 894 364 894 C334 894 310 868 310 839 C310 814 329 795 354 795 L354 795 Z M559 795 C588 795 613 820 613 850 C613 875 594 894 568 894 C539 894 515 868 515 839 C515 814 534 795 559 795 L559 795 Z M374 -12 C590 -12 754 171 754 395 C754 583 627 712 446 712 C230 712 66 529 66 304 C66 116 193 -12 374 -12 L374 -12 Z M376 44 C229 44 128 145 128 306 C128 500 257 656 444 656 C592 656 692 555 692 394 C692 200 563 44 376 44 L376 44 Z " />
<glyph glyph-name="multiply" unicode="&#xd7;" horiz-adv-x="650" d="M544 473 L511 510 L337 353 L197 510 L158 475 L298 318 L125 161 L157 124 L331 281 L471 124 L511 159 L370 316 L544 473 Z " />
<glyph glyph-name="Oslash" unicode="&#xd8;" horiz-adv-x="806" d="M798 663 L766 700 L678 620 C623 678 544 712 451 712 C236 712 72 529 72 304 C72 232 90 169 123 119 L32 37 L66 0 L154 80 C209 22 287 -12 380 -12 C596 -12 760 171 760 395 C760 467 741 530 708 581 L798 663 Z M450 656 C526 656 590 629 634 580 L169 160 C147 200 134 249 134 306 C134 500 263 656 450 656 L450 656 Z M382 44 C305 44 241 71 197 120 L662 541 C685 501 698 451 698 394 C698 200 569 44 382 44 L382 44 Z " />
<glyph glyph-name="Ugrave" unicode="&#xd9;" horiz-adv-x="700" d="M398 772 L450 772 L395 920 L321 920 L398 772 Z M324 -12 C483 -12 594 93 612 269 L657 700 L597 700 L551 267 C536 121 449 44 329 44 C219 44 154 107 154 226 C154 239 155 253 157 267 L202 700 L141 700 L96 269 C95 254 94 239 94 225 C94 75 180 -12 324 -12 L324 -12 Z " />
<glyph glyph-name="Uacute" unicode="&#xda;" horiz-adv-x="700" d="M357 772 L413 772 L522 920 L444 920 L357 772 Z M324 -12 C483 -12 594 93 612 269 L657 700 L597 700 L551 267 C536 121 449 44 329 44 C219 44 154 107 154 226 C154 239 155 253 157 267 L202 700 L141 700 L96 269 C95 254 94 239 94 225 C94 75 180 -12 324 -12 L324 -12 Z " />
<glyph glyph-name="Ucircumflex" unicode="&#xdb;" horiz-adv-x="700" d="M421 886 L502 775 L560 775 L451 923 L395 923 L255 775 L317 775 L421 886 Z M597 700 L551 267 C536 121 449 44 329 44 C219 44 154 107 154 226 C154 239 155 253 157 267 L202 700 L141 700 L96 269 C95 254 94 239 94 225 C94 75 180 -12 324 -12 C483 -12 594 93 612 269 L657 700 L597 700 Z " />
<glyph glyph-name="Udieresis" unicode="&#xdc;" horiz-adv-x="700" d="M307 795 C336 795 361 820 361 850 C361 875 342 894 317 894 C287 894 263 868 263 839 C263 814 282 795 307 795 L307 795 Z M512 795 C541 795 566 820 566 850 C566 875 547 894 521 894 C492 894 468 868 468 839 C468 814 487 795 512 795 L512 795 Z M324 -12 C483 -12 594 93 612 269 L657 700 L597 700 L551 267 C536 121 449 44 329 44 C219 44 154 107 154 226 C154 239 155 253 157 267 L202 700 L141 700 L96 269 C95 254 94 239 94 225 C94 75 180 -12 324 -12 L324 -12 Z " />
<glyph glyph-name="Yacute" unicode="&#xdd;" horiz-adv-x="609" d="M312 772 L368 772 L477 920 L399 920 L312 772 Z M250 0 L310 0 L340 281 L647 700 L577 700 L315 339 L314 339 L129 700 L61 700 L279 281 L250 0 Z " />
<glyph glyph-name="Thorn" unicode="&#xde;" horiz-adv-x="629" d="M350 573 L199 573 L212 700 L151 700 L77 0 L138 0 L151 127 L303 127 C471 127 588 219 588 378 C588 499 502 573 350 573 L350 573 Z M304 182 L157 182 L193 517 L341 517 C469 517 526 465 526 375 C526 247 441 182 304 182 L304 182 Z " />
<glyph glyph-name="germandbls" unicode="&#xdf;" horiz-adv-x="572" d="M284 -12 C421 -12 516 72 516 204 C516 291 463 346 373 357 L373 358 C462 382 513 457 513 551 C513 651 441 712 333 712 C209 712 128 638 113 504 L60 0 L118 0 L171 502 C182 607 238 661 332 661 C411 661 455 622 455 548 C455 443 393 378 281 378 L258 378 L253 325 L315 325 C409 325 457 281 457 205 C457 99 388 39 279 39 C259 39 241 41 220 46 L215 -3 C237 -9 261 -12 284 -12 L284 -12 Z " />
<glyph glyph-name="agrave" unicode="&#xe0;" horiz-adv-x="597" d="M370 541 L318 681 L248 681 L320 541 L370 541 Z M484 465 L470 374 L469 374 C442 438 377 477 302 477 C160 477 51 354 51 200 C51 74 134 -12 251 -12 C329 -12 401 27 439 91 L440 91 L435 0 L488 0 L537 465 L484 465 Z M263 39 C173 39 110 102 110 204 C110 328 191 426 306 426 C397 426 460 363 460 261 C460 138 380 39 263 39 L263 39 Z " />
<glyph glyph-name="aacute" unicode="&#xe1;" horiz-adv-x="597" d="M441 681 L368 681 L286 541 L338 541 L441 681 Z M484 465 L470 374 L469 374 C442 438 377 477 302 477 C160 477 51 354 51 200 C51 74 134 -12 251 -12 C329 -12 401 27 439 91 L440 91 L435 0 L488 0 L537 465 L484 465 Z M263 39 C173 39 110 102 110 204 C110 328 191 426 306 426 C397 426 460 363 460 261 C460 138 380 39 263 39 L263 39 Z " />
<glyph glyph-name="acircumflex" unicode="&#xe2;" horiz-adv-x="597" d="M344 649 L420 544 L474 544 L372 684 L319 684 L186 544 L245 544 L344 649 Z M484 465 L470 374 L469 374 C442 438 377 477 302 477 C160 477 51 354 51 200 C51 74 134 -12 251 -12 C329 -12 401 27 439 91 L440 91 L435 0 L488 0 L537 465 L484 465 Z M263 39 C173 39 110 102 110 204 C110 328 191 426 306 426 C397 426 460 363 460 261 C460 138 380 39 263 39 L263 39 Z " />
<glyph glyph-name="atilde" unicode="&#xe3;" horiz-adv-x="597" d="M273 638 C290 638 303 629 325 598 C352 562 372 546 399 546 C448 546 487 586 495 670 L453 670 C447 611 427 589 404 589 C389 589 375 597 354 628 C328 665 306 680 277 680 C229 680 190 640 181 556 L225 556 C232 615 252 638 273 638 L273 638 Z M484 465 L470 374 L469 374 C442 438 377 477 302 477 C160 477 51 354 51 200 C51 74 134 -12 251 -12 C329 -12 401 27 439 91 L440 91 L435 0 L488 0 L537 465 L484 465 Z M263 39 C173 39 110 102 110 204 C110 328 191 426 306 426 C397 426 460 363 460 261 C460 138 380 39 263 39 L263 39 Z " />
<glyph glyph-name="adieresis" unicode="&#xe4;" horiz-adv-x="597" d="M237 563 C264 563 287 585 287 613 C287 638 269 656 245 656 C219 656 195 634 195 604 C195 581 213 563 237 563 L237 563 Z M430 563 C457 563 480 585 480 613 C480 638 462 656 438 656 C412 656 388 634 388 604 C388 581 406 563 430 563 L430 563 Z M484 465 L470 374 L469 374 C442 438 377 477 302 477 C160 477 51 354 51 200 C51 74 134 -12 251 -12 C329 -12 401 27 439 91 L440 91 L435 0 L488 0 L537 465 L484 465 Z M263 39 C173 39 110 102 110 204 C110 328 191 426 306 426 C397 426 460 363 460 261 C460 138 380 39 263 39 L263 39 Z " />
<glyph glyph-name="aring" unicode="&#xe5;" horiz-adv-x="597" d="M331 536 C389 536 436 583 436 637 C436 684 399 721 348 721 C290 721 242 673 242 619 C242 572 281 536 331 536 L331 536 Z M345 681 C376 681 393 661 393 634 C393 600 368 575 334 575 C304 575 286 595 286 622 C286 655 311 681 345 681 L345 681 Z M484 465 L470 374 L469 374 C442 438 377 477 302 477 C160 477 51 354 51 200 C51 74 134 -12 251 -12 C329 -12 401 27 439 91 L440 91 L435 0 L488 0 L537 465 L484 465 Z M263 39 C173 39 110 102 110 204 C110 328 191 426 306 426 C397 426 460 363 460 261 C460 138 380 39 263 39 L263 39 Z " />
<glyph glyph-name="ae" unicode="&#xe6;" horiz-adv-x="895" d="M841 220 C844 233 848 264 848 280 C848 401 770 477 660 477 C579 477 505 437 459 368 L457 368 C443 439 387 477 300 477 C185 477 106 419 89 323 L148 323 C163 390 215 427 297 427 C383 427 421 384 411 296 L408 264 L274 264 C150 264 50 216 50 107 C50 35 108 -12 201 -12 C300 -12 385 38 419 113 L421 113 C446 35 515 -12 605 -12 C703 -12 789 41 826 129 L770 129 C735 72 674 39 608 39 C522 39 462 96 462 200 C462 207 462 213 463 220 L841 220 Z M657 427 C740 427 793 373 789 267 L470 267 C492 359 560 427 657 427 L657 427 Z M211 38 C145 38 110 67 110 114 C110 187 176 217 268 217 L404 217 L402 199 C391 104 313 38 211 38 L211 38 Z " />
<glyph glyph-name="ccedilla" unicode="&#xe7;" horiz-adv-x="545" d="M263 39 C175 39 110 101 110 204 C110 326 191 426 308 426 C388 426 440 379 446 303 L505 303 C502 411 421 477 312 477 C162 477 51 354 51 201 C51 88 118 7 222 -9 L204 -97 C270 -97 286 -108 286 -128 C286 -157 266 -174 219 -174 C209 -174 197 -173 186 -172 L181 -215 C194 -216 207 -217 220 -217 C292 -217 335 -181 335 -127 C335 -89 307 -66 255 -63 L264 -12 C373 -11 466 56 492 162 L435 162 C414 88 342 39 263 39 L263 39 Z " />
<glyph glyph-name="egrave" unicode="&#xe8;" horiz-adv-x="552" d="M356 541 L304 681 L234 681 L306 541 L356 541 Z M498 220 C501 237 504 260 504 279 C504 401 425 477 310 477 C161 477 50 351 50 196 C50 69 135 -12 260 -12 C360 -12 447 41 483 127 L427 127 C392 70 332 39 264 39 C172 39 109 96 109 201 C109 207 109 214 110 220 L498 220 Z M307 428 C392 428 446 376 446 278 L446 267 L117 267 C139 359 207 428 307 428 L307 428 Z " />
<glyph glyph-name="eacute" unicode="&#xe9;" horiz-adv-x="552" d="M427 681 L354 681 L272 541 L324 541 L427 681 Z M498 220 C501 237 504 260 504 279 C504 401 425 477 310 477 C161 477 50 351 50 196 C50 69 135 -12 260 -12 C360 -12 447 41 483 127 L427 127 C392 70 332 39 264 39 C172 39 109 96 109 201 C109 207 109 214 110 220 L498 220 Z M307 428 C392 428 446 376 446 278 L446 267 L117 267 C139 359 207 428 307 428 L307 428 Z " />
<glyph glyph-name="ecircumflex" unicode="&#xea;" horiz-adv-x="552" d="M331 649 L407 544 L461 544 L359 684 L306 684 L173 544 L232 544 L331 649 Z M498 220 C501 237 504 260 504 279 C504 401 425 477 310 477 C161 477 50 351 50 196 C50 69 135 -12 260 -12 C360 -12 447 41 483 127 L427 127 C392 70 332 39 264 39 C172 39 109 96 109 201 C109 207 109 214 110 220 L498 220 Z M307 428 C392 428 446 376 446 278 L446 267 L117 267 C139 359 207 428 307 428 L307 428 Z " />
<glyph glyph-name="edieresis" unicode="&#xeb;" horiz-adv-x="552" d="M224 563 C251 563 274 585 274 613 C274 638 256 656 232 656 C206 656 182 634 182 604 C182 581 200 563 224 563 L224 563 Z M417 563 C444 563 467 585 467 613 C467 638 449 656 425 656 C399 656 375 634 375 604 C375 581 393 563 417 563 L417 563 Z M498 220 C501 237 504 260 504 279 C504 401 425 477 310 477 C161 477 50 351 50 196 C50 69 135 -12 260 -12 C360 -12 447 41 483 127 L427 127 C392 70 332 39 264 39 C172 39 109 96 109 201 C109 207 109 214 110 220 L498 220 Z M307 428 C392 428 446 376 446 278 L446 267 L117 267 C139 359 207 428 307 428 L307 428 Z " />
<glyph glyph-name="igrave" unicode="&#xec;" horiz-adv-x="228" d="M135 541 L185 541 L145 681 L74 681 L135 541 Z M60 0 L118 0 L167 465 L109 465 L60 0 Z " />
<glyph glyph-name="iacute" unicode="&#xed;" horiz-adv-x="228" d="M101 541 L154 541 L245 681 L171 681 L101 541 Z M60 0 L118 0 L167 465 L109 465 L60 0 Z " />
<glyph glyph-name="icircumflex" unicode="&#xee;" horiz-adv-x="228" d="M185 684 L137 684 L16 544 L72 544 L160 646 L225 544 L277 544 L185 684 Z M60 0 L118 0 L167 465 L109 465 L60 0 Z " />
<glyph glyph-name="idieresis" unicode="&#xef;" horiz-adv-x="228" d="M64 563 C92 563 115 586 115 614 C115 638 97 656 73 656 C47 656 22 634 22 604 C22 580 40 563 64 563 L64 563 Z M234 563 C262 563 285 586 285 614 C285 638 267 656 243 656 C216 656 192 634 192 604 C192 580 210 563 234 563 L234 563 Z M60 0 L118 0 L167 465 L109 465 L60 0 Z " />
<glyph glyph-name="eth" unicode="&#xf0;" horiz-adv-x="575" d="M409 626 L509 693 L489 722 L382 649 C342 682 293 708 237 724 L216 680 C262 664 303 644 337 619 L233 548 L252 519 L365 596 C423 543 458 473 469 383 C436 445 374 474 307 474 C161 474 51 348 51 202 C51 83 131 -12 262 -12 C337 -12 402 19 447 69 C507 137 529 221 529 318 C529 442 487 550 409 626 L409 626 Z M267 39 C169 39 109 107 109 205 C109 324 190 423 307 423 C404 423 467 356 467 257 C467 140 384 39 267 39 L267 39 Z " />
<glyph glyph-name="ntilde" unicode="&#xf1;" horiz-adv-x="559" d="M257 638 C274 638 287 629 309 598 C336 562 356 546 383 546 C432 546 471 586 479 670 L437 670 C431 611 411 589 388 589 C373 589 359 597 338 628 C312 665 290 680 261 680 C213 680 174 640 165 556 L209 556 C216 615 236 638 257 638 L257 638 Z M335 477 C262 477 198 443 159 384 L158 384 L162 465 L109 465 L60 0 L118 0 L146 260 C157 367 226 425 316 425 C388 425 426 390 426 307 C426 296 425 284 424 271 L396 0 L454 0 L484 290 C485 301 486 311 486 321 C486 422 428 477 335 477 L335 477 Z " />
<glyph glyph-name="ograve" unicode="&#xf2;" horiz-adv-x="578" d="M310 541 L360 541 L308 681 L238 681 L310 541 Z M265 -12 C416 -12 528 112 528 263 C528 390 440 477 314 477 C162 477 51 353 51 202 C51 75 139 -12 265 -12 L265 -12 Z M268 39 C175 39 110 104 110 205 C110 326 193 426 310 426 C404 426 468 361 468 260 C468 138 385 39 268 39 L268 39 Z " />
<glyph glyph-name="oacute" unicode="&#xf3;" horiz-adv-x="578" d="M276 541 L328 541 L431 681 L358 681 L276 541 Z M265 -12 C416 -12 528 112 528 263 C528 390 440 477 314 477 C162 477 51 353 51 202 C51 75 139 -12 265 -12 L265 -12 Z M268 39 C175 39 110 104 110 205 C110 326 193 426 310 426 C404 426 468 361 468 260 C468 138 385 39 268 39 L268 39 Z " />
<glyph glyph-name="ocircumflex" unicode="&#xf4;" horiz-adv-x="578" d="M335 649 L411 544 L465 544 L363 684 L310 684 L177 544 L236 544 L335 649 Z M314 477 C162 477 51 353 51 202 C51 75 139 -12 265 -12 C416 -12 528 112 528 263 C528 390 440 477 314 477 L314 477 Z M268 39 C175 39 110 104 110 205 C110 326 193 426 310 426 C404 426 468 361 468 260 C468 138 385 39 268 39 L268 39 Z " />
<glyph glyph-name="otilde" unicode="&#xf5;" horiz-adv-x="578" d="M390 546 C439 546 478 586 486 670 L444 670 C438 611 418 589 395 589 C380 589 366 597 345 628 C319 665 297 680 268 680 C220 680 181 640 172 556 L216 556 C223 615 243 638 264 638 C281 638 294 629 316 598 C343 562 363 546 390 546 L390 546 Z M265 -12 C416 -12 528 112 528 263 C528 390 440 477 314 477 C162 477 51 353 51 202 C51 75 139 -12 265 -12 L265 -12 Z M268 39 C175 39 110 104 110 205 C110 326 193 426 310 426 C404 426 468 361 468 260 C468 138 385 39 268 39 L268 39 Z " />
<glyph glyph-name="odieresis" unicode="&#xf6;" horiz-adv-x="578" d="M228 563 C255 563 278 585 278 613 C278 638 260 656 236 656 C210 656 186 634 186 604 C186 581 204 563 228 563 L228 563 Z M421 563 C448 563 471 585 471 613 C471 638 453 656 429 656 C403 656 379 634 379 604 C379 581 397 563 421 563 L421 563 Z M265 -12 C416 -12 528 112 528 263 C528 390 440 477 314 477 C162 477 51 353 51 202 C51 75 139 -12 265 -12 L265 -12 Z M268 39 C175 39 110 104 110 205 C110 326 193 426 310 426 C404 426 468 361 468 260 C468 138 385 39 268 39 L268 39 Z " />
<glyph glyph-name="divide" unicode="&#xf7;" horiz-adv-x="650" d="M349 449 C375 449 396 469 396 498 C396 519 379 536 356 536 C330 536 309 515 309 488 C309 466 325 449 349 449 L349 449 Z M115 291 L547 291 L552 343 L120 343 L115 291 Z M312 98 C338 98 359 117 359 146 C359 168 342 185 319 185 C293 185 272 163 272 137 C272 115 288 98 312 98 L312 98 Z " />
<glyph glyph-name="oslash" unicode="&#xf8;" horiz-adv-x="584" d="M568 454 L540 486 L468 420 C430 456 378 477 317 477 C165 477 54 352 54 203 C54 155 67 112 89 78 L15 11 L43 -21 L117 45 C154 9 207 -12 268 -12 C420 -12 531 113 531 262 C531 311 518 354 495 388 L568 454 Z M313 428 C360 428 400 412 428 383 L133 115 C120 140 112 170 112 205 C112 328 195 428 313 428 L313 428 Z M271 37 C224 37 184 54 156 83 L452 350 C465 325 473 295 473 260 C473 137 390 37 271 37 L271 37 Z " />
<glyph glyph-name="ugrave" unicode="&#xf9;" horiz-adv-x="554" d="M348 541 L296 681 L226 681 L298 541 L348 541 Z M436 465 L408 205 C397 97 326 40 240 40 C172 40 133 76 133 157 C133 169 134 180 135 192 L163 465 L105 465 L74 173 C73 163 73 153 73 144 C73 43 132 -12 222 -12 C292 -12 358 22 395 81 L396 81 L392 0 L445 0 L494 465 L436 465 Z " />
<glyph glyph-name="uacute" unicode="&#xfa;" horiz-adv-x="554" d="M420 681 L347 681 L265 541 L317 541 L420 681 Z M436 465 L408 205 C397 97 326 40 240 40 C172 40 133 76 133 157 C133 169 134 180 135 192 L163 465 L105 465 L74 173 C73 163 73 153 73 144 C73 43 132 -12 222 -12 C292 -12 358 22 395 81 L396 81 L392 0 L445 0 L494 465 L436 465 Z " />
<glyph glyph-name="ucircumflex" unicode="&#xfb;" horiz-adv-x="554" d="M323 649 L399 544 L453 544 L351 684 L298 684 L165 544 L224 544 L323 649 Z M436 465 L408 205 C397 97 326 40 240 40 C172 40 133 76 133 157 C133 169 134 180 135 192 L163 465 L105 465 L74 173 C73 163 73 153 73 144 C73 43 132 -12 222 -12 C292 -12 358 22 395 81 L396 81 L392 0 L445 0 L494 465 L436 465 Z " />
<glyph glyph-name="udieresis" unicode="&#xfc;" horiz-adv-x="554" d="M216 563 C243 563 266 585 266 613 C266 638 248 656 224 656 C198 656 174 634 174 604 C174 581 192 563 216 563 L216 563 Z M409 563 C436 563 459 585 459 613 C459 638 441 656 417 656 C391 656 367 634 367 604 C367 581 385 563 409 563 L409 563 Z M436 465 L408 205 C397 97 326 40 240 40 C172 40 133 76 133 157 C133 169 134 180 135 192 L163 465 L105 465 L74 173 C73 163 73 153 73 144 C73 43 132 -12 222 -12 C292 -12 358 22 395 81 L396 81 L392 0 L445 0 L494 465 L436 465 Z " />
<glyph glyph-name="yacute" unicode="&#xfd;" horiz-adv-x="489" d="M388 681 L315 681 L233 541 L285 541 L388 681 Z M436 465 L227 73 L225 73 L102 465 L42 465 L190 6 L68 -224 L128 -224 L497 465 L436 465 Z " />
<glyph glyph-name="thorn" unicode="&#xfe;" horiz-adv-x="597" d="M346 477 C270 477 199 438 160 375 L158 375 L192 700 L134 700 L37 -224 L95 -224 L127 90 L130 90 C156 25 221 -12 295 -12 C437 -12 546 112 546 264 C546 391 463 477 346 477 L346 477 Z M291 39 C201 39 139 102 139 204 C139 326 220 426 336 426 C426 426 487 363 487 262 C487 138 407 39 291 39 L291 39 Z " />
<glyph glyph-name="ydieresis" unicode="&#xff;" horiz-adv-x="489" d="M184 563 C211 563 234 585 234 613 C234 638 216 656 192 656 C166 656 142 634 142 604 C142 581 160 563 184 563 L184 563 Z M377 563 C404 563 427 585 427 613 C427 638 409 656 385 656 C359 656 335 634 335 604 C335 581 353 563 377 563 L377 563 Z M436 465 L227 73 L225 73 L102 465 L42 465 L190 6 L68 -224 L128 -224 L497 465 L436 465 Z " />
<glyph glyph-name="Amacron" unicode="&#x100;" horiz-adv-x="635" d="M522 864 L248 864 L243 815 L517 815 L522 864 Z M529 0 L588 0 L398 700 L336 700 L-3 0 L61 0 L153 192 L478 192 L529 0 Z M179 246 L360 625 L362 625 L463 246 L179 246 Z " />
<glyph glyph-name="amacron" unicode="&#x101;" horiz-adv-x="597" d="M469 628 L211 628 L206 581 L464 581 L469 628 Z M484 465 L470 374 L469 374 C442 438 377 477 302 477 C160 477 51 354 51 200 C51 74 134 -12 251 -12 C329 -12 401 27 439 91 L440 91 L435 0 L488 0 L537 465 L484 465 Z M263 39 C173 39 110 102 110 204 C110 328 191 426 306 426 C397 426 460 363 460 261 C460 138 380 39 263 39 L263 39 Z " />
<glyph glyph-name="Abreve" unicode="&#x102;" horiz-adv-x="635" d="M375 776 C460 776 516 821 524 916 L472 916 C464 848 432 819 379 819 C330 819 304 842 304 895 C304 901 304 908 305 916 L256 916 C255 909 254 896 254 889 C254 816 296 776 375 776 L375 776 Z M529 0 L588 0 L398 700 L336 700 L-3 0 L61 0 L153 192 L478 192 L529 0 Z M179 246 L360 625 L362 625 L463 246 L179 246 Z " />
<glyph glyph-name="abreve" unicode="&#x103;" horiz-adv-x="597" d="M330 545 C410 545 462 587 471 677 L422 677 C415 612 385 585 334 585 C288 585 264 607 264 656 C264 663 264 669 265 677 L218 677 C217 666 216 661 216 652 C216 583 257 545 330 545 L330 545 Z M484 465 L470 374 L469 374 C442 438 377 477 302 477 C160 477 51 354 51 200 C51 74 134 -12 251 -12 C329 -12 401 27 439 91 L440 91 L435 0 L488 0 L537 465 L484 465 Z M263 39 C173 39 110 102 110 204 C110 328 191 426 306 426 C397 426 460 363 460 261 C460 138 380 39 263 39 L263 39 Z " />
<glyph glyph-name="Aogonek" unicode="&#x104;" horiz-adv-x="635" d="M484 -124 C485 -81 521 -43 588 0 L398 700 L336 700 L-3 0 L61 0 L153 192 L478 192 L529 0 L532 0 C474 -30 429 -81 429 -136 C429 -187 467 -218 532 -218 C543 -218 555 -217 566 -215 L571 -165 C561 -168 552 -168 545 -168 C505 -168 484 -153 484 -124 L484 -124 Z M179 246 L360 625 L362 625 L463 246 L179 246 Z " />
<glyph glyph-name="aogonek" unicode="&#x105;" horiz-adv-x="597" d="M484 465 L470 374 L469 374 C442 438 377 477 302 477 C160 477 51 354 51 200 C51 74 134 -12 251 -12 C329 -12 401 27 439 91 L440 91 L435 2 C380 -26 337 -73 337 -129 C337 -176 373 -205 435 -205 C446 -205 456 -204 466 -202 L471 -156 C462 -158 453 -159 447 -159 C408 -159 390 -144 390 -116 C390 -71 435 -33 487 0 L488 0 L537 465 L484 465 Z M263 39 C173 39 110 102 110 204 C110 328 191 426 306 426 C397 426 460 363 460 261 C460 138 380 39 263 39 L263 39 Z " />
<glyph glyph-name="Cacute" unicode="&#x106;" horiz-adv-x="760" d="M402 772 L458 772 L567 920 L489 920 L402 772 Z M371 -12 C533 -12 672 92 708 243 L648 243 C612 121 503 44 376 44 C229 44 128 145 128 306 C128 500 257 656 443 656 C572 656 660 581 667 456 L729 456 C726 607 608 712 447 712 C231 712 66 530 66 304 C66 114 194 -12 371 -12 L371 -12 Z " />
<glyph glyph-name="cacute" unicode="&#x107;" horiz-adv-x="545" d="M271 541 L323 541 L426 681 L353 681 L271 541 Z M261 -12 C371 -12 466 55 492 162 L435 162 C414 88 342 39 263 39 C175 39 110 101 110 204 C110 326 191 426 308 426 C388 426 440 379 446 303 L505 303 C502 411 421 477 312 477 C162 477 51 354 51 201 C51 74 135 -12 261 -12 L261 -12 Z " />
<glyph glyph-name="Ccircumflex" unicode="&#x108;" horiz-adv-x="760" d="M465 886 L546 775 L604 775 L495 923 L439 923 L299 775 L361 775 L465 886 Z M376 44 C229 44 128 145 128 306 C128 500 257 656 443 656 C572 656 660 581 667 456 L729 456 C726 607 608 712 447 712 C231 712 66 530 66 304 C66 114 194 -12 371 -12 C533 -12 672 92 708 243 L648 243 C612 121 503 44 376 44 L376 44 Z " />
<glyph glyph-name="ccircumflex" unicode="&#x109;" horiz-adv-x="545" d="M330 649 L406 544 L460 544 L358 684 L305 684 L172 544 L231 544 L330 649 Z M263 39 C175 39 110 101 110 204 C110 326 191 426 308 426 C388 426 440 379 446 303 L505 303 C502 411 421 477 312 477 C162 477 51 354 51 201 C51 74 135 -12 261 -12 C371 -12 466 55 492 162 L435 162 C414 88 342 39 263 39 L263 39 Z " />
<glyph glyph-name="Cdotaccent" unicode="&#x10a;" horiz-adv-x="760" d="M454 795 C483 795 508 820 508 850 C508 875 489 894 463 894 C434 894 409 868 409 839 C409 814 429 795 454 795 L454 795 Z M371 -12 C533 -12 672 92 708 243 L648 243 C612 121 503 44 376 44 C229 44 128 145 128 306 C128 500 257 656 443 656 C572 656 660 581 667 456 L729 456 C726 607 608 712 447 712 C231 712 66 530 66 304 C66 114 194 -12 371 -12 L371 -12 Z " />
<glyph glyph-name="cdotaccent" unicode="&#x10b;" horiz-adv-x="545" d="M319 563 C346 563 370 585 370 613 C370 638 351 656 328 656 C302 656 277 634 277 604 C277 581 296 563 319 563 L319 563 Z M261 -12 C371 -12 466 55 492 162 L435 162 C414 88 342 39 263 39 C175 39 110 101 110 204 C110 326 191 426 308 426 C388 426 440 379 446 303 L505 303 C502 411 421 477 312 477 C162 477 51 354 51 201 C51 74 135 -12 261 -12 L261 -12 Z " />
<glyph glyph-name="Ccaron" unicode="&#x10c;" horiz-adv-x="760" d="M479 775 L620 923 L557 923 L453 812 L373 923 L314 923 L424 775 L479 775 Z M376 44 C229 44 128 145 128 306 C128 500 257 656 443 656 C572 656 660 581 667 456 L729 456 C726 607 608 712 447 712 C231 712 66 530 66 304 C66 114 194 -12 371 -12 C533 -12 672 92 708 243 L648 243 C612 121 503 44 376 44 L376 44 Z " />
<glyph glyph-name="ccaron" unicode="&#x10d;" horiz-adv-x="545" d="M343 544 L475 684 L417 684 L319 579 L242 684 L187 684 L290 544 L343 544 Z M263 39 C175 39 110 101 110 204 C110 326 191 426 308 426 C388 426 440 379 446 303 L505 303 C502 411 421 477 312 477 C162 477 51 354 51 201 C51 74 135 -12 261 -12 C371 -12 466 55 492 162 L435 162 C414 88 342 39 263 39 L263 39 Z " />
<glyph glyph-name="Dcaron" unicode="&#x10e;" horiz-adv-x="685" d="M398 775 L539 923 L476 923 L372 812 L292 923 L233 923 L343 775 L398 775 Z M305 700 L151 700 L77 0 L232 0 C473 0 642 158 642 395 C642 584 508 700 305 700 L305 700 Z M241 56 L144 56 L205 644 L303 644 C478 644 580 552 580 393 C580 191 446 56 241 56 L241 56 Z " />
<glyph glyph-name="dcaron" unicode="&#x10f;" horiz-adv-x="671" d="M702 712 C676 712 652 692 652 663 C652 639 668 622 692 622 C698 622 702 623 707 624 C704 599 686 570 649 539 L669 516 C714 548 751 596 751 652 C751 691 730 712 702 712 L702 712 Z M470 375 L467 375 C440 439 375 477 301 477 C159 477 51 353 51 200 C51 74 134 -12 251 -12 C329 -12 401 27 439 91 L440 91 L435 0 L488 0 L562 700 L504 700 L470 375 Z M262 39 C171 39 110 102 110 204 C110 323 188 426 307 426 C398 426 459 364 459 262 C459 140 381 39 262 39 L262 39 Z " />
<glyph glyph-name="Dcroat" unicode="&#x110;" horiz-adv-x="693" d="M313 700 L160 700 L126 375 L17 375 L12 325 L120 325 L86 0 L241 0 C481 0 650 158 650 395 C650 584 517 700 313 700 L313 700 Z M249 56 L153 56 L181 325 L356 325 L361 375 L186 375 L214 644 L311 644 C487 644 589 552 589 393 C589 191 455 56 249 56 L249 56 Z " />
<glyph glyph-name="dcroat" unicode="&#x111;" horiz-adv-x="594" d="M656 596 L551 596 L562 700 L504 700 L493 596 L331 596 L326 551 L488 551 L470 375 L467 375 C440 439 375 477 301 477 C159 477 51 353 51 200 C51 74 134 -12 251 -12 C329 -12 401 27 439 91 L440 91 L435 0 L488 0 L546 551 L652 551 L656 596 Z M262 39 C171 39 110 102 110 204 C110 323 188 426 307 426 C398 426 459 364 459 262 C459 140 381 39 262 39 L262 39 Z " />
<glyph glyph-name="Emacron" unicode="&#x112;" horiz-adv-x="588" d="M513 864 L239 864 L234 815 L508 815 L513 864 Z M560 644 L566 700 L151 700 L77 0 L492 0 L498 56 L144 56 L172 325 L500 325 L506 381 L178 381 L206 644 L560 644 Z " />
<glyph glyph-name="emacron" unicode="&#x113;" horiz-adv-x="552" d="M456 628 L198 628 L193 581 L451 581 L456 628 Z M498 220 C501 237 504 260 504 279 C504 401 425 477 310 477 C161 477 50 351 50 196 C50 69 135 -12 260 -12 C360 -12 447 41 483 127 L427 127 C392 70 332 39 264 39 C172 39 109 96 109 201 C109 207 109 214 110 220 L498 220 Z M307 428 C392 428 446 376 446 278 L446 267 L117 267 C139 359 207 428 307 428 L307 428 Z " />
<glyph glyph-name="Ebreve" unicode="&#x114;" horiz-adv-x="588" d="M366 776 C451 776 507 821 515 916 L463 916 C455 848 423 819 370 819 C321 819 295 842 295 895 C295 901 295 908 296 916 L247 916 C246 909 245 896 245 889 C245 816 287 776 366 776 L366 776 Z M560 644 L566 700 L151 700 L77 0 L492 0 L498 56 L144 56 L172 325 L500 325 L506 381 L178 381 L206 644 L560 644 Z " />
<glyph glyph-name="ebreve" unicode="&#x115;" horiz-adv-x="552" d="M317 545 C397 545 449 587 458 677 L409 677 C402 612 372 585 321 585 C275 585 251 607 251 656 C251 663 251 669 252 677 L205 677 C204 666 203 661 203 652 C203 583 244 545 317 545 L317 545 Z M498 220 C501 237 504 260 504 279 C504 401 425 477 310 477 C161 477 50 351 50 196 C50 69 135 -12 260 -12 C360 -12 447 41 483 127 L427 127 C392 70 332 39 264 39 C172 39 109 96 109 201 C109 207 109 214 110 220 L498 220 Z M307 428 C392 428 446 376 446 278 L446 267 L117 267 C139 359 207 428 307 428 L307 428 Z " />
<glyph glyph-name="Edotaccent" unicode="&#x116;" horiz-adv-x="588" d="M369 795 C398 795 423 820 423 850 C423 875 404 894 378 894 C349 894 324 868 324 839 C324 814 344 795 369 795 L369 795 Z M560 644 L566 700 L151 700 L77 0 L492 0 L498 56 L144 56 L172 325 L500 325 L506 381 L178 381 L206 644 L560 644 Z " />
<glyph glyph-name="edotaccent" unicode="&#x117;" horiz-adv-x="552" d="M320 563 C347 563 371 585 371 613 C371 638 352 656 329 656 C303 656 278 634 278 604 C278 581 297 563 320 563 L320 563 Z M498 220 C501 237 504 260 504 279 C504 401 425 477 310 477 C161 477 50 351 50 196 C50 69 135 -12 260 -12 C360 -12 447 41 483 127 L427 127 C392 70 332 39 264 39 C172 39 109 96 109 201 C109 207 109 214 110 220 L498 220 Z M307 428 C392 428 446 376 446 278 L446 267 L117 267 C139 359 207 428 307 428 L307 428 Z " />
<glyph glyph-name="Eogonek" unicode="&#x118;" horiz-adv-x="588" d="M560 644 L566 700 L151 700 L77 0 L436 0 C378 -30 333 -81 333 -136 C333 -187 371 -218 436 -218 C447 -218 459 -217 470 -215 L475 -165 C465 -168 456 -168 449 -168 C409 -168 388 -153 388 -124 C389 -81 425 -43 492 0 L498 56 L144 56 L172 325 L500 325 L506 381 L178 381 L206 644 L560 644 Z " />
<glyph glyph-name="eogonek" unicode="&#x119;" horiz-adv-x="552" d="M498 220 C501 237 504 260 504 279 C504 401 425 477 310 477 C161 477 50 351 50 196 C50 69 135 -12 260 -12 L268 -12 C228 -40 200 -80 200 -125 C200 -172 236 -201 298 -201 C309 -201 319 -200 329 -198 L334 -152 C325 -154 316 -155 310 -155 C271 -155 253 -140 253 -112 C253 -68 297 -30 348 3 C409 24 458 68 483 127 L427 127 C392 70 332 39 264 39 C172 39 109 96 109 201 C109 207 109 214 110 220 L498 220 Z M307 428 C392 428 446 376 446 278 L446 267 L117 267 C139 359 207 428 307 428 L307 428 Z " />
<glyph glyph-name="Ecaron" unicode="&#x11a;" horiz-adv-x="588" d="M394 775 L535 923 L472 923 L368 812 L288 923 L229 923 L339 775 L394 775 Z M560 644 L566 700 L151 700 L77 0 L492 0 L498 56 L144 56 L172 325 L500 325 L506 381 L178 381 L206 644 L560 644 Z " />
<glyph glyph-name="ecaron" unicode="&#x11b;" horiz-adv-x="552" d="M344 544 L476 684 L418 684 L320 579 L243 684 L188 684 L291 544 L344 544 Z M498 220 C501 237 504 260 504 279 C504 401 425 477 310 477 C161 477 50 351 50 196 C50 69 135 -12 260 -12 C360 -12 447 41 483 127 L427 127 C392 70 332 39 264 39 C172 39 109 96 109 201 C109 207 109 214 110 220 L498 220 Z M307 428 C392 428 446 376 446 278 L446 267 L117 267 C139 359 207 428 307 428 L307 428 Z " />
<glyph glyph-name="Gcircumflex" unicode="&#x11c;" horiz-adv-x="782" d="M470 886 L551 775 L609 775 L500 923 L444 923 L304 775 L366 775 L470 886 Z M419 292 L658 292 C631 135 514 43 375 43 C230 43 128 142 128 305 C128 501 256 657 446 657 C571 657 661 587 670 476 L733 476 C723 619 605 712 448 712 C226 712 65 529 65 301 C65 112 190 -12 367 -12 C483 -12 586 45 639 142 L641 142 L634 0 L683 0 L719 347 L425 347 L419 292 Z " />
<glyph glyph-name="gcircumflex" unicode="&#x11d;" horiz-adv-x="599" d="M349 649 L425 544 L479 544 L377 684 L324 684 L191 544 L250 544 L349 649 Z M486 465 L472 374 L470 374 C445 438 379 477 303 477 C160 477 53 349 53 203 C53 79 137 -6 253 -6 C331 -6 403 32 441 96 L444 96 L432 -12 C420 -121 347 -186 237 -186 C148 -186 96 -145 89 -71 L30 -71 C33 -175 113 -236 235 -236 C379 -236 473 -153 488 -9 L538 465 L486 465 Z M265 44 C175 44 113 107 113 207 C113 328 193 426 309 426 C399 426 460 363 460 263 C460 143 380 44 265 44 L265 44 Z " />
<glyph glyph-name="Gbreve" unicode="&#x11e;" horiz-adv-x="782" d="M456 776 C541 776 597 821 605 916 L553 916 C545 848 513 819 460 819 C411 819 385 842 385 895 C385 901 385 908 386 916 L337 916 C336 909 335 896 335 889 C335 816 377 776 456 776 L456 776 Z M419 292 L658 292 C631 135 514 43 375 43 C230 43 128 142 128 305 C128 501 256 657 446 657 C571 657 661 587 670 476 L733 476 C723 619 605 712 448 712 C226 712 65 529 65 301 C65 112 190 -12 367 -12 C483 -12 586 45 639 142 L641 142 L634 0 L683 0 L719 347 L425 347 L419 292 Z " />
<glyph glyph-name="gbreve" unicode="&#x11f;" horiz-adv-x="599" d="M335 545 C415 545 467 587 476 677 L427 677 C420 612 390 585 339 585 C293 585 269 607 269 656 C269 663 269 669 270 677 L223 677 C222 666 221 661 221 652 C221 583 262 545 335 545 L335 545 Z M486 465 L472 374 L470 374 C445 438 379 477 303 477 C160 477 53 349 53 203 C53 79 137 -6 253 -6 C331 -6 403 32 441 96 L444 96 L432 -12 C420 -121 347 -186 237 -186 C148 -186 96 -145 89 -71 L30 -71 C33 -175 113 -236 235 -236 C379 -236 473 -153 488 -9 L538 465 L486 465 Z M265 44 C175 44 113 107 113 207 C113 328 193 426 309 426 C399 426 460 363 460 263 C460 143 380 44 265 44 L265 44 Z " />
<glyph glyph-name="Gdotaccent" unicode="&#x120;" horiz-adv-x="782" d="M459 795 C488 795 513 820 513 850 C513 875 494 894 468 894 C439 894 414 868 414 839 C414 814 434 795 459 795 L459 795 Z M419 292 L658 292 C631 135 514 43 375 43 C230 43 128 142 128 305 C128 501 256 657 446 657 C571 657 661 587 670 476 L733 476 C723 619 605 712 448 712 C226 712 65 529 65 301 C65 112 190 -12 367 -12 C483 -12 586 45 639 142 L641 142 L634 0 L683 0 L719 347 L425 347 L419 292 Z " />
<glyph glyph-name="gdotaccent" unicode="&#x121;" horiz-adv-x="599" d="M338 563 C365 563 389 585 389 613 C389 638 370 656 347 656 C321 656 296 634 296 604 C296 581 315 563 338 563 L338 563 Z M486 465 L472 374 L470 374 C445 438 379 477 303 477 C160 477 53 349 53 203 C53 79 137 -6 253 -6 C331 -6 403 32 441 96 L444 96 L432 -12 C420 -121 347 -186 237 -186 C148 -186 96 -145 89 -71 L30 -71 C33 -175 113 -236 235 -236 C379 -236 473 -153 488 -9 L538 465 L486 465 Z M265 44 C175 44 113 107 113 207 C113 328 193 426 309 426 C399 426 460 363 460 263 C460 143 380 44 265 44 L265 44 Z " />
<glyph glyph-name="uni0122" unicode="&#x122;" horiz-adv-x="782" d="M419 292 L658 292 C631 135 514 43 375 43 C230 43 128 142 128 305 C128 501 256 657 446 657 C571 657 661 587 670 476 L733 476 C723 619 605 712 448 712 C226 712 65 529 65 301 C65 112 190 -12 367 -12 C483 -12 586 45 639 142 L641 142 L634 0 L683 0 L719 347 L425 347 L419 292 Z M360 -85 C335 -85 309 -105 309 -134 C309 -157 325 -174 349 -174 C354 -174 360 -173 365 -172 C362 -191 351 -215 333 -235 L372 -235 C394 -210 408 -176 408 -143 C408 -106 386 -85 360 -85 L360 -85 Z " />
<glyph glyph-name="uni0123" unicode="&#x123;" horiz-adv-x="599" d="M342 550 C367 550 393 570 393 599 C393 622 377 639 353 639 C348 639 342 638 337 637 C340 656 351 680 369 700 L330 700 C308 675 294 641 294 608 C294 571 316 550 342 550 L342 550 Z M486 465 L472 374 L470 374 C445 438 379 477 303 477 C160 477 53 349 53 203 C53 79 137 -6 253 -6 C331 -6 403 32 441 96 L444 96 L432 -12 C420 -121 347 -186 237 -186 C148 -186 96 -145 89 -71 L30 -71 C33 -175 113 -236 235 -236 C379 -236 473 -153 488 -9 L538 465 L486 465 Z M265 44 C175 44 113 107 113 207 C113 328 193 426 309 426 C399 426 460 363 460 263 C460 143 380 44 265 44 L265 44 Z " />
<glyph glyph-name="Hcircumflex" unicode="&#x124;" horiz-adv-x="702" d="M422 886 L503 775 L561 775 L452 923 L396 923 L256 775 L318 775 L422 886 Z M589 700 L554 373 L177 373 L212 700 L151 700 L77 0 L138 0 L172 317 L549 317 L515 0 L576 0 L650 700 L589 700 Z " />
<glyph glyph-name="hcircumflex" unicode="&#x125;" horiz-adv-x="559" d="M185 886 L266 775 L324 775 L215 923 L159 923 L19 775 L81 775 L185 886 Z M335 477 C262 477 199 443 161 384 L159 384 L192 700 L134 700 L60 0 L118 0 L146 260 C157 367 226 425 316 425 C388 425 426 390 426 307 C426 296 425 284 424 271 L396 0 L454 0 L484 290 C485 301 486 311 486 321 C486 422 429 477 335 477 L335 477 Z " />
<glyph glyph-name="Hbar" unicode="&#x126;" horiz-adv-x="732" d="M740 543 L647 543 L664 700 L604 700 L587 543 L210 543 L227 700 L166 700 L149 543 L57 543 L52 497 L145 497 L92 0 L153 0 L187 317 L564 317 L530 0 L590 0 L643 497 L735 497 L740 543 Z M569 373 L192 373 L206 497 L583 497 L569 373 Z " />
<glyph glyph-name="hbar" unicode="&#x127;" horiz-adv-x="559" d="M335 477 C262 477 199 443 161 384 L159 384 L176 551 L334 551 L339 596 L181 596 L192 700 L134 700 L123 596 L13 596 L8 551 L118 551 L60 0 L118 0 L146 260 C157 367 226 425 316 425 C388 425 426 390 426 307 C426 296 425 284 424 271 L396 0 L454 0 L484 290 C485 301 486 311 486 321 C486 422 429 477 335 477 L335 477 Z " />
<glyph glyph-name="Itilde" unicode="&#x128;" horiz-adv-x="265" d="M262 777 C314 777 355 819 363 909 L319 909 C312 846 291 822 266 822 C251 822 237 831 213 864 C186 903 163 919 133 919 C81 919 39 877 31 788 L78 788 C84 850 104 875 128 875 C146 875 159 865 183 832 C212 794 233 777 262 777 L262 777 Z M77 0 L138 0 L212 700 L151 700 L77 0 Z " />
<glyph glyph-name="itilde" unicode="&#x129;" horiz-adv-x="228" d="M212 546 C256 546 292 586 300 670 L259 670 C253 611 235 589 216 589 C202 589 191 597 169 628 C144 665 124 680 96 680 C51 680 16 640 8 556 L50 556 C57 615 73 638 92 638 C107 638 117 629 140 598 C166 561 183 546 212 546 L212 546 Z M60 0 L118 0 L167 465 L109 465 L60 0 Z " />
<glyph glyph-name="Imacron" unicode="&#x12a;" horiz-adv-x="265" d="M57 815 L331 815 L336 864 L62 864 L57 815 Z M77 0 L138 0 L212 700 L151 700 L77 0 Z " />
<glyph glyph-name="imacron" unicode="&#x12b;" horiz-adv-x="228" d="M35 581 L267 581 L272 628 L40 628 L35 581 Z M60 0 L118 0 L167 465 L109 465 L60 0 Z " />
<glyph glyph-name="Ibreve" unicode="&#x12c;" horiz-adv-x="265" d="M189 776 C274 776 330 821 338 916 L286 916 C278 848 246 819 193 819 C144 819 118 842 118 895 C118 901 118 908 119 916 L70 916 C69 909 68 896 68 889 C68 816 110 776 189 776 L189 776 Z M77 0 L138 0 L212 700 L151 700 L77 0 Z " />
<glyph glyph-name="ibreve" unicode="&#x12d;" horiz-adv-x="228" d="M146 545 C221 545 269 589 279 677 L232 677 C224 612 194 585 150 585 C110 585 86 607 86 656 C86 662 86 669 87 677 L43 677 C41 667 41 661 41 651 C41 582 78 545 146 545 L146 545 Z M60 0 L118 0 L167 465 L109 465 L60 0 Z " />
<glyph glyph-name="Iogonek" unicode="&#x12e;" horiz-adv-x="265" d="M138 0 L212 700 L151 700 L77 0 L96 0 C46 -29 5 -81 5 -130 C5 -176 38 -205 88 -205 C98 -205 108 -204 117 -202 L122 -156 C113 -158 107 -159 101 -159 C75 -159 57 -145 57 -117 C57 -83 78 -49 138 0 L138 0 Z " />
<glyph glyph-name="iogonek" unicode="&#x12f;" horiz-adv-x="228" d="M158 656 C132 656 107 634 107 604 C107 581 126 563 149 563 C176 563 200 585 200 613 C200 638 181 656 158 656 L158 656 Z M60 0 L76 0 C26 -29 -15 -81 -15 -130 C-15 -176 18 -205 68 -205 C78 -205 88 -204 97 -202 L102 -156 C93 -158 87 -159 81 -159 C55 -159 37 -145 37 -117 C37 -83 58 -49 118 0 L167 465 L109 465 L60 0 Z " />
<glyph glyph-name="Idotaccent" unicode="&#x130;" horiz-adv-x="265" d="M192 795 C221 795 246 820 246 850 C246 875 227 894 201 894 C172 894 147 868 147 839 C147 814 167 795 192 795 L192 795 Z M77 0 L138 0 L212 700 L151 700 L77 0 Z " />
<glyph glyph-name="dotlessi" unicode="&#x131;" horiz-adv-x="228" d="M60 0 L118 0 L167 465 L109 465 L60 0 Z " />
<glyph glyph-name="Jcircumflex" unicode="&#x134;" horiz-adv-x="609" d="M399 886 L480 775 L538 775 L429 923 L373 923 L233 775 L295 775 L399 886 Z M190 700 L184 644 L500 644 L457 237 C443 104 378 44 266 44 C169 44 117 88 117 192 C117 204 118 217 119 230 L128 314 L67 314 L58 227 C57 212 56 199 56 187 C56 52 132 -12 262 -12 C411 -12 500 70 517 234 L567 700 L190 700 Z " />
<glyph glyph-name="jcircumflex" unicode="&#x135;" horiz-adv-x="228" d="M185 684 L137 684 L16 544 L72 544 L160 646 L225 544 L277 544 L185 684 Z M50 -99 C43 -163 20 -185 -29 -185 C-40 -185 -51 -184 -62 -182 L-67 -231 C-56 -234 -41 -236 -24 -236 C58 -236 98 -197 108 -100 L167 465 L109 465 L50 -99 Z " />
<glyph glyph-name="uni0136" unicode="&#x136;" horiz-adv-x="614" d="M631 700 L553 700 L179 367 L177 367 L212 700 L151 700 L77 0 L138 0 L173 329 L175 329 L488 0 L565 0 L237 349 L631 700 Z M289 -85 C264 -85 238 -105 238 -134 C238 -157 254 -174 278 -174 C283 -174 289 -173 294 -172 C291 -191 280 -215 262 -235 L301 -235 C323 -210 337 -176 337 -143 C337 -106 315 -85 289 -85 L289 -85 Z " />
<glyph glyph-name="uni0137" unicode="&#x137;" horiz-adv-x="484" d="M483 465 L405 465 L149 260 L146 260 L192 700 L134 700 L60 0 L118 0 L143 229 L145 229 L367 0 L441 0 L207 243 L483 465 Z M214 -85 C189 -85 163 -105 163 -134 C163 -157 179 -174 203 -174 C208 -174 214 -173 219 -172 C216 -191 205 -215 187 -235 L226 -235 C248 -210 262 -176 262 -143 C262 -106 240 -85 214 -85 L214 -85 Z " />
<glyph glyph-name="Lacute" unicode="&#x139;" horiz-adv-x="536" d="M305 920 L227 920 L140 772 L196 772 L305 920 Z M144 56 L212 700 L151 700 L77 0 L474 0 L480 56 L144 56 Z " />
<glyph glyph-name="lacute" unicode="&#x13a;" horiz-adv-x="228" d="M121 772 L177 772 L286 920 L208 920 L121 772 Z M60 0 L118 0 L192 700 L134 700 L60 0 Z " />
<glyph glyph-name="uni013B" unicode="&#x13b;" horiz-adv-x="536" d="M144 56 L212 700 L151 700 L77 0 L474 0 L480 56 L144 56 Z M268 -85 C243 -85 217 -105 217 -134 C217 -157 233 -174 257 -174 C262 -174 268 -173 273 -172 C270 -191 259 -215 241 -235 L280 -235 C302 -210 316 -176 316 -143 C316 -106 294 -85 268 -85 L268 -85 Z " />
<glyph glyph-name="uni013C" unicode="&#x13c;" horiz-adv-x="228" d="M192 700 L134 700 L60 0 L118 0 L192 700 Z M75 -85 C50 -85 24 -105 24 -134 C24 -157 40 -174 64 -174 C69 -174 75 -173 80 -172 C77 -191 66 -215 48 -235 L87 -235 C109 -210 123 -176 123 -143 C123 -106 101 -85 75 -85 L75 -85 Z " />
<glyph glyph-name="Lcaron" unicode="&#x13d;" horiz-adv-x="536" d="M342 539 L361 516 C407 548 444 596 444 652 C444 691 423 712 395 712 C369 712 344 692 344 663 C344 639 360 622 384 622 C390 622 395 623 400 625 C397 599 379 570 342 539 L342 539 Z M144 56 L212 700 L151 700 L77 0 L474 0 L480 56 L144 56 Z " />
<glyph glyph-name="lcaron" unicode="&#x13e;" horiz-adv-x="301" d="M332 712 C306 712 282 692 282 663 C282 639 298 622 322 622 C328 622 332 623 337 624 C334 599 316 570 279 539 L299 516 C344 548 381 596 381 652 C381 691 360 712 332 712 L332 712 Z M60 0 L118 0 L192 700 L134 700 L60 0 Z " />
<glyph glyph-name="Ldot" unicode="&#x13f;" horiz-adv-x="556" d="M144 56 L212 700 L151 700 L77 0 L474 0 L480 56 L144 56 Z M379 255 C404 255 429 276 429 309 C429 333 410 351 384 351 C354 351 333 327 333 298 C333 274 353 255 379 255 L379 255 Z " />
<glyph glyph-name="ldot" unicode="&#x140;" horiz-adv-x="408" d="M60 0 L118 0 L192 700 L134 700 L60 0 Z M312 197 C338 197 362 219 362 251 C362 275 343 293 318 293 C288 293 266 269 266 241 C266 216 287 197 312 197 L312 197 Z " />
<glyph glyph-name="Lslash" unicode="&#x141;" horiz-adv-x="560" d="M168 56 L194 298 L413 445 L418 505 L200 357 L236 700 L175 700 L134 313 L-6 218 L-13 159 L128 254 L101 0 L498 0 L504 56 L168 56 Z " />
<glyph glyph-name="lslash" unicode="&#x142;" horiz-adv-x="330" d="M342 469 L210 381 L244 700 L186 700 L148 339 L16 251 L9 196 L142 285 L112 0 L170 0 L205 327 L336 415 L342 469 Z " />
<glyph glyph-name="Nacute" unicode="&#x143;" horiz-adv-x="731" d="M538 920 L460 920 L373 772 L429 772 L538 920 Z M618 700 L555 100 L553 100 L212 700 L151 700 L77 0 L138 0 L201 600 L203 600 L544 0 L605 0 L679 700 L618 700 Z " />
<glyph glyph-name="nacute" unicode="&#x144;" horiz-adv-x="559" d="M425 681 L352 681 L270 541 L322 541 L425 681 Z M335 477 C262 477 198 443 159 384 L158 384 L162 465 L109 465 L60 0 L118 0 L146 260 C157 367 226 425 316 425 C388 425 426 390 426 307 C426 296 425 284 424 271 L396 0 L454 0 L484 290 C485 301 486 311 486 321 C486 422 428 477 335 477 L335 477 Z " />
<glyph glyph-name="uni0145" unicode="&#x145;" horiz-adv-x="731" d="M618 700 L555 100 L553 100 L212 700 L151 700 L77 0 L138 0 L201 600 L203 600 L544 0 L605 0 L679 700 L618 700 Z M327 -85 C302 -85 276 -105 276 -134 C276 -157 292 -174 316 -174 C321 -174 327 -173 332 -172 C329 -191 318 -215 300 -235 L339 -235 C361 -210 375 -176 375 -143 C375 -106 353 -85 327 -85 L327 -85 Z " />
<glyph glyph-name="uni0146" unicode="&#x146;" horiz-adv-x="559" d="M335 477 C262 477 198 443 159 384 L158 384 L162 465 L109 465 L60 0 L118 0 L146 260 C157 367 226 425 316 425 C388 425 426 390 426 307 C426 296 425 284 424 271 L396 0 L454 0 L484 290 C485 301 486 311 486 321 C486 422 428 477 335 477 L335 477 Z M241 -85 C216 -85 190 -105 190 -134 C190 -157 206 -174 230 -174 C235 -174 241 -173 246 -172 C243 -191 232 -215 214 -235 L253 -235 C275 -210 289 -176 289 -143 C289 -106 267 -85 241 -85 L241 -85 Z " />
<glyph glyph-name="Ncaron" unicode="&#x147;" horiz-adv-x="731" d="M451 775 L592 923 L529 923 L425 812 L345 923 L286 923 L396 775 L451 775 Z M618 700 L555 100 L553 100 L212 700 L151 700 L77 0 L138 0 L201 600 L203 600 L544 0 L605 0 L679 700 L618 700 Z " />
<glyph glyph-name="ncaron" unicode="&#x148;" horiz-adv-x="559" d="M341 544 L473 684 L415 684 L317 579 L240 684 L185 684 L288 544 L341 544 Z M335 477 C262 477 198 443 159 384 L158 384 L162 465 L109 465 L60 0 L118 0 L146 260 C157 367 226 425 316 425 C388 425 426 390 426 307 C426 296 425 284 424 271 L396 0 L454 0 L484 290 C485 301 486 311 486 321 C486 422 428 477 335 477 L335 477 Z " />
<glyph glyph-name="Eng" unicode="&#x14a;" horiz-adv-x="731" d="M618 700 L555 100 L553 100 L213 700 L151 700 L77 0 L138 0 L201 600 L203 600 L542 3 L538 -33 C532 -91 509 -113 465 -113 C454 -113 443 -112 432 -110 L426 -165 C437 -168 452 -170 470 -170 C548 -170 591 -129 601 -34 L679 700 L618 700 Z " />
<glyph glyph-name="eng" unicode="&#x14b;" horiz-adv-x="559" d="M335 477 C262 477 198 443 159 384 L158 384 L162 465 L109 465 L60 0 L118 0 L146 260 C157 367 226 425 316 425 C388 425 426 390 426 307 C426 296 425 284 424 271 L395 -10 C388 -74 366 -96 316 -96 C306 -96 294 -95 283 -93 L278 -142 C289 -145 304 -147 322 -147 C403 -147 443 -108 453 -11 L484 290 C485 301 486 311 486 321 C486 422 428 477 335 477 L335 477 Z " />
<glyph glyph-name="Omacron" unicode="&#x14c;" horiz-adv-x="796" d="M322 815 L596 815 L601 864 L327 864 L322 815 Z M374 -12 C590 -12 754 171 754 395 C754 583 627 712 446 712 C230 712 66 529 66 304 C66 116 193 -12 374 -12 L374 -12 Z M376 44 C229 44 128 145 128 306 C128 500 257 656 444 656 C592 656 692 555 692 394 C692 200 563 44 376 44 L376 44 Z " />
<glyph glyph-name="omacron" unicode="&#x14d;" horiz-adv-x="578" d="M197 581 L455 581 L460 628 L202 628 L197 581 Z M265 -12 C416 -12 528 112 528 263 C528 390 440 477 314 477 C162 477 51 353 51 202 C51 75 139 -12 265 -12 L265 -12 Z M268 39 C175 39 110 104 110 205 C110 326 193 426 310 426 C404 426 468 361 468 260 C468 138 385 39 268 39 L268 39 Z " />
<glyph glyph-name="Obreve" unicode="&#x14e;" horiz-adv-x="796" d="M454 776 C539 776 595 821 603 916 L551 916 C543 848 511 819 458 819 C409 819 383 842 383 895 C383 901 383 908 384 916 L335 916 C334 909 333 896 333 889 C333 816 375 776 454 776 L454 776 Z M374 -12 C590 -12 754 171 754 395 C754 583 627 712 446 712 C230 712 66 529 66 304 C66 116 193 -12 374 -12 L374 -12 Z M376 44 C229 44 128 145 128 306 C128 500 257 656 444 656 C592 656 692 555 692 394 C692 200 563 44 376 44 L376 44 Z " />
<glyph glyph-name="obreve" unicode="&#x14f;" horiz-adv-x="578" d="M321 545 C401 545 453 587 462 677 L413 677 C406 612 376 585 325 585 C279 585 255 607 255 656 C255 663 255 669 256 677 L209 677 C208 666 207 661 207 652 C207 583 248 545 321 545 L321 545 Z M265 -12 C416 -12 528 112 528 263 C528 390 440 477 314 477 C162 477 51 353 51 202 C51 75 139 -12 265 -12 L265 -12 Z M268 39 C175 39 110 104 110 205 C110 326 193 426 310 426 C404 426 468 361 468 260 C468 138 385 39 268 39 L268 39 Z " />
<glyph glyph-name="Ohungarumlaut" unicode="&#x150;" horiz-adv-x="796" d="M329 775 L378 775 L475 923 L410 923 L329 775 Z M490 775 L539 775 L636 923 L571 923 L490 775 Z M374 -12 C590 -12 754 171 754 395 C754 583 627 712 446 712 C230 712 66 529 66 304 C66 116 193 -12 374 -12 L374 -12 Z M376 44 C229 44 128 145 128 306 C128 500 257 656 444 656 C592 656 692 555 692 394 C692 200 563 44 376 44 L376 44 Z " />
<glyph glyph-name="ohungarumlaut" unicode="&#x151;" horiz-adv-x="578" d="M203 544 L250 544 L342 684 L280 684 L203 544 Z M355 544 L401 544 L493 684 L431 684 L355 544 Z M265 -12 C416 -12 528 112 528 263 C528 390 440 477 314 477 C162 477 51 353 51 202 C51 75 139 -12 265 -12 L265 -12 Z M268 39 C175 39 110 104 110 205 C110 326 193 426 310 426 C404 426 468 361 468 260 C468 138 385 39 268 39 L268 39 Z " />
<glyph glyph-name="OE" unicode="&#x152;" horiz-adv-x="1008" d="M981 644 L987 700 L478 700 C237 700 67 539 67 304 C67 116 199 0 404 0 L913 0 L919 56 L565 56 L593 325 L920 325 L926 381 L599 381 L626 644 L981 644 Z M130 308 C130 509 264 644 469 644 L566 644 L504 56 L407 56 C237 56 130 148 130 308 L130 308 Z " />
<glyph glyph-name="oe" unicode="&#x153;" horiz-adv-x="966" d="M911 220 C915 237 918 260 918 279 C918 401 839 477 725 477 C634 477 552 428 509 347 L506 347 C477 428 408 477 314 477 C163 477 50 352 50 202 C50 75 137 -12 263 -12 C356 -12 435 36 479 116 L482 116 C508 35 580 -12 673 -12 C773 -12 860 41 896 127 L841 127 C804 70 744 39 675 39 C584 39 523 96 523 200 C523 207 523 213 524 220 L911 220 Z M721 428 C806 428 860 376 860 278 L860 267 L531 267 C553 359 621 428 721 428 L721 428 Z M265 39 C173 39 110 104 110 205 C110 327 195 426 312 426 C405 426 467 361 467 260 C467 137 383 39 265 39 L265 39 Z " />
<glyph glyph-name="Racute" unicode="&#x154;" horiz-adv-x="645" d="M472 920 L394 920 L307 772 L363 772 L472 920 Z M601 507 C601 624 514 700 363 700 L151 700 L77 0 L138 0 L166 264 L318 264 L320 264 L488 0 L558 0 L385 270 C512 291 601 377 601 507 L601 507 Z M206 644 L359 644 C481 644 539 591 539 505 C539 386 455 319 324 319 L172 319 L206 644 Z " />
<glyph glyph-name="racute" unicode="&#x155;" horiz-adv-x="358" d="M342 681 L269 681 L187 541 L239 541 L342 681 Z M306 473 C247 473 189 438 159 378 L156 378 L161 465 L109 465 L60 0 L118 0 L145 250 C157 365 221 420 304 420 C319 420 334 418 348 415 L353 465 C340 470 324 473 306 473 L306 473 Z " />
<glyph glyph-name="uni0156" unicode="&#x156;" horiz-adv-x="645" d="M601 507 C601 624 514 700 363 700 L151 700 L77 0 L138 0 L166 264 L318 264 L320 264 L488 0 L558 0 L385 270 C512 291 601 377 601 507 L601 507 Z M206 644 L359 644 C481 644 539 591 539 505 C539 386 455 319 324 319 L172 319 L206 644 Z M285 -85 C260 -85 234 -105 234 -134 C234 -157 250 -174 274 -174 C279 -174 285 -173 290 -172 C287 -191 276 -215 258 -235 L297 -235 C319 -210 333 -176 333 -143 C333 -106 311 -85 285 -85 L285 -85 Z " />
<glyph glyph-name="uni0157" unicode="&#x157;" horiz-adv-x="358" d="M306 473 C247 473 189 438 159 378 L156 378 L161 465 L109 465 L60 0 L118 0 L145 250 C157 365 221 420 304 420 C319 420 334 418 348 415 L353 465 C340 470 324 473 306 473 L306 473 Z M76 -85 C51 -85 25 -105 25 -134 C25 -157 41 -174 65 -174 C70 -174 76 -173 81 -172 C78 -191 67 -215 49 -235 L88 -235 C110 -210 124 -176 124 -143 C124 -106 102 -85 76 -85 L76 -85 Z " />
<glyph glyph-name="Rcaron" unicode="&#x158;" horiz-adv-x="645" d="M385 775 L526 923 L463 923 L359 812 L279 923 L220 923 L330 775 L385 775 Z M601 507 C601 624 514 700 363 700 L151 700 L77 0 L138 0 L166 264 L318 264 L320 264 L488 0 L558 0 L385 270 C512 291 601 377 601 507 L601 507 Z M206 644 L359 644 C481 644 539 591 539 505 C539 386 455 319 324 319 L172 319 L206 644 Z " />
<glyph glyph-name="rcaron" unicode="&#x159;" horiz-adv-x="358" d="M256 544 L378 684 L321 684 L234 582 L169 684 L117 684 L208 544 L256 544 Z M159 378 L156 378 L161 465 L109 465 L60 0 L118 0 L145 250 C157 365 221 420 304 420 C319 420 334 418 348 415 L353 465 C340 470 324 473 306 473 C247 473 189 438 159 378 L159 378 Z " />
<glyph glyph-name="Sacute" unicode="&#x15a;" horiz-adv-x="590" d="M298 772 L354 772 L463 920 L385 920 L298 772 Z M276 -12 C419 -12 537 78 537 214 C537 293 485 344 363 372 L304 385 C190 412 152 442 152 501 C152 595 234 657 338 657 C436 657 496 607 497 509 L559 509 C560 634 472 712 343 712 C207 712 91 626 91 496 C91 417 145 364 262 337 L322 324 C437 298 475 266 475 207 C475 112 391 43 282 43 C176 43 109 102 110 210 L48 210 C42 72 139 -12 276 -12 L276 -12 Z " />
<glyph glyph-name="sacute" unicode="&#x15b;" horiz-adv-x="452" d="M214 541 L266 541 L369 681 L296 681 L214 541 Z M208 -12 C317 -12 398 52 398 146 C398 202 360 238 270 256 L220 266 C144 281 122 301 122 334 C122 390 174 429 248 429 C315 429 351 399 354 343 L412 343 C410 428 349 477 252 477 C151 477 65 418 65 326 C65 272 104 237 187 220 L238 210 C315 194 341 172 341 136 C341 77 286 36 210 36 C141 36 98 70 95 134 L37 134 C38 41 104 -12 208 -12 L208 -12 Z " />
<glyph glyph-name="Scircumflex" unicode="&#x15c;" horiz-adv-x="590" d="M361 886 L442 775 L500 775 L391 923 L335 923 L195 775 L257 775 L361 886 Z M338 657 C436 657 496 607 497 509 L559 509 C560 634 472 712 343 712 C207 712 91 626 91 496 C91 417 145 364 262 337 L322 324 C437 298 475 266 475 207 C475 112 391 43 282 43 C176 43 109 102 110 210 L48 210 C42 72 139 -12 276 -12 C419 -12 537 78 537 214 C537 293 485 344 363 372 L304 385 C190 412 152 442 152 501 C152 595 234 657 338 657 L338 657 Z " />
<glyph glyph-name="scircumflex" unicode="&#x15d;" horiz-adv-x="452" d="M272 649 L348 544 L402 544 L300 684 L247 684 L114 544 L173 544 L272 649 Z M270 256 L220 266 C144 281 122 301 122 334 C122 390 174 429 248 429 C315 429 351 399 354 343 L412 343 C410 428 349 477 252 477 C151 477 65 418 65 326 C65 272 104 237 187 220 L238 210 C315 194 341 172 341 136 C341 77 286 36 210 36 C141 36 98 70 95 134 L37 134 C38 41 104 -12 208 -12 C317 -12 398 52 398 146 C398 202 360 238 270 256 L270 256 Z " />
<glyph glyph-name="Scedilla" unicode="&#x15e;" horiz-adv-x="590" d="M338 657 C436 657 496 607 497 509 L559 509 C560 634 472 712 343 712 C207 712 91 626 91 496 C91 417 145 364 262 337 L322 324 C437 298 475 266 475 207 C475 112 391 43 282 43 C176 43 109 102 110 210 L48 210 C42 83 124 2 244 -10 L226 -97 C292 -97 308 -108 308 -128 C308 -158 286 -174 241 -174 C231 -174 219 -173 208 -172 L203 -215 C216 -216 229 -217 242 -217 C309 -217 357 -185 357 -127 C357 -89 328 -66 277 -63 L286 -12 C424 -8 537 81 537 214 C537 293 485 344 363 372 L304 385 C190 412 152 442 152 501 C152 595 234 657 338 657 L338 657 Z " />
<glyph glyph-name="scedilla" unicode="&#x15f;" horiz-adv-x="452" d="M270 256 L220 266 C144 281 122 301 122 334 C122 390 174 429 248 429 C315 429 351 399 354 343 L412 343 C410 428 349 477 252 477 C151 477 65 418 65 326 C65 272 104 237 187 220 L238 210 C315 194 341 172 341 136 C341 77 286 36 210 36 C141 36 98 70 95 134 L37 134 C38 51 90 0 175 -10 L157 -97 C223 -97 239 -108 239 -128 C239 -157 219 -174 172 -174 C162 -174 150 -173 139 -172 L134 -215 C147 -216 160 -217 173 -217 C245 -217 288 -181 288 -127 C288 -89 260 -66 208 -63 L217 -12 C321 -8 398 55 398 146 C398 202 360 238 270 256 L270 256 Z " />
<glyph glyph-name="Scaron" unicode="&#x160;" horiz-adv-x="590" d="M375 775 L516 923 L453 923 L349 812 L269 923 L210 923 L320 775 L375 775 Z M338 657 C436 657 496 607 497 509 L559 509 C560 634 472 712 343 712 C207 712 91 626 91 496 C91 417 145 364 262 337 L322 324 C437 298 475 266 475 207 C475 112 391 43 282 43 C176 43 109 102 110 210 L48 210 C42 72 139 -12 276 -12 C419 -12 537 78 537 214 C537 293 485 344 363 372 L304 385 C190 412 152 442 152 501 C152 595 234 657 338 657 L338 657 Z " />
<glyph glyph-name="scaron" unicode="&#x161;" horiz-adv-x="452" d="M285 544 L417 684 L359 684 L261 579 L184 684 L129 684 L232 544 L285 544 Z M248 429 C315 429 351 399 354 343 L412 343 C410 428 349 477 252 477 C151 477 65 418 65 326 C65 272 104 237 187 220 L238 210 C315 194 341 172 341 136 C341 77 286 36 210 36 C141 36 98 70 95 134 L37 134 C38 41 104 -12 208 -12 C317 -12 398 52 398 146 C398 202 360 238 270 256 L220 266 C144 281 122 301 122 334 C122 390 174 429 248 429 L248 429 Z " />
<glyph glyph-name="uni0162" unicode="&#x162;" horiz-adv-x="564" d="M590 700 L73 700 L67 644 L295 644 L227 0 L288 0 L356 644 L584 644 L590 700 Z M244 -85 C219 -85 193 -105 193 -134 C193 -157 209 -174 233 -174 C238 -174 244 -173 249 -172 C246 -191 235 -215 217 -235 L256 -235 C278 -210 292 -176 292 -143 C292 -106 270 -85 244 -85 L244 -85 Z " />
<glyph glyph-name="uni0163" unicode="&#x163;" horiz-adv-x="350" d="M187 415 L329 415 L334 465 L193 465 L205 585 L147 585 L135 465 L41 465 L36 415 L129 415 L102 153 C100 139 100 128 100 116 C100 24 145 -12 232 -12 C256 -12 275 -9 290 -6 L295 43 C280 40 263 38 247 38 C177 38 150 66 160 153 L187 415 Z M172 -85 C147 -85 121 -105 121 -134 C121 -157 137 -174 161 -174 C166 -174 172 -173 177 -172 C174 -191 163 -215 145 -235 L184 -235 C206 -210 220 -176 220 -143 C220 -106 198 -85 172 -85 L172 -85 Z " />
<glyph glyph-name="Tcaron" unicode="&#x164;" horiz-adv-x="564" d="M367 775 L508 923 L445 923 L341 812 L261 923 L202 923 L312 775 L367 775 Z M590 700 L73 700 L67 644 L295 644 L227 0 L288 0 L356 644 L584 644 L590 700 Z " />
<glyph glyph-name="tcaron" unicode="&#x165;" horiz-adv-x="350" d="M310 627 C316 627 321 628 326 630 C324 609 313 586 294 566 L333 566 C355 592 370 626 370 658 C370 696 347 717 321 717 C296 717 270 697 270 668 C270 644 286 627 310 627 L310 627 Z M205 585 L147 585 L135 465 L41 465 L36 415 L129 415 L102 153 C100 139 100 128 100 116 C100 24 145 -12 232 -12 C256 -12 275 -9 290 -6 L295 43 C280 40 263 38 247 38 C177 38 150 66 160 153 L187 415 L329 415 L334 465 L193 465 L205 585 Z " />
<glyph glyph-name="Tbar" unicode="&#x166;" horiz-adv-x="564" d="M584 644 L590 700 L73 700 L67 644 L295 644 L263 337 L121 337 L116 288 L257 288 L227 0 L288 0 L318 288 L461 288 L466 337 L324 337 L356 644 L584 644 Z " />
<glyph glyph-name="tbar" unicode="&#x167;" horiz-adv-x="362" d="M335 415 L340 465 L199 465 L211 585 L153 585 L141 465 L47 465 L42 415 L135 415 L119 256 L26 256 L21 212 L114 212 L108 153 C106 139 106 128 106 116 C106 24 151 -12 238 -12 C262 -12 281 -9 296 -6 L301 43 C286 40 269 38 253 38 C183 38 156 66 166 153 L172 212 L314 212 L318 256 L177 256 L193 415 L335 415 Z " />
<glyph glyph-name="Utilde" unicode="&#x168;" horiz-adv-x="700" d="M480 777 C532 777 573 819 581 909 L537 909 C530 846 509 822 484 822 C469 822 455 831 431 864 C404 903 381 919 351 919 C299 919 257 877 249 788 L296 788 C302 850 322 875 346 875 C364 875 377 865 401 832 C430 794 451 777 480 777 L480 777 Z M324 -12 C483 -12 594 93 612 269 L657 700 L597 700 L551 267 C536 121 449 44 329 44 C219 44 154 107 154 226 C154 239 155 253 157 267 L202 700 L141 700 L96 269 C95 254 94 239 94 225 C94 75 180 -12 324 -12 L324 -12 Z " />
<glyph glyph-name="utilde" unicode="&#x169;" horiz-adv-x="554" d="M252 638 C269 638 282 629 304 598 C331 562 351 546 378 546 C427 546 466 586 474 670 L432 670 C426 611 406 589 383 589 C368 589 354 597 333 628 C307 665 285 680 256 680 C208 680 169 640 160 556 L204 556 C211 615 231 638 252 638 L252 638 Z M436 465 L408 205 C397 97 326 40 240 40 C172 40 133 76 133 157 C133 169 134 180 135 192 L163 465 L105 465 L74 173 C73 163 73 153 73 144 C73 43 132 -12 222 -12 C292 -12 358 22 395 81 L396 81 L392 0 L445 0 L494 465 L436 465 Z " />
<glyph glyph-name="Umacron" unicode="&#x16a;" horiz-adv-x="700" d="M275 815 L549 815 L554 864 L280 864 L275 815 Z M324 -12 C483 -12 594 93 612 269 L657 700 L597 700 L551 267 C536 121 449 44 329 44 C219 44 154 107 154 226 C154 239 155 253 157 267 L202 700 L141 700 L96 269 C95 254 94 239 94 225 C94 75 180 -12 324 -12 L324 -12 Z " />
<glyph glyph-name="umacron" unicode="&#x16b;" horiz-adv-x="554" d="M448 628 L190 628 L185 581 L443 581 L448 628 Z M436 465 L408 205 C397 97 326 40 240 40 C172 40 133 76 133 157 C133 169 134 180 135 192 L163 465 L105 465 L74 173 C73 163 73 153 73 144 C73 43 132 -12 222 -12 C292 -12 358 22 395 81 L396 81 L392 0 L445 0 L494 465 L436 465 Z " />
<glyph glyph-name="Ubreve" unicode="&#x16c;" horiz-adv-x="700" d="M407 776 C492 776 548 821 556 916 L504 916 C496 848 464 819 411 819 C362 819 336 842 336 895 C336 901 336 908 337 916 L288 916 C287 909 286 896 286 889 C286 816 328 776 407 776 L407 776 Z M324 -12 C483 -12 594 93 612 269 L657 700 L597 700 L551 267 C536 121 449 44 329 44 C219 44 154 107 154 226 C154 239 155 253 157 267 L202 700 L141 700 L96 269 C95 254 94 239 94 225 C94 75 180 -12 324 -12 L324 -12 Z " />
<glyph glyph-name="ubreve" unicode="&#x16d;" horiz-adv-x="554" d="M309 545 C389 545 441 587 450 677 L401 677 C394 612 364 585 313 585 C267 585 243 607 243 656 C243 663 243 669 244 677 L197 677 C196 666 195 661 195 652 C195 583 236 545 309 545 L309 545 Z M436 465 L408 205 C397 97 326 40 240 40 C172 40 133 76 133 157 C133 169 134 180 135 192 L163 465 L105 465 L74 173 C73 163 73 153 73 144 C73 43 132 -12 222 -12 C292 -12 358 22 395 81 L396 81 L392 0 L445 0 L494 465 L436 465 Z " />
<glyph glyph-name="Uring" unicode="&#x16e;" horiz-adv-x="700" d="M408 765 C468 765 519 813 519 874 C519 923 480 961 426 961 C366 961 314 913 314 853 C314 804 354 765 408 765 L408 765 Z M410 807 C378 807 359 828 359 856 C359 890 386 920 423 920 C455 920 473 898 473 870 C473 834 445 807 410 807 L410 807 Z M324 -12 C483 -12 594 93 612 269 L657 700 L597 700 L551 267 C536 121 449 44 329 44 C219 44 154 107 154 226 C154 239 155 253 157 267 L202 700 L141 700 L96 269 C95 254 94 239 94 225 C94 75 180 -12 324 -12 L324 -12 Z " />
<glyph glyph-name="uring" unicode="&#x16f;" horiz-adv-x="554" d="M310 536 C368 536 415 583 415 637 C415 684 378 721 327 721 C269 721 221 673 221 619 C221 572 260 536 310 536 L310 536 Z M324 681 C355 681 372 661 372 634 C372 600 347 575 313 575 C283 575 265 595 265 622 C265 655 290 681 324 681 L324 681 Z M436 465 L408 205 C397 97 326 40 240 40 C172 40 133 76 133 157 C133 169 134 180 135 192 L163 465 L105 465 L74 173 C73 163 73 153 73 144 C73 43 132 -12 222 -12 C292 -12 358 22 395 81 L396 81 L392 0 L445 0 L494 465 L436 465 Z " />
<glyph glyph-name="Uhungarumlaut" unicode="&#x170;" horiz-adv-x="700" d="M281 775 L330 775 L427 923 L362 923 L281 775 Z M442 775 L491 775 L588 923 L523 923 L442 775 Z M324 -12 C483 -12 594 93 612 269 L657 700 L597 700 L551 267 C536 121 449 44 329 44 C219 44 154 107 154 226 C154 239 155 253 157 267 L202 700 L141 700 L96 269 C95 254 94 239 94 225 C94 75 180 -12 324 -12 L324 -12 Z " />
<glyph glyph-name="uhungarumlaut" unicode="&#x171;" horiz-adv-x="554" d="M331 684 L269 684 L192 544 L239 544 L331 684 Z M482 684 L420 684 L344 544 L390 544 L482 684 Z M436 465 L408 205 C397 97 326 40 240 40 C172 40 133 76 133 157 C133 169 134 180 135 192 L163 465 L105 465 L74 173 C73 163 73 153 73 144 C73 43 132 -12 222 -12 C292 -12 358 22 395 81 L396 81 L392 0 L445 0 L494 465 L436 465 Z " />
<glyph glyph-name="Uogonek" unicode="&#x172;" horiz-adv-x="700" d="M597 700 L551 267 C536 121 449 44 329 44 C219 44 154 107 154 226 C154 239 155 253 157 267 L202 700 L141 700 L96 269 C95 254 94 239 94 225 C94 75 180 -12 324 -12 L338 -12 C291 -42 258 -86 258 -134 C258 -185 296 -216 361 -216 C372 -216 384 -215 395 -213 L400 -163 C390 -166 381 -166 374 -166 C334 -166 313 -151 313 -122 C314 -79 349 -42 415 1 C525 34 598 129 612 269 L657 700 L597 700 Z " />
<glyph glyph-name="uogonek" unicode="&#x173;" horiz-adv-x="554" d="M436 465 L408 205 C397 97 326 40 240 40 C172 40 133 76 133 157 C133 169 134 180 135 192 L163 465 L105 465 L74 173 C73 163 73 153 73 144 C73 43 132 -12 222 -12 C292 -12 358 22 395 81 L396 81 L392 2 C337 -26 294 -73 294 -129 C294 -176 330 -205 392 -205 C403 -205 413 -204 423 -202 L428 -156 C419 -158 410 -159 404 -159 C365 -159 347 -144 347 -116 C347 -71 392 -33 444 0 L445 0 L494 465 L436 465 Z " />
<glyph glyph-name="Wcircumflex" unicode="&#x174;" horiz-adv-x="986" d="M564 886 L645 775 L703 775 L594 923 L538 923 L398 775 L460 775 L564 886 Z M944 700 L697 100 L695 100 L571 700 L513 700 L263 100 L261 100 L140 700 L79 700 L222 0 L281 0 L533 605 L535 605 L659 0 L715 0 L1005 700 L944 700 Z " />
<glyph glyph-name="wcircumflex" unicode="&#x175;" horiz-adv-x="769" d="M431 649 L507 544 L561 544 L459 684 L406 684 L273 544 L332 544 L431 649 Z M709 465 L540 80 L537 80 L437 465 L382 465 L199 80 L197 80 L108 465 L50 465 L161 0 L218 0 L400 385 L402 385 L502 0 L559 0 L768 465 L709 465 Z " />
<glyph glyph-name="Ycircumflex" unicode="&#x176;" horiz-adv-x="609" d="M376 886 L457 775 L515 775 L406 923 L350 923 L210 775 L272 775 L376 886 Z M577 700 L315 339 L314 339 L129 700 L61 700 L279 281 L250 0 L310 0 L340 281 L647 700 L577 700 Z " />
<glyph glyph-name="ycircumflex" unicode="&#x177;" horiz-adv-x="489" d="M291 649 L367 544 L421 544 L319 684 L266 684 L133 544 L192 544 L291 649 Z M436 465 L227 73 L225 73 L102 465 L42 465 L190 6 L68 -224 L128 -224 L497 465 L436 465 Z " />
<glyph glyph-name="Ydieresis" unicode="&#x178;" horiz-adv-x="609" d="M262 795 C291 795 316 820 316 850 C316 875 297 894 272 894 C242 894 218 868 218 839 C218 814 237 795 262 795 L262 795 Z M467 795 C496 795 521 820 521 850 C521 875 502 894 476 894 C447 894 423 868 423 839 C423 814 442 795 467 795 L467 795 Z M250 0 L310 0 L340 281 L647 700 L577 700 L315 339 L314 339 L129 700 L61 700 L279 281 L250 0 Z " />
<glyph glyph-name="Zacute" unicode="&#x179;" horiz-adv-x="569" d="M455 920 L377 920 L290 772 L346 772 L455 920 Z M559 700 L109 700 L103 644 L478 644 L33 46 L28 0 L492 0 L498 56 L110 56 L554 654 L559 700 Z " />
<glyph glyph-name="zacute" unicode="&#x17a;" horiz-adv-x="443" d="M364 681 L291 681 L209 541 L261 541 L364 681 Z M421 465 L70 465 L65 415 L341 415 L21 40 L17 0 L377 0 L382 51 L98 51 L417 425 L421 465 Z " />
<glyph glyph-name="Zdotaccent" unicode="&#x17b;" horiz-adv-x="569" d="M343 795 C372 795 397 820 397 850 C397 875 378 894 352 894 C323 894 298 868 298 839 C298 814 318 795 343 795 L343 795 Z M559 700 L109 700 L103 644 L478 644 L33 46 L28 0 L492 0 L498 56 L110 56 L554 654 L559 700 Z " />
<glyph glyph-name="zdotaccent" unicode="&#x17c;" horiz-adv-x="443" d="M257 563 C284 563 308 585 308 613 C308 638 289 656 266 656 C240 656 215 634 215 604 C215 581 234 563 257 563 L257 563 Z M421 465 L70 465 L65 415 L341 415 L21 40 L17 0 L377 0 L382 51 L98 51 L417 425 L421 465 Z " />
<glyph glyph-name="Zcaron" unicode="&#x17d;" horiz-adv-x="569" d="M368 775 L509 923 L446 923 L342 812 L262 923 L203 923 L313 775 L368 775 Z M559 700 L109 700 L103 644 L478 644 L33 46 L28 0 L492 0 L498 56 L110 56 L554 654 L559 700 Z " />
<glyph glyph-name="zcaron" unicode="&#x17e;" horiz-adv-x="443" d="M281 544 L413 684 L355 684 L257 579 L180 684 L125 684 L228 544 L281 544 Z M421 465 L70 465 L65 415 L341 415 L21 40 L17 0 L377 0 L382 51 L98 51 L417 425 L421 465 Z " />
<glyph glyph-name="florin" unicode="&#x192;" horiz-adv-x="470" d="M450 712 C369 712 313 671 283 570 L237 415 L101 415 L96 368 L223 368 L157 145 C135 66 98 41 43 41 C32 41 21 42 9 44 L4 -7 C16 -10 28 -12 44 -12 C126 -12 182 29 211 130 L282 368 L440 368 L445 415 L295 415 L337 555 C360 634 395 659 451 659 C462 659 474 658 485 656 L491 707 C479 710 466 712 450 712 L450 712 Z " />
<glyph glyph-name="uni01CD" unicode="&#x1cd;" horiz-adv-x="635" d="M403 775 L544 923 L481 923 L377 812 L297 923 L238 923 L348 775 L403 775 Z M529 0 L588 0 L398 700 L336 700 L-3 0 L61 0 L153 192 L478 192 L529 0 Z M179 246 L360 625 L362 625 L463 246 L179 246 Z " />
<glyph glyph-name="uni01CE" unicode="&#x1ce;" horiz-adv-x="597" d="M357 544 L489 684 L431 684 L333 579 L256 684 L201 684 L304 544 L357 544 Z M484 465 L470 374 L469 374 C442 438 377 477 302 477 C160 477 51 354 51 200 C51 74 134 -12 251 -12 C329 -12 401 27 439 91 L440 91 L435 0 L488 0 L537 465 L484 465 Z M263 39 C173 39 110 102 110 204 C110 328 191 426 306 426 C397 426 460 363 460 261 C460 138 380 39 263 39 L263 39 Z " />
<glyph glyph-name="uni01E2" unicode="&#x1e2;" horiz-adv-x="1011" d="M891 864 L617 864 L612 815 L886 815 L891 864 Z M983 644 L989 700 L538 700 L-7 0 L67 0 L222 201 L521 201 L500 0 L915 0 L921 56 L567 56 L595 325 L923 325 L929 381 L601 381 L629 644 L983 644 Z M263 254 L564 644 L569 644 L527 254 L263 254 Z " />
<glyph glyph-name="uni01E3" unicode="&#x1e3;" horiz-adv-x="895" d="M627 628 L369 628 L364 581 L622 581 L627 628 Z M841 220 C844 233 848 264 848 280 C848 401 770 477 660 477 C579 477 505 437 459 368 L457 368 C443 439 387 477 300 477 C185 477 106 419 89 323 L148 323 C163 390 215 427 297 427 C383 427 421 384 411 296 L408 264 L274 264 C150 264 50 216 50 107 C50 35 108 -12 201 -12 C300 -12 385 38 419 113 L421 113 C446 35 515 -12 605 -12 C703 -12 789 41 826 129 L770 129 C735 72 674 39 608 39 C522 39 462 96 462 200 C462 207 462 213 463 220 L841 220 Z M657 427 C740 427 793 373 789 267 L470 267 C492 359 560 427 657 427 L657 427 Z M211 38 C145 38 110 67 110 114 C110 187 176 217 268 217 L404 217 L402 199 C391 104 313 38 211 38 L211 38 Z " />
<glyph glyph-name="Gcaron" unicode="&#x1e6;" horiz-adv-x="782" d="M484 775 L625 923 L562 923 L458 812 L378 923 L319 923 L429 775 L484 775 Z M419 292 L658 292 C631 135 514 43 375 43 C230 43 128 142 128 305 C128 501 256 657 446 657 C571 657 661 587 670 476 L733 476 C723 619 605 712 448 712 C226 712 65 529 65 301 C65 112 190 -12 367 -12 C483 -12 586 45 639 142 L641 142 L634 0 L683 0 L719 347 L425 347 L419 292 Z " />
<glyph glyph-name="gcaron" unicode="&#x1e7;" horiz-adv-x="599" d="M362 544 L494 684 L436 684 L338 579 L261 684 L206 684 L309 544 L362 544 Z M486 465 L472 374 L470 374 C445 438 379 477 303 477 C160 477 53 349 53 203 C53 79 137 -6 253 -6 C331 -6 403 32 441 96 L444 96 L432 -12 C420 -121 347 -186 237 -186 C148 -186 96 -145 89 -71 L30 -71 C33 -175 113 -236 235 -236 C379 -236 473 -153 488 -9 L538 465 L486 465 Z M265 44 C175 44 113 107 113 207 C113 328 193 426 309 426 C399 426 460 363 460 263 C460 143 380 44 265 44 L265 44 Z " />
<glyph glyph-name="uni01E8" unicode="&#x1e8;" horiz-adv-x="614" d="M406 775 L547 923 L484 923 L380 812 L300 923 L241 923 L351 775 L406 775 Z M631 700 L553 700 L179 367 L177 367 L212 700 L151 700 L77 0 L138 0 L173 329 L175 329 L488 0 L565 0 L237 349 L631 700 Z " />
<glyph glyph-name="uni01E9" unicode="&#x1e9;" horiz-adv-x="484" d="M198 779 L330 919 L272 919 L174 814 L97 919 L42 919 L145 779 L198 779 Z M483 465 L405 465 L149 260 L146 260 L192 700 L134 700 L60 0 L118 0 L143 229 L145 229 L367 0 L441 0 L207 243 L483 465 Z " />
<glyph glyph-name="AEacute" unicode="&#x1fc;" horiz-adv-x="1011" d="M860 920 L782 920 L695 772 L751 772 L860 920 Z M983 644 L989 700 L538 700 L-7 0 L67 0 L222 201 L521 201 L500 0 L915 0 L921 56 L567 56 L595 325 L923 325 L929 381 L601 381 L629 644 L983 644 Z M263 254 L564 644 L569 644 L527 254 L263 254 Z " />
<glyph glyph-name="aeacute" unicode="&#x1fd;" horiz-adv-x="895" d="M598 681 L525 681 L443 541 L495 541 L598 681 Z M841 220 C844 233 848 264 848 280 C848 401 770 477 660 477 C579 477 505 437 459 368 L457 368 C443 439 387 477 300 477 C185 477 106 419 89 323 L148 323 C163 390 215 427 297 427 C383 427 421 384 411 296 L408 264 L274 264 C150 264 50 216 50 107 C50 35 108 -12 201 -12 C300 -12 385 38 419 113 L421 113 C446 35 515 -12 605 -12 C703 -12 789 41 826 129 L770 129 C735 72 674 39 608 39 C522 39 462 96 462 200 C462 207 462 213 463 220 L841 220 Z M657 427 C740 427 793 373 789 267 L470 267 C492 359 560 427 657 427 L657 427 Z M211 38 C145 38 110 67 110 114 C110 187 176 217 268 217 L404 217 L402 199 C391 104 313 38 211 38 L211 38 Z " />
<glyph glyph-name="Oslashacute" unicode="&#x1fe;" horiz-adv-x="806" d="M575 920 L497 920 L410 772 L466 772 L575 920 Z M798 663 L766 700 L678 620 C623 678 544 712 451 712 C236 712 72 529 72 304 C72 232 90 169 123 119 L32 37 L66 0 L154 80 C209 22 287 -12 380 -12 C596 -12 760 171 760 395 C760 467 741 530 708 581 L798 663 Z M450 656 C526 656 590 629 634 580 L169 160 C147 200 134 249 134 306 C134 500 263 656 450 656 L450 656 Z M382 44 C305 44 241 71 197 120 L662 541 C685 501 698 451 698 394 C698 200 569 44 382 44 L382 44 Z " />
<glyph glyph-name="oslashacute" unicode="&#x1ff;" horiz-adv-x="584" d="M431 681 L358 681 L276 541 L328 541 L431 681 Z M568 454 L540 486 L468 420 C430 456 378 477 317 477 C165 477 54 352 54 203 C54 155 67 112 89 78 L15 11 L43 -21 L117 45 C154 9 207 -12 268 -12 C420 -12 531 113 531 262 C531 311 518 354 495 388 L568 454 Z M313 428 C360 428 400 412 428 383 L133 115 C120 140 112 170 112 205 C112 328 195 428 313 428 L313 428 Z M271 37 C224 37 184 54 156 83 L452 350 C465 325 473 295 473 260 C473 137 390 37 271 37 L271 37 Z " />
<glyph glyph-name="uni0218" unicode="&#x218;" horiz-adv-x="590" d="M338 657 C436 657 496 607 497 509 L559 509 C560 634 472 712 343 712 C207 712 91 626 91 496 C91 417 145 364 262 337 L322 324 C437 298 475 266 475 207 C475 112 391 43 282 43 C176 43 109 102 110 210 L48 210 C42 72 139 -12 276 -12 C419 -12 537 78 537 214 C537 293 485 344 363 372 L304 385 C190 412 152 442 152 501 C152 595 234 657 338 657 L338 657 Z M253 -85 C228 -85 202 -105 202 -134 C202 -157 218 -174 242 -174 C247 -174 253 -173 258 -172 C255 -191 244 -215 226 -235 L265 -235 C287 -210 301 -176 301 -143 C301 -106 279 -85 253 -85 L253 -85 Z " />
<glyph glyph-name="uni0219" unicode="&#x219;" horiz-adv-x="452" d="M270 256 L220 266 C144 281 122 301 122 334 C122 390 174 429 248 429 C315 429 351 399 354 343 L412 343 C410 428 349 477 252 477 C151 477 65 418 65 326 C65 272 104 237 187 220 L238 210 C315 194 341 172 341 136 C341 77 286 36 210 36 C141 36 98 70 95 134 L37 134 C38 41 104 -12 208 -12 C317 -12 398 52 398 146 C398 202 360 238 270 256 L270 256 Z M184 -85 C159 -85 133 -105 133 -134 C133 -157 149 -174 173 -174 C178 -174 184 -173 189 -172 C186 -191 175 -215 157 -235 L196 -235 C218 -210 232 -176 232 -143 C232 -106 210 -85 184 -85 L184 -85 Z " />
<glyph glyph-name="uni021A" unicode="&#x21a;" horiz-adv-x="564" d="M590 700 L73 700 L67 644 L295 644 L227 0 L288 0 L356 644 L584 644 L590 700 Z M244 -85 C219 -85 193 -105 193 -134 C193 -157 209 -174 233 -174 C238 -174 244 -173 249 -172 C246 -191 235 -215 217 -235 L256 -235 C278 -210 292 -176 292 -143 C292 -106 270 -85 244 -85 L244 -85 Z " />
<glyph glyph-name="uni021B" unicode="&#x21b;" horiz-adv-x="350" d="M187 415 L329 415 L334 465 L193 465 L205 585 L147 585 L135 465 L41 465 L36 415 L129 415 L102 153 C100 139 100 128 100 116 C100 24 145 -12 232 -12 C256 -12 275 -9 290 -6 L295 43 C280 40 263 38 247 38 C177 38 150 66 160 153 L187 415 Z M172 -85 C147 -85 121 -105 121 -134 C121 -157 137 -174 161 -174 C166 -174 172 -173 177 -172 C174 -191 163 -215 145 -235 L184 -235 C206 -210 220 -176 220 -143 C220 -106 198 -85 172 -85 L172 -85 Z " />
<glyph glyph-name="uni0237" unicode="&#x237;" horiz-adv-x="228" d="M-24 -236 C58 -236 98 -197 108 -100 L167 465 L109 465 L50 -99 C43 -163 20 -185 -29 -185 C-40 -185 -51 -184 -62 -182 L-67 -231 C-56 -234 -41 -236 -24 -236 L-24 -236 Z " />
<glyph glyph-name="circumflex" unicode="&#x2c6;" horiz-adv-x="600" d="M476 544 L374 684 L321 684 L188 544 L247 544 L346 649 L422 544 L476 544 Z " />
<glyph glyph-name="caron" unicode="&#x2c7;" horiz-adv-x="600" d="M433 684 L335 579 L258 684 L203 684 L306 544 L359 544 L491 684 L433 684 Z " />
<glyph glyph-name="breve" unicode="&#x2d8;" horiz-adv-x="600" d="M332 545 C412 545 464 587 473 677 L424 677 C417 612 387 585 336 585 C290 585 266 607 266 656 C266 663 266 669 267 677 L220 677 C219 666 218 661 218 652 C218 583 259 545 332 545 L332 545 Z " />
<glyph glyph-name="dotaccent" unicode="&#x2d9;" horiz-adv-x="600" d="M335 563 C362 563 386 585 386 613 C386 638 367 656 344 656 C318 656 293 634 293 604 C293 581 312 563 335 563 L335 563 Z " />
<glyph glyph-name="ring" unicode="&#x2da;" horiz-adv-x="600" d="M333 536 C391 536 438 583 438 637 C438 684 401 721 350 721 C292 721 244 673 244 619 C244 572 283 536 333 536 L333 536 Z M336 575 C306 575 288 595 288 622 C288 655 313 681 347 681 C378 681 395 661 395 634 C395 600 370 575 336 575 L336 575 Z " />
<glyph glyph-name="ogonek" unicode="&#x2db;" horiz-adv-x="600" d="M292 -205 C303 -205 313 -204 323 -202 L328 -156 C319 -158 310 -159 304 -159 C265 -159 247 -144 247 -116 C247 -71 292 -33 344 0 L323 15 C254 -9 194 -63 194 -129 C194 -176 230 -205 292 -205 L292 -205 Z " />
<glyph glyph-name="tilde" unicode="&#x2dc;" horiz-adv-x="600" d="M401 546 C450 546 489 586 497 670 L455 670 C449 611 429 589 406 589 C391 589 377 597 356 628 C330 665 308 680 279 680 C231 680 192 640 183 556 L227 556 C234 615 254 638 275 638 C292 638 305 629 327 598 C354 562 374 546 401 546 L401 546 Z " />
<glyph glyph-name="hungarumlaut" unicode="&#x2dd;" horiz-adv-x="600" d="M217 544 L264 544 L356 684 L294 684 L217 544 Z M369 544 L415 544 L507 684 L445 684 L369 544 Z " />
<glyph glyph-name="gravecomb" unicode="&#x300;" d="M-271 541 L-221 541 L-273 681 L-343 681 L-271 541 Z " />
<glyph glyph-name="acutecomb" unicode="&#x301;" d="M-334 541 L-282 541 L-179 681 L-252 681 L-334 541 Z " />
<glyph glyph-name="uni0302" unicode="&#x302;" d="M-124 544 L-226 684 L-279 684 L-412 544 L-353 544 L-254 649 L-178 544 L-124 544 Z " />
<glyph glyph-name="tildecomb" unicode="&#x303;" d="M-199 546 C-150 546 -111 586 -103 670 L-145 670 C-151 611 -171 589 -194 589 C-209 589 -223 597 -244 628 C-270 665 -292 680 -321 680 C-369 680 -408 640 -417 556 L-373 556 C-366 615 -346 638 -325 638 C-308 638 -295 629 -273 598 C-246 562 -226 546 -199 546 L-199 546 Z " />
<glyph glyph-name="uni0304" unicode="&#x304;" d="M-392 581 L-134 581 L-129 628 L-387 628 L-392 581 Z " />
<glyph glyph-name="uni0306" unicode="&#x306;" d="M-268 545 C-188 545 -136 587 -127 677 L-176 677 C-183 612 -213 585 -264 585 C-310 585 -334 607 -334 656 C-334 663 -334 669 -333 677 L-380 677 C-381 666 -382 661 -382 652 C-382 583 -341 545 -268 545 L-268 545 Z " />
<glyph glyph-name="uni0307" unicode="&#x307;" d="M-265 563 C-238 563 -214 585 -214 613 C-214 638 -233 656 -256 656 C-282 656 -307 634 -307 604 C-307 581 -288 563 -265 563 L-265 563 Z " />
<glyph glyph-name="uni0308" unicode="&#x308;" d="M-361 563 C-334 563 -311 585 -311 613 C-311 638 -329 656 -353 656 C-379 656 -403 634 -403 604 C-403 581 -385 563 -361 563 L-361 563 Z M-168 563 C-141 563 -118 585 -118 613 C-118 638 -136 656 -160 656 C-186 656 -210 634 -210 604 C-210 581 -192 563 -168 563 L-168 563 Z " />
<glyph glyph-name="uni030A" unicode="&#x30a;" d="M-267 536 C-209 536 -162 583 -162 637 C-162 684 -199 721 -250 721 C-308 721 -356 673 -356 619 C-356 572 -317 536 -267 536 L-267 536 Z M-264 575 C-294 575 -312 595 -312 622 C-312 655 -287 681 -253 681 C-222 681 -205 661 -205 634 C-205 600 -230 575 -264 575 L-264 575 Z " />
<glyph glyph-name="uni030B" unicode="&#x30b;" d="M-383 544 L-336 544 L-244 684 L-306 684 L-383 544 Z M-231 544 L-185 544 L-93 684 L-155 684 L-231 544 Z " />
<glyph glyph-name="uni030C" unicode="&#x30c;" d="M-167 684 L-265 579 L-342 684 L-397 684 L-294 544 L-241 544 L-109 684 L-167 684 Z " />
<glyph glyph-name="uni0315" unicode="&#x315;" d="M-254 712 C-280 712 -305 692 -305 663 C-305 639 -289 622 -265 622 C-259 622 -254 623 -249 625 C-252 599 -270 570 -307 539 L-288 516 C-242 548 -205 596 -205 652 C-205 691 -226 712 -254 712 L-254 712 Z " />
<glyph glyph-name="uni0326" unicode="&#x326;" d="M-338 -85 C-363 -85 -389 -105 -389 -134 C-389 -157 -373 -174 -349 -174 C-344 -174 -338 -173 -333 -172 C-336 -191 -347 -215 -365 -235 L-326 -235 C-304 -210 -290 -176 -290 -143 C-290 -106 -312 -85 -338 -85 L-338 -85 Z " />
<glyph glyph-name="uni0327" unicode="&#x327;" d="M-346 -63 L-335 0 L-377 0 L-397 -97 C-331 -97 -315 -108 -315 -128 C-315 -157 -335 -174 -382 -174 C-392 -174 -404 -173 -415 -172 L-420 -215 C-407 -216 -394 -217 -381 -217 C-309 -217 -266 -181 -266 -127 C-266 -89 -294 -66 -346 -63 L-346 -63 Z " />
<glyph glyph-name="uni0328" unicode="&#x328;" d="M-308 -205 C-297 -205 -287 -204 -277 -202 L-272 -156 C-281 -158 -290 -159 -296 -159 C-335 -159 -353 -144 -353 -116 C-353 -71 -308 -33 -256 0 L-277 15 C-346 -9 -406 -63 -406 -129 C-406 -176 -370 -205 -308 -205 L-308 -205 Z " />
<glyph glyph-name="uni03BC" unicode="&#x3bc;" horiz-adv-x="558" d="M440 465 L412 205 C401 98 332 41 249 41 C170 41 128 89 139 191 L167 465 L109 465 L37 -224 L95 -224 L124 54 C145 9 187 -12 240 -12 C306 -12 363 22 399 81 L400 81 L396 0 L449 0 L498 465 L440 465 Z " />
<glyph glyph-name="pi" unicode="&#x3c0;" horiz-adv-x="564" d="M498 52 C452 52 432 74 437 126 L473 465 L109 465 L60 0 L118 0 L161 413 L409 413 L379 121 C370 40 408 0 486 0 L513 0 L518 52 L498 52 Z " />
<glyph glyph-name="uni1E20" unicode="&#x1e20;" horiz-adv-x="782" d="M603 864 L329 864 L324 815 L598 815 L603 864 Z M419 292 L658 292 C631 135 514 43 375 43 C230 43 128 142 128 305 C128 501 256 657 446 657 C571 657 661 587 670 476 L733 476 C723 619 605 712 448 712 C226 712 65 529 65 301 C65 112 190 -12 367 -12 C483 -12 586 45 639 142 L641 142 L634 0 L683 0 L719 347 L425 347 L419 292 Z " />
<glyph glyph-name="uni1E21" unicode="&#x1e21;" horiz-adv-x="599" d="M474 628 L216 628 L211 581 L469 581 L474 628 Z M486 465 L472 374 L470 374 C445 438 379 477 303 477 C160 477 53 349 53 203 C53 79 137 -6 253 -6 C331 -6 403 32 441 96 L444 96 L432 -12 C420 -121 347 -186 237 -186 C148 -186 96 -145 89 -71 L30 -71 C33 -175 113 -236 235 -236 C379 -236 473 -153 488 -9 L538 465 L486 465 Z M265 44 C175 44 113 107 113 207 C113 328 193 426 309 426 C399 426 460 363 460 263 C460 143 380 44 265 44 L265 44 Z " />
<glyph glyph-name="uni1E30" unicode="&#x1e30;" horiz-adv-x="614" d="M494 920 L416 920 L329 772 L385 772 L494 920 Z M631 700 L553 700 L179 367 L177 367 L212 700 L151 700 L77 0 L138 0 L173 329 L175 329 L488 0 L565 0 L237 349 L631 700 Z " />
<glyph glyph-name="uni1E31" unicode="&#x1e31;" horiz-adv-x="484" d="M281 916 L208 916 L126 776 L178 776 L281 916 Z M483 465 L405 465 L149 260 L146 260 L192 700 L134 700 L60 0 L118 0 L143 229 L145 229 L367 0 L441 0 L207 243 L483 465 Z " />
<glyph glyph-name="uni1E3E" unicode="&#x1e3e;" horiz-adv-x="916" d="M631 920 L553 920 L466 772 L522 772 L631 920 Z M797 700 L442 84 L440 84 L215 700 L151 700 L77 0 L137 0 L197 572 L200 572 L411 0 L456 0 L788 572 L790 572 L730 0 L790 0 L864 700 L797 700 Z " />
<glyph glyph-name="uni1E3F" unicode="&#x1e3f;" horiz-adv-x="853" d="M569 681 L496 681 L414 541 L466 541 L569 681 Z M639 477 C566 477 495 437 458 371 L456 371 C442 440 391 477 326 477 C260 477 196 443 159 384 L158 384 L162 465 L109 465 L60 0 L118 0 L146 261 C157 367 227 425 307 425 C370 425 406 389 406 310 C406 299 405 287 404 274 L375 0 L433 0 L460 262 C471 366 541 425 621 425 C684 425 720 389 720 310 C720 299 719 286 718 273 L689 0 L747 0 L778 290 C779 301 780 311 780 322 C780 422 724 477 639 477 L639 477 Z " />
<glyph glyph-name="uni1E40" unicode="&#x1e40;" horiz-adv-x="916" d="M518 795 C547 795 572 820 572 850 C572 875 553 894 527 894 C498 894 473 868 473 839 C473 814 493 795 518 795 L518 795 Z M797 700 L442 84 L440 84 L215 700 L151 700 L77 0 L137 0 L197 572 L200 572 L411 0 L456 0 L788 572 L790 572 L730 0 L790 0 L864 700 L797 700 Z " />
<glyph glyph-name="uni1E41" unicode="&#x1e41;" horiz-adv-x="853" d="M461 563 C488 563 512 585 512 613 C512 638 493 656 470 656 C444 656 419 634 419 604 C419 581 438 563 461 563 L461 563 Z M639 477 C566 477 495 437 458 371 L456 371 C442 440 391 477 326 477 C260 477 196 443 159 384 L158 384 L162 465 L109 465 L60 0 L118 0 L146 261 C157 367 227 425 307 425 C370 425 406 389 406 310 C406 299 405 287 404 274 L375 0 L433 0 L460 262 C471 366 541 425 621 425 C684 425 720 389 720 310 C720 299 719 286 718 273 L689 0 L747 0 L778 290 C779 301 780 311 780 322 C780 422 724 477 639 477 L639 477 Z " />
<glyph glyph-name="uni1E44" unicode="&#x1e44;" horiz-adv-x="731" d="M426 795 C455 795 480 820 480 850 C480 875 461 894 435 894 C406 894 381 868 381 839 C381 814 401 795 426 795 L426 795 Z M618 700 L555 100 L553 100 L212 700 L151 700 L77 0 L138 0 L201 600 L203 600 L544 0 L605 0 L679 700 L618 700 Z " />
<glyph glyph-name="uni1E45" unicode="&#x1e45;" horiz-adv-x="559" d="M317 563 C344 563 368 585 368 613 C368 638 349 656 326 656 C300 656 275 634 275 604 C275 581 294 563 317 563 L317 563 Z M335 477 C262 477 198 443 159 384 L158 384 L162 465 L109 465 L60 0 L118 0 L146 260 C157 367 226 425 316 425 C388 425 426 390 426 307 C426 296 425 284 424 271 L396 0 L454 0 L484 290 C485 301 486 311 486 321 C486 422 428 477 335 477 L335 477 Z " />
<glyph glyph-name="Wgrave" unicode="&#x1e80;" horiz-adv-x="986" d="M541 772 L593 772 L538 920 L464 920 L541 772 Z M222 0 L281 0 L533 605 L535 605 L659 0 L715 0 L1005 700 L944 700 L697 100 L695 100 L571 700 L513 700 L263 100 L261 100 L140 700 L79 700 L222 0 Z " />
<glyph glyph-name="wgrave" unicode="&#x1e81;" horiz-adv-x="769" d="M406 541 L456 541 L404 681 L334 681 L406 541 Z M161 0 L218 0 L400 385 L402 385 L502 0 L559 0 L768 465 L709 465 L540 80 L537 80 L437 465 L382 465 L199 80 L197 80 L108 465 L50 465 L161 0 Z " />
<glyph glyph-name="Wacute" unicode="&#x1e82;" horiz-adv-x="986" d="M500 772 L556 772 L665 920 L587 920 L500 772 Z M222 0 L281 0 L533 605 L535 605 L659 0 L715 0 L1005 700 L944 700 L697 100 L695 100 L571 700 L513 700 L263 100 L261 100 L140 700 L79 700 L222 0 Z " />
<glyph glyph-name="wacute" unicode="&#x1e83;" horiz-adv-x="769" d="M372 541 L424 541 L527 681 L454 681 L372 541 Z M161 0 L218 0 L400 385 L402 385 L502 0 L559 0 L768 465 L709 465 L540 80 L537 80 L437 465 L382 465 L199 80 L197 80 L108 465 L50 465 L161 0 Z " />
<glyph glyph-name="Wdieresis" unicode="&#x1e84;" horiz-adv-x="986" d="M450 795 C479 795 504 820 504 850 C504 875 485 894 460 894 C430 894 406 868 406 839 C406 814 425 795 450 795 L450 795 Z M655 795 C684 795 709 820 709 850 C709 875 690 894 664 894 C635 894 611 868 611 839 C611 814 630 795 655 795 L655 795 Z M222 0 L281 0 L533 605 L535 605 L659 0 L715 0 L1005 700 L944 700 L697 100 L695 100 L571 700 L513 700 L263 100 L261 100 L140 700 L79 700 L222 0 Z " />
<glyph glyph-name="wdieresis" unicode="&#x1e85;" horiz-adv-x="769" d="M324 563 C351 563 374 585 374 613 C374 638 356 656 332 656 C306 656 282 634 282 604 C282 581 300 563 324 563 L324 563 Z M517 563 C544 563 567 585 567 613 C567 638 549 656 525 656 C499 656 475 634 475 604 C475 581 493 563 517 563 L517 563 Z M161 0 L218 0 L400 385 L402 385 L502 0 L559 0 L768 465 L709 465 L540 80 L537 80 L437 465 L382 465 L199 80 L197 80 L108 465 L50 465 L161 0 Z " />
<glyph glyph-name="uni1E90" unicode="&#x1e90;" horiz-adv-x="569" d="M354 886 L435 775 L493 775 L384 923 L328 923 L188 775 L250 775 L354 886 Z M559 700 L109 700 L103 644 L478 644 L33 46 L28 0 L492 0 L498 56 L110 56 L554 654 L559 700 Z " />
<glyph glyph-name="uni1E91" unicode="&#x1e91;" horiz-adv-x="443" d="M268 649 L344 544 L398 544 L296 684 L243 684 L110 544 L169 544 L268 649 Z M421 465 L70 465 L65 415 L341 415 L21 40 L17 0 L377 0 L382 51 L98 51 L417 425 L421 465 Z " />
<glyph glyph-name="uni1E9E" unicode="&#x1e9e;" horiz-adv-x="682" d="M434 373 L642 592 C595 667 509 712 397 712 C235 712 133 622 114 440 L67 0 L128 0 L175 440 C190 591 266 657 396 657 C472 657 529 634 565 591 L360 374 L354 322 L397 322 C515 322 567 285 567 207 C567 101 500 44 383 44 C354 44 317 47 284 56 L278 0 C313 -9 352 -12 383 -12 C532 -12 629 69 629 211 C629 312 560 367 434 373 L434 373 Z " />
<glyph glyph-name="Ygrave" unicode="&#x1ef2;" horiz-adv-x="609" d="M353 772 L405 772 L350 920 L276 920 L353 772 Z M250 0 L310 0 L340 281 L647 700 L577 700 L315 339 L314 339 L129 700 L61 700 L279 281 L250 0 Z " />
<glyph glyph-name="ygrave" unicode="&#x1ef3;" horiz-adv-x="489" d="M316 541 L264 681 L194 681 L266 541 L316 541 Z M436 465 L227 73 L225 73 L102 465 L42 465 L190 6 L68 -224 L128 -224 L497 465 L436 465 Z " />
<glyph glyph-name="uni2000" unicode="&#x2000;" horiz-adv-x="500" d="" />
<glyph glyph-name="uni2001" unicode="&#x2001;" horiz-adv-x="1000" d="" />
<glyph glyph-name="uni2002" unicode="&#x2002;" horiz-adv-x="500" d="" />
<glyph glyph-name="uni2003" unicode="&#x2003;" horiz-adv-x="1000" d="" />
<glyph glyph-name="uni2009" unicode="&#x2009;" horiz-adv-x="150" d="" />
<glyph glyph-name="uni200A" unicode="&#x200a;" horiz-adv-x="83" d="" />
<glyph glyph-name="uni200B" unicode="&#x200b;" d="" />
<glyph glyph-name="endash" unicode="&#x2013;" horiz-adv-x="500" d="M2 249 L502 249 L507 301 L7 301 L2 249 Z " />
<glyph glyph-name="emdash" unicode="&#x2014;" horiz-adv-x="1000" d="M2 249 L1002 249 L1007 301 L7 301 L2 249 Z " />
<glyph glyph-name="quoteleft" unicode="&#x2018;" horiz-adv-x="209" d="M149 601 C144 601 139 600 135 599 C137 628 154 657 192 688 L172 712 C125 677 90 628 90 573 C90 533 112 511 140 511 C166 511 189 529 189 559 C189 583 173 601 149 601 L149 601 Z " />
<glyph glyph-name="quoteright" unicode="&#x2019;" horiz-adv-x="209" d="M149 716 C123 716 100 698 100 669 C100 645 116 627 139 627 C144 627 149 628 154 629 C152 600 135 570 96 539 L117 516 C164 550 199 599 199 655 C199 694 177 716 149 716 L149 716 Z " />
<glyph glyph-name="quotesinglbase" unicode="&#x201a;" horiz-adv-x="233" d="M95 94 C69 94 46 76 46 46 C46 23 62 4 86 4 C91 4 96 5 100 6 C98 -22 81 -52 43 -83 L63 -107 C110 -72 145 -23 145 33 C145 72 123 94 95 94 L95 94 Z " />
<glyph glyph-name="quotedblleft" unicode="&#x201c;" horiz-adv-x="363" d="M192 688 L172 712 C125 677 90 628 90 573 C90 533 112 511 140 511 C166 511 189 529 189 559 C189 583 173 601 149 601 C144 601 139 600 135 599 C137 628 154 657 192 688 L192 688 Z M304 601 C299 601 294 600 290 599 C291 628 308 657 347 688 L327 712 C279 677 244 628 244 573 C244 533 267 511 294 511 C320 511 343 529 343 559 C343 583 327 601 304 601 L304 601 Z " />
<glyph glyph-name="quotedblright" unicode="&#x201d;" horiz-adv-x="363" d="M149 716 C123 716 100 698 100 669 C100 645 116 627 139 627 C144 627 149 628 154 629 C152 600 135 570 96 539 L117 516 C164 550 199 599 199 655 C199 694 177 716 149 716 L149 716 Z M304 716 C277 716 254 698 254 669 C254 645 270 627 294 627 C299 627 304 628 308 629 C306 600 289 570 251 539 L271 516 C318 550 354 599 354 655 C354 694 331 716 304 716 L304 716 Z " />
<glyph glyph-name="quotedblbase" unicode="&#x201e;" horiz-adv-x="387" d="M95 94 C69 94 46 76 46 46 C46 23 62 4 86 4 C91 4 96 5 100 6 C98 -22 81 -52 43 -83 L63 -107 C110 -72 145 -23 145 33 C145 72 123 94 95 94 L95 94 Z M250 94 C224 94 200 76 200 46 C200 23 217 4 240 4 C245 4 250 5 254 6 C252 -23 235 -52 197 -83 L217 -107 C264 -72 300 -23 300 33 C300 72 277 94 250 94 L250 94 Z " />
<glyph glyph-name="dagger" unicode="&#x2020;" horiz-adv-x="522" d="M503 493 L316 493 L342 742 L287 742 L261 493 L75 493 L69 440 L255 440 L195 -128 L251 -128 L310 440 L497 440 L503 493 Z " />
<glyph glyph-name="daggerdbl" unicode="&#x2021;" horiz-adv-x="542" d="M507 440 L513 493 L326 493 L352 742 L297 742 L271 493 L85 493 L79 440 L265 440 L239 193 L73 193 L67 140 L233 140 L205 -128 L261 -128 L289 140 L455 140 L461 193 L295 193 L320 440 L507 440 Z " />
<glyph glyph-name="bullet" unicode="&#x2022;" horiz-adv-x="492" d="M247 231 C321 231 383 291 383 368 C383 431 336 478 270 478 C194 478 135 415 135 340 C135 277 182 231 247 231 L247 231 Z " />
<glyph glyph-name="ellipsis" unicode="&#x2026;" horiz-adv-x="681" d="M91 -6 C117 -6 141 15 141 48 C141 72 122 90 97 90 C67 90 45 66 45 37 C45 13 65 -6 91 -6 L91 -6 Z M318 -6 C344 -6 368 15 368 48 C368 72 349 90 324 90 C294 90 272 66 272 37 C272 13 292 -6 318 -6 L318 -6 Z M545 -6 C571 -6 595 15 595 48 C595 72 576 90 551 90 C521 90 499 66 499 37 C499 13 520 -6 545 -6 L545 -6 Z " />
<glyph glyph-name="perthousand" unicode="&#x2030;" horiz-adv-x="1247" d="M234 373 C336 373 419 458 419 562 C419 648 356 712 267 712 C164 712 80 627 80 524 C80 437 144 373 234 373 L234 373 Z M137 0 L197 0 L737 700 L677 700 L137 0 Z M237 419 C172 419 131 463 131 526 C131 602 185 666 264 666 C329 666 369 622 369 560 C369 481 314 419 237 419 L237 419 Z M608 -12 C710 -12 793 73 793 177 C793 263 729 327 641 327 C538 327 454 242 454 139 C454 52 518 -12 608 -12 L608 -12 Z M1006 -12 C1109 -12 1192 73 1192 177 C1192 263 1128 327 1039 327 C937 327 853 242 853 139 C853 52 916 -12 1006 -12 L1006 -12 Z M610 34 C545 34 504 78 504 141 C504 217 559 281 637 281 C702 281 743 237 743 175 C743 96 688 34 610 34 L610 34 Z M1009 34 C944 34 903 78 903 141 C903 217 957 281 1036 281 C1101 281 1141 237 1141 175 C1141 96 1086 34 1009 34 L1009 34 Z " />
<glyph glyph-name="guilsinglleft" unicode="&#x2039;" horiz-adv-x="319" d="M290 496 L223 496 L55 286 L181 76 L246 76 L121 282 L290 496 Z " />
<glyph glyph-name="guilsinglright" unicode="&#x203a;" horiz-adv-x="320" d="M149 496 L84 496 L210 290 L40 76 L107 76 L276 286 L149 496 Z " />
<glyph glyph-name="fraction" unicode="&#x2044;" horiz-adv-x="527" d="M-25 0 L37 0 L576 700 L514 700 L-25 0 Z " />
<glyph glyph-name="uni2070" unicode="&#x2070;" horiz-adv-x="403" d="M206 264 C305 264 362 322 373 426 L386 550 C397 654 348 712 250 712 C152 712 94 654 83 550 L70 426 C59 322 109 264 206 264 L206 264 Z M209 312 C146 312 114 348 122 424 L135 552 C144 628 184 664 247 664 C312 664 342 627 334 552 L321 424 C313 349 274 312 209 312 L209 312 Z " />
<glyph glyph-name="uni2074" unicode="&#x2074;" horiz-adv-x="386" d="M376 400 L317 400 L349 700 L287 700 L54 397 L49 355 L263 355 L254 266 L303 266 L312 355 L372 355 L376 400 Z M111 400 L293 636 L268 400 L111 400 Z " />
<glyph glyph-name="uni2075" unicode="&#x2075;" horiz-adv-x="382" d="M360 652 L365 700 L135 700 L82 459 L134 459 C156 485 192 500 227 500 C276 500 308 471 308 421 C308 359 266 307 201 307 C153 307 120 336 120 387 L67 387 C64 306 121 259 198 259 C292 259 360 329 360 423 C360 498 309 544 238 544 C203 544 170 534 143 512 L176 652 L360 652 Z " />
<glyph glyph-name="uni2076" unicode="&#x2076;" horiz-adv-x="385" d="M234 552 C222 552 209 550 197 547 L316 700 L252 700 L119 528 C86 485 60 442 60 390 C60 314 119 259 198 259 C288 259 364 333 364 423 C364 498 307 552 234 552 L234 552 Z M201 307 C149 307 112 343 112 395 C112 455 158 508 223 508 C275 508 312 472 312 419 C312 362 266 307 201 307 L201 307 Z " />
<glyph glyph-name="uni2077" unicode="&#x2077;" horiz-adv-x="331" d="M80 700 L75 651 L283 651 L74 266 L138 266 L343 653 L349 700 L80 700 Z " />
<glyph glyph-name="uni2078" unicode="&#x2078;" horiz-adv-x="384" d="M289 495 C338 515 371 556 371 606 C371 667 318 712 241 712 C159 712 91 658 91 584 C91 546 110 513 151 495 C97 477 60 431 60 375 C60 311 114 264 198 264 C286 264 356 319 356 399 C356 443 331 480 289 495 L289 495 Z M238 668 C287 668 318 640 318 599 C318 549 279 514 223 514 C172 514 142 542 142 581 C142 631 184 668 238 668 L238 668 Z M200 309 C148 309 114 339 114 383 C114 435 159 472 217 472 C269 472 304 443 304 401 C304 347 258 309 200 309 L200 309 Z " />
<glyph glyph-name="uni2079" unicode="&#x2079;" horiz-adv-x="385" d="M241 712 C151 712 75 638 75 548 C75 473 132 419 205 419 C217 419 230 421 242 424 L123 271 L187 271 L320 443 C354 486 379 529 379 581 C379 657 320 712 241 712 L241 712 Z M216 463 C164 463 128 499 128 552 C128 609 173 664 238 664 C290 664 327 628 327 576 C327 516 281 463 216 463 L216 463 Z " />
<glyph glyph-name="Euro" unicode="&#x20ac;" horiz-adv-x="642" d="M362 39 C270 39 205 116 197 254 L457 254 L461 297 L196 297 C197 333 201 369 208 403 L473 403 L477 446 L218 446 C254 570 331 662 435 662 C510 662 563 612 567 514 L627 514 C622 641 542 712 437 712 C298 712 201 595 159 446 L66 446 L62 403 L149 403 C142 369 138 333 137 297 L51 297 L46 254 L138 254 C146 87 233 -12 358 -12 C465 -12 562 60 595 186 L537 186 C512 91 438 39 362 39 L362 39 Z " />
<glyph glyph-name="uni2116" unicode="&#x2116;" horiz-adv-x="1238" d="M1018 712 C890 712 794 609 794 479 C794 369 869 295 977 295 C1105 295 1201 396 1201 529 C1201 637 1126 712 1018 712 L1018 712 Z M555 100 L553 100 L212 700 L151 700 L77 0 L138 0 L201 600 L203 600 L544 0 L605 0 L679 700 L618 700 L555 100 Z M980 345 C904 345 852 398 852 480 C852 580 919 661 1015 661 C1091 661 1143 608 1143 524 C1143 426 1075 345 980 345 L980 345 Z M810 136 L1111 136 L1117 188 L816 188 L810 136 Z " />
<glyph glyph-name="trademark" unicode="&#x2122;" horiz-adv-x="741" d="M82 656 L181 656 L153 394 L200 394 L227 656 L327 656 L332 700 L87 700 L82 656 Z M680 700 L543 533 L442 700 L395 700 L362 394 L407 394 L433 632 L523 485 L557 485 L679 634 L653 394 L699 394 L732 700 L680 700 Z " />
<glyph glyph-name="uni2126" unicode="&#x2126;" horiz-adv-x="809" d="M745 408 C745 588 623 712 454 712 C251 712 92 539 92 327 C92 215 142 124 230 53 L61 53 L55 0 L311 0 L317 53 C211 117 150 204 150 325 C150 508 273 660 450 660 C592 660 687 561 687 407 C687 247 600 130 455 53 L449 0 L705 0 L711 53 L543 53 C668 133 745 255 745 408 L745 408 Z " />
<glyph glyph-name="estimated" unicode="&#x212e;" horiz-adv-x="849" d="M437 0 C556 0 662 55 725 149 L704 165 C647 77 549 26 437 26 C364 26 300 47 245 88 C211 113 200 141 200 187 L200 338 L784 338 L784 350 C784 452 745 545 682 605 C620 664 532 700 437 700 C342 700 254 664 191 605 C129 545 90 452 90 350 C90 247 129 157 191 97 C254 36 342 0 437 0 L437 0 Z M200 362 L200 512 C200 558 211 587 245 612 C300 653 364 674 437 674 C514 674 579 652 636 609 C668 584 679 553 679 508 L679 362 L200 362 Z " />
<glyph glyph-name="arrowleft" unicode="&#x2190;" horiz-adv-x="710" d="M682 378 L151 378 L342 568 L305 606 L52 350 L305 94 L342 132 L151 322 L682 322 L682 378 Z " />
<glyph glyph-name="arrowup" unicode="&#x2191;" horiz-adv-x="710" d="M630 415 L374 668 L119 415 L156 378 L347 570 L347 38 L402 38 L402 570 L592 378 L630 415 Z " />
<glyph glyph-name="arrowright" unicode="&#x2192;" horiz-adv-x="710" d="M433 606 L396 568 L587 378 L56 378 L56 322 L587 322 L396 132 L433 94 L686 350 L433 606 Z " />
<glyph glyph-name="arrowdown" unicode="&#x2193;" horiz-adv-x="710" d="M580 322 L390 131 L390 662 L334 662 L334 131 L144 322 L106 285 L362 32 L618 285 L580 322 Z " />
<glyph glyph-name="uni2196" unicode="&#x2196;" horiz-adv-x="710" d="M612 156 L237 531 L505 530 L506 583 L147 581 L145 222 L197 222 L196 492 L572 116 L612 156 Z " />
<glyph glyph-name="uni2197" unicode="&#x2197;" horiz-adv-x="710" d="M120 156 L160 117 L534 491 L534 223 L586 222 L585 581 L225 583 L226 531 L495 531 L120 156 Z " />
<glyph glyph-name="uni2198" unicode="&#x2198;" horiz-adv-x="710" d="M541 478 L542 208 L166 584 L127 544 L501 169 L233 170 L232 117 L591 119 L593 478 L541 478 Z " />
<glyph glyph-name="uni2199" unicode="&#x2199;" horiz-adv-x="710" d="M151 478 L153 119 L512 117 L512 169 L243 169 L618 544 L578 583 L203 209 L204 477 L151 478 Z " />
<glyph glyph-name="partialdiff" unicode="&#x2202;" horiz-adv-x="636" d="M343 712 C293 712 243 702 195 680 L189 624 C244 652 292 661 335 661 C465 661 534 584 534 415 C534 388 532 361 527 320 L526 320 C505 416 420 467 320 467 C169 467 52 352 52 203 C52 76 144 -12 286 -12 C362 -12 429 13 482 65 C560 142 592 289 592 415 C592 607 505 712 343 712 L343 712 Z M288 40 C183 40 111 101 111 205 C111 327 199 416 324 416 C432 416 506 352 506 253 C506 133 416 40 288 40 L288 40 Z " />
<glyph glyph-name="uni2206" unicode="&#x2206;" horiz-adv-x="677" d="M405 700 L371 700 L8 34 L26 0 L602 0 L626 34 L405 700 Z M561 53 L81 53 L379 603 L561 53 Z " />
<glyph glyph-name="product" unicode="&#x220f;" horiz-adv-x="675" d="M155 742 L64 -128 L122 -128 L208 688 L563 688 L477 -128 L535 -128 L627 742 L155 742 Z " />
<glyph glyph-name="summation" unicode="&#x2211;" horiz-adv-x="540" d="M561 742 L113 742 L107 689 L341 310 L27 -75 L21 -128 L470 -128 L475 -75 L93 -75 L406 307 L170 689 L556 689 L561 742 Z " />
<glyph glyph-name="minus" unicode="&#x2212;" horiz-adv-x="650" d="M116 291 L547 291 L552 343 L121 343 L116 291 Z " />
<glyph glyph-name="radical" unicode="&#x221a;" horiz-adv-x="637" d="M612 742 L287 -49 L191 316 L38 316 L32 263 L147 263 L252 -128 L312 -128 L670 742 L612 742 Z " />
<glyph glyph-name="infinity" unicode="&#x221e;" horiz-adv-x="762" d="M578 511 C491 511 440 452 396 387 C365 453 326 511 240 511 C132 511 59 424 59 311 C59 218 119 159 206 159 C293 159 344 218 388 283 C419 218 458 159 544 159 C651 159 725 246 725 358 C725 452 665 511 578 511 L578 511 Z M208 208 C149 208 112 249 112 314 C112 394 159 462 235 462 C304 462 335 404 364 338 C321 270 279 208 208 208 L208 208 Z M549 208 C479 208 449 267 419 332 C462 400 505 462 576 462 C635 462 672 421 672 355 C672 276 624 208 549 208 L549 208 Z " />
<glyph glyph-name="integral" unicode="&#x222b;" horiz-adv-x="389" d="M-9 -128 L61 -128 C149 -128 190 -94 199 -2 L264 612 C270 671 293 690 345 690 L408 690 L413 742 L344 742 C255 742 216 708 206 616 L142 2 C135 -57 112 -76 59 -76 L-3 -76 L-9 -128 Z " />
<glyph glyph-name="approxequal" unicode="&#x2248;" horiz-adv-x="650" d="M440 371 C482 371 520 386 560 414 L565 467 C528 440 488 422 445 422 C382 422 317 471 251 471 C214 471 171 457 130 428 L125 375 C173 408 207 419 245 419 C314 419 372 371 440 371 L440 371 Z M419 163 C462 163 498 178 538 206 L543 258 C508 232 468 214 423 214 C360 214 295 262 230 262 C194 262 150 250 108 219 L103 167 C149 198 185 211 223 211 C292 211 350 163 419 163 L419 163 Z " />
<glyph glyph-name="notequal" unicode="&#x2260;" horiz-adv-x="650" d="M558 395 L563 448 L435 448 L515 586 L462 586 L382 448 L132 448 L126 395 L352 395 L262 239 L110 239 L105 186 L232 186 L152 48 L205 48 L285 186 L536 186 L541 239 L315 239 L405 395 L558 395 Z " />
<glyph glyph-name="lessequal" unicode="&#x2264;" horiz-adv-x="650" d="M573 546 L124 371 L118 314 L531 138 L537 194 L187 340 L567 486 L573 546 Z M84 0 L516 0 L522 52 L90 52 L84 0 Z " />
<glyph glyph-name="greaterequal" unicode="&#x2265;" horiz-adv-x="650" d="M143 546 L137 489 L486 343 L106 197 L100 137 L550 313 L556 370 L143 546 Z M85 0 L516 0 L522 52 L90 52 L85 0 Z " />
<glyph glyph-name="filledbox" unicode="&#x25a0;" horiz-adv-x="900" d="M112 0 L812 0 L812 700 L112 700 L112 0 Z " />
<glyph glyph-name="triagup" unicode="&#x25b2;" horiz-adv-x="900" d="M103 0 L803 0 L453 700 L103 0 Z " />
<glyph glyph-name="triagdn" unicode="&#x25bc;" horiz-adv-x="900" d="M485 0 L835 700 L135 700 L485 0 Z " />
<glyph glyph-name="uni25C6" unicode="&#x25c6;" horiz-adv-x="900" d="M461 0 L812 349 L461 700 L112 349 L461 0 Z " />
<glyph glyph-name="lozenge" unicode="&#x25ca;" horiz-adv-x="624" d="M47 350 L266 0 L309 0 L603 350 L383 700 L340 700 L47 350 Z M112 347 L358 639 L537 353 L292 61 L112 347 Z " />
<glyph glyph-name="uni25CF" unicode="&#x25cf;" horiz-adv-x="900" d="M462 0 C655 0 812 157 812 350 C812 543 655 700 462 700 C269 700 112 543 112 350 C112 157 269 0 462 0 L462 0 Z " />
<glyph glyph-name="uni2610" unicode="&#x2610;" horiz-adv-x="900" d="M112 0 L812 0 L812 700 L112 700 L112 0 Z M161 45 L161 655 L764 655 L764 45 L161 45 Z " />
<glyph glyph-name="uni2611" unicode="&#x2611;" horiz-adv-x="900" d="M112 700 L112 0 L812 0 L812 700 L112 700 Z M764 45 L161 45 L161 655 L764 655 L764 45 Z M639 525 L596 549 L406 221 L312 275 L287 230 L423 151 L639 525 Z " />
<glyph glyph-name="uni2612" unicode="&#x2612;" horiz-adv-x="900" d="M112 700 L112 0 L812 0 L812 700 L112 700 Z M764 45 L161 45 L161 655 L764 655 L764 45 Z M304 158 L463 317 L621 158 L654 192 L496 350 L654 508 L621 542 L463 384 L304 542 L271 508 L429 350 L271 192 L304 158 Z " />
<glyph glyph-name="heart" unicode="&#x2665;" horiz-adv-x="900" d="M469 48 C612 188 795 221 795 409 C795 541 703 606 618 606 C545 606 478 560 471 470 L467 470 C460 560 393 606 320 606 C235 606 143 541 143 409 C143 221 326 188 469 48 L469 48 Z " />
<glyph glyph-name="uni2B51" unicode="&#x2b51;" horiz-adv-x="900" d="M239 -3 L470 165 L700 -3 L612 267 L843 434 L557 434 L470 705 L383 435 L99 435 L328 269 L239 -3 Z " />
</font>
</svg>
