<?xml version="1.0" encoding="UTF-8"?>
<svg xmlns="http://www.w3.org/2000/svg" xmlns:xlink="http://www.w3.org/1999/xlink" version="1.2" >
<font id="BR Hendrix Black">
<font-face  font-family="BR Hendrix" units-per-em="1000" ascent="760" descent="-240" font-style="normal" font-weight="900" font-stretch="normal" cap-height="700" x-height="492" underline-position="-145" underline-thickness="50" />
<missing-glyph  horiz-adv-x="708" d="M66 0 L642 0 L642 700 L66 700 L66 0 Z M305 265 L305 296 C305 341 314 359 357 394 L389 420 C410 437 419 452 419 471 C419 502 396 520 360 520 C316 520 292 494 289 448 L213 448 C214 537 275 590 361 590 C442 590 497 543 497 474 C497 439 483 408 438 371 L409 347 C386 328 381 320 381 293 L381 265 L305 265 Z M343 105 C313 105 292 126 292 157 C292 188 313 209 343 209 C373 209 394 188 394 157 C394 126 373 105 343 105 L343 105 Z " />
<glyph glyph-name="CR" unicode="&#xd;" horiz-adv-x="220" d="" />
<glyph glyph-name="space" unicode="&#x20;" horiz-adv-x="220" d="" />
<glyph glyph-name="exclam" unicode="&#x21;" horiz-adv-x="314" d="M81 260 L233 260 L247 700 L67 700 L81 260 Z M157 -10 C222 -10 268 36 268 101 C268 167 222 213 157 213 C92 213 46 167 46 101 C46 36 92 -10 157 -10 L157 -10 Z " />
<glyph glyph-name="quotedbl" unicode="&#x22;" horiz-adv-x="472" d="M58 421 L190 421 L213 712 L35 712 L58 421 Z M282 421 L414 421 L437 712 L259 712 L282 421 Z " />
<glyph glyph-name="numbersign" unicode="&#x23;" horiz-adv-x="734" d="M689 399 L689 524 L597 524 L629 685 L488 685 L456 524 L346 524 L378 685 L237 685 L205 524 L87 524 L87 399 L181 399 L161 301 L45 301 L45 176 L137 176 L105 15 L246 15 L278 176 L388 176 L356 15 L497 15 L529 176 L647 176 L647 301 L553 301 L573 399 L689 399 Z M412 301 L302 301 L322 399 L432 399 L412 301 Z " />
<glyph glyph-name="dollar" unicode="&#x24;" horiz-adv-x="547" d="M517 236 C517 325 466 387 346 412 L307 420 L307 533 C339 524 354 503 355 474 L513 474 C509 593 432 665 307 675 L307 742 L247 742 L247 675 C114 664 36 584 36 477 C36 384 96 323 211 299 L241 293 L241 172 C211 182 192 205 188 240 L30 240 C34 112 117 37 241 25 L241 -42 L301 -42 L301 25 C435 35 517 120 517 236 L517 236 Z M195 483 C195 511 212 530 247 535 L247 434 C206 446 195 460 195 483 L195 483 Z M301 167 L301 280 C342 268 358 251 358 223 C358 192 338 172 301 167 L301 167 Z " />
<glyph glyph-name="percent" unicode="&#x25;" horiz-adv-x="932" d="M217 336 C328 336 410 415 410 524 C410 633 328 712 217 712 C106 712 24 633 24 524 C24 415 106 336 217 336 L217 336 Z M171 0 L327 0 L761 700 L605 700 L171 0 Z M217 455 C179 455 153 483 153 524 C153 565 179 593 217 593 C255 593 281 565 281 524 C281 483 255 455 217 455 L217 455 Z M715 -12 C826 -12 908 67 908 176 C908 285 826 364 715 364 C604 364 522 285 522 176 C522 67 604 -12 715 -12 L715 -12 Z M715 107 C677 107 651 135 651 176 C651 217 677 245 715 245 C753 245 779 217 779 176 C779 135 753 107 715 107 L715 107 Z " />
<glyph glyph-name="ampersand" unicode="&#x26;" horiz-adv-x="689" d="M685 0 L564 138 C598 194 622 266 633 354 L477 354 C473 318 466 287 457 261 L371 359 C459 411 500 476 500 547 C500 644 421 712 299 712 C169 712 88 635 88 541 C88 490 109 440 158 383 C62 325 24 257 24 186 C24 73 116 -12 274 -12 C348 -12 415 7 470 46 L510 0 L685 0 Z M298 578 C328 578 350 559 350 531 C350 502 330 477 289 453 L283 459 C263 481 246 507 246 532 C246 558 267 578 298 578 L298 578 Z M198 199 C198 231 215 262 246 283 L362 150 C340 139 314 134 287 134 C226 134 198 160 198 199 L198 199 Z " />
<glyph glyph-name="quotesingle" unicode="&#x27;" horiz-adv-x="248" d="M58 421 L190 421 L213 712 L35 712 L58 421 Z " />
<glyph glyph-name="parenleft" unicode="&#x28;" horiz-adv-x="362" d="M214 -124 L344 -48 C268 49 222 188 222 315 C222 442 268 581 344 678 L214 754 C103 635 45 465 45 315 C45 165 103 -5 214 -124 L214 -124 Z " />
<glyph glyph-name="parenright" unicode="&#x29;" horiz-adv-x="362" d="M148 -124 C259 -5 317 165 317 315 C317 465 259 635 148 754 L18 678 C94 581 140 442 140 315 C140 188 94 49 18 -48 L148 -124 Z " />
<glyph glyph-name="asterisk" unicode="&#x2a;" horiz-adv-x="499" d="M187 712 L194 566 L59 619 L20 500 L160 462 L68 349 L169 277 L249 399 L328 276 L429 348 L338 462 L479 499 L440 618 L304 566 L311 712 L187 712 Z " />
<glyph glyph-name="plus" unicode="&#x2b;" horiz-adv-x="650" d="M556 396 L408 396 L408 557 L242 557 L242 396 L94 396 L94 238 L242 238 L242 77 L408 77 L408 238 L556 238 L556 396 Z " />
<glyph glyph-name="comma" unicode="&#x2c;" horiz-adv-x="288" d="M143 209 C79 209 34 164 34 102 C34 41 78 0 141 0 C128 -41 100 -82 61 -118 L113 -178 C200 -112 253 -15 254 75 C255 161 208 209 143 209 L143 209 Z " />
<glyph glyph-name="hyphen" unicode="&#x2d;" horiz-adv-x="384" d="M32 205 L352 205 L352 355 L32 355 L32 205 Z " />
<glyph glyph-name="period" unicode="&#x2e;" horiz-adv-x="290" d="M145 -10 C210 -10 256 36 256 101 C256 167 210 213 145 213 C80 213 34 167 34 101 C34 36 80 -10 145 -10 L145 -10 Z " />
<glyph glyph-name="slash" unicode="&#x2f;" horiz-adv-x="550" d="M5 -92 L175 -92 L545 742 L375 742 L5 -92 Z " />
<glyph glyph-name="zero" unicode="0" horiz-adv-x="628" d="M314 -12 C482 -12 578 87 578 253 L578 447 C578 613 482 712 314 712 C146 712 50 613 50 447 L50 253 C50 87 146 -12 314 -12 L314 -12 Z M314 152 C257 152 228 183 228 253 L228 447 C228 517 257 548 314 548 C371 548 400 517 400 447 L400 253 C400 183 371 152 314 152 L314 152 Z " />
<glyph glyph-name="one" unicode="1" horiz-adv-x="456" d="M232 700 C218 634 180 607 83 607 L43 607 L43 447 L198 447 L198 0 L376 0 L376 700 L232 700 Z " />
<glyph glyph-name="two" unicode="2" horiz-adv-x="572" d="M357 248 C492 330 538 401 538 494 C538 627 445 712 299 712 C145 712 40 617 38 456 L218 456 C223 521 256 548 299 548 C337 548 360 527 360 490 C360 453 337 423 233 359 C77 262 40 202 40 87 L40 0 L532 0 L532 164 L247 164 C267 189 301 214 357 248 L357 248 Z " />
<glyph glyph-name="three" unicode="3" horiz-adv-x="583" d="M292 -12 C447 -12 547 76 547 196 C547 268 511 325 444 355 L444 359 C507 389 535 442 535 508 C535 631 438 712 297 712 C147 712 43 620 43 473 L219 473 C221 524 248 549 291 549 C332 549 357 526 357 486 C357 450 336 428 287 428 L217 428 L217 282 L290 282 C344 282 369 259 369 220 C369 179 341 151 295 151 C249 151 219 179 217 231 L40 231 C39 79 135 -12 292 -12 L292 -12 Z " />
<glyph glyph-name="four" unicode="4" horiz-adv-x="626" d="M603 270 L529 270 L529 700 L315 700 L36 259 L36 118 L362 118 L362 0 L529 0 L529 118 L603 118 L603 270 Z M215 270 L362 503 L362 270 L215 270 Z " />
<glyph glyph-name="five" unicode="5" horiz-adv-x="583" d="M338 466 C300 466 266 458 237 443 L250 536 L509 536 L509 700 L99 700 L48 286 L223 286 C238 312 268 327 300 327 C347 327 378 294 378 240 C378 186 347 152 298 152 C255 152 223 178 220 220 L42 220 C44 76 143 -12 295 -12 C453 -12 556 84 556 234 C556 379 463 466 338 466 L338 466 Z " />
<glyph glyph-name="six" unicode="6" horiz-adv-x="603" d="M347 499 L483 700 L271 700 L114 467 C51 374 32 317 32 255 C32 99 154 -12 303 -12 C454 -12 574 101 574 254 C574 393 475 491 347 499 L347 499 Z M303 152 C250 152 210 193 210 251 C210 309 250 350 303 350 C356 350 396 309 396 251 C396 193 356 152 303 152 L303 152 Z " />
<glyph glyph-name="seven" unicode="7" horiz-adv-x="529" d="M30 700 L30 536 L302 536 L70 0 L283 0 L502 536 L502 700 L30 700 Z " />
<glyph glyph-name="eight" unicode="8" horiz-adv-x="594" d="M297 -12 C463 -12 558 74 558 195 C558 267 524 327 457 361 L457 365 C518 401 548 453 548 515 C548 627 450 712 297 712 C144 712 46 627 46 515 C46 453 76 401 137 365 L137 361 C70 327 36 267 36 195 C36 74 131 -12 297 -12 L297 -12 Z M297 424 C252 424 222 454 222 494 C222 535 253 564 297 564 C341 564 372 535 372 494 C372 454 342 424 297 424 L297 424 Z M297 136 C253 136 214 166 214 211 C214 254 250 286 297 286 C344 286 380 254 380 211 C380 166 341 136 297 136 L297 136 Z " />
<glyph glyph-name="nine" unicode="9" horiz-adv-x="603" d="M300 712 C149 712 29 599 29 446 C29 307 128 209 256 201 L120 0 L332 0 L489 233 C552 326 571 383 571 445 C571 601 449 712 300 712 L300 712 Z M300 350 C247 350 207 391 207 449 C207 507 247 548 300 548 C353 548 393 507 393 449 C393 391 353 350 300 350 L300 350 Z " />
<glyph glyph-name="colon" unicode="&#x3a;" horiz-adv-x="300" d="M155 281 C220 281 266 327 266 392 C266 458 220 504 155 504 C90 504 44 458 44 392 C44 327 90 281 155 281 L155 281 Z M155 -12 C220 -12 266 34 266 99 C266 165 220 211 155 211 C90 211 44 165 44 99 C44 34 90 -12 155 -12 L155 -12 Z " />
<glyph glyph-name="semicolon" unicode="&#x3b;" horiz-adv-x="300" d="M155 281 C220 281 266 327 266 392 C266 458 220 504 155 504 C90 504 44 458 44 392 C44 327 90 281 155 281 L155 281 Z M154 207 C90 207 45 162 45 100 C45 39 89 -2 152 -2 C139 -43 111 -84 72 -120 L124 -180 C211 -114 264 -17 265 73 C266 159 219 207 154 207 L154 207 Z " />
<glyph glyph-name="less" unicode="&#x3c;" horiz-adv-x="650" d="M556 561 L94 392 L94 242 L556 73 L556 239 L333 317 L556 395 L556 561 Z " />
<glyph glyph-name="equal" unicode="&#x3d;" horiz-adv-x="650" d="M94 349 L556 349 L556 506 L94 506 L94 349 Z M94 128 L556 128 L556 285 L94 285 L94 128 Z " />
<glyph glyph-name="greater" unicode="&#x3e;" horiz-adv-x="650" d="M94 561 L94 395 L317 317 L94 239 L94 73 L556 242 L556 392 L94 561 Z " />
<glyph glyph-name="question" unicode="&#x3f;" horiz-adv-x="493" d="M147 260 L317 260 L317 284 C317 318 321 325 350 350 L387 381 C452 435 473 476 473 531 C473 643 385 712 258 712 C121 712 30 631 28 486 L196 486 C196 532 223 555 260 555 C289 555 303 541 303 521 C303 507 296 496 276 479 L233 443 C157 380 147 361 147 295 L147 260 Z M232 -10 C297 -10 343 36 343 101 C343 167 297 213 232 213 C167 213 121 167 121 101 C121 36 167 -10 232 -10 L232 -10 Z " />
<glyph glyph-name="at" unicode="&#x40;" horiz-adv-x="976" d="M500 -217 C569 -217 631 -206 682 -188 L682 -50 C630 -68 565 -80 504 -80 C308 -80 180 42 180 228 C180 415 310 543 502 543 C675 543 805 439 805 263 C805 172 770 133 736 133 C711 133 692 154 692 195 L692 425 L575 425 L567 381 L563 381 C542 420 504 439 454 439 C350 439 274 357 274 227 C274 97 350 15 454 15 C515 15 563 43 583 100 L587 100 C609 46 669 11 738 11 C859 11 946 121 946 278 C946 514 749 680 502 680 C241 680 36 494 36 226 C36 -38 223 -217 500 -217 L500 -217 Z M492 140 C448 140 416 171 416 227 C416 283 448 314 492 314 C536 314 568 283 568 227 C568 171 536 140 492 140 L492 140 Z " />
<glyph glyph-name="A" unicode="A" horiz-adv-x="686" d="M493 0 L683 0 L448 700 L238 700 L3 0 L193 0 L229 117 L457 117 L493 0 Z M276 269 L341 478 L345 478 L410 269 L276 269 Z " />
<glyph glyph-name="B" unicode="B" horiz-adv-x="629" d="M481 359 L481 362 C542 390 573 443 573 509 C573 623 485 700 326 700 L66 700 L66 0 L371 0 C518 0 599 74 599 195 C599 280 560 335 481 359 L481 359 Z M333 550 C378 550 403 524 403 486 C403 446 378 424 333 424 L242 424 L242 550 L333 550 Z M349 150 L242 150 L242 278 L349 278 C392 278 414 256 414 213 C414 170 392 150 349 150 L349 150 Z " />
<glyph glyph-name="C" unicode="C" horiz-adv-x="751" d="M390 -12 C574 -12 717 105 725 288 L541 288 C528 203 473 156 390 156 C290 156 219 230 219 350 C219 469 290 544 389 544 C470 544 523 497 537 412 L725 412 C717 593 576 712 390 712 C180 712 33 561 33 350 C33 139 180 -12 390 -12 L390 -12 Z " />
<glyph glyph-name="D" unicode="D" horiz-adv-x="684" d="M278 700 L66 700 L66 0 L278 0 C506 0 650 130 650 350 C650 571 507 700 278 700 L278 700 Z M288 169 L246 169 L246 531 L288 531 C401 531 464 468 464 350 C464 232 401 169 288 169 L288 169 Z " />
<glyph glyph-name="E" unicode="E" horiz-adv-x="558" d="M513 534 L513 700 L66 700 L66 0 L513 0 L513 166 L246 166 L246 271 L479 271 L479 431 L246 431 L246 534 L513 534 Z " />
<glyph glyph-name="F" unicode="F" horiz-adv-x="549" d="M513 534 L513 700 L66 700 L66 0 L246 0 L246 241 L493 241 L493 403 L246 403 L246 534 L513 534 Z " />
<glyph glyph-name="G" unicode="G" horiz-adv-x="769" d="M407 254 L556 254 C535 194 478 155 400 155 C294 155 219 227 219 348 C219 468 290 545 396 545 C468 545 519 509 532 451 L724 451 C714 603 581 712 398 712 C185 712 33 565 33 348 C33 133 184 -12 377 -12 C460 -12 531 15 580 71 L584 71 L591 0 L724 0 L724 402 L407 402 L407 254 Z " />
<glyph glyph-name="H" unicode="H" horiz-adv-x="708" d="M462 700 L462 428 L246 428 L246 700 L66 700 L66 0 L246 0 L246 260 L462 260 L462 0 L642 0 L642 700 L462 700 Z " />
<glyph glyph-name="I" unicode="I" horiz-adv-x="312" d="M66 0 L246 0 L246 700 L66 700 L66 0 Z " />
<glyph glyph-name="J" unicode="J" horiz-adv-x="603" d="M108 700 L108 531 L366 531 L366 252 C366 187 338 156 291 156 C244 156 214 187 214 252 L214 344 L34 344 L34 248 C34 70 127 -12 292 -12 C456 -12 546 74 546 245 L546 700 L108 700 Z " />
<glyph glyph-name="K" unicode="K" horiz-adv-x="680" d="M420 355 L676 700 L466 700 L250 407 L246 407 L246 700 L66 700 L66 0 L246 0 L246 292 L250 292 L458 0 L678 0 L420 355 Z " />
<glyph glyph-name="L" unicode="L" horiz-adv-x="526" d="M246 169 L246 700 L66 700 L66 0 L500 0 L500 169 L246 169 Z " />
<glyph glyph-name="M" unicode="M" horiz-adv-x="922" d="M666 700 L463 279 L459 279 L256 700 L66 700 L66 0 L242 0 L242 360 L246 360 L412 0 L510 0 L676 360 L680 360 L680 0 L856 0 L856 700 L666 700 Z " />
<glyph glyph-name="N" unicode="N" horiz-adv-x="742" d="M496 700 L496 317 L492 317 L247 700 L66 700 L66 0 L246 0 L246 383 L250 383 L495 0 L676 0 L676 700 L496 700 Z " />
<glyph glyph-name="O" unicode="O" horiz-adv-x="780" d="M390 -12 C599 -12 747 138 747 350 C747 562 599 712 390 712 C181 712 33 562 33 350 C33 138 181 -12 390 -12 L390 -12 Z M390 156 C287 156 219 234 219 350 C219 466 287 544 390 544 C493 544 561 466 561 350 C561 234 493 156 390 156 L390 156 Z " />
<glyph glyph-name="P" unicode="P" horiz-adv-x="636" d="M299 700 L66 700 L66 0 L246 0 L246 180 L299 180 C496 180 606 278 606 440 C606 602 496 700 299 700 L299 700 Z M301 348 L246 348 L246 532 L301 532 C379 532 420 500 420 440 C420 380 379 348 301 348 L301 348 Z " />
<glyph glyph-name="Q" unicode="Q" horiz-adv-x="780" d="M747 350 C747 562 599 712 390 712 C181 712 33 562 33 350 C33 138 181 -12 390 -12 C444 -12 494 -2 538 17 L618 -78 L747 30 L672 119 C720 180 747 259 747 350 L747 350 Z M390 156 C287 156 219 234 219 350 C219 466 287 544 390 544 C493 544 561 466 561 350 C561 320 556 292 548 268 L460 372 L331 263 L419 158 C410 157 400 156 390 156 L390 156 Z " />
<glyph glyph-name="R" unicode="R" horiz-adv-x="651" d="M405 0 L612 0 L469 225 C559 265 608 342 608 446 C608 602 498 700 301 700 L66 700 L66 0 L246 0 L246 194 L288 194 L405 0 Z M313 533 C381 533 422 501 422 446 C422 391 381 359 313 359 L246 359 L246 533 L313 533 Z " />
<glyph glyph-name="S" unicode="S" horiz-adv-x="585" d="M291 -12 C460 -12 563 85 563 225 C563 329 506 394 373 422 L298 438 C228 453 207 469 207 497 C207 529 235 552 287 552 C344 552 374 525 376 479 L555 479 C557 619 459 712 292 712 C128 712 28 620 28 490 C28 385 93 317 222 290 L298 274 C362 261 384 241 384 209 C384 172 354 148 301 148 C242 148 209 178 207 231 L28 231 C28 79 126 -12 291 -12 L291 -12 Z " />
<glyph glyph-name="T" unicode="T" horiz-adv-x="568" d="M553 700 L15 700 L15 531 L194 531 L194 0 L374 0 L374 531 L553 531 L553 700 Z " />
<glyph glyph-name="U" unicode="U" horiz-adv-x="680" d="M340 -12 C515 -12 623 93 623 274 L623 700 L443 700 L443 289 C443 198 401 158 340 158 C279 158 237 198 237 289 L237 700 L57 700 L57 274 C57 93 165 -12 340 -12 L340 -12 Z " />
<glyph glyph-name="V" unicode="V" horiz-adv-x="656" d="M221 0 L435 0 L653 700 L462 700 L330 227 L326 227 L194 700 L3 700 L221 0 Z " />
<glyph glyph-name="W" unicode="W" horiz-adv-x="1000" d="M196 0 L375 0 L498 423 L502 423 L625 0 L804 0 L992 700 L804 700 L705 293 L702 293 L578 700 L422 700 L298 293 L295 293 L196 700 L8 700 L196 0 Z " />
<glyph glyph-name="X" unicode="X" horiz-adv-x="628" d="M620 0 L423 363 L614 700 L416 700 L314 510 L212 700 L14 700 L205 363 L8 0 L202 0 L314 210 L426 0 L620 0 Z " />
<glyph glyph-name="Y" unicode="Y" horiz-adv-x="634" d="M227 0 L407 0 L407 287 L634 700 L434 700 L319 473 L315 473 L200 700 L0 700 L227 287 L227 0 Z " />
<glyph glyph-name="Z" unicode="Z" horiz-adv-x="569" d="M263 169 L527 557 L527 700 L42 700 L42 531 L298 531 L34 143 L34 0 L535 0 L535 169 L263 169 Z " />
<glyph glyph-name="bracketleft" unicode="&#x5b;" horiz-adv-x="386" d="M358 587 L358 742 L66 742 L66 -114 L358 -114 L358 41 L236 41 L236 587 L358 587 Z " />
<glyph glyph-name="backslash" unicode="&#x5c;" horiz-adv-x="550" d="M545 -92 L175 742 L5 742 L375 -92 L545 -92 Z " />
<glyph glyph-name="bracketright" unicode="&#x5d;" horiz-adv-x="386" d="M28 742 L28 587 L150 587 L150 41 L28 41 L28 -114 L320 -114 L320 742 L28 742 Z " />
<glyph glyph-name="asciicircum" unicode="&#x5e;" horiz-adv-x="627" d="M607 348 L397 676 L230 676 L20 348 L208 348 L314 527 L419 348 L607 348 Z " />
<glyph glyph-name="underscore" unicode="&#x5f;" horiz-adv-x="460" d="M10 -174 L450 -174 L450 -40 L10 -40 L10 -174 Z " />
<glyph glyph-name="grave" unicode="&#x60;" horiz-adv-x="600" d="M253 554 L409 554 L328 712 L140 712 L253 554 Z " />
<glyph glyph-name="a" unicode="a" horiz-adv-x="547" d="M279 504 C133 504 47 431 44 316 L209 316 C211 348 234 365 273 365 C312 365 332 348 333 306 L215 288 C85 268 28 214 28 133 C28 47 94 -12 192 -12 C257 -12 308 14 334 57 L338 57 L343 0 L497 0 L497 293 C497 433 423 504 279 504 L279 504 Z M247 114 C217 114 200 125 200 148 C200 170 214 184 258 190 L333 201 L333 200 C333 147 299 114 247 114 L247 114 Z " />
<glyph glyph-name="b" unicode="b" horiz-adv-x="598" d="M355 504 C291 504 248 474 228 441 L224 441 L224 700 L54 700 L54 0 L210 0 L215 57 L219 57 C242 14 295 -12 355 -12 C471 -12 566 87 566 246 C566 405 471 504 355 504 L355 504 Z M307 143 C258 143 220 179 220 246 C220 313 258 349 307 349 C356 349 394 313 394 246 C394 179 356 143 307 143 L307 143 Z " />
<glyph glyph-name="c" unicode="c" horiz-adv-x="558" d="M287 -12 C429 -12 526 73 535 211 L361 211 C355 167 325 142 286 142 C237 142 202 182 202 246 C202 310 238 350 287 350 C327 350 354 324 360 280 L535 280 C526 420 431 504 289 504 C134 504 30 400 30 246 C30 92 134 -12 287 -12 L287 -12 Z " />
<glyph glyph-name="d" unicode="d" horiz-adv-x="598" d="M374 700 L374 441 L370 441 C350 474 307 504 243 504 C127 504 32 405 32 246 C32 87 127 -12 243 -12 C303 -12 356 14 379 57 L383 57 L388 0 L544 0 L544 700 L374 700 Z M291 143 C242 143 204 179 204 246 C204 313 242 349 291 349 C340 349 378 313 378 246 C378 179 340 143 291 143 L291 143 Z " />
<glyph glyph-name="e" unicode="e" horiz-adv-x="563" d="M535 259 C535 412 431 504 289 504 C136 504 30 397 30 243 C30 91 133 -12 290 -12 C416 -12 504 53 530 170 L368 170 C358 145 329 128 290 128 C241 128 207 153 196 205 L531 205 C534 226 535 244 535 259 L535 259 Z M289 365 C326 365 356 349 367 305 L201 305 C216 346 247 365 289 365 L289 365 Z " />
<glyph glyph-name="f" unicode="f" horiz-adv-x="387" d="M327 558 C339 558 353 557 367 555 L367 701 C344 708 316 712 285 712 C159 712 89 646 89 508 L89 492 L16 492 L16 344 L89 344 L89 0 L259 0 L259 344 L367 344 L367 492 L259 492 L259 508 C259 542 279 558 327 558 L327 558 Z " />
<glyph glyph-name="g" unicode="g" horiz-adv-x="501" d="M497 504 L248 504 C125 504 48 432 48 328 C48 281 64 241 94 211 C49 190 22 150 22 100 C22 64 36 33 61 11 C25 -10 6 -42 6 -87 C6 -178 83 -236 244 -236 C417 -236 497 -168 497 -51 C497 52 437 105 322 105 L206 105 C182 105 169 115 169 131 C169 145 179 157 195 159 C212 156 229 154 248 154 C371 154 448 226 448 328 C448 357 442 383 431 405 L497 421 L497 504 Z M248 275 C216 275 193 297 193 330 C193 363 216 385 248 385 C280 385 303 363 303 330 C303 297 280 275 248 275 L248 275 Z M295 -30 C326 -30 342 -43 342 -65 C342 -93 316 -109 251 -109 C187 -109 161 -94 161 -67 C161 -46 177 -30 194 -30 L295 -30 Z " />
<glyph glyph-name="h" unicode="h" horiz-adv-x="577" d="M368 504 C311 504 261 481 228 441 L224 441 L224 700 L54 700 L54 0 L224 0 L224 260 C224 319 251 346 294 346 C335 346 357 322 357 261 L357 0 L527 0 L527 304 C527 434 467 504 368 504 L368 504 Z " />
<glyph glyph-name="i" unicode="i" horiz-adv-x="278" d="M139 548 C197 548 243 590 243 649 C243 708 197 750 139 750 C81 750 35 708 35 649 C35 590 81 548 139 548 L139 548 Z M54 0 L224 0 L224 492 L54 492 L54 0 Z " />
<glyph glyph-name="j" unicode="j" horiz-adv-x="278" d="M139 548 C197 548 243 590 243 649 C243 708 197 750 139 750 C81 750 35 708 35 649 C35 590 81 548 139 548 L139 548 Z M39 -236 C168 -236 224 -181 224 -41 L224 492 L54 492 L54 -21 C54 -66 37 -82 -3 -82 C-13 -82 -23 -81 -31 -80 L-31 -229 C-14 -233 9 -236 39 -236 L39 -236 Z " />
<glyph glyph-name="k" unicode="k" horiz-adv-x="570" d="M570 0 L377 259 L562 492 L361 492 L228 318 L224 318 L224 700 L54 700 L54 0 L224 0 L224 191 L228 191 L366 0 L570 0 Z " />
<glyph glyph-name="l" unicode="l" horiz-adv-x="278" d="M54 0 L224 0 L224 700 L54 700 L54 0 Z " />
<glyph glyph-name="m" unicode="m" horiz-adv-x="854" d="M642 504 C580 504 524 478 488 433 L484 433 C457 480 416 504 361 504 C303 504 248 477 219 435 L215 435 L210 492 L54 492 L54 0 L224 0 L224 260 C224 318 249 346 287 346 C323 346 344 323 344 261 L344 0 L514 0 L514 260 C514 320 540 346 577 346 C612 346 634 322 634 261 L634 0 L804 0 L804 304 C804 437 742 504 642 504 L642 504 Z " />
<glyph glyph-name="n" unicode="n" horiz-adv-x="577" d="M367 504 C306 504 248 477 219 435 L215 435 L210 492 L54 492 L54 0 L224 0 L224 260 C224 319 251 346 294 346 C335 346 357 322 357 261 L357 0 L527 0 L527 304 C527 436 464 504 367 504 L367 504 Z " />
<glyph glyph-name="o" unicode="o" horiz-adv-x="580" d="M290 -12 C443 -12 550 93 550 246 C550 399 443 504 290 504 C137 504 30 399 30 246 C30 93 137 -12 290 -12 L290 -12 Z M290 142 C239 142 202 180 202 246 C202 312 239 350 290 350 C341 350 378 312 378 246 C378 180 341 142 290 142 L290 142 Z " />
<glyph glyph-name="p" unicode="p" horiz-adv-x="596" d="M355 504 C295 504 242 478 219 435 L215 435 L210 492 L54 492 L54 -224 L224 -224 L224 51 L228 51 C248 18 291 -12 355 -12 C471 -12 566 87 566 246 C566 405 471 504 355 504 L355 504 Z M307 143 C258 143 220 179 220 246 C220 313 258 349 307 349 C356 349 394 313 394 246 C394 179 356 143 307 143 L307 143 Z " />
<glyph glyph-name="q" unicode="q" horiz-adv-x="596" d="M386 492 L381 435 L377 435 C354 478 301 504 241 504 C125 504 30 405 30 246 C30 87 125 -12 241 -12 C305 -12 348 18 368 51 L372 51 L372 -224 L542 -224 L542 492 L386 492 Z M289 143 C240 143 202 179 202 246 C202 313 240 349 289 349 C338 349 376 313 376 246 C376 179 338 143 289 143 L289 143 Z " />
<glyph glyph-name="r" unicode="r" horiz-adv-x="415" d="M352 501 C295 501 245 472 221 419 L217 419 L210 492 L54 492 L54 0 L224 0 L224 200 C224 290 264 333 353 333 C366 333 380 332 395 330 L395 494 C383 499 367 501 352 501 L352 501 Z " />
<glyph glyph-name="s" unicode="s" horiz-adv-x="473" d="M238 -12 C374 -12 453 62 453 161 C453 235 412 287 303 308 L242 320 C199 328 188 337 188 350 C188 364 203 376 231 376 C266 376 284 359 285 340 L445 340 C440 446 366 504 238 504 C102 504 25 433 25 339 C25 260 76 211 179 191 L240 179 C279 171 290 160 290 146 C290 130 275 118 246 118 C210 118 188 136 188 162 L28 162 C28 56 107 -12 238 -12 L238 -12 Z " />
<glyph glyph-name="t" unicode="t" horiz-adv-x="399" d="M327 141 C271 141 253 157 253 205 L253 342 L367 342 L367 492 L253 492 L253 605 L83 605 L83 492 L14 492 L14 342 L83 342 L83 187 C83 49 148 -12 284 -12 C319 -12 347 -8 369 -2 L369 143 C357 142 341 141 327 141 L327 141 Z " />
<glyph glyph-name="u" unicode="u" horiz-adv-x="573" d="M349 492 L349 232 C349 173 322 146 281 146 C242 146 220 170 220 231 L220 492 L50 492 L50 188 C50 56 113 -12 208 -12 C268 -12 325 15 354 57 L358 57 L363 0 L519 0 L519 492 L349 492 Z " />
<glyph glyph-name="v" unicode="v" horiz-adv-x="538" d="M173 0 L365 0 L533 492 L348 492 L271 208 L267 208 L190 492 L5 492 L173 0 Z " />
<glyph glyph-name="w" unicode="w" horiz-adv-x="827" d="M151 0 L330 0 L412 277 L415 277 L497 0 L676 0 L819 492 L643 492 L577 227 L573 227 L490 492 L337 492 L254 227 L250 227 L184 492 L8 492 L151 0 Z " />
<glyph glyph-name="x" unicode="x" horiz-adv-x="532" d="M526 0 L364 255 L521 492 L339 492 L266 380 L193 492 L11 492 L168 255 L6 0 L190 0 L266 120 L342 0 L526 0 Z " />
<glyph glyph-name="y" unicode="y" horiz-adv-x="542" d="M353 492 L274 210 L270 210 L191 492 L5 492 L178 -9 L105 -224 L290 -224 L537 492 L353 492 Z " />
<glyph glyph-name="z" unicode="z" horiz-adv-x="476" d="M260 150 L436 364 L436 492 L36 492 L36 342 L208 342 L32 128 L32 0 L444 0 L444 150 L260 150 Z " />
<glyph glyph-name="braceleft" unicode="&#x7b;" horiz-adv-x="403" d="M267 -114 L373 -114 L373 40 L321 40 C279 40 263 55 263 97 L263 178 C263 256 231 297 169 312 L169 316 C231 331 263 372 263 450 L263 531 C263 573 279 588 321 588 L373 588 L373 742 L267 742 C163 742 95 677 95 585 L95 454 C95 410 75 392 31 392 L25 392 L25 236 L31 236 C75 236 95 218 95 174 L95 43 C95 -49 163 -114 267 -114 L267 -114 Z " />
<glyph glyph-name="bar" unicode="&#x7c;" horiz-adv-x="322" d="M86 -100 L236 -100 L236 765 L86 765 L86 -100 Z " />
<glyph glyph-name="braceright" unicode="&#x7d;" horiz-adv-x="403" d="M136 -114 C240 -114 308 -49 308 43 L308 174 C308 218 328 236 372 236 L378 236 L378 392 L372 392 C328 392 308 410 308 454 L308 585 C308 677 240 742 136 742 L30 742 L30 588 L82 588 C124 588 140 573 140 531 L140 450 C140 372 172 331 234 316 L234 312 C172 297 140 256 140 178 L140 97 C140 55 124 40 82 40 L30 40 L30 -114 L136 -114 Z " />
<glyph glyph-name="asciitilde" unicode="&#x7e;" horiz-adv-x="650" d="M430 213 C480 213 516 229 556 257 L556 415 C527 391 483 369 429 369 C362 369 292 420 222 420 C171 420 130 402 94 376 L94 218 C138 248 171 263 220 263 C293 263 357 213 430 213 L430 213 Z " />
<glyph glyph-name="uni00A0" unicode="&#xa0;" horiz-adv-x="220" d="" />
<glyph glyph-name="exclamdown" unicode="&#xa1;" horiz-adv-x="314" d="M157 504 C92 504 46 458 46 393 C46 327 92 281 157 281 C222 281 268 327 268 393 C268 458 222 504 157 504 L157 504 Z M81 234 L67 -206 L247 -206 L233 234 L81 234 Z " />
<glyph glyph-name="cent" unicode="&#xa2;" horiz-adv-x="559" d="M314 238 L314 462 C346 455 367 431 370 399 L528 399 C523 518 435 597 314 605 L314 700 L254 700 L254 604 C124 588 36 490 36 350 C36 210 124 112 254 96 L254 0 L314 0 L314 95 C435 103 523 182 528 301 L370 301 C367 269 346 245 314 238 L314 238 Z M194 350 C194 406 218 444 254 458 L254 242 C218 256 194 294 194 350 L194 350 Z " />
<glyph glyph-name="sterling" unicode="&#xa3;" horiz-adv-x="543" d="M327 246 C327 259 326 273 323 286 L452 286 L452 389 L290 389 C270 437 250 479 250 514 C250 545 267 562 297 562 C329 562 350 543 351 492 L519 492 C518 634 435 712 301 712 C164 712 74 631 74 516 C74 467 91 427 109 389 L44 389 L44 286 L151 286 C154 275 155 264 155 252 C155 200 130 163 44 93 L44 0 L517 0 L517 150 L294 150 C316 177 327 208 327 246 L327 246 Z " />
<glyph glyph-name="currency" unicode="&#xa4;" horiz-adv-x="553" d="M491 350 C491 391 480 429 461 460 L523 522 L449 597 L383 531 C353 546 317 554 277 554 C237 554 201 546 171 531 L104 597 L30 522 L92 460 C73 428 62 391 62 350 C62 309 73 272 92 240 L30 178 L104 103 L171 169 C201 154 237 146 277 146 C317 146 353 154 383 169 L449 103 L523 178 L461 240 C480 271 491 309 491 350 L491 350 Z M212 350 C212 389 237 415 277 415 C316 415 341 389 341 350 C341 311 316 285 277 285 C237 285 212 311 212 350 L212 350 Z " />
<glyph glyph-name="yen" unicode="&#xa5;" horiz-adv-x="586" d="M574 700 L394 700 L293 485 L192 700 L12 700 L176 380 L41 380 L41 282 L207 282 L207 216 L41 216 L41 118 L207 118 L207 0 L379 0 L379 118 L546 118 L546 216 L379 216 L379 282 L546 282 L546 380 L410 380 L574 700 Z " />
<glyph glyph-name="brokenbar" unicode="&#xa6;" horiz-adv-x="322" d="M86 401 L236 401 L236 765 L86 765 L86 401 Z M86 -100 L236 -100 L236 256 L86 256 L86 -100 Z " />
<glyph glyph-name="section" unicode="&#xa7;" horiz-adv-x="529" d="M400 188 C456 211 489 259 489 322 C489 399 440 457 331 479 L267 492 C218 502 202 514 202 535 C202 557 220 570 255 570 C296 570 316 552 320 520 L478 520 C471 644 393 712 262 712 C123 712 40 635 40 529 C40 466 70 418 129 388 C73 365 41 316 41 253 C41 177 89 119 198 97 L262 84 C311 74 327 62 327 41 C327 19 309 6 272 6 C230 6 208 23 205 59 L45 59 C48 -68 131 -136 265 -136 C406 -136 489 -59 489 47 C489 110 459 158 400 188 L400 188 Z M251 229 L236 233 C215 239 200 255 200 281 C200 326 232 359 278 347 L293 343 C314 337 329 321 329 295 C329 250 297 217 251 229 L251 229 Z " />
<glyph glyph-name="dieresis" unicode="&#xa8;" horiz-adv-x="600" d="M198 555 C244 555 281 588 281 639 C281 690 244 723 198 723 C153 723 115 690 115 639 C115 588 153 555 198 555 L198 555 Z M401 555 C447 555 485 588 485 639 C485 690 447 723 401 723 C356 723 319 690 319 639 C319 588 356 555 401 555 L401 555 Z " />
<glyph glyph-name="copyright" unicode="&#xa9;" horiz-adv-x="796" d="M398 -12 C602 -12 763 148 763 350 C763 552 602 712 398 712 C194 712 33 552 33 350 C33 148 194 -12 398 -12 L398 -12 Z M398 67 C238 67 119 193 119 350 C119 507 238 633 398 633 C558 633 677 507 677 350 C677 193 558 67 398 67 L398 67 Z M404 144 C515 144 595 212 600 325 L448 325 C446 298 428 280 402 280 C371 280 348 309 348 351 C348 393 371 422 402 422 C428 422 446 404 448 377 L600 377 C595 490 515 558 404 558 C282 558 196 475 196 351 C196 227 282 144 404 144 L404 144 Z " />
<glyph glyph-name="ordfeminine" unicode="&#xaa;" horiz-adv-x="502" d="M321 702 L317 657 L313 657 C293 694 247 712 202 712 C105 712 24 628 24 492 C24 355 105 271 202 271 C254 271 296 294 313 326 L317 326 L321 281 L466 281 L466 702 L321 702 Z M247 415 C209 415 184 441 184 492 C184 542 209 568 247 568 C285 568 310 542 310 492 C310 441 285 415 247 415 L247 415 Z " />
<glyph glyph-name="guillemotleft" unicode="&#xab;" horiz-adv-x="669" d="M365 506 L182 506 L25 282 L182 58 L365 58 L209 282 L365 506 Z M639 506 L456 506 L299 282 L456 58 L639 58 L483 282 L639 506 Z " />
<glyph glyph-name="logicalnot" unicode="&#xac;" horiz-adv-x="650" d="M94 396 L94 238 L393 238 L393 142 L556 142 L556 396 L94 396 Z " />
<glyph glyph-name="registered" unicode="&#xae;" horiz-adv-x="455" d="M227 712 C113 712 20 620 20 506 C20 393 113 300 227 300 C342 300 435 393 435 506 C435 619 342 712 227 712 L227 712 Z M227 358 C145 358 84 425 84 506 C84 587 145 654 227 654 C310 654 371 587 371 506 C371 425 310 358 227 358 L227 358 Z M321 544 C321 591 292 616 240 616 L143 616 L143 403 L201 403 L201 475 L213 475 L261 403 L326 403 L271 478 C304 486 321 508 321 544 L321 544 Z M261 544 C261 529 252 522 237 522 L201 522 L201 565 L237 565 C252 565 261 558 261 544 L261 544 Z " />
<glyph glyph-name="macron" unicode="&#xaf;" horiz-adv-x="600" d="M150 567 L450 567 L450 692 L150 692 L150 567 Z " />
<glyph glyph-name="degree" unicode="&#xb0;" horiz-adv-x="390" d="M195 374 C298 374 370 446 370 543 C370 640 298 712 195 712 C92 712 20 640 20 543 C20 446 92 374 195 374 L195 374 Z M195 486 C161 486 139 509 139 543 C139 577 161 600 195 600 C229 600 251 577 251 543 C251 509 229 486 195 486 L195 486 Z " />
<glyph glyph-name="plusminus" unicode="&#xb1;" horiz-adv-x="650" d="M94 338 L242 338 L242 208 L408 208 L408 338 L556 338 L556 495 L408 495 L408 625 L242 625 L242 495 L94 495 L94 338 Z M94 0 L556 0 L556 157 L94 157 L94 0 Z " />
<glyph glyph-name="uni00B2" unicode="&#xb2;" horiz-adv-x="367" d="M235 424 C319 476 345 516 345 573 C345 658 287 712 192 712 C90 712 25 650 25 550 L155 550 C156 578 171 594 192 594 C208 594 217 584 217 570 C217 554 205 541 144 503 C47 443 25 408 25 330 L25 271 L340 271 L340 387 L182 387 C194 398 211 409 235 424 L235 424 Z " />
<glyph glyph-name="uni00B3" unicode="&#xb3;" horiz-adv-x="375" d="M291 492 C327 510 344 543 344 582 C344 658 282 712 189 712 C93 712 26 654 25 559 L152 559 C153 581 166 594 186 594 C204 594 216 584 216 567 C216 551 206 541 185 541 L143 541 L143 439 L187 439 C210 439 222 428 222 411 C222 394 210 382 190 382 C170 382 154 394 153 417 L25 417 C24 319 89 264 190 264 C289 264 351 318 351 393 C351 437 329 473 291 492 L291 492 Z " />
<glyph glyph-name="acute" unicode="&#xb4;" horiz-adv-x="600" d="M182 554 L338 554 L451 712 L263 712 L182 554 Z " />
<glyph glyph-name="uni00B5" unicode="&#xb5;" horiz-adv-x="587" d="M363 492 L363 232 C363 173 337 146 292 146 C248 146 224 172 224 225 L224 492 L54 492 L54 -224 L224 -224 L224 8 C242 -5 262 -12 286 -12 C329 -12 359 9 372 43 L376 43 L381 0 L533 0 L533 492 L363 492 Z " />
<glyph glyph-name="paragraph" unicode="&#xb6;" horiz-adv-x="709" d="M50 540 C50 444 119 380 226 380 L235 380 L235 -128 L395 -128 L395 700 L246 700 C119 700 50 636 50 540 L50 540 Z M463 700 L463 -128 L623 -128 L623 700 L463 700 Z " />
<glyph glyph-name="periodcentered" unicode="&#xb7;" horiz-adv-x="290" d="M145 207 C210 207 256 253 256 318 C256 384 210 430 145 430 C80 430 34 384 34 318 C34 253 80 207 145 207 L145 207 Z " />
<glyph glyph-name="cedilla" unicode="&#xb8;" horiz-adv-x="600" d="M311 -41 L311 0 L209 0 L198 -105 C255 -105 266 -113 266 -126 C266 -138 258 -145 229 -145 C219 -145 207 -144 195 -142 L195 -231 C213 -236 232 -238 254 -238 C345 -238 398 -197 398 -134 C398 -84 367 -51 311 -41 L311 -41 Z " />
<glyph glyph-name="uni00B9" unicode="&#xb9;" horiz-adv-x="305" d="M150 700 C143 662 121 638 64 638 L37 638 L37 542 L125 542 L125 266 L255 266 L255 700 L150 700 Z " />
<glyph glyph-name="ordmasculine" unicode="&#xba;" horiz-adv-x="496" d="M248 271 C380 271 472 361 472 492 C472 623 379 712 248 712 C116 712 24 622 24 492 C24 361 116 271 248 271 L248 271 Z M248 415 C211 415 184 444 184 492 C184 539 211 568 248 568 C285 568 312 538 312 492 C312 445 285 415 248 415 L248 415 Z " />
<glyph glyph-name="guillemotright" unicode="&#xbb;" horiz-adv-x="669" d="M213 506 L30 506 L186 282 L30 58 L213 58 L370 282 L213 506 Z M487 506 L304 506 L460 282 L304 58 L487 58 L644 282 L487 506 Z " />
<glyph glyph-name="onequarter" unicode="&#xbc;" horiz-adv-x="909" d="M253 266 L253 700 L148 700 C141 662 119 638 62 638 L35 638 L35 542 L123 542 L123 266 L253 266 Z M577 700 L143 0 L299 0 L733 700 L577 700 Z M869 177 L828 177 L828 434 L673 434 L509 169 L509 68 L708 68 L708 0 L828 0 L828 68 L869 68 L869 177 Z M637 177 L708 293 L708 177 L637 177 Z " />
<glyph glyph-name="onehalf" unicode="&#xbd;" horiz-adv-x="932" d="M253 266 L253 700 L148 700 C141 662 119 638 62 638 L35 638 L35 542 L123 542 L123 266 L253 266 Z M577 700 L143 0 L299 0 L733 700 L577 700 Z M782 153 C866 205 892 245 892 302 C892 387 834 441 739 441 C637 441 572 379 572 279 L702 279 C703 307 718 323 739 323 C755 323 764 313 764 299 C764 283 752 270 691 232 C594 172 572 137 572 59 L572 0 L887 0 L887 116 L729 116 C741 127 758 138 782 153 L782 153 Z " />
<glyph glyph-name="threequarters" unicode="&#xbe;" horiz-adv-x="976" d="M359 393 C359 437 337 473 299 492 C335 510 352 543 352 582 C352 658 290 712 197 712 C101 712 34 654 33 559 L160 559 C161 581 174 594 194 594 C212 594 224 584 224 567 C224 551 214 541 193 541 L151 541 L151 439 L195 439 C218 439 230 428 230 411 C230 394 218 382 198 382 C178 382 162 394 161 417 L33 417 C32 319 97 264 198 264 C297 264 359 318 359 393 L359 393 Z M644 700 L210 0 L366 0 L800 700 L644 700 Z M936 177 L895 177 L895 434 L740 434 L576 169 L576 68 L775 68 L775 0 L895 0 L895 68 L936 68 L936 177 Z M704 177 L775 293 L775 177 L704 177 Z " />
<glyph glyph-name="questiondown" unicode="&#xbf;" horiz-adv-x="503" d="M271 504 C206 504 160 458 160 393 C160 327 206 281 271 281 C336 281 382 327 382 393 C382 458 336 504 271 504 L271 504 Z M356 234 L186 234 L186 210 C186 176 182 169 153 144 L116 113 C51 59 30 18 30 -37 C30 -149 118 -218 245 -218 C382 -218 473 -137 475 8 L307 8 C307 -38 280 -61 243 -61 C214 -61 200 -47 200 -27 C200 -13 207 -2 227 15 L270 51 C346 114 356 133 356 199 L356 234 Z " />
<glyph glyph-name="Agrave" unicode="&#xc0;" horiz-adv-x="686" d="M440 757 L354 925 L155 925 L275 757 L440 757 Z M493 0 L683 0 L448 700 L238 700 L3 0 L193 0 L229 117 L457 117 L493 0 Z M276 269 L341 478 L345 478 L410 269 L276 269 Z " />
<glyph glyph-name="Aacute" unicode="&#xc1;" horiz-adv-x="686" d="M522 925 L323 925 L237 757 L402 757 L522 925 Z M493 0 L683 0 L448 700 L238 700 L3 0 L193 0 L229 117 L457 117 L493 0 Z M276 269 L341 478 L345 478 L410 269 L276 269 Z " />
<glyph glyph-name="Acircumflex" unicode="&#xc2;" horiz-adv-x="686" d="M343 826 L398 757 L556 757 L432 925 L254 925 L130 757 L288 757 L343 826 Z M493 0 L683 0 L448 700 L238 700 L3 0 L193 0 L229 117 L457 117 L493 0 Z M276 269 L341 478 L345 478 L410 269 L276 269 Z " />
<glyph glyph-name="Atilde" unicode="&#xc3;" horiz-adv-x="686" d="M297 803 C305 803 315 799 336 785 C372 759 397 753 421 753 C489 753 524 813 524 927 L409 927 C409 891 401 879 389 879 C381 879 371 883 350 897 C314 923 289 929 265 929 C197 929 162 869 162 755 L277 755 C277 791 285 803 297 803 L297 803 Z M493 0 L683 0 L448 700 L238 700 L3 0 L193 0 L229 117 L457 117 L493 0 Z M276 269 L341 478 L345 478 L410 269 L276 269 Z " />
<glyph glyph-name="Adieresis" unicode="&#xc4;" horiz-adv-x="686" d="M233 757 C282 757 322 794 322 847 C322 900 282 937 233 937 C185 937 145 900 145 847 C145 794 185 757 233 757 L233 757 Z M452 757 C501 757 541 794 541 847 C541 900 501 937 452 937 C404 937 364 900 364 847 C364 794 404 757 452 757 L452 757 Z M493 0 L683 0 L448 700 L238 700 L3 0 L193 0 L229 117 L457 117 L493 0 Z M276 269 L341 478 L345 478 L410 269 L276 269 Z " />
<glyph glyph-name="Aring" unicode="&#xc5;" horiz-adv-x="686" d="M493 0 L683 0 L459 667 C472 686 480 709 480 735 C480 806 422 860 343 860 C264 860 206 806 206 735 C206 709 214 686 227 667 L3 0 L193 0 L229 117 L457 117 L493 0 Z M343 770 C365 770 379 756 379 735 C379 714 365 700 343 700 C321 700 307 714 307 735 C307 756 321 770 343 770 L343 770 Z M276 269 L341 478 L345 478 L410 269 L276 269 Z " />
<glyph glyph-name="AE" unicode="&#xc6;" horiz-adv-x="966" d="M921 534 L921 700 L353 700 L2 0 L210 0 L275 133 L474 133 L474 0 L921 0 L921 166 L654 166 L654 271 L887 271 L887 431 L654 431 L654 534 L921 534 Z M349 285 L470 534 L474 534 L474 285 L349 285 Z " />
<glyph glyph-name="Ccedilla" unicode="&#xc7;" horiz-adv-x="751" d="M390 156 C290 156 219 230 219 350 C219 469 290 544 389 544 C470 544 523 497 537 412 L725 412 C717 593 576 712 390 712 C180 712 33 561 33 350 C33 163 149 23 321 -6 L311 -105 C368 -105 379 -113 379 -126 C379 -138 371 -145 342 -145 C332 -145 320 -144 308 -142 L308 -231 C326 -236 345 -238 367 -238 C458 -238 511 -197 511 -134 C511 -84 480 -51 424 -41 L424 -11 C591 3 718 116 725 288 L541 288 C528 203 473 156 390 156 L390 156 Z " />
<glyph glyph-name="Egrave" unicode="&#xc8;" horiz-adv-x="558" d="M387 757 L301 925 L102 925 L222 757 L387 757 Z M513 534 L513 700 L66 700 L66 0 L513 0 L513 166 L246 166 L246 271 L479 271 L479 431 L246 431 L246 534 L513 534 Z " />
<glyph glyph-name="Eacute" unicode="&#xc9;" horiz-adv-x="558" d="M469 925 L270 925 L184 757 L349 757 L469 925 Z M513 534 L513 700 L66 700 L66 0 L513 0 L513 166 L246 166 L246 271 L479 271 L479 431 L246 431 L246 534 L513 534 Z " />
<glyph glyph-name="Ecircumflex" unicode="&#xca;" horiz-adv-x="558" d="M290 826 L345 757 L503 757 L379 925 L201 925 L77 757 L235 757 L290 826 Z M513 534 L513 700 L66 700 L66 0 L513 0 L513 166 L246 166 L246 271 L479 271 L479 431 L246 431 L246 534 L513 534 Z " />
<glyph glyph-name="Edieresis" unicode="&#xcb;" horiz-adv-x="558" d="M180 757 C229 757 269 794 269 847 C269 900 229 937 180 937 C132 937 92 900 92 847 C92 794 132 757 180 757 L180 757 Z M399 757 C448 757 488 794 488 847 C488 900 448 937 399 937 C351 937 311 900 311 847 C311 794 351 757 399 757 L399 757 Z M513 534 L513 700 L66 700 L66 0 L513 0 L513 166 L246 166 L246 271 L479 271 L479 431 L246 431 L246 534 L513 534 Z " />
<glyph glyph-name="Igrave" unicode="&#xcc;" horiz-adv-x="312" d="M88 757 L253 757 L167 925 L-32 925 L88 757 Z M66 0 L246 0 L246 700 L66 700 L66 0 Z " />
<glyph glyph-name="Iacute" unicode="&#xcd;" horiz-adv-x="312" d="M50 757 L215 757 L335 925 L136 925 L50 757 Z M66 0 L246 0 L246 700 L66 700 L66 0 Z " />
<glyph glyph-name="Icircumflex" unicode="&#xce;" horiz-adv-x="312" d="M156 826 L211 757 L369 757 L245 925 L67 925 L-57 757 L101 757 L156 826 Z M66 0 L246 0 L246 700 L66 700 L66 0 Z " />
<glyph glyph-name="Idieresis" unicode="&#xcf;" horiz-adv-x="312" d="M46 757 C95 757 135 794 135 847 C135 900 95 937 46 937 C-2 937 -42 900 -42 847 C-42 794 -2 757 46 757 L46 757 Z M265 757 C314 757 354 794 354 847 C354 900 314 937 265 937 C217 937 177 900 177 847 C177 794 217 757 265 757 L265 757 Z M66 0 L246 0 L246 700 L66 700 L66 0 Z " />
<glyph glyph-name="Eth" unicode="&#xd0;" horiz-adv-x="696" d="M290 700 L78 700 L78 415 L-10 415 L-10 285 L78 285 L78 0 L290 0 C518 0 662 130 662 350 C662 571 519 700 290 700 L290 700 Z M300 169 L258 169 L258 285 L368 285 L368 415 L258 415 L258 531 L300 531 C413 531 476 468 476 350 C476 232 413 169 300 169 L300 169 Z " />
<glyph glyph-name="Ntilde" unicode="&#xd1;" horiz-adv-x="742" d="M325 803 C333 803 343 799 364 785 C400 759 425 753 449 753 C517 753 552 813 552 927 L437 927 C437 891 429 879 417 879 C409 879 399 883 378 897 C342 923 317 929 293 929 C225 929 190 869 190 755 L305 755 C305 791 313 803 325 803 L325 803 Z M496 700 L496 317 L492 317 L247 700 L66 700 L66 0 L246 0 L246 383 L250 383 L495 0 L676 0 L676 700 L496 700 Z " />
<glyph glyph-name="Ograve" unicode="&#xd2;" horiz-adv-x="780" d="M322 757 L487 757 L401 925 L202 925 L322 757 Z M390 -12 C599 -12 747 138 747 350 C747 562 599 712 390 712 C181 712 33 562 33 350 C33 138 181 -12 390 -12 L390 -12 Z M390 156 C287 156 219 234 219 350 C219 466 287 544 390 544 C493 544 561 466 561 350 C561 234 493 156 390 156 L390 156 Z " />
<glyph glyph-name="Oacute" unicode="&#xd3;" horiz-adv-x="780" d="M284 757 L449 757 L569 925 L370 925 L284 757 Z M390 -12 C599 -12 747 138 747 350 C747 562 599 712 390 712 C181 712 33 562 33 350 C33 138 181 -12 390 -12 L390 -12 Z M390 156 C287 156 219 234 219 350 C219 466 287 544 390 544 C493 544 561 466 561 350 C561 234 493 156 390 156 L390 156 Z " />
<glyph glyph-name="Ocircumflex" unicode="&#xd4;" horiz-adv-x="780" d="M390 826 L445 757 L603 757 L479 925 L301 925 L177 757 L335 757 L390 826 Z M390 712 C181 712 33 562 33 350 C33 138 181 -12 390 -12 C599 -12 747 138 747 350 C747 562 599 712 390 712 L390 712 Z M390 156 C287 156 219 234 219 350 C219 466 287 544 390 544 C493 544 561 466 561 350 C561 234 493 156 390 156 L390 156 Z " />
<glyph glyph-name="Otilde" unicode="&#xd5;" horiz-adv-x="780" d="M468 753 C536 753 571 813 571 927 L456 927 C456 891 448 879 436 879 C428 879 418 883 397 897 C361 923 336 929 312 929 C244 929 209 869 209 755 L324 755 C324 791 332 803 344 803 C352 803 362 799 383 785 C419 759 444 753 468 753 L468 753 Z M390 -12 C599 -12 747 138 747 350 C747 562 599 712 390 712 C181 712 33 562 33 350 C33 138 181 -12 390 -12 L390 -12 Z M390 156 C287 156 219 234 219 350 C219 466 287 544 390 544 C493 544 561 466 561 350 C561 234 493 156 390 156 L390 156 Z " />
<glyph glyph-name="Odieresis" unicode="&#xd6;" horiz-adv-x="780" d="M280 757 C329 757 369 794 369 847 C369 900 329 937 280 937 C232 937 192 900 192 847 C192 794 232 757 280 757 L280 757 Z M499 757 C548 757 588 794 588 847 C588 900 548 937 499 937 C451 937 411 900 411 847 C411 794 451 757 499 757 L499 757 Z M390 -12 C599 -12 747 138 747 350 C747 562 599 712 390 712 C181 712 33 562 33 350 C33 138 181 -12 390 -12 L390 -12 Z M390 156 C287 156 219 234 219 350 C219 466 287 544 390 544 C493 544 561 466 561 350 C561 234 493 156 390 156 L390 156 Z " />
<glyph glyph-name="multiply" unicode="&#xd7;" horiz-adv-x="650" d="M197 82 L325 210 L453 82 L560 189 L432 317 L560 445 L453 552 L325 424 L197 552 L90 445 L218 317 L90 189 L197 82 Z " />
<glyph glyph-name="Oslash" unicode="&#xd8;" horiz-adv-x="788" d="M766 625 L669 722 L600 653 C543 691 473 712 394 712 C185 712 37 562 37 350 C37 272 57 202 93 146 L22 75 L119 -22 L188 47 C245 9 315 -12 394 -12 C603 -12 751 138 751 350 C751 428 731 498 695 554 L766 625 Z M394 544 C425 544 453 537 477 523 L233 279 C226 300 223 324 223 350 C223 466 291 544 394 544 L394 544 Z M394 156 C363 156 335 163 311 177 L555 421 C562 400 565 376 565 350 C565 234 497 156 394 156 L394 156 Z " />
<glyph glyph-name="Ugrave" unicode="&#xd9;" horiz-adv-x="680" d="M272 757 L437 757 L351 925 L152 925 L272 757 Z M340 -12 C515 -12 623 93 623 274 L623 700 L443 700 L443 289 C443 198 401 158 340 158 C279 158 237 198 237 289 L237 700 L57 700 L57 274 C57 93 165 -12 340 -12 L340 -12 Z " />
<glyph glyph-name="Uacute" unicode="&#xda;" horiz-adv-x="680" d="M234 757 L399 757 L519 925 L320 925 L234 757 Z M340 -12 C515 -12 623 93 623 274 L623 700 L443 700 L443 289 C443 198 401 158 340 158 C279 158 237 198 237 289 L237 700 L57 700 L57 274 C57 93 165 -12 340 -12 L340 -12 Z " />
<glyph glyph-name="Ucircumflex" unicode="&#xdb;" horiz-adv-x="680" d="M340 826 L395 757 L553 757 L429 925 L251 925 L127 757 L285 757 L340 826 Z M443 700 L443 289 C443 198 401 158 340 158 C279 158 237 198 237 289 L237 700 L57 700 L57 274 C57 93 165 -12 340 -12 C515 -12 623 93 623 274 L623 700 L443 700 Z " />
<glyph glyph-name="Udieresis" unicode="&#xdc;" horiz-adv-x="680" d="M230 757 C279 757 319 794 319 847 C319 900 279 937 230 937 C182 937 142 900 142 847 C142 794 182 757 230 757 L230 757 Z M449 757 C498 757 538 794 538 847 C538 900 498 937 449 937 C401 937 361 900 361 847 C361 794 401 757 449 757 L449 757 Z M340 -12 C515 -12 623 93 623 274 L623 700 L443 700 L443 289 C443 198 401 158 340 158 C279 158 237 198 237 289 L237 700 L57 700 L57 274 C57 93 165 -12 340 -12 L340 -12 Z " />
<glyph glyph-name="Yacute" unicode="&#xdd;" horiz-adv-x="634" d="M211 757 L376 757 L496 925 L297 925 L211 757 Z M227 0 L407 0 L407 287 L634 700 L434 700 L319 473 L315 473 L200 700 L0 700 L227 287 L227 0 Z " />
<glyph glyph-name="Thorn" unicode="&#xde;" horiz-adv-x="640" d="M308 607 L246 607 L246 700 L66 700 L66 0 L246 0 L246 87 L308 87 C498 87 606 183 606 347 C606 511 498 607 308 607 L308 607 Z M299 255 L246 255 L246 439 L299 439 C381 439 420 407 420 347 C420 287 381 255 299 255 L299 255 Z " />
<glyph glyph-name="germandbls" unicode="&#xdf;" horiz-adv-x="606" d="M361 -12 C500 -12 586 68 586 186 C586 283 529 346 448 356 L448 360 C505 375 545 434 545 510 C545 626 452 712 302 712 C149 712 54 621 54 473 L54 0 L224 0 L224 466 C224 528 256 557 303 557 C348 557 377 530 377 489 C377 450 351 426 302 426 L277 426 L277 270 L328 270 C383 270 414 249 414 208 C414 169 385 143 331 143 C316 143 298 145 278 150 L278 -4 C310 -10 339 -12 361 -12 L361 -12 Z " />
<glyph glyph-name="agrave" unicode="&#xe0;" horiz-adv-x="547" d="M358 554 L277 712 L89 712 L202 554 L358 554 Z M279 504 C133 504 47 431 44 316 L209 316 C211 348 234 365 273 365 C312 365 332 348 333 306 L215 288 C85 268 28 214 28 133 C28 47 94 -12 192 -12 C257 -12 308 14 334 57 L338 57 L343 0 L497 0 L497 293 C497 433 423 504 279 504 L279 504 Z M247 114 C217 114 200 125 200 148 C200 170 214 184 258 190 L333 201 L333 200 C333 147 299 114 247 114 L247 114 Z " />
<glyph glyph-name="aacute" unicode="&#xe1;" horiz-adv-x="547" d="M440 712 L252 712 L171 554 L327 554 L440 712 Z M279 504 C133 504 47 431 44 316 L209 316 C211 348 234 365 273 365 C312 365 332 348 333 306 L215 288 C85 268 28 214 28 133 C28 47 94 -12 192 -12 C257 -12 308 14 334 57 L338 57 L343 0 L497 0 L497 293 C497 433 423 504 279 504 L279 504 Z M247 114 C217 114 200 125 200 148 C200 170 214 184 258 190 L333 201 L333 200 C333 147 299 114 247 114 L247 114 Z " />
<glyph glyph-name="acircumflex" unicode="&#xe2;" horiz-adv-x="547" d="M269 619 L321 554 L470 554 L353 712 L185 712 L68 554 L217 554 L269 619 Z M279 504 C133 504 47 431 44 316 L209 316 C211 348 234 365 273 365 C312 365 332 348 333 306 L215 288 C85 268 28 214 28 133 C28 47 94 -12 192 -12 C257 -12 308 14 334 57 L338 57 L343 0 L497 0 L497 293 C497 433 423 504 279 504 L279 504 Z M247 114 C217 114 200 125 200 148 C200 170 214 184 258 190 L333 201 L333 200 C333 147 299 114 247 114 L247 114 Z " />
<glyph glyph-name="atilde" unicode="&#xe3;" horiz-adv-x="547" d="M226 597 C233 597 243 593 262 580 C296 556 320 550 343 550 C407 550 440 607 440 714 L331 714 C331 680 324 669 312 669 C305 669 295 673 276 686 C242 710 218 716 195 716 C131 716 98 659 98 552 L207 552 C207 586 214 597 226 597 L226 597 Z M279 504 C133 504 47 431 44 316 L209 316 C211 348 234 365 273 365 C312 365 332 348 333 306 L215 288 C85 268 28 214 28 133 C28 47 94 -12 192 -12 C257 -12 308 14 334 57 L338 57 L343 0 L497 0 L497 293 C497 433 423 504 279 504 L279 504 Z M247 114 C217 114 200 125 200 148 C200 170 214 184 258 190 L333 201 L333 200 C333 147 299 114 247 114 L247 114 Z " />
<glyph glyph-name="adieresis" unicode="&#xe4;" horiz-adv-x="547" d="M167 555 C213 555 250 588 250 639 C250 690 213 723 167 723 C122 723 84 690 84 639 C84 588 122 555 167 555 L167 555 Z M370 555 C416 555 454 588 454 639 C454 690 416 723 370 723 C325 723 288 690 288 639 C288 588 325 555 370 555 L370 555 Z M279 504 C133 504 47 431 44 316 L209 316 C211 348 234 365 273 365 C312 365 332 348 333 306 L215 288 C85 268 28 214 28 133 C28 47 94 -12 192 -12 C257 -12 308 14 334 57 L338 57 L343 0 L497 0 L497 293 C497 433 423 504 279 504 L279 504 Z M247 114 C217 114 200 125 200 148 C200 170 214 184 258 190 L333 201 L333 200 C333 147 299 114 247 114 L247 114 Z " />
<glyph glyph-name="aring" unicode="&#xe5;" horiz-adv-x="547" d="M269 541 C338 541 388 588 388 650 C388 712 338 759 269 759 C200 759 150 712 150 650 C150 588 200 541 269 541 L269 541 Z M269 680 C288 680 300 668 300 650 C300 632 288 620 269 620 C250 620 238 632 238 650 C238 668 250 680 269 680 L269 680 Z M279 504 C133 504 47 431 44 316 L209 316 C211 348 234 365 273 365 C312 365 332 348 333 306 L215 288 C85 268 28 214 28 133 C28 47 94 -12 192 -12 C257 -12 308 14 334 57 L338 57 L343 0 L497 0 L497 293 C497 433 423 504 279 504 L279 504 Z M247 114 C217 114 200 125 200 148 C200 170 214 184 258 190 L333 201 L333 200 C333 147 299 114 247 114 L247 114 Z " />
<glyph glyph-name="ae" unicode="&#xe6;" horiz-adv-x="858" d="M830 259 C830 412 727 504 589 504 C534 504 481 489 442 458 L438 458 C404 488 355 504 283 504 C133 504 48 431 44 316 L209 316 C211 348 234 365 276 365 C321 365 345 346 345 305 L345 293 L249 293 C104 293 28 231 28 139 C28 50 98 -12 225 -12 C311 -12 372 16 403 60 L407 60 C449 14 513 -12 589 -12 C710 -12 796 53 824 170 L662 170 C652 145 623 128 586 128 C540 128 508 154 498 205 L826 205 C829 226 830 244 830 259 L830 259 Z M587 365 C621 365 651 350 662 308 L504 308 C520 347 550 365 587 365 L587 365 Z M252 119 C217 119 200 130 200 151 C200 174 220 190 272 190 L345 190 C340 147 307 119 252 119 L252 119 Z " />
<glyph glyph-name="ccedilla" unicode="&#xe7;" horiz-adv-x="558" d="M286 142 C237 142 202 182 202 246 C202 310 238 350 287 350 C327 350 354 324 360 280 L535 280 C526 420 431 504 289 504 C134 504 30 400 30 246 C30 118 102 24 215 -4 L204 -105 C261 -105 272 -113 272 -126 C272 -138 264 -145 235 -145 C225 -145 213 -144 201 -142 L201 -231 C219 -236 238 -238 260 -238 C351 -238 404 -197 404 -134 C404 -84 373 -51 317 -41 L317 -11 C443 1 527 83 535 211 L361 211 C355 167 325 142 286 142 L286 142 Z " />
<glyph glyph-name="egrave" unicode="&#xe8;" horiz-adv-x="563" d="M377 554 L296 712 L108 712 L221 554 L377 554 Z M535 259 C535 412 431 504 289 504 C136 504 30 397 30 243 C30 91 133 -12 290 -12 C416 -12 504 53 530 170 L368 170 C358 145 329 128 290 128 C241 128 207 153 196 205 L531 205 C534 226 535 244 535 259 L535 259 Z M289 365 C326 365 356 349 367 305 L201 305 C216 346 247 365 289 365 L289 365 Z " />
<glyph glyph-name="eacute" unicode="&#xe9;" horiz-adv-x="563" d="M459 712 L271 712 L190 554 L346 554 L459 712 Z M535 259 C535 412 431 504 289 504 C136 504 30 397 30 243 C30 91 133 -12 290 -12 C416 -12 504 53 530 170 L368 170 C358 145 329 128 290 128 C241 128 207 153 196 205 L531 205 C534 226 535 244 535 259 L535 259 Z M289 365 C326 365 356 349 367 305 L201 305 C216 346 247 365 289 365 L289 365 Z " />
<glyph glyph-name="ecircumflex" unicode="&#xea;" horiz-adv-x="563" d="M288 619 L340 554 L489 554 L372 712 L204 712 L87 554 L236 554 L288 619 Z M535 259 C535 412 431 504 289 504 C136 504 30 397 30 243 C30 91 133 -12 290 -12 C416 -12 504 53 530 170 L368 170 C358 145 329 128 290 128 C241 128 207 153 196 205 L531 205 C534 226 535 244 535 259 L535 259 Z M289 365 C326 365 356 349 367 305 L201 305 C216 346 247 365 289 365 L289 365 Z " />
<glyph glyph-name="edieresis" unicode="&#xeb;" horiz-adv-x="563" d="M186 555 C232 555 269 588 269 639 C269 690 232 723 186 723 C141 723 103 690 103 639 C103 588 141 555 186 555 L186 555 Z M389 555 C435 555 473 588 473 639 C473 690 435 723 389 723 C344 723 307 690 307 639 C307 588 344 555 389 555 L389 555 Z M535 259 C535 412 431 504 289 504 C136 504 30 397 30 243 C30 91 133 -12 290 -12 C416 -12 504 53 530 170 L368 170 C358 145 329 128 290 128 C241 128 207 153 196 205 L531 205 C534 226 535 244 535 259 L535 259 Z M289 365 C326 365 356 349 367 305 L201 305 C216 346 247 365 289 365 L289 365 Z " />
<glyph glyph-name="igrave" unicode="&#xec;" horiz-adv-x="278" d="M72 554 L228 554 L167 712 L-21 712 L72 554 Z M54 0 L224 0 L224 492 L54 492 L54 0 Z " />
<glyph glyph-name="iacute" unicode="&#xed;" horiz-adv-x="278" d="M41 554 L197 554 L290 712 L102 712 L41 554 Z M54 0 L224 0 L224 492 L54 492 L54 0 Z " />
<glyph glyph-name="icircumflex" unicode="&#xee;" horiz-adv-x="278" d="M139 610 L179 554 L318 554 L211 712 L67 712 L-40 554 L99 554 L139 610 Z M54 0 L224 0 L224 492 L54 492 L54 0 Z " />
<glyph glyph-name="idieresis" unicode="&#xef;" horiz-adv-x="278" d="M38 554 C89 554 125 590 125 649 C125 708 89 744 38 744 C-12 744 -48 708 -48 649 C-48 590 -12 554 38 554 L38 554 Z M239 554 C290 554 326 590 326 649 C326 708 290 744 239 744 C189 744 153 708 153 649 C153 590 189 554 239 554 L239 554 Z M54 0 L224 0 L224 492 L54 492 L54 0 Z " />
<glyph glyph-name="eth" unicode="&#xf0;" horiz-adv-x="581" d="M415 625 L488 678 L438 745 L346 679 C302 707 251 728 194 742 L147 615 C174 606 199 597 220 588 L157 542 L206 476 L298 542 C330 516 351 485 364 446 C338 460 308 467 272 467 C131 467 30 372 30 231 C30 91 131 -12 289 -12 C389 -12 459 28 496 79 C530 125 551 184 551 286 C551 425 502 542 415 625 L415 625 Z M291 141 C234 141 202 178 202 231 C202 283 234 321 291 321 C348 321 380 284 380 231 C380 178 348 141 291 141 L291 141 Z " />
<glyph glyph-name="ntilde" unicode="&#xf1;" horiz-adv-x="577" d="M246 597 C253 597 263 593 282 580 C316 556 340 550 363 550 C427 550 460 607 460 714 L351 714 C351 680 344 669 332 669 C325 669 315 673 296 686 C262 710 238 716 215 716 C151 716 118 659 118 552 L227 552 C227 586 234 597 246 597 L246 597 Z M367 504 C306 504 248 477 219 435 L215 435 L210 492 L54 492 L54 0 L224 0 L224 260 C224 319 251 346 294 346 C335 346 357 322 357 261 L357 0 L527 0 L527 304 C527 436 464 504 367 504 L367 504 Z " />
<glyph glyph-name="ograve" unicode="&#xf2;" horiz-adv-x="580" d="M223 554 L379 554 L298 712 L110 712 L223 554 Z M290 -12 C443 -12 550 93 550 246 C550 399 443 504 290 504 C137 504 30 399 30 246 C30 93 137 -12 290 -12 L290 -12 Z M290 142 C239 142 202 180 202 246 C202 312 239 350 290 350 C341 350 378 312 378 246 C378 180 341 142 290 142 L290 142 Z " />
<glyph glyph-name="oacute" unicode="&#xf3;" horiz-adv-x="580" d="M192 554 L348 554 L461 712 L273 712 L192 554 Z M290 -12 C443 -12 550 93 550 246 C550 399 443 504 290 504 C137 504 30 399 30 246 C30 93 137 -12 290 -12 L290 -12 Z M290 142 C239 142 202 180 202 246 C202 312 239 350 290 350 C341 350 378 312 378 246 C378 180 341 142 290 142 L290 142 Z " />
<glyph glyph-name="ocircumflex" unicode="&#xf4;" horiz-adv-x="580" d="M290 619 L342 554 L491 554 L374 712 L206 712 L89 554 L238 554 L290 619 Z M290 504 C137 504 30 399 30 246 C30 93 137 -12 290 -12 C443 -12 550 93 550 246 C550 399 443 504 290 504 L290 504 Z M290 142 C239 142 202 180 202 246 C202 312 239 350 290 350 C341 350 378 312 378 246 C378 180 341 142 290 142 L290 142 Z " />
<glyph glyph-name="otilde" unicode="&#xf5;" horiz-adv-x="580" d="M364 550 C428 550 461 607 461 714 L352 714 C352 680 345 669 333 669 C326 669 316 673 297 686 C263 710 239 716 216 716 C152 716 119 659 119 552 L228 552 C228 586 235 597 247 597 C254 597 264 593 283 580 C317 556 341 550 364 550 L364 550 Z M290 -12 C443 -12 550 93 550 246 C550 399 443 504 290 504 C137 504 30 399 30 246 C30 93 137 -12 290 -12 L290 -12 Z M290 142 C239 142 202 180 202 246 C202 312 239 350 290 350 C341 350 378 312 378 246 C378 180 341 142 290 142 L290 142 Z " />
<glyph glyph-name="odieresis" unicode="&#xf6;" horiz-adv-x="580" d="M188 555 C234 555 271 588 271 639 C271 690 234 723 188 723 C143 723 105 690 105 639 C105 588 143 555 188 555 L188 555 Z M391 555 C437 555 475 588 475 639 C475 690 437 723 391 723 C346 723 309 690 309 639 C309 588 346 555 391 555 L391 555 Z M290 -12 C443 -12 550 93 550 246 C550 399 443 504 290 504 C137 504 30 399 30 246 C30 93 137 -12 290 -12 L290 -12 Z M290 142 C239 142 202 180 202 246 C202 312 239 350 290 350 C341 350 378 312 378 246 C378 180 341 142 290 142 L290 142 Z " />
<glyph glyph-name="divide" unicode="&#xf7;" horiz-adv-x="650" d="M325 429 C387 429 427 465 427 521 C427 577 387 613 325 613 C263 613 223 577 223 521 C223 465 263 429 325 429 L325 429 Z M94 238 L556 238 L556 396 L94 396 L94 238 Z M325 21 C387 21 427 57 427 113 C427 169 387 205 325 205 C263 205 223 169 223 113 C223 57 263 21 325 21 L325 21 Z " />
<glyph glyph-name="oslash" unicode="&#xf8;" horiz-adv-x="586" d="M578 458 L507 529 L441 463 C400 489 350 504 293 504 C140 504 33 399 33 246 C33 189 48 138 75 98 L8 31 L79 -40 L146 27 C187 2 237 -12 293 -12 C446 -12 553 93 553 246 C553 302 539 352 513 393 L578 458 Z M293 366 C312 366 329 361 343 352 L197 206 C194 218 192 232 192 246 C192 318 234 366 293 366 L293 366 Z M293 126 C275 126 259 130 245 139 L390 284 C393 272 394 259 394 246 C394 174 352 126 293 126 L293 126 Z " />
<glyph glyph-name="ugrave" unicode="&#xf9;" horiz-adv-x="573" d="M376 554 L295 712 L107 712 L220 554 L376 554 Z M349 492 L349 232 C349 173 322 146 281 146 C242 146 220 170 220 231 L220 492 L50 492 L50 188 C50 56 113 -12 208 -12 C268 -12 325 15 354 57 L358 57 L363 0 L519 0 L519 492 L349 492 Z " />
<glyph glyph-name="uacute" unicode="&#xfa;" horiz-adv-x="573" d="M458 712 L270 712 L189 554 L345 554 L458 712 Z M349 492 L349 232 C349 173 322 146 281 146 C242 146 220 170 220 231 L220 492 L50 492 L50 188 C50 56 113 -12 208 -12 C268 -12 325 15 354 57 L358 57 L363 0 L519 0 L519 492 L349 492 Z " />
<glyph glyph-name="ucircumflex" unicode="&#xfb;" horiz-adv-x="573" d="M287 619 L339 554 L488 554 L371 712 L203 712 L86 554 L235 554 L287 619 Z M349 492 L349 232 C349 173 322 146 281 146 C242 146 220 170 220 231 L220 492 L50 492 L50 188 C50 56 113 -12 208 -12 C268 -12 325 15 354 57 L358 57 L363 0 L519 0 L519 492 L349 492 Z " />
<glyph glyph-name="udieresis" unicode="&#xfc;" horiz-adv-x="573" d="M185 555 C231 555 268 588 268 639 C268 690 231 723 185 723 C140 723 102 690 102 639 C102 588 140 555 185 555 L185 555 Z M388 555 C434 555 472 588 472 639 C472 690 434 723 388 723 C343 723 306 690 306 639 C306 588 343 555 388 555 L388 555 Z M349 492 L349 232 C349 173 322 146 281 146 C242 146 220 170 220 231 L220 492 L50 492 L50 188 C50 56 113 -12 208 -12 C268 -12 325 15 354 57 L358 57 L363 0 L519 0 L519 492 L349 492 Z " />
<glyph glyph-name="yacute" unicode="&#xfd;" horiz-adv-x="542" d="M443 712 L255 712 L174 554 L330 554 L443 712 Z M353 492 L274 210 L270 210 L191 492 L5 492 L178 -9 L105 -224 L290 -224 L537 492 L353 492 Z " />
<glyph glyph-name="thorn" unicode="&#xfe;" horiz-adv-x="596" d="M355 504 C297 504 252 479 228 441 L224 441 L224 700 L54 700 L54 -224 L224 -224 L224 51 L228 51 C248 18 291 -12 355 -12 C471 -12 566 87 566 246 C566 405 471 504 355 504 L355 504 Z M307 143 C258 143 220 179 220 246 C220 313 258 349 307 349 C356 349 394 313 394 246 C394 179 356 143 307 143 L307 143 Z " />
<glyph glyph-name="ydieresis" unicode="&#xff;" horiz-adv-x="542" d="M170 555 C216 555 253 588 253 639 C253 690 216 723 170 723 C125 723 87 690 87 639 C87 588 125 555 170 555 L170 555 Z M373 555 C419 555 457 588 457 639 C457 690 419 723 373 723 C328 723 291 690 291 639 C291 588 328 555 373 555 L373 555 Z M353 492 L274 210 L270 210 L191 492 L5 492 L178 -9 L105 -224 L290 -224 L537 492 L353 492 Z " />
<glyph glyph-name="Amacron" unicode="&#x100;" horiz-adv-x="686" d="M502 904 L184 904 L184 771 L502 771 L502 904 Z M493 0 L683 0 L448 700 L238 700 L3 0 L193 0 L229 117 L457 117 L493 0 Z M276 269 L341 478 L345 478 L410 269 L276 269 Z " />
<glyph glyph-name="amacron" unicode="&#x101;" horiz-adv-x="547" d="M419 692 L119 692 L119 567 L419 567 L419 692 Z M279 504 C133 504 47 431 44 316 L209 316 C211 348 234 365 273 365 C312 365 332 348 333 306 L215 288 C85 268 28 214 28 133 C28 47 94 -12 192 -12 C257 -12 308 14 334 57 L338 57 L343 0 L497 0 L497 293 C497 433 423 504 279 504 L279 504 Z M247 114 C217 114 200 125 200 148 C200 170 214 184 258 190 L333 201 L333 200 C333 147 299 114 247 114 L247 114 Z " />
<glyph glyph-name="Abreve" unicode="&#x102;" horiz-adv-x="686" d="M343 755 C452 755 516 816 516 911 L516 925 L386 925 C386 878 371 859 343 859 C315 859 300 878 300 925 L170 925 L170 911 C170 816 234 755 343 755 L343 755 Z M493 0 L683 0 L448 700 L238 700 L3 0 L193 0 L229 117 L457 117 L493 0 Z M276 269 L341 478 L345 478 L410 269 L276 269 Z " />
<glyph glyph-name="abreve" unicode="&#x103;" horiz-adv-x="547" d="M269 552 C372 552 432 609 432 699 L432 712 L310 712 C310 668 295 650 269 650 C243 650 228 668 228 712 L106 712 L106 699 C106 609 166 552 269 552 L269 552 Z M279 504 C133 504 47 431 44 316 L209 316 C211 348 234 365 273 365 C312 365 332 348 333 306 L215 288 C85 268 28 214 28 133 C28 47 94 -12 192 -12 C257 -12 308 14 334 57 L338 57 L343 0 L497 0 L497 293 C497 433 423 504 279 504 L279 504 Z M247 114 C217 114 200 125 200 148 C200 170 214 184 258 190 L333 201 L333 200 C333 147 299 114 247 114 L247 114 Z " />
<glyph glyph-name="Aogonek" unicode="&#x104;" horiz-adv-x="686" d="M614 -77 C614 -56 629 -34 683 0 L448 700 L238 700 L3 0 L193 0 L229 117 L457 117 L493 0 L543 0 C496 -30 472 -72 472 -120 C472 -191 528 -236 615 -236 C638 -236 663 -232 683 -227 L683 -97 C670 -101 660 -102 651 -102 C628 -102 614 -94 614 -77 L614 -77 Z M276 269 L341 478 L345 478 L410 269 L276 269 Z " />
<glyph glyph-name="aogonek" unicode="&#x105;" horiz-adv-x="547" d="M497 0 L497 293 C497 433 423 504 279 504 C133 504 47 431 44 316 L209 316 C211 348 234 365 273 365 C312 365 332 348 333 306 L215 288 C85 268 28 214 28 133 C28 47 94 -12 192 -12 C257 -12 308 14 334 57 L338 57 L343 0 L365 0 C320 -28 298 -68 298 -113 C298 -182 351 -224 433 -224 C455 -224 478 -221 497 -216 L497 -93 C485 -97 475 -98 467 -98 C445 -98 432 -90 432 -72 C432 -53 446 -32 497 0 L497 0 Z M247 114 C217 114 200 125 200 148 C200 170 214 184 258 190 L333 201 L333 200 C333 147 299 114 247 114 L247 114 Z " />
<glyph glyph-name="Cacute" unicode="&#x106;" horiz-adv-x="751" d="M284 757 L449 757 L569 925 L370 925 L284 757 Z M390 -12 C574 -12 717 105 725 288 L541 288 C528 203 473 156 390 156 C290 156 219 230 219 350 C219 469 290 544 389 544 C470 544 523 497 537 412 L725 412 C717 593 576 712 390 712 C180 712 33 561 33 350 C33 139 180 -12 390 -12 L390 -12 Z " />
<glyph glyph-name="cacute" unicode="&#x107;" horiz-adv-x="558" d="M187 554 L343 554 L456 712 L268 712 L187 554 Z M287 -12 C429 -12 526 73 535 211 L361 211 C355 167 325 142 286 142 C237 142 202 182 202 246 C202 310 238 350 287 350 C327 350 354 324 360 280 L535 280 C526 420 431 504 289 504 C134 504 30 400 30 246 C30 92 134 -12 287 -12 L287 -12 Z " />
<glyph glyph-name="Ccircumflex" unicode="&#x108;" horiz-adv-x="751" d="M390 826 L445 757 L603 757 L479 925 L301 925 L177 757 L335 757 L390 826 Z M390 156 C290 156 219 230 219 350 C219 469 290 544 389 544 C470 544 523 497 537 412 L725 412 C717 593 576 712 390 712 C180 712 33 561 33 350 C33 139 180 -12 390 -12 C574 -12 717 105 725 288 L541 288 C528 203 473 156 390 156 L390 156 Z " />
<glyph glyph-name="ccircumflex" unicode="&#x109;" horiz-adv-x="558" d="M285 619 L337 554 L486 554 L369 712 L201 712 L84 554 L233 554 L285 619 Z M286 142 C237 142 202 182 202 246 C202 310 238 350 287 350 C327 350 354 324 360 280 L535 280 C526 420 431 504 289 504 C134 504 30 400 30 246 C30 92 134 -12 287 -12 C429 -12 526 73 535 211 L361 211 C355 167 325 142 286 142 L286 142 Z " />
<glyph glyph-name="Cdotaccent" unicode="&#x10a;" horiz-adv-x="751" d="M390 752 C444 752 488 791 488 847 C488 903 444 942 390 942 C336 942 292 903 292 847 C292 791 336 752 390 752 L390 752 Z M390 -12 C574 -12 717 105 725 288 L541 288 C528 203 473 156 390 156 C290 156 219 230 219 350 C219 469 290 544 389 544 C470 544 523 497 537 412 L725 412 C717 593 576 712 390 712 C180 712 33 561 33 350 C33 139 180 -12 390 -12 L390 -12 Z " />
<glyph glyph-name="cdotaccent" unicode="&#x10b;" horiz-adv-x="558" d="M285 549 C337 549 377 587 377 639 C377 691 337 729 285 729 C233 729 193 691 193 639 C193 587 233 549 285 549 L285 549 Z M287 -12 C429 -12 526 73 535 211 L361 211 C355 167 325 142 286 142 C237 142 202 182 202 246 C202 310 238 350 287 350 C327 350 354 324 360 280 L535 280 C526 420 431 504 289 504 C134 504 30 400 30 246 C30 92 134 -12 287 -12 L287 -12 Z " />
<glyph glyph-name="Ccaron" unicode="&#x10c;" horiz-adv-x="751" d="M479 757 L603 925 L445 925 L390 856 L335 925 L177 925 L301 757 L479 757 Z M390 156 C290 156 219 230 219 350 C219 469 290 544 389 544 C470 544 523 497 537 412 L725 412 C717 593 576 712 390 712 C180 712 33 561 33 350 C33 139 180 -12 390 -12 C574 -12 717 105 725 288 L541 288 C528 203 473 156 390 156 L390 156 Z " />
<glyph glyph-name="ccaron" unicode="&#x10d;" horiz-adv-x="558" d="M369 554 L486 712 L337 712 L285 647 L233 712 L84 712 L201 554 L369 554 Z M286 142 C237 142 202 182 202 246 C202 310 238 350 287 350 C327 350 354 324 360 280 L535 280 C526 420 431 504 289 504 C134 504 30 400 30 246 C30 92 134 -12 287 -12 C429 -12 526 73 535 211 L361 211 C355 167 325 142 286 142 L286 142 Z " />
<glyph glyph-name="Dcaron" unicode="&#x10e;" horiz-adv-x="684" d="M392 757 L516 925 L358 925 L303 856 L248 925 L90 925 L214 757 L392 757 Z M278 700 L66 700 L66 0 L278 0 C506 0 650 130 650 350 C650 571 507 700 278 700 L278 700 Z M288 169 L246 169 L246 531 L288 531 C401 531 464 468 464 350 C464 232 401 169 288 169 L288 169 Z " />
<glyph glyph-name="dcaron" unicode="&#x10f;" horiz-adv-x="724" d="M670 712 C619 712 579 673 579 619 C579 570 617 535 669 535 L670 535 C656 503 631 476 598 447 L640 400 C716 458 762 527 764 595 C766 662 728 712 670 712 L670 712 Z M374 441 L370 441 C350 474 307 504 243 504 C127 504 32 405 32 246 C32 87 127 -12 243 -12 C303 -12 356 14 379 57 L383 57 L388 0 L544 0 L544 700 L374 700 L374 441 Z M291 143 C242 143 204 179 204 246 C204 313 242 349 291 349 C340 349 378 313 378 246 C378 179 340 143 291 143 L291 143 Z " />
<glyph glyph-name="Dcroat" unicode="&#x110;" horiz-adv-x="696" d="M290 700 L78 700 L78 415 L-10 415 L-10 285 L78 285 L78 0 L290 0 C518 0 662 130 662 350 C662 571 519 700 290 700 L290 700 Z M300 169 L258 169 L258 285 L368 285 L368 415 L258 415 L258 531 L300 531 C413 531 476 468 476 350 C476 232 413 169 300 169 L300 169 Z " />
<glyph glyph-name="dcroat" unicode="&#x111;" horiz-adv-x="598" d="M618 648 L544 648 L544 700 L374 700 L374 648 L262 648 L262 540 L374 540 L374 441 L370 441 C350 474 307 504 243 504 C127 504 32 405 32 246 C32 87 127 -12 243 -12 C303 -12 356 14 379 57 L383 57 L388 0 L544 0 L544 540 L618 540 L618 648 Z M291 143 C242 143 204 179 204 246 C204 313 242 349 291 349 C340 349 378 313 378 246 C378 179 340 143 291 143 L291 143 Z " />
<glyph glyph-name="Emacron" unicode="&#x112;" horiz-adv-x="558" d="M449 904 L131 904 L131 771 L449 771 L449 904 Z M513 534 L513 700 L66 700 L66 0 L513 0 L513 166 L246 166 L246 271 L479 271 L479 431 L246 431 L246 534 L513 534 Z " />
<glyph glyph-name="emacron" unicode="&#x113;" horiz-adv-x="563" d="M438 692 L138 692 L138 567 L438 567 L438 692 Z M535 259 C535 412 431 504 289 504 C136 504 30 397 30 243 C30 91 133 -12 290 -12 C416 -12 504 53 530 170 L368 170 C358 145 329 128 290 128 C241 128 207 153 196 205 L531 205 C534 226 535 244 535 259 L535 259 Z M289 365 C326 365 356 349 367 305 L201 305 C216 346 247 365 289 365 L289 365 Z " />
<glyph glyph-name="Ebreve" unicode="&#x114;" horiz-adv-x="558" d="M290 755 C399 755 463 816 463 911 L463 925 L333 925 C333 878 318 859 290 859 C262 859 247 878 247 925 L117 925 L117 911 C117 816 181 755 290 755 L290 755 Z M513 534 L513 700 L66 700 L66 0 L513 0 L513 166 L246 166 L246 271 L479 271 L479 431 L246 431 L246 534 L513 534 Z " />
<glyph glyph-name="ebreve" unicode="&#x115;" horiz-adv-x="563" d="M288 552 C391 552 451 609 451 699 L451 712 L329 712 C329 668 314 650 288 650 C262 650 247 668 247 712 L125 712 L125 699 C125 609 185 552 288 552 L288 552 Z M535 259 C535 412 431 504 289 504 C136 504 30 397 30 243 C30 91 133 -12 290 -12 C416 -12 504 53 530 170 L368 170 C358 145 329 128 290 128 C241 128 207 153 196 205 L531 205 C534 226 535 244 535 259 L535 259 Z M289 365 C326 365 356 349 367 305 L201 305 C216 346 247 365 289 365 L289 365 Z " />
<glyph glyph-name="Edotaccent" unicode="&#x116;" horiz-adv-x="558" d="M290 752 C344 752 388 791 388 847 C388 903 344 942 290 942 C236 942 192 903 192 847 C192 791 236 752 290 752 L290 752 Z M513 534 L513 700 L66 700 L66 0 L513 0 L513 166 L246 166 L246 271 L479 271 L479 431 L246 431 L246 534 L513 534 Z " />
<glyph glyph-name="edotaccent" unicode="&#x117;" horiz-adv-x="563" d="M288 549 C340 549 380 587 380 639 C380 691 340 729 288 729 C236 729 196 691 196 639 C196 587 236 549 288 549 L288 549 Z M535 259 C535 412 431 504 289 504 C136 504 30 397 30 243 C30 91 133 -12 290 -12 C416 -12 504 53 530 170 L368 170 C358 145 329 128 290 128 C241 128 207 153 196 205 L531 205 C534 226 535 244 535 259 L535 259 Z M289 365 C326 365 356 349 367 305 L201 305 C216 346 247 365 289 365 L289 365 Z " />
<glyph glyph-name="Eogonek" unicode="&#x118;" horiz-adv-x="558" d="M513 534 L513 700 L66 700 L66 0 L373 0 C326 -30 302 -72 302 -120 C302 -191 358 -236 445 -236 C468 -236 493 -232 513 -227 L513 -97 C500 -101 490 -102 481 -102 C458 -102 444 -94 444 -77 C444 -56 459 -34 513 0 L513 166 L246 166 L246 271 L479 271 L479 431 L246 431 L246 534 L513 534 Z " />
<glyph glyph-name="eogonek" unicode="&#x119;" horiz-adv-x="563" d="M535 259 C535 412 431 504 289 504 C136 504 30 397 30 243 C30 109 110 13 238 -8 C203 -35 185 -71 185 -111 C185 -180 238 -222 320 -222 C342 -222 365 -219 384 -214 L384 -91 C372 -95 362 -96 354 -96 C332 -96 319 -88 319 -70 C319 -51 333 -30 384 2 C459 27 511 85 530 170 L368 170 C358 145 329 128 290 128 C241 128 207 153 196 205 L531 205 C534 226 535 244 535 259 L535 259 Z M289 365 C326 365 356 349 367 305 L201 305 C216 346 247 365 289 365 L289 365 Z " />
<glyph glyph-name="Ecaron" unicode="&#x11a;" horiz-adv-x="558" d="M379 757 L503 925 L345 925 L290 856 L235 925 L77 925 L201 757 L379 757 Z M513 534 L513 700 L66 700 L66 0 L513 0 L513 166 L246 166 L246 271 L479 271 L479 431 L246 431 L246 534 L513 534 Z " />
<glyph glyph-name="ecaron" unicode="&#x11b;" horiz-adv-x="563" d="M372 554 L489 712 L340 712 L288 647 L236 712 L87 712 L204 554 L372 554 Z M535 259 C535 412 431 504 289 504 C136 504 30 397 30 243 C30 91 133 -12 290 -12 C416 -12 504 53 530 170 L368 170 C358 145 329 128 290 128 C241 128 207 153 196 205 L531 205 C534 226 535 244 535 259 L535 259 Z M289 365 C326 365 356 349 367 305 L201 305 C216 346 247 365 289 365 L289 365 Z " />
<glyph glyph-name="Gcircumflex" unicode="&#x11c;" horiz-adv-x="769" d="M397 826 L452 757 L610 757 L486 925 L308 925 L184 757 L342 757 L397 826 Z M407 254 L556 254 C535 194 478 155 400 155 C294 155 219 227 219 348 C219 468 290 545 396 545 C468 545 519 509 532 451 L724 451 C714 603 581 712 398 712 C185 712 33 565 33 348 C33 133 184 -12 377 -12 C460 -12 531 15 580 71 L584 71 L591 0 L724 0 L724 402 L407 402 L407 254 Z " />
<glyph glyph-name="gcircumflex" unicode="&#x11d;" horiz-adv-x="501" d="M259 619 L311 554 L460 554 L343 712 L175 712 L58 554 L207 554 L259 619 Z M497 504 L248 504 C125 504 48 432 48 328 C48 281 64 241 94 211 C49 190 22 150 22 100 C22 64 36 33 61 11 C25 -10 6 -42 6 -87 C6 -178 83 -236 244 -236 C417 -236 497 -168 497 -51 C497 52 437 105 322 105 L206 105 C182 105 169 115 169 131 C169 145 179 157 195 159 C212 156 229 154 248 154 C371 154 448 226 448 328 C448 357 442 383 431 405 L497 421 L497 504 Z M248 275 C216 275 193 297 193 330 C193 363 216 385 248 385 C280 385 303 363 303 330 C303 297 280 275 248 275 L248 275 Z M295 -30 C326 -30 342 -43 342 -65 C342 -93 316 -109 251 -109 C187 -109 161 -94 161 -67 C161 -46 177 -30 194 -30 L295 -30 Z " />
<glyph glyph-name="Gbreve" unicode="&#x11e;" horiz-adv-x="769" d="M397 755 C506 755 570 816 570 911 L570 925 L440 925 C440 878 425 859 397 859 C369 859 354 878 354 925 L224 925 L224 911 C224 816 288 755 397 755 L397 755 Z M407 254 L556 254 C535 194 478 155 400 155 C294 155 219 227 219 348 C219 468 290 545 396 545 C468 545 519 509 532 451 L724 451 C714 603 581 712 398 712 C185 712 33 565 33 348 C33 133 184 -12 377 -12 C460 -12 531 15 580 71 L584 71 L591 0 L724 0 L724 402 L407 402 L407 254 Z " />
<glyph glyph-name="gbreve" unicode="&#x11f;" horiz-adv-x="501" d="M259 552 C362 552 422 609 422 699 L422 712 L300 712 C300 668 285 650 259 650 C233 650 218 668 218 712 L96 712 L96 699 C96 609 156 552 259 552 L259 552 Z M497 504 L248 504 C125 504 48 432 48 328 C48 281 64 241 94 211 C49 190 22 150 22 100 C22 64 36 33 61 11 C25 -10 6 -42 6 -87 C6 -178 83 -236 244 -236 C417 -236 497 -168 497 -51 C497 52 437 105 322 105 L206 105 C182 105 169 115 169 131 C169 145 179 157 195 159 C212 156 229 154 248 154 C371 154 448 226 448 328 C448 357 442 383 431 405 L497 421 L497 504 Z M248 275 C216 275 193 297 193 330 C193 363 216 385 248 385 C280 385 303 363 303 330 C303 297 280 275 248 275 L248 275 Z M295 -30 C326 -30 342 -43 342 -65 C342 -93 316 -109 251 -109 C187 -109 161 -94 161 -67 C161 -46 177 -30 194 -30 L295 -30 Z " />
<glyph glyph-name="Gdotaccent" unicode="&#x120;" horiz-adv-x="769" d="M397 752 C451 752 495 791 495 847 C495 903 451 942 397 942 C343 942 299 903 299 847 C299 791 343 752 397 752 L397 752 Z M407 254 L556 254 C535 194 478 155 400 155 C294 155 219 227 219 348 C219 468 290 545 396 545 C468 545 519 509 532 451 L724 451 C714 603 581 712 398 712 C185 712 33 565 33 348 C33 133 184 -12 377 -12 C460 -12 531 15 580 71 L584 71 L591 0 L724 0 L724 402 L407 402 L407 254 Z " />
<glyph glyph-name="gdotaccent" unicode="&#x121;" horiz-adv-x="501" d="M259 549 C311 549 351 587 351 639 C351 691 311 729 259 729 C207 729 167 691 167 639 C167 587 207 549 259 549 L259 549 Z M497 504 L248 504 C125 504 48 432 48 328 C48 281 64 241 94 211 C49 190 22 150 22 100 C22 64 36 33 61 11 C25 -10 6 -42 6 -87 C6 -178 83 -236 244 -236 C417 -236 497 -168 497 -51 C497 52 437 105 322 105 L206 105 C182 105 169 115 169 131 C169 145 179 157 195 159 C212 156 229 154 248 154 C371 154 448 226 448 328 C448 357 442 383 431 405 L497 421 L497 504 Z M248 275 C216 275 193 297 193 330 C193 363 216 385 248 385 C280 385 303 363 303 330 C303 297 280 275 248 275 L248 275 Z M295 -30 C326 -30 342 -43 342 -65 C342 -93 316 -109 251 -109 C187 -109 161 -94 161 -67 C161 -46 177 -30 194 -30 L295 -30 Z " />
<glyph glyph-name="uni0122" unicode="&#x122;" horiz-adv-x="769" d="M407 254 L556 254 C535 194 478 155 400 155 C294 155 219 227 219 348 C219 468 290 545 396 545 C468 545 519 509 532 451 L724 451 C714 603 581 712 398 712 C185 712 33 565 33 348 C33 133 184 -12 377 -12 C460 -12 531 15 580 71 L584 71 L591 0 L724 0 L724 402 L407 402 L407 254 Z M398 -58 C341 -58 303 -99 303 -147 C303 -194 339 -233 398 -233 L400 -233 C393 -254 383 -274 372 -291 L459 -291 C485 -253 498 -213 499 -176 C501 -106 460 -58 398 -58 L398 -58 Z " />
<glyph glyph-name="uni0123" unicode="&#x123;" horiz-adv-x="501" d="M261 552 C318 552 356 593 356 641 C356 688 320 727 261 727 L259 727 C266 748 276 768 287 785 L200 785 C174 747 161 707 160 670 C158 600 199 552 261 552 L261 552 Z M497 504 L248 504 C125 504 48 432 48 328 C48 281 64 241 94 211 C49 190 22 150 22 100 C22 64 36 33 61 11 C25 -10 6 -42 6 -87 C6 -178 83 -236 244 -236 C417 -236 497 -168 497 -51 C497 52 437 105 322 105 L206 105 C182 105 169 115 169 131 C169 145 179 157 195 159 C212 156 229 154 248 154 C371 154 448 226 448 328 C448 357 442 383 431 405 L497 421 L497 504 Z M248 275 C216 275 193 297 193 330 C193 363 216 385 248 385 C280 385 303 363 303 330 C303 297 280 275 248 275 L248 275 Z M295 -30 C326 -30 342 -43 342 -65 C342 -93 316 -109 251 -109 C187 -109 161 -94 161 -67 C161 -46 177 -30 194 -30 L295 -30 Z " />
<glyph glyph-name="Hcircumflex" unicode="&#x124;" horiz-adv-x="708" d="M354 826 L409 757 L567 757 L443 925 L265 925 L141 757 L299 757 L354 826 Z M462 700 L462 428 L246 428 L246 700 L66 700 L66 0 L246 0 L246 260 L462 260 L462 0 L642 0 L642 700 L462 700 Z " />
<glyph glyph-name="hcircumflex" unicode="&#x125;" horiz-adv-x="577" d="M139 826 L194 757 L352 757 L228 925 L50 925 L-74 757 L84 757 L139 826 Z M368 504 C311 504 261 481 228 441 L224 441 L224 700 L54 700 L54 0 L224 0 L224 260 C224 319 251 346 294 346 C335 346 357 322 357 261 L357 0 L527 0 L527 304 C527 434 467 504 368 504 L368 504 Z " />
<glyph glyph-name="Hbar" unicode="&#x126;" horiz-adv-x="738" d="M738 612 L657 612 L657 700 L477 700 L477 612 L261 612 L261 700 L81 700 L81 612 L0 612 L0 492 L81 492 L81 0 L261 0 L261 260 L477 260 L477 0 L657 0 L657 492 L738 492 L738 612 Z M477 428 L261 428 L261 492 L477 492 L477 428 Z " />
<glyph glyph-name="hbar" unicode="&#x127;" horiz-adv-x="577" d="M368 504 C311 504 261 481 228 441 L224 441 L224 540 L336 540 L336 648 L224 648 L224 700 L54 700 L54 648 L-20 648 L-20 540 L54 540 L54 0 L224 0 L224 260 C224 319 251 346 294 346 C335 346 357 322 357 261 L357 0 L527 0 L527 304 C527 434 467 504 368 504 L368 504 Z " />
<glyph glyph-name="Itilde" unicode="&#x128;" horiz-adv-x="312" d="M234 753 C302 753 337 813 337 927 L222 927 C222 891 214 879 202 879 C194 879 184 883 163 897 C127 923 102 929 78 929 C10 929 -25 869 -25 755 L90 755 C90 791 98 803 110 803 C118 803 128 799 149 785 C185 759 210 753 234 753 L234 753 Z M66 0 L246 0 L246 700 L66 700 L66 0 Z " />
<glyph glyph-name="itilde" unicode="&#x129;" horiz-adv-x="278" d="M211 550 C271 550 304 607 300 714 L199 714 C199 680 192 669 180 669 C173 669 165 673 146 686 C112 710 90 716 67 716 C7 716 -26 659 -22 552 L79 552 C79 586 86 597 98 597 C105 597 113 593 132 580 C166 556 188 550 211 550 L211 550 Z M54 0 L224 0 L224 492 L54 492 L54 0 Z " />
<glyph glyph-name="Imacron" unicode="&#x12a;" horiz-adv-x="312" d="M-3 771 L315 771 L315 904 L-3 904 L-3 771 Z M66 0 L246 0 L246 700 L66 700 L66 0 Z " />
<glyph glyph-name="imacron" unicode="&#x12b;" horiz-adv-x="278" d="M0 567 L278 567 L278 692 L0 692 L0 567 Z M54 0 L224 0 L224 492 L54 492 L54 0 Z " />
<glyph glyph-name="Ibreve" unicode="&#x12c;" horiz-adv-x="312" d="M156 755 C265 755 329 816 329 911 L329 925 L199 925 C199 878 184 859 156 859 C128 859 113 878 113 925 L-17 925 L-17 911 C-17 816 47 755 156 755 L156 755 Z M66 0 L246 0 L246 700 L66 700 L66 0 Z " />
<glyph glyph-name="ibreve" unicode="&#x12d;" horiz-adv-x="278" d="M139 552 C238 552 288 609 288 699 L288 712 L176 712 C176 668 161 650 139 650 C117 650 102 668 102 712 L-10 712 L-10 699 C-10 609 40 552 139 552 L139 552 Z M54 0 L224 0 L224 492 L54 492 L54 0 Z " />
<glyph glyph-name="Iogonek" unicode="&#x12e;" horiz-adv-x="312" d="M246 0 L246 700 L66 700 L66 0 L119 0 C77 -28 54 -68 54 -114 C54 -183 104 -224 184 -224 C206 -224 227 -221 246 -215 L246 -93 C237 -96 227 -98 217 -98 C197 -98 187 -90 187 -73 C187 -53 201 -31 246 0 L246 0 Z " />
<glyph glyph-name="iogonek" unicode="&#x12f;" horiz-adv-x="278" d="M139 549 C191 549 231 587 231 639 C231 691 191 729 139 729 C87 729 47 691 47 639 C47 587 87 549 139 549 L139 549 Z M54 0 L97 0 C55 -28 32 -68 32 -114 C32 -183 82 -224 162 -224 C184 -224 205 -221 224 -215 L224 -93 C215 -96 205 -98 195 -98 C175 -98 165 -90 165 -73 C165 -53 179 -31 224 0 L224 492 L54 492 L54 0 Z " />
<glyph glyph-name="Idotaccent" unicode="&#x130;" horiz-adv-x="312" d="M156 752 C210 752 254 791 254 847 C254 903 210 942 156 942 C102 942 58 903 58 847 C58 791 102 752 156 752 L156 752 Z M66 0 L246 0 L246 700 L66 700 L66 0 Z " />
<glyph glyph-name="dotlessi" unicode="&#x131;" horiz-adv-x="278" d="M54 0 L224 0 L224 492 L54 492 L54 0 Z " />
<glyph glyph-name="Jcircumflex" unicode="&#x134;" horiz-adv-x="603" d="M326 826 L381 757 L539 757 L415 925 L237 925 L113 757 L271 757 L326 826 Z M108 700 L108 531 L366 531 L366 252 C366 187 338 156 291 156 C244 156 214 187 214 252 L214 344 L34 344 L34 248 C34 70 127 -12 292 -12 C456 -12 546 74 546 245 L546 700 L108 700 Z " />
<glyph glyph-name="jcircumflex" unicode="&#x135;" horiz-adv-x="278" d="M139 610 L179 554 L318 554 L211 712 L67 712 L-40 554 L99 554 L139 610 Z M54 -21 C54 -66 37 -82 -3 -82 C-13 -82 -23 -81 -31 -80 L-31 -229 C-14 -233 9 -236 39 -236 C168 -236 224 -181 224 -41 L224 492 L54 492 L54 -21 Z " />
<glyph glyph-name="uni0136" unicode="&#x136;" horiz-adv-x="680" d="M420 355 L676 700 L466 700 L250 407 L246 407 L246 700 L66 700 L66 0 L246 0 L246 292 L250 292 L458 0 L678 0 L420 355 Z M348 -58 C291 -58 253 -99 253 -147 C253 -194 289 -233 348 -233 L350 -233 C343 -254 333 -274 322 -291 L409 -291 C435 -253 448 -213 449 -176 C451 -106 410 -58 348 -58 L348 -58 Z " />
<glyph glyph-name="uni0137" unicode="&#x137;" horiz-adv-x="570" d="M224 191 L228 191 L366 0 L570 0 L377 259 L562 492 L361 492 L228 318 L224 318 L224 700 L54 700 L54 0 L224 0 L224 191 Z M290 -60 C233 -60 195 -101 195 -149 C195 -196 231 -235 290 -235 L292 -235 C285 -256 275 -276 264 -293 L351 -293 C377 -255 390 -215 391 -178 C393 -108 352 -60 290 -60 L290 -60 Z " />
<glyph glyph-name="Lacute" unicode="&#x139;" horiz-adv-x="526" d="M335 925 L136 925 L50 757 L215 757 L335 925 Z M246 169 L246 700 L66 700 L66 0 L500 0 L500 169 L246 169 Z " />
<glyph glyph-name="lacute" unicode="&#x13a;" horiz-adv-x="278" d="M33 757 L198 757 L318 925 L119 925 L33 757 Z M54 0 L224 0 L224 700 L54 700 L54 0 Z " />
<glyph glyph-name="uni013B" unicode="&#x13b;" horiz-adv-x="526" d="M246 169 L246 700 L66 700 L66 0 L500 0 L500 169 L246 169 Z M292 -58 C235 -58 197 -99 197 -147 C197 -194 233 -233 292 -233 L294 -233 C287 -254 277 -274 266 -291 L353 -291 C379 -253 392 -213 393 -176 C395 -106 354 -58 292 -58 L292 -58 Z " />
<glyph glyph-name="uni013C" unicode="&#x13c;" horiz-adv-x="278" d="M224 700 L54 700 L54 0 L224 0 L224 700 Z M137 -60 C80 -60 42 -101 42 -149 C42 -196 78 -235 137 -235 L139 -235 C132 -256 122 -276 111 -293 L198 -293 C224 -255 237 -215 238 -178 C240 -108 199 -60 137 -60 L137 -60 Z " />
<glyph glyph-name="Lcaron" unicode="&#x13d;" horiz-adv-x="526" d="M381 535 L382 535 C368 503 343 476 310 447 L352 400 C428 458 474 527 476 595 C478 662 440 712 382 712 C331 712 291 673 291 619 C291 570 329 535 381 535 L381 535 Z M246 169 L246 700 L66 700 L66 0 L500 0 L500 169 L246 169 Z " />
<glyph glyph-name="lcaron" unicode="&#x13e;" horiz-adv-x="404" d="M350 712 C299 712 259 673 259 619 C259 570 297 535 349 535 L350 535 C336 503 311 476 278 447 L320 400 C396 458 442 527 444 595 C446 662 408 712 350 712 L350 712 Z M54 0 L224 0 L224 700 L54 700 L54 0 Z " />
<glyph glyph-name="Ldot" unicode="&#x13f;" horiz-adv-x="546" d="M246 169 L246 700 L66 700 L66 0 L500 0 L500 169 L246 169 Z M395 229 C452 229 493 270 493 327 C493 386 452 427 395 427 C337 427 296 386 296 327 C296 270 337 229 395 229 L395 229 Z " />
<glyph glyph-name="ldot" unicode="&#x140;" horiz-adv-x="504" d="M54 0 L224 0 L224 700 L54 700 L54 0 Z M387 177 C452 177 498 223 498 288 C498 354 452 400 387 400 C322 400 276 354 276 288 C276 223 322 177 387 177 L387 177 Z " />
<glyph glyph-name="Lslash" unicode="&#x141;" horiz-adv-x="558" d="M278 169 L278 333 L432 444 L432 597 L278 486 L278 700 L98 700 L98 356 L0 285 L0 132 L98 203 L98 0 L532 0 L532 169 L278 169 Z " />
<glyph glyph-name="lslash" unicode="&#x142;" horiz-adv-x="378" d="M362 528 L274 464 L274 700 L104 700 L104 342 L16 278 L16 125 L104 189 L104 0 L274 0 L274 311 L362 375 L362 528 Z " />
<glyph glyph-name="Nacute" unicode="&#x143;" horiz-adv-x="742" d="M550 925 L351 925 L265 757 L430 757 L550 925 Z M496 700 L496 317 L492 317 L247 700 L66 700 L66 0 L246 0 L246 383 L250 383 L495 0 L676 0 L676 700 L496 700 Z " />
<glyph glyph-name="nacute" unicode="&#x144;" horiz-adv-x="577" d="M460 712 L272 712 L191 554 L347 554 L460 712 Z M367 504 C306 504 248 477 219 435 L215 435 L210 492 L54 492 L54 0 L224 0 L224 260 C224 319 251 346 294 346 C335 346 357 322 357 261 L357 0 L527 0 L527 304 C527 436 464 504 367 504 L367 504 Z " />
<glyph glyph-name="uni0145" unicode="&#x145;" horiz-adv-x="742" d="M496 700 L496 317 L492 317 L247 700 L66 700 L66 0 L246 0 L246 383 L250 383 L495 0 L676 0 L676 700 L496 700 Z M369 -58 C312 -58 274 -99 274 -147 C274 -194 310 -233 369 -233 L371 -233 C364 -254 354 -274 343 -291 L430 -291 C456 -253 469 -213 470 -176 C472 -106 431 -58 369 -58 L369 -58 Z " />
<glyph glyph-name="uni0146" unicode="&#x146;" horiz-adv-x="577" d="M367 504 C306 504 248 477 219 435 L215 435 L210 492 L54 492 L54 0 L224 0 L224 260 C224 319 251 346 294 346 C335 346 357 322 357 261 L357 0 L527 0 L527 304 C527 436 464 504 367 504 L367 504 Z M287 -60 C230 -60 192 -101 192 -149 C192 -196 228 -235 287 -235 L289 -235 C282 -256 272 -276 261 -293 L348 -293 C374 -255 387 -215 388 -178 C390 -108 349 -60 287 -60 L287 -60 Z " />
<glyph glyph-name="Ncaron" unicode="&#x147;" horiz-adv-x="742" d="M460 757 L584 925 L426 925 L371 856 L316 925 L158 925 L282 757 L460 757 Z M496 700 L496 317 L492 317 L247 700 L66 700 L66 0 L246 0 L246 383 L250 383 L495 0 L676 0 L676 700 L496 700 Z " />
<glyph glyph-name="ncaron" unicode="&#x148;" horiz-adv-x="577" d="M373 554 L490 712 L341 712 L289 647 L237 712 L88 712 L205 554 L373 554 Z M367 504 C306 504 248 477 219 435 L215 435 L210 492 L54 492 L54 0 L224 0 L224 260 C224 319 251 346 294 346 C335 346 357 322 357 261 L357 0 L527 0 L527 304 C527 436 464 504 367 504 L367 504 Z " />
<glyph glyph-name="Eng" unicode="&#x14a;" horiz-adv-x="742" d="M496 700 L496 317 L492 317 L247 700 L66 700 L66 0 L246 0 L246 383 L250 383 L495 1 L495 -2 C495 -26 481 -39 449 -39 C439 -39 429 -38 421 -37 L421 -191 C438 -195 461 -198 491 -198 C620 -198 676 -143 676 0 L676 700 L496 700 Z " />
<glyph glyph-name="eng" unicode="&#x14b;" horiz-adv-x="577" d="M367 504 C306 504 248 477 219 435 L215 435 L210 492 L54 492 L54 0 L224 0 L224 260 C224 319 251 346 294 346 C335 346 357 322 357 261 L357 25 C357 -20 340 -36 300 -36 C290 -36 280 -35 272 -34 L272 -183 C289 -187 312 -190 342 -190 C471 -190 527 -135 527 5 L527 304 C527 436 464 504 367 504 L367 504 Z " />
<glyph glyph-name="Omacron" unicode="&#x14c;" horiz-adv-x="780" d="M231 771 L549 771 L549 904 L231 904 L231 771 Z M390 -12 C599 -12 747 138 747 350 C747 562 599 712 390 712 C181 712 33 562 33 350 C33 138 181 -12 390 -12 L390 -12 Z M390 156 C287 156 219 234 219 350 C219 466 287 544 390 544 C493 544 561 466 561 350 C561 234 493 156 390 156 L390 156 Z " />
<glyph glyph-name="omacron" unicode="&#x14d;" horiz-adv-x="580" d="M140 567 L440 567 L440 692 L140 692 L140 567 Z M290 -12 C443 -12 550 93 550 246 C550 399 443 504 290 504 C137 504 30 399 30 246 C30 93 137 -12 290 -12 L290 -12 Z M290 142 C239 142 202 180 202 246 C202 312 239 350 290 350 C341 350 378 312 378 246 C378 180 341 142 290 142 L290 142 Z " />
<glyph glyph-name="Obreve" unicode="&#x14e;" horiz-adv-x="780" d="M390 755 C499 755 563 816 563 911 L563 925 L433 925 C433 878 418 859 390 859 C362 859 347 878 347 925 L217 925 L217 911 C217 816 281 755 390 755 L390 755 Z M390 -12 C599 -12 747 138 747 350 C747 562 599 712 390 712 C181 712 33 562 33 350 C33 138 181 -12 390 -12 L390 -12 Z M390 156 C287 156 219 234 219 350 C219 466 287 544 390 544 C493 544 561 466 561 350 C561 234 493 156 390 156 L390 156 Z " />
<glyph glyph-name="obreve" unicode="&#x14f;" horiz-adv-x="580" d="M290 552 C393 552 453 609 453 699 L453 712 L331 712 C331 668 316 650 290 650 C264 650 249 668 249 712 L127 712 L127 699 C127 609 187 552 290 552 L290 552 Z M290 -12 C443 -12 550 93 550 246 C550 399 443 504 290 504 C137 504 30 399 30 246 C30 93 137 -12 290 -12 L290 -12 Z M290 142 C239 142 202 180 202 246 C202 312 239 350 290 350 C341 350 378 312 378 246 C378 180 341 142 290 142 L290 142 Z " />
<glyph glyph-name="Ohungarumlaut" unicode="&#x150;" horiz-adv-x="780" d="M178 757 L323 757 L422 925 L253 925 L178 757 Z M398 757 L544 757 L642 925 L474 925 L398 757 Z M390 -12 C599 -12 747 138 747 350 C747 562 599 712 390 712 C181 712 33 562 33 350 C33 138 181 -12 390 -12 L390 -12 Z M390 156 C287 156 219 234 219 350 C219 466 287 544 390 544 C493 544 561 466 561 350 C561 234 493 156 390 156 L390 156 Z " />
<glyph glyph-name="ohungarumlaut" unicode="&#x151;" horiz-adv-x="580" d="M91 554 L228 554 L321 712 L162 712 L91 554 Z M299 554 L436 554 L529 712 L370 712 L299 554 Z M290 -12 C443 -12 550 93 550 246 C550 399 443 504 290 504 C137 504 30 399 30 246 C30 93 137 -12 290 -12 L290 -12 Z M290 142 C239 142 202 180 202 246 C202 312 239 350 290 350 C341 350 378 312 378 246 C378 180 341 142 290 142 L290 142 Z " />
<glyph glyph-name="OE" unicode="&#x152;" horiz-adv-x="930" d="M885 534 L885 700 L406 700 C177 700 34 571 34 350 C34 130 178 0 406 0 L885 0 L885 166 L618 166 L618 271 L851 271 L851 431 L618 431 L618 534 L885 534 Z M396 169 C285 169 220 235 220 350 C220 465 285 531 396 531 L438 531 L438 169 L396 169 Z " />
<glyph glyph-name="oe" unicode="&#x153;" horiz-adv-x="911" d="M883 259 C883 412 779 504 637 504 C567 504 509 482 466 438 L462 438 C419 482 361 504 290 504 C137 504 30 399 30 246 C30 93 137 -12 290 -12 C360 -12 418 10 461 51 L465 51 C507 10 566 -12 638 -12 C764 -12 851 53 878 170 L716 170 C706 145 678 128 639 128 C591 128 557 153 546 205 L879 205 C882 226 883 244 883 259 L883 259 Z M637 365 C673 365 703 350 714 308 L552 308 C567 347 598 365 637 365 L637 365 Z M290 142 C239 142 202 182 202 246 C202 310 239 350 290 350 C341 350 378 310 378 246 C378 182 341 142 290 142 L290 142 Z " />
<glyph glyph-name="Racute" unicode="&#x154;" horiz-adv-x="651" d="M479 925 L280 925 L194 757 L359 757 L479 925 Z M405 0 L612 0 L469 225 C559 265 608 342 608 446 C608 602 498 700 301 700 L66 700 L66 0 L246 0 L246 194 L288 194 L405 0 Z M313 533 C381 533 422 501 422 446 C422 391 381 359 313 359 L246 359 L246 533 L313 533 Z " />
<glyph glyph-name="racute" unicode="&#x155;" horiz-adv-x="415" d="M391 712 L203 712 L122 554 L278 554 L391 712 Z M352 501 C295 501 245 472 221 419 L217 419 L210 492 L54 492 L54 0 L224 0 L224 200 C224 290 264 333 353 333 C366 333 380 332 395 330 L395 494 C383 499 367 501 352 501 L352 501 Z " />
<glyph glyph-name="uni0156" unicode="&#x156;" horiz-adv-x="651" d="M246 194 L288 194 L405 0 L612 0 L469 225 C559 265 608 342 608 446 C608 602 498 700 301 700 L66 700 L66 0 L246 0 L246 194 Z M313 533 C381 533 422 501 422 446 C422 391 381 359 313 359 L246 359 L246 533 L313 533 Z M325 -58 C268 -58 230 -99 230 -147 C230 -194 266 -233 325 -233 L327 -233 C320 -254 310 -274 299 -291 L386 -291 C412 -253 425 -213 426 -176 C428 -106 387 -58 325 -58 L325 -58 Z " />
<glyph glyph-name="uni0157" unicode="&#x157;" horiz-adv-x="415" d="M352 501 C295 501 245 472 221 419 L217 419 L210 492 L54 492 L54 0 L224 0 L224 200 C224 290 264 333 353 333 C366 333 380 332 395 330 L395 494 C383 499 367 501 352 501 L352 501 Z M137 -60 C80 -60 42 -101 42 -149 C42 -196 78 -235 137 -235 L139 -235 C132 -256 122 -276 111 -293 L198 -293 C224 -255 237 -215 238 -178 C240 -108 199 -60 137 -60 L137 -60 Z " />
<glyph glyph-name="Rcaron" unicode="&#x158;" horiz-adv-x="651" d="M389 757 L513 925 L355 925 L300 856 L245 925 L87 925 L211 757 L389 757 Z M405 0 L612 0 L469 225 C559 265 608 342 608 446 C608 602 498 700 301 700 L66 700 L66 0 L246 0 L246 194 L288 194 L405 0 Z M313 533 C381 533 422 501 422 446 C422 391 381 359 313 359 L246 359 L246 533 L313 533 Z " />
<glyph glyph-name="rcaron" unicode="&#x159;" horiz-adv-x="415" d="M292 554 L399 712 L260 712 L220 656 L180 712 L41 712 L148 554 L292 554 Z M221 419 L217 419 L210 492 L54 492 L54 0 L224 0 L224 200 C224 290 264 333 353 333 C366 333 380 332 395 330 L395 494 C383 499 367 501 352 501 C295 501 245 472 221 419 L221 419 Z " />
<glyph glyph-name="Sacute" unicode="&#x15a;" horiz-adv-x="585" d="M185 757 L350 757 L470 925 L271 925 L185 757 Z M291 -12 C460 -12 563 85 563 225 C563 329 506 394 373 422 L298 438 C228 453 207 469 207 497 C207 529 235 552 287 552 C344 552 374 525 376 479 L555 479 C557 619 459 712 292 712 C128 712 28 620 28 490 C28 385 93 317 222 290 L298 274 C362 261 384 241 384 209 C384 172 354 148 301 148 C242 148 209 178 207 231 L28 231 C28 79 126 -12 291 -12 L291 -12 Z " />
<glyph glyph-name="sacute" unicode="&#x15b;" horiz-adv-x="473" d="M139 554 L295 554 L408 712 L220 712 L139 554 Z M238 -12 C374 -12 453 62 453 161 C453 235 412 287 303 308 L242 320 C199 328 188 337 188 350 C188 364 203 376 231 376 C266 376 284 359 285 340 L445 340 C440 446 366 504 238 504 C102 504 25 433 25 339 C25 260 76 211 179 191 L240 179 C279 171 290 160 290 146 C290 130 275 118 246 118 C210 118 188 136 188 162 L28 162 C28 56 107 -12 238 -12 L238 -12 Z " />
<glyph glyph-name="Scircumflex" unicode="&#x15c;" horiz-adv-x="585" d="M291 826 L346 757 L504 757 L380 925 L202 925 L78 757 L236 757 L291 826 Z M373 422 L298 438 C228 453 207 469 207 497 C207 529 235 552 287 552 C344 552 374 525 376 479 L555 479 C557 619 459 712 292 712 C128 712 28 620 28 490 C28 385 93 317 222 290 L298 274 C362 261 384 241 384 209 C384 172 354 148 301 148 C242 148 209 178 207 231 L28 231 C28 79 126 -12 291 -12 C460 -12 563 85 563 225 C563 329 506 394 373 422 L373 422 Z " />
<glyph glyph-name="scircumflex" unicode="&#x15d;" horiz-adv-x="473" d="M237 619 L289 554 L438 554 L321 712 L153 712 L36 554 L185 554 L237 619 Z M303 308 L242 320 C199 328 188 337 188 350 C188 364 203 376 231 376 C266 376 284 359 285 340 L445 340 C440 446 366 504 238 504 C102 504 25 433 25 339 C25 260 76 211 179 191 L240 179 C279 171 290 160 290 146 C290 130 275 118 246 118 C210 118 188 136 188 162 L28 162 C28 56 107 -12 238 -12 C374 -12 453 62 453 161 C453 235 412 287 303 308 L303 308 Z " />
<glyph glyph-name="Scedilla" unicode="&#x15e;" horiz-adv-x="585" d="M563 225 C563 329 506 394 373 422 L298 438 C228 453 207 469 207 497 C207 529 235 552 287 552 C344 552 374 525 376 479 L555 479 C557 619 459 712 292 712 C128 712 28 620 28 490 C28 385 93 317 222 290 L298 274 C362 261 384 241 384 209 C384 172 354 148 301 148 C242 148 209 178 207 231 L28 231 C28 96 105 10 237 -8 L227 -105 C284 -105 295 -113 295 -126 C295 -138 287 -145 258 -145 C248 -145 236 -144 224 -142 L224 -231 C242 -236 261 -238 283 -238 C374 -238 427 -197 427 -134 C427 -84 396 -51 340 -41 L340 -9 C480 8 563 99 563 225 L563 225 Z " />
<glyph glyph-name="scedilla" unicode="&#x15f;" horiz-adv-x="473" d="M453 161 C453 235 412 287 303 308 L242 320 C199 328 188 337 188 350 C188 364 203 376 231 376 C266 376 284 359 285 340 L445 340 C440 446 366 504 238 504 C102 504 25 433 25 339 C25 260 76 211 179 191 L240 179 C279 171 290 160 290 146 C290 130 275 118 246 118 C210 118 188 136 188 162 L28 162 C28 74 83 12 177 -7 L167 -105 C224 -105 235 -113 235 -126 C235 -138 227 -145 198 -145 C188 -145 176 -144 164 -142 L164 -231 C182 -236 201 -238 223 -238 C314 -238 367 -197 367 -134 C367 -84 336 -51 280 -41 L280 -9 C390 4 453 73 453 161 L453 161 Z " />
<glyph glyph-name="Scaron" unicode="&#x160;" horiz-adv-x="585" d="M380 757 L504 925 L346 925 L291 856 L236 925 L78 925 L202 757 L380 757 Z M373 422 L298 438 C228 453 207 469 207 497 C207 529 235 552 287 552 C344 552 374 525 376 479 L555 479 C557 619 459 712 292 712 C128 712 28 620 28 490 C28 385 93 317 222 290 L298 274 C362 261 384 241 384 209 C384 172 354 148 301 148 C242 148 209 178 207 231 L28 231 C28 79 126 -12 291 -12 C460 -12 563 85 563 225 C563 329 506 394 373 422 L373 422 Z " />
<glyph glyph-name="scaron" unicode="&#x161;" horiz-adv-x="473" d="M321 554 L438 712 L289 712 L237 647 L185 712 L36 712 L153 554 L321 554 Z M303 308 L242 320 C199 328 188 337 188 350 C188 364 203 376 231 376 C266 376 284 359 285 340 L445 340 C440 446 366 504 238 504 C102 504 25 433 25 339 C25 260 76 211 179 191 L240 179 C279 171 290 160 290 146 C290 130 275 118 246 118 C210 118 188 136 188 162 L28 162 C28 56 107 -12 238 -12 C374 -12 453 62 453 161 C453 235 412 287 303 308 L303 308 Z " />
<glyph glyph-name="uni0162" unicode="&#x162;" horiz-adv-x="568" d="M15 700 L15 531 L194 531 L194 0 L374 0 L374 531 L553 531 L553 700 L15 700 Z M282 -58 C225 -58 187 -99 187 -147 C187 -194 223 -233 282 -233 L284 -233 C277 -254 267 -274 256 -291 L343 -291 C369 -253 382 -213 383 -176 C385 -106 344 -58 282 -58 L282 -58 Z " />
<glyph glyph-name="uni0163" unicode="&#x163;" horiz-adv-x="399" d="M327 141 C271 141 253 157 253 205 L253 342 L367 342 L367 492 L253 492 L253 605 L83 605 L83 492 L14 492 L14 342 L83 342 L83 187 C83 49 148 -12 284 -12 C319 -12 347 -8 369 -2 L369 143 C357 142 341 141 327 141 L327 141 Z M249 -60 C192 -60 154 -101 154 -149 C154 -196 190 -235 249 -235 L251 -235 C244 -256 234 -276 223 -293 L310 -293 C336 -255 349 -215 350 -178 C352 -108 311 -60 249 -60 L249 -60 Z " />
<glyph glyph-name="Tcaron" unicode="&#x164;" horiz-adv-x="568" d="M373 757 L497 925 L339 925 L284 856 L229 925 L71 925 L195 757 L373 757 Z M553 700 L15 700 L15 531 L194 531 L194 0 L374 0 L374 531 L553 531 L553 700 Z " />
<glyph glyph-name="tcaron" unicode="&#x165;" horiz-adv-x="399" d="M351 806 C294 806 256 765 256 717 C256 670 292 631 351 631 L353 631 C346 610 336 590 325 573 L412 573 C438 611 451 651 452 688 C454 758 413 806 351 806 L351 806 Z M253 205 L253 342 L367 342 L367 492 L253 492 L253 605 L83 605 L83 492 L14 492 L14 342 L83 342 L83 187 C83 49 148 -12 284 -12 C319 -12 347 -8 369 -2 L369 143 C357 142 341 141 327 141 C271 141 253 157 253 205 L253 205 Z " />
<glyph glyph-name="Tbar" unicode="&#x166;" horiz-adv-x="568" d="M553 531 L553 700 L15 700 L15 531 L194 531 L194 378 L95 378 L95 248 L194 248 L194 0 L374 0 L374 248 L473 248 L473 378 L374 378 L374 531 L553 531 Z " />
<glyph glyph-name="tbar" unicode="&#x167;" horiz-adv-x="411" d="M333 141 C277 141 259 157 259 205 L259 207 L373 207 L373 301 L259 301 L259 342 L373 342 L373 492 L259 492 L259 605 L89 605 L89 492 L20 492 L20 342 L89 342 L89 301 L20 301 L20 207 L89 207 L89 187 C89 49 154 -12 290 -12 C325 -12 353 -8 375 -2 L375 143 C363 142 347 141 333 141 L333 141 Z " />
<glyph glyph-name="Utilde" unicode="&#x168;" horiz-adv-x="680" d="M418 753 C486 753 521 813 521 927 L406 927 C406 891 398 879 386 879 C378 879 368 883 347 897 C311 923 286 929 262 929 C194 929 159 869 159 755 L274 755 C274 791 282 803 294 803 C302 803 312 799 333 785 C369 759 394 753 418 753 L418 753 Z M340 -12 C515 -12 623 93 623 274 L623 700 L443 700 L443 289 C443 198 401 158 340 158 C279 158 237 198 237 289 L237 700 L57 700 L57 274 C57 93 165 -12 340 -12 L340 -12 Z " />
<glyph glyph-name="utilde" unicode="&#x169;" horiz-adv-x="573" d="M244 597 C251 597 261 593 280 580 C314 556 338 550 361 550 C425 550 458 607 458 714 L349 714 C349 680 342 669 330 669 C323 669 313 673 294 686 C260 710 236 716 213 716 C149 716 116 659 116 552 L225 552 C225 586 232 597 244 597 L244 597 Z M349 492 L349 232 C349 173 322 146 281 146 C242 146 220 170 220 231 L220 492 L50 492 L50 188 C50 56 113 -12 208 -12 C268 -12 325 15 354 57 L358 57 L363 0 L519 0 L519 492 L349 492 Z " />
<glyph glyph-name="Umacron" unicode="&#x16a;" horiz-adv-x="680" d="M181 771 L499 771 L499 904 L181 904 L181 771 Z M340 -12 C515 -12 623 93 623 274 L623 700 L443 700 L443 289 C443 198 401 158 340 158 C279 158 237 198 237 289 L237 700 L57 700 L57 274 C57 93 165 -12 340 -12 L340 -12 Z " />
<glyph glyph-name="umacron" unicode="&#x16b;" horiz-adv-x="573" d="M437 692 L137 692 L137 567 L437 567 L437 692 Z M349 492 L349 232 C349 173 322 146 281 146 C242 146 220 170 220 231 L220 492 L50 492 L50 188 C50 56 113 -12 208 -12 C268 -12 325 15 354 57 L358 57 L363 0 L519 0 L519 492 L349 492 Z " />
<glyph glyph-name="Ubreve" unicode="&#x16c;" horiz-adv-x="680" d="M340 755 C449 755 513 816 513 911 L513 925 L383 925 C383 878 368 859 340 859 C312 859 297 878 297 925 L167 925 L167 911 C167 816 231 755 340 755 L340 755 Z M340 -12 C515 -12 623 93 623 274 L623 700 L443 700 L443 289 C443 198 401 158 340 158 C279 158 237 198 237 289 L237 700 L57 700 L57 274 C57 93 165 -12 340 -12 L340 -12 Z " />
<glyph glyph-name="ubreve" unicode="&#x16d;" horiz-adv-x="573" d="M287 552 C390 552 450 609 450 699 L450 712 L328 712 C328 668 313 650 287 650 C261 650 246 668 246 712 L124 712 L124 699 C124 609 184 552 287 552 L287 552 Z M349 492 L349 232 C349 173 322 146 281 146 C242 146 220 170 220 231 L220 492 L50 492 L50 188 C50 56 113 -12 208 -12 C268 -12 325 15 354 57 L358 57 L363 0 L519 0 L519 492 L349 492 Z " />
<glyph glyph-name="Uring" unicode="&#x16e;" horiz-adv-x="680" d="M340 743 C413 743 467 792 467 858 C467 924 413 973 340 973 C267 973 213 924 213 858 C213 792 267 743 340 743 L340 743 Z M340 826 C320 826 307 839 307 858 C307 877 320 890 340 890 C360 890 373 877 373 858 C373 839 360 826 340 826 L340 826 Z M340 -12 C515 -12 623 93 623 274 L623 700 L443 700 L443 289 C443 198 401 158 340 158 C279 158 237 198 237 289 L237 700 L57 700 L57 274 C57 93 165 -12 340 -12 L340 -12 Z " />
<glyph glyph-name="uring" unicode="&#x16f;" horiz-adv-x="573" d="M287 541 C356 541 406 588 406 650 C406 712 356 759 287 759 C218 759 168 712 168 650 C168 588 218 541 287 541 L287 541 Z M287 680 C306 680 318 668 318 650 C318 632 306 620 287 620 C268 620 256 632 256 650 C256 668 268 680 287 680 L287 680 Z M349 492 L349 232 C349 173 322 146 281 146 C242 146 220 170 220 231 L220 492 L50 492 L50 188 C50 56 113 -12 208 -12 C268 -12 325 15 354 57 L358 57 L363 0 L519 0 L519 492 L349 492 Z " />
<glyph glyph-name="Uhungarumlaut" unicode="&#x170;" horiz-adv-x="680" d="M128 757 L273 757 L372 925 L203 925 L128 757 Z M348 757 L494 757 L592 925 L424 925 L348 757 Z M340 -12 C515 -12 623 93 623 274 L623 700 L443 700 L443 289 C443 198 401 158 340 158 C279 158 237 198 237 289 L237 700 L57 700 L57 274 C57 93 165 -12 340 -12 L340 -12 Z " />
<glyph glyph-name="uhungarumlaut" unicode="&#x171;" horiz-adv-x="573" d="M318 712 L159 712 L88 554 L225 554 L318 712 Z M433 554 L526 712 L367 712 L296 554 L433 554 Z M349 232 C349 173 322 146 281 146 C242 146 220 170 220 231 L220 492 L50 492 L50 188 C50 56 113 -12 208 -12 C268 -12 325 15 354 57 L358 57 L363 0 L519 0 L519 492 L349 492 L349 232 Z " />
<glyph glyph-name="Uogonek" unicode="&#x172;" horiz-adv-x="680" d="M443 700 L443 289 C443 198 401 158 340 158 C279 158 237 198 237 289 L237 700 L57 700 L57 274 C57 113 143 12 285 -8 C246 -37 227 -76 227 -119 C227 -190 283 -235 370 -235 C393 -235 418 -231 438 -226 L438 -96 C425 -100 415 -101 406 -101 C383 -101 369 -93 369 -76 C369 -55 384 -33 437 1 C554 33 623 129 623 274 L623 700 L443 700 Z " />
<glyph glyph-name="uogonek" unicode="&#x173;" horiz-adv-x="573" d="M519 0 L519 492 L349 492 L349 232 C349 173 322 146 281 146 C242 146 220 170 220 231 L220 492 L50 492 L50 188 C50 56 113 -12 208 -12 C268 -12 325 15 354 57 L358 57 L363 0 L387 0 C342 -28 320 -68 320 -113 C320 -182 373 -224 455 -224 C477 -224 500 -221 519 -216 L519 -93 C507 -97 497 -98 489 -98 C467 -98 454 -90 454 -72 C454 -53 468 -32 519 0 L519 0 Z " />
<glyph glyph-name="Wcircumflex" unicode="&#x174;" horiz-adv-x="1000" d="M500 826 L555 757 L713 757 L589 925 L411 925 L287 757 L445 757 L500 826 Z M804 700 L705 293 L702 293 L578 700 L422 700 L298 293 L295 293 L196 700 L8 700 L196 0 L375 0 L498 423 L502 423 L625 0 L804 0 L992 700 L804 700 Z " />
<glyph glyph-name="wcircumflex" unicode="&#x175;" horiz-adv-x="827" d="M414 619 L466 554 L615 554 L498 712 L330 712 L213 554 L362 554 L414 619 Z M643 492 L577 227 L573 227 L490 492 L337 492 L254 227 L250 227 L184 492 L8 492 L151 0 L330 0 L412 277 L415 277 L497 0 L676 0 L819 492 L643 492 Z " />
<glyph glyph-name="Ycircumflex" unicode="&#x176;" horiz-adv-x="634" d="M317 826 L372 757 L530 757 L406 925 L228 925 L104 757 L262 757 L317 826 Z M434 700 L319 473 L315 473 L200 700 L0 700 L227 287 L227 0 L407 0 L407 287 L634 700 L434 700 Z " />
<glyph glyph-name="ycircumflex" unicode="&#x177;" horiz-adv-x="542" d="M272 619 L324 554 L473 554 L356 712 L188 712 L71 554 L220 554 L272 619 Z M353 492 L274 210 L270 210 L191 492 L5 492 L178 -9 L105 -224 L290 -224 L537 492 L353 492 Z " />
<glyph glyph-name="Ydieresis" unicode="&#x178;" horiz-adv-x="634" d="M207 757 C256 757 296 794 296 847 C296 900 256 937 207 937 C159 937 119 900 119 847 C119 794 159 757 207 757 L207 757 Z M426 757 C475 757 515 794 515 847 C515 900 475 937 426 937 C378 937 338 900 338 847 C338 794 378 757 426 757 L426 757 Z M227 0 L407 0 L407 287 L634 700 L434 700 L319 473 L315 473 L200 700 L0 700 L227 287 L227 0 Z " />
<glyph glyph-name="Zacute" unicode="&#x179;" horiz-adv-x="569" d="M462 925 L263 925 L177 757 L342 757 L462 925 Z M263 169 L527 557 L527 700 L42 700 L42 531 L298 531 L34 143 L34 0 L535 0 L535 169 L263 169 Z " />
<glyph glyph-name="zacute" unicode="&#x17a;" horiz-adv-x="476" d="M409 712 L221 712 L140 554 L296 554 L409 712 Z M260 150 L436 364 L436 492 L36 492 L36 342 L208 342 L32 128 L32 0 L444 0 L444 150 L260 150 Z " />
<glyph glyph-name="Zdotaccent" unicode="&#x17b;" horiz-adv-x="569" d="M283 752 C337 752 381 791 381 847 C381 903 337 942 283 942 C229 942 185 903 185 847 C185 791 229 752 283 752 L283 752 Z M263 169 L527 557 L527 700 L42 700 L42 531 L298 531 L34 143 L34 0 L535 0 L535 169 L263 169 Z " />
<glyph glyph-name="zdotaccent" unicode="&#x17c;" horiz-adv-x="476" d="M238 549 C290 549 330 587 330 639 C330 691 290 729 238 729 C186 729 146 691 146 639 C146 587 186 549 238 549 L238 549 Z M260 150 L436 364 L436 492 L36 492 L36 342 L208 342 L32 128 L32 0 L444 0 L444 150 L260 150 Z " />
<glyph glyph-name="Zcaron" unicode="&#x17d;" horiz-adv-x="569" d="M372 757 L496 925 L338 925 L283 856 L228 925 L70 925 L194 757 L372 757 Z M263 169 L527 557 L527 700 L42 700 L42 531 L298 531 L34 143 L34 0 L535 0 L535 169 L263 169 Z " />
<glyph glyph-name="zcaron" unicode="&#x17e;" horiz-adv-x="476" d="M322 554 L439 712 L290 712 L238 647 L186 712 L37 712 L154 554 L322 554 Z M260 150 L436 364 L436 492 L36 492 L36 342 L208 342 L32 128 L32 0 L444 0 L444 150 L260 150 Z " />
<glyph glyph-name="florin" unicode="&#x192;" horiz-adv-x="479" d="M425 557 C436 557 448 556 459 554 L459 702 C432 709 404 712 379 712 C277 712 212 662 191 553 L168 434 L56 434 L56 332 L149 332 L124 200 C116 158 97 143 54 143 C43 143 31 144 20 146 L20 -2 C47 -9 75 -12 100 -12 C202 -12 267 38 288 147 L323 332 L455 332 L455 434 L342 434 L355 500 C363 542 382 557 425 557 L425 557 Z " />
<glyph glyph-name="uni01CD" unicode="&#x1cd;" horiz-adv-x="686" d="M432 757 L556 925 L398 925 L343 856 L288 925 L130 925 L254 757 L432 757 Z M493 0 L683 0 L448 700 L238 700 L3 0 L193 0 L229 117 L457 117 L493 0 Z M276 269 L341 478 L345 478 L410 269 L276 269 Z " />
<glyph glyph-name="uni01CE" unicode="&#x1ce;" horiz-adv-x="547" d="M353 554 L470 712 L321 712 L269 647 L217 712 L68 712 L185 554 L353 554 Z M279 504 C133 504 47 431 44 316 L209 316 C211 348 234 365 273 365 C312 365 332 348 333 306 L215 288 C85 268 28 214 28 133 C28 47 94 -12 192 -12 C257 -12 308 14 334 57 L338 57 L343 0 L497 0 L497 293 C497 433 423 504 279 504 L279 504 Z M247 114 C217 114 200 125 200 148 C200 170 214 184 258 190 L333 201 L333 200 C333 147 299 114 247 114 L247 114 Z " />
<glyph glyph-name="uni01E2" unicode="&#x1e2;" horiz-adv-x="966" d="M782 904 L464 904 L464 771 L782 771 L782 904 Z M921 534 L921 700 L353 700 L2 0 L210 0 L275 133 L474 133 L474 0 L921 0 L921 166 L654 166 L654 271 L887 271 L887 431 L654 431 L654 534 L921 534 Z M349 285 L470 534 L474 534 L474 285 L349 285 Z " />
<glyph glyph-name="uni01E3" unicode="&#x1e3;" horiz-adv-x="858" d="M589 692 L289 692 L289 567 L589 567 L589 692 Z M830 259 C830 412 727 504 589 504 C534 504 481 489 442 458 L438 458 C404 488 355 504 283 504 C133 504 48 431 44 316 L209 316 C211 348 234 365 276 365 C321 365 345 346 345 305 L345 293 L249 293 C104 293 28 231 28 139 C28 50 98 -12 225 -12 C311 -12 372 16 403 60 L407 60 C449 14 513 -12 589 -12 C710 -12 796 53 824 170 L662 170 C652 145 623 128 586 128 C540 128 508 154 498 205 L826 205 C829 226 830 244 830 259 L830 259 Z M587 365 C621 365 651 350 662 308 L504 308 C520 347 550 365 587 365 L587 365 Z M252 119 C217 119 200 130 200 151 C200 174 220 190 272 190 L345 190 C340 147 307 119 252 119 L252 119 Z " />
<glyph glyph-name="Gcaron" unicode="&#x1e6;" horiz-adv-x="769" d="M486 757 L610 925 L452 925 L397 856 L342 925 L184 925 L308 757 L486 757 Z M407 254 L556 254 C535 194 478 155 400 155 C294 155 219 227 219 348 C219 468 290 545 396 545 C468 545 519 509 532 451 L724 451 C714 603 581 712 398 712 C185 712 33 565 33 348 C33 133 184 -12 377 -12 C460 -12 531 15 580 71 L584 71 L591 0 L724 0 L724 402 L407 402 L407 254 Z " />
<glyph glyph-name="gcaron" unicode="&#x1e7;" horiz-adv-x="501" d="M343 554 L460 712 L311 712 L259 647 L207 712 L58 712 L175 554 L343 554 Z M497 504 L248 504 C125 504 48 432 48 328 C48 281 64 241 94 211 C49 190 22 150 22 100 C22 64 36 33 61 11 C25 -10 6 -42 6 -87 C6 -178 83 -236 244 -236 C417 -236 497 -168 497 -51 C497 52 437 105 322 105 L206 105 C182 105 169 115 169 131 C169 145 179 157 195 159 C212 156 229 154 248 154 C371 154 448 226 448 328 C448 357 442 383 431 405 L497 421 L497 504 Z M248 275 C216 275 193 297 193 330 C193 363 216 385 248 385 C280 385 303 363 303 330 C303 297 280 275 248 275 L248 275 Z M295 -30 C326 -30 342 -43 342 -65 C342 -93 316 -109 251 -109 C187 -109 161 -94 161 -67 C161 -46 177 -30 194 -30 L295 -30 Z " />
<glyph glyph-name="uni01E8" unicode="&#x1e8;" horiz-adv-x="680" d="M448 757 L572 925 L414 925 L359 856 L304 925 L146 925 L270 757 L448 757 Z M420 355 L676 700 L466 700 L250 407 L246 407 L246 700 L66 700 L66 0 L246 0 L246 292 L250 292 L458 0 L678 0 L420 355 Z " />
<glyph glyph-name="uni01E9" unicode="&#x1e9;" horiz-adv-x="570" d="M223 762 L340 920 L191 920 L139 855 L87 920 L-62 920 L55 762 L223 762 Z M570 0 L377 259 L562 492 L361 492 L228 318 L224 318 L224 700 L54 700 L54 0 L224 0 L224 191 L228 191 L366 0 L570 0 Z " />
<glyph glyph-name="AEacute" unicode="&#x1fc;" horiz-adv-x="966" d="M802 925 L603 925 L517 757 L682 757 L802 925 Z M921 534 L921 700 L353 700 L2 0 L210 0 L275 133 L474 133 L474 0 L921 0 L921 166 L654 166 L654 271 L887 271 L887 431 L654 431 L654 534 L921 534 Z M349 285 L470 534 L474 534 L474 285 L349 285 Z " />
<glyph glyph-name="aeacute" unicode="&#x1fd;" horiz-adv-x="858" d="M610 712 L422 712 L341 554 L497 554 L610 712 Z M830 259 C830 412 727 504 589 504 C534 504 481 489 442 458 L438 458 C404 488 355 504 283 504 C133 504 48 431 44 316 L209 316 C211 348 234 365 276 365 C321 365 345 346 345 305 L345 293 L249 293 C104 293 28 231 28 139 C28 50 98 -12 225 -12 C311 -12 372 16 403 60 L407 60 C449 14 513 -12 589 -12 C710 -12 796 53 824 170 L662 170 C652 145 623 128 586 128 C540 128 508 154 498 205 L826 205 C829 226 830 244 830 259 L830 259 Z M587 365 C621 365 651 350 662 308 L504 308 C520 347 550 365 587 365 L587 365 Z M252 119 C217 119 200 130 200 151 C200 174 220 190 272 190 L345 190 C340 147 307 119 252 119 L252 119 Z " />
<glyph glyph-name="Oslashacute" unicode="&#x1fe;" horiz-adv-x="788" d="M573 925 L374 925 L288 757 L453 757 L573 925 Z M766 625 L669 722 L600 653 C543 691 473 712 394 712 C185 712 37 562 37 350 C37 272 57 202 93 146 L22 75 L119 -22 L188 47 C245 9 315 -12 394 -12 C603 -12 751 138 751 350 C751 428 731 498 695 554 L766 625 Z M394 544 C425 544 453 537 477 523 L233 279 C226 300 223 324 223 350 C223 466 291 544 394 544 L394 544 Z M394 156 C363 156 335 163 311 177 L555 421 C562 400 565 376 565 350 C565 234 497 156 394 156 L394 156 Z " />
<glyph glyph-name="oslashacute" unicode="&#x1ff;" horiz-adv-x="586" d="M464 712 L276 712 L195 554 L351 554 L464 712 Z M578 458 L507 529 L441 463 C400 489 350 504 293 504 C140 504 33 399 33 246 C33 189 48 138 75 98 L8 31 L79 -40 L146 27 C187 2 237 -12 293 -12 C446 -12 553 93 553 246 C553 302 539 352 513 393 L578 458 Z M293 366 C312 366 329 361 343 352 L197 206 C194 218 192 232 192 246 C192 318 234 366 293 366 L293 366 Z M293 126 C275 126 259 130 245 139 L390 284 C393 272 394 259 394 246 C394 174 352 126 293 126 L293 126 Z " />
<glyph glyph-name="uni0218" unicode="&#x218;" horiz-adv-x="585" d="M373 422 L298 438 C228 453 207 469 207 497 C207 529 235 552 287 552 C344 552 374 525 376 479 L555 479 C557 619 459 712 292 712 C128 712 28 620 28 490 C28 385 93 317 222 290 L298 274 C362 261 384 241 384 209 C384 172 354 148 301 148 C242 148 209 178 207 231 L28 231 C28 79 126 -12 291 -12 C460 -12 563 85 563 225 C563 329 506 394 373 422 L373 422 Z M287 -58 C230 -58 192 -99 192 -147 C192 -194 228 -233 287 -233 L289 -233 C282 -254 272 -274 261 -291 L348 -291 C374 -253 387 -213 388 -176 C390 -106 349 -58 287 -58 L287 -58 Z " />
<glyph glyph-name="uni0219" unicode="&#x219;" horiz-adv-x="473" d="M303 308 L242 320 C199 328 188 337 188 350 C188 364 203 376 231 376 C266 376 284 359 285 340 L445 340 C440 446 366 504 238 504 C102 504 25 433 25 339 C25 260 76 211 179 191 L240 179 C279 171 290 160 290 146 C290 130 275 118 246 118 C210 118 188 136 188 162 L28 162 C28 56 107 -12 238 -12 C374 -12 453 62 453 161 C453 235 412 287 303 308 L303 308 Z M230 -60 C173 -60 135 -101 135 -149 C135 -196 171 -235 230 -235 L232 -235 C225 -256 215 -276 204 -293 L291 -293 C317 -255 330 -215 331 -178 C333 -108 292 -60 230 -60 L230 -60 Z " />
<glyph glyph-name="uni021A" unicode="&#x21a;" horiz-adv-x="568" d="M15 700 L15 531 L194 531 L194 0 L374 0 L374 531 L553 531 L553 700 L15 700 Z M282 -58 C225 -58 187 -99 187 -147 C187 -194 223 -233 282 -233 L284 -233 C277 -254 267 -274 256 -291 L343 -291 C369 -253 382 -213 383 -176 C385 -106 344 -58 282 -58 L282 -58 Z " />
<glyph glyph-name="uni021B" unicode="&#x21b;" horiz-adv-x="399" d="M327 141 C271 141 253 157 253 205 L253 342 L367 342 L367 492 L253 492 L253 605 L83 605 L83 492 L14 492 L14 342 L83 342 L83 187 C83 49 148 -12 284 -12 C319 -12 347 -8 369 -2 L369 143 C357 142 341 141 327 141 L327 141 Z M249 -60 C192 -60 154 -101 154 -149 C154 -196 190 -235 249 -235 L251 -235 C244 -256 234 -276 223 -293 L310 -293 C336 -255 349 -215 350 -178 C352 -108 311 -60 249 -60 L249 -60 Z " />
<glyph glyph-name="uni0237" unicode="&#x237;" horiz-adv-x="278" d="M39 -236 C168 -236 224 -181 224 -41 L224 492 L54 492 L54 -21 C54 -66 37 -82 -3 -82 C-13 -82 -23 -81 -31 -80 L-31 -229 C-14 -233 9 -236 39 -236 L39 -236 Z " />
<glyph glyph-name="circumflex" unicode="&#x2c6;" horiz-adv-x="600" d="M501 554 L384 712 L216 712 L99 554 L248 554 L300 619 L352 554 L501 554 Z " />
<glyph glyph-name="caron" unicode="&#x2c7;" horiz-adv-x="600" d="M352 712 L300 647 L248 712 L99 712 L216 554 L384 554 L501 712 L352 712 Z " />
<glyph glyph-name="breve" unicode="&#x2d8;" horiz-adv-x="600" d="M300 552 C403 552 463 609 463 699 L463 712 L341 712 C341 668 326 650 300 650 C274 650 259 668 259 712 L137 712 L137 699 C137 609 197 552 300 552 L300 552 Z " />
<glyph glyph-name="dotaccent" unicode="&#x2d9;" horiz-adv-x="600" d="M300 549 C352 549 392 587 392 639 C392 691 352 729 300 729 C248 729 208 691 208 639 C208 587 248 549 300 549 L300 549 Z " />
<glyph glyph-name="ring" unicode="&#x2da;" horiz-adv-x="600" d="M300 541 C369 541 419 588 419 650 C419 712 369 759 300 759 C231 759 181 712 181 650 C181 588 231 541 300 541 L300 541 Z M300 620 C281 620 269 632 269 650 C269 668 281 680 300 680 C319 680 331 668 331 650 C331 632 319 620 300 620 L300 620 Z " />
<glyph glyph-name="ogonek" unicode="&#x2db;" horiz-adv-x="600" d="M335 -224 C357 -224 380 -221 399 -216 L399 -93 C387 -97 377 -98 369 -98 C347 -98 334 -90 334 -72 C334 -53 348 -32 399 0 L343 31 C248 8 200 -47 200 -113 C200 -182 253 -224 335 -224 L335 -224 Z " />
<glyph glyph-name="tilde" unicode="&#x2dc;" horiz-adv-x="600" d="M374 550 C438 550 471 607 471 714 L362 714 C362 680 355 669 343 669 C336 669 326 673 307 686 C273 710 249 716 226 716 C162 716 129 659 129 552 L238 552 C238 586 245 597 257 597 C264 597 274 593 293 580 C327 556 351 550 374 550 L374 550 Z " />
<glyph glyph-name="hungarumlaut" unicode="&#x2dd;" horiz-adv-x="600" d="M115 554 L252 554 L345 712 L186 712 L115 554 Z M323 554 L460 554 L553 712 L394 712 L323 554 Z " />
<glyph glyph-name="gravecomb" unicode="&#x300;" d="M-347 554 L-191 554 L-272 712 L-460 712 L-347 554 Z " />
<glyph glyph-name="acutecomb" unicode="&#x301;" d="M-418 554 L-262 554 L-149 712 L-337 712 L-418 554 Z " />
<glyph glyph-name="uni0302" unicode="&#x302;" d="M-99 554 L-216 712 L-384 712 L-501 554 L-352 554 L-300 619 L-248 554 L-99 554 Z " />
<glyph glyph-name="tildecomb" unicode="&#x303;" d="M-226 550 C-162 550 -129 607 -129 714 L-238 714 C-238 680 -245 669 -257 669 C-264 669 -274 673 -293 686 C-327 710 -351 716 -374 716 C-438 716 -471 659 -471 552 L-362 552 C-362 586 -355 597 -343 597 C-336 597 -326 593 -307 580 C-273 556 -249 550 -226 550 L-226 550 Z " />
<glyph glyph-name="uni0304" unicode="&#x304;" d="M-450 567 L-150 567 L-150 692 L-450 692 L-450 567 Z " />
<glyph glyph-name="uni0306" unicode="&#x306;" d="M-300 552 C-197 552 -137 609 -137 699 L-137 712 L-259 712 C-259 668 -274 650 -300 650 C-326 650 -341 668 -341 712 L-463 712 L-463 699 C-463 609 -403 552 -300 552 L-300 552 Z " />
<glyph glyph-name="uni0307" unicode="&#x307;" d="M-300 549 C-248 549 -208 587 -208 639 C-208 691 -248 729 -300 729 C-352 729 -392 691 -392 639 C-392 587 -352 549 -300 549 L-300 549 Z " />
<glyph glyph-name="uni0308" unicode="&#x308;" d="M-402 555 C-356 555 -319 588 -319 639 C-319 690 -356 723 -402 723 C-447 723 -485 690 -485 639 C-485 588 -447 555 -402 555 L-402 555 Z M-199 555 C-153 555 -115 588 -115 639 C-115 690 -153 723 -199 723 C-244 723 -281 690 -281 639 C-281 588 -244 555 -199 555 L-199 555 Z " />
<glyph glyph-name="uni030A" unicode="&#x30a;" d="M-300 541 C-231 541 -181 588 -181 650 C-181 712 -231 759 -300 759 C-369 759 -419 712 -419 650 C-419 588 -369 541 -300 541 L-300 541 Z M-300 620 C-319 620 -331 632 -331 650 C-331 668 -319 680 -300 680 C-281 680 -269 668 -269 650 C-269 632 -281 620 -300 620 L-300 620 Z " />
<glyph glyph-name="uni030B" unicode="&#x30b;" d="M-485 554 L-348 554 L-255 712 L-414 712 L-485 554 Z M-277 554 L-140 554 L-47 712 L-206 712 L-277 554 Z " />
<glyph glyph-name="uni030C" unicode="&#x30c;" d="M-248 712 L-300 647 L-352 712 L-501 712 L-384 554 L-216 554 L-99 712 L-248 712 Z " />
<glyph glyph-name="uni0315" unicode="&#x315;" d="M-301 712 C-352 712 -392 673 -392 619 C-392 570 -354 535 -302 535 L-301 535 C-315 503 -340 476 -373 447 L-331 400 C-255 458 -209 527 -207 595 C-205 662 -243 712 -301 712 L-301 712 Z " />
<glyph glyph-name="uni0326" unicode="&#x326;" d="M-301 -60 C-358 -60 -396 -101 -396 -149 C-396 -196 -360 -235 -301 -235 L-299 -235 C-306 -256 -316 -276 -327 -293 L-240 -293 C-214 -255 -201 -215 -200 -178 C-198 -108 -239 -60 -301 -60 L-301 -60 Z " />
<glyph glyph-name="uni0327" unicode="&#x327;" d="M-289 -41 L-289 0 L-391 0 L-402 -105 C-345 -105 -334 -113 -334 -126 C-334 -138 -342 -145 -371 -145 C-381 -145 -393 -144 -405 -142 L-405 -231 C-387 -236 -368 -238 -346 -238 C-255 -238 -202 -197 -202 -134 C-202 -84 -233 -51 -289 -41 L-289 -41 Z " />
<glyph glyph-name="uni0328" unicode="&#x328;" d="M-265 -224 C-243 -224 -220 -221 -201 -216 L-201 -93 C-213 -97 -223 -98 -231 -98 C-253 -98 -266 -90 -266 -72 C-266 -53 -252 -32 -201 0 L-257 31 C-352 8 -400 -47 -400 -113 C-400 -182 -347 -224 -265 -224 L-265 -224 Z " />
<glyph glyph-name="uni03BC" unicode="&#x3bc;" horiz-adv-x="587" d="M363 492 L363 232 C363 173 337 146 292 146 C248 146 224 172 224 225 L224 492 L54 492 L54 -224 L224 -224 L224 8 C242 -5 262 -12 286 -12 C329 -12 359 9 372 43 L376 43 L381 0 L533 0 L533 492 L363 492 Z " />
<glyph glyph-name="pi" unicode="&#x3c0;" horiz-adv-x="596" d="M552 150 C517 150 504 162 504 196 L504 492 L54 492 L54 0 L224 0 L224 334 L334 334 L334 163 C334 46 385 0 496 0 L572 0 L572 150 L552 150 Z " />
<glyph glyph-name="uni1E20" unicode="&#x1e20;" horiz-adv-x="769" d="M556 904 L238 904 L238 771 L556 771 L556 904 Z M407 254 L556 254 C535 194 478 155 400 155 C294 155 219 227 219 348 C219 468 290 545 396 545 C468 545 519 509 532 451 L724 451 C714 603 581 712 398 712 C185 712 33 565 33 348 C33 133 184 -12 377 -12 C460 -12 531 15 580 71 L584 71 L591 0 L724 0 L724 402 L407 402 L407 254 Z " />
<glyph glyph-name="uni1E21" unicode="&#x1e21;" horiz-adv-x="501" d="M409 692 L109 692 L109 567 L409 567 L409 692 Z M497 504 L248 504 C125 504 48 432 48 328 C48 281 64 241 94 211 C49 190 22 150 22 100 C22 64 36 33 61 11 C25 -10 6 -42 6 -87 C6 -178 83 -236 244 -236 C417 -236 497 -168 497 -51 C497 52 437 105 322 105 L206 105 C182 105 169 115 169 131 C169 145 179 157 195 159 C212 156 229 154 248 154 C371 154 448 226 448 328 C448 357 442 383 431 405 L497 421 L497 504 Z M248 275 C216 275 193 297 193 330 C193 363 216 385 248 385 C280 385 303 363 303 330 C303 297 280 275 248 275 L248 275 Z M295 -30 C326 -30 342 -43 342 -65 C342 -93 316 -109 251 -109 C187 -109 161 -94 161 -67 C161 -46 177 -30 194 -30 L295 -30 Z " />
<glyph glyph-name="uni1E30" unicode="&#x1e30;" horiz-adv-x="680" d="M538 925 L339 925 L253 757 L418 757 L538 925 Z M420 355 L676 700 L466 700 L250 407 L246 407 L246 700 L66 700 L66 0 L246 0 L246 292 L250 292 L458 0 L678 0 L420 355 Z " />
<glyph glyph-name="uni1E31" unicode="&#x1e31;" horiz-adv-x="570" d="M310 920 L122 920 L41 762 L197 762 L310 920 Z M570 0 L377 259 L562 492 L361 492 L228 318 L224 318 L224 700 L54 700 L54 0 L224 0 L224 191 L228 191 L366 0 L570 0 Z " />
<glyph glyph-name="uni1E3E" unicode="&#x1e3e;" horiz-adv-x="922" d="M640 925 L441 925 L355 757 L520 757 L640 925 Z M666 700 L463 279 L459 279 L256 700 L66 700 L66 0 L242 0 L242 360 L246 360 L412 0 L510 0 L676 360 L680 360 L680 0 L856 0 L856 700 L666 700 Z " />
<glyph glyph-name="uni1E3F" unicode="&#x1e3f;" horiz-adv-x="854" d="M598 712 L410 712 L329 554 L485 554 L598 712 Z M642 504 C580 504 524 478 488 433 L484 433 C457 480 416 504 361 504 C303 504 248 477 219 435 L215 435 L210 492 L54 492 L54 0 L224 0 L224 260 C224 318 249 346 287 346 C323 346 344 323 344 261 L344 0 L514 0 L514 260 C514 320 540 346 577 346 C612 346 634 322 634 261 L634 0 L804 0 L804 304 C804 437 742 504 642 504 L642 504 Z " />
<glyph glyph-name="uni1E40" unicode="&#x1e40;" horiz-adv-x="922" d="M461 752 C515 752 559 791 559 847 C559 903 515 942 461 942 C407 942 363 903 363 847 C363 791 407 752 461 752 L461 752 Z M666 700 L463 279 L459 279 L256 700 L66 700 L66 0 L242 0 L242 360 L246 360 L412 0 L510 0 L676 360 L680 360 L680 0 L856 0 L856 700 L666 700 Z " />
<glyph glyph-name="uni1E41" unicode="&#x1e41;" horiz-adv-x="854" d="M427 549 C479 549 519 587 519 639 C519 691 479 729 427 729 C375 729 335 691 335 639 C335 587 375 549 427 549 L427 549 Z M642 504 C580 504 524 478 488 433 L484 433 C457 480 416 504 361 504 C303 504 248 477 219 435 L215 435 L210 492 L54 492 L54 0 L224 0 L224 260 C224 318 249 346 287 346 C323 346 344 323 344 261 L344 0 L514 0 L514 260 C514 320 540 346 577 346 C612 346 634 322 634 261 L634 0 L804 0 L804 304 C804 437 742 504 642 504 L642 504 Z " />
<glyph glyph-name="uni1E44" unicode="&#x1e44;" horiz-adv-x="742" d="M371 752 C425 752 469 791 469 847 C469 903 425 942 371 942 C317 942 273 903 273 847 C273 791 317 752 371 752 L371 752 Z M496 700 L496 317 L492 317 L247 700 L66 700 L66 0 L246 0 L246 383 L250 383 L495 0 L676 0 L676 700 L496 700 Z " />
<glyph glyph-name="uni1E45" unicode="&#x1e45;" horiz-adv-x="577" d="M289 549 C341 549 381 587 381 639 C381 691 341 729 289 729 C237 729 197 691 197 639 C197 587 237 549 289 549 L289 549 Z M367 504 C306 504 248 477 219 435 L215 435 L210 492 L54 492 L54 0 L224 0 L224 260 C224 319 251 346 294 346 C335 346 357 322 357 261 L357 0 L527 0 L527 304 C527 436 464 504 367 504 L367 504 Z " />
<glyph glyph-name="Wgrave" unicode="&#x1e80;" horiz-adv-x="1000" d="M432 757 L597 757 L511 925 L312 925 L432 757 Z M196 0 L375 0 L498 423 L502 423 L625 0 L804 0 L992 700 L804 700 L705 293 L702 293 L578 700 L422 700 L298 293 L295 293 L196 700 L8 700 L196 0 Z " />
<glyph glyph-name="wgrave" unicode="&#x1e81;" horiz-adv-x="827" d="M347 554 L503 554 L422 712 L234 712 L347 554 Z M151 0 L330 0 L412 277 L415 277 L497 0 L676 0 L819 492 L643 492 L577 227 L573 227 L490 492 L337 492 L254 227 L250 227 L184 492 L8 492 L151 0 Z " />
<glyph glyph-name="Wacute" unicode="&#x1e82;" horiz-adv-x="1000" d="M394 757 L559 757 L679 925 L480 925 L394 757 Z M196 0 L375 0 L498 423 L502 423 L625 0 L804 0 L992 700 L804 700 L705 293 L702 293 L578 700 L422 700 L298 293 L295 293 L196 700 L8 700 L196 0 Z " />
<glyph glyph-name="wacute" unicode="&#x1e83;" horiz-adv-x="827" d="M316 554 L472 554 L585 712 L397 712 L316 554 Z M151 0 L330 0 L412 277 L415 277 L497 0 L676 0 L819 492 L643 492 L577 227 L573 227 L490 492 L337 492 L254 227 L250 227 L184 492 L8 492 L151 0 Z " />
<glyph glyph-name="Wdieresis" unicode="&#x1e84;" horiz-adv-x="1000" d="M390 757 C439 757 479 794 479 847 C479 900 439 937 390 937 C342 937 302 900 302 847 C302 794 342 757 390 757 L390 757 Z M609 757 C658 757 698 794 698 847 C698 900 658 937 609 937 C561 937 521 900 521 847 C521 794 561 757 609 757 L609 757 Z M196 0 L375 0 L498 423 L502 423 L625 0 L804 0 L992 700 L804 700 L705 293 L702 293 L578 700 L422 700 L298 293 L295 293 L196 700 L8 700 L196 0 Z " />
<glyph glyph-name="wdieresis" unicode="&#x1e85;" horiz-adv-x="827" d="M312 555 C358 555 395 588 395 639 C395 690 358 723 312 723 C267 723 229 690 229 639 C229 588 267 555 312 555 L312 555 Z M515 555 C561 555 599 588 599 639 C599 690 561 723 515 723 C470 723 433 690 433 639 C433 588 470 555 515 555 L515 555 Z M151 0 L330 0 L412 277 L415 277 L497 0 L676 0 L819 492 L643 492 L577 227 L573 227 L490 492 L337 492 L254 227 L250 227 L184 492 L8 492 L151 0 Z " />
<glyph glyph-name="uni1E90" unicode="&#x1e90;" horiz-adv-x="569" d="M283 826 L338 757 L496 757 L372 925 L194 925 L70 757 L228 757 L283 826 Z M263 169 L527 557 L527 700 L42 700 L42 531 L298 531 L34 143 L34 0 L535 0 L535 169 L263 169 Z " />
<glyph glyph-name="uni1E91" unicode="&#x1e91;" horiz-adv-x="476" d="M238 619 L290 554 L439 554 L322 712 L154 712 L37 554 L186 554 L238 619 Z M260 150 L436 364 L436 492 L36 492 L36 342 L208 342 L32 128 L32 0 L444 0 L444 150 L260 150 Z " />
<glyph glyph-name="uni1E9E" unicode="&#x1e9e;" horiz-adv-x="691" d="M516 380 L645 577 C593 657 488 712 346 712 C155 712 57 613 57 431 L57 0 L237 0 L237 412 C237 503 278 546 355 546 C379 546 401 542 422 533 L328 389 L328 248 L367 248 C456 248 482 232 482 200 C482 173 463 154 413 154 C390 154 355 158 318 167 L318 0 C357 -9 396 -12 427 -12 C584 -12 668 64 668 192 C668 296 614 358 516 380 L516 380 Z " />
<glyph glyph-name="Ygrave" unicode="&#x1ef2;" horiz-adv-x="634" d="M249 757 L414 757 L328 925 L129 925 L249 757 Z M227 0 L407 0 L407 287 L634 700 L434 700 L319 473 L315 473 L200 700 L0 700 L227 287 L227 0 Z " />
<glyph glyph-name="ygrave" unicode="&#x1ef3;" horiz-adv-x="542" d="M361 554 L280 712 L92 712 L205 554 L361 554 Z M353 492 L274 210 L270 210 L191 492 L5 492 L178 -9 L105 -224 L290 -224 L537 492 L353 492 Z " />
<glyph glyph-name="uni2000" unicode="&#x2000;" horiz-adv-x="500" d="" />
<glyph glyph-name="uni2001" unicode="&#x2001;" horiz-adv-x="1000" d="" />
<glyph glyph-name="uni2002" unicode="&#x2002;" horiz-adv-x="500" d="" />
<glyph glyph-name="uni2003" unicode="&#x2003;" horiz-adv-x="1000" d="" />
<glyph glyph-name="uni2009" unicode="&#x2009;" horiz-adv-x="150" d="" />
<glyph glyph-name="uni200A" unicode="&#x200a;" horiz-adv-x="60" d="" />
<glyph glyph-name="uni200B" unicode="&#x200b;" d="" />
<glyph glyph-name="endash" unicode="&#x2013;" horiz-adv-x="500" d="M0 205 L500 205 L500 355 L0 355 L0 205 Z " />
<glyph glyph-name="emdash" unicode="&#x2014;" horiz-adv-x="1000" d="M0 205 L1000 205 L1000 355 L0 355 L0 205 Z " />
<glyph glyph-name="quoteleft" unicode="&#x2018;" horiz-adv-x="245" d="M127 577 C142 608 166 637 196 665 L154 712 C78 654 32 585 30 517 C28 450 66 400 124 400 C175 400 215 439 215 493 C215 541 178 576 127 577 L127 577 Z " />
<glyph glyph-name="quoteright" unicode="&#x2019;" horiz-adv-x="245" d="M121 712 C70 712 30 673 30 619 C30 571 67 536 118 535 C103 504 79 475 49 447 L91 400 C167 458 213 527 215 595 C217 662 179 712 121 712 L121 712 Z " />
<glyph glyph-name="quotesinglbase" unicode="&#x201a;" horiz-adv-x="253" d="M125 177 C74 177 34 138 34 84 C34 36 71 1 122 0 C107 -31 83 -60 53 -88 L95 -135 C171 -77 217 -8 219 60 C221 127 183 177 125 177 L125 177 Z " />
<glyph glyph-name="quotedblleft" unicode="&#x201c;" horiz-adv-x="472" d="M127 577 C142 608 166 637 196 665 L154 712 C78 654 32 585 30 517 C28 450 66 400 124 400 C175 400 215 439 215 493 C215 541 178 576 127 577 L127 577 Z M354 577 C369 608 393 637 423 665 L381 712 C305 654 259 585 257 517 C255 450 293 400 351 400 C402 400 442 439 442 493 C442 541 405 576 354 577 L354 577 Z " />
<glyph glyph-name="quotedblright" unicode="&#x201d;" horiz-adv-x="472" d="M121 712 C70 712 30 673 30 619 C30 571 67 536 118 535 C103 504 79 475 49 447 L91 400 C167 458 213 527 215 595 C217 662 179 712 121 712 L121 712 Z M348 712 C297 712 257 673 257 619 C257 571 294 536 345 535 C330 504 306 475 276 447 L318 400 C394 458 440 527 442 595 C444 662 406 712 348 712 L348 712 Z " />
<glyph glyph-name="quotedblbase" unicode="&#x201e;" horiz-adv-x="480" d="M125 177 C74 177 34 138 34 84 C34 36 71 1 122 0 C107 -31 83 -60 53 -88 L95 -135 C171 -77 217 -8 219 60 C221 127 183 177 125 177 L125 177 Z M352 177 C301 177 261 138 261 84 C261 36 298 1 349 0 C334 -31 310 -60 280 -88 L322 -135 C398 -77 444 -8 446 60 C448 127 410 177 352 177 L352 177 Z " />
<glyph glyph-name="dagger" unicode="&#x2020;" horiz-adv-x="518" d="M483 528 L339 528 L339 742 L179 742 L179 528 L35 528 L35 372 L179 372 L179 -128 L339 -128 L339 372 L483 372 L483 528 Z " />
<glyph glyph-name="daggerdbl" unicode="&#x2021;" horiz-adv-x="538" d="M493 372 L493 528 L349 528 L349 742 L189 742 L189 528 L45 528 L45 372 L189 372 L189 228 L65 228 L65 72 L189 72 L189 -128 L349 -128 L349 72 L473 72 L473 228 L349 228 L349 372 L493 372 Z " />
<glyph glyph-name="bullet" unicode="&#x2022;" horiz-adv-x="510" d="M255 168 C355 168 430 245 430 343 C430 441 355 518 255 518 C155 518 80 441 80 343 C80 245 155 168 255 168 L255 168 Z " />
<glyph glyph-name="ellipsis" unicode="&#x2026;" horiz-adv-x="850" d="M145 -10 C210 -10 256 36 256 101 C256 167 210 213 145 213 C80 213 34 167 34 101 C34 36 80 -10 145 -10 L145 -10 Z M425 -10 C490 -10 536 36 536 101 C536 167 490 213 425 213 C360 213 314 167 314 101 C314 36 360 -10 425 -10 L425 -10 Z M705 -10 C770 -10 816 36 816 101 C816 167 770 213 705 213 C640 213 594 167 594 101 C594 36 640 -10 705 -10 L705 -10 Z " />
<glyph glyph-name="perthousand" unicode="&#x2030;" horiz-adv-x="1354" d="M217 336 C328 336 410 415 410 524 C410 633 328 712 217 712 C106 712 24 633 24 524 C24 415 106 336 217 336 L217 336 Z M171 0 L327 0 L761 700 L605 700 L171 0 Z M217 455 C179 455 153 483 153 524 C153 565 179 593 217 593 C255 593 281 565 281 524 C281 483 255 455 217 455 L217 455 Z M715 -12 C826 -12 908 67 908 176 C908 285 826 364 715 364 C604 364 522 285 522 176 C522 67 604 -12 715 -12 L715 -12 Z M1137 -12 C1248 -12 1330 67 1330 176 C1330 285 1248 364 1137 364 C1026 364 944 285 944 176 C944 67 1026 -12 1137 -12 L1137 -12 Z M715 107 C677 107 651 135 651 176 C651 217 677 245 715 245 C753 245 779 217 779 176 C779 135 753 107 715 107 L715 107 Z M1137 107 C1099 107 1073 135 1073 176 C1073 217 1099 245 1137 245 C1175 245 1201 217 1201 176 C1201 135 1175 107 1137 107 L1137 107 Z " />
<glyph glyph-name="guilsinglleft" unicode="&#x2039;" horiz-adv-x="395" d="M365 506 L182 506 L25 282 L182 58 L365 58 L209 282 L365 506 Z " />
<glyph glyph-name="guilsinglright" unicode="&#x203a;" horiz-adv-x="395" d="M213 506 L30 506 L186 282 L30 58 L213 58 L370 282 L213 506 Z " />
<glyph glyph-name="fraction" unicode="&#x2044;" horiz-adv-x="590" d="M0 0 L156 0 L590 700 L434 700 L0 0 Z " />
<glyph glyph-name="uni2070" unicode="&#x2070;" horiz-adv-x="400" d="M200 264 C310 264 374 327 374 428 L374 548 C374 649 310 712 200 712 C90 712 26 649 26 548 L26 428 C26 327 90 264 200 264 L200 264 Z M200 382 C174 382 158 397 158 423 L158 553 C158 579 174 594 200 594 C226 594 242 579 242 553 L242 423 C242 397 226 382 200 382 L200 382 Z " />
<glyph glyph-name="uni2074" unicode="&#x2074;" horiz-adv-x="406" d="M386 443 L345 443 L345 700 L190 700 L26 435 L26 334 L225 334 L225 266 L345 266 L345 334 L386 334 L386 443 Z M154 443 L225 559 L225 443 L154 443 Z " />
<glyph glyph-name="uni2075" unicode="&#x2075;" horiz-adv-x="375" d="M219 556 C197 556 178 552 161 544 L167 584 L325 584 L325 700 L61 700 L30 438 L156 438 C162 450 175 458 191 458 C214 458 228 442 228 418 C228 393 214 377 191 377 C170 377 155 390 154 406 L24 406 C26 312 95 259 189 259 C288 259 355 318 355 412 C355 500 297 556 219 556 L219 556 Z " />
<glyph glyph-name="uni2076" unicode="&#x2076;" horiz-adv-x="386" d="M236 581 L317 700 L164 700 L74 566 C32 504 20 466 20 428 C20 330 99 259 194 259 C289 259 368 330 368 428 C368 511 311 571 236 581 L236 581 Z M194 377 C167 377 148 397 148 426 C148 455 167 475 194 475 C221 475 240 455 240 426 C240 397 221 377 194 377 L194 377 Z " />
<glyph glyph-name="uni2077" unicode="&#x2077;" horiz-adv-x="341" d="M20 700 L20 575 L174 575 L39 266 L193 266 L321 582 L321 700 L20 700 Z " />
<glyph glyph-name="uni2078" unicode="&#x2078;" horiz-adv-x="382" d="M300 497 C335 520 353 552 353 589 C353 659 291 712 191 712 C92 712 30 659 30 589 C30 552 48 520 83 497 C45 474 24 438 24 393 C24 317 84 264 191 264 C298 264 358 317 358 393 C358 438 338 474 300 497 L300 497 Z M191 606 C211 606 224 593 224 574 C224 555 210 542 191 542 C172 542 157 555 157 574 C157 593 171 606 191 606 L191 606 Z M191 370 C170 370 153 384 153 405 C153 426 170 440 191 440 C212 440 229 426 229 405 C229 384 212 370 191 370 L191 370 Z " />
<glyph glyph-name="uni2079" unicode="&#x2079;" horiz-adv-x="386" d="M194 712 C99 712 20 641 20 543 C20 460 77 400 152 390 L71 271 L224 271 L314 405 C356 467 368 505 368 543 C368 641 289 712 194 712 L194 712 Z M194 496 C167 496 148 516 148 545 C148 574 167 594 194 594 C221 594 240 574 240 545 C240 516 221 496 194 496 L194 496 Z " />
<glyph glyph-name="Euro" unicode="&#x20ac;" horiz-adv-x="616" d="M361 138 C321 138 287 166 270 235 L409 235 L409 323 L259 323 C259 332 259 341 259 350 L259 377 L409 377 L409 465 L270 465 C287 534 321 562 361 562 C402 562 430 533 433 478 L599 478 C592 623 495 712 363 712 C230 712 130 624 98 465 L26 465 L26 377 L88 377 C87 368 87 359 87 350 C87 341 87 332 88 323 L26 323 L26 235 L98 235 C130 76 230 -12 363 -12 C495 -12 592 77 599 222 L435 222 C432 167 404 138 361 138 L361 138 Z " />
<glyph glyph-name="uni2116" unicode="&#x2116;" horiz-adv-x="1229" d="M975 712 C843 712 751 622 751 492 C751 361 843 271 975 271 C1107 271 1199 361 1199 492 C1199 623 1106 712 975 712 L975 712 Z M496 317 L492 317 L247 700 L66 700 L66 0 L246 0 L246 383 L250 383 L495 0 L676 0 L676 700 L496 700 L496 317 Z M975 415 C938 415 911 444 911 492 C911 539 938 568 975 568 C1012 568 1039 538 1039 492 C1039 445 1012 415 975 415 L975 415 Z M815 73 L1135 73 L1135 223 L815 223 L815 73 Z " />
<glyph glyph-name="trademark" unicode="&#x2122;" horiz-adv-x="773" d="M25 585 L98 585 L98 394 L220 394 L220 585 L293 585 L293 700 L25 700 L25 585 Z M596 700 L534 580 L472 700 L332 700 L332 394 L443 394 L443 546 L492 450 L577 450 L627 548 L627 394 L738 394 L738 700 L596 700 Z " />
<glyph glyph-name="uni2126" unicode="&#x2126;" horiz-adv-x="778" d="M730 384 C730 573 582 712 389 712 C196 712 48 573 48 384 C48 284 88 193 164 150 L48 150 L48 0 L351 0 L351 171 C271 220 222 292 222 378 C222 478 291 552 389 552 C487 552 556 478 556 378 C556 292 507 220 427 171 L427 0 L730 0 L730 150 L614 150 C690 193 730 284 730 384 L730 384 Z " />
<glyph glyph-name="estimated" unicode="&#x212e;" horiz-adv-x="800" d="M400 0 C519 0 625 55 688 149 L667 165 C610 77 512 26 400 26 C327 26 263 47 208 88 C174 113 163 141 163 187 L163 338 L747 338 L747 350 C747 452 708 545 645 605 C583 664 495 700 400 700 C305 700 217 664 154 605 C92 545 53 452 53 350 C53 247 92 157 154 97 C217 36 305 0 400 0 L400 0 Z M163 362 L163 512 C163 558 174 587 208 612 C263 653 327 674 400 674 C477 674 542 652 599 609 C631 584 642 553 642 508 L642 362 L163 362 Z " />
<glyph glyph-name="arrowleft" unicode="&#x2190;" horiz-adv-x="710" d="M676 430 L311 430 L408 529 L303 635 L34 350 L303 65 L408 171 L311 270 L676 270 L676 430 Z " />
<glyph glyph-name="arrowup" unicode="&#x2191;" horiz-adv-x="710" d="M640 404 L355 673 L70 404 L176 299 L275 396 L275 31 L435 31 L435 396 L534 299 L640 404 Z " />
<glyph glyph-name="arrowright" unicode="&#x2192;" horiz-adv-x="710" d="M407 635 L302 529 L399 430 L34 430 L34 270 L399 270 L302 171 L407 65 L676 350 L407 635 Z " />
<glyph glyph-name="arrowdown" unicode="&#x2193;" horiz-adv-x="710" d="M534 401 L435 304 L435 669 L275 669 L275 304 L176 401 L70 296 L355 27 L640 296 L534 401 Z " />
<glyph glyph-name="uni2196" unicode="&#x2196;" horiz-adv-x="710" d="M616 203 L358 461 L496 462 L497 611 L105 600 L94 208 L243 209 L244 348 L503 89 L616 203 Z " />
<glyph glyph-name="uni2197" unicode="&#x2197;" horiz-adv-x="710" d="M616 208 L605 600 L213 611 L214 462 L353 461 L94 202 L208 89 L466 347 L467 209 L616 208 Z " />
<glyph glyph-name="uni2198" unicode="&#x2198;" horiz-adv-x="710" d="M467 491 L466 352 L207 611 L94 497 L352 239 L214 238 L213 89 L605 100 L616 492 L467 491 Z " />
<glyph glyph-name="uni2199" unicode="&#x2199;" horiz-adv-x="710" d="M357 239 L616 498 L502 611 L244 353 L243 491 L94 492 L105 100 L497 89 L496 238 L357 239 Z " />
<glyph glyph-name="partialdiff" unicode="&#x2202;" horiz-adv-x="622" d="M281 712 C219 712 162 701 111 682 L111 526 C181 548 222 555 264 555 C361 555 398 518 408 415 L404 415 C367 446 320 458 271 458 C131 458 30 361 30 225 C30 88 132 -12 300 -12 C383 -12 446 12 493 55 C555 112 587 201 587 335 C587 588 490 712 281 712 L281 712 Z M302 137 C245 137 208 173 208 228 C208 280 245 316 302 316 C359 316 396 280 396 228 C396 173 359 137 302 137 L302 137 Z " />
<glyph glyph-name="uni2206" unicode="&#x2206;" horiz-adv-x="713" d="M420 700 L293 700 L15 79 L65 0 L648 0 L698 79 L420 700 Z M474 162 L239 162 L357 436 L474 162 Z " />
<glyph glyph-name="product" unicode="&#x220f;" horiz-adv-x="652" d="M66 742 L66 -128 L240 -128 L240 582 L412 582 L412 -128 L586 -128 L586 742 L66 742 Z " />
<glyph glyph-name="summation" unicode="&#x2211;" horiz-adv-x="535" d="M515 742 L35 742 L35 582 L235 307 L35 32 L35 -128 L515 -128 L515 32 L241 32 L441 307 L241 582 L515 582 L515 742 Z " />
<glyph glyph-name="minus" unicode="&#x2212;" horiz-adv-x="650" d="M94 238 L556 238 L556 396 L94 396 L94 238 Z " />
<glyph glyph-name="radical" unicode="&#x221a;" horiz-adv-x="667" d="M477 742 L310 151 L237 365 L20 365 L20 205 L115 205 L232 -128 L407 -128 L657 742 L477 742 Z " />
<glyph glyph-name="infinity" unicode="&#x221e;" horiz-adv-x="751" d="M533 526 C458 526 410 493 376 451 C341 493 293 526 218 526 C97 526 25 440 25 330 C25 220 97 134 218 134 C293 134 341 167 376 209 C410 167 458 134 533 134 C654 134 726 220 726 330 C726 440 654 526 533 526 L533 526 Z M221 258 C185 258 157 287 157 330 C157 373 185 402 221 402 C258 402 281 371 304 330 C281 289 258 258 221 258 L221 258 Z M530 258 C493 258 470 289 447 330 C470 371 493 402 530 402 C566 402 594 373 594 330 C594 287 566 258 530 258 L530 258 Z " />
<glyph glyph-name="integral" unicode="&#x222b;" horiz-adv-x="414" d="M20 -128 L130 -128 C240 -128 294 -73 294 27 L294 535 C294 577 310 592 352 592 L394 592 L394 742 L284 742 C174 742 120 687 120 587 L120 79 C120 37 104 22 62 22 L20 22 L20 -128 Z " />
<glyph glyph-name="approxequal" unicode="&#x2248;" horiz-adv-x="650" d="M430 325 C481 325 518 342 556 369 L556 526 C527 502 481 481 429 481 C362 481 292 531 222 531 C172 531 132 515 94 487 L94 330 C138 360 172 375 220 375 C293 375 357 325 430 325 L430 325 Z M430 104 C481 104 518 121 556 148 L556 305 C528 282 483 260 429 260 C362 260 292 310 222 310 C173 310 132 294 94 266 L94 109 C138 139 172 154 220 154 C293 154 357 104 430 104 L430 104 Z " />
<glyph glyph-name="notequal" unicode="&#x2260;" horiz-adv-x="650" d="M556 349 L556 506 L460 506 L495 597 L372 597 L337 506 L94 506 L94 349 L276 349 L251 285 L94 285 L94 128 L190 128 L155 37 L278 37 L313 128 L556 128 L556 285 L374 285 L399 349 L556 349 Z " />
<glyph glyph-name="lessequal" unicode="&#x2264;" horiz-adv-x="650" d="M556 635 L95 488 L95 338 L556 190 L556 352 L326 413 L556 474 L556 635 Z M95 0 L556 0 L556 157 L95 157 L95 0 Z " />
<glyph glyph-name="greaterequal" unicode="&#x2265;" horiz-adv-x="650" d="M94 635 L94 474 L325 413 L94 352 L94 190 L556 338 L556 488 L94 635 Z M94 0 L556 0 L556 157 L94 157 L94 0 Z " />
<glyph glyph-name="filledbox" unicode="&#x25a0;" horiz-adv-x="900" d="M100 0 L800 0 L800 700 L100 700 L100 0 Z " />
<glyph glyph-name="triagup" unicode="&#x25b2;" horiz-adv-x="900" d="M100 0 L800 0 L450 700 L100 0 Z " />
<glyph glyph-name="triagdn" unicode="&#x25bc;" horiz-adv-x="900" d="M450 0 L800 700 L100 700 L450 0 Z " />
<glyph glyph-name="uni25C6" unicode="&#x25c6;" horiz-adv-x="900" d="M449 0 L800 349 L449 700 L100 349 L449 0 Z " />
<glyph glyph-name="lozenge" unicode="&#x25ca;" horiz-adv-x="664" d="M12 350 L263 0 L401 0 L652 350 L401 700 L263 700 L12 350 Z M208 349 L332 523 L456 351 L332 177 L208 349 Z " />
<glyph glyph-name="uni25CF" unicode="&#x25cf;" horiz-adv-x="900" d="M450 0 C643 0 800 157 800 350 C800 543 643 700 450 700 C257 700 100 543 100 350 C100 157 257 0 450 0 L450 0 Z " />
<glyph glyph-name="uni2610" unicode="&#x2610;" horiz-adv-x="900" d="M100 0 L800 0 L800 700 L100 700 L100 0 Z M185 80 L185 620 L715 620 L715 80 L185 80 Z " />
<glyph glyph-name="uni2611" unicode="&#x2611;" horiz-adv-x="900" d="M100 700 L100 0 L800 0 L800 700 L100 700 Z M715 80 L185 80 L185 620 L715 620 L715 80 Z M672 511 L543 586 L391 323 L307 372 L229 237 L442 113 L672 511 Z " />
<glyph glyph-name="uni2612" unicode="&#x2612;" horiz-adv-x="900" d="M100 700 L100 0 L800 0 L800 700 L100 700 Z M715 80 L185 80 L185 620 L715 620 L715 80 Z M320 118 L450 248 L580 118 L682 220 L552 350 L682 480 L580 582 L450 452 L320 582 L218 480 L348 350 L218 220 L320 118 Z " />
<glyph glyph-name="heart" unicode="&#x2665;" horiz-adv-x="900" d="M450 48 C593 188 776 221 776 409 C776 541 684 606 599 606 C526 606 459 560 452 470 L448 470 C441 560 374 606 301 606 C216 606 124 541 124 409 C124 221 307 188 450 48 L450 48 Z " />
<glyph glyph-name="uni2B51" unicode="&#x2b51;" horiz-adv-x="900" d="M218 -3 L449 165 L679 -3 L591 267 L822 434 L536 434 L449 705 L362 435 L78 435 L307 269 L218 -3 Z " />
</font>
</svg>
