<?xml version="1.0" encoding="UTF-8"?>
<svg xmlns="http://www.w3.org/2000/svg" xmlns:xlink="http://www.w3.org/1999/xlink" version="1.2" >
<font id="BR Hendrix Medium">
<font-face  font-family="BR Hendrix" units-per-em="1000" ascent="760" descent="-240" font-style="normal" font-weight="500" font-stretch="normal" cap-height="700" x-height="473" underline-position="-145" underline-thickness="50" />
<missing-glyph  horiz-adv-x="759" d="M92 0 L668 0 L668 700 L92 700 L92 0 Z M331 265 L331 296 C331 341 340 359 383 394 L415 420 C436 437 445 452 445 471 C445 502 422 518 386 518 C342 518 318 494 315 448 L239 448 C240 537 301 590 387 590 C468 590 523 543 523 474 C523 439 509 408 464 371 L435 347 C412 328 407 320 407 293 L407 265 L331 265 Z M369 105 C339 105 318 126 318 157 C318 188 339 209 369 209 C399 209 420 188 420 157 C420 126 399 105 369 105 L369 105 Z " />
<glyph glyph-name="CR" unicode="&#xd;" horiz-adv-x="237" d="" />
<glyph glyph-name="space" unicode="&#x20;" horiz-adv-x="237" d="" />
<glyph glyph-name="exclam" unicode="&#x21;" horiz-adv-x="283" d="M101 222 L182 222 L194 700 L89 700 L101 222 Z M142 -7 C182 -7 212 22 212 63 C212 103 182 133 142 133 C101 133 72 103 72 63 C72 22 101 -7 142 -7 L142 -7 Z " />
<glyph glyph-name="quotedbl" unicode="&#x22;" horiz-adv-x="375" d="M65 439 L135 439 L152 712 L48 712 L65 439 Z M239 439 L310 439 L327 712 L222 712 L239 439 Z " />
<glyph glyph-name="numbersign" unicode="&#x23;" horiz-adv-x="708" d="M659 423 L659 501 L555 501 L591 685 L502 685 L466 501 L303 501 L339 685 L250 685 L214 501 L91 501 L91 423 L198 423 L170 277 L49 277 L49 199 L154 199 L118 15 L207 15 L243 199 L406 199 L370 15 L459 15 L495 199 L617 199 L617 277 L511 277 L539 423 L659 423 Z M422 277 L259 277 L287 423 L450 423 L422 277 Z " />
<glyph glyph-name="dollar" unicode="&#x24;" horiz-adv-x="544" d="M503 221 C503 306 452 362 332 388 L303 394 L303 587 C359 578 391 545 394 489 L496 489 C490 600 413 665 303 675 L303 742 L246 742 L246 675 C128 665 50 589 50 489 C50 406 103 347 221 321 L242 317 L242 115 C181 125 143 165 138 231 L37 231 C41 112 124 37 242 26 L242 -42 L298 -42 L298 25 C420 33 503 112 503 221 L503 221 Z M149 492 C149 544 184 580 246 587 L246 407 C171 427 149 450 149 492 L149 492 Z M298 113 L298 304 C378 285 404 258 404 214 C404 161 365 120 298 113 L298 113 Z " />
<glyph glyph-name="percent" unicode="&#x25;" horiz-adv-x="880" d="M217 353 C319 353 396 432 396 533 C396 633 319 712 217 712 C115 712 38 633 38 533 C38 432 115 353 217 353 L217 353 Z M165 0 L264 0 L715 700 L616 700 L165 0 Z M217 429 C159 429 121 473 121 533 C121 592 159 636 217 636 C275 636 313 592 313 533 C313 473 275 429 217 429 L217 429 Z M663 -12 C765 -12 842 67 842 167 C842 268 765 347 663 347 C561 347 484 268 484 167 C484 67 561 -12 663 -12 L663 -12 Z M663 64 C604 64 566 107 566 167 C566 228 604 271 663 271 C721 271 759 228 759 167 C759 107 721 64 663 64 L663 64 Z " />
<glyph glyph-name="ampersand" unicode="&#x26;" horiz-adv-x="657" d="M640 0 L524 133 C555 186 578 254 587 338 L495 338 C490 285 478 241 461 205 L325 359 L356 377 C440 426 477 489 477 554 C477 647 399 712 292 712 C181 712 104 640 104 550 C104 498 130 450 191 380 L186 377 C84 318 42 253 42 179 C42 69 136 -12 270 -12 C345 -12 414 14 469 69 L529 0 L640 0 Z M292 629 C344 629 385 597 385 545 C385 506 363 474 312 445 L271 421 L254 440 C215 484 199 520 199 550 C199 595 237 629 292 629 L292 629 Z M143 184 C143 230 167 272 240 314 L246 317 L409 131 C370 94 322 76 270 76 C193 76 143 117 143 184 L143 184 Z " />
<glyph glyph-name="quotesingle" unicode="&#x27;" horiz-adv-x="200" d="M65 439 L135 439 L152 712 L48 712 L65 439 Z " />
<glyph glyph-name="parenleft" unicode="&#x28;" horiz-adv-x="333" d="M226 -124 L301 -72 C227 19 169 171 169 315 C169 459 227 611 301 702 L226 754 C123 635 66 474 66 315 C66 156 123 -5 226 -124 L226 -124 Z " />
<glyph glyph-name="parenright" unicode="&#x29;" horiz-adv-x="333" d="M107 -124 C210 -5 267 156 267 315 C267 474 210 635 107 754 L32 702 C106 611 164 459 164 315 C164 171 106 19 32 -72 L107 -124 Z " />
<glyph glyph-name="asterisk" unicode="&#x2a;" horiz-adv-x="471" d="M196 712 L202 559 L57 611 L33 537 L179 494 L85 373 L149 327 L235 454 L321 327 L385 373 L292 494 L438 537 L414 611 L269 559 L274 712 L196 712 Z " />
<glyph glyph-name="plus" unicode="&#x2b;" horiz-adv-x="650" d="M547 362 L372 362 L372 548 L278 548 L278 362 L103 362 L103 272 L278 272 L278 86 L372 86 L372 272 L547 272 L547 362 Z " />
<glyph glyph-name="comma" unicode="&#x2c;" horiz-adv-x="268" d="M129 132 C88 132 58 103 58 64 C58 26 86 -3 126 -3 C130 -3 134 -3 138 -2 C135 -42 112 -89 67 -134 L103 -173 C174 -115 209 -39 210 31 C210 95 176 132 129 132 L129 132 Z " />
<glyph glyph-name="hyphen" unicode="&#x2d;" horiz-adv-x="410" d="M49 233 L361 233 L361 322 L49 322 L49 233 Z " />
<glyph glyph-name="period" unicode="&#x2e;" horiz-adv-x="256" d="M128 -7 C168 -7 198 22 198 63 C198 103 168 133 128 133 C88 133 58 103 58 63 C58 22 88 -7 128 -7 L128 -7 Z " />
<glyph glyph-name="slash" unicode="&#x2f;" horiz-adv-x="497" d="M14 -92 L114 -92 L484 742 L384 742 L14 -92 Z " />
<glyph glyph-name="zero" unicode="0" horiz-adv-x="643" d="M322 -12 C482 -12 571 87 571 250 L571 450 C571 613 482 712 322 712 C161 712 72 613 72 450 L72 250 C72 87 161 -12 322 -12 L322 -12 Z M322 80 C230 80 175 135 175 250 L175 450 C175 565 230 620 322 620 C414 620 468 565 468 450 L468 250 C468 135 414 80 322 80 L322 80 Z " />
<glyph glyph-name="one" unicode="1" horiz-adv-x="418" d="M236 700 C221 637 192 618 106 618 L75 618 L75 533 L214 533 L214 0 L317 0 L317 700 L236 700 Z " />
<glyph glyph-name="two" unicode="2" horiz-adv-x="573" d="M165 92 C176 150 215 192 328 261 C472 350 517 416 517 506 C517 634 427 712 298 712 C159 712 61 622 58 467 L162 467 C166 571 217 621 296 621 C371 621 414 578 414 509 C414 451 385 403 259 325 C101 227 58 158 58 49 L58 0 L519 0 L519 92 L165 92 Z " />
<glyph glyph-name="three" unicode="3" horiz-adv-x="592" d="M292 -12 C438 -12 534 77 534 195 C534 272 493 330 420 359 L420 362 C484 396 515 450 515 517 C515 633 427 712 296 712 C163 712 69 630 65 495 L168 495 C173 581 219 620 294 620 C370 620 412 579 412 512 C412 447 374 403 289 403 L226 403 L226 316 L289 316 C380 316 431 274 431 202 C431 130 379 80 296 80 C218 80 165 124 162 205 L59 205 C61 67 154 -12 292 -12 L292 -12 Z " />
<glyph glyph-name="four" unicode="4" horiz-adv-x="594" d="M568 220 L474 220 L474 700 L352 700 L39 215 L39 133 L377 133 L377 0 L474 0 L474 133 L568 133 L568 220 Z M144 220 L377 582 L377 220 L144 220 Z " />
<glyph glyph-name="five" unicode="5" horiz-adv-x="590" d="M323 457 C273 457 226 443 188 415 L210 608 L498 608 L498 700 L122 700 L79 306 L171 306 C202 349 252 371 306 371 C389 371 442 319 442 230 C442 139 386 80 300 80 C228 80 176 123 167 201 L64 201 C70 67 166 -12 297 -12 C444 -12 545 86 545 227 C545 365 448 457 323 457 L323 457 Z " />
<glyph glyph-name="six" unicode="6" horiz-adv-x="589" d="M311 469 C292 469 274 467 256 463 L418 700 L300 700 L132 449 C70 357 46 293 46 228 C46 91 155 -12 294 -12 C438 -12 547 97 547 233 C547 368 441 469 311 469 L311 469 Z M296 80 C212 80 149 143 149 231 C149 320 212 382 296 382 C380 382 444 320 444 231 C444 143 380 80 296 80 L296 80 Z " />
<glyph glyph-name="seven" unicode="7" horiz-adv-x="523" d="M40 700 L40 608 L375 608 L100 0 L213 0 L487 615 L487 700 L40 700 Z " />
<glyph glyph-name="eight" unicode="8" horiz-adv-x="601" d="M300 -12 C447 -12 543 70 543 187 C543 266 498 331 427 362 L427 364 C497 396 529 454 529 520 C529 631 437 712 300 712 C164 712 72 631 72 520 C72 454 104 396 174 364 L174 362 C102 331 58 266 58 187 C58 70 154 -12 300 -12 L300 -12 Z M300 404 C220 404 172 447 172 514 C172 579 218 624 300 624 C383 624 428 579 428 514 C428 447 381 404 300 404 L300 404 Z M300 76 C216 76 160 122 160 195 C160 267 217 318 300 318 C384 318 441 267 441 195 C441 122 385 76 300 76 L300 76 Z " />
<glyph glyph-name="nine" unicode="9" horiz-adv-x="589" d="M295 712 C152 712 43 603 43 467 C43 332 149 231 279 231 C298 231 316 233 333 237 L171 0 L289 0 L457 251 C520 343 544 407 544 472 C544 609 434 712 295 712 L295 712 Z M293 318 C209 318 146 380 146 469 C146 557 209 620 293 620 C377 620 441 557 441 469 C441 380 377 318 293 318 L293 318 Z " />
<glyph glyph-name="colon" unicode="&#x3a;" horiz-adv-x="266" d="M138 335 C178 335 208 365 208 405 C208 445 178 475 138 475 C98 475 68 445 68 405 C68 365 98 335 138 335 L138 335 Z M138 -8 C178 -8 208 22 208 62 C208 103 178 132 138 132 C98 132 68 103 68 62 C68 22 98 -8 138 -8 L138 -8 Z " />
<glyph glyph-name="semicolon" unicode="&#x3b;" horiz-adv-x="278" d="M138 335 C178 335 208 365 208 405 C208 445 178 475 138 475 C98 475 68 445 68 405 C68 365 98 335 138 335 L138 335 Z M139 132 C98 132 68 102 68 64 C68 26 96 -3 136 -3 C140 -3 144 -3 148 -2 C145 -43 123 -90 77 -135 L113 -173 C184 -115 220 -39 220 30 C220 95 186 132 139 132 L139 132 Z " />
<glyph glyph-name="less" unicode="&#x3c;" horiz-adv-x="650" d="M547 537 L103 364 L103 270 L547 97 L547 195 L225 317 L547 439 L547 537 Z " />
<glyph glyph-name="equal" unicode="&#x3d;" horiz-adv-x="650" d="M103 374 L547 374 L547 464 L103 464 L103 374 Z M103 170 L547 170 L547 260 L103 260 L103 170 Z " />
<glyph glyph-name="greater" unicode="&#x3e;" horiz-adv-x="650" d="M103 537 L103 439 L425 317 L103 195 L103 97 L547 270 L547 364 L103 537 Z " />
<glyph glyph-name="question" unicode="&#x3f;" horiz-adv-x="483" d="M173 222 L273 222 L273 265 C273 308 277 321 312 350 L360 390 C426 445 449 492 449 545 C449 644 369 712 255 712 C136 712 47 636 43 506 L144 506 C145 581 190 622 257 622 C315 622 349 590 349 541 C349 512 338 490 300 458 L252 417 C187 363 173 333 173 267 L173 222 Z M223 -7 C263 -7 293 22 293 63 C293 103 263 133 223 133 C182 133 153 103 153 63 C153 22 182 -7 223 -7 L223 -7 Z " />
<glyph glyph-name="at" unicode="&#x40;" horiz-adv-x="950" d="M495 -197 C566 -197 634 -183 691 -158 L691 -72 C639 -98 569 -114 497 -114 C287 -114 142 24 142 229 C142 432 286 577 490 577 C674 577 818 459 818 260 C818 153 779 95 723 95 C685 95 665 122 665 175 L665 421 L590 421 L584 364 L581 364 C558 411 512 435 457 435 C354 435 277 351 277 228 C277 105 354 21 457 21 C519 21 573 51 597 110 L600 110 C617 51 666 20 723 20 C825 20 904 119 904 269 C904 501 715 660 488 660 C247 660 51 480 51 227 C51 -23 237 -197 495 -197 L495 -197 Z M476 102 C414 102 367 148 367 228 C367 308 414 354 476 354 C538 354 584 308 584 228 C584 148 538 102 476 102 L476 102 Z " />
<glyph glyph-name="A" unicode="A" horiz-adv-x="653" d="M531 0 L639 0 L384 700 L269 700 L14 0 L121 0 L180 167 L472 167 L531 0 Z M212 257 L325 577 L328 577 L441 257 L212 257 Z " />
<glyph glyph-name="B" unicode="B" horiz-adv-x="644" d="M473 357 L473 360 C534 389 565 441 565 509 C565 623 478 700 332 700 L92 700 L92 0 L362 0 C511 0 591 72 591 193 C591 282 550 334 473 357 L473 357 Z M333 610 C418 610 462 571 462 501 C462 431 418 395 333 395 L196 395 L196 610 L333 610 Z M355 90 L196 90 L196 307 L355 307 C444 307 484 271 484 198 C484 126 444 90 355 90 L355 90 Z " />
<glyph glyph-name="C" unicode="C" horiz-adv-x="760" d="M394 -12 C565 -12 699 96 715 259 L610 259 C590 148 508 84 398 84 C261 84 158 186 158 350 C158 514 261 616 398 616 C505 616 584 555 605 441 L713 441 C697 603 564 712 395 712 C199 712 50 564 50 350 C50 136 198 -12 394 -12 L394 -12 Z " />
<glyph glyph-name="D" unicode="D" horiz-adv-x="693" d="M269 700 L92 700 L92 0 L269 0 C492 0 641 134 641 350 C641 566 492 700 269 700 L269 700 Z M274 96 L196 96 L196 604 L274 604 C431 604 534 514 534 350 C534 186 431 96 274 96 L274 96 Z " />
<glyph glyph-name="E" unicode="E" horiz-adv-x="584" d="M521 604 L521 700 L92 700 L92 0 L521 0 L521 96 L196 96 L196 304 L492 304 L492 399 L196 399 L196 604 L521 604 Z " />
<glyph glyph-name="F" unicode="F" horiz-adv-x="574" d="M521 604 L521 700 L92 700 L92 0 L196 0 L196 285 L501 285 L501 380 L196 380 L196 604 L521 604 Z " />
<glyph glyph-name="G" unicode="G" horiz-adv-x="779" d="M410 276 L617 276 C601 155 514 83 398 83 C260 83 158 185 158 350 C158 514 259 617 402 617 C508 617 585 560 603 467 L713 467 C689 618 564 712 401 712 C198 712 50 564 50 349 C50 134 197 -12 387 -12 C486 -12 571 28 618 99 L621 99 L631 0 L713 0 L713 368 L410 368 L410 276 Z " />
<glyph glyph-name="H" unicode="H" horiz-adv-x="710" d="M513 700 L513 389 L196 389 L196 700 L92 700 L92 0 L196 0 L196 292 L513 292 L513 0 L618 0 L618 700 L513 700 Z " />
<glyph glyph-name="I" unicode="I" horiz-adv-x="288" d="M92 0 L196 0 L196 700 L92 700 L92 0 Z " />
<glyph glyph-name="J" unicode="J" horiz-adv-x="604" d="M127 700 L127 604 L417 604 L417 246 C417 134 369 84 282 84 C194 84 146 132 146 246 L146 320 L41 320 L41 240 C41 71 130 -12 282 -12 C434 -12 522 71 522 240 L522 700 L127 700 Z " />
<glyph glyph-name="K" unicode="K" horiz-adv-x="636" d="M302 353 L619 700 L491 700 L200 380 L196 380 L196 700 L92 700 L92 0 L196 0 L196 315 L200 315 L490 0 L626 0 L302 353 Z " />
<glyph glyph-name="L" unicode="L" horiz-adv-x="538" d="M196 96 L196 700 L92 700 L92 0 L507 0 L507 96 L196 96 Z " />
<glyph glyph-name="M" unicode="M" horiz-adv-x="918" d="M713 700 L460 146 L457 146 L205 700 L92 700 L92 0 L194 0 L194 487 L197 487 L421 0 L496 0 L720 487 L724 487 L724 0 L826 0 L826 700 L713 700 Z " />
<glyph glyph-name="N" unicode="N" horiz-adv-x="746" d="M550 700 L550 174 L547 174 L201 700 L92 700 L92 0 L196 0 L196 526 L200 526 L545 0 L655 0 L655 700 L550 700 Z " />
<glyph glyph-name="O" unicode="O" horiz-adv-x="794" d="M397 -12 C596 -12 744 138 744 350 C744 562 596 712 397 712 C197 712 50 562 50 350 C50 138 197 -12 397 -12 L397 -12 Z M397 84 C258 84 158 188 158 350 C158 512 258 616 397 616 C536 616 636 512 636 350 C636 188 536 84 397 84 L397 84 Z " />
<glyph glyph-name="P" unicode="P" horiz-adv-x="632" d="M318 700 L92 700 L92 0 L196 0 L196 224 L318 224 C485 224 589 316 589 462 C589 609 485 700 318 700 L318 700 Z M316 321 L196 321 L196 604 L316 604 C425 604 481 555 481 462 C481 370 425 321 316 321 L316 321 Z " />
<glyph glyph-name="Q" unicode="Q" horiz-adv-x="794" d="M744 350 C744 562 596 712 397 712 C197 712 50 562 50 350 C50 138 197 -12 397 -12 C458 -12 514 2 562 27 L648 -75 L722 -14 L640 84 C705 148 744 241 744 350 L744 350 Z M397 84 C258 84 158 188 158 350 C158 512 258 616 397 616 C536 616 636 512 636 350 C636 273 613 208 574 162 L443 319 L369 257 L497 105 C467 91 433 84 397 84 L397 84 Z " />
<glyph glyph-name="R" unicode="R" horiz-adv-x="649" d="M471 0 L597 0 L415 249 C525 278 589 358 589 468 C589 609 485 700 316 700 L92 700 L92 0 L196 0 L196 237 L300 237 L471 0 Z M196 604 L318 604 C425 604 482 555 482 468 C482 382 425 333 318 333 L196 333 L196 604 Z " />
<glyph glyph-name="S" unicode="S" horiz-adv-x="594" d="M301 -12 C451 -12 554 77 554 206 C554 301 498 362 364 391 L298 406 C190 429 157 458 157 510 C157 574 209 618 294 618 C373 618 426 580 437 497 L544 497 C534 631 439 712 296 712 C152 712 52 626 52 505 C52 411 113 347 242 319 L307 305 C415 281 448 249 448 197 C448 130 392 82 305 82 C219 82 158 129 150 222 L43 222 C47 77 152 -12 301 -12 L301 -12 Z " />
<glyph glyph-name="T" unicode="T" horiz-adv-x="565" d="M544 700 L21 700 L21 604 L230 604 L230 0 L335 0 L335 604 L544 604 L544 700 Z " />
<glyph glyph-name="U" unicode="U" horiz-adv-x="702" d="M351 -12 C516 -12 620 97 620 274 L620 700 L516 700 L516 273 C516 150 451 85 351 85 C251 85 187 150 187 273 L187 700 L82 700 L82 274 C82 97 186 -12 351 -12 L351 -12 Z " />
<glyph glyph-name="V" unicode="V" horiz-adv-x="641" d="M259 0 L382 0 L627 700 L519 700 L322 125 L319 125 L122 700 L14 700 L259 0 Z " />
<glyph glyph-name="W" unicode="W" horiz-adv-x="1001" d="M232 0 L337 0 L499 545 L502 545 L664 0 L769 0 L982 700 L875 700 L714 163 L711 163 L550 700 L451 700 L289 163 L286 163 L126 700 L19 700 L232 0 Z " />
<glyph glyph-name="X" unicode="X" horiz-adv-x="601" d="M584 0 L364 364 L575 700 L459 700 L301 444 L142 700 L26 700 L237 364 L17 0 L130 0 L300 284 L470 0 L584 0 Z " />
<glyph glyph-name="Y" unicode="Y" horiz-adv-x="625" d="M260 0 L365 0 L365 277 L619 700 L501 700 L314 377 L312 377 L125 700 L7 700 L260 277 L260 0 Z " />
<glyph glyph-name="Z" unicode="Z" horiz-adv-x="573" d="M176 96 L518 619 L518 700 L56 700 L56 604 L389 604 L48 81 L48 0 L526 0 L526 96 L176 96 Z " />
<glyph glyph-name="bracketleft" unicode="&#x5b;" horiz-adv-x="366" d="M332 653 L332 742 L92 742 L92 -114 L332 -114 L332 -25 L192 -25 L192 653 L332 653 Z " />
<glyph glyph-name="backslash" unicode="&#x5c;" horiz-adv-x="497" d="M484 -92 L114 742 L14 742 L384 -92 L484 -92 Z " />
<glyph glyph-name="bracketright" unicode="&#x5d;" horiz-adv-x="367" d="M34 742 L34 653 L175 653 L175 -25 L34 -25 L34 -114 L275 -114 L275 742 L34 742 Z " />
<glyph glyph-name="asciicircum" unicode="&#x5e;" horiz-adv-x="586" d="M557 349 L341 676 L245 676 L29 349 L141 349 L293 588 L445 349 L557 349 Z " />
<glyph glyph-name="underscore" unicode="&#x5f;" horiz-adv-x="417" d="M10 -137 L407 -137 L407 -53 L10 -53 L10 -137 Z " />
<glyph glyph-name="grave" unicode="&#x60;" horiz-adv-x="600" d="M285 545 L373 545 L304 688 L184 688 L285 545 Z " />
<glyph glyph-name="a" unicode="a" horiz-adv-x="543" d="M275 485 C151 485 74 422 68 319 L169 319 C173 371 207 401 271 401 C340 401 374 367 374 300 L374 292 L220 270 C109 254 52 202 52 124 C52 44 114 -12 211 -12 C282 -12 344 19 373 63 L376 63 L382 0 L472 0 L472 298 C472 418 402 485 275 485 L275 485 Z M235 69 C183 69 154 92 154 129 C154 167 181 193 251 202 L374 219 L374 202 C374 125 317 69 235 69 L235 69 Z " />
<glyph glyph-name="b" unicode="b" horiz-adv-x="599" d="M330 485 C265 485 205 457 178 413 L175 413 L175 700 L75 700 L75 0 L165 0 L171 62 L174 62 C200 18 261 -12 330 -12 C456 -12 552 90 552 237 C552 384 455 485 330 485 L330 485 Z M311 76 C226 76 171 136 171 237 C171 337 226 398 311 398 C394 398 450 337 450 237 C450 136 394 76 311 76 L311 76 Z " />
<glyph glyph-name="c" unicode="c" horiz-adv-x="549" d="M289 -12 C411 -12 503 59 515 178 L416 178 C407 115 354 75 289 75 C209 75 148 137 148 237 C148 336 209 398 290 398 C355 398 402 358 410 295 L513 295 C500 415 413 485 292 485 C148 485 46 383 46 237 C46 90 145 -12 289 -12 L289 -12 Z " />
<glyph glyph-name="d" unicode="d" horiz-adv-x="599" d="M424 700 L424 413 L421 413 C394 457 334 485 269 485 C144 485 47 384 47 237 C47 90 143 -12 269 -12 C338 -12 399 18 425 62 L428 62 L434 0 L524 0 L524 700 L424 700 Z M288 76 C205 76 149 136 149 237 C149 337 205 398 288 398 C373 398 428 337 428 237 C428 136 373 76 288 76 L288 76 Z " />
<glyph glyph-name="e" unicode="e" horiz-adv-x="560" d="M516 253 C516 394 422 485 290 485 C150 485 45 382 45 234 C45 88 146 -12 289 -12 C398 -12 484 46 510 143 L415 143 C393 98 348 73 292 73 C213 73 154 120 146 213 L513 213 C515 227 516 239 516 253 L516 253 Z M290 403 C357 403 405 366 416 286 L150 286 C166 362 219 403 290 403 L290 403 Z " />
<glyph glyph-name="f" unicode="f" horiz-adv-x="352" d="M293 625 C309 625 322 623 332 621 L332 704 C316 709 294 712 270 712 C165 712 104 649 104 526 L104 473 L18 473 L18 388 L104 388 L104 0 L204 0 L204 388 L329 388 L329 473 L204 473 L204 528 C204 598 232 625 293 625 L293 625 Z " />
<glyph glyph-name="g" unicode="g" horiz-adv-x="501" d="M490 485 L253 485 C139 485 63 413 63 313 C63 264 81 222 112 192 C69 176 41 140 41 94 C41 58 58 30 86 11 C44 -10 21 -47 21 -94 C21 -181 97 -236 248 -236 C414 -236 490 -172 490 -70 C490 20 434 71 332 71 L186 71 C150 71 131 85 131 110 C131 131 146 149 171 154 C195 145 223 140 253 140 C368 140 443 212 443 313 C443 354 430 391 407 419 L490 427 L490 485 Z M253 218 C192 218 155 256 155 313 C155 371 192 409 253 409 C314 409 352 371 352 313 C352 256 314 218 253 218 L253 218 Z M313 -15 C373 -15 396 -36 396 -74 C396 -124 355 -153 254 -153 C156 -153 116 -126 116 -80 C116 -42 144 -15 185 -15 L313 -15 Z " />
<glyph glyph-name="h" unicode="h" horiz-adv-x="565" d="M326 485 C261 485 209 458 178 412 L174 412 L174 700 L74 700 L74 0 L174 0 L174 257 C174 350 222 396 295 396 C359 396 395 360 395 263 L395 0 L495 0 L495 298 C495 418 429 485 326 485 L326 485 Z " />
<glyph glyph-name="i" unicode="i" horiz-adv-x="249" d="M124 553 C161 553 191 581 191 619 C191 657 161 685 124 685 C88 685 58 657 58 619 C58 581 88 553 124 553 L124 553 Z M74 0 L174 0 L174 473 L74 473 L74 0 Z " />
<glyph glyph-name="j" unicode="j" horiz-adv-x="249" d="M124 553 C161 553 191 581 191 619 C191 657 161 685 124 685 C88 685 58 657 58 619 C58 581 88 553 124 553 L124 553 Z M32 -236 C130 -236 174 -190 174 -78 L174 473 L74 473 L74 -75 C74 -131 56 -149 10 -149 C-1 -149 -12 -148 -20 -147 L-20 -231 C-6 -234 11 -236 32 -236 L32 -236 Z " />
<glyph glyph-name="k" unicode="k" horiz-adv-x="515" d="M507 0 L277 249 L501 473 L375 473 L177 276 L174 276 L174 700 L74 700 L74 0 L174 0 L174 218 L178 218 L379 0 L507 0 Z " />
<glyph glyph-name="l" unicode="l" horiz-adv-x="249" d="M74 0 L174 0 L174 700 L74 700 L74 0 Z " />
<glyph glyph-name="m" unicode="m" horiz-adv-x="857" d="M623 485 C554 485 493 451 462 400 L458 400 C432 456 382 485 320 485 C260 485 204 457 174 411 L171 411 L165 473 L74 473 L74 0 L174 0 L174 258 C174 348 222 396 289 396 C348 396 381 359 381 266 L381 0 L481 0 L481 258 C481 347 527 396 594 396 C653 396 687 358 687 266 L687 0 L787 0 L787 298 C787 418 721 485 623 485 L623 485 Z " />
<glyph glyph-name="n" unicode="n" horiz-adv-x="565" d="M326 485 C260 485 204 457 174 411 L171 411 L165 473 L74 473 L74 0 L174 0 L174 257 C174 350 222 396 295 396 C359 396 395 360 395 263 L395 0 L495 0 L495 298 C495 418 428 485 326 485 L326 485 Z " />
<glyph glyph-name="o" unicode="o" horiz-adv-x="580" d="M290 -12 C431 -12 535 90 535 237 C535 383 431 485 290 485 C149 485 45 383 45 237 C45 90 149 -12 290 -12 L290 -12 Z M290 75 C207 75 147 139 147 237 C147 334 207 398 290 398 C373 398 433 334 433 237 C433 139 373 75 290 75 L290 75 Z " />
<glyph glyph-name="p" unicode="p" horiz-adv-x="599" d="M329 485 C261 485 200 455 174 411 L171 411 L165 473 L74 473 L74 -224 L174 -224 L174 60 L178 60 C204 16 265 -12 329 -12 C455 -12 552 90 552 237 C552 384 456 485 329 485 L329 485 Z M310 76 C229 76 170 136 170 237 C170 337 229 398 310 398 C392 398 450 337 450 237 C450 136 392 76 310 76 L310 76 Z " />
<glyph glyph-name="q" unicode="q" horiz-adv-x="599" d="M434 473 L428 411 L425 411 C399 455 338 485 270 485 C143 485 47 384 47 237 C47 90 144 -12 270 -12 C334 -12 395 16 421 60 L425 60 L425 -224 L525 -224 L525 473 L434 473 Z M289 76 C207 76 149 136 149 237 C149 337 207 398 289 398 C370 398 429 337 429 237 C429 136 370 76 289 76 L289 76 Z " />
<glyph glyph-name="r" unicode="r" horiz-adv-x="374" d="M304 482 C246 482 196 452 174 401 L171 401 L164 473 L74 473 L74 0 L174 0 L174 239 C174 340 222 388 309 388 C322 388 336 387 351 385 L351 474 C338 479 322 482 304 482 L304 482 Z " />
<glyph glyph-name="s" unicode="s" horiz-adv-x="464" d="M237 -12 C357 -12 427 52 427 141 C427 214 385 257 288 276 L230 287 C158 301 142 317 142 344 C142 381 174 406 229 406 C285 406 316 381 321 341 L419 341 C412 433 344 485 235 485 C117 485 45 423 45 338 C45 269 91 226 185 207 L243 196 C309 183 331 163 331 133 C331 95 295 68 239 68 C183 68 144 95 138 145 L40 145 C46 48 121 -12 237 -12 L237 -12 Z " />
<glyph glyph-name="t" unicode="t" horiz-adv-x="367" d="M289 74 C224 74 199 96 199 170 L199 387 L329 387 L329 473 L199 473 L199 591 L99 591 L99 473 L16 473 L16 387 L99 387 L99 167 C99 39 154 -12 267 -12 C295 -12 317 -9 333 -5 L333 78 C319 75 303 74 289 74 L289 74 Z " />
<glyph glyph-name="u" unicode="u" horiz-adv-x="559" d="M385 473 L385 217 C385 123 337 78 267 78 C206 78 170 113 170 211 L170 473 L70 473 L70 175 C70 54 139 -12 236 -12 C299 -12 356 16 386 62 L389 62 L395 0 L485 0 L485 473 L385 473 Z " />
<glyph glyph-name="v" unicode="v" horiz-adv-x="503" d="M199 0 L304 0 L492 473 L386 473 L253 120 L250 120 L117 473 L11 473 L199 0 Z " />
<glyph glyph-name="w" unicode="w" horiz-adv-x="794" d="M175 0 L278 0 L396 344 L398 344 L516 0 L619 0 L774 473 L670 473 L564 130 L561 130 L442 473 L352 473 L233 130 L230 130 L123 473 L20 473 L175 0 Z " />
<glyph glyph-name="x" unicode="x" horiz-adv-x="495" d="M479 0 L306 245 L470 473 L360 473 L248 316 L135 473 L26 473 L189 245 L16 0 L127 0 L248 172 L368 0 L479 0 Z " />
<glyph glyph-name="y" unicode="y" horiz-adv-x="505" d="M390 473 L254 120 L251 120 L118 473 L11 473 L201 -2 L112 -224 L215 -224 L494 473 L390 473 Z " />
<glyph glyph-name="z" unicode="z" horiz-adv-x="450" d="M165 87 L407 405 L407 473 L41 473 L41 387 L280 387 L37 68 L37 0 L413 0 L413 87 L165 87 Z " />
<glyph glyph-name="braceleft" unicode="&#x7b;" horiz-adv-x="376" d="M256 -114 L341 -114 L341 -25 L269 -25 C230 -25 211 -8 211 32 L211 205 C211 261 187 297 140 312 L140 316 C187 331 211 367 211 423 L211 596 C211 636 230 653 269 653 L341 653 L341 742 L256 742 C157 742 111 699 111 611 L111 417 C111 377 93 359 47 359 L36 359 L36 269 L47 269 C93 269 111 251 111 211 L111 17 C111 -71 157 -114 256 -114 L256 -114 Z " />
<glyph glyph-name="bar" unicode="&#x7c;" horiz-adv-x="317" d="M112 -100 L205 -100 L205 765 L112 765 L112 -100 Z " />
<glyph glyph-name="braceright" unicode="&#x7d;" horiz-adv-x="376" d="M120 -114 C219 -114 264 -71 264 17 L264 211 C264 251 283 269 328 269 L340 269 L340 359 L328 359 C283 359 264 377 264 417 L264 611 C264 699 219 742 120 742 L34 742 L34 653 L107 653 C145 653 165 636 165 596 L165 423 C165 367 189 331 236 316 L236 312 C189 297 165 261 165 205 L165 32 C165 -8 145 -25 107 -25 L34 -25 L34 -114 L120 -114 Z " />
<glyph glyph-name="asciitilde" unicode="&#x7e;" horiz-adv-x="650" d="M430 251 C472 251 508 264 547 291 L547 381 C518 357 473 339 429 339 C362 339 293 382 223 382 C182 382 141 370 103 342 L103 252 C147 282 181 294 221 294 C294 294 357 251 430 251 L430 251 Z " />
<glyph glyph-name="uni00A0" unicode="&#xa0;" horiz-adv-x="237" d="" />
<glyph glyph-name="exclamdown" unicode="&#xa1;" horiz-adv-x="283" d="M142 485 C101 485 72 455 72 415 C72 375 101 345 142 345 C182 345 212 375 212 415 C212 455 182 485 142 485 L142 485 Z M101 255 L89 -222 L194 -222 L182 255 L101 255 Z " />
<glyph glyph-name="cent" unicode="&#xa2;" horiz-adv-x="562" d="M521 289 L427 289 C420 232 377 194 317 187 L317 514 C377 506 415 468 422 411 L519 411 C508 520 429 589 317 597 L317 700 L258 700 L258 596 C135 580 51 483 51 350 C51 216 134 119 258 104 L258 0 L317 0 L317 103 C429 112 510 182 521 289 L521 289 Z M148 350 C148 438 192 496 258 511 L258 189 C193 204 148 262 148 350 L148 350 Z " />
<glyph glyph-name="sterling" unicode="&#xa3;" horiz-adv-x="540" d="M206 89 C248 124 271 172 271 229 C271 250 268 270 263 289 L421 289 L421 364 L235 364 C211 419 183 470 183 520 C183 583 226 628 296 628 C365 628 404 585 406 498 L504 498 C504 636 422 712 297 712 C167 712 83 630 83 522 C83 462 109 413 133 364 L49 364 L49 289 L165 289 C170 271 173 253 173 233 C173 166 135 114 46 66 L46 0 L505 0 L505 89 L206 89 Z " />
<glyph glyph-name="currency" unicode="&#xa4;" horiz-adv-x="549" d="M470 350 C470 391 459 429 438 461 L510 534 L458 586 L385 514 C354 533 317 545 274 545 C231 545 194 533 164 513 L91 586 L39 534 L112 461 C91 430 80 391 80 350 C80 309 91 270 112 239 L39 166 L91 114 L164 187 C194 167 231 155 274 155 C317 155 354 167 385 186 L458 114 L510 166 L438 239 C459 271 470 309 470 350 L470 350 Z M274 239 C211 239 168 284 168 350 C168 416 211 461 274 461 C338 461 381 416 381 350 C381 284 338 239 274 239 L274 239 Z " />
<glyph glyph-name="yen" unicode="&#xa5;" horiz-adv-x="566" d="M548 700 L441 700 L283 389 L125 700 L17 700 L203 350 L56 350 L56 283 L233 283 L233 198 L56 198 L56 131 L233 131 L233 0 L332 0 L332 131 L510 131 L510 198 L332 198 L332 283 L510 283 L510 350 L362 350 L548 700 Z " />
<glyph glyph-name="brokenbar" unicode="&#xa6;" horiz-adv-x="317" d="M112 406 L205 406 L205 765 L112 765 L112 406 Z M112 -100 L205 -100 L205 251 L112 251 L112 -100 Z " />
<glyph glyph-name="section" unicode="&#xa7;" horiz-adv-x="541" d="M391 169 C447 190 480 244 480 307 C480 394 420 438 323 459 L268 472 C186 490 163 511 163 547 C163 592 199 623 261 623 C322 623 360 593 364 535 L466 535 C459 647 381 712 265 712 C143 712 61 640 61 544 C61 485 90 440 150 412 C94 390 61 336 61 273 C61 186 121 142 218 121 L273 109 C355 90 378 67 378 33 C378 -10 341 -43 275 -43 C210 -43 170 -10 167 55 L65 55 C68 -66 151 -132 273 -132 C398 -132 480 -60 480 37 C480 95 451 140 391 169 L391 169 Z M283 199 L251 207 C184 222 162 243 162 287 C162 349 212 392 258 381 L290 374 C357 358 379 337 379 293 C379 231 329 188 283 199 L283 199 Z " />
<glyph glyph-name="dieresis" unicode="&#xa8;" horiz-adv-x="600" d="M200 554 C235 554 263 581 263 618 C263 654 235 681 200 681 C165 681 136 654 136 618 C136 581 165 554 200 554 L200 554 Z M400 554 C435 554 464 581 464 618 C464 654 435 681 400 681 C365 681 337 654 337 618 C337 581 365 554 400 554 L400 554 Z " />
<glyph glyph-name="copyright" unicode="&#xa9;" horiz-adv-x="830" d="M415 -12 C619 -12 780 148 780 350 C780 552 619 712 415 712 C211 712 50 552 50 350 C50 148 211 -12 415 -12 L415 -12 Z M415 58 C249 58 126 188 126 350 C126 512 249 642 415 642 C581 642 704 512 704 350 C704 188 581 58 415 58 L415 58 Z M424 149 C522 149 595 208 603 308 L512 308 C507 262 474 232 422 232 C365 232 321 277 321 350 C321 423 365 468 422 468 C471 468 504 438 509 392 L602 392 C595 493 522 551 424 551 C308 551 226 469 226 350 C226 231 308 149 424 149 L424 149 Z " />
<glyph glyph-name="ordfeminine" unicode="&#xaa;" horiz-adv-x="498" d="M357 702 L352 649 L349 649 C327 687 276 712 220 712 C115 712 33 626 33 499 C33 372 115 286 220 286 C277 286 327 311 349 349 L352 349 L357 296 L445 296 L445 702 L357 702 Z M242 371 C177 371 131 420 131 499 C131 579 177 626 242 626 C306 626 353 579 353 499 C353 420 307 371 242 371 L242 371 Z " />
<glyph glyph-name="guillemotleft" unicode="&#xab;" horiz-adv-x="576" d="M305 501 L193 501 L42 285 L193 70 L305 70 L155 285 L305 501 Z M529 501 L417 501 L266 285 L417 70 L529 70 L379 285 L529 501 Z " />
<glyph glyph-name="logicalnot" unicode="&#xac;" horiz-adv-x="650" d="M103 362 L103 272 L453 272 L453 168 L547 168 L547 362 L103 362 Z " />
<glyph glyph-name="registered" unicode="&#xae;" horiz-adv-x="470" d="M236 712 C123 712 33 623 33 510 C33 399 123 309 236 309 C348 309 438 399 438 510 C438 622 348 712 236 712 L236 712 Z M236 351 C147 351 80 422 80 510 C80 598 147 669 236 669 C324 669 391 598 391 510 C391 422 324 351 236 351 L236 351 Z M325 549 C325 594 297 620 251 620 L155 620 L155 407 L204 407 L204 480 L224 480 L273 407 L332 407 L276 483 C307 490 325 511 325 549 L325 549 Z M204 571 L248 571 C264 571 273 563 273 548 C273 532 263 525 248 525 L204 525 L204 571 Z " />
<glyph glyph-name="macron" unicode="&#xaf;" horiz-adv-x="600" d="M166 574 L434 574 L434 650 L166 650 L166 574 Z " />
<glyph glyph-name="degree" unicode="&#xb0;" horiz-adv-x="378" d="M189 413 C278 413 341 478 341 563 C341 647 278 712 189 712 C101 712 37 647 37 563 C37 478 101 413 189 413 L189 413 Z M189 488 C144 488 116 519 116 563 C116 606 144 638 189 638 C234 638 262 606 262 563 C262 519 234 488 189 488 L189 488 Z " />
<glyph glyph-name="plusminus" unicode="&#xb1;" horiz-adv-x="650" d="M103 337 L278 337 L278 165 L373 165 L373 337 L547 337 L547 427 L373 427 L373 599 L278 599 L278 427 L103 427 L103 337 Z M103 0 L547 0 L547 90 L103 90 L103 0 Z " />
<glyph glyph-name="uni00B2" unicode="&#xb2;" horiz-adv-x="370" d="M218 432 C306 485 334 527 334 582 C334 661 279 712 192 712 C99 712 37 654 35 559 L122 559 C124 610 151 635 191 635 C228 635 249 615 249 581 C249 551 232 531 159 485 C62 424 40 389 40 314 L40 271 L332 271 L332 349 L131 349 C139 374 162 398 218 432 L218 432 Z " />
<glyph glyph-name="uni00B3" unicode="&#xb3;" horiz-adv-x="378" d="M270 494 C312 512 332 547 332 590 C332 663 275 712 192 712 C103 712 45 657 41 574 L127 574 C129 614 152 634 189 634 C225 634 248 614 248 581 C248 548 226 527 187 527 L145 527 L145 457 L188 457 C232 457 256 435 256 402 C256 368 230 342 191 342 C152 342 125 366 125 408 L39 408 C39 316 98 264 189 264 C280 264 342 318 342 390 C342 437 316 476 270 494 L270 494 Z " />
<glyph glyph-name="acute" unicode="&#xb4;" horiz-adv-x="600" d="M219 545 L307 545 L408 688 L288 688 L219 545 Z " />
<glyph glyph-name="uni00B5" unicode="&#xb5;" horiz-adv-x="565" d="M390 473 L390 217 C390 125 346 79 279 79 C213 79 174 119 174 207 L174 473 L74 473 L74 -224 L174 -224 L174 35 C199 2 233 -12 271 -12 C324 -12 364 15 392 60 L395 60 L401 0 L490 0 L490 473 L390 473 Z " />
<glyph glyph-name="paragraph" unicode="&#xb6;" horiz-adv-x="669" d="M67 549 C67 461 134 397 246 397 L261 397 L261 -128 L359 -128 L359 700 L258 700 C134 700 67 636 67 549 L67 549 Z M459 700 L459 -128 L557 -128 L557 700 L459 700 Z " />
<glyph glyph-name="periodcentered" unicode="&#xb7;" horiz-adv-x="256" d="M128 245 C168 245 198 275 198 315 C198 356 168 386 128 386 C88 386 58 356 58 315 C58 275 88 245 128 245 L128 245 Z " />
<glyph glyph-name="cedilla" unicode="&#xb8;" horiz-adv-x="600" d="M299 -51 L300 0 L232 0 L224 -102 C293 -102 305 -112 305 -129 C305 -147 290 -160 249 -160 C239 -160 226 -159 212 -157 L212 -224 C228 -227 243 -228 257 -228 C342 -228 386 -190 386 -135 C386 -88 354 -57 299 -51 L299 -51 Z " />
<glyph glyph-name="uni00B9" unicode="&#xb9;" horiz-adv-x="286" d="M152 700 C141 657 122 642 62 642 L43 642 L43 581 L135 581 L135 266 L221 266 L221 700 L152 700 Z " />
<glyph glyph-name="ordmasculine" unicode="&#xba;" horiz-adv-x="486" d="M243 286 C365 286 453 374 453 499 C453 625 364 712 243 712 C121 712 33 624 33 499 C33 374 121 286 243 286 L243 286 Z M243 371 C179 371 131 422 131 499 C131 576 179 626 243 626 C308 626 356 576 356 499 C356 423 308 371 243 371 L243 371 Z " />
<glyph glyph-name="guillemotright" unicode="&#xbb;" horiz-adv-x="576" d="M159 501 L47 501 L197 285 L47 70 L159 70 L310 285 L159 501 Z M383 501 L271 501 L421 285 L271 70 L383 70 L534 285 L383 501 Z " />
<glyph glyph-name="onequarter" unicode="&#xbc;" horiz-adv-x="883" d="M149 266 L234 266 L234 700 L165 700 C155 657 135 642 76 642 L56 642 L56 581 L149 581 L149 266 Z M597 700 L146 0 L245 0 L696 700 L597 700 Z M817 153 L766 153 L766 434 L664 434 L478 148 L478 80 L686 80 L686 0 L766 0 L766 80 L817 80 L817 153 Z M566 153 L686 340 L686 153 L566 153 Z " />
<glyph glyph-name="onehalf" unicode="&#xbd;" horiz-adv-x="908" d="M149 266 L234 266 L234 700 L165 700 C155 657 135 642 76 642 L56 642 L56 581 L149 581 L149 266 Z M594 700 L143 0 L242 0 L693 700 L594 700 Z M727 161 C815 214 842 256 842 311 C842 390 788 441 701 441 C608 441 546 383 544 288 L630 288 C632 339 660 364 700 364 C736 364 757 344 757 310 C757 280 741 260 668 214 C570 153 548 118 548 43 L548 0 L841 0 L841 78 L639 78 C648 103 670 127 727 161 L727 161 Z " />
<glyph glyph-name="threequarters" unicode="&#xbe;" horiz-adv-x="977" d="M363 390 C363 437 338 476 292 494 C334 512 354 547 354 590 C354 663 297 712 213 712 C125 712 66 657 63 574 L149 574 C151 614 174 634 210 634 C247 634 269 614 269 581 C269 548 248 527 208 527 L166 527 L166 457 L210 457 C254 457 278 435 278 402 C278 368 252 342 213 342 C174 342 147 366 146 408 L60 408 C60 316 120 264 211 264 C302 264 363 318 363 390 L363 390 Z M692 700 L241 0 L340 0 L791 700 L692 700 Z M911 153 L860 153 L860 434 L758 434 L573 148 L573 80 L780 80 L780 0 L860 0 L860 80 L911 80 L911 153 Z M660 153 L780 339 L780 153 L660 153 Z " />
<glyph glyph-name="questiondown" unicode="&#xbf;" horiz-adv-x="493" d="M270 486 C230 486 200 456 200 416 C200 376 230 346 270 346 C310 346 340 376 340 416 C340 456 310 486 270 486 L270 486 Z M320 256 L220 256 L220 213 C220 171 215 158 180 129 L133 89 C66 33 44 -14 44 -66 C44 -165 124 -233 237 -233 C357 -233 446 -157 449 -28 L349 -28 C348 -102 303 -144 236 -144 C177 -144 144 -111 144 -62 C144 -33 155 -11 193 21 L241 61 C306 116 320 146 320 212 L320 256 Z " />
<glyph glyph-name="Agrave" unicode="&#xc0;" horiz-adv-x="653" d="M389 768 L315 919 L188 919 L295 768 L389 768 Z M531 0 L639 0 L384 700 L269 700 L14 0 L121 0 L180 167 L472 167 L531 0 Z M212 257 L325 577 L328 577 L441 257 L212 257 Z " />
<glyph glyph-name="Aacute" unicode="&#xc1;" horiz-adv-x="653" d="M461 919 L333 919 L260 768 L354 768 L461 919 Z M531 0 L639 0 L384 700 L269 700 L14 0 L121 0 L180 167 L472 167 L531 0 Z M212 257 L325 577 L328 577 L441 257 L212 257 Z " />
<glyph glyph-name="Acircumflex" unicode="&#xc2;" horiz-adv-x="653" d="M327 857 L400 768 L499 768 L375 919 L279 919 L155 768 L254 768 L327 857 Z M531 0 L639 0 L384 700 L269 700 L14 0 L121 0 L180 167 L472 167 L531 0 Z M212 257 L325 577 L328 577 L441 257 L212 257 Z " />
<glyph glyph-name="Atilde" unicode="&#xc3;" horiz-adv-x="653" d="M261 848 C272 848 284 841 309 816 C342 781 368 766 400 766 C458 766 499 815 499 915 L427 915 C427 860 412 840 394 840 C384 840 370 847 346 872 C313 908 287 922 255 922 C196 922 155 873 155 773 L228 773 C228 828 243 848 261 848 L261 848 Z M531 0 L639 0 L384 700 L269 700 L14 0 L121 0 L180 167 L472 167 L531 0 Z M212 257 L325 577 L328 577 L441 257 L212 257 Z " />
<glyph glyph-name="Adieresis" unicode="&#xc4;" horiz-adv-x="653" d="M220 777 C257 777 288 806 288 845 C288 883 257 912 220 912 C184 912 153 883 153 845 C153 806 184 777 220 777 L220 777 Z M433 777 C470 777 501 806 501 845 C501 883 470 912 433 912 C397 912 366 883 366 845 C366 806 397 777 433 777 L433 777 Z M531 0 L639 0 L384 700 L269 700 L14 0 L121 0 L180 167 L472 167 L531 0 Z M212 257 L325 577 L328 577 L441 257 L212 257 Z " />
<glyph glyph-name="Aring" unicode="&#xc5;" horiz-adv-x="653" d="M531 0 L639 0 L399 659 C426 679 442 710 442 745 C442 807 393 855 327 855 C261 855 211 807 211 745 C211 710 228 679 254 659 L14 0 L121 0 L180 167 L472 167 L531 0 Z M327 790 C355 790 372 771 372 745 C372 720 355 700 327 700 C299 700 281 720 281 745 C281 771 299 790 327 790 L327 790 Z M212 257 L325 577 L328 577 L441 257 L212 257 Z " />
<glyph glyph-name="AE" unicode="&#xc6;" horiz-adv-x="1002" d="M939 604 L939 700 L449 700 L11 0 L132 0 L240 176 L510 176 L510 0 L939 0 L939 96 L615 96 L615 304 L910 304 L910 399 L615 399 L615 604 L939 604 Z M296 266 L504 604 L510 604 L510 266 L296 266 Z " />
<glyph glyph-name="Ccedilla" unicode="&#xc7;" horiz-adv-x="760" d="M715 259 L610 259 C590 148 508 84 398 84 C261 84 158 186 158 350 C158 514 261 616 398 616 C505 616 584 555 605 441 L713 441 C697 603 564 712 395 712 C199 712 50 564 50 350 C50 156 172 16 340 -8 L333 -102 C403 -102 415 -112 415 -129 C415 -147 399 -160 358 -160 C348 -160 335 -159 322 -157 L322 -224 C337 -227 353 -228 367 -228 C451 -228 495 -190 495 -135 C495 -88 463 -57 408 -51 L409 -12 C573 -6 699 101 715 259 L715 259 Z " />
<glyph glyph-name="Egrave" unicode="&#xc8;" horiz-adv-x="584" d="M369 768 L295 919 L168 919 L275 768 L369 768 Z M521 604 L521 700 L92 700 L92 0 L521 0 L521 96 L196 96 L196 304 L492 304 L492 399 L196 399 L196 604 L521 604 Z " />
<glyph glyph-name="Eacute" unicode="&#xc9;" horiz-adv-x="584" d="M440 919 L312 919 L239 768 L333 768 L440 919 Z M521 604 L521 700 L92 700 L92 0 L521 0 L521 96 L196 96 L196 304 L492 304 L492 399 L196 399 L196 604 L521 604 Z " />
<glyph glyph-name="Ecircumflex" unicode="&#xca;" horiz-adv-x="584" d="M306 857 L379 768 L478 768 L354 919 L258 919 L134 768 L233 768 L306 857 Z M521 604 L521 700 L92 700 L92 0 L521 0 L521 96 L196 96 L196 304 L492 304 L492 399 L196 399 L196 604 L521 604 Z " />
<glyph glyph-name="Edieresis" unicode="&#xcb;" horiz-adv-x="584" d="M199 777 C236 777 267 806 267 845 C267 883 236 912 199 912 C163 912 132 883 132 845 C132 806 163 777 199 777 L199 777 Z M412 777 C449 777 480 806 480 845 C480 883 449 912 412 912 C376 912 345 883 345 845 C345 806 376 777 412 777 L412 777 Z M521 604 L521 700 L92 700 L92 0 L521 0 L521 96 L196 96 L196 304 L492 304 L492 399 L196 399 L196 604 L521 604 Z " />
<glyph glyph-name="Igrave" unicode="&#xcc;" horiz-adv-x="288" d="M112 768 L206 768 L132 919 L5 919 L112 768 Z M92 0 L196 0 L196 700 L92 700 L92 0 Z " />
<glyph glyph-name="Iacute" unicode="&#xcd;" horiz-adv-x="288" d="M77 768 L171 768 L278 919 L150 919 L77 768 Z M92 0 L196 0 L196 700 L92 700 L92 0 Z " />
<glyph glyph-name="Icircumflex" unicode="&#xce;" horiz-adv-x="288" d="M192 919 L96 919 L-28 768 L71 768 L144 857 L217 768 L316 768 L192 919 Z M92 0 L196 0 L196 700 L92 700 L92 0 Z " />
<glyph glyph-name="Idieresis" unicode="&#xcf;" horiz-adv-x="288" d="M37 777 C74 777 105 806 105 845 C105 883 74 912 37 912 C1 912 -30 883 -30 845 C-30 806 1 777 37 777 L37 777 Z M250 777 C287 777 318 806 318 845 C318 883 287 912 250 912 C214 912 183 883 183 845 C183 806 214 777 250 777 L250 777 Z M92 0 L196 0 L196 700 L92 700 L92 0 Z " />
<glyph glyph-name="Eth" unicode="&#xd0;" horiz-adv-x="701" d="M278 700 L100 700 L100 391 L-1 391 L-1 309 L100 309 L100 0 L278 0 C501 0 650 134 650 350 C650 566 501 700 278 700 L278 700 Z M283 96 L205 96 L205 309 L356 309 L356 391 L205 391 L205 604 L283 604 C439 604 543 514 543 350 C543 186 439 96 283 96 L283 96 Z " />
<glyph glyph-name="Ntilde" unicode="&#xd1;" horiz-adv-x="746" d="M308 848 C319 848 331 841 356 816 C389 781 415 766 447 766 C505 766 546 815 546 915 L474 915 C474 860 459 840 441 840 C431 840 417 847 393 872 C360 908 334 922 302 922 C243 922 202 873 202 773 L275 773 C275 828 290 848 308 848 L308 848 Z M550 700 L550 174 L547 174 L201 700 L92 700 L92 0 L196 0 L196 526 L200 526 L545 0 L655 0 L655 700 L550 700 Z " />
<glyph glyph-name="Ograve" unicode="&#xd2;" horiz-adv-x="794" d="M365 768 L459 768 L385 919 L258 919 L365 768 Z M397 -12 C596 -12 744 138 744 350 C744 562 596 712 397 712 C197 712 50 562 50 350 C50 138 197 -12 397 -12 L397 -12 Z M397 84 C258 84 158 188 158 350 C158 512 258 616 397 616 C536 616 636 512 636 350 C636 188 536 84 397 84 L397 84 Z " />
<glyph glyph-name="Oacute" unicode="&#xd3;" horiz-adv-x="794" d="M330 768 L424 768 L531 919 L403 919 L330 768 Z M397 -12 C596 -12 744 138 744 350 C744 562 596 712 397 712 C197 712 50 562 50 350 C50 138 197 -12 397 -12 L397 -12 Z M397 84 C258 84 158 188 158 350 C158 512 258 616 397 616 C536 616 636 512 636 350 C636 188 536 84 397 84 L397 84 Z " />
<glyph glyph-name="Ocircumflex" unicode="&#xd4;" horiz-adv-x="794" d="M397 857 L470 768 L569 768 L445 919 L349 919 L225 768 L324 768 L397 857 Z M397 712 C197 712 50 562 50 350 C50 138 197 -12 397 -12 C596 -12 744 138 744 350 C744 562 596 712 397 712 L397 712 Z M397 84 C258 84 158 188 158 350 C158 512 258 616 397 616 C536 616 636 512 636 350 C636 188 536 84 397 84 L397 84 Z " />
<glyph glyph-name="Otilde" unicode="&#xd5;" horiz-adv-x="794" d="M470 766 C528 766 569 815 569 915 L497 915 C497 860 482 840 464 840 C454 840 440 847 416 872 C383 908 357 922 325 922 C266 922 225 873 225 773 L298 773 C298 828 313 848 331 848 C342 848 354 841 379 816 C412 781 438 766 470 766 L470 766 Z M397 -12 C596 -12 744 138 744 350 C744 562 596 712 397 712 C197 712 50 562 50 350 C50 138 197 -12 397 -12 L397 -12 Z M397 84 C258 84 158 188 158 350 C158 512 258 616 397 616 C536 616 636 512 636 350 C636 188 536 84 397 84 L397 84 Z " />
<glyph glyph-name="Odieresis" unicode="&#xd6;" horiz-adv-x="794" d="M290 777 C327 777 358 806 358 845 C358 883 327 912 290 912 C254 912 223 883 223 845 C223 806 254 777 290 777 L290 777 Z M503 777 C540 777 571 806 571 845 C571 883 540 912 503 912 C467 912 436 883 436 845 C436 806 467 777 503 777 L503 777 Z M397 -12 C596 -12 744 138 744 350 C744 562 596 712 397 712 C197 712 50 562 50 350 C50 138 197 -12 397 -12 L397 -12 Z M397 84 C258 84 158 188 158 350 C158 512 258 616 397 616 C536 616 636 512 636 350 C636 188 536 84 397 84 L397 84 Z " />
<glyph glyph-name="multiply" unicode="&#xd7;" horiz-adv-x="650" d="M177 108 L325 256 L473 108 L534 169 L386 317 L534 465 L473 526 L325 378 L177 526 L116 465 L264 317 L116 169 L177 108 Z " />
<glyph glyph-name="Oslash" unicode="&#xd8;" horiz-adv-x="807" d="M763 648 L701 709 L626 634 C567 684 490 712 403 712 C204 712 57 562 57 350 C57 265 81 189 122 130 L44 52 L105 -9 L181 66 C240 16 316 -12 403 -12 C603 -12 750 138 750 350 C750 435 726 511 685 570 L763 648 Z M403 616 C463 616 515 597 556 562 L198 204 C176 244 164 294 164 350 C164 512 265 616 403 616 L403 616 Z M403 84 C344 84 291 103 251 138 L609 496 C631 456 643 406 643 350 C643 188 542 84 403 84 L403 84 Z " />
<glyph glyph-name="Ugrave" unicode="&#xd9;" horiz-adv-x="702" d="M320 768 L414 768 L340 919 L213 919 L320 768 Z M351 -12 C516 -12 620 97 620 274 L620 700 L516 700 L516 273 C516 150 451 85 351 85 C251 85 187 150 187 273 L187 700 L82 700 L82 274 C82 97 186 -12 351 -12 L351 -12 Z " />
<glyph glyph-name="Uacute" unicode="&#xda;" horiz-adv-x="702" d="M284 768 L378 768 L485 919 L357 919 L284 768 Z M351 -12 C516 -12 620 97 620 274 L620 700 L516 700 L516 273 C516 150 451 85 351 85 C251 85 187 150 187 273 L187 700 L82 700 L82 274 C82 97 186 -12 351 -12 L351 -12 Z " />
<glyph glyph-name="Ucircumflex" unicode="&#xdb;" horiz-adv-x="702" d="M351 857 L424 768 L523 768 L399 919 L303 919 L179 768 L278 768 L351 857 Z M516 700 L516 273 C516 150 451 85 351 85 C251 85 187 150 187 273 L187 700 L82 700 L82 274 C82 97 186 -12 351 -12 C516 -12 620 97 620 274 L620 700 L516 700 Z " />
<glyph glyph-name="Udieresis" unicode="&#xdc;" horiz-adv-x="702" d="M244 777 C281 777 312 806 312 845 C312 883 281 912 244 912 C208 912 177 883 177 845 C177 806 208 777 244 777 L244 777 Z M457 777 C494 777 525 806 525 845 C525 883 494 912 457 912 C421 912 390 883 390 845 C390 806 421 777 457 777 L457 777 Z M351 -12 C516 -12 620 97 620 274 L620 700 L516 700 L516 273 C516 150 451 85 351 85 C251 85 187 150 187 273 L187 700 L82 700 L82 274 C82 97 186 -12 351 -12 L351 -12 Z " />
<glyph glyph-name="Yacute" unicode="&#xdd;" horiz-adv-x="625" d="M246 768 L340 768 L447 919 L319 919 L246 768 Z M260 0 L365 0 L365 277 L619 700 L501 700 L314 377 L312 377 L125 700 L7 700 L260 277 L260 0 Z " />
<glyph glyph-name="Thorn" unicode="&#xde;" horiz-adv-x="636" d="M316 587 L196 587 L196 700 L92 700 L92 0 L196 0 L196 111 L316 111 C489 111 589 202 589 350 C589 496 489 587 316 587 L316 587 Z M308 207 L196 207 L196 490 L308 490 C427 490 481 441 481 350 C481 256 427 207 308 207 L308 207 Z " />
<glyph glyph-name="germandbls" unicode="&#xdf;" horiz-adv-x="581" d="M323 -12 C457 -12 539 68 539 183 C539 278 482 343 386 357 L386 359 C458 380 500 442 500 523 C500 636 418 712 289 712 C156 712 74 631 74 490 L74 0 L174 0 L174 486 C174 581 214 624 291 624 C362 624 400 587 400 516 C400 441 358 395 270 395 L252 395 L252 304 L306 304 C392 304 437 263 437 190 C437 119 394 76 303 76 C284 76 267 78 248 83 L248 -3 C272 -9 297 -12 323 -12 L323 -12 Z " />
<glyph glyph-name="agrave" unicode="&#xe0;" horiz-adv-x="543" d="M324 545 L255 688 L135 688 L236 545 L324 545 Z M275 485 C151 485 74 422 68 319 L169 319 C173 371 207 401 271 401 C340 401 374 367 374 300 L374 292 L220 270 C109 254 52 202 52 124 C52 44 114 -12 211 -12 C282 -12 344 19 373 63 L376 63 L382 0 L472 0 L472 298 C472 418 402 485 275 485 L275 485 Z M235 69 C183 69 154 92 154 129 C154 167 181 193 251 202 L374 219 L374 202 C374 125 317 69 235 69 L235 69 Z " />
<glyph glyph-name="aacute" unicode="&#xe1;" horiz-adv-x="543" d="M395 688 L275 688 L206 545 L294 545 L395 688 Z M275 485 C151 485 74 422 68 319 L169 319 C173 371 207 401 271 401 C340 401 374 367 374 300 L374 292 L220 270 C109 254 52 202 52 124 C52 44 114 -12 211 -12 C282 -12 344 19 373 63 L376 63 L382 0 L472 0 L472 298 C472 418 402 485 275 485 L275 485 Z M235 69 C183 69 154 92 154 129 C154 167 181 193 251 202 L374 219 L374 202 C374 125 317 69 235 69 L235 69 Z " />
<glyph glyph-name="acircumflex" unicode="&#xe2;" horiz-adv-x="543" d="M267 630 L336 545 L430 545 L313 688 L221 688 L104 545 L198 545 L267 630 Z M275 485 C151 485 74 422 68 319 L169 319 C173 371 207 401 271 401 C340 401 374 367 374 300 L374 292 L220 270 C109 254 52 202 52 124 C52 44 114 -12 211 -12 C282 -12 344 19 373 63 L376 63 L382 0 L472 0 L472 298 C472 418 402 485 275 485 L275 485 Z M235 69 C183 69 154 92 154 129 C154 167 181 193 251 202 L374 219 L374 202 C374 125 317 69 235 69 L235 69 Z " />
<glyph glyph-name="atilde" unicode="&#xe3;" horiz-adv-x="543" d="M204 621 C215 621 227 614 250 590 C281 557 306 543 336 543 C391 543 429 590 429 684 L361 684 C361 632 348 614 330 614 C321 614 308 619 285 644 C255 678 229 691 199 691 C144 691 105 644 105 550 L173 550 C173 602 187 621 204 621 L204 621 Z M275 485 C151 485 74 422 68 319 L169 319 C173 371 207 401 271 401 C340 401 374 367 374 300 L374 292 L220 270 C109 254 52 202 52 124 C52 44 114 -12 211 -12 C282 -12 344 19 373 63 L376 63 L382 0 L472 0 L472 298 C472 418 402 485 275 485 L275 485 Z M235 69 C183 69 154 92 154 129 C154 167 181 193 251 202 L374 219 L374 202 C374 125 317 69 235 69 L235 69 Z " />
<glyph glyph-name="adieresis" unicode="&#xe4;" horiz-adv-x="543" d="M167 554 C202 554 230 581 230 618 C230 654 202 681 167 681 C132 681 103 654 103 618 C103 581 132 554 167 554 L167 554 Z M367 554 C402 554 431 581 431 618 C431 654 402 681 367 681 C332 681 304 654 304 618 C304 581 332 554 367 554 L367 554 Z M275 485 C151 485 74 422 68 319 L169 319 C173 371 207 401 271 401 C340 401 374 367 374 300 L374 292 L220 270 C109 254 52 202 52 124 C52 44 114 -12 211 -12 C282 -12 344 19 373 63 L376 63 L382 0 L472 0 L472 298 C472 418 402 485 275 485 L275 485 Z M235 69 C183 69 154 92 154 129 C154 167 181 193 251 202 L374 219 L374 202 C374 125 317 69 235 69 L235 69 Z " />
<glyph glyph-name="aring" unicode="&#xe5;" horiz-adv-x="543" d="M267 538 C328 538 375 582 375 640 C375 697 328 742 267 742 C206 742 159 697 159 640 C159 582 206 538 267 538 L267 538 Z M267 682 C293 682 309 664 309 640 C309 616 293 598 267 598 C241 598 225 616 225 640 C225 664 241 682 267 682 L267 682 Z M275 485 C151 485 74 422 68 319 L169 319 C173 371 207 401 271 401 C340 401 374 367 374 300 L374 292 L220 270 C109 254 52 202 52 124 C52 44 114 -12 211 -12 C282 -12 344 19 373 63 L376 63 L382 0 L472 0 L472 298 C472 418 402 485 275 485 L275 485 Z M235 69 C183 69 154 92 154 129 C154 167 181 193 251 202 L374 219 L374 202 C374 125 317 69 235 69 L235 69 Z " />
<glyph glyph-name="ae" unicode="&#xe6;" horiz-adv-x="889" d="M845 253 C845 394 751 485 623 485 C554 485 491 458 449 409 L446 409 C416 460 363 485 280 485 C151 485 74 422 68 319 L169 319 C173 371 207 401 277 401 C349 401 384 369 384 295 L384 280 L272 280 C125 280 52 220 52 129 C52 45 115 -12 228 -12 C319 -12 391 25 423 86 L427 86 C464 25 538 -12 619 -12 C726 -12 812 46 838 143 L742 143 C720 98 676 73 621 73 C550 73 491 121 483 213 L842 213 C844 227 845 239 845 253 L845 253 Z M623 401 C686 401 734 365 745 287 L487 287 C504 362 557 401 623 401 L623 401 Z M239 71 C183 71 154 94 154 134 C154 177 188 205 275 205 L384 205 L384 203 C384 127 327 71 239 71 L239 71 Z " />
<glyph glyph-name="ccedilla" unicode="&#xe7;" horiz-adv-x="549" d="M515 178 L416 178 C407 115 354 75 289 75 C209 75 148 137 148 237 C148 336 209 398 290 398 C355 398 402 358 410 295 L513 295 C500 415 413 485 292 485 C148 485 46 383 46 237 C46 109 121 15 236 -7 L229 -102 C298 -102 310 -112 310 -129 C310 -147 295 -160 254 -160 C244 -160 231 -159 217 -157 L217 -224 C233 -227 248 -228 262 -228 C347 -228 391 -190 391 -135 C391 -88 359 -57 304 -51 L305 -12 C419 -6 504 64 515 178 L515 178 Z " />
<glyph glyph-name="egrave" unicode="&#xe8;" horiz-adv-x="560" d="M345 545 L276 688 L156 688 L257 545 L345 545 Z M516 253 C516 394 422 485 290 485 C150 485 45 382 45 234 C45 88 146 -12 289 -12 C398 -12 484 46 510 143 L415 143 C393 98 348 73 292 73 C213 73 154 120 146 213 L513 213 C515 227 516 239 516 253 L516 253 Z M290 403 C357 403 405 366 416 286 L150 286 C166 362 219 403 290 403 L290 403 Z " />
<glyph glyph-name="eacute" unicode="&#xe9;" horiz-adv-x="560" d="M417 688 L297 688 L228 545 L316 545 L417 688 Z M516 253 C516 394 422 485 290 485 C150 485 45 382 45 234 C45 88 146 -12 289 -12 C398 -12 484 46 510 143 L415 143 C393 98 348 73 292 73 C213 73 154 120 146 213 L513 213 C515 227 516 239 516 253 L516 253 Z M290 403 C357 403 405 366 416 286 L150 286 C166 362 219 403 290 403 L290 403 Z " />
<glyph glyph-name="ecircumflex" unicode="&#xea;" horiz-adv-x="560" d="M289 630 L358 545 L452 545 L335 688 L243 688 L126 545 L220 545 L289 630 Z M516 253 C516 394 422 485 290 485 C150 485 45 382 45 234 C45 88 146 -12 289 -12 C398 -12 484 46 510 143 L415 143 C393 98 348 73 292 73 C213 73 154 120 146 213 L513 213 C515 227 516 239 516 253 L516 253 Z M290 403 C357 403 405 366 416 286 L150 286 C166 362 219 403 290 403 L290 403 Z " />
<glyph glyph-name="edieresis" unicode="&#xeb;" horiz-adv-x="560" d="M189 554 C224 554 252 581 252 618 C252 654 224 681 189 681 C154 681 125 654 125 618 C125 581 154 554 189 554 L189 554 Z M389 554 C424 554 453 581 453 618 C453 654 424 681 389 681 C354 681 326 654 326 618 C326 581 354 554 389 554 L389 554 Z M516 253 C516 394 422 485 290 485 C150 485 45 382 45 234 C45 88 146 -12 289 -12 C398 -12 484 46 510 143 L415 143 C393 98 348 73 292 73 C213 73 154 120 146 213 L513 213 C515 227 516 239 516 253 L516 253 Z M290 403 C357 403 405 366 416 286 L150 286 C166 362 219 403 290 403 L290 403 Z " />
<glyph glyph-name="igrave" unicode="&#xec;" horiz-adv-x="249" d="M92 545 L181 545 L132 688 L11 688 L92 545 Z M74 0 L174 0 L174 473 L74 473 L74 0 Z " />
<glyph glyph-name="iacute" unicode="&#xed;" horiz-adv-x="249" d="M63 545 L152 545 L233 688 L112 688 L63 545 Z M74 0 L174 0 L174 473 L74 473 L74 0 Z " />
<glyph glyph-name="icircumflex" unicode="&#xee;" horiz-adv-x="249" d="M165 688 L84 688 L-23 545 L66 545 L125 625 L183 545 L272 545 L165 688 Z M74 0 L174 0 L174 473 L74 473 L74 0 Z " />
<glyph glyph-name="idieresis" unicode="&#xef;" horiz-adv-x="249" d="M35 554 C71 554 99 581 99 619 C99 657 71 684 35 684 C0 684 -28 657 -28 619 C-28 581 0 554 35 554 L35 554 Z M213 554 C249 554 277 581 277 619 C277 657 249 684 213 684 C178 684 150 657 150 619 C150 581 178 554 213 554 L213 554 Z M74 0 L174 0 L174 473 L74 473 L74 0 Z " />
<glyph glyph-name="eth" unicode="&#xf0;" horiz-adv-x="579" d="M388 627 L469 686 L435 731 L343 664 C299 695 247 719 190 734 L162 655 C202 642 238 628 269 610 L189 551 L222 506 L318 576 C367 536 401 484 420 418 C386 458 338 476 283 476 C141 476 45 363 45 234 C45 104 141 -12 290 -12 C370 -12 434 22 475 75 C512 123 534 187 534 276 C534 417 482 541 388 627 L388 627 Z M289 75 C202 75 146 145 146 234 C146 321 202 389 289 389 C376 389 435 324 435 234 C435 145 376 75 289 75 L289 75 Z " />
<glyph glyph-name="ntilde" unicode="&#xf1;" horiz-adv-x="565" d="M223 621 C234 621 246 614 269 590 C300 557 325 543 355 543 C410 543 448 590 448 684 L380 684 C380 632 367 614 349 614 C340 614 327 619 304 644 C274 678 248 691 218 691 C163 691 124 644 124 550 L192 550 C192 602 206 621 223 621 L223 621 Z M326 485 C260 485 204 457 174 411 L171 411 L165 473 L74 473 L74 0 L174 0 L174 257 C174 350 222 396 295 396 C359 396 395 360 395 263 L395 0 L495 0 L495 298 C495 418 428 485 326 485 L326 485 Z " />
<glyph glyph-name="ograve" unicode="&#xf2;" horiz-adv-x="580" d="M258 545 L346 545 L277 688 L157 688 L258 545 Z M290 -12 C431 -12 535 90 535 237 C535 383 431 485 290 485 C149 485 45 383 45 237 C45 90 149 -12 290 -12 L290 -12 Z M290 75 C207 75 147 139 147 237 C147 334 207 398 290 398 C373 398 433 334 433 237 C433 139 373 75 290 75 L290 75 Z " />
<glyph glyph-name="oacute" unicode="&#xf3;" horiz-adv-x="580" d="M229 545 L317 545 L418 688 L298 688 L229 545 Z M290 -12 C431 -12 535 90 535 237 C535 383 431 485 290 485 C149 485 45 383 45 237 C45 90 149 -12 290 -12 L290 -12 Z M290 75 C207 75 147 139 147 237 C147 334 207 398 290 398 C373 398 433 334 433 237 C433 139 373 75 290 75 L290 75 Z " />
<glyph glyph-name="ocircumflex" unicode="&#xf4;" horiz-adv-x="580" d="M290 630 L359 545 L453 545 L336 688 L244 688 L127 545 L221 545 L290 630 Z M290 485 C149 485 45 383 45 237 C45 90 149 -12 290 -12 C431 -12 535 90 535 237 C535 383 431 485 290 485 L290 485 Z M290 75 C207 75 147 139 147 237 C147 334 207 398 290 398 C373 398 433 334 433 237 C433 139 373 75 290 75 L290 75 Z " />
<glyph glyph-name="otilde" unicode="&#xf5;" horiz-adv-x="580" d="M359 543 C414 543 452 590 452 684 L384 684 C384 632 371 614 353 614 C344 614 331 619 308 644 C278 678 252 691 222 691 C167 691 128 644 128 550 L196 550 C196 602 210 621 227 621 C238 621 250 614 273 590 C304 557 329 543 359 543 L359 543 Z M290 -12 C431 -12 535 90 535 237 C535 383 431 485 290 485 C149 485 45 383 45 237 C45 90 149 -12 290 -12 L290 -12 Z M290 75 C207 75 147 139 147 237 C147 334 207 398 290 398 C373 398 433 334 433 237 C433 139 373 75 290 75 L290 75 Z " />
<glyph glyph-name="odieresis" unicode="&#xf6;" horiz-adv-x="580" d="M190 554 C225 554 253 581 253 618 C253 654 225 681 190 681 C155 681 126 654 126 618 C126 581 155 554 190 554 L190 554 Z M390 554 C425 554 454 581 454 618 C454 654 425 681 390 681 C355 681 327 654 327 618 C327 581 355 554 390 554 L390 554 Z M290 -12 C431 -12 535 90 535 237 C535 383 431 485 290 485 C149 485 45 383 45 237 C45 90 149 -12 290 -12 L290 -12 Z M290 75 C207 75 147 139 147 237 C147 334 207 398 290 398 C373 398 433 334 433 237 C433 139 373 75 290 75 L290 75 Z " />
<glyph glyph-name="divide" unicode="&#xf7;" horiz-adv-x="650" d="M325 433 C364 433 391 461 391 497 C391 534 364 562 325 562 C285 562 258 534 258 497 C258 461 285 433 325 433 L325 433 Z M103 272 L547 272 L547 362 L103 362 L103 272 Z M325 72 C364 72 391 100 391 137 C391 173 364 201 325 201 C285 201 258 173 258 137 C258 100 285 72 325 72 L325 72 Z " />
<glyph glyph-name="oslash" unicode="&#xf8;" horiz-adv-x="587" d="M560 452 L510 503 L444 437 C404 468 352 485 294 485 C153 485 49 383 49 237 C49 179 65 127 94 87 L27 20 L77 -31 L144 36 C184 5 236 -12 294 -12 C435 -12 538 90 538 237 C538 295 522 345 494 386 L560 452 Z M294 403 C329 403 360 392 384 372 L164 152 C153 176 147 205 147 237 C147 337 208 403 294 403 L294 403 Z M294 71 C259 71 228 82 204 102 L424 321 C435 297 441 269 441 237 C441 136 379 71 294 71 L294 71 Z " />
<glyph glyph-name="ugrave" unicode="&#xf9;" horiz-adv-x="559" d="M337 545 L268 688 L148 688 L249 545 L337 545 Z M385 473 L385 217 C385 123 337 78 267 78 C206 78 170 113 170 211 L170 473 L70 473 L70 175 C70 54 139 -12 236 -12 C299 -12 356 16 386 62 L389 62 L395 0 L485 0 L485 473 L385 473 Z " />
<glyph glyph-name="uacute" unicode="&#xfa;" horiz-adv-x="559" d="M408 688 L288 688 L219 545 L307 545 L408 688 Z M385 473 L385 217 C385 123 337 78 267 78 C206 78 170 113 170 211 L170 473 L70 473 L70 175 C70 54 139 -12 236 -12 C299 -12 356 16 386 62 L389 62 L395 0 L485 0 L485 473 L385 473 Z " />
<glyph glyph-name="ucircumflex" unicode="&#xfb;" horiz-adv-x="559" d="M280 630 L349 545 L443 545 L326 688 L234 688 L117 545 L211 545 L280 630 Z M385 473 L385 217 C385 123 337 78 267 78 C206 78 170 113 170 211 L170 473 L70 473 L70 175 C70 54 139 -12 236 -12 C299 -12 356 16 386 62 L389 62 L395 0 L485 0 L485 473 L385 473 Z " />
<glyph glyph-name="udieresis" unicode="&#xfc;" horiz-adv-x="559" d="M180 554 C215 554 243 581 243 618 C243 654 215 681 180 681 C145 681 116 654 116 618 C116 581 145 554 180 554 L180 554 Z M380 554 C415 554 444 581 444 618 C444 654 415 681 380 681 C345 681 317 654 317 618 C317 581 345 554 380 554 L380 554 Z M385 473 L385 217 C385 123 337 78 267 78 C206 78 170 113 170 211 L170 473 L70 473 L70 175 C70 54 139 -12 236 -12 C299 -12 356 16 386 62 L389 62 L395 0 L485 0 L485 473 L385 473 Z " />
<glyph glyph-name="yacute" unicode="&#xfd;" horiz-adv-x="505" d="M381 688 L261 688 L192 545 L280 545 L381 688 Z M390 473 L254 120 L251 120 L118 473 L11 473 L201 -2 L112 -224 L215 -224 L494 473 L390 473 Z " />
<glyph glyph-name="thorn" unicode="&#xfe;" horiz-adv-x="599" d="M329 485 C263 485 204 456 178 413 L174 413 L174 700 L74 700 L74 -224 L174 -224 L174 60 L178 60 C204 16 265 -12 329 -12 C455 -12 552 90 552 237 C552 384 456 485 329 485 L329 485 Z M310 76 C229 76 170 136 170 237 C170 337 229 398 310 398 C392 398 450 337 450 237 C450 136 392 76 310 76 L310 76 Z " />
<glyph glyph-name="ydieresis" unicode="&#xff;" horiz-adv-x="505" d="M153 554 C188 554 216 581 216 618 C216 654 188 681 153 681 C118 681 89 654 89 618 C89 581 118 554 153 554 L153 554 Z M353 554 C388 554 417 581 417 618 C417 654 388 681 353 681 C318 681 290 654 290 618 C290 581 318 554 353 554 L353 554 Z M390 473 L254 120 L251 120 L118 473 L11 473 L201 -2 L112 -224 L215 -224 L494 473 L390 473 Z " />
<glyph glyph-name="Amacron" unicode="&#x100;" horiz-adv-x="653" d="M469 879 L185 879 L185 799 L469 799 L469 879 Z M531 0 L639 0 L384 700 L269 700 L14 0 L121 0 L180 167 L472 167 L531 0 Z M212 257 L325 577 L328 577 L441 257 L212 257 Z " />
<glyph glyph-name="amacron" unicode="&#x101;" horiz-adv-x="543" d="M401 650 L133 650 L133 574 L401 574 L401 650 Z M275 485 C151 485 74 422 68 319 L169 319 C173 371 207 401 271 401 C340 401 374 367 374 300 L374 292 L220 270 C109 254 52 202 52 124 C52 44 114 -12 211 -12 C282 -12 344 19 373 63 L376 63 L382 0 L472 0 L472 298 C472 418 402 485 275 485 L275 485 Z M235 69 C183 69 154 92 154 129 C154 167 181 193 251 202 L374 219 L374 202 C374 125 317 69 235 69 L235 69 Z " />
<glyph glyph-name="Abreve" unicode="&#x102;" horiz-adv-x="653" d="M327 768 C420 768 474 822 474 910 L474 916 L390 916 C390 861 366 836 327 836 C288 836 264 861 264 916 L180 916 L180 910 C180 822 234 768 327 768 L327 768 Z M531 0 L639 0 L384 700 L269 700 L14 0 L121 0 L180 167 L472 167 L531 0 Z M212 257 L325 577 L328 577 L441 257 L212 257 Z " />
<glyph glyph-name="abreve" unicode="&#x103;" horiz-adv-x="543" d="M267 545 C355 545 406 596 406 679 L406 685 L327 685 C327 633 304 610 267 610 C230 610 207 633 207 685 L128 685 L128 679 C128 596 179 545 267 545 L267 545 Z M275 485 C151 485 74 422 68 319 L169 319 C173 371 207 401 271 401 C340 401 374 367 374 300 L374 292 L220 270 C109 254 52 202 52 124 C52 44 114 -12 211 -12 C282 -12 344 19 373 63 L376 63 L382 0 L472 0 L472 298 C472 418 402 485 275 485 L275 485 Z M235 69 C183 69 154 92 154 129 C154 167 181 193 251 202 L374 219 L374 202 C374 125 317 69 235 69 L235 69 Z " />
<glyph glyph-name="Aogonek" unicode="&#x104;" horiz-adv-x="653" d="M558 -106 C558 -77 577 -46 639 0 L384 700 L269 700 L14 0 L121 0 L180 167 L472 167 L531 0 L554 0 C496 -30 466 -77 466 -126 C466 -188 514 -228 589 -228 C607 -228 624 -226 639 -223 L639 -141 C627 -145 615 -146 606 -146 C574 -146 558 -132 558 -106 L558 -106 Z M212 257 L325 577 L328 577 L441 257 L212 257 Z " />
<glyph glyph-name="aogonek" unicode="&#x105;" horiz-adv-x="543" d="M472 0 L472 298 C472 418 402 485 275 485 C151 485 74 422 68 319 L169 319 C173 371 207 401 271 401 C340 401 374 367 374 300 L374 292 L220 270 C109 254 52 202 52 124 C52 44 114 -12 211 -12 C282 -12 344 19 373 63 L376 63 L382 0 L392 0 C338 -28 310 -73 310 -119 C310 -178 354 -215 425 -215 C442 -215 458 -213 472 -210 L472 -133 C461 -136 450 -137 441 -137 C411 -137 396 -125 396 -100 C396 -73 414 -43 472 0 L472 0 Z M235 69 C183 69 154 92 154 129 C154 167 181 193 251 202 L374 219 L374 202 C374 125 317 69 235 69 L235 69 Z " />
<glyph glyph-name="Cacute" unicode="&#x106;" horiz-adv-x="760" d="M327 768 L421 768 L528 919 L400 919 L327 768 Z M394 -12 C565 -12 699 96 715 259 L610 259 C590 148 508 84 398 84 C261 84 158 186 158 350 C158 514 261 616 398 616 C505 616 584 555 605 441 L713 441 C697 603 564 712 395 712 C199 712 50 564 50 350 C50 136 198 -12 394 -12 L394 -12 Z " />
<glyph glyph-name="cacute" unicode="&#x107;" horiz-adv-x="549" d="M226 545 L314 545 L415 688 L295 688 L226 545 Z M289 -12 C411 -12 503 59 515 178 L416 178 C407 115 354 75 289 75 C209 75 148 137 148 237 C148 336 209 398 290 398 C355 398 402 358 410 295 L513 295 C500 415 413 485 292 485 C148 485 46 383 46 237 C46 90 145 -12 289 -12 L289 -12 Z " />
<glyph glyph-name="Ccircumflex" unicode="&#x108;" horiz-adv-x="760" d="M394 857 L467 768 L566 768 L442 919 L346 919 L222 768 L321 768 L394 857 Z M610 259 C590 148 508 84 398 84 C261 84 158 186 158 350 C158 514 261 616 398 616 C505 616 584 555 605 441 L713 441 C697 603 564 712 395 712 C199 712 50 564 50 350 C50 136 198 -12 394 -12 C565 -12 699 96 715 259 L610 259 Z " />
<glyph glyph-name="ccircumflex" unicode="&#x109;" horiz-adv-x="549" d="M287 630 L356 545 L450 545 L333 688 L241 688 L124 545 L218 545 L287 630 Z M416 178 C407 115 354 75 289 75 C209 75 148 137 148 237 C148 336 209 398 290 398 C355 398 402 358 410 295 L513 295 C500 415 413 485 292 485 C148 485 46 383 46 237 C46 90 145 -12 289 -12 C411 -12 503 59 515 178 L416 178 Z " />
<glyph glyph-name="Cdotaccent" unicode="&#x10a;" horiz-adv-x="760" d="M394 776 C432 776 463 806 463 845 C463 884 432 913 394 913 C356 913 325 884 325 845 C325 806 356 776 394 776 L394 776 Z M394 -12 C565 -12 699 96 715 259 L610 259 C590 148 508 84 398 84 C261 84 158 186 158 350 C158 514 261 616 398 616 C505 616 584 555 605 441 L713 441 C697 603 564 712 395 712 C199 712 50 564 50 350 C50 136 198 -12 394 -12 L394 -12 Z " />
<glyph glyph-name="cdotaccent" unicode="&#x10b;" horiz-adv-x="549" d="M287 553 C323 553 352 581 352 618 C352 654 323 682 287 682 C251 682 222 654 222 618 C222 581 251 553 287 553 L287 553 Z M289 -12 C411 -12 503 59 515 178 L416 178 C407 115 354 75 289 75 C209 75 148 137 148 237 C148 336 209 398 290 398 C355 398 402 358 410 295 L513 295 C500 415 413 485 292 485 C148 485 46 383 46 237 C46 90 145 -12 289 -12 L289 -12 Z " />
<glyph glyph-name="Ccaron" unicode="&#x10c;" horiz-adv-x="760" d="M442 768 L566 919 L467 919 L394 831 L321 919 L222 919 L346 768 L442 768 Z M610 259 C590 148 508 84 398 84 C261 84 158 186 158 350 C158 514 261 616 398 616 C505 616 584 555 605 441 L713 441 C697 603 564 712 395 712 C199 712 50 564 50 350 C50 136 198 -12 394 -12 C565 -12 699 96 715 259 L610 259 Z " />
<glyph glyph-name="ccaron" unicode="&#x10d;" horiz-adv-x="549" d="M333 545 L450 688 L356 688 L287 604 L218 688 L124 688 L241 545 L333 545 Z M416 178 C407 115 354 75 289 75 C209 75 148 137 148 237 C148 336 209 398 290 398 C355 398 402 358 410 295 L513 295 C500 415 413 485 292 485 C148 485 46 383 46 237 C46 90 145 -12 289 -12 C411 -12 503 59 515 178 L416 178 Z " />
<glyph glyph-name="Dcaron" unicode="&#x10e;" horiz-adv-x="693" d="M363 768 L487 919 L388 919 L315 831 L242 919 L143 919 L267 768 L363 768 Z M269 700 L92 700 L92 0 L269 0 C492 0 641 134 641 350 C641 566 492 700 269 700 L269 700 Z M274 96 L196 96 L196 604 L274 604 C431 604 534 514 534 350 C534 186 431 96 274 96 L274 96 Z " />
<glyph glyph-name="dcaron" unicode="&#x10f;" horiz-adv-x="684" d="M658 712 C621 712 593 684 593 650 C593 614 619 588 654 588 C660 588 665 589 670 590 C667 558 649 530 607 493 L640 458 C702 505 732 560 732 617 C733 677 701 712 658 712 L658 712 Z M424 413 L421 413 C394 457 334 485 269 485 C144 485 47 384 47 237 C47 90 143 -12 269 -12 C338 -12 399 18 425 62 L428 62 L434 0 L524 0 L524 700 L424 700 L424 413 Z M288 76 C205 76 149 136 149 237 C149 337 205 398 288 398 C373 398 428 337 428 237 C428 136 373 76 288 76 L288 76 Z " />
<glyph glyph-name="Dcroat" unicode="&#x110;" horiz-adv-x="701" d="M278 700 L100 700 L100 391 L-1 391 L-1 309 L100 309 L100 0 L278 0 C501 0 650 134 650 350 C650 566 501 700 278 700 L278 700 Z M283 96 L205 96 L205 309 L356 309 L356 391 L205 391 L205 604 L283 604 C439 604 543 514 543 350 C543 186 439 96 283 96 L283 96 Z " />
<glyph glyph-name="dcroat" unicode="&#x111;" horiz-adv-x="599" d="M620 615 L524 615 L524 700 L424 700 L424 615 L282 615 L282 543 L424 543 L424 413 L421 413 C394 457 334 485 269 485 C144 485 47 384 47 237 C47 90 143 -12 269 -12 C338 -12 399 18 425 62 L428 62 L434 0 L524 0 L524 543 L620 543 L620 615 Z M288 76 C205 76 149 136 149 237 C149 337 205 398 288 398 C373 398 428 337 428 237 C428 136 373 76 288 76 L288 76 Z " />
<glyph glyph-name="Emacron" unicode="&#x112;" horiz-adv-x="584" d="M448 879 L164 879 L164 799 L448 799 L448 879 Z M521 604 L521 700 L92 700 L92 0 L521 0 L521 96 L196 96 L196 304 L492 304 L492 399 L196 399 L196 604 L521 604 Z " />
<glyph glyph-name="emacron" unicode="&#x113;" horiz-adv-x="560" d="M423 650 L155 650 L155 574 L423 574 L423 650 Z M516 253 C516 394 422 485 290 485 C150 485 45 382 45 234 C45 88 146 -12 289 -12 C398 -12 484 46 510 143 L415 143 C393 98 348 73 292 73 C213 73 154 120 146 213 L513 213 C515 227 516 239 516 253 L516 253 Z M290 403 C357 403 405 366 416 286 L150 286 C166 362 219 403 290 403 L290 403 Z " />
<glyph glyph-name="Ebreve" unicode="&#x114;" horiz-adv-x="584" d="M306 768 C399 768 453 822 453 910 L453 916 L369 916 C369 861 345 836 306 836 C267 836 243 861 243 916 L159 916 L159 910 C159 822 213 768 306 768 L306 768 Z M521 604 L521 700 L92 700 L92 0 L521 0 L521 96 L196 96 L196 304 L492 304 L492 399 L196 399 L196 604 L521 604 Z " />
<glyph glyph-name="ebreve" unicode="&#x115;" horiz-adv-x="560" d="M289 545 C377 545 428 596 428 679 L428 685 L349 685 C349 633 326 610 289 610 C252 610 229 633 229 685 L150 685 L150 679 C150 596 201 545 289 545 L289 545 Z M516 253 C516 394 422 485 290 485 C150 485 45 382 45 234 C45 88 146 -12 289 -12 C398 -12 484 46 510 143 L415 143 C393 98 348 73 292 73 C213 73 154 120 146 213 L513 213 C515 227 516 239 516 253 L516 253 Z M290 403 C357 403 405 366 416 286 L150 286 C166 362 219 403 290 403 L290 403 Z " />
<glyph glyph-name="Edotaccent" unicode="&#x116;" horiz-adv-x="584" d="M306 776 C344 776 375 806 375 845 C375 884 344 913 306 913 C268 913 237 884 237 845 C237 806 268 776 306 776 L306 776 Z M521 604 L521 700 L92 700 L92 0 L521 0 L521 96 L196 96 L196 304 L492 304 L492 399 L196 399 L196 604 L521 604 Z " />
<glyph glyph-name="edotaccent" unicode="&#x117;" horiz-adv-x="560" d="M289 553 C325 553 354 581 354 618 C354 654 325 682 289 682 C253 682 224 654 224 618 C224 581 253 553 289 553 L289 553 Z M516 253 C516 394 422 485 290 485 C150 485 45 382 45 234 C45 88 146 -12 289 -12 C398 -12 484 46 510 143 L415 143 C393 98 348 73 292 73 C213 73 154 120 146 213 L513 213 C515 227 516 239 516 253 L516 253 Z M290 403 C357 403 405 366 416 286 L150 286 C166 362 219 403 290 403 L290 403 Z " />
<glyph glyph-name="Eogonek" unicode="&#x118;" horiz-adv-x="584" d="M521 604 L521 700 L92 700 L92 0 L436 0 C378 -30 348 -77 348 -126 C348 -188 396 -228 471 -228 C489 -228 506 -226 521 -223 L521 -141 C509 -145 497 -146 488 -146 C456 -146 440 -132 440 -106 C440 -77 459 -46 521 0 L521 96 L196 96 L196 304 L492 304 L492 399 L196 399 L196 604 L521 604 Z " />
<glyph glyph-name="eogonek" unicode="&#x119;" horiz-adv-x="560" d="M516 253 C516 394 422 485 290 485 C150 485 45 382 45 234 C45 93 140 -6 276 -12 C238 -39 219 -77 219 -115 C219 -174 263 -211 334 -211 C351 -211 367 -209 381 -206 L381 -129 C370 -132 359 -133 350 -133 C320 -133 305 -121 305 -96 C305 -69 323 -39 380 3 C444 26 492 75 510 143 L415 143 C393 98 348 73 292 73 C213 73 154 120 146 213 L513 213 C515 227 516 239 516 253 L516 253 Z M290 403 C357 403 405 366 416 286 L150 286 C166 362 219 403 290 403 L290 403 Z " />
<glyph glyph-name="Ecaron" unicode="&#x11a;" horiz-adv-x="584" d="M354 768 L478 919 L379 919 L306 831 L233 919 L134 919 L258 768 L354 768 Z M521 604 L521 700 L92 700 L92 0 L521 0 L521 96 L196 96 L196 304 L492 304 L492 399 L196 399 L196 604 L521 604 Z " />
<glyph glyph-name="ecaron" unicode="&#x11b;" horiz-adv-x="560" d="M335 545 L452 688 L358 688 L289 604 L220 688 L126 688 L243 545 L335 545 Z M516 253 C516 394 422 485 290 485 C150 485 45 382 45 234 C45 88 146 -12 289 -12 C398 -12 484 46 510 143 L415 143 C393 98 348 73 292 73 C213 73 154 120 146 213 L513 213 C515 227 516 239 516 253 L516 253 Z M290 403 C357 403 405 366 416 286 L150 286 C166 362 219 403 290 403 L290 403 Z " />
<glyph glyph-name="Gcircumflex" unicode="&#x11c;" horiz-adv-x="779" d="M400 857 L473 768 L572 768 L448 919 L352 919 L228 768 L327 768 L400 857 Z M410 276 L617 276 C601 155 514 83 398 83 C260 83 158 185 158 350 C158 514 259 617 402 617 C508 617 585 560 603 467 L713 467 C689 618 564 712 401 712 C198 712 50 564 50 349 C50 134 197 -12 387 -12 C486 -12 571 28 618 99 L621 99 L631 0 L713 0 L713 368 L410 368 L410 276 Z " />
<glyph glyph-name="gcircumflex" unicode="&#x11d;" horiz-adv-x="501" d="M260 630 L329 545 L423 545 L306 688 L214 688 L97 545 L191 545 L260 630 Z M490 485 L253 485 C139 485 63 413 63 313 C63 264 81 222 112 192 C69 176 41 140 41 94 C41 58 58 30 86 11 C44 -10 21 -47 21 -94 C21 -181 97 -236 248 -236 C414 -236 490 -172 490 -70 C490 20 434 71 332 71 L186 71 C150 71 131 85 131 110 C131 131 146 149 171 154 C195 145 223 140 253 140 C368 140 443 212 443 313 C443 354 430 391 407 419 L490 427 L490 485 Z M253 218 C192 218 155 256 155 313 C155 371 192 409 253 409 C314 409 352 371 352 313 C352 256 314 218 253 218 L253 218 Z M313 -15 C373 -15 396 -36 396 -74 C396 -124 355 -153 254 -153 C156 -153 116 -126 116 -80 C116 -42 144 -15 185 -15 L313 -15 Z " />
<glyph glyph-name="Gbreve" unicode="&#x11e;" horiz-adv-x="779" d="M400 768 C493 768 547 822 547 910 L547 916 L463 916 C463 861 439 836 400 836 C361 836 337 861 337 916 L253 916 L253 910 C253 822 307 768 400 768 L400 768 Z M410 276 L617 276 C601 155 514 83 398 83 C260 83 158 185 158 350 C158 514 259 617 402 617 C508 617 585 560 603 467 L713 467 C689 618 564 712 401 712 C198 712 50 564 50 349 C50 134 197 -12 387 -12 C486 -12 571 28 618 99 L621 99 L631 0 L713 0 L713 368 L410 368 L410 276 Z " />
<glyph glyph-name="gbreve" unicode="&#x11f;" horiz-adv-x="501" d="M260 545 C348 545 399 596 399 679 L399 685 L320 685 C320 633 297 610 260 610 C223 610 200 633 200 685 L121 685 L121 679 C121 596 172 545 260 545 L260 545 Z M490 485 L253 485 C139 485 63 413 63 313 C63 264 81 222 112 192 C69 176 41 140 41 94 C41 58 58 30 86 11 C44 -10 21 -47 21 -94 C21 -181 97 -236 248 -236 C414 -236 490 -172 490 -70 C490 20 434 71 332 71 L186 71 C150 71 131 85 131 110 C131 131 146 149 171 154 C195 145 223 140 253 140 C368 140 443 212 443 313 C443 354 430 391 407 419 L490 427 L490 485 Z M253 218 C192 218 155 256 155 313 C155 371 192 409 253 409 C314 409 352 371 352 313 C352 256 314 218 253 218 L253 218 Z M313 -15 C373 -15 396 -36 396 -74 C396 -124 355 -153 254 -153 C156 -153 116 -126 116 -80 C116 -42 144 -15 185 -15 L313 -15 Z " />
<glyph glyph-name="Gdotaccent" unicode="&#x120;" horiz-adv-x="779" d="M400 776 C438 776 469 806 469 845 C469 884 438 913 400 913 C362 913 331 884 331 845 C331 806 362 776 400 776 L400 776 Z M410 276 L617 276 C601 155 514 83 398 83 C260 83 158 185 158 350 C158 514 259 617 402 617 C508 617 585 560 603 467 L713 467 C689 618 564 712 401 712 C198 712 50 564 50 349 C50 134 197 -12 387 -12 C486 -12 571 28 618 99 L621 99 L631 0 L713 0 L713 368 L410 368 L410 276 Z " />
<glyph glyph-name="gdotaccent" unicode="&#x121;" horiz-adv-x="501" d="M260 553 C296 553 325 581 325 618 C325 654 296 682 260 682 C224 682 195 654 195 618 C195 581 224 553 260 553 L260 553 Z M490 485 L253 485 C139 485 63 413 63 313 C63 264 81 222 112 192 C69 176 41 140 41 94 C41 58 58 30 86 11 C44 -10 21 -47 21 -94 C21 -181 97 -236 248 -236 C414 -236 490 -172 490 -70 C490 20 434 71 332 71 L186 71 C150 71 131 85 131 110 C131 131 146 149 171 154 C195 145 223 140 253 140 C368 140 443 212 443 313 C443 354 430 391 407 419 L490 427 L490 485 Z M253 218 C192 218 155 256 155 313 C155 371 192 409 253 409 C314 409 352 371 352 313 C352 256 314 218 253 218 L253 218 Z M313 -15 C373 -15 396 -36 396 -74 C396 -124 355 -153 254 -153 C156 -153 116 -126 116 -80 C116 -42 144 -15 185 -15 L313 -15 Z " />
<glyph glyph-name="uni0122" unicode="&#x122;" horiz-adv-x="779" d="M410 276 L617 276 C601 155 514 83 398 83 C260 83 158 185 158 350 C158 514 259 617 402 617 C508 617 585 560 603 467 L713 467 C689 618 564 712 401 712 C198 712 50 564 50 349 C50 134 197 -12 387 -12 C486 -12 571 28 618 99 L621 99 L631 0 L713 0 L713 368 L410 368 L410 276 Z M392 -76 C354 -76 326 -104 326 -138 C326 -173 352 -200 389 -200 C394 -200 399 -199 404 -198 C402 -218 395 -238 382 -258 L441 -258 C460 -229 468 -198 468 -171 C468 -111 436 -76 392 -76 L392 -76 Z " />
<glyph glyph-name="uni0123" unicode="&#x123;" horiz-adv-x="501" d="M265 549 C303 549 331 577 331 611 C331 646 305 673 268 673 C263 673 258 672 253 671 C255 692 262 711 275 731 L216 731 C197 702 189 672 189 644 C189 584 221 549 265 549 L265 549 Z M490 485 L253 485 C139 485 63 413 63 313 C63 264 81 222 112 192 C69 176 41 140 41 94 C41 58 58 30 86 11 C44 -10 21 -47 21 -94 C21 -181 97 -236 248 -236 C414 -236 490 -172 490 -70 C490 20 434 71 332 71 L186 71 C150 71 131 85 131 110 C131 131 146 149 171 154 C195 145 223 140 253 140 C368 140 443 212 443 313 C443 354 430 391 407 419 L490 427 L490 485 Z M253 218 C192 218 155 256 155 313 C155 371 192 409 253 409 C314 409 352 371 352 313 C352 256 314 218 253 218 L253 218 Z M313 -15 C373 -15 396 -36 396 -74 C396 -124 355 -153 254 -153 C156 -153 116 -126 116 -80 C116 -42 144 -15 185 -15 L313 -15 Z " />
<glyph glyph-name="Hcircumflex" unicode="&#x124;" horiz-adv-x="710" d="M355 857 L428 768 L527 768 L403 919 L307 919 L183 768 L282 768 L355 857 Z M513 700 L513 389 L196 389 L196 700 L92 700 L92 0 L196 0 L196 292 L513 292 L513 0 L618 0 L618 700 L513 700 Z " />
<glyph glyph-name="hcircumflex" unicode="&#x125;" horiz-adv-x="565" d="M197 768 L296 768 L172 919 L76 919 L-48 768 L51 768 L124 857 L197 768 Z M326 485 C261 485 209 458 178 412 L174 412 L174 700 L74 700 L74 0 L174 0 L174 257 C174 350 222 396 295 396 C359 396 395 360 395 263 L395 0 L495 0 L495 298 C495 418 429 485 326 485 L326 485 Z " />
<glyph glyph-name="Hbar" unicode="&#x126;" horiz-adv-x="740" d="M723 571 L633 571 L633 700 L528 700 L528 571 L211 571 L211 700 L107 700 L107 571 L17 571 L17 494 L107 494 L107 0 L211 0 L211 292 L528 292 L528 0 L633 0 L633 494 L723 494 L723 571 Z M528 389 L211 389 L211 494 L528 494 L528 389 Z " />
<glyph glyph-name="hbar" unicode="&#x127;" horiz-adv-x="565" d="M326 485 C261 485 209 458 178 412 L174 412 L174 543 L316 543 L316 615 L174 615 L174 700 L74 700 L74 615 L-21 615 L-21 543 L74 543 L74 0 L174 0 L174 257 C174 350 222 396 295 396 C359 396 395 360 395 263 L395 0 L495 0 L495 298 C495 418 429 485 326 485 L326 485 Z " />
<glyph glyph-name="Itilde" unicode="&#x128;" horiz-adv-x="288" d="M217 766 C275 766 316 815 316 915 L244 915 C244 860 229 840 211 840 C201 840 187 847 163 872 C130 908 104 922 72 922 C13 922 -28 873 -28 773 L45 773 C45 828 60 848 78 848 C89 848 101 841 126 816 C159 781 185 766 217 766 L217 766 Z M92 0 L196 0 L196 700 L92 700 L92 0 Z " />
<glyph glyph-name="itilde" unicode="&#x129;" horiz-adv-x="249" d="M191 543 C242 543 278 590 278 684 L214 684 C214 632 200 614 185 614 C176 614 165 619 143 644 C112 678 88 691 58 691 C7 691 -29 644 -29 550 L35 550 C35 602 49 621 64 621 C74 621 85 614 107 590 C139 557 161 543 191 543 L191 543 Z M74 0 L174 0 L174 473 L74 473 L74 0 Z " />
<glyph glyph-name="Imacron" unicode="&#x12a;" horiz-adv-x="288" d="M2 799 L286 799 L286 879 L2 879 L2 799 Z M92 0 L196 0 L196 700 L92 700 L92 0 Z " />
<glyph glyph-name="imacron" unicode="&#x12b;" horiz-adv-x="249" d="M0 574 L249 574 L249 650 L0 650 L0 574 Z M74 0 L174 0 L174 473 L74 473 L74 0 Z " />
<glyph glyph-name="Ibreve" unicode="&#x12c;" horiz-adv-x="288" d="M144 768 C237 768 291 822 291 910 L291 916 L207 916 C207 861 183 836 144 836 C105 836 81 861 81 916 L-3 916 L-3 910 C-3 822 51 768 144 768 L144 768 Z M92 0 L196 0 L196 700 L92 700 L92 0 Z " />
<glyph glyph-name="ibreve" unicode="&#x12d;" horiz-adv-x="249" d="M124 545 C209 545 255 596 255 679 L255 685 L181 685 C181 633 158 610 124 610 C91 610 68 633 68 685 L-6 685 L-6 679 C-6 596 40 545 124 545 L124 545 Z M74 0 L174 0 L174 473 L74 473 L74 0 Z " />
<glyph glyph-name="Iogonek" unicode="&#x12e;" horiz-adv-x="288" d="M196 0 L196 700 L92 700 L92 0 L127 0 C77 -29 48 -76 48 -123 C48 -178 90 -215 154 -215 C169 -215 183 -213 196 -210 L196 -133 C187 -136 178 -137 171 -137 C147 -137 133 -126 133 -99 C133 -75 146 -49 196 0 L196 0 Z " />
<glyph glyph-name="iogonek" unicode="&#x12f;" horiz-adv-x="249" d="M124 553 C160 553 189 581 189 618 C189 654 160 682 124 682 C88 682 59 654 59 618 C59 581 88 553 124 553 L124 553 Z M74 0 L105 0 C55 -29 26 -76 26 -123 C26 -178 68 -215 132 -215 C147 -215 161 -213 174 -210 L174 -133 C165 -136 156 -137 149 -137 C125 -137 111 -126 111 -99 C111 -75 124 -49 174 0 L174 473 L74 473 L74 0 Z " />
<glyph glyph-name="Idotaccent" unicode="&#x130;" horiz-adv-x="288" d="M144 776 C182 776 213 806 213 845 C213 884 182 913 144 913 C106 913 75 884 75 845 C75 806 106 776 144 776 L144 776 Z M92 0 L196 0 L196 700 L92 700 L92 0 Z " />
<glyph glyph-name="dotlessi" unicode="&#x131;" horiz-adv-x="249" d="M74 0 L174 0 L174 473 L74 473 L74 0 Z " />
<glyph glyph-name="Jcircumflex" unicode="&#x134;" horiz-adv-x="604" d="M322 857 L395 768 L494 768 L370 919 L274 919 L150 768 L249 768 L322 857 Z M127 700 L127 604 L417 604 L417 246 C417 134 369 84 282 84 C194 84 146 132 146 246 L146 320 L41 320 L41 240 C41 71 130 -12 282 -12 C434 -12 522 71 522 240 L522 700 L127 700 Z " />
<glyph glyph-name="jcircumflex" unicode="&#x135;" horiz-adv-x="249" d="M165 688 L84 688 L-23 545 L66 545 L125 625 L183 545 L272 545 L165 688 Z M74 -75 C74 -131 56 -149 10 -149 C-1 -149 -12 -148 -20 -147 L-20 -231 C-6 -234 11 -236 32 -236 C130 -236 174 -190 174 -78 L174 473 L74 473 L74 -75 Z " />
<glyph glyph-name="uni0136" unicode="&#x136;" horiz-adv-x="636" d="M302 353 L619 700 L491 700 L200 380 L196 380 L196 700 L92 700 L92 0 L196 0 L196 315 L200 315 L490 0 L626 0 L302 353 Z M332 -76 C294 -76 266 -104 266 -138 C266 -173 292 -200 329 -200 C334 -200 339 -199 344 -198 C342 -218 335 -238 322 -258 L381 -258 C400 -229 408 -198 408 -171 C408 -111 376 -76 332 -76 L332 -76 Z " />
<glyph glyph-name="uni0137" unicode="&#x137;" horiz-adv-x="515" d="M277 249 L501 473 L375 473 L177 276 L174 276 L174 700 L74 700 L74 0 L174 0 L174 218 L178 218 L379 0 L507 0 L277 249 Z M264 -76 C225 -76 198 -104 198 -138 C198 -173 223 -200 260 -200 C265 -200 270 -199 275 -198 C273 -219 266 -238 253 -258 L313 -258 C331 -229 339 -199 339 -171 C339 -111 307 -76 264 -76 L264 -76 Z " />
<glyph glyph-name="Lacute" unicode="&#x139;" horiz-adv-x="538" d="M278 919 L150 919 L77 768 L171 768 L278 919 Z M196 96 L196 700 L92 700 L92 0 L507 0 L507 96 L196 96 Z " />
<glyph glyph-name="lacute" unicode="&#x13a;" horiz-adv-x="249" d="M57 768 L151 768 L258 919 L130 919 L57 768 Z M74 0 L174 0 L174 700 L74 700 L74 0 Z " />
<glyph glyph-name="uni013B" unicode="&#x13b;" horiz-adv-x="538" d="M196 96 L196 700 L92 700 L92 0 L507 0 L507 96 L196 96 Z M302 -76 C264 -76 236 -104 236 -138 C236 -173 262 -200 299 -200 C304 -200 309 -199 314 -198 C312 -218 305 -238 292 -258 L351 -258 C370 -229 378 -198 378 -171 C378 -111 346 -76 302 -76 L302 -76 Z " />
<glyph glyph-name="uni013C" unicode="&#x13c;" horiz-adv-x="249" d="M174 700 L74 700 L74 0 L174 0 L174 700 Z M119 -76 C81 -76 53 -104 53 -138 C53 -173 79 -200 116 -200 C121 -200 126 -199 131 -198 C129 -219 122 -238 109 -258 L168 -258 C187 -229 195 -199 195 -171 C195 -111 163 -76 119 -76 L119 -76 Z " />
<glyph glyph-name="Lcaron" unicode="&#x13d;" horiz-adv-x="538" d="M354 588 C360 588 365 589 369 590 C367 559 348 530 307 493 L340 458 C402 505 432 560 432 617 C432 677 400 712 358 712 C320 712 292 684 292 650 C292 614 318 588 354 588 L354 588 Z M196 96 L196 700 L92 700 L92 0 L507 0 L507 96 L196 96 Z " />
<glyph glyph-name="lcaron" unicode="&#x13e;" horiz-adv-x="334" d="M308 712 C271 712 243 684 243 650 C243 614 269 588 305 588 C310 588 315 589 320 590 C317 558 299 530 258 493 L290 458 C352 505 382 560 383 617 C383 677 351 712 308 712 L308 712 Z M74 0 L174 0 L174 700 L74 700 L74 0 Z " />
<glyph glyph-name="Ldot" unicode="&#x13f;" horiz-adv-x="558" d="M196 96 L196 700 L92 700 L92 0 L507 0 L507 96 L196 96 Z M381 237 C420 237 450 266 450 306 C450 345 420 375 381 375 C341 375 312 345 312 306 C312 266 341 237 381 237 L381 237 Z " />
<glyph glyph-name="ldot" unicode="&#x140;" horiz-adv-x="431" d="M74 0 L174 0 L174 700 L74 700 L74 0 Z M334 181 C374 181 404 211 404 251 C404 292 374 321 334 321 C294 321 264 292 264 251 C264 211 294 181 334 181 L334 181 Z " />
<glyph glyph-name="Lslash" unicode="&#x141;" horiz-adv-x="558" d="M217 96 L217 313 L392 440 L392 530 L217 403 L217 700 L112 700 L112 327 L-4 243 L-4 152 L112 236 L112 0 L527 0 L527 96 L217 96 Z " />
<glyph glyph-name="lslash" unicode="&#x142;" horiz-adv-x="339" d="M324 493 L219 417 L219 700 L119 700 L119 345 L14 269 L14 178 L119 254 L119 0 L219 0 L219 326 L324 402 L324 493 Z " />
<glyph glyph-name="Nacute" unicode="&#x143;" horiz-adv-x="746" d="M508 919 L380 919 L307 768 L401 768 L508 919 Z M550 700 L550 174 L547 174 L201 700 L92 700 L92 0 L196 0 L196 526 L200 526 L545 0 L655 0 L655 700 L550 700 Z " />
<glyph glyph-name="nacute" unicode="&#x144;" horiz-adv-x="565" d="M414 688 L294 688 L225 545 L313 545 L414 688 Z M326 485 C260 485 204 457 174 411 L171 411 L165 473 L74 473 L74 0 L174 0 L174 257 C174 350 222 396 295 396 C359 396 395 360 395 263 L395 0 L495 0 L495 298 C495 418 428 485 326 485 L326 485 Z " />
<glyph glyph-name="uni0145" unicode="&#x145;" horiz-adv-x="746" d="M550 700 L550 174 L547 174 L201 700 L92 700 L92 0 L196 0 L196 526 L200 526 L545 0 L655 0 L655 700 L550 700 Z M369 -76 C331 -76 303 -104 303 -138 C303 -173 329 -200 366 -200 C371 -200 376 -199 381 -198 C379 -218 372 -238 359 -258 L418 -258 C437 -229 445 -198 445 -171 C445 -111 413 -76 369 -76 L369 -76 Z " />
<glyph glyph-name="uni0146" unicode="&#x146;" horiz-adv-x="565" d="M326 485 C260 485 204 457 174 411 L171 411 L165 473 L74 473 L74 0 L174 0 L174 257 C174 350 222 396 295 396 C359 396 395 360 395 263 L395 0 L495 0 L495 298 C495 418 428 485 326 485 L326 485 Z M278 -76 C240 -76 212 -104 212 -138 C212 -173 238 -200 275 -200 C280 -200 285 -199 290 -198 C288 -219 281 -238 268 -258 L327 -258 C346 -229 354 -199 354 -171 C354 -111 322 -76 278 -76 L278 -76 Z " />
<glyph glyph-name="Ncaron" unicode="&#x147;" horiz-adv-x="746" d="M422 768 L546 919 L447 919 L374 831 L301 919 L202 919 L326 768 L422 768 Z M550 700 L550 174 L547 174 L201 700 L92 700 L92 0 L196 0 L196 526 L200 526 L545 0 L655 0 L655 700 L550 700 Z " />
<glyph glyph-name="ncaron" unicode="&#x148;" horiz-adv-x="565" d="M332 545 L449 688 L355 688 L286 604 L217 688 L123 688 L240 545 L332 545 Z M326 485 C260 485 204 457 174 411 L171 411 L165 473 L74 473 L74 0 L174 0 L174 257 C174 350 222 396 295 396 C359 396 395 360 395 263 L395 0 L495 0 L495 298 C495 418 428 485 326 485 L326 485 Z " />
<glyph glyph-name="Eng" unicode="&#x14a;" horiz-adv-x="746" d="M550 700 L550 174 L547 174 L201 700 L92 700 L92 0 L196 0 L196 526 L200 526 L545 1 L545 -27 C545 -72 527 -89 490 -89 C479 -89 468 -88 460 -87 L460 -180 C474 -183 491 -185 512 -185 C610 -185 655 -138 655 -26 L655 700 L550 700 Z " />
<glyph glyph-name="eng" unicode="&#x14b;" horiz-adv-x="565" d="M326 485 C260 485 204 457 174 411 L171 411 L165 473 L74 473 L74 0 L174 0 L174 257 C174 350 222 396 295 396 C359 396 395 360 395 263 L395 -2 C395 -58 376 -76 330 -76 C319 -76 308 -75 300 -74 L300 -158 C314 -161 331 -164 352 -164 C450 -164 495 -118 495 -5 L495 298 C495 418 428 485 326 485 L326 485 Z " />
<glyph glyph-name="Omacron" unicode="&#x14c;" horiz-adv-x="794" d="M255 799 L539 799 L539 879 L255 879 L255 799 Z M397 -12 C596 -12 744 138 744 350 C744 562 596 712 397 712 C197 712 50 562 50 350 C50 138 197 -12 397 -12 L397 -12 Z M397 84 C258 84 158 188 158 350 C158 512 258 616 397 616 C536 616 636 512 636 350 C636 188 536 84 397 84 L397 84 Z " />
<glyph glyph-name="omacron" unicode="&#x14d;" horiz-adv-x="580" d="M156 574 L424 574 L424 650 L156 650 L156 574 Z M290 -12 C431 -12 535 90 535 237 C535 383 431 485 290 485 C149 485 45 383 45 237 C45 90 149 -12 290 -12 L290 -12 Z M290 75 C207 75 147 139 147 237 C147 334 207 398 290 398 C373 398 433 334 433 237 C433 139 373 75 290 75 L290 75 Z " />
<glyph glyph-name="Obreve" unicode="&#x14e;" horiz-adv-x="794" d="M397 768 C490 768 544 822 544 910 L544 916 L460 916 C460 861 436 836 397 836 C358 836 334 861 334 916 L250 916 L250 910 C250 822 304 768 397 768 L397 768 Z M397 -12 C596 -12 744 138 744 350 C744 562 596 712 397 712 C197 712 50 562 50 350 C50 138 197 -12 397 -12 L397 -12 Z M397 84 C258 84 158 188 158 350 C158 512 258 616 397 616 C536 616 636 512 636 350 C636 188 536 84 397 84 L397 84 Z " />
<glyph glyph-name="obreve" unicode="&#x14f;" horiz-adv-x="580" d="M290 545 C378 545 429 596 429 679 L429 685 L350 685 C350 633 327 610 290 610 C253 610 230 633 230 685 L151 685 L151 679 C151 596 202 545 290 545 L290 545 Z M290 -12 C431 -12 535 90 535 237 C535 383 431 485 290 485 C149 485 45 383 45 237 C45 90 149 -12 290 -12 L290 -12 Z M290 75 C207 75 147 139 147 237 C147 334 207 398 290 398 C373 398 433 334 433 237 C433 139 373 75 290 75 L290 75 Z " />
<glyph glyph-name="Ohungarumlaut" unicode="&#x150;" horiz-adv-x="794" d="M243 768 L324 768 L414 919 L307 919 L243 768 Z M417 768 L498 768 L588 919 L482 919 L417 768 Z M397 -12 C596 -12 744 138 744 350 C744 562 596 712 397 712 C197 712 50 562 50 350 C50 138 197 -12 397 -12 L397 -12 Z M397 84 C258 84 158 188 158 350 C158 512 258 616 397 616 C536 616 636 512 636 350 C636 188 536 84 397 84 L397 84 Z " />
<glyph glyph-name="ohungarumlaut" unicode="&#x151;" horiz-adv-x="580" d="M147 545 L223 545 L308 688 L208 688 L147 545 Z M311 545 L388 545 L472 688 L372 688 L311 545 Z M290 -12 C431 -12 535 90 535 237 C535 383 431 485 290 485 C149 485 45 383 45 237 C45 90 149 -12 290 -12 L290 -12 Z M290 75 C207 75 147 139 147 237 C147 334 207 398 290 398 C373 398 433 334 433 237 C433 139 373 75 290 75 L290 75 Z " />
<glyph glyph-name="OE" unicode="&#x152;" horiz-adv-x="988" d="M925 604 L925 700 L423 700 C200 700 51 566 51 350 C51 134 200 0 423 0 L925 0 L925 96 L601 96 L601 304 L896 304 L896 399 L601 399 L601 604 L925 604 Z M418 96 C262 96 159 186 159 350 C159 514 262 604 418 604 L496 604 L496 96 L418 96 Z " />
<glyph glyph-name="oe" unicode="&#x153;" horiz-adv-x="947" d="M903 253 C903 394 809 485 677 485 C597 485 529 451 486 391 L482 391 C439 451 371 485 290 485 C149 485 45 383 45 237 C45 90 149 -12 290 -12 C370 -12 438 21 481 81 L485 81 C526 21 593 -12 676 -12 C785 -12 871 46 897 143 L802 143 C780 98 735 73 677 73 C601 73 542 120 534 213 L900 213 C902 227 903 239 903 253 L903 253 Z M677 403 C744 403 792 366 803 287 L538 287 C554 362 607 403 677 403 L677 403 Z M290 75 C207 75 147 139 147 237 C147 334 207 398 290 398 C373 398 433 334 433 237 C433 139 373 75 290 75 L290 75 Z " />
<glyph glyph-name="Racute" unicode="&#x154;" horiz-adv-x="649" d="M435 919 L307 919 L234 768 L328 768 L435 919 Z M471 0 L597 0 L415 249 C525 278 589 358 589 468 C589 609 485 700 316 700 L92 700 L92 0 L196 0 L196 237 L300 237 L471 0 Z M196 604 L318 604 C425 604 482 555 482 468 C482 382 425 333 318 333 L196 333 L196 604 Z " />
<glyph glyph-name="racute" unicode="&#x155;" horiz-adv-x="374" d="M334 688 L214 688 L145 545 L233 545 L334 688 Z M304 482 C246 482 196 452 174 401 L171 401 L164 473 L74 473 L74 0 L174 0 L174 239 C174 340 222 388 309 388 C322 388 336 387 351 385 L351 474 C338 479 322 482 304 482 L304 482 Z " />
<glyph glyph-name="uni0156" unicode="&#x156;" horiz-adv-x="649" d="M415 249 C525 278 589 358 589 468 C589 609 485 700 316 700 L92 700 L92 0 L196 0 L196 237 L300 237 L471 0 L597 0 L415 249 Z M196 604 L318 604 C425 604 482 555 482 468 C482 382 425 333 318 333 L196 333 L196 604 Z M320 -76 C282 -76 254 -104 254 -138 C254 -173 280 -200 317 -200 C322 -200 327 -199 332 -198 C330 -218 323 -238 310 -258 L369 -258 C388 -229 396 -198 396 -171 C396 -111 364 -76 320 -76 L320 -76 Z " />
<glyph glyph-name="uni0157" unicode="&#x157;" horiz-adv-x="374" d="M304 482 C246 482 196 452 174 401 L171 401 L164 473 L74 473 L74 0 L174 0 L174 239 C174 340 222 388 309 388 C322 388 336 387 351 385 L351 474 C338 479 322 482 304 482 L304 482 Z M119 -76 C81 -76 53 -104 53 -138 C53 -173 79 -200 116 -200 C121 -200 126 -199 131 -198 C129 -219 122 -238 109 -258 L168 -258 C187 -229 195 -199 195 -171 C195 -111 163 -76 119 -76 L119 -76 Z " />
<glyph glyph-name="Rcaron" unicode="&#x158;" horiz-adv-x="649" d="M349 768 L473 919 L374 919 L301 831 L228 919 L129 919 L253 768 L349 768 Z M471 0 L597 0 L415 249 C525 278 589 358 589 468 C589 609 485 700 316 700 L92 700 L92 0 L196 0 L196 237 L300 237 L471 0 Z M196 604 L318 604 C425 604 482 555 482 468 C482 382 425 333 318 333 L196 333 L196 604 Z " />
<glyph glyph-name="rcaron" unicode="&#x159;" horiz-adv-x="374" d="M247 545 L354 688 L265 688 L207 608 L148 688 L59 688 L166 545 L247 545 Z M174 401 L171 401 L164 473 L74 473 L74 0 L174 0 L174 239 C174 340 222 388 309 388 C322 388 336 387 351 385 L351 474 C338 479 322 482 304 482 C246 482 196 452 174 401 L174 401 Z " />
<glyph glyph-name="Sacute" unicode="&#x15a;" horiz-adv-x="594" d="M226 768 L320 768 L427 919 L299 919 L226 768 Z M301 -12 C451 -12 554 77 554 206 C554 301 498 362 364 391 L298 406 C190 429 157 458 157 510 C157 574 209 618 294 618 C373 618 426 580 437 497 L544 497 C534 631 439 712 296 712 C152 712 52 626 52 505 C52 411 113 347 242 319 L307 305 C415 281 448 249 448 197 C448 130 392 82 305 82 C219 82 158 129 150 222 L43 222 C47 77 152 -12 301 -12 L301 -12 Z " />
<glyph glyph-name="sacute" unicode="&#x15b;" horiz-adv-x="464" d="M171 545 L259 545 L360 688 L240 688 L171 545 Z M237 -12 C357 -12 427 52 427 141 C427 214 385 257 288 276 L230 287 C158 301 142 317 142 344 C142 381 174 406 229 406 C285 406 316 381 321 341 L419 341 C412 433 344 485 235 485 C117 485 45 423 45 338 C45 269 91 226 185 207 L243 196 C309 183 331 163 331 133 C331 95 295 68 239 68 C183 68 144 95 138 145 L40 145 C46 48 121 -12 237 -12 L237 -12 Z " />
<glyph glyph-name="Scircumflex" unicode="&#x15c;" horiz-adv-x="594" d="M293 857 L366 768 L465 768 L341 919 L245 919 L121 768 L220 768 L293 857 Z M364 391 L298 406 C190 429 157 458 157 510 C157 574 209 618 294 618 C373 618 426 580 437 497 L544 497 C534 631 439 712 296 712 C152 712 52 626 52 505 C52 411 113 347 242 319 L307 305 C415 281 448 249 448 197 C448 130 392 82 305 82 C219 82 158 129 150 222 L43 222 C47 77 152 -12 301 -12 C451 -12 554 77 554 206 C554 301 498 362 364 391 L364 391 Z " />
<glyph glyph-name="scircumflex" unicode="&#x15d;" horiz-adv-x="464" d="M232 630 L301 545 L395 545 L278 688 L186 688 L69 545 L163 545 L232 630 Z M288 276 L230 287 C158 301 142 317 142 344 C142 381 174 406 229 406 C285 406 316 381 321 341 L419 341 C412 433 344 485 235 485 C117 485 45 423 45 338 C45 269 91 226 185 207 L243 196 C309 183 331 163 331 133 C331 95 295 68 239 68 C183 68 144 95 138 145 L40 145 C46 48 121 -12 237 -12 C357 -12 427 52 427 141 C427 214 385 257 288 276 L288 276 Z " />
<glyph glyph-name="Scedilla" unicode="&#x15e;" horiz-adv-x="594" d="M554 206 C554 301 498 362 364 391 L298 406 C190 429 157 458 157 510 C157 574 209 618 294 618 C373 618 426 580 437 497 L544 497 C534 631 439 712 296 712 C152 712 52 626 52 505 C52 411 113 347 242 319 L307 305 C415 281 448 249 448 197 C448 130 392 82 305 82 C219 82 158 129 150 222 L43 222 C47 92 132 7 257 -9 L250 -102 C320 -102 332 -112 332 -129 C332 -147 316 -160 275 -160 C265 -160 252 -159 239 -157 L239 -224 C254 -227 270 -228 284 -228 C368 -228 412 -190 412 -135 C412 -88 380 -57 325 -51 L326 -11 C462 -2 554 84 554 206 L554 206 Z " />
<glyph glyph-name="scedilla" unicode="&#x15f;" horiz-adv-x="464" d="M427 141 C427 214 385 257 288 276 L230 287 C158 301 142 317 142 344 C142 381 174 406 229 406 C285 406 316 381 321 341 L419 341 C412 433 344 485 235 485 C117 485 45 423 45 338 C45 269 91 226 185 207 L243 196 C309 183 331 163 331 133 C331 95 295 68 239 68 C183 68 144 95 138 145 L40 145 C45 62 101 6 190 -8 L183 -102 C252 -102 264 -112 264 -129 C264 -147 249 -160 208 -160 C198 -160 185 -159 171 -157 L171 -224 C187 -227 202 -228 216 -228 C301 -228 345 -190 345 -135 C345 -88 313 -57 258 -51 L259 -11 C365 -4 427 58 427 141 L427 141 Z " />
<glyph glyph-name="Scaron" unicode="&#x160;" horiz-adv-x="594" d="M341 768 L465 919 L366 919 L293 831 L220 919 L121 919 L245 768 L341 768 Z M364 391 L298 406 C190 429 157 458 157 510 C157 574 209 618 294 618 C373 618 426 580 437 497 L544 497 C534 631 439 712 296 712 C152 712 52 626 52 505 C52 411 113 347 242 319 L307 305 C415 281 448 249 448 197 C448 130 392 82 305 82 C219 82 158 129 150 222 L43 222 C47 77 152 -12 301 -12 C451 -12 554 77 554 206 C554 301 498 362 364 391 L364 391 Z " />
<glyph glyph-name="scaron" unicode="&#x161;" horiz-adv-x="464" d="M278 545 L395 688 L301 688 L232 604 L163 688 L69 688 L186 545 L278 545 Z M288 276 L230 287 C158 301 142 317 142 344 C142 381 174 406 229 406 C285 406 316 381 321 341 L419 341 C412 433 344 485 235 485 C117 485 45 423 45 338 C45 269 91 226 185 207 L243 196 C309 183 331 163 331 133 C331 95 295 68 239 68 C183 68 144 95 138 145 L40 145 C46 48 121 -12 237 -12 C357 -12 427 52 427 141 C427 214 385 257 288 276 L288 276 Z " />
<glyph glyph-name="uni0162" unicode="&#x162;" horiz-adv-x="565" d="M21 700 L21 604 L230 604 L230 0 L335 0 L335 604 L544 604 L544 700 L21 700 Z M277 -76 C239 -76 211 -104 211 -138 C211 -173 237 -200 274 -200 C279 -200 284 -199 289 -198 C287 -218 280 -238 267 -258 L326 -258 C345 -229 353 -198 353 -171 C353 -111 321 -76 277 -76 L277 -76 Z " />
<glyph glyph-name="uni0163" unicode="&#x163;" horiz-adv-x="367" d="M289 74 C224 74 199 96 199 170 L199 387 L329 387 L329 473 L199 473 L199 591 L99 591 L99 473 L16 473 L16 387 L99 387 L99 167 C99 39 154 -12 267 -12 C295 -12 317 -9 333 -5 L333 78 C319 75 303 74 289 74 L289 74 Z M219 -76 C181 -76 153 -104 153 -138 C153 -173 179 -200 216 -200 C221 -200 226 -199 231 -198 C229 -219 222 -238 209 -258 L268 -258 C287 -229 295 -199 295 -171 C295 -111 263 -76 219 -76 L219 -76 Z " />
<glyph glyph-name="Tcaron" unicode="&#x164;" horiz-adv-x="565" d="M330 768 L454 919 L355 919 L282 831 L209 919 L110 919 L234 768 L330 768 Z M544 700 L21 700 L21 604 L230 604 L230 0 L335 0 L335 604 L544 604 L544 700 Z " />
<glyph glyph-name="tcaron" unicode="&#x165;" horiz-adv-x="367" d="M296 747 C258 747 230 719 230 685 C230 650 256 623 293 623 C298 623 303 624 307 625 C306 605 299 585 286 565 L345 565 C364 594 372 625 372 652 C372 712 340 747 296 747 L296 747 Z M199 170 L199 387 L329 387 L329 473 L199 473 L199 591 L99 591 L99 473 L16 473 L16 387 L99 387 L99 167 C99 39 154 -12 267 -12 C295 -12 317 -9 333 -5 L333 78 C319 75 303 74 289 74 C224 74 199 96 199 170 L199 170 Z " />
<glyph glyph-name="Tbar" unicode="&#x166;" horiz-adv-x="565" d="M544 604 L544 700 L21 700 L21 604 L230 604 L230 357 L103 357 L103 275 L230 275 L230 0 L335 0 L335 275 L461 275 L461 357 L335 357 L335 604 L544 604 Z " />
<glyph glyph-name="tbar" unicode="&#x167;" horiz-adv-x="379" d="M295 74 C230 74 205 96 205 170 L205 206 L335 206 L335 275 L205 275 L205 387 L335 387 L335 473 L205 473 L205 591 L105 591 L105 473 L22 473 L22 387 L105 387 L105 275 L22 275 L22 206 L105 206 L105 167 C105 39 160 -12 273 -12 C301 -12 323 -9 339 -5 L339 78 C325 75 309 74 295 74 L295 74 Z " />
<glyph glyph-name="Utilde" unicode="&#x168;" horiz-adv-x="702" d="M424 766 C482 766 523 815 523 915 L451 915 C451 860 436 840 418 840 C408 840 394 847 370 872 C337 908 311 922 279 922 C220 922 179 873 179 773 L252 773 C252 828 267 848 285 848 C296 848 308 841 333 816 C366 781 392 766 424 766 L424 766 Z M351 -12 C516 -12 620 97 620 274 L620 700 L516 700 L516 273 C516 150 451 85 351 85 C251 85 187 150 187 273 L187 700 L82 700 L82 274 C82 97 186 -12 351 -12 L351 -12 Z " />
<glyph glyph-name="utilde" unicode="&#x169;" horiz-adv-x="559" d="M217 621 C228 621 240 614 263 590 C294 557 319 543 349 543 C404 543 442 590 442 684 L374 684 C374 632 361 614 343 614 C334 614 321 619 298 644 C268 678 242 691 212 691 C157 691 118 644 118 550 L186 550 C186 602 200 621 217 621 L217 621 Z M385 473 L385 217 C385 123 337 78 267 78 C206 78 170 113 170 211 L170 473 L70 473 L70 175 C70 54 139 -12 236 -12 C299 -12 356 16 386 62 L389 62 L395 0 L485 0 L485 473 L385 473 Z " />
<glyph glyph-name="Umacron" unicode="&#x16a;" horiz-adv-x="702" d="M209 799 L493 799 L493 879 L209 879 L209 799 Z M351 -12 C516 -12 620 97 620 274 L620 700 L516 700 L516 273 C516 150 451 85 351 85 C251 85 187 150 187 273 L187 700 L82 700 L82 274 C82 97 186 -12 351 -12 L351 -12 Z " />
<glyph glyph-name="umacron" unicode="&#x16b;" horiz-adv-x="559" d="M414 650 L146 650 L146 574 L414 574 L414 650 Z M385 473 L385 217 C385 123 337 78 267 78 C206 78 170 113 170 211 L170 473 L70 473 L70 175 C70 54 139 -12 236 -12 C299 -12 356 16 386 62 L389 62 L395 0 L485 0 L485 473 L385 473 Z " />
<glyph glyph-name="Ubreve" unicode="&#x16c;" horiz-adv-x="702" d="M351 768 C444 768 498 822 498 910 L498 916 L414 916 C414 861 390 836 351 836 C312 836 288 861 288 916 L204 916 L204 910 C204 822 258 768 351 768 L351 768 Z M351 -12 C516 -12 620 97 620 274 L620 700 L516 700 L516 273 C516 150 451 85 351 85 C251 85 187 150 187 273 L187 700 L82 700 L82 274 C82 97 186 -12 351 -12 L351 -12 Z " />
<glyph glyph-name="ubreve" unicode="&#x16d;" horiz-adv-x="559" d="M280 545 C368 545 419 596 419 679 L419 685 L340 685 C340 633 317 610 280 610 C243 610 220 633 220 685 L141 685 L141 679 C141 596 192 545 280 545 L280 545 Z M385 473 L385 217 C385 123 337 78 267 78 C206 78 170 113 170 211 L170 473 L70 473 L70 175 C70 54 139 -12 236 -12 C299 -12 356 16 386 62 L389 62 L395 0 L485 0 L485 473 L385 473 Z " />
<glyph glyph-name="Uring" unicode="&#x16e;" horiz-adv-x="702" d="M351 759 C416 759 465 806 465 867 C465 928 416 975 351 975 C286 975 237 928 237 867 C237 806 286 759 351 759 L351 759 Z M351 822 C323 822 306 842 306 867 C306 892 323 912 351 912 C379 912 396 892 396 867 C396 842 379 822 351 822 L351 822 Z M351 -12 C516 -12 620 97 620 274 L620 700 L516 700 L516 273 C516 150 451 85 351 85 C251 85 187 150 187 273 L187 700 L82 700 L82 274 C82 97 186 -12 351 -12 L351 -12 Z " />
<glyph glyph-name="uring" unicode="&#x16f;" horiz-adv-x="559" d="M280 538 C341 538 388 582 388 640 C388 697 341 742 280 742 C219 742 172 697 172 640 C172 582 219 538 280 538 L280 538 Z M280 682 C306 682 322 664 322 640 C322 616 306 598 280 598 C254 598 238 616 238 640 C238 664 254 682 280 682 L280 682 Z M385 473 L385 217 C385 123 337 78 267 78 C206 78 170 113 170 211 L170 473 L70 473 L70 175 C70 54 139 -12 236 -12 C299 -12 356 16 386 62 L389 62 L395 0 L485 0 L485 473 L385 473 Z " />
<glyph glyph-name="Uhungarumlaut" unicode="&#x170;" horiz-adv-x="702" d="M198 768 L279 768 L369 919 L262 919 L198 768 Z M372 768 L453 768 L543 919 L437 919 L372 768 Z M351 -12 C516 -12 620 97 620 274 L620 700 L516 700 L516 273 C516 150 451 85 351 85 C251 85 187 150 187 273 L187 700 L82 700 L82 274 C82 97 186 -12 351 -12 L351 -12 Z " />
<glyph glyph-name="uhungarumlaut" unicode="&#x171;" horiz-adv-x="559" d="M298 688 L198 688 L137 545 L213 545 L298 688 Z M462 688 L362 688 L301 545 L378 545 L462 688 Z M385 473 L385 217 C385 123 337 78 267 78 C206 78 170 113 170 211 L170 473 L70 473 L70 175 C70 54 139 -12 236 -12 C299 -12 356 16 386 62 L389 62 L395 0 L485 0 L485 473 L385 473 Z " />
<glyph glyph-name="Uogonek" unicode="&#x172;" horiz-adv-x="702" d="M516 700 L516 273 C516 150 451 85 351 85 C251 85 187 150 187 273 L187 700 L82 700 L82 274 C82 102 180 -6 338 -12 C295 -41 273 -82 273 -124 C273 -186 321 -226 396 -226 C414 -226 431 -224 446 -221 L446 -139 C434 -143 422 -144 413 -144 C381 -144 365 -130 365 -104 C365 -75 384 -44 446 2 C555 36 620 134 620 274 L620 700 L516 700 Z " />
<glyph glyph-name="uogonek" unicode="&#x173;" horiz-adv-x="559" d="M485 0 L485 473 L385 473 L385 217 C385 123 337 78 267 78 C206 78 170 113 170 211 L170 473 L70 473 L70 175 C70 54 139 -12 236 -12 C299 -12 356 16 386 62 L389 62 L395 0 L405 0 C351 -28 323 -73 323 -119 C323 -178 367 -215 438 -215 C455 -215 471 -213 485 -210 L485 -133 C474 -136 463 -137 454 -137 C424 -137 409 -125 409 -100 C409 -73 427 -43 485 0 L485 0 Z " />
<glyph glyph-name="Wcircumflex" unicode="&#x174;" horiz-adv-x="1001" d="M501 857 L574 768 L673 768 L549 919 L453 919 L329 768 L428 768 L501 857 Z M875 700 L714 163 L711 163 L550 700 L451 700 L289 163 L286 163 L126 700 L19 700 L232 0 L337 0 L499 545 L502 545 L664 0 L769 0 L982 700 L875 700 Z " />
<glyph glyph-name="wcircumflex" unicode="&#x175;" horiz-adv-x="794" d="M397 630 L466 545 L560 545 L443 688 L351 688 L234 545 L328 545 L397 630 Z M670 473 L564 130 L561 130 L442 473 L352 473 L233 130 L230 130 L123 473 L20 473 L175 0 L278 0 L396 344 L398 344 L516 0 L619 0 L774 473 L670 473 Z " />
<glyph glyph-name="Ycircumflex" unicode="&#x176;" horiz-adv-x="625" d="M313 857 L386 768 L485 768 L361 919 L265 919 L141 768 L240 768 L313 857 Z M501 700 L314 377 L312 377 L125 700 L7 700 L260 277 L260 0 L365 0 L365 277 L619 700 L501 700 Z " />
<glyph glyph-name="ycircumflex" unicode="&#x177;" horiz-adv-x="505" d="M253 630 L322 545 L416 545 L299 688 L207 688 L90 545 L184 545 L253 630 Z M390 473 L254 120 L251 120 L118 473 L11 473 L201 -2 L112 -224 L215 -224 L494 473 L390 473 Z " />
<glyph glyph-name="Ydieresis" unicode="&#x178;" horiz-adv-x="625" d="M206 777 C243 777 274 806 274 845 C274 883 243 912 206 912 C170 912 139 883 139 845 C139 806 170 777 206 777 L206 777 Z M419 777 C456 777 487 806 487 845 C487 883 456 912 419 912 C383 912 352 883 352 845 C352 806 383 777 419 777 L419 777 Z M260 0 L365 0 L365 277 L619 700 L501 700 L314 377 L312 377 L125 700 L7 700 L260 277 L260 0 Z " />
<glyph glyph-name="Zacute" unicode="&#x179;" horiz-adv-x="573" d="M419 919 L291 919 L218 768 L312 768 L419 919 Z M176 96 L518 619 L518 700 L56 700 L56 604 L389 604 L48 81 L48 0 L526 0 L526 96 L176 96 Z " />
<glyph glyph-name="zacute" unicode="&#x17a;" horiz-adv-x="450" d="M353 688 L233 688 L164 545 L252 545 L353 688 Z M165 87 L407 405 L407 473 L41 473 L41 387 L280 387 L37 68 L37 0 L413 0 L413 87 L165 87 Z " />
<glyph glyph-name="Zdotaccent" unicode="&#x17b;" horiz-adv-x="573" d="M285 776 C323 776 354 806 354 845 C354 884 323 913 285 913 C247 913 216 884 216 845 C216 806 247 776 285 776 L285 776 Z M176 96 L518 619 L518 700 L56 700 L56 604 L389 604 L48 81 L48 0 L526 0 L526 96 L176 96 Z " />
<glyph glyph-name="zdotaccent" unicode="&#x17c;" horiz-adv-x="450" d="M225 553 C261 553 290 581 290 618 C290 654 261 682 225 682 C189 682 160 654 160 618 C160 581 189 553 225 553 L225 553 Z M165 87 L407 405 L407 473 L41 473 L41 387 L280 387 L37 68 L37 0 L413 0 L413 87 L165 87 Z " />
<glyph glyph-name="Zcaron" unicode="&#x17d;" horiz-adv-x="573" d="M333 768 L457 919 L358 919 L285 831 L212 919 L113 919 L237 768 L333 768 Z M176 96 L518 619 L518 700 L56 700 L56 604 L389 604 L48 81 L48 0 L526 0 L526 96 L176 96 Z " />
<glyph glyph-name="zcaron" unicode="&#x17e;" horiz-adv-x="450" d="M271 545 L388 688 L294 688 L225 604 L156 688 L62 688 L179 545 L271 545 Z M165 87 L407 405 L407 473 L41 473 L41 387 L280 387 L37 68 L37 0 L413 0 L413 87 L165 87 Z " />
<glyph glyph-name="florin" unicode="&#x192;" horiz-adv-x="466" d="M405 621 C416 621 428 620 441 618 L441 705 C425 710 409 712 389 712 C300 712 244 668 223 562 L198 428 L75 428 L75 353 L184 353 L149 168 C136 98 109 79 61 79 C50 79 38 80 25 82 L25 -5 C41 -10 57 -12 77 -12 C166 -12 223 32 243 138 L283 353 L425 353 L425 428 L297 428 L317 532 C331 602 357 621 405 621 L405 621 Z " />
<glyph glyph-name="uni01CD" unicode="&#x1cd;" horiz-adv-x="653" d="M375 768 L499 919 L400 919 L327 831 L254 919 L155 919 L279 768 L375 768 Z M531 0 L639 0 L384 700 L269 700 L14 0 L121 0 L180 167 L472 167 L531 0 Z M212 257 L325 577 L328 577 L441 257 L212 257 Z " />
<glyph glyph-name="uni01CE" unicode="&#x1ce;" horiz-adv-x="543" d="M313 545 L430 688 L336 688 L267 604 L198 688 L104 688 L221 545 L313 545 Z M275 485 C151 485 74 422 68 319 L169 319 C173 371 207 401 271 401 C340 401 374 367 374 300 L374 292 L220 270 C109 254 52 202 52 124 C52 44 114 -12 211 -12 C282 -12 344 19 373 63 L376 63 L382 0 L472 0 L472 298 C472 418 402 485 275 485 L275 485 Z M235 69 C183 69 154 92 154 129 C154 167 181 193 251 202 L374 219 L374 202 C374 125 317 69 235 69 L235 69 Z " />
<glyph glyph-name="uni01E2" unicode="&#x1e2;" horiz-adv-x="1002" d="M809 879 L525 879 L525 799 L809 799 L809 879 Z M939 604 L939 700 L449 700 L11 0 L132 0 L240 176 L510 176 L510 0 L939 0 L939 96 L615 96 L615 304 L910 304 L910 399 L615 399 L615 604 L939 604 Z M296 266 L504 604 L510 604 L510 266 L296 266 Z " />
<glyph glyph-name="uni01E3" unicode="&#x1e3;" horiz-adv-x="889" d="M588 650 L320 650 L320 574 L588 574 L588 650 Z M845 253 C845 394 751 485 623 485 C554 485 491 458 449 409 L446 409 C416 460 363 485 280 485 C151 485 74 422 68 319 L169 319 C173 371 207 401 277 401 C349 401 384 369 384 295 L384 280 L272 280 C125 280 52 220 52 129 C52 45 115 -12 228 -12 C319 -12 391 25 423 86 L427 86 C464 25 538 -12 619 -12 C726 -12 812 46 838 143 L742 143 C720 98 676 73 621 73 C550 73 491 121 483 213 L842 213 C844 227 845 239 845 253 L845 253 Z M623 401 C686 401 734 365 745 287 L487 287 C504 362 557 401 623 401 L623 401 Z M239 71 C183 71 154 94 154 134 C154 177 188 205 275 205 L384 205 L384 203 C384 127 327 71 239 71 L239 71 Z " />
<glyph glyph-name="Gcaron" unicode="&#x1e6;" horiz-adv-x="779" d="M448 768 L572 919 L473 919 L400 831 L327 919 L228 919 L352 768 L448 768 Z M410 276 L617 276 C601 155 514 83 398 83 C260 83 158 185 158 350 C158 514 259 617 402 617 C508 617 585 560 603 467 L713 467 C689 618 564 712 401 712 C198 712 50 564 50 349 C50 134 197 -12 387 -12 C486 -12 571 28 618 99 L621 99 L631 0 L713 0 L713 368 L410 368 L410 276 Z " />
<glyph glyph-name="gcaron" unicode="&#x1e7;" horiz-adv-x="501" d="M306 545 L423 688 L329 688 L260 604 L191 688 L97 688 L214 545 L306 545 Z M490 485 L253 485 C139 485 63 413 63 313 C63 264 81 222 112 192 C69 176 41 140 41 94 C41 58 58 30 86 11 C44 -10 21 -47 21 -94 C21 -181 97 -236 248 -236 C414 -236 490 -172 490 -70 C490 20 434 71 332 71 L186 71 C150 71 131 85 131 110 C131 131 146 149 171 154 C195 145 223 140 253 140 C368 140 443 212 443 313 C443 354 430 391 407 419 L490 427 L490 485 Z M253 218 C192 218 155 256 155 313 C155 371 192 409 253 409 C314 409 352 371 352 313 C352 256 314 218 253 218 L253 218 Z M313 -15 C373 -15 396 -36 396 -74 C396 -124 355 -153 254 -153 C156 -153 116 -126 116 -80 C116 -42 144 -15 185 -15 L313 -15 Z " />
<glyph glyph-name="uni01E8" unicode="&#x1e8;" horiz-adv-x="636" d="M381 768 L505 919 L406 919 L333 831 L260 919 L161 919 L285 768 L381 768 Z M302 353 L619 700 L491 700 L200 380 L196 380 L196 700 L92 700 L92 0 L196 0 L196 315 L200 315 L490 0 L626 0 L302 353 Z " />
<glyph glyph-name="uni01E9" unicode="&#x1e9;" horiz-adv-x="515" d="M170 772 L287 915 L194 915 L125 831 L55 915 L-38 915 L79 772 L170 772 Z M507 0 L277 249 L501 473 L375 473 L177 276 L174 276 L174 700 L74 700 L74 0 L174 0 L174 218 L178 218 L379 0 L507 0 Z " />
<glyph glyph-name="AEacute" unicode="&#x1fc;" horiz-adv-x="1002" d="M801 919 L673 919 L600 768 L694 768 L801 919 Z M939 604 L939 700 L449 700 L11 0 L132 0 L240 176 L510 176 L510 0 L939 0 L939 96 L615 96 L615 304 L910 304 L910 399 L615 399 L615 604 L939 604 Z M296 266 L504 604 L510 604 L510 266 L296 266 Z " />
<glyph glyph-name="aeacute" unicode="&#x1fd;" horiz-adv-x="889" d="M582 688 L462 688 L393 545 L481 545 L582 688 Z M845 253 C845 394 751 485 623 485 C554 485 491 458 449 409 L446 409 C416 460 363 485 280 485 C151 485 74 422 68 319 L169 319 C173 371 207 401 277 401 C349 401 384 369 384 295 L384 280 L272 280 C125 280 52 220 52 129 C52 45 115 -12 228 -12 C319 -12 391 25 423 86 L427 86 C464 25 538 -12 619 -12 C726 -12 812 46 838 143 L742 143 C720 98 676 73 621 73 C550 73 491 121 483 213 L842 213 C844 227 845 239 845 253 L845 253 Z M623 401 C686 401 734 365 745 287 L487 287 C504 362 557 401 623 401 L623 401 Z M239 71 C183 71 154 94 154 134 C154 177 188 205 275 205 L384 205 L384 203 C384 127 327 71 239 71 L239 71 Z " />
<glyph glyph-name="Oslashacute" unicode="&#x1fe;" horiz-adv-x="807" d="M537 919 L409 919 L336 768 L430 768 L537 919 Z M763 648 L701 709 L626 634 C567 684 490 712 403 712 C204 712 57 562 57 350 C57 265 81 189 122 130 L44 52 L105 -9 L181 66 C240 16 316 -12 403 -12 C603 -12 750 138 750 350 C750 435 726 511 685 570 L763 648 Z M403 616 C463 616 515 597 556 562 L198 204 C176 244 164 294 164 350 C164 512 265 616 403 616 L403 616 Z M403 84 C344 84 291 103 251 138 L609 496 C631 456 643 406 643 350 C643 188 542 84 403 84 L403 84 Z " />
<glyph glyph-name="oslashacute" unicode="&#x1ff;" horiz-adv-x="587" d="M422 688 L302 688 L233 545 L321 545 L422 688 Z M560 452 L510 503 L444 437 C404 468 352 485 294 485 C153 485 49 383 49 237 C49 179 65 127 94 87 L27 20 L77 -31 L144 36 C184 5 236 -12 294 -12 C435 -12 538 90 538 237 C538 295 522 345 494 386 L560 452 Z M294 403 C329 403 360 392 384 372 L164 152 C153 176 147 205 147 237 C147 337 208 403 294 403 L294 403 Z M294 71 C259 71 228 82 204 102 L424 321 C435 297 441 269 441 237 C441 136 379 71 294 71 L294 71 Z " />
<glyph glyph-name="uni0218" unicode="&#x218;" horiz-adv-x="594" d="M364 391 L298 406 C190 429 157 458 157 510 C157 574 209 618 294 618 C373 618 426 580 437 497 L544 497 C534 631 439 712 296 712 C152 712 52 626 52 505 C52 411 113 347 242 319 L307 305 C415 281 448 249 448 197 C448 130 392 82 305 82 C219 82 158 129 150 222 L43 222 C47 77 152 -12 301 -12 C451 -12 554 77 554 206 C554 301 498 362 364 391 L364 391 Z M287 -76 C249 -76 221 -104 221 -138 C221 -173 247 -200 284 -200 C289 -200 294 -199 299 -198 C297 -218 290 -238 277 -258 L336 -258 C355 -229 363 -198 363 -171 C363 -111 331 -76 287 -76 L287 -76 Z " />
<glyph glyph-name="uni0219" unicode="&#x219;" horiz-adv-x="464" d="M288 276 L230 287 C158 301 142 317 142 344 C142 381 174 406 229 406 C285 406 316 381 321 341 L419 341 C412 433 344 485 235 485 C117 485 45 423 45 338 C45 269 91 226 185 207 L243 196 C309 183 331 163 331 133 C331 95 295 68 239 68 C183 68 144 95 138 145 L40 145 C46 48 121 -12 237 -12 C357 -12 427 52 427 141 C427 214 385 257 288 276 L288 276 Z M220 -76 C182 -76 154 -104 154 -138 C154 -173 180 -200 217 -200 C222 -200 227 -199 232 -198 C230 -219 223 -238 210 -258 L269 -258 C288 -229 296 -199 296 -171 C296 -111 264 -76 220 -76 L220 -76 Z " />
<glyph glyph-name="uni021A" unicode="&#x21a;" horiz-adv-x="565" d="M21 700 L21 604 L230 604 L230 0 L335 0 L335 604 L544 604 L544 700 L21 700 Z M277 -76 C239 -76 211 -104 211 -138 C211 -173 237 -200 274 -200 C279 -200 284 -199 289 -198 C287 -218 280 -238 267 -258 L326 -258 C345 -229 353 -198 353 -171 C353 -111 321 -76 277 -76 L277 -76 Z " />
<glyph glyph-name="uni021B" unicode="&#x21b;" horiz-adv-x="367" d="M289 74 C224 74 199 96 199 170 L199 387 L329 387 L329 473 L199 473 L199 591 L99 591 L99 473 L16 473 L16 387 L99 387 L99 167 C99 39 154 -12 267 -12 C295 -12 317 -9 333 -5 L333 78 C319 75 303 74 289 74 L289 74 Z M219 -76 C181 -76 153 -104 153 -138 C153 -173 179 -200 216 -200 C221 -200 226 -199 231 -198 C229 -219 222 -238 209 -258 L268 -258 C287 -229 295 -199 295 -171 C295 -111 263 -76 219 -76 L219 -76 Z " />
<glyph glyph-name="uni0237" unicode="&#x237;" horiz-adv-x="249" d="M32 -236 C130 -236 174 -190 174 -78 L174 473 L74 473 L74 -75 C74 -131 56 -149 10 -149 C-1 -149 -12 -148 -20 -147 L-20 -231 C-6 -234 11 -236 32 -236 L32 -236 Z " />
<glyph glyph-name="circumflex" unicode="&#x2c6;" horiz-adv-x="600" d="M463 545 L346 688 L254 688 L137 545 L231 545 L300 630 L369 545 L463 545 Z " />
<glyph glyph-name="caron" unicode="&#x2c7;" horiz-adv-x="600" d="M369 688 L300 604 L231 688 L137 688 L254 545 L346 545 L463 688 L369 688 Z " />
<glyph glyph-name="breve" unicode="&#x2d8;" horiz-adv-x="600" d="M300 545 C388 545 439 596 439 679 L439 685 L360 685 C360 633 337 610 300 610 C263 610 240 633 240 685 L161 685 L161 679 C161 596 212 545 300 545 L300 545 Z " />
<glyph glyph-name="dotaccent" unicode="&#x2d9;" horiz-adv-x="600" d="M300 553 C336 553 365 581 365 618 C365 654 336 682 300 682 C264 682 235 654 235 618 C235 581 264 553 300 553 L300 553 Z " />
<glyph glyph-name="ring" unicode="&#x2da;" horiz-adv-x="600" d="M300 538 C361 538 408 582 408 640 C408 697 361 742 300 742 C239 742 192 697 192 640 C192 582 239 538 300 538 L300 538 Z M300 598 C274 598 258 616 258 640 C258 664 274 682 300 682 C326 682 342 664 342 640 C342 616 326 598 300 598 L300 598 Z " />
<glyph glyph-name="ogonek" unicode="&#x2db;" horiz-adv-x="600" d="M334 -215 C351 -215 367 -213 381 -210 L381 -133 C370 -136 359 -137 350 -137 C320 -137 305 -125 305 -100 C305 -73 323 -43 381 0 L346 18 C263 -6 219 -61 219 -119 C219 -178 263 -215 334 -215 L334 -215 Z " />
<glyph glyph-name="tilde" unicode="&#x2dc;" horiz-adv-x="600" d="M369 543 C424 543 462 590 462 684 L394 684 C394 632 381 614 363 614 C354 614 341 619 318 644 C288 678 262 691 232 691 C177 691 138 644 138 550 L206 550 C206 602 220 621 237 621 C248 621 260 614 283 590 C314 557 339 543 369 543 L369 543 Z " />
<glyph glyph-name="hungarumlaut" unicode="&#x2dd;" horiz-adv-x="600" d="M162 545 L238 545 L323 688 L223 688 L162 545 Z M326 545 L403 545 L487 688 L387 688 L326 545 Z " />
<glyph glyph-name="gravecomb" unicode="&#x300;" d="M-315 545 L-227 545 L-296 688 L-416 688 L-315 545 Z " />
<glyph glyph-name="acutecomb" unicode="&#x301;" d="M-381 545 L-293 545 L-192 688 L-312 688 L-381 545 Z " />
<glyph glyph-name="uni0302" unicode="&#x302;" d="M-137 545 L-254 688 L-346 688 L-463 545 L-369 545 L-300 630 L-231 545 L-137 545 Z " />
<glyph glyph-name="tildecomb" unicode="&#x303;" d="M-231 543 C-176 543 -138 590 -138 684 L-206 684 C-206 632 -219 614 -237 614 C-246 614 -259 619 -282 644 C-312 678 -338 691 -368 691 C-423 691 -462 644 -462 550 L-394 550 C-394 602 -380 621 -363 621 C-352 621 -340 614 -317 590 C-286 557 -261 543 -231 543 L-231 543 Z " />
<glyph glyph-name="uni0304" unicode="&#x304;" d="M-434 574 L-166 574 L-166 650 L-434 650 L-434 574 Z " />
<glyph glyph-name="uni0306" unicode="&#x306;" d="M-300 545 C-212 545 -161 596 -161 679 L-161 685 L-240 685 C-240 633 -263 610 -300 610 C-337 610 -360 633 -360 685 L-439 685 L-439 679 C-439 596 -388 545 -300 545 L-300 545 Z " />
<glyph glyph-name="uni0307" unicode="&#x307;" d="M-300 553 C-264 553 -235 581 -235 618 C-235 654 -264 682 -300 682 C-336 682 -365 654 -365 618 C-365 581 -336 553 -300 553 L-300 553 Z " />
<glyph glyph-name="uni0308" unicode="&#x308;" d="M-400 554 C-365 554 -337 581 -337 618 C-337 654 -365 681 -400 681 C-435 681 -464 654 -464 618 C-464 581 -435 554 -400 554 L-400 554 Z M-200 554 C-165 554 -136 581 -136 618 C-136 654 -165 681 -200 681 C-235 681 -263 654 -263 618 C-263 581 -235 554 -200 554 L-200 554 Z " />
<glyph glyph-name="uni030A" unicode="&#x30a;" d="M-300 538 C-239 538 -192 582 -192 640 C-192 697 -239 742 -300 742 C-361 742 -408 697 -408 640 C-408 582 -361 538 -300 538 L-300 538 Z M-300 598 C-326 598 -342 616 -342 640 C-342 664 -326 682 -300 682 C-274 682 -258 664 -258 640 C-258 616 -274 598 -300 598 L-300 598 Z " />
<glyph glyph-name="uni030B" unicode="&#x30b;" d="M-438 545 L-362 545 L-277 688 L-377 688 L-438 545 Z M-274 545 L-197 545 L-113 688 L-213 688 L-274 545 Z " />
<glyph glyph-name="uni030C" unicode="&#x30c;" d="M-231 688 L-300 604 L-369 688 L-463 688 L-346 545 L-254 545 L-137 688 L-231 688 Z " />
<glyph glyph-name="uni0315" unicode="&#x315;" d="M-304 712 C-342 712 -370 684 -370 650 C-370 614 -344 588 -308 588 C-302 588 -297 589 -293 590 C-295 559 -314 530 -355 493 L-322 458 C-260 505 -230 560 -230 617 C-230 677 -262 712 -304 712 L-304 712 Z " />
<glyph glyph-name="uni0326" unicode="&#x326;" d="M-305 -76 C-343 -76 -371 -104 -371 -138 C-371 -173 -345 -200 -308 -200 C-303 -200 -298 -199 -293 -198 C-295 -219 -302 -238 -315 -258 L-256 -258 C-237 -229 -229 -199 -229 -171 C-229 -111 -261 -76 -305 -76 L-305 -76 Z " />
<glyph glyph-name="uni0327" unicode="&#x327;" d="M-301 -51 L-300 0 L-368 0 L-376 -102 C-307 -102 -295 -112 -295 -129 C-295 -147 -310 -160 -351 -160 C-361 -160 -374 -159 -388 -157 L-388 -224 C-372 -227 -357 -228 -343 -228 C-258 -228 -214 -190 -214 -135 C-214 -88 -246 -57 -301 -51 L-301 -51 Z " />
<glyph glyph-name="uni0328" unicode="&#x328;" d="M-266 -215 C-249 -215 -233 -213 -219 -210 L-219 -133 C-230 -136 -241 -137 -250 -137 C-280 -137 -295 -125 -295 -100 C-295 -73 -277 -43 -219 0 L-254 18 C-337 -6 -381 -61 -381 -119 C-381 -178 -337 -215 -266 -215 L-266 -215 Z " />
<glyph glyph-name="uni03BC" unicode="&#x3bc;" horiz-adv-x="565" d="M390 473 L390 217 C390 125 346 79 279 79 C213 79 174 119 174 207 L174 473 L74 473 L74 -224 L174 -224 L174 35 C199 2 233 -12 271 -12 C324 -12 364 15 392 60 L395 60 L401 0 L490 0 L490 473 L390 473 Z " />
<glyph glyph-name="pi" unicode="&#x3c0;" horiz-adv-x="569" d="M519 89 C481 89 464 107 464 148 L464 473 L74 473 L74 0 L174 0 L174 384 L364 384 L364 135 C364 45 407 0 500 0 L543 0 L543 89 L519 89 Z " />
<glyph glyph-name="uni1E20" unicode="&#x1e20;" horiz-adv-x="779" d="M542 879 L258 879 L258 799 L542 799 L542 879 Z M410 276 L617 276 C601 155 514 83 398 83 C260 83 158 185 158 350 C158 514 259 617 402 617 C508 617 585 560 603 467 L713 467 C689 618 564 712 401 712 C198 712 50 564 50 349 C50 134 197 -12 387 -12 C486 -12 571 28 618 99 L621 99 L631 0 L713 0 L713 368 L410 368 L410 276 Z " />
<glyph glyph-name="uni1E21" unicode="&#x1e21;" horiz-adv-x="501" d="M394 650 L126 650 L126 574 L394 574 L394 650 Z M490 485 L253 485 C139 485 63 413 63 313 C63 264 81 222 112 192 C69 176 41 140 41 94 C41 58 58 30 86 11 C44 -10 21 -47 21 -94 C21 -181 97 -236 248 -236 C414 -236 490 -172 490 -70 C490 20 434 71 332 71 L186 71 C150 71 131 85 131 110 C131 131 146 149 171 154 C195 145 223 140 253 140 C368 140 443 212 443 313 C443 354 430 391 407 419 L490 427 L490 485 Z M253 218 C192 218 155 256 155 313 C155 371 192 409 253 409 C314 409 352 371 352 313 C352 256 314 218 253 218 L253 218 Z M313 -15 C373 -15 396 -36 396 -74 C396 -124 355 -153 254 -153 C156 -153 116 -126 116 -80 C116 -42 144 -15 185 -15 L313 -15 Z " />
<glyph glyph-name="uni1E30" unicode="&#x1e30;" horiz-adv-x="636" d="M467 919 L339 919 L266 768 L360 768 L467 919 Z M302 353 L619 700 L491 700 L200 380 L196 380 L196 700 L92 700 L92 0 L196 0 L196 315 L200 315 L490 0 L626 0 L302 353 Z " />
<glyph glyph-name="uni1E31" unicode="&#x1e31;" horiz-adv-x="515" d="M253 915 L132 915 L63 772 L152 772 L253 915 Z M507 0 L277 249 L501 473 L375 473 L177 276 L174 276 L174 700 L74 700 L74 0 L174 0 L174 218 L178 218 L379 0 L507 0 Z " />
<glyph glyph-name="uni1E3E" unicode="&#x1e3e;" horiz-adv-x="918" d="M593 919 L465 919 L392 768 L486 768 L593 919 Z M713 700 L460 146 L457 146 L205 700 L92 700 L92 0 L194 0 L194 487 L197 487 L421 0 L496 0 L720 487 L724 487 L724 0 L826 0 L826 700 L713 700 Z " />
<glyph glyph-name="uni1E3F" unicode="&#x1e3f;" horiz-adv-x="857" d="M557 688 L437 688 L368 545 L456 545 L557 688 Z M623 485 C554 485 493 451 462 400 L458 400 C432 456 382 485 320 485 C260 485 204 457 174 411 L171 411 L165 473 L74 473 L74 0 L174 0 L174 258 C174 348 222 396 289 396 C348 396 381 359 381 266 L381 0 L481 0 L481 258 C481 347 527 396 594 396 C653 396 687 358 687 266 L687 0 L787 0 L787 298 C787 418 721 485 623 485 L623 485 Z " />
<glyph glyph-name="uni1E40" unicode="&#x1e40;" horiz-adv-x="918" d="M459 776 C497 776 528 806 528 845 C528 884 497 913 459 913 C421 913 390 884 390 845 C390 806 421 776 459 776 L459 776 Z M713 700 L460 146 L457 146 L205 700 L92 700 L92 0 L194 0 L194 487 L197 487 L421 0 L496 0 L720 487 L724 487 L724 0 L826 0 L826 700 L713 700 Z " />
<glyph glyph-name="uni1E41" unicode="&#x1e41;" horiz-adv-x="857" d="M429 553 C465 553 494 581 494 618 C494 654 465 682 429 682 C393 682 364 654 364 618 C364 581 393 553 429 553 L429 553 Z M623 485 C554 485 493 451 462 400 L458 400 C432 456 382 485 320 485 C260 485 204 457 174 411 L171 411 L165 473 L74 473 L74 0 L174 0 L174 258 C174 348 222 396 289 396 C348 396 381 359 381 266 L381 0 L481 0 L481 258 C481 347 527 396 594 396 C653 396 687 358 687 266 L687 0 L787 0 L787 298 C787 418 721 485 623 485 L623 485 Z " />
<glyph glyph-name="uni1E44" unicode="&#x1e44;" horiz-adv-x="746" d="M374 776 C412 776 443 806 443 845 C443 884 412 913 374 913 C336 913 305 884 305 845 C305 806 336 776 374 776 L374 776 Z M550 700 L550 174 L547 174 L201 700 L92 700 L92 0 L196 0 L196 526 L200 526 L545 0 L655 0 L655 700 L550 700 Z " />
<glyph glyph-name="uni1E45" unicode="&#x1e45;" horiz-adv-x="565" d="M286 553 C322 553 351 581 351 618 C351 654 322 682 286 682 C250 682 221 654 221 618 C221 581 250 553 286 553 L286 553 Z M326 485 C260 485 204 457 174 411 L171 411 L165 473 L74 473 L74 0 L174 0 L174 257 C174 350 222 396 295 396 C359 396 395 360 395 263 L395 0 L495 0 L495 298 C495 418 428 485 326 485 L326 485 Z " />
<glyph glyph-name="Wgrave" unicode="&#x1e80;" horiz-adv-x="1001" d="M469 768 L563 768 L489 919 L362 919 L469 768 Z M232 0 L337 0 L499 545 L502 545 L664 0 L769 0 L982 700 L875 700 L714 163 L711 163 L550 700 L451 700 L289 163 L286 163 L126 700 L19 700 L232 0 Z " />
<glyph glyph-name="wgrave" unicode="&#x1e81;" horiz-adv-x="794" d="M365 545 L453 545 L384 688 L264 688 L365 545 Z M175 0 L278 0 L396 344 L398 344 L516 0 L619 0 L774 473 L670 473 L564 130 L561 130 L442 473 L352 473 L233 130 L230 130 L123 473 L20 473 L175 0 Z " />
<glyph glyph-name="Wacute" unicode="&#x1e82;" horiz-adv-x="1001" d="M434 768 L528 768 L635 919 L507 919 L434 768 Z M232 0 L337 0 L499 545 L502 545 L664 0 L769 0 L982 700 L875 700 L714 163 L711 163 L550 700 L451 700 L289 163 L286 163 L126 700 L19 700 L232 0 Z " />
<glyph glyph-name="wacute" unicode="&#x1e83;" horiz-adv-x="794" d="M336 545 L424 545 L525 688 L405 688 L336 545 Z M175 0 L278 0 L396 344 L398 344 L516 0 L619 0 L774 473 L670 473 L564 130 L561 130 L442 473 L352 473 L233 130 L230 130 L123 473 L20 473 L175 0 Z " />
<glyph glyph-name="Wdieresis" unicode="&#x1e84;" horiz-adv-x="1001" d="M394 777 C431 777 462 806 462 845 C462 883 431 912 394 912 C358 912 327 883 327 845 C327 806 358 777 394 777 L394 777 Z M607 777 C644 777 675 806 675 845 C675 883 644 912 607 912 C571 912 540 883 540 845 C540 806 571 777 607 777 L607 777 Z M232 0 L337 0 L499 545 L502 545 L664 0 L769 0 L982 700 L875 700 L714 163 L711 163 L550 700 L451 700 L289 163 L286 163 L126 700 L19 700 L232 0 Z " />
<glyph glyph-name="wdieresis" unicode="&#x1e85;" horiz-adv-x="794" d="M297 554 C332 554 360 581 360 618 C360 654 332 681 297 681 C262 681 233 654 233 618 C233 581 262 554 297 554 L297 554 Z M497 554 C532 554 561 581 561 618 C561 654 532 681 497 681 C462 681 434 654 434 618 C434 581 462 554 497 554 L497 554 Z M175 0 L278 0 L396 344 L398 344 L516 0 L619 0 L774 473 L670 473 L564 130 L561 130 L442 473 L352 473 L233 130 L230 130 L123 473 L20 473 L175 0 Z " />
<glyph glyph-name="uni1E90" unicode="&#x1e90;" horiz-adv-x="573" d="M285 857 L358 768 L457 768 L333 919 L237 919 L113 768 L212 768 L285 857 Z M176 96 L518 619 L518 700 L56 700 L56 604 L389 604 L48 81 L48 0 L526 0 L526 96 L176 96 Z " />
<glyph glyph-name="uni1E91" unicode="&#x1e91;" horiz-adv-x="450" d="M225 630 L294 545 L388 545 L271 688 L179 688 L62 545 L156 545 L225 630 Z M165 87 L407 405 L407 473 L41 473 L41 387 L280 387 L37 68 L37 0 L413 0 L413 87 L165 87 Z " />
<glyph glyph-name="uni1E9E" unicode="&#x1e9e;" horiz-adv-x="694" d="M457 379 L621 587 C568 665 477 712 353 712 C181 712 82 621 82 440 L82 0 L187 0 L187 437 C187 561 243 617 358 617 C414 617 457 604 492 574 L338 382 L338 296 L382 296 C499 296 545 263 545 191 C545 123 503 84 407 84 C380 84 343 87 309 95 L309 -1 C347 -9 387 -12 418 -12 C571 -12 653 65 653 189 C653 301 586 365 457 379 L457 379 Z " />
<glyph glyph-name="Ygrave" unicode="&#x1ef2;" horiz-adv-x="625" d="M281 768 L375 768 L301 919 L174 919 L281 768 Z M260 0 L365 0 L365 277 L619 700 L501 700 L314 377 L312 377 L125 700 L7 700 L260 277 L260 0 Z " />
<glyph glyph-name="ygrave" unicode="&#x1ef3;" horiz-adv-x="505" d="M310 545 L241 688 L121 688 L222 545 L310 545 Z M390 473 L254 120 L251 120 L118 473 L11 473 L201 -2 L112 -224 L215 -224 L494 473 L390 473 Z " />
<glyph glyph-name="uni2000" unicode="&#x2000;" horiz-adv-x="500" d="" />
<glyph glyph-name="uni2001" unicode="&#x2001;" horiz-adv-x="1000" d="" />
<glyph glyph-name="uni2002" unicode="&#x2002;" horiz-adv-x="500" d="" />
<glyph glyph-name="uni2003" unicode="&#x2003;" horiz-adv-x="1000" d="" />
<glyph glyph-name="uni2009" unicode="&#x2009;" horiz-adv-x="150" d="" />
<glyph glyph-name="uni200A" unicode="&#x200a;" horiz-adv-x="94" d="" />
<glyph glyph-name="uni200B" unicode="&#x200b;" d="" />
<glyph glyph-name="endash" unicode="&#x2013;" horiz-adv-x="500" d="M0 233 L500 233 L500 322 L0 322 L0 233 Z " />
<glyph glyph-name="emdash" unicode="&#x2014;" horiz-adv-x="1000" d="M0 233 L1000 233 L1000 322 L0 322 L0 233 Z " />
<glyph glyph-name="quoteleft" unicode="&#x2018;" horiz-adv-x="225" d="M121 582 C116 582 112 582 108 581 C110 611 128 641 168 677 L135 712 C73 665 43 610 43 553 C43 494 75 458 117 458 C155 458 183 486 183 520 C183 556 157 582 121 582 L121 582 Z " />
<glyph glyph-name="quoteright" unicode="&#x2019;" horiz-adv-x="225" d="M108 712 C71 712 43 684 43 650 C43 614 69 588 105 588 C110 588 114 588 118 589 C115 559 98 529 58 493 L90 458 C152 505 182 560 183 617 C183 677 151 712 108 712 L108 712 Z " />
<glyph glyph-name="quotesinglbase" unicode="&#x201a;" horiz-adv-x="256" d="M123 124 C86 124 58 96 58 62 C58 26 84 0 120 0 C125 0 129 0 133 1 C130 -29 113 -59 73 -95 L105 -130 C168 -83 197 -28 198 29 C198 89 166 124 123 124 L123 124 Z " />
<glyph glyph-name="quotedblleft" unicode="&#x201c;" horiz-adv-x="405" d="M121 582 C116 582 112 582 108 581 C110 611 128 641 168 677 L135 712 C73 665 43 610 43 553 C43 494 75 458 117 458 C155 458 183 486 183 520 C183 556 157 582 121 582 L121 582 Z M301 582 C296 582 292 582 288 581 C290 611 308 641 348 677 L315 712 C253 665 223 610 223 553 C223 494 255 458 297 458 C335 458 363 486 363 520 C363 556 337 582 301 582 L301 582 Z " />
<glyph glyph-name="quotedblright" unicode="&#x201d;" horiz-adv-x="405" d="M108 712 C71 712 43 684 43 650 C43 614 69 588 105 588 C110 588 114 588 118 589 C115 559 98 529 58 493 L90 458 C152 505 182 560 183 617 C183 677 151 712 108 712 L108 712 Z M288 712 C251 712 223 684 223 650 C223 614 249 588 285 588 C290 588 294 588 298 589 C295 559 278 529 238 493 L270 458 C333 505 362 560 363 617 C363 677 331 712 288 712 L288 712 Z " />
<glyph glyph-name="quotedblbase" unicode="&#x201e;" horiz-adv-x="436" d="M123 124 C86 124 58 96 58 62 C58 26 84 0 120 0 C125 0 129 0 133 1 C130 -29 113 -59 73 -95 L105 -130 C168 -83 197 -28 198 29 C198 89 166 124 123 124 L123 124 Z M303 124 C266 124 238 96 238 62 C238 26 264 0 300 0 C305 0 309 0 313 1 C310 -29 293 -59 253 -95 L285 -130 C348 -83 377 -28 378 29 C378 89 346 124 303 124 L303 124 Z " />
<glyph glyph-name="dagger" unicode="&#x2020;" horiz-adv-x="518" d="M474 511 L307 511 L307 742 L211 742 L211 511 L44 511 L44 420 L211 420 L211 -128 L307 -128 L307 420 L474 420 L474 511 Z " />
<glyph glyph-name="daggerdbl" unicode="&#x2021;" horiz-adv-x="538" d="M484 420 L484 511 L317 511 L317 742 L221 742 L221 511 L54 511 L54 420 L221 420 L221 211 L74 211 L74 120 L221 120 L221 -128 L317 -128 L317 120 L464 120 L464 211 L317 211 L317 420 L484 420 Z " />
<glyph glyph-name="bullet" unicode="&#x2022;" horiz-adv-x="517" d="M258 196 C346 196 411 263 411 349 C411 435 346 502 258 502 C171 502 106 435 106 349 C106 263 171 196 258 196 L258 196 Z " />
<glyph glyph-name="ellipsis" unicode="&#x2026;" horiz-adv-x="748" d="M128 -7 C168 -7 198 22 198 63 C198 103 168 133 128 133 C88 133 58 103 58 63 C58 22 88 -7 128 -7 L128 -7 Z M374 -7 C414 -7 444 22 444 63 C444 103 414 133 374 133 C334 133 304 103 304 63 C304 22 334 -7 374 -7 L374 -7 Z M620 -7 C660 -7 690 22 690 63 C690 103 660 133 620 133 C579 133 550 103 550 63 C550 22 579 -7 620 -7 L620 -7 Z " />
<glyph glyph-name="perthousand" unicode="&#x2030;" horiz-adv-x="1293" d="M217 353 C319 353 396 432 396 533 C396 633 319 712 217 712 C115 712 38 633 38 533 C38 432 115 353 217 353 L217 353 Z M165 0 L264 0 L715 700 L616 700 L165 0 Z M217 429 C159 429 121 473 121 533 C121 592 159 636 217 636 C275 636 313 592 313 533 C313 473 275 429 217 429 L217 429 Z M663 -12 C765 -12 842 67 842 167 C842 268 765 347 663 347 C561 347 484 268 484 167 C484 67 561 -12 663 -12 L663 -12 Z M1076 -12 C1178 -12 1256 67 1256 167 C1256 268 1178 347 1076 347 C975 347 897 268 897 167 C897 67 975 -12 1076 -12 L1076 -12 Z M663 64 C604 64 566 107 566 167 C566 228 604 271 663 271 C721 271 759 228 759 167 C759 107 721 64 663 64 L663 64 Z M1076 64 C1018 64 980 107 980 167 C980 228 1018 271 1076 271 C1135 271 1173 228 1173 167 C1173 107 1135 64 1076 64 L1076 64 Z " />
<glyph glyph-name="guilsinglleft" unicode="&#x2039;" horiz-adv-x="352" d="M305 501 L193 501 L42 285 L193 70 L305 70 L155 285 L305 501 Z " />
<glyph glyph-name="guilsinglright" unicode="&#x203a;" horiz-adv-x="352" d="M159 501 L47 501 L197 285 L47 70 L159 70 L310 285 L159 501 Z " />
<glyph glyph-name="fraction" unicode="&#x2044;" horiz-adv-x="550" d="M0 0 L99 0 L550 700 L451 700 L0 0 Z " />
<glyph glyph-name="uni2070" unicode="&#x2070;" horiz-adv-x="401" d="M200 264 C303 264 361 324 361 427 L361 549 C361 652 303 712 200 712 C98 712 40 652 40 549 L40 427 C40 324 98 264 200 264 L200 264 Z M200 342 C154 342 126 369 126 423 L126 553 C126 607 154 634 200 634 C247 634 275 607 275 553 L275 423 C275 369 247 342 200 342 L200 342 Z " />
<glyph glyph-name="uni2074" unicode="&#x2074;" horiz-adv-x="395" d="M371 419 L320 419 L320 700 L218 700 L33 414 L33 346 L240 346 L240 266 L320 266 L320 346 L371 346 L371 419 Z M120 419 L240 605 L240 419 L120 419 Z " />
<glyph glyph-name="uni2075" unicode="&#x2075;" horiz-adv-x="379" d="M213 550 C184 550 158 543 136 528 L148 622 L322 622 L322 700 L76 700 L47 450 L130 450 C144 469 168 481 195 481 C235 481 264 455 264 411 C264 367 234 337 194 337 C158 337 129 359 127 395 L41 395 C43 309 106 259 192 259 C285 259 348 318 348 408 C348 494 291 550 213 550 L213 550 Z " />
<glyph glyph-name="uni2076" unicode="&#x2076;" horiz-adv-x="386" d="M207 565 L196 565 L287 700 L186 700 L82 544 C47 493 33 456 33 417 C33 326 104 259 193 259 C284 259 354 327 354 417 C354 504 288 565 207 565 L207 565 Z M194 337 C151 337 117 370 117 416 C117 462 151 494 194 494 C237 494 269 462 269 416 C269 370 237 337 194 337 L194 337 Z " />
<glyph glyph-name="uni2077" unicode="&#x2077;" horiz-adv-x="332" d="M23 700 L23 619 L208 619 L55 266 L157 266 L306 622 L306 700 L23 700 Z " />
<glyph glyph-name="uni2078" unicode="&#x2078;" horiz-adv-x="384" d="M279 496 C320 517 341 553 341 592 C341 660 282 712 192 712 C103 712 43 661 43 592 C43 553 63 518 105 496 C61 475 36 436 36 390 C36 317 94 264 192 264 C289 264 348 317 348 390 C348 437 323 476 279 496 L279 496 Z M192 642 C230 642 256 618 256 583 C256 550 231 526 192 526 C152 526 127 550 127 583 C127 618 154 642 192 642 L192 642 Z M192 336 C153 336 121 360 121 397 C121 434 151 459 192 459 C232 459 262 434 262 397 C262 361 232 336 192 336 L192 336 Z " />
<glyph glyph-name="uni2079" unicode="&#x2079;" horiz-adv-x="386" d="M194 712 C103 712 33 644 33 554 C33 467 99 406 180 406 L191 406 L100 271 L201 271 L305 427 C340 478 354 515 354 554 C354 645 283 712 194 712 L194 712 Z M193 477 C150 477 118 509 118 555 C118 601 150 634 193 634 C236 634 270 601 270 555 C270 509 236 477 193 477 L193 477 Z " />
<glyph glyph-name="Euro" unicode="&#x20ac;" horiz-adv-x="636" d="M508 194 C499 118 448 76 383 76 C313 76 252 129 229 243 L450 243 L450 308 L220 308 C219 321 219 335 219 350 C219 365 219 379 220 392 L450 392 L450 457 L229 457 C253 570 317 626 388 626 C449 626 493 586 502 504 L603 504 C589 637 502 712 388 712 C264 712 160 623 129 457 L41 457 L41 392 L121 392 C120 377 119 361 119 345 C119 332 119 320 120 308 L41 308 L41 243 L127 243 C155 77 254 -12 380 -12 C497 -12 589 64 607 194 L508 194 Z " />
<glyph glyph-name="uni2116" unicode="&#x2116;" horiz-adv-x="1243" d="M977 286 C1098 286 1187 374 1187 499 C1187 625 1098 712 977 712 C855 712 766 624 766 499 C766 374 855 286 977 286 L977 286 Z M550 174 L547 174 L201 700 L92 700 L92 0 L196 0 L196 526 L200 526 L545 0 L655 0 L655 700 L550 700 L550 174 Z M977 626 C1042 626 1089 576 1089 499 C1089 423 1042 371 977 371 C912 371 865 422 865 499 C865 576 912 626 977 626 L977 626 Z M821 114 L1132 114 L1132 203 L821 203 L821 114 Z " />
<glyph glyph-name="trademark" unicode="&#x2122;" horiz-adv-x="753" d="M34 628 L120 628 L120 394 L198 394 L198 628 L284 628 L284 700 L34 700 L34 628 Z M616 700 L519 551 L421 700 L337 700 L337 394 L411 394 L411 595 L492 470 L545 470 L627 596 L627 394 L701 394 L701 700 L616 700 Z " />
<glyph glyph-name="uni2126" unicode="&#x2126;" horiz-adv-x="810" d="M740 365 C740 569 590 712 405 712 C221 712 70 569 70 365 C70 244 123 147 215 90 L70 90 L70 0 L353 0 L353 93 C240 144 171 232 171 363 C171 518 268 622 405 622 C542 622 640 518 640 363 C640 232 570 144 458 93 L458 0 L740 0 L740 90 L595 90 C687 147 740 244 740 365 L740 365 Z " />
<glyph glyph-name="estimated" unicode="&#x212e;" horiz-adv-x="834" d="M417 0 C536 0 642 55 705 149 L684 165 C627 77 529 26 417 26 C344 26 280 47 225 88 C191 113 180 141 180 187 L180 338 L764 338 L764 350 C764 452 725 545 662 605 C600 664 512 700 417 700 C322 700 234 664 171 605 C109 545 70 452 70 350 C70 247 109 157 171 97 C234 36 322 0 417 0 L417 0 Z M180 362 L180 512 C180 558 191 587 225 612 C280 653 344 674 417 674 C494 674 559 652 616 609 C648 584 659 553 659 508 L659 362 L180 362 Z " />
<glyph glyph-name="arrowleft" unicode="&#x2190;" horiz-adv-x="710" d="M675 398 L204 398 L358 549 L295 614 L36 350 L295 86 L358 151 L204 302 L675 302 L675 398 Z " />
<glyph glyph-name="arrowup" unicode="&#x2191;" horiz-adv-x="710" d="M619 413 L355 673 L91 413 L156 351 L307 505 L307 34 L403 34 L403 505 L554 351 L619 413 Z " />
<glyph glyph-name="arrowright" unicode="&#x2192;" horiz-adv-x="710" d="M415 614 L352 549 L506 398 L35 398 L35 302 L506 302 L352 151 L415 86 L674 350 L415 614 Z " />
<glyph glyph-name="arrowdown" unicode="&#x2193;" horiz-adv-x="710" d="M554 349 L403 195 L403 666 L307 666 L307 195 L156 349 L91 287 L355 27 L619 287 L554 349 Z " />
<glyph glyph-name="uni2196" unicode="&#x2196;" horiz-adv-x="710" d="M599 173 L266 506 L482 505 L484 594 L114 591 L111 221 L200 223 L199 439 L532 106 L599 173 Z " />
<glyph glyph-name="uni2197" unicode="&#x2197;" horiz-adv-x="710" d="M599 221 L596 591 L226 594 L228 505 L444 506 L111 173 L178 106 L511 439 L510 223 L599 221 Z " />
<glyph glyph-name="uni2198" unicode="&#x2198;" horiz-adv-x="710" d="M510 477 L511 261 L178 594 L111 527 L444 194 L228 195 L226 106 L596 109 L599 479 L510 477 Z " />
<glyph glyph-name="uni2199" unicode="&#x2199;" horiz-adv-x="710" d="M266 194 L599 527 L532 594 L199 261 L200 477 L111 479 L114 109 L484 106 L482 195 L266 194 Z " />
<glyph glyph-name="partialdiff" unicode="&#x2202;" horiz-adv-x="634" d="M289 712 C228 712 178 699 136 680 L136 587 C192 614 237 623 283 623 C408 623 473 554 482 372 L479 372 C439 433 370 465 291 465 C150 465 47 364 47 231 C47 90 152 -12 309 -12 C386 -12 449 14 497 60 C553 115 582 205 582 332 C582 576 485 712 289 712 L289 712 Z M309 77 C213 77 148 138 148 231 C148 319 213 377 309 377 C405 377 469 319 469 231 C469 138 405 77 309 77 L309 77 Z " />
<glyph glyph-name="uni2206" unicode="&#x2206;" horiz-adv-x="686" d="M372 700 L313 700 L24 53 L56 0 L629 0 L662 53 L372 700 Z M541 92 L145 92 L343 535 L541 92 Z " />
<glyph glyph-name="product" unicode="&#x220f;" horiz-adv-x="676" d="M92 742 L92 -128 L192 -128 L192 649 L484 649 L484 -128 L584 -128 L584 742 L92 742 Z " />
<glyph glyph-name="summation" unicode="&#x2211;" horiz-adv-x="539" d="M511 742 L52 742 L52 650 L299 307 L52 -36 L52 -128 L511 -128 L511 -36 L165 -36 L411 307 L165 650 L511 650 L511 742 Z " />
<glyph glyph-name="minus" unicode="&#x2212;" horiz-adv-x="650" d="M103 272 L547 272 L547 362 L103 362 L103 272 Z " />
<glyph glyph-name="radical" unicode="&#x221a;" horiz-adv-x="635" d="M516 742 L310 16 L200 331 L24 331 L24 239 L130 239 L262 -128 L367 -128 L617 742 L516 742 Z " />
<glyph glyph-name="infinity" unicode="&#x221e;" horiz-adv-x="762" d="M543 521 C462 521 416 476 381 422 C346 476 300 521 219 521 C113 521 42 445 42 337 C42 229 113 153 219 153 C300 153 346 198 381 252 C416 198 462 153 543 153 C649 153 720 229 720 337 C720 445 649 521 543 521 L543 521 Z M217 234 C165 234 130 274 130 337 C130 399 165 440 217 440 C273 440 304 393 334 337 C304 281 273 234 217 234 L217 234 Z M545 234 C489 234 458 281 428 337 C458 393 489 440 545 440 C597 440 632 399 632 337 C632 274 597 234 545 234 L545 234 Z " />
<glyph glyph-name="integral" unicode="&#x222b;" horiz-adv-x="397" d="M24 -128 L110 -128 C205 -128 249 -88 249 3 L249 596 C249 637 268 653 307 653 L373 653 L373 742 L287 742 C192 742 148 702 148 611 L148 18 C148 -23 129 -39 90 -39 L24 -39 L24 -128 Z " />
<glyph glyph-name="approxequal" unicode="&#x2248;" horiz-adv-x="650" d="M430 352 C474 352 510 368 547 394 L547 483 C518 459 473 441 429 441 C362 441 293 485 223 485 C184 485 141 472 103 444 L103 355 C149 386 182 396 221 396 C294 396 357 352 430 352 L430 352 Z M430 149 C474 149 510 165 547 190 L547 280 C519 257 474 238 429 238 C362 238 293 282 223 282 C185 282 143 270 103 241 L103 151 C146 180 179 193 221 193 C294 193 357 149 430 149 L430 149 Z " />
<glyph glyph-name="notequal" unicode="&#x2260;" horiz-adv-x="650" d="M547 374 L547 464 L432 464 L490 588 L411 588 L353 464 L103 464 L103 374 L312 374 L258 260 L103 260 L103 170 L217 170 L159 46 L238 46 L296 170 L547 170 L547 260 L337 260 L391 374 L547 374 Z " />
<glyph glyph-name="lessequal" unicode="&#x2264;" horiz-adv-x="650" d="M547 574 L103 405 L103 312 L547 144 L547 239 L213 359 L547 478 L547 574 Z M103 0 L547 0 L547 90 L103 90 L103 0 Z " />
<glyph glyph-name="greaterequal" unicode="&#x2265;" horiz-adv-x="650" d="M103 574 L103 478 L437 359 L103 239 L103 144 L547 312 L547 405 L103 574 Z M103 0 L547 0 L547 90 L103 90 L103 0 Z " />
<glyph glyph-name="filledbox" unicode="&#x25a0;" horiz-adv-x="900" d="M100 0 L800 0 L800 700 L100 700 L100 0 Z " />
<glyph glyph-name="triagup" unicode="&#x25b2;" horiz-adv-x="900" d="M100 0 L800 0 L450 700 L100 0 Z " />
<glyph glyph-name="triagdn" unicode="&#x25bc;" horiz-adv-x="900" d="M450 0 L800 700 L100 700 L450 0 Z " />
<glyph glyph-name="uni25C6" unicode="&#x25c6;" horiz-adv-x="900" d="M449 0 L800 349 L449 700 L100 349 L449 0 Z " />
<glyph glyph-name="lozenge" unicode="&#x25ca;" horiz-adv-x="635" d="M27 350 L278 0 L357 0 L608 350 L357 700 L278 700 L27 350 Z M142 349 L318 595 L493 351 L317 105 L142 349 Z " />
<glyph glyph-name="uni25CF" unicode="&#x25cf;" horiz-adv-x="900" d="M450 0 C643 0 800 157 800 350 C800 543 643 700 450 700 C257 700 100 543 100 350 C100 157 257 0 450 0 L450 0 Z " />
<glyph glyph-name="uni2610" unicode="&#x2610;" horiz-adv-x="900" d="M100 0 L800 0 L800 700 L100 700 L100 0 Z M176 71 L176 629 L724 629 L724 71 L176 71 Z " />
<glyph glyph-name="uni2611" unicode="&#x2611;" horiz-adv-x="900" d="M100 700 L100 0 L800 0 L800 700 L100 700 Z M724 71 L176 71 L176 629 L724 629 L724 71 Z M643 520 L569 563 L392 257 L302 309 L258 231 L421 137 L643 520 Z " />
<glyph glyph-name="uni2612" unicode="&#x2612;" horiz-adv-x="900" d="M100 700 L100 0 L800 0 L800 700 L100 700 Z M724 71 L176 71 L176 629 L724 629 L724 71 Z M300 143 L450 293 L600 143 L657 200 L507 350 L657 500 L600 557 L450 407 L300 557 L243 500 L393 350 L243 200 L300 143 Z " />
<glyph glyph-name="heart" unicode="&#x2665;" horiz-adv-x="900" d="M450 48 C593 188 776 221 776 409 C776 541 684 606 599 606 C526 606 459 560 452 470 L448 470 C441 560 374 606 301 606 C216 606 124 541 124 409 C124 221 307 188 450 48 L450 48 Z " />
<glyph glyph-name="uni2B51" unicode="&#x2b51;" horiz-adv-x="900" d="M218 -3 L449 165 L679 -3 L591 267 L822 434 L536 434 L449 705 L362 435 L78 435 L307 269 L218 -3 Z " />
</font>
</svg>
