<?xml version="1.0" encoding="UTF-8"?>
<svg xmlns="http://www.w3.org/2000/svg" xmlns:xlink="http://www.w3.org/1999/xlink" version="1.2" >
<font id="BR Hendrix Thin Italic">
<font-face  font-family="BR Hendrix" units-per-em="1000" ascent="760" descent="-240" font-style="normal" font-weight="100" font-stretch="normal" slope="-6" cap-height="700" x-height="458" underline-position="-145" underline-thickness="50" />
<missing-glyph  horiz-adv-x="796" d="M86 0 L662 0 L736 700 L160 700 L86 0 Z M353 265 L356 296 C361 341 372 359 418 394 L453 420 C473 434 488 450 488 478 C488 504 468 519 434 519 C390 519 364 494 357 448 L281 448 C290 537 352 590 440 590 C515 590 568 547 568 486 C568 439 540 405 497 372 L465 348 C440 329 435 320 432 293 L429 265 L353 265 Z M375 105 C349 105 328 123 328 151 C328 184 352 209 384 209 C409 209 431 192 431 165 C431 136 412 105 375 105 L375 105 Z " />
<glyph glyph-name="CR" unicode="&#xd;" horiz-adv-x="250" d="" />
<glyph glyph-name="space" unicode="&#x20;" horiz-adv-x="250" d="" />
<glyph glyph-name="exclam" unicode="&#x21;" horiz-adv-x="235" d="M105 180 L121 180 L177 700 L159 700 L105 180 Z M94 -4 C107 -4 124 8 124 27 C124 41 113 52 99 52 C81 52 68 37 68 22 C68 8 79 -4 94 -4 L94 -4 Z " />
<glyph glyph-name="quotedbl" unicode="&#x22;" horiz-adv-x="304" d="M95 454 L111 454 L139 712 L121 712 L95 454 Z M241 454 L257 454 L285 712 L267 712 L241 454 Z " />
<glyph glyph-name="numbersign" unicode="&#x23;" horiz-adv-x="736" d="M690 456 L692 472 L555 472 L619 685 L602 685 L538 472 L297 472 L361 685 L344 685 L280 472 L138 472 L136 456 L275 456 L211 244 L72 244 L70 228 L206 228 L142 15 L159 15 L223 228 L464 228 L400 15 L417 15 L481 228 L624 228 L626 244 L486 244 L550 456 L690 456 Z M469 244 L228 244 L292 456 L533 456 L469 244 Z " />
<glyph glyph-name="dollar" unicode="&#x24;" horiz-adv-x="544" d="M328 676 L335 742 L317 742 L310 676 C198 673 102 596 102 488 C102 420 150 378 259 352 L275 348 L244 43 C147 49 80 109 76 212 L58 212 C59 99 138 32 242 25 L235 -42 L253 -42 L260 24 C380 24 482 105 482 221 C482 289 432 329 322 355 L295 362 L326 658 C418 654 485 603 486 503 L504 503 C507 605 430 671 328 676 L328 676 Z M272 367 C167 392 121 425 121 489 C121 586 202 655 308 658 L277 366 L272 367 Z M463 219 C463 118 373 42 262 42 L293 344 L309 340 C426 312 463 278 463 219 L463 219 Z " />
<glyph glyph-name="percent" unicode="&#x25;" horiz-adv-x="817" d="M235 396 C333 396 409 475 409 573 C409 655 351 712 268 712 C170 712 93 635 93 535 C93 453 151 396 235 396 L235 396 Z M132 0 L154 0 L711 700 L689 700 L132 0 Z M235 412 C159 412 110 462 110 535 C110 626 177 696 267 696 C343 696 392 646 392 573 C392 482 325 412 235 412 L235 412 Z M575 -12 C673 -12 749 67 749 165 C749 247 691 304 608 304 C510 304 433 227 433 127 C433 45 491 -12 575 -12 L575 -12 Z M575 4 C499 4 450 54 450 127 C450 218 517 288 607 288 C683 288 732 238 732 165 C732 74 665 4 575 4 L575 4 Z " />
<glyph glyph-name="ampersand" unicode="&#x26;" horiz-adv-x="641" d="M572 339 L555 339 C539 247 510 176 472 122 L282 368 L326 392 C418 442 492 497 492 583 C492 655 438 712 344 712 C246 712 166 646 166 552 C166 510 185 469 236 402 L257 374 L242 366 C134 307 56 249 56 145 C56 50 133 -12 247 -12 C334 -12 413 23 471 97 L546 0 L566 0 L482 109 C523 165 554 241 572 339 L572 339 Z M183 553 C183 638 256 696 344 696 C421 696 475 651 475 582 C475 505 407 455 317 405 L273 380 L249 411 C202 472 183 512 183 553 L183 553 Z M248 4 C143 4 74 59 74 147 C74 243 148 297 251 353 L267 362 L461 110 C406 38 331 4 248 4 L248 4 Z " />
<glyph glyph-name="quotesingle" unicode="&#x27;" horiz-adv-x="158" d="M95 454 L111 454 L139 712 L121 712 L95 454 Z " />
<glyph glyph-name="parenleft" unicode="&#x28;" horiz-adv-x="301" d="M204 -124 L219 -113 C147 -15 108 115 108 246 C108 269 110 292 112 315 C128 468 200 627 309 742 L296 754 C184 635 110 475 93 315 C90 291 89 267 89 243 C89 108 129 -23 204 -124 L204 -124 Z " />
<glyph glyph-name="parenright" unicode="&#x29;" horiz-adv-x="301" d="M115 754 L100 743 C172 645 211 515 211 384 C211 361 209 338 207 315 C191 162 119 3 10 -112 L23 -124 C135 -5 209 155 226 315 C229 339 230 363 230 387 C230 522 190 653 115 754 L115 754 Z " />
<glyph glyph-name="asterisk" unicode="&#x2a;" horiz-adv-x="455" d="M269 712 L252 533 L88 590 L81 573 L247 520 L124 375 L138 365 L258 511 L346 365 L361 376 L268 519 L446 573 L442 590 L266 533 L287 712 L269 712 Z " />
<glyph glyph-name="plus" unicode="&#x2b;" horiz-adv-x="650" d="M545 326 L344 326 L366 538 L348 538 L326 326 L125 326 L123 309 L324 309 L302 96 L320 96 L342 309 L543 309 L545 326 Z " />
<glyph glyph-name="comma" unicode="&#x2c;" horiz-adv-x="201" d="M80 52 C61 52 48 38 48 22 C48 7 60 -4 75 -4 C79 -4 84 -3 89 0 C86 -33 67 -75 39 -102 L49 -113 C82 -82 108 -30 108 14 C108 40 95 52 80 52 L80 52 Z " />
<glyph glyph-name="hyphen" unicode="&#x2d;" horiz-adv-x="410" d="M64 264 L354 264 L355 281 L65 281 L64 264 Z " />
<glyph glyph-name="period" unicode="&#x2e;" horiz-adv-x="195" d="M74 -4 C87 -4 104 8 104 27 C104 41 93 52 79 52 C61 52 48 37 48 22 C48 8 59 -4 74 -4 L74 -4 Z " />
<glyph glyph-name="slash" unicode="&#x2f;" horiz-adv-x="428" d="M-14 -92 L6 -92 L462 742 L442 742 L-14 -92 Z " />
<glyph glyph-name="zero" unicode="0" horiz-adv-x="632" d="M291 -12 C439 -12 526 75 544 247 L566 453 C568 471 569 488 569 504 C569 642 500 712 367 712 C219 712 132 625 114 453 L92 247 C90 229 89 212 89 196 C89 58 158 -12 291 -12 L291 -12 Z M291 6 C169 6 108 67 108 196 C108 212 109 229 111 247 L133 453 C150 617 230 694 367 694 C490 694 550 633 550 505 C550 489 549 471 547 453 L525 247 C508 83 428 6 291 6 L291 6 Z " />
<glyph glyph-name="one" unicode="1" horiz-adv-x="377" d="M281 700 C268 636 259 628 203 628 L139 628 L137 611 L268 611 L204 0 L223 0 L297 700 L281 700 Z " />
<glyph glyph-name="two" unicode="2" horiz-adv-x="566" d="M83 30 C95 141 127 189 300 291 C375 336 426 372 459 404 C504 449 523 490 523 552 C523 649 458 712 350 712 C230 712 131 636 108 492 L126 492 C151 628 239 694 350 694 C447 694 504 642 504 552 C504 495 488 456 447 416 C414 385 364 349 285 302 C118 203 77 149 64 30 L61 0 L477 0 L479 18 L82 18 L83 30 Z " />
<glyph glyph-name="three" unicode="3" horiz-adv-x="578" d="M268 -12 C400 -12 503 80 503 209 C503 286 458 342 373 363 L373 365 C459 391 518 460 518 555 C518 650 450 712 346 712 C237 712 147 645 124 533 L142 533 C166 638 245 694 346 694 C443 694 499 642 499 555 C499 441 420 373 303 373 L240 373 L238 355 L301 355 C420 355 484 297 484 208 C484 88 390 6 268 6 C158 6 87 72 89 184 L71 184 C67 61 149 -12 268 -12 L268 -12 Z " />
<glyph glyph-name="four" unicode="4" horiz-adv-x="569" d="M530 180 L420 180 L475 700 L455 700 L43 177 L41 162 L399 162 L382 0 L401 0 L418 162 L528 162 L530 180 Z M69 180 L452 666 L401 180 L69 180 Z " />
<glyph glyph-name="five" unicode="5" horiz-adv-x="584" d="M528 682 L530 700 L190 700 L109 329 L130 329 C180 386 251 418 327 418 C434 418 501 356 501 248 C501 116 412 6 273 6 C172 6 102 66 96 175 L78 175 C81 55 163 -12 273 -12 C418 -12 520 105 520 248 C520 366 441 436 328 436 C253 436 187 407 131 353 L204 682 L528 682 Z " />
<glyph glyph-name="six" unicode="6" horiz-adv-x="584" d="M318 436 C269 436 217 420 176 391 L417 700 L394 700 L153 389 C102 324 67 263 67 186 C67 72 150 -12 269 -12 C405 -12 517 100 517 236 C517 350 431 436 318 436 L318 436 Z M271 6 C162 6 86 79 86 187 C86 316 187 418 314 418 C422 418 498 345 498 237 C498 109 399 6 271 6 L271 6 Z " />
<glyph glyph-name="seven" unicode="7" horiz-adv-x="501" d="M100 700 L98 682 L480 682 L113 0 L134 0 L502 685 L504 700 L100 700 Z " />
<glyph glyph-name="eight" unicode="8" horiz-adv-x="582" d="M266 -12 C396 -12 506 78 506 203 C506 284 452 345 369 360 L369 361 C462 380 528 454 528 546 C528 641 449 712 342 712 C224 712 116 623 116 509 C116 438 159 379 241 361 L241 360 C141 343 66 262 66 162 C66 63 145 -12 266 -12 L266 -12 Z M305 370 C193 370 134 428 134 509 C134 614 226 694 341 694 C443 694 510 633 510 547 C510 439 425 370 305 370 L305 370 Z M267 6 C156 6 85 71 85 162 C85 275 181 352 306 352 C420 352 487 290 487 201 C487 89 390 6 267 6 L267 6 Z " />
<glyph glyph-name="nine" unicode="9" horiz-adv-x="583" d="M340 712 C204 712 92 600 92 464 C92 350 178 264 291 264 C340 264 392 280 433 309 L192 0 L215 0 L456 311 C507 376 542 437 542 514 C542 628 459 712 340 712 L340 712 Z M295 282 C187 282 111 355 111 463 C111 591 210 694 338 694 C447 694 523 621 523 513 C523 384 422 282 295 282 L295 282 Z " />
<glyph glyph-name="colon" unicode="&#x3a;" horiz-adv-x="206" d="M127 401 C140 401 157 413 157 432 C157 446 146 457 132 457 C114 457 101 442 101 427 C101 413 112 401 127 401 L127 401 Z M84 -4 C97 -4 114 8 114 27 C114 41 103 52 89 52 C71 52 58 37 58 22 C58 8 69 -4 84 -4 L84 -4 Z " />
<glyph glyph-name="semicolon" unicode="&#x3b;" horiz-adv-x="211" d="M132 458 C114 458 101 443 101 428 C101 414 112 402 127 402 C140 402 157 414 157 433 C157 447 146 458 132 458 L132 458 Z M90 52 C71 52 58 38 58 22 C58 7 70 -4 85 -4 C89 -4 94 -3 99 0 C96 -33 77 -75 49 -102 L59 -113 C92 -82 118 -30 118 14 C118 40 105 52 90 52 L90 52 Z " />
<glyph glyph-name="less" unicode="&#x3c;" horiz-adv-x="650" d="M564 505 L125 327 L123 307 L524 129 L526 147 L143 317 L562 486 L564 505 Z " />
<glyph glyph-name="equal" unicode="&#x3d;" horiz-adv-x="650" d="M135 418 L555 418 L557 435 L137 435 L135 418 Z M112 199 L532 199 L534 216 L114 216 L112 199 Z " />
<glyph glyph-name="greater" unicode="&#x3e;" horiz-adv-x="650" d="M144 505 L142 487 L526 318 L106 149 L104 129 L543 307 L545 327 L144 505 Z " />
<glyph glyph-name="question" unicode="&#x3f;" horiz-adv-x="473" d="M200 180 L218 180 L225 252 C231 309 240 326 298 370 L351 411 C410 456 451 509 451 581 C451 663 389 712 296 712 C204 712 122 664 84 554 L101 549 C135 651 214 695 297 695 C379 695 433 654 433 580 C433 519 401 470 348 429 L295 388 C226 336 214 317 207 252 L200 180 Z M190 -4 C203 -4 220 8 220 27 C220 41 209 52 195 52 C177 52 164 37 164 22 C164 8 175 -4 190 -4 L190 -4 Z " />
<glyph glyph-name="at" unicode="&#x40;" horiz-adv-x="930" d="M440 -183 C519 -183 595 -166 649 -139 L651 -121 C597 -149 516 -166 439 -166 C223 -166 80 -31 80 175 C80 423 269 623 522 623 C712 623 858 511 858 303 C858 179 808 38 704 38 C651 38 622 78 630 157 L657 411 L640 411 L629 315 L628 315 C611 384 557 425 484 425 C365 425 280 325 280 195 C280 89 344 21 441 21 C516 21 582 63 611 135 L612 135 C611 56 651 21 704 21 C817 21 876 166 876 302 C876 512 727 640 522 640 C261 640 62 433 62 174 C62 -40 212 -183 440 -183 L440 -183 Z M442 38 C357 38 298 97 298 195 C298 314 372 408 483 408 C568 408 623 350 623 253 C623 137 554 38 442 38 L442 38 Z " />
<glyph glyph-name="A" unicode="A" horiz-adv-x="619" d="M547 0 L565 0 L366 700 L353 700 L6 0 L26 0 L133 215 L486 215 L547 0 Z M141 233 L356 666 L357 666 L481 233 L141 233 Z " />
<glyph glyph-name="B" unicode="B" horiz-adv-x="629" d="M422 358 L422 359 C512 382 557 447 557 541 C557 641 490 700 363 700 L160 700 L86 0 L326 0 C472 0 556 74 556 214 C556 296 512 345 422 358 L422 358 Z M177 682 L361 682 C486 682 538 630 538 542 C538 413 461 364 323 364 L143 364 L177 682 Z M328 18 L107 18 L142 346 L358 346 C484 346 537 304 537 214 C537 86 467 18 328 18 L328 18 Z " />
<glyph glyph-name="C" unicode="C" horiz-adv-x="758" d="M370 -12 C525 -12 661 87 698 229 L679 229 C642 96 516 6 371 6 C207 6 89 123 89 303 C89 518 239 694 445 694 C594 694 698 602 704 470 L723 470 C717 610 602 712 446 712 C232 712 70 528 70 302 C70 112 197 -12 370 -12 L370 -12 Z " />
<glyph glyph-name="D" unicode="D" horiz-adv-x="672" d="M292 700 L160 700 L86 0 L218 0 C456 0 625 159 625 395 C625 584 495 700 292 700 L292 700 Z M220 18 L107 18 L177 682 L290 682 C489 682 606 573 606 395 C606 173 451 18 220 18 L220 18 Z " />
<glyph glyph-name="E" unicode="E" horiz-adv-x="588" d="M558 682 L560 700 L160 700 L86 0 L486 0 L488 18 L107 18 L142 346 L497 346 L499 364 L144 364 L177 682 L558 682 Z " />
<glyph glyph-name="F" unicode="F" horiz-adv-x="576" d="M558 682 L560 700 L160 700 L86 0 L105 0 L140 334 L505 334 L507 352 L142 352 L177 682 L558 682 Z " />
<glyph glyph-name="G" unicode="G" horiz-adv-x="783" d="M425 309 L693 309 C668 117 535 6 373 6 C211 6 89 116 89 302 C89 519 238 694 448 694 C592 694 701 612 711 484 L730 484 C720 618 603 712 449 712 C232 712 70 530 70 302 C70 111 195 -12 373 -12 C510 -12 627 64 678 192 L680 192 L661 0 L679 0 L713 327 L427 327 L425 309 Z " />
<glyph glyph-name="H" unicode="H" horiz-adv-x="692" d="M613 700 L577 360 L143 360 L179 700 L160 700 L86 0 L105 0 L141 342 L575 342 L539 0 L558 0 L632 700 L613 700 Z " />
<glyph glyph-name="I" unicode="I" horiz-adv-x="239" d="M86 0 L105 0 L179 700 L160 700 L86 0 Z " />
<glyph glyph-name="J" unicode="J" horiz-adv-x="616" d="M205 700 L203 682 L545 682 L497 227 C481 77 408 6 273 6 C160 6 96 55 96 175 C96 186 97 198 98 210 L108 311 L89 311 L79 210 C78 197 77 185 77 174 C77 46 148 -12 273 -12 C420 -12 499 68 516 227 L566 700 L205 700 Z " />
<glyph glyph-name="K" unicode="K" horiz-adv-x="593" d="M596 700 L568 700 L143 356 L142 356 L179 700 L160 700 L86 0 L105 0 L141 343 L142 343 L503 0 L529 0 L162 349 L596 700 Z " />
<glyph glyph-name="L" unicode="L" horiz-adv-x="531" d="M107 18 L179 700 L160 700 L86 0 L463 0 L465 18 L107 18 Z " />
<glyph glyph-name="M" unicode="M" horiz-adv-x="915" d="M835 700 L436 31 L435 31 L178 700 L160 700 L86 0 L105 0 L174 655 L175 655 L428 0 L439 0 L830 655 L831 655 L762 0 L781 0 L855 700 L835 700 Z " />
<glyph glyph-name="N" unicode="N" horiz-adv-x="710" d="M631 700 L561 35 L560 35 L178 700 L160 700 L86 0 L105 0 L175 665 L176 665 L558 0 L576 0 L650 700 L631 700 Z " />
<glyph glyph-name="O" unicode="O" horiz-adv-x="795" d="M372 -12 C586 -12 750 171 750 396 C750 584 626 712 448 712 C234 712 70 529 70 302 C70 115 194 -12 372 -12 L372 -12 Z M371 6 C206 6 89 120 89 302 C89 519 239 694 449 694 C614 694 731 580 731 398 C731 181 581 6 371 6 L371 6 Z " />
<glyph glyph-name="P" unicode="P" horiz-adv-x="616" d="M360 700 L160 700 L86 0 L105 0 L135 282 L316 282 C475 282 587 368 587 517 C587 628 509 700 360 700 L360 700 Z M317 300 L137 300 L177 682 L358 682 C501 682 568 617 568 517 C568 379 468 300 317 300 L317 300 Z " />
<glyph glyph-name="Q" unicode="Q" horiz-adv-x="795" d="M750 396 C750 584 626 712 448 712 C234 712 70 529 70 302 C70 115 194 -12 372 -12 C450 -12 521 12 581 54 L665 -62 L679 -51 L595 65 C690 139 750 260 750 396 L750 396 Z M371 6 C206 6 89 120 89 302 C89 519 239 694 449 694 C614 694 731 580 731 398 C731 266 675 149 584 78 L440 276 L427 266 L571 68 C515 29 447 6 371 6 L371 6 Z " />
<glyph glyph-name="R" unicode="R" horiz-adv-x="640" d="M587 520 C587 628 509 700 360 700 L160 700 L86 0 L105 0 L136 290 L316 290 L335 290 L520 0 L541 0 L355 292 C491 305 587 386 587 520 L587 520 Z M138 308 L177 682 L358 682 C501 682 568 617 568 520 C568 385 467 308 318 308 L138 308 Z " />
<glyph glyph-name="S" unicode="S" horiz-adv-x="582" d="M275 -12 C408 -12 520 78 520 206 C520 282 467 326 346 354 L291 367 C161 398 119 435 119 504 C119 617 220 694 337 694 C450 694 523 631 526 521 L545 521 C544 636 459 712 338 712 C211 712 100 626 100 504 C100 428 151 382 270 354 L326 341 C456 311 501 274 501 205 C501 91 401 6 276 6 C156 6 75 76 72 196 L53 196 C54 66 147 -12 275 -12 L275 -12 Z " />
<glyph glyph-name="T" unicode="T" horiz-adv-x="563" d="M588 700 L75 700 L73 682 L320 682 L248 0 L267 0 L339 682 L586 682 L588 700 Z " />
<glyph glyph-name="U" unicode="U" horiz-adv-x="692" d="M321 -12 C473 -12 577 87 596 263 L642 700 L623 700 L577 263 C559 93 460 6 322 6 C197 6 120 77 120 217 C120 232 121 247 123 263 L169 700 L150 700 L104 263 C102 247 101 231 101 216 C101 69 183 -12 321 -12 L321 -12 Z " />
<glyph glyph-name="V" unicode="V" horiz-adv-x="623" d="M281 0 L294 0 L643 700 L623 700 L291 34 L290 34 L98 700 L80 700 L281 0 Z " />
<glyph glyph-name="W" unicode="W" horiz-adv-x="965" d="M234 0 L246 0 L528 658 L529 658 L673 0 L684 0 L974 700 L954 700 L683 45 L682 45 L539 700 L526 700 L245 45 L244 45 L110 700 L91 700 L234 0 Z " />
<glyph glyph-name="X" unicode="X" horiz-adv-x="579" d="M583 700 L559 700 L303 377 L116 700 L96 700 L291 364 L12 0 L36 0 L301 347 L498 0 L519 0 L313 361 L583 700 Z " />
<glyph glyph-name="Y" unicode="Y" horiz-adv-x="589" d="M261 0 L280 0 L310 289 L623 700 L600 700 L302 309 L301 309 L87 700 L66 700 L291 289 L261 0 Z " />
<glyph glyph-name="Z" unicode="Z" horiz-adv-x="562" d="M550 700 L112 700 L110 682 L523 682 L33 14 L32 0 L482 0 L484 18 L59 18 L548 686 L550 700 Z " />
<glyph glyph-name="bracketleft" unicode="&#x5b;" horiz-adv-x="336" d="M348 725 L350 742 L164 742 L74 -114 L260 -114 L262 -97 L94 -97 L180 725 L348 725 Z " />
<glyph glyph-name="backslash" unicode="&#x5c;" horiz-adv-x="428" d="M355 -92 L374 -92 L93 742 L74 742 L355 -92 Z " />
<glyph glyph-name="bracketright" unicode="&#x5d;" horiz-adv-x="336" d="M94 742 L92 725 L260 725 L174 -97 L6 -97 L4 -114 L190 -114 L280 742 L94 742 Z " />
<glyph glyph-name="asciicircum" unicode="&#x5e;" horiz-adv-x="523" d="M497 358 L317 676 L300 676 L54 358 L75 358 L308 658 L478 358 L497 358 Z " />
<glyph glyph-name="underscore" unicode="&#x5f;" horiz-adv-x="400" d="M-24 -95 L356 -95 L358 -78 L-22 -78 L-24 -95 Z " />
<glyph glyph-name="grave" unicode="&#x60;" horiz-adv-x="600" d="M336 537 L353 537 L301 677 L279 677 L336 537 Z " />
<glyph glyph-name="a" unicode="a" horiz-adv-x="596" d="M509 458 L494 330 C467 420 392 470 306 470 C164 470 57 348 57 197 C57 72 140 -12 256 -12 C344 -12 427 38 472 128 L474 128 L461 0 L478 0 L526 458 L509 458 Z M256 5 C152 5 75 80 75 199 C75 336 173 453 305 453 C409 453 487 378 487 259 C487 121 388 5 256 5 L256 5 Z " />
<glyph glyph-name="b" unicode="b" horiz-adv-x="596" d="M340 470 C252 470 170 420 124 330 L122 330 L162 700 L144 700 L70 0 L87 0 L102 128 C129 38 202 -12 290 -12 C432 -12 539 110 539 261 C539 386 456 470 340 470 L340 470 Z M291 5 C186 5 109 80 109 199 C109 336 207 453 339 453 C445 453 521 378 521 260 C521 121 423 5 291 5 L291 5 Z " />
<glyph glyph-name="c" unicode="c" horiz-adv-x="542" d="M256 -12 C357 -12 451 53 476 149 L458 149 C434 63 348 5 256 5 C155 5 75 77 75 197 C75 337 173 453 309 453 C400 453 463 400 474 310 L492 310 C485 406 408 470 307 470 C166 470 57 348 57 197 C57 71 140 -12 256 -12 L256 -12 Z " />
<glyph glyph-name="d" unicode="d" horiz-adv-x="596" d="M534 700 L494 330 C467 419 394 470 306 470 C164 470 57 348 57 197 C57 72 140 -12 256 -12 C344 -12 427 38 472 128 L474 128 L461 0 L478 0 L552 700 L534 700 Z M256 5 C152 5 75 80 75 199 C75 338 174 453 306 453 C409 453 487 378 487 259 C487 121 388 5 256 5 L256 5 Z " />
<glyph glyph-name="e" unicode="e" horiz-adv-x="544" d="M485 229 C487 235 490 265 490 276 C490 397 415 470 307 470 C164 470 57 346 57 192 C57 66 137 -12 255 -12 C346 -12 428 35 467 113 L449 113 C407 43 335 5 255 5 C148 5 75 75 75 194 C75 206 76 218 77 229 L485 229 Z M307 453 C408 453 471 389 471 275 C471 269 470 259 470 246 L79 246 C99 363 186 453 307 453 L307 453 Z " />
<glyph glyph-name="f" unicode="f" horiz-adv-x="320" d="M306 695 C322 695 336 693 348 690 L350 707 C338 710 324 712 308 712 C223 712 169 659 157 541 L148 458 L44 458 L42 441 L146 441 L100 0 L118 0 L164 441 L316 441 L318 458 L166 458 L175 541 C187 653 234 695 306 695 L306 695 Z " />
<glyph glyph-name="g" unicode="g" horiz-adv-x="597" d="M510 458 L495 330 C468 420 396 470 309 470 C166 470 60 346 60 200 C60 76 143 -8 259 -8 C347 -8 428 42 474 132 L475 132 L459 -19 C445 -147 362 -219 234 -219 C132 -219 67 -175 54 -90 L36 -90 C47 -184 120 -236 234 -236 C372 -236 462 -158 477 -19 L527 458 L510 458 Z M258 9 C155 9 78 84 78 201 C78 338 177 453 309 453 C412 453 488 378 488 261 C488 125 389 9 258 9 L258 9 Z " />
<glyph glyph-name="h" unicode="h" horiz-adv-x="554" d="M321 470 C238 470 165 428 126 354 L125 354 L162 700 L144 700 L70 0 L88 0 L116 265 C128 384 215 453 320 453 C405 453 453 408 453 316 C453 305 452 293 451 281 L422 0 L440 0 L469 281 C470 293 471 305 471 316 C471 417 418 470 321 470 L321 470 Z " />
<glyph glyph-name="i" unicode="i" horiz-adv-x="206" d="M139 575 C155 575 170 587 170 606 C170 620 159 631 145 631 C128 631 114 616 114 601 C114 587 125 575 139 575 L139 575 Z M70 0 L88 0 L136 458 L118 458 L70 0 Z " />
<glyph glyph-name="j" unicode="j" horiz-adv-x="206" d="M139 575 C155 575 170 587 170 606 C170 620 159 631 145 631 C128 631 114 616 114 601 C114 587 125 575 139 575 L139 575 Z M-30 -236 C33 -236 67 -203 75 -121 L136 458 L118 458 L57 -119 C50 -192 24 -219 -28 -219 C-38 -219 -51 -218 -66 -215 L-67 -231 C-58 -234 -44 -236 -30 -236 L-30 -236 Z " />
<glyph glyph-name="k" unicode="k" horiz-adv-x="455" d="M440 458 L410 458 L115 247 L114 247 L162 700 L144 700 L70 0 L88 0 L113 236 L114 236 L373 0 L400 0 L136 241 L440 458 Z " />
<glyph glyph-name="l" unicode="l" horiz-adv-x="206" d="M70 0 L88 0 L162 700 L144 700 L70 0 Z " />
<glyph glyph-name="m" unicode="m" horiz-adv-x="846" d="M630 470 C553 470 478 424 440 341 L439 341 C433 425 384 470 308 470 C235 470 165 428 126 354 L125 354 L135 458 L118 458 L70 0 L88 0 L116 265 C128 385 217 453 307 453 C379 453 424 408 424 317 C424 306 423 295 422 283 L392 0 L410 0 L438 267 C450 385 539 453 629 453 C701 453 745 409 745 318 C745 306 744 294 743 281 L714 0 L732 0 L761 281 C762 293 763 305 763 317 C763 417 712 470 630 470 L630 470 Z " />
<glyph glyph-name="n" unicode="n" horiz-adv-x="554" d="M322 470 C237 470 165 428 126 354 L125 354 L135 458 L118 458 L70 0 L88 0 L116 265 C128 384 215 453 320 453 C405 453 453 408 453 316 C453 305 452 293 451 281 L422 0 L440 0 L469 281 C470 293 471 305 471 316 C471 417 418 470 322 470 L322 470 Z " />
<glyph glyph-name="o" unicode="o" horiz-adv-x="576" d="M263 -12 C411 -12 519 112 519 260 C519 384 435 470 313 470 C165 470 57 346 57 198 C57 74 141 -12 263 -12 L263 -12 Z M263 5 C153 5 75 81 75 199 C75 339 176 453 313 453 C423 453 501 377 501 259 C501 119 400 5 263 5 L263 5 Z " />
<glyph glyph-name="p" unicode="p" horiz-adv-x="596" d="M340 470 C252 470 170 420 124 330 L122 330 L135 458 L118 458 L46 -224 L64 -224 L102 128 C129 38 202 -12 290 -12 C432 -12 539 110 539 261 C539 386 456 470 340 470 L340 470 Z M290 5 C186 5 109 80 109 199 C109 337 208 453 340 453 C445 453 521 378 521 260 C521 122 423 5 290 5 L290 5 Z " />
<glyph glyph-name="q" unicode="q" horiz-adv-x="596" d="M509 458 L494 330 C467 420 394 470 306 470 C164 470 57 348 57 197 C57 72 140 -12 256 -12 C344 -12 427 38 472 128 L474 128 L436 -224 L454 -224 L526 458 L509 458 Z M255 5 C152 5 75 80 75 199 C75 337 175 453 307 453 C410 453 487 378 487 259 C487 121 387 5 255 5 L255 5 Z " />
<glyph glyph-name="r" unicode="r" horiz-adv-x="346" d="M285 466 C219 466 155 425 126 352 L125 352 L135 458 L118 458 L70 0 L88 0 L115 255 C129 386 206 449 284 449 C301 449 318 446 332 441 L334 458 C320 463 303 466 285 466 L285 466 Z " />
<glyph glyph-name="s" unicode="s" horiz-adv-x="439" d="M201 -12 C298 -12 377 47 377 135 C377 186 341 219 247 238 L203 247 C119 264 91 288 91 331 C91 404 160 453 247 453 C325 453 368 417 375 345 L393 345 C389 425 331 470 246 470 C154 470 73 413 73 331 C73 279 109 248 192 231 L236 222 C329 203 359 179 359 133 C359 58 291 5 200 5 C118 5 66 45 61 124 L43 124 C47 34 111 -12 201 -12 L201 -12 Z " />
<glyph glyph-name="t" unicode="t" horiz-adv-x="335" d="M161 441 L314 441 L316 458 L163 458 L176 580 L158 580 L145 458 L42 458 L40 441 L143 441 L111 138 C110 125 109 114 109 103 C109 19 147 -12 224 -12 C243 -12 261 -10 275 -7 L277 10 C262 7 243 5 225 5 C150 5 119 40 129 138 L161 441 Z " />
<glyph glyph-name="u" unicode="u" horiz-adv-x="550" d="M462 458 L434 193 C422 73 336 5 234 5 C151 5 100 51 100 142 C100 152 101 162 102 173 L132 458 L114 458 L84 173 C83 162 82 152 82 142 C82 42 137 -12 231 -12 C314 -12 387 30 424 104 L425 104 L415 0 L432 0 L480 458 L462 458 Z " />
<glyph glyph-name="v" unicode="v" horiz-adv-x="471" d="M206 0 L217 0 L471 458 L452 458 L215 30 L214 30 L67 458 L48 458 L206 0 Z " />
<glyph glyph-name="w" unicode="w" horiz-adv-x="743" d="M170 0 L183 0 L393 426 L394 426 L513 0 L525 0 L737 458 L718 458 L523 35 L522 35 L403 458 L389 458 L181 35 L180 35 L73 458 L54 458 L170 0 Z " />
<glyph glyph-name="x" unicode="x" horiz-adv-x="448" d="M433 458 L411 458 L225 248 L84 458 L63 458 L213 236 L2 0 L24 0 L224 225 L377 0 L398 0 L236 236 L433 458 Z " />
<glyph glyph-name="y" unicode="y" horiz-adv-x="478" d="M458 458 L217 30 L216 30 L67 458 L48 458 L205 9 L75 -224 L95 -224 L478 458 L458 458 Z " />
<glyph glyph-name="z" unicode="z" horiz-adv-x="439" d="M413 458 L74 458 L72 441 L387 441 L24 15 L22 0 L369 0 L371 17 L48 17 L411 443 L413 458 Z " />
<glyph glyph-name="braceleft" unicode="&#x7b;" horiz-adv-x="359" d="M220 -114 L283 -114 L285 -97 L222 -97 C151 -97 130 -75 139 10 L161 220 C167 274 153 303 115 313 L115 315 C155 325 175 354 181 408 L203 617 C212 703 237 725 308 725 L371 725 L373 742 L310 742 C226 742 195 712 185 618 L163 408 C156 346 133 322 73 322 L65 322 L63 306 L71 306 C131 306 150 282 143 220 L121 10 C111 -84 136 -114 220 -114 L220 -114 Z " />
<glyph glyph-name="bar" unicode="&#x7c;" horiz-adv-x="278" d="M95 -100 L113 -100 L204 765 L186 765 L95 -100 Z " />
<glyph glyph-name="braceright" unicode="&#x7d;" horiz-adv-x="359" d="M157 742 L94 742 L92 725 L155 725 C226 725 247 703 238 618 L216 408 C210 354 224 325 262 315 L262 313 C222 303 202 274 196 220 L174 11 C165 -75 140 -97 69 -97 L6 -97 L4 -114 L67 -114 C151 -114 182 -84 192 10 L214 220 C221 282 244 306 304 306 L312 306 L314 322 L306 322 C246 322 227 346 234 408 L256 618 C266 712 241 742 157 742 L157 742 Z " />
<glyph glyph-name="asciitilde" unicode="&#x7e;" horiz-adv-x="650" d="M426 281 C470 281 507 299 546 328 L546 345 C503 315 471 298 427 298 C369 298 305 353 245 353 C206 353 164 338 123 306 L122 289 C172 324 207 336 243 336 C306 336 363 281 426 281 L426 281 Z " />
<glyph glyph-name="uni00A0" unicode="&#xa0;" horiz-adv-x="250" d="" />
<glyph glyph-name="exclamdown" unicode="&#xa1;" horiz-adv-x="235" d="M138 414 C151 414 168 426 168 445 C168 459 157 470 143 470 C125 470 112 455 112 440 C112 426 123 414 138 414 L138 414 Z M60 -234 L78 -234 L132 286 L116 286 L60 -234 Z " />
<glyph glyph-name="cent" unicode="&#xa2;" horiz-adv-x="582" d="M295 126 L343 574 C435 573 497 518 507 432 L525 432 C519 526 443 590 344 591 L356 700 L338 700 L326 591 C193 582 91 464 91 318 C91 197 168 116 276 109 L264 0 L282 0 L294 109 C394 111 483 176 508 269 L490 269 C467 187 386 129 295 126 L295 126 Z M109 318 C109 453 199 564 325 573 L277 126 C182 132 109 203 109 318 L109 318 Z " />
<glyph glyph-name="sterling" unicode="&#xa3;" horiz-adv-x="530" d="M339 712 C221 712 135 625 135 506 C135 455 151 412 168 370 C173 358 177 346 181 334 L61 334 L59 317 L187 317 C195 292 200 266 200 238 C200 141 136 59 44 16 L42 0 L460 0 L462 18 L81 18 C164 65 218 147 218 241 C218 269 213 293 206 317 L405 317 L407 334 L201 334 L186 373 C170 414 154 456 154 505 C154 618 227 694 339 694 C434 694 496 639 497 521 L515 521 C519 644 443 712 339 712 L339 712 Z " />
<glyph glyph-name="currency" unicode="&#xa4;" horiz-adv-x="552" d="M453 475 L525 541 L514 553 L443 488 C413 522 367 543 309 543 C252 543 202 523 164 488 L107 553 L94 541 L151 476 C114 436 92 380 92 317 C92 276 103 239 123 211 L51 145 L63 133 L133 198 C164 163 209 143 267 143 C324 143 375 163 412 197 L470 133 L483 145 L425 210 C463 250 485 305 485 368 C485 410 474 446 453 475 L453 475 Z M267 160 C172 160 109 224 109 320 C109 436 195 526 309 526 C405 526 467 462 467 367 C467 250 382 160 267 160 L267 160 Z " />
<glyph glyph-name="yen" unicode="&#xa5;" horiz-adv-x="531" d="M559 700 L538 700 L275 322 L91 700 L72 700 L262 311 L73 311 L71 295 L264 295 L251 167 L57 167 L56 151 L249 151 L233 0 L251 0 L267 151 L461 151 L462 167 L269 167 L282 295 L476 295 L478 311 L288 311 L559 700 Z " />
<glyph glyph-name="brokenbar" unicode="&#xa6;" horiz-adv-x="278" d="M150 423 L168 423 L204 765 L186 765 L150 423 Z M95 -100 L113 -100 L149 234 L131 234 L95 -100 Z " />
<glyph glyph-name="section" unicode="&#xa7;" horiz-adv-x="543" d="M315 712 C212 712 119 642 119 544 C119 493 152 454 230 431 C149 420 91 356 91 273 C91 215 130 179 232 154 L278 143 C383 118 418 86 418 34 C418 -51 339 -114 241 -114 C149 -114 88 -64 88 28 L70 28 C66 -71 140 -132 241 -132 C344 -132 437 -62 437 36 C437 87 404 126 326 149 C407 160 465 225 465 307 C465 365 426 401 324 426 L278 437 C173 462 138 494 138 544 C138 634 219 694 314 694 C406 694 467 646 467 554 L485 554 C488 651 416 712 315 712 L315 712 Z M314 410 L339 403 C414 382 446 355 446 305 C446 203 352 139 242 170 L217 177 C144 197 110 225 110 276 C110 377 204 441 314 410 L314 410 Z " />
<glyph glyph-name="dieresis" unicode="&#xa8;" horiz-adv-x="600" d="M244 575 C260 575 275 587 275 606 C275 620 264 631 250 631 C232 631 219 616 219 601 C219 586 230 575 244 575 L244 575 Z M428 575 C444 575 459 587 459 606 C459 620 448 631 434 631 C416 631 403 616 403 601 C403 586 414 575 428 575 L428 575 Z " />
<glyph glyph-name="copyright" unicode="&#xa9;" horiz-adv-x="838" d="M394 -12 C611 -12 793 173 793 390 C793 571 660 712 470 712 C255 712 71 531 71 310 C71 129 203 -12 394 -12 L394 -12 Z M394 4 C212 4 88 136 88 309 C88 521 259 696 469 696 C652 696 776 563 776 389 C776 180 603 4 394 4 L394 4 Z M419 157 C502 157 576 210 596 288 L578 288 C559 220 493 174 419 174 C341 174 279 231 279 325 C279 437 356 527 461 527 C536 527 584 481 591 413 L609 413 C604 493 541 543 461 543 C348 543 261 447 261 324 C261 224 327 157 419 157 L419 157 Z " />
<glyph glyph-name="ordfeminine" unicode="&#xaa;" horiz-adv-x="502" d="M465 702 L453 606 C427 680 369 712 300 712 C170 712 78 612 78 480 C78 373 148 302 257 302 C328 302 394 337 432 408 L433 408 L424 312 L441 312 L482 702 L465 702 Z M256 319 C158 319 96 382 96 481 C96 603 179 695 298 695 C394 695 446 634 446 538 C446 418 378 319 256 319 L256 319 Z " />
<glyph glyph-name="guillemotleft" unicode="&#xab;" horiz-adv-x="462" d="M247 490 L224 490 L61 286 L182 82 L204 82 L83 284 L247 490 Z M424 490 L401 490 L238 286 L359 82 L381 82 L260 284 L424 490 Z " />
<glyph glyph-name="logicalnot" unicode="&#xac;" horiz-adv-x="650" d="M125 325 L123 309 L525 309 L513 195 L531 195 L545 325 L125 325 Z " />
<glyph glyph-name="registered" unicode="&#xae;" horiz-adv-x="488" d="M295 712 C178 712 74 613 74 490 C74 390 149 313 253 313 C372 313 474 415 474 533 C474 633 400 712 295 712 L295 712 Z M254 326 C156 326 89 398 89 491 C89 603 182 699 294 699 C391 699 458 627 458 533 C458 421 365 326 254 326 L254 326 Z M364 566 C364 599 342 620 299 620 L215 620 L192 405 L206 405 L216 496 L270 496 L334 405 L351 405 L287 496 C332 496 364 521 364 566 L364 566 Z M286 509 L217 509 L227 606 L297 606 C334 606 349 592 349 565 C349 529 325 509 286 509 L286 509 Z " />
<glyph glyph-name="macron" unicode="&#xaf;" horiz-adv-x="600" d="M212 590 L464 590 L466 607 L214 607 L212 590 Z " />
<glyph glyph-name="degree" unicode="&#xb0;" horiz-adv-x="360" d="M203 452 C284 452 348 517 348 598 C348 664 301 712 231 712 C150 712 86 647 86 566 C86 500 133 452 203 452 L203 452 Z M204 468 C144 468 103 508 103 568 C103 639 159 696 230 696 C290 696 331 656 331 596 C331 525 275 468 204 468 L204 468 Z " />
<glyph glyph-name="plusminus" unicode="&#xb1;" horiz-adv-x="650" d="M343 320 L364 518 L346 518 L325 320 L125 320 L123 303 L324 303 L303 106 L321 106 L342 303 L543 303 L545 320 L343 320 Z M91 0 L511 0 L513 17 L93 17 L91 0 Z " />
<glyph glyph-name="uni00B2" unicode="&#xb2;" horiz-adv-x="374" d="M85 292 C91 357 112 387 218 450 C303 500 356 540 356 611 C356 672 314 712 246 712 C171 712 110 665 95 574 L113 574 C128 656 180 695 245 695 C303 695 338 665 338 610 C338 547 291 513 204 461 C100 399 74 362 67 291 L64 271 L326 271 L328 288 L84 288 L85 292 Z " />
<glyph glyph-name="uni00B3" unicode="&#xb3;" horiz-adv-x="381" d="M265 497 C321 513 356 558 356 614 C356 673 313 712 246 712 C179 712 120 673 104 597 L122 597 C137 662 183 695 246 695 C305 695 338 664 338 614 C338 550 291 505 218 505 L179 505 L177 488 L216 488 C286 488 327 453 327 399 C327 334 270 281 195 281 C128 281 90 320 93 392 L75 392 C68 309 122 264 196 264 C279 264 345 323 345 399 C345 447 318 483 265 497 L265 497 Z " />
<glyph glyph-name="acute" unicode="&#xb4;" horiz-adv-x="600" d="M277 537 L295 537 L382 677 L359 677 L277 537 Z " />
<glyph glyph-name="uni00B5" unicode="&#xb5;" horiz-adv-x="554" d="M466 458 L438 193 C426 73 336 5 235 5 C145 5 94 61 106 173 L136 458 L118 458 L46 -224 L64 -224 L96 80 C112 22 161 -12 235 -12 C318 -12 391 30 428 104 L429 104 L419 0 L436 0 L484 458 L466 458 Z " />
<glyph glyph-name="paragraph" unicode="&#xb6;" horiz-adv-x="630" d="M114 545 C114 476 165 420 280 420 L302 420 L244 -128 L262 -128 L350 700 L320 700 C203 700 114 645 114 545 L114 545 Z M532 700 L444 -128 L462 -128 L550 700 L532 700 Z " />
<glyph glyph-name="periodcentered" unicode="&#xb7;" horiz-adv-x="195" d="M104 281 C117 281 134 293 134 312 C134 326 123 337 109 337 C91 337 78 322 78 307 C78 293 89 281 104 281 L104 281 Z " />
<glyph glyph-name="cedilla" unicode="&#xb8;" horiz-adv-x="600" d="M237 -77 L255 0 L238 0 L217 -92 C282 -91 300 -105 300 -130 C300 -169 276 -189 229 -189 C218 -189 207 -188 200 -187 L198 -204 C207 -205 219 -206 230 -206 C284 -206 319 -177 319 -130 C319 -95 292 -78 237 -77 L237 -77 Z " />
<glyph glyph-name="uni00B9" unicode="&#xb9;" horiz-adv-x="257" d="M203 700 C191 649 182 641 128 641 L97 641 L96 625 L193 625 L155 266 L173 266 L219 700 L203 700 Z " />
<glyph glyph-name="ordmasculine" unicode="&#xba;" horiz-adv-x="490" d="M253 302 C376 302 470 402 470 534 C470 639 399 712 296 712 C174 712 78 611 78 482 C78 375 150 302 253 302 L253 302 Z M252 319 C160 319 96 383 96 481 C96 601 181 695 296 695 C388 695 452 631 452 533 C452 413 367 319 252 319 L252 319 Z " />
<glyph glyph-name="guillemotright" unicode="&#xbb;" horiz-adv-x="462" d="M115 490 L93 490 L214 288 L50 82 L73 82 L236 286 L115 490 Z M292 490 L270 490 L391 288 L227 82 L250 82 L413 286 L292 490 Z " />
<glyph glyph-name="onequarter" unicode="&#xbc;" horiz-adv-x="853" d="M175 266 L193 266 L239 700 L223 700 C211 649 202 641 148 641 L117 641 L116 625 L213 625 L175 266 Z M687 700 L130 0 L152 0 L709 700 L687 700 Z M757 115 L690 115 L724 434 L704 434 L452 113 L450 98 L670 98 L660 0 L678 0 L688 98 L755 98 L757 115 Z M476 115 L702 404 L672 115 L476 115 Z " />
<glyph glyph-name="onehalf" unicode="&#xbd;" horiz-adv-x="889" d="M175 266 L193 266 L239 700 L223 700 C211 649 202 641 148 641 L117 641 L116 625 L213 625 L175 266 Z M679 700 L122 0 L144 0 L701 700 L679 700 Z M540 21 C546 86 567 116 673 179 C758 229 811 269 811 340 C811 401 769 441 701 441 C626 441 565 394 550 303 L568 303 C583 385 635 424 700 424 C758 424 793 394 793 339 C793 276 746 242 659 190 C555 128 529 91 522 20 L519 0 L781 0 L783 17 L539 17 L540 21 Z " />
<glyph glyph-name="threequarters" unicode="&#xbe;" horiz-adv-x="975" d="M373 399 C373 447 346 483 293 497 C349 513 384 558 384 614 C384 673 341 712 274 712 C207 712 148 673 132 597 L150 597 C165 662 211 695 274 695 C333 695 366 664 366 614 C366 550 319 505 246 505 L207 505 L205 488 L244 488 C314 488 355 453 355 399 C355 334 298 281 223 281 C156 281 118 320 121 392 L103 392 C96 309 150 264 224 264 C307 264 373 323 373 399 L373 399 Z M809 700 L252 0 L274 0 L831 700 L809 700 Z M879 115 L812 115 L846 434 L826 434 L574 113 L572 98 L792 98 L782 0 L800 0 L810 98 L877 98 L879 115 Z M598 115 L824 404 L794 115 L598 115 Z " />
<glyph glyph-name="questiondown" unicode="&#xbf;" horiz-adv-x="483" d="M295 480 C282 480 265 468 265 449 C265 435 276 424 290 424 C308 424 321 439 321 454 C321 468 310 480 295 480 L295 480 Z M285 296 L267 296 L260 224 C254 167 245 150 187 106 L134 65 C75 20 34 -33 34 -105 C34 -187 96 -236 189 -236 C281 -236 363 -188 401 -78 L384 -73 C350 -175 271 -219 188 -219 C106 -219 52 -178 52 -104 C52 -43 84 6 137 47 L190 88 C259 140 271 159 278 224 L285 296 Z " />
<glyph glyph-name="Agrave" unicode="&#xc0;" horiz-adv-x="619" d="M395 775 L340 923 L316 923 L377 775 L395 775 Z M547 0 L565 0 L366 700 L353 700 L6 0 L26 0 L133 215 L486 215 L547 0 Z M141 233 L356 666 L357 666 L481 233 L141 233 Z " />
<glyph glyph-name="Aacute" unicode="&#xc1;" horiz-adv-x="619" d="M445 923 L420 923 L333 775 L352 775 L445 923 Z M547 0 L565 0 L366 700 L353 700 L6 0 L26 0 L133 215 L486 215 L547 0 Z M141 233 L356 666 L357 666 L481 233 L141 233 Z " />
<glyph glyph-name="Acircumflex" unicode="&#xc2;" horiz-adv-x="619" d="M384 918 L484 782 L505 782 L394 930 L374 930 L233 782 L256 782 L384 918 Z M547 0 L565 0 L366 700 L353 700 L6 0 L26 0 L133 215 L486 215 L547 0 Z M141 233 L356 666 L357 666 L481 233 L141 233 Z " />
<glyph glyph-name="Atilde" unicode="&#xc3;" horiz-adv-x="619" d="M308 900 C330 900 345 888 371 848 C398 807 415 790 443 790 C484 790 519 825 527 903 L509 903 C502 835 477 807 444 807 C423 807 409 819 383 859 C357 901 337 917 310 917 C269 917 233 882 225 804 L243 804 C250 872 275 900 308 900 L308 900 Z M547 0 L565 0 L366 700 L353 700 L6 0 L26 0 L133 215 L486 215 L547 0 Z M141 233 L356 666 L357 666 L481 233 L141 233 Z " />
<glyph glyph-name="Adieresis" unicode="&#xc4;" horiz-adv-x="619" d="M274 815 C291 815 307 829 307 848 C307 863 295 875 280 875 C262 875 248 859 248 843 C248 827 260 815 274 815 L274 815 Z M469 815 C486 815 502 829 502 848 C502 863 490 875 475 875 C457 875 443 859 443 843 C443 827 455 815 469 815 L469 815 Z M547 0 L565 0 L366 700 L353 700 L6 0 L26 0 L133 215 L486 215 L547 0 Z M141 233 L356 666 L357 666 L481 233 L141 233 Z " />
<glyph glyph-name="Aring" unicode="&#xc5;" horiz-adv-x="619" d="M547 0 L565 0 L371 684 C415 690 455 728 455 778 C455 821 422 855 376 855 C327 855 279 815 279 760 C279 721 306 690 345 684 L6 0 L26 0 L133 215 L486 215 L547 0 Z M296 759 C296 799 327 838 375 838 C413 838 437 812 437 777 C437 734 401 700 358 700 C320 700 296 725 296 759 L296 759 Z M141 233 L356 666 L357 666 L481 233 L141 233 Z " />
<glyph glyph-name="AE" unicode="&#xc6;" horiz-adv-x="1015" d="M985 682 L987 700 L573 700 L1 0 L25 0 L209 225 L537 225 L513 0 L913 0 L915 18 L534 18 L569 346 L924 346 L926 364 L571 364 L604 682 L985 682 Z M223 243 L582 682 L585 682 L539 243 L223 243 Z " />
<glyph glyph-name="Ccedilla" unicode="&#xc7;" horiz-adv-x="758" d="M445 694 C594 694 698 602 704 470 L723 470 C717 610 602 712 446 712 C232 712 70 528 70 302 C70 123 183 2 342 -11 L323 -92 C386 -91 406 -105 406 -131 C406 -169 382 -189 335 -189 C324 -189 313 -188 306 -187 L304 -204 C313 -205 325 -206 336 -206 C391 -206 425 -178 425 -130 C425 -96 396 -78 343 -77 L358 -12 L370 -12 C525 -12 661 87 698 229 L679 229 C642 96 516 6 371 6 C207 6 89 123 89 303 C89 518 239 694 445 694 L445 694 Z " />
<glyph glyph-name="Egrave" unicode="&#xc8;" horiz-adv-x="588" d="M395 775 L340 923 L316 923 L377 775 L395 775 Z M558 682 L560 700 L160 700 L86 0 L486 0 L488 18 L107 18 L142 346 L497 346 L499 364 L144 364 L177 682 L558 682 Z " />
<glyph glyph-name="Eacute" unicode="&#xc9;" horiz-adv-x="588" d="M445 923 L420 923 L333 775 L352 775 L445 923 Z M558 682 L560 700 L160 700 L86 0 L486 0 L488 18 L107 18 L142 346 L497 346 L499 364 L144 364 L177 682 L558 682 Z " />
<glyph glyph-name="Ecircumflex" unicode="&#xca;" horiz-adv-x="588" d="M384 918 L484 782 L505 782 L394 930 L374 930 L233 782 L256 782 L384 918 Z M558 682 L560 700 L160 700 L86 0 L486 0 L488 18 L107 18 L142 346 L497 346 L499 364 L144 364 L177 682 L558 682 Z " />
<glyph glyph-name="Edieresis" unicode="&#xcb;" horiz-adv-x="588" d="M274 815 C291 815 307 829 307 848 C307 863 295 875 280 875 C262 875 248 859 248 843 C248 827 260 815 274 815 L274 815 Z M469 815 C486 815 502 829 502 848 C502 863 490 875 475 875 C457 875 443 859 443 843 C443 827 455 815 469 815 L469 815 Z M558 682 L560 700 L160 700 L86 0 L486 0 L488 18 L107 18 L142 346 L497 346 L499 364 L144 364 L177 682 L558 682 Z " />
<glyph glyph-name="Igrave" unicode="&#xcc;" horiz-adv-x="239" d="M187 775 L205 775 L150 923 L126 923 L187 775 Z M86 0 L105 0 L179 700 L160 700 L86 0 Z " />
<glyph glyph-name="Iacute" unicode="&#xcd;" horiz-adv-x="239" d="M143 775 L162 775 L255 923 L230 923 L143 775 Z M86 0 L105 0 L179 700 L160 700 L86 0 Z " />
<glyph glyph-name="Icircumflex" unicode="&#xce;" horiz-adv-x="239" d="M315 782 L204 930 L184 930 L43 782 L66 782 L194 918 L294 782 L315 782 Z M86 0 L105 0 L179 700 L160 700 L86 0 Z " />
<glyph glyph-name="Idieresis" unicode="&#xcf;" horiz-adv-x="239" d="M84 815 C101 815 117 829 117 848 C117 863 105 875 90 875 C72 875 58 859 58 843 C58 827 70 815 84 815 L84 815 Z M279 815 C296 815 312 829 312 848 C312 863 300 875 285 875 C267 875 253 859 253 843 C253 827 265 815 279 815 L279 815 Z M86 0 L105 0 L179 700 L160 700 L86 0 Z " />
<glyph glyph-name="Eth" unicode="&#xd0;" horiz-adv-x="682" d="M302 700 L170 700 L134 358 L18 358 L17 342 L132 342 L96 0 L228 0 C466 0 635 159 635 395 C635 584 505 700 302 700 L302 700 Z M230 18 L117 18 L151 342 L349 342 L350 358 L153 358 L187 682 L300 682 C499 682 616 573 616 395 C616 173 461 18 230 18 L230 18 Z " />
<glyph glyph-name="Ntilde" unicode="&#xd1;" horiz-adv-x="710" d="M353 900 C375 900 390 888 416 848 C443 807 460 790 488 790 C529 790 564 825 572 903 L554 903 C547 835 522 807 489 807 C468 807 454 819 428 859 C402 901 382 917 355 917 C314 917 278 882 270 804 L288 804 C295 872 320 900 353 900 L353 900 Z M631 700 L561 35 L560 35 L178 700 L160 700 L86 0 L105 0 L175 665 L176 665 L558 0 L576 0 L650 700 L631 700 Z " />
<glyph glyph-name="Ograve" unicode="&#xd2;" horiz-adv-x="795" d="M464 775 L482 775 L427 923 L403 923 L464 775 Z M372 -12 C586 -12 750 171 750 396 C750 584 626 712 448 712 C234 712 70 529 70 302 C70 115 194 -12 372 -12 L372 -12 Z M371 6 C206 6 89 120 89 302 C89 519 239 694 449 694 C614 694 731 580 731 398 C731 181 581 6 371 6 L371 6 Z " />
<glyph glyph-name="Oacute" unicode="&#xd3;" horiz-adv-x="795" d="M420 775 L439 775 L532 923 L507 923 L420 775 Z M372 -12 C586 -12 750 171 750 396 C750 584 626 712 448 712 C234 712 70 529 70 302 C70 115 194 -12 372 -12 L372 -12 Z M371 6 C206 6 89 120 89 302 C89 519 239 694 449 694 C614 694 731 580 731 398 C731 181 581 6 371 6 L371 6 Z " />
<glyph glyph-name="Ocircumflex" unicode="&#xd4;" horiz-adv-x="795" d="M471 918 L571 782 L592 782 L481 930 L461 930 L320 782 L343 782 L471 918 Z M448 712 C234 712 70 529 70 302 C70 115 194 -12 372 -12 C586 -12 750 171 750 396 C750 584 626 712 448 712 L448 712 Z M371 6 C206 6 89 120 89 302 C89 519 239 694 449 694 C614 694 731 580 731 398 C731 181 581 6 371 6 L371 6 Z " />
<glyph glyph-name="Otilde" unicode="&#xd5;" horiz-adv-x="795" d="M530 790 C571 790 606 825 614 903 L596 903 C589 835 564 807 531 807 C510 807 496 819 470 859 C444 901 424 917 397 917 C356 917 320 882 312 804 L330 804 C337 872 362 900 395 900 C417 900 432 888 458 848 C485 807 502 790 530 790 L530 790 Z M372 -12 C586 -12 750 171 750 396 C750 584 626 712 448 712 C234 712 70 529 70 302 C70 115 194 -12 372 -12 L372 -12 Z M371 6 C206 6 89 120 89 302 C89 519 239 694 449 694 C614 694 731 580 731 398 C731 181 581 6 371 6 L371 6 Z " />
<glyph glyph-name="Odieresis" unicode="&#xd6;" horiz-adv-x="795" d="M361 815 C378 815 394 829 394 848 C394 863 382 875 367 875 C349 875 335 859 335 843 C335 827 347 815 361 815 L361 815 Z M556 815 C573 815 589 829 589 848 C589 863 577 875 562 875 C544 875 530 859 530 843 C530 827 542 815 556 815 L556 815 Z M372 -12 C586 -12 750 171 750 396 C750 584 626 712 448 712 C234 712 70 529 70 302 C70 115 194 -12 372 -12 L372 -12 Z M371 6 C206 6 89 120 89 302 C89 519 239 694 449 694 C614 694 731 580 731 398 C731 181 581 6 371 6 L371 6 Z " />
<glyph glyph-name="multiply" unicode="&#xd7;" horiz-adv-x="650" d="M529 481 L517 494 L335 330 L189 494 L175 482 L322 317 L140 153 L152 140 L334 304 L480 140 L494 152 L347 317 L529 481 Z " />
<glyph glyph-name="Oslash" unicode="&#xd8;" horiz-adv-x="801" d="M788 677 L777 690 L685 607 C632 673 550 712 452 712 C238 712 74 529 74 302 C74 225 95 159 132 107 L38 22 L49 9 L142 93 C195 27 277 -12 376 -12 C590 -12 754 171 754 396 C754 473 733 541 696 593 L788 677 Z M453 694 C545 694 623 658 673 595 L145 119 C112 167 93 229 93 302 C93 519 243 694 453 694 L453 694 Z M375 6 C283 6 205 42 155 105 L683 581 C716 533 735 471 735 398 C735 181 585 6 375 6 L375 6 Z " />
<glyph glyph-name="Ugrave" unicode="&#xd9;" horiz-adv-x="692" d="M413 775 L431 775 L376 923 L352 923 L413 775 Z M321 -12 C473 -12 577 87 596 263 L642 700 L623 700 L577 263 C559 93 460 6 322 6 C197 6 120 77 120 217 C120 232 121 247 123 263 L169 700 L150 700 L104 263 C102 247 101 231 101 216 C101 69 183 -12 321 -12 L321 -12 Z " />
<glyph glyph-name="Uacute" unicode="&#xda;" horiz-adv-x="692" d="M369 775 L388 775 L481 923 L456 923 L369 775 Z M321 -12 C473 -12 577 87 596 263 L642 700 L623 700 L577 263 C559 93 460 6 322 6 C197 6 120 77 120 217 C120 232 121 247 123 263 L169 700 L150 700 L104 263 C102 247 101 231 101 216 C101 69 183 -12 321 -12 L321 -12 Z " />
<glyph glyph-name="Ucircumflex" unicode="&#xdb;" horiz-adv-x="692" d="M420 918 L520 782 L541 782 L430 930 L410 930 L269 782 L292 782 L420 918 Z M623 700 L577 263 C559 93 460 6 322 6 C197 6 120 77 120 217 C120 232 121 247 123 263 L169 700 L150 700 L104 263 C102 247 101 231 101 216 C101 69 183 -12 321 -12 C473 -12 577 87 596 263 L642 700 L623 700 Z " />
<glyph glyph-name="Udieresis" unicode="&#xdc;" horiz-adv-x="692" d="M310 815 C327 815 343 829 343 848 C343 863 331 875 316 875 C298 875 284 859 284 843 C284 827 296 815 310 815 L310 815 Z M505 815 C522 815 538 829 538 848 C538 863 526 875 511 875 C493 875 479 859 479 843 C479 827 491 815 505 815 L505 815 Z M321 -12 C473 -12 577 87 596 263 L642 700 L623 700 L577 263 C559 93 460 6 322 6 C197 6 120 77 120 217 C120 232 121 247 123 263 L169 700 L150 700 L104 263 C102 247 101 231 101 216 C101 69 183 -12 321 -12 L321 -12 Z " />
<glyph glyph-name="Yacute" unicode="&#xdd;" horiz-adv-x="589" d="M318 775 L337 775 L430 923 L405 923 L318 775 Z M261 0 L280 0 L310 289 L623 700 L600 700 L302 309 L301 309 L87 700 L66 700 L291 289 L261 0 Z " />
<glyph glyph-name="Thorn" unicode="&#xde;" horiz-adv-x="620" d="M345 560 L164 560 L179 700 L160 700 L86 0 L105 0 L120 142 L301 142 C460 142 572 226 572 377 C572 490 494 560 345 560 L345 560 Z M303 160 L122 160 L162 542 L343 542 C485 542 553 477 553 376 C553 239 454 160 303 160 L303 160 Z " />
<glyph glyph-name="germandbls" unicode="&#xdf;" horiz-adv-x="565" d="M277 -12 C412 -12 502 71 502 205 C502 296 448 349 353 356 L353 357 C447 380 499 457 499 557 C499 656 434 712 332 712 C219 712 138 645 124 519 L70 0 L88 0 L142 519 C154 630 224 695 333 695 C428 695 481 646 481 557 C481 437 408 361 281 361 L251 361 L249 344 L322 344 C430 344 484 294 484 205 C484 80 405 5 278 5 C257 5 236 7 212 13 L211 -4 C235 -10 256 -12 277 -12 L277 -12 Z " />
<glyph glyph-name="agrave" unicode="&#xe0;" horiz-adv-x="596" d="M351 537 L299 677 L277 677 L334 537 L351 537 Z M509 458 L494 330 C467 420 392 470 306 470 C164 470 57 348 57 197 C57 72 140 -12 256 -12 C344 -12 427 38 472 128 L474 128 L461 0 L478 0 L526 458 L509 458 Z M256 5 C152 5 75 80 75 199 C75 336 173 453 305 453 C409 453 487 378 487 259 C487 121 388 5 256 5 L256 5 Z " />
<glyph glyph-name="aacute" unicode="&#xe1;" horiz-adv-x="596" d="M400 677 L377 677 L295 537 L313 537 L400 677 Z M509 458 L494 330 C467 420 392 470 306 470 C164 470 57 348 57 197 C57 72 140 -12 256 -12 C344 -12 427 38 472 128 L474 128 L461 0 L478 0 L526 458 L509 458 Z M256 5 C152 5 75 80 75 199 C75 336 173 453 305 453 C409 453 487 378 487 259 C487 121 388 5 256 5 L256 5 Z " />
<glyph glyph-name="acircumflex" unicode="&#xe2;" horiz-adv-x="596" d="M342 672 L437 544 L456 544 L352 684 L334 684 L200 544 L221 544 L342 672 Z M509 458 L494 330 C467 420 392 470 306 470 C164 470 57 348 57 197 C57 72 140 -12 256 -12 C344 -12 427 38 472 128 L474 128 L461 0 L478 0 L526 458 L509 458 Z M256 5 C152 5 75 80 75 199 C75 336 173 453 305 453 C409 453 487 378 487 259 C487 121 388 5 256 5 L256 5 Z " />
<glyph glyph-name="atilde" unicode="&#xe3;" horiz-adv-x="596" d="M271 655 C292 655 306 644 330 606 C355 567 373 552 398 552 C437 552 470 585 478 658 L461 658 C454 594 431 568 400 568 C380 568 366 579 342 617 C317 656 298 671 272 671 C233 671 200 638 192 565 L209 565 C216 629 240 655 271 655 L271 655 Z M509 458 L494 330 C467 420 392 470 306 470 C164 470 57 348 57 197 C57 72 140 -12 256 -12 C344 -12 427 38 472 128 L474 128 L461 0 L478 0 L526 458 L509 458 Z M256 5 C152 5 75 80 75 199 C75 336 173 453 305 453 C409 453 487 378 487 259 C487 121 388 5 256 5 L256 5 Z " />
<glyph glyph-name="adieresis" unicode="&#xe4;" horiz-adv-x="596" d="M239 575 C255 575 270 587 270 606 C270 620 259 631 245 631 C227 631 214 616 214 601 C214 586 225 575 239 575 L239 575 Z M423 575 C439 575 454 587 454 606 C454 620 443 631 429 631 C411 631 398 616 398 601 C398 586 409 575 423 575 L423 575 Z M509 458 L494 330 C467 420 392 470 306 470 C164 470 57 348 57 197 C57 72 140 -12 256 -12 C344 -12 427 38 472 128 L474 128 L461 0 L478 0 L526 458 L509 458 Z M256 5 C152 5 75 80 75 199 C75 336 173 453 305 453 C409 453 487 378 487 259 C487 121 388 5 256 5 L256 5 Z " />
<glyph glyph-name="aring" unicode="&#xe5;" horiz-adv-x="596" d="M327 534 C375 534 419 575 419 622 C419 663 387 696 344 696 C293 696 252 652 252 606 C252 566 284 534 327 534 L327 534 Z M343 680 C382 680 402 655 402 621 C402 581 368 550 328 550 C292 550 270 574 270 607 C270 650 302 680 343 680 L343 680 Z M509 458 L494 330 C467 420 392 470 306 470 C164 470 57 348 57 197 C57 72 140 -12 256 -12 C344 -12 427 38 472 128 L474 128 L461 0 L478 0 L526 458 L509 458 Z M256 5 C152 5 75 80 75 199 C75 336 173 453 305 453 C409 453 487 378 487 259 C487 121 388 5 256 5 L256 5 Z " />
<glyph glyph-name="ae" unicode="&#xe6;" horiz-adv-x="898" d="M839 229 C841 236 844 265 844 277 C844 397 769 470 667 470 C578 470 494 415 452 325 L451 325 C450 418 392 470 298 470 C198 470 121 417 100 328 L118 328 C140 410 206 453 297 453 C394 453 443 399 432 299 L427 246 L265 246 C150 246 60 202 60 100 C60 32 111 -12 201 -12 C310 -12 400 52 426 144 L427 144 C445 46 516 -12 615 -12 C702 -12 782 36 821 118 L803 118 C765 47 691 5 614 5 C512 5 441 75 441 194 C441 206 442 218 443 229 L839 229 Z M667 453 C771 453 835 379 824 246 L445 246 C465 362 550 453 667 453 L667 453 Z M202 5 C119 5 78 43 78 101 C78 190 155 229 263 229 L425 229 L421 192 C409 78 315 5 202 5 L202 5 Z " />
<glyph glyph-name="ccedilla" unicode="&#xe7;" horiz-adv-x="542" d="M256 5 C155 5 75 77 75 197 C75 337 173 453 309 453 C400 453 463 400 474 310 L492 310 C485 406 408 470 307 470 C166 470 57 348 57 197 C57 80 129 0 233 -11 L214 -92 C279 -91 297 -105 297 -130 C297 -169 273 -189 226 -189 C215 -189 204 -188 197 -187 L195 -204 C204 -205 216 -206 227 -206 C281 -206 316 -177 316 -130 C316 -95 289 -78 234 -77 L249 -12 L256 -12 C357 -12 451 53 476 149 L458 149 C434 63 348 5 256 5 L256 5 Z " />
<glyph glyph-name="egrave" unicode="&#xe8;" horiz-adv-x="544" d="M337 537 L285 677 L263 677 L320 537 L337 537 Z M485 229 C487 235 490 265 490 276 C490 397 415 470 307 470 C164 470 57 346 57 192 C57 66 137 -12 255 -12 C346 -12 428 35 467 113 L449 113 C407 43 335 5 255 5 C148 5 75 75 75 194 C75 206 76 218 77 229 L485 229 Z M307 453 C408 453 471 389 471 275 C471 269 470 259 470 246 L79 246 C99 363 186 453 307 453 L307 453 Z " />
<glyph glyph-name="eacute" unicode="&#xe9;" horiz-adv-x="544" d="M386 677 L363 677 L281 537 L299 537 L386 677 Z M485 229 C487 235 490 265 490 276 C490 397 415 470 307 470 C164 470 57 346 57 192 C57 66 137 -12 255 -12 C346 -12 428 35 467 113 L449 113 C407 43 335 5 255 5 C148 5 75 75 75 194 C75 206 76 218 77 229 L485 229 Z M307 453 C408 453 471 389 471 275 C471 269 470 259 470 246 L79 246 C99 363 186 453 307 453 L307 453 Z " />
<glyph glyph-name="ecircumflex" unicode="&#xea;" horiz-adv-x="544" d="M328 672 L423 544 L442 544 L338 684 L320 684 L186 544 L207 544 L328 672 Z M485 229 C487 235 490 265 490 276 C490 397 415 470 307 470 C164 470 57 346 57 192 C57 66 137 -12 255 -12 C346 -12 428 35 467 113 L449 113 C407 43 335 5 255 5 C148 5 75 75 75 194 C75 206 76 218 77 229 L485 229 Z M307 453 C408 453 471 389 471 275 C471 269 470 259 470 246 L79 246 C99 363 186 453 307 453 L307 453 Z " />
<glyph glyph-name="edieresis" unicode="&#xeb;" horiz-adv-x="544" d="M225 575 C241 575 256 587 256 606 C256 620 245 631 231 631 C213 631 200 616 200 601 C200 586 211 575 225 575 L225 575 Z M409 575 C425 575 440 587 440 606 C440 620 429 631 415 631 C397 631 384 616 384 601 C384 586 395 575 409 575 L409 575 Z M485 229 C487 235 490 265 490 276 C490 397 415 470 307 470 C164 470 57 346 57 192 C57 66 137 -12 255 -12 C346 -12 428 35 467 113 L449 113 C407 43 335 5 255 5 C148 5 75 75 75 194 C75 206 76 218 77 229 L485 229 Z M307 453 C408 453 471 389 471 275 C471 269 470 259 470 246 L79 246 C99 363 186 453 307 453 L307 453 Z " />
<glyph glyph-name="igrave" unicode="&#xec;" horiz-adv-x="206" d="M142 537 L159 537 L107 677 L85 677 L142 537 Z M70 0 L88 0 L136 458 L118 458 L70 0 Z " />
<glyph glyph-name="iacute" unicode="&#xed;" horiz-adv-x="206" d="M103 537 L121 537 L208 677 L185 677 L103 537 Z M70 0 L88 0 L136 458 L118 458 L70 0 Z " />
<glyph glyph-name="icircumflex" unicode="&#xee;" horiz-adv-x="206" d="M251 544 L160 684 L142 684 L21 544 L42 544 L150 671 L232 544 L251 544 Z M70 0 L88 0 L136 458 L118 458 L70 0 Z " />
<glyph glyph-name="idieresis" unicode="&#xef;" horiz-adv-x="206" d="M57 575 C75 575 88 589 88 606 C88 620 77 631 63 631 C46 631 32 616 32 601 C32 586 43 575 57 575 L57 575 Z M221 575 C239 575 252 589 252 606 C252 620 241 631 227 631 C210 631 196 616 196 601 C196 586 207 575 221 575 L221 575 Z M70 0 L88 0 L136 458 L118 458 L70 0 Z " />
<glyph glyph-name="eth" unicode="&#xf0;" horiz-adv-x="571" d="M389 623 L502 700 L494 712 L377 633 C337 668 288 694 232 712 L225 697 C278 680 324 656 363 624 L241 542 L250 529 L375 614 C445 551 488 461 497 345 C465 428 393 469 310 469 C163 469 57 346 57 196 C57 74 137 -12 261 -12 C334 -12 395 16 439 63 C498 128 516 204 516 301 C516 436 471 547 389 623 L389 623 Z M261 5 C147 5 75 81 75 197 C75 335 168 452 309 452 C421 452 496 375 496 259 C496 122 402 5 261 5 L261 5 Z " />
<glyph glyph-name="ntilde" unicode="&#xf1;" horiz-adv-x="554" d="M255 655 C276 655 290 644 314 606 C339 567 357 552 382 552 C421 552 454 585 462 658 L445 658 C438 594 415 568 384 568 C364 568 350 579 326 617 C301 656 282 671 256 671 C217 671 184 638 176 565 L193 565 C200 629 224 655 255 655 L255 655 Z M322 470 C237 470 165 428 126 354 L125 354 L135 458 L118 458 L70 0 L88 0 L116 265 C128 384 215 453 320 453 C405 453 453 408 453 316 C453 305 452 293 451 281 L422 0 L440 0 L469 281 C470 293 471 305 471 316 C471 417 418 470 322 470 L322 470 Z " />
<glyph glyph-name="ograve" unicode="&#xf2;" horiz-adv-x="576" d="M327 537 L344 537 L292 677 L270 677 L327 537 Z M263 -12 C411 -12 519 112 519 260 C519 384 435 470 313 470 C165 470 57 346 57 198 C57 74 141 -12 263 -12 L263 -12 Z M263 5 C153 5 75 81 75 199 C75 339 176 453 313 453 C423 453 501 377 501 259 C501 119 400 5 263 5 L263 5 Z " />
<glyph glyph-name="oacute" unicode="&#xf3;" horiz-adv-x="576" d="M288 537 L306 537 L393 677 L370 677 L288 537 Z M263 -12 C411 -12 519 112 519 260 C519 384 435 470 313 470 C165 470 57 346 57 198 C57 74 141 -12 263 -12 L263 -12 Z M263 5 C153 5 75 81 75 199 C75 339 176 453 313 453 C423 453 501 377 501 259 C501 119 400 5 263 5 L263 5 Z " />
<glyph glyph-name="ocircumflex" unicode="&#xf4;" horiz-adv-x="576" d="M335 672 L430 544 L449 544 L345 684 L327 684 L193 544 L214 544 L335 672 Z M313 470 C165 470 57 346 57 198 C57 74 141 -12 263 -12 C411 -12 519 112 519 260 C519 384 435 470 313 470 L313 470 Z M263 5 C153 5 75 81 75 199 C75 339 176 453 313 453 C423 453 501 377 501 259 C501 119 400 5 263 5 L263 5 Z " />
<glyph glyph-name="otilde" unicode="&#xf5;" horiz-adv-x="576" d="M391 552 C430 552 463 585 471 658 L454 658 C447 594 424 568 393 568 C373 568 359 579 335 617 C310 656 291 671 265 671 C226 671 193 638 185 565 L202 565 C209 629 233 655 264 655 C285 655 299 644 323 606 C348 567 366 552 391 552 L391 552 Z M263 -12 C411 -12 519 112 519 260 C519 384 435 470 313 470 C165 470 57 346 57 198 C57 74 141 -12 263 -12 L263 -12 Z M263 5 C153 5 75 81 75 199 C75 339 176 453 313 453 C423 453 501 377 501 259 C501 119 400 5 263 5 L263 5 Z " />
<glyph glyph-name="odieresis" unicode="&#xf6;" horiz-adv-x="576" d="M232 575 C248 575 263 587 263 606 C263 620 252 631 238 631 C220 631 207 616 207 601 C207 586 218 575 232 575 L232 575 Z M416 575 C432 575 447 587 447 606 C447 620 436 631 422 631 C404 631 391 616 391 601 C391 586 402 575 416 575 L416 575 Z M263 -12 C411 -12 519 112 519 260 C519 384 435 470 313 470 C165 470 57 346 57 198 C57 74 141 -12 263 -12 L263 -12 Z M263 5 C153 5 75 81 75 199 C75 339 176 453 313 453 C423 453 501 377 501 259 C501 119 400 5 263 5 L263 5 Z " />
<glyph glyph-name="divide" unicode="&#xf7;" horiz-adv-x="650" d="M352 469 C366 469 375 480 375 493 C375 504 366 513 355 513 C343 513 332 502 332 489 C332 478 341 469 352 469 L352 469 Z M123 309 L543 309 L545 326 L125 326 L123 309 Z M315 120 C329 120 338 131 338 144 C338 155 329 164 318 164 C306 164 295 153 295 140 C295 129 304 120 315 120 L315 120 Z " />
<glyph glyph-name="oslash" unicode="&#xf8;" horiz-adv-x="579" d="M553 457 L543 469 L471 404 C435 445 380 470 315 470 C167 470 59 346 59 198 C59 147 73 102 99 67 L26 1 L36 -11 L108 55 C145 13 199 -12 265 -12 C413 -12 521 112 521 260 C521 312 506 357 481 392 L553 457 Z M315 453 C374 453 425 431 458 392 L112 79 C90 110 77 151 77 199 C77 339 178 453 315 453 L315 453 Z M265 5 C205 5 155 27 121 67 L467 380 C490 348 503 307 503 259 C503 119 402 5 265 5 L265 5 Z " />
<glyph glyph-name="ugrave" unicode="&#xf9;" horiz-adv-x="550" d="M331 537 L279 677 L257 677 L314 537 L331 537 Z M462 458 L434 193 C422 73 336 5 234 5 C151 5 100 51 100 142 C100 152 101 162 102 173 L132 458 L114 458 L84 173 C83 162 82 152 82 142 C82 42 137 -12 231 -12 C314 -12 387 30 424 104 L425 104 L415 0 L432 0 L480 458 L462 458 Z " />
<glyph glyph-name="uacute" unicode="&#xfa;" horiz-adv-x="550" d="M380 677 L357 677 L275 537 L293 537 L380 677 Z M462 458 L434 193 C422 73 336 5 234 5 C151 5 100 51 100 142 C100 152 101 162 102 173 L132 458 L114 458 L84 173 C83 162 82 152 82 142 C82 42 137 -12 231 -12 C314 -12 387 30 424 104 L425 104 L415 0 L432 0 L480 458 L462 458 Z " />
<glyph glyph-name="ucircumflex" unicode="&#xfb;" horiz-adv-x="550" d="M322 672 L417 544 L436 544 L332 684 L314 684 L180 544 L201 544 L322 672 Z M462 458 L434 193 C422 73 336 5 234 5 C151 5 100 51 100 142 C100 152 101 162 102 173 L132 458 L114 458 L84 173 C83 162 82 152 82 142 C82 42 137 -12 231 -12 C314 -12 387 30 424 104 L425 104 L415 0 L432 0 L480 458 L462 458 Z " />
<glyph glyph-name="udieresis" unicode="&#xfc;" horiz-adv-x="550" d="M219 575 C235 575 250 587 250 606 C250 620 239 631 225 631 C207 631 194 616 194 601 C194 586 205 575 219 575 L219 575 Z M403 575 C419 575 434 587 434 606 C434 620 423 631 409 631 C391 631 378 616 378 601 C378 586 389 575 403 575 L403 575 Z M462 458 L434 193 C422 73 336 5 234 5 C151 5 100 51 100 142 C100 152 101 162 102 173 L132 458 L114 458 L84 173 C83 162 82 152 82 142 C82 42 137 -12 231 -12 C314 -12 387 30 424 104 L425 104 L415 0 L432 0 L480 458 L462 458 Z " />
<glyph glyph-name="yacute" unicode="&#xfd;" horiz-adv-x="478" d="M344 677 L321 677 L239 537 L257 537 L344 677 Z M458 458 L217 30 L216 30 L67 458 L48 458 L205 9 L75 -224 L95 -224 L478 458 L458 458 Z " />
<glyph glyph-name="thorn" unicode="&#xfe;" horiz-adv-x="596" d="M340 470 C252 470 170 420 124 330 L122 330 L162 700 L144 700 L46 -224 L64 -224 L102 128 C129 38 202 -12 290 -12 C432 -12 539 110 539 261 C539 386 456 470 340 470 L340 470 Z M291 5 C186 5 109 80 109 199 C109 336 208 453 339 453 C445 453 521 378 521 260 C521 121 423 5 291 5 L291 5 Z " />
<glyph glyph-name="ydieresis" unicode="&#xff;" horiz-adv-x="478" d="M183 575 C199 575 214 587 214 606 C214 620 203 631 189 631 C171 631 158 616 158 601 C158 586 169 575 183 575 L183 575 Z M367 575 C383 575 398 587 398 606 C398 620 387 631 373 631 C355 631 342 616 342 601 C342 586 353 575 367 575 L367 575 Z M458 458 L217 30 L216 30 L67 458 L48 458 L205 9 L75 -224 L95 -224 L478 458 L458 458 Z " />
<glyph glyph-name="Amacron" unicode="&#x100;" horiz-adv-x="619" d="M510 850 L242 850 L240 831 L508 831 L510 850 Z M547 0 L565 0 L366 700 L353 700 L6 0 L26 0 L133 215 L486 215 L547 0 Z M141 233 L356 666 L357 666 L481 233 L141 233 Z " />
<glyph glyph-name="amacron" unicode="&#x101;" horiz-adv-x="596" d="M461 607 L209 607 L207 590 L459 590 L461 607 Z M509 458 L494 330 C467 420 392 470 306 470 C164 470 57 348 57 197 C57 72 140 -12 256 -12 C344 -12 427 38 472 128 L474 128 L461 0 L478 0 L526 458 L509 458 Z M256 5 C152 5 75 80 75 199 C75 336 173 453 305 453 C409 453 487 378 487 259 C487 121 388 5 256 5 L256 5 Z " />
<glyph glyph-name="Abreve" unicode="&#x102;" horiz-adv-x="619" d="M369 784 C450 784 496 826 506 918 L487 918 C478 834 440 801 370 801 C306 801 275 827 275 891 C275 899 276 908 277 918 L260 918 C259 907 258 898 258 889 C258 817 295 784 369 784 L369 784 Z M547 0 L565 0 L366 700 L353 700 L6 0 L26 0 L133 215 L486 215 L547 0 Z M141 233 L356 666 L357 666 L481 233 L141 233 Z " />
<glyph glyph-name="abreve" unicode="&#x103;" horiz-adv-x="596" d="M328 546 C402 546 448 583 457 672 L440 672 C431 593 396 562 329 562 C269 562 240 586 240 645 C240 654 241 662 242 672 L225 672 C224 656 224 658 224 646 C224 578 260 546 328 546 L328 546 Z M509 458 L494 330 C467 420 392 470 306 470 C164 470 57 348 57 197 C57 72 140 -12 256 -12 C344 -12 427 38 472 128 L474 128 L461 0 L478 0 L526 458 L509 458 Z M256 5 C152 5 75 80 75 199 C75 336 173 453 305 453 C409 453 487 378 487 259 C487 121 388 5 256 5 L256 5 Z " />
<glyph glyph-name="Aogonek" unicode="&#x104;" horiz-adv-x="619" d="M449 -133 C449 -77 504 -33 565 0 L366 700 L353 700 L6 0 L26 0 L133 215 L486 215 L546 3 C487 -25 432 -74 432 -133 C432 -179 466 -206 528 -206 C532 -206 537 -206 543 -205 L545 -188 C539 -189 534 -189 530 -189 C477 -189 449 -169 449 -133 L449 -133 Z M141 233 L356 666 L357 666 L481 233 L141 233 Z " />
<glyph glyph-name="aogonek" unicode="&#x105;" horiz-adv-x="596" d="M478 0 L526 458 L509 458 L494 330 C467 420 392 470 306 470 C164 470 57 348 57 197 C57 72 140 -12 256 -12 C344 -12 427 38 472 128 L474 128 L461 3 C405 -23 352 -67 352 -126 C352 -169 385 -194 443 -194 C447 -194 452 -194 458 -193 L459 -177 C453 -178 448 -178 444 -178 C395 -178 369 -159 369 -125 C369 -71 419 -31 478 0 L478 0 Z M256 5 C152 5 75 80 75 199 C75 336 173 453 305 453 C409 453 487 378 487 259 C487 121 388 5 256 5 L256 5 Z " />
<glyph glyph-name="Cacute" unicode="&#x106;" horiz-adv-x="758" d="M417 775 L436 775 L529 923 L504 923 L417 775 Z M370 -12 C525 -12 661 87 698 229 L679 229 C642 96 516 6 371 6 C207 6 89 123 89 303 C89 518 239 694 445 694 C594 694 698 602 704 470 L723 470 C717 610 602 712 446 712 C232 712 70 528 70 302 C70 112 197 -12 370 -12 L370 -12 Z " />
<glyph glyph-name="cacute" unicode="&#x107;" horiz-adv-x="542" d="M281 537 L299 537 L386 677 L363 677 L281 537 Z M256 -12 C357 -12 451 53 476 149 L458 149 C434 63 348 5 256 5 C155 5 75 77 75 197 C75 337 173 453 309 453 C400 453 463 400 474 310 L492 310 C485 406 408 470 307 470 C166 470 57 348 57 197 C57 71 140 -12 256 -12 L256 -12 Z " />
<glyph glyph-name="Ccircumflex" unicode="&#x108;" horiz-adv-x="758" d="M468 918 L568 782 L589 782 L478 930 L458 930 L317 782 L340 782 L468 918 Z M445 694 C594 694 698 602 704 470 L723 470 C717 610 602 712 446 712 C232 712 70 528 70 302 C70 112 197 -12 370 -12 C525 -12 661 87 698 229 L679 229 C642 96 516 6 371 6 C207 6 89 123 89 303 C89 518 239 694 445 694 L445 694 Z " />
<glyph glyph-name="ccircumflex" unicode="&#x109;" horiz-adv-x="542" d="M328 672 L423 544 L442 544 L338 684 L320 684 L186 544 L207 544 L328 672 Z M256 5 C155 5 75 77 75 197 C75 337 173 453 309 453 C400 453 463 400 474 310 L492 310 C485 406 408 470 307 470 C166 470 57 348 57 197 C57 71 140 -12 256 -12 C357 -12 451 53 476 149 L458 149 C434 63 348 5 256 5 L256 5 Z " />
<glyph glyph-name="Cdotaccent" unicode="&#x10a;" horiz-adv-x="758" d="M456 815 C473 815 489 829 489 848 C489 863 477 875 462 875 C444 875 429 859 429 843 C429 827 442 815 456 815 L456 815 Z M370 -12 C525 -12 661 87 698 229 L679 229 C642 96 516 6 371 6 C207 6 89 123 89 303 C89 518 239 694 445 694 C594 694 698 602 704 470 L723 470 C717 610 602 712 446 712 C232 712 70 528 70 302 C70 112 197 -12 370 -12 L370 -12 Z " />
<glyph glyph-name="cdotaccent" unicode="&#x10b;" horiz-adv-x="542" d="M317 575 C333 575 348 587 348 606 C348 620 337 631 323 631 C306 631 292 616 292 601 C292 586 303 575 317 575 L317 575 Z M256 -12 C357 -12 451 53 476 149 L458 149 C434 63 348 5 256 5 C155 5 75 77 75 197 C75 337 173 453 309 453 C400 453 463 400 474 310 L492 310 C485 406 408 470 307 470 C166 470 57 348 57 197 C57 71 140 -12 256 -12 L256 -12 Z " />
<glyph glyph-name="Ccaron" unicode="&#x10c;" horiz-adv-x="758" d="M463 782 L604 930 L581 930 L453 794 L353 930 L332 930 L443 782 L463 782 Z M445 694 C594 694 698 602 704 470 L723 470 C717 610 602 712 446 712 C232 712 70 528 70 302 C70 112 197 -12 370 -12 C525 -12 661 87 698 229 L679 229 C642 96 516 6 371 6 C207 6 89 123 89 303 C89 518 239 694 445 694 L445 694 Z " />
<glyph glyph-name="ccaron" unicode="&#x10d;" horiz-adv-x="542" d="M323 544 L457 684 L436 684 L315 556 L220 684 L201 684 L305 544 L323 544 Z M256 5 C155 5 75 77 75 197 C75 337 173 453 309 453 C400 453 463 400 474 310 L492 310 C485 406 408 470 307 470 C166 470 57 348 57 197 C57 71 140 -12 256 -12 C357 -12 451 53 476 149 L458 149 C434 63 348 5 256 5 L256 5 Z " />
<glyph glyph-name="Dcaron" unicode="&#x10e;" horiz-adv-x="672" d="M378 782 L519 930 L496 930 L368 794 L268 930 L247 930 L358 782 L378 782 Z M292 700 L160 700 L86 0 L218 0 C456 0 625 159 625 395 C625 584 495 700 292 700 L292 700 Z M220 18 L107 18 L177 682 L290 682 C489 682 606 573 606 395 C606 173 451 18 220 18 L220 18 Z " />
<glyph glyph-name="dcaron" unicode="&#x10f;" horiz-adv-x="662" d="M699 712 C682 712 669 698 669 681 C669 666 680 656 695 656 C699 656 704 657 709 660 C707 640 691 611 666 590 L676 579 C704 602 728 635 728 674 C728 699 716 712 699 712 L699 712 Z M494 330 C467 419 394 470 306 470 C164 470 57 348 57 197 C57 72 140 -12 256 -12 C344 -12 427 38 472 128 L474 128 L461 0 L478 0 L552 700 L534 700 L494 330 Z M256 5 C152 5 75 80 75 199 C75 338 174 453 306 453 C409 453 487 378 487 259 C487 121 388 5 256 5 L256 5 Z " />
<glyph glyph-name="Dcroat" unicode="&#x110;" horiz-adv-x="682" d="M302 700 L170 700 L134 358 L18 358 L17 342 L132 342 L96 0 L228 0 C466 0 635 159 635 395 C635 584 505 700 302 700 L302 700 Z M230 18 L117 18 L151 342 L349 342 L350 358 L153 358 L187 682 L300 682 C499 682 616 573 616 395 C616 173 461 18 230 18 L230 18 Z " />
<glyph glyph-name="dcroat" unicode="&#x111;" horiz-adv-x="586" d="M653 578 L539 578 L552 700 L534 700 L521 578 L339 578 L337 562 L519 562 L494 330 C467 419 394 470 306 470 C164 470 57 348 57 197 C57 72 140 -12 256 -12 C344 -12 427 38 472 128 L474 128 L461 0 L478 0 L537 562 L651 562 L653 578 Z M256 5 C152 5 75 80 75 199 C75 338 174 453 306 453 C409 453 487 378 487 259 C487 121 388 5 256 5 L256 5 Z " />
<glyph glyph-name="Emacron" unicode="&#x112;" horiz-adv-x="588" d="M510 850 L242 850 L240 831 L508 831 L510 850 Z M558 682 L560 700 L160 700 L86 0 L486 0 L488 18 L107 18 L142 346 L497 346 L499 364 L144 364 L177 682 L558 682 Z " />
<glyph glyph-name="emacron" unicode="&#x113;" horiz-adv-x="544" d="M447 607 L195 607 L193 590 L445 590 L447 607 Z M485 229 C487 235 490 265 490 276 C490 397 415 470 307 470 C164 470 57 346 57 192 C57 66 137 -12 255 -12 C346 -12 428 35 467 113 L449 113 C407 43 335 5 255 5 C148 5 75 75 75 194 C75 206 76 218 77 229 L485 229 Z M307 453 C408 453 471 389 471 275 C471 269 470 259 470 246 L79 246 C99 363 186 453 307 453 L307 453 Z " />
<glyph glyph-name="Ebreve" unicode="&#x114;" horiz-adv-x="588" d="M369 784 C450 784 496 826 506 918 L487 918 C478 834 440 801 370 801 C306 801 275 827 275 891 C275 899 276 908 277 918 L260 918 C259 907 258 898 258 889 C258 817 295 784 369 784 L369 784 Z M558 682 L560 700 L160 700 L86 0 L486 0 L488 18 L107 18 L142 346 L497 346 L499 364 L144 364 L177 682 L558 682 Z " />
<glyph glyph-name="ebreve" unicode="&#x115;" horiz-adv-x="544" d="M314 546 C388 546 434 583 443 672 L426 672 C417 593 382 562 315 562 C255 562 226 586 226 645 C226 654 227 662 228 672 L211 672 C210 656 210 658 210 646 C210 578 246 546 314 546 L314 546 Z M485 229 C487 235 490 265 490 276 C490 397 415 470 307 470 C164 470 57 346 57 192 C57 66 137 -12 255 -12 C346 -12 428 35 467 113 L449 113 C407 43 335 5 255 5 C148 5 75 75 75 194 C75 206 76 218 77 229 L485 229 Z M307 453 C408 453 471 389 471 275 C471 269 470 259 470 246 L79 246 C99 363 186 453 307 453 L307 453 Z " />
<glyph glyph-name="Edotaccent" unicode="&#x116;" horiz-adv-x="588" d="M372 815 C389 815 405 829 405 848 C405 863 393 875 378 875 C360 875 345 859 345 843 C345 827 358 815 372 815 L372 815 Z M558 682 L560 700 L160 700 L86 0 L486 0 L488 18 L107 18 L142 346 L497 346 L499 364 L144 364 L177 682 L558 682 Z " />
<glyph glyph-name="edotaccent" unicode="&#x117;" horiz-adv-x="544" d="M317 575 C333 575 348 587 348 606 C348 620 337 631 323 631 C306 631 292 616 292 601 C292 586 303 575 317 575 L317 575 Z M485 229 C487 235 490 265 490 276 C490 397 415 470 307 470 C164 470 57 346 57 192 C57 66 137 -12 255 -12 C346 -12 428 35 467 113 L449 113 C407 43 335 5 255 5 C148 5 75 75 75 194 C75 206 76 218 77 229 L485 229 Z M307 453 C408 453 471 389 471 275 C471 269 470 259 470 246 L79 246 C99 363 186 453 307 453 L307 453 Z " />
<glyph glyph-name="Eogonek" unicode="&#x118;" horiz-adv-x="588" d="M558 682 L560 700 L160 700 L86 0 L462 0 C405 -28 353 -75 353 -133 C353 -179 387 -206 449 -206 C453 -206 458 -206 464 -205 L466 -188 C460 -189 455 -189 451 -189 C398 -189 370 -169 370 -133 C370 -77 425 -33 486 0 L488 18 L107 18 L142 346 L497 346 L499 364 L144 364 L177 682 L558 682 Z " />
<glyph glyph-name="eogonek" unicode="&#x119;" horiz-adv-x="544" d="M485 229 C487 235 490 265 490 276 C490 397 415 470 307 470 C164 470 57 346 57 192 C57 66 137 -12 255 -12 C270 -12 284 -11 298 -8 C254 -35 218 -74 218 -122 C218 -165 251 -190 309 -190 C313 -190 318 -190 324 -189 L325 -173 C319 -174 314 -174 310 -174 C261 -174 235 -155 235 -121 C235 -67 285 -27 343 4 C397 24 441 62 467 113 L449 113 C407 43 335 5 255 5 C148 5 75 75 75 194 C75 206 76 218 77 229 L485 229 Z M307 453 C408 453 471 389 471 275 C471 269 470 259 470 246 L79 246 C99 363 186 453 307 453 L307 453 Z " />
<glyph glyph-name="Ecaron" unicode="&#x11a;" horiz-adv-x="588" d="M379 782 L520 930 L497 930 L369 794 L269 930 L248 930 L359 782 L379 782 Z M558 682 L560 700 L160 700 L86 0 L486 0 L488 18 L107 18 L142 346 L497 346 L499 364 L144 364 L177 682 L558 682 Z " />
<glyph glyph-name="ecaron" unicode="&#x11b;" horiz-adv-x="544" d="M323 544 L457 684 L436 684 L315 556 L220 684 L201 684 L305 544 L323 544 Z M485 229 C487 235 490 265 490 276 C490 397 415 470 307 470 C164 470 57 346 57 192 C57 66 137 -12 255 -12 C346 -12 428 35 467 113 L449 113 C407 43 335 5 255 5 C148 5 75 75 75 194 C75 206 76 218 77 229 L485 229 Z M307 453 C408 453 471 389 471 275 C471 269 470 259 470 246 L79 246 C99 363 186 453 307 453 L307 453 Z " />
<glyph glyph-name="Gcircumflex" unicode="&#x11c;" horiz-adv-x="783" d="M472 918 L572 782 L593 782 L482 930 L462 930 L321 782 L344 782 L472 918 Z M425 309 L693 309 C668 117 535 6 373 6 C211 6 89 116 89 302 C89 519 238 694 448 694 C592 694 701 612 711 484 L730 484 C720 618 603 712 449 712 C232 712 70 530 70 302 C70 111 195 -12 373 -12 C510 -12 627 64 678 192 L680 192 L661 0 L679 0 L713 327 L427 327 L425 309 Z " />
<glyph glyph-name="gcircumflex" unicode="&#x11d;" horiz-adv-x="597" d="M353 672 L448 544 L467 544 L363 684 L345 684 L211 544 L232 544 L353 672 Z M510 458 L495 330 C468 420 396 470 309 470 C166 470 60 346 60 200 C60 76 143 -8 259 -8 C347 -8 428 42 474 132 L475 132 L459 -19 C445 -147 362 -219 234 -219 C132 -219 67 -175 54 -90 L36 -90 C47 -184 120 -236 234 -236 C372 -236 462 -158 477 -19 L527 458 L510 458 Z M258 9 C155 9 78 84 78 201 C78 338 177 453 309 453 C412 453 488 378 488 261 C488 125 389 9 258 9 L258 9 Z " />
<glyph glyph-name="Gbreve" unicode="&#x11e;" horiz-adv-x="783" d="M457 784 C538 784 584 826 594 918 L575 918 C566 834 528 801 458 801 C394 801 363 827 363 891 C363 899 364 908 365 918 L348 918 C347 907 346 898 346 889 C346 817 383 784 457 784 L457 784 Z M425 309 L693 309 C668 117 535 6 373 6 C211 6 89 116 89 302 C89 519 238 694 448 694 C592 694 701 612 711 484 L730 484 C720 618 603 712 449 712 C232 712 70 530 70 302 C70 111 195 -12 373 -12 C510 -12 627 64 678 192 L680 192 L661 0 L679 0 L713 327 L427 327 L425 309 Z " />
<glyph glyph-name="gbreve" unicode="&#x11f;" horiz-adv-x="597" d="M339 546 C413 546 459 583 468 672 L451 672 C442 593 407 562 340 562 C280 562 251 586 251 645 C251 654 252 662 253 672 L236 672 C235 656 235 658 235 646 C235 578 271 546 339 546 L339 546 Z M510 458 L495 330 C468 420 396 470 309 470 C166 470 60 346 60 200 C60 76 143 -8 259 -8 C347 -8 428 42 474 132 L475 132 L459 -19 C445 -147 362 -219 234 -219 C132 -219 67 -175 54 -90 L36 -90 C47 -184 120 -236 234 -236 C372 -236 462 -158 477 -19 L527 458 L510 458 Z M258 9 C155 9 78 84 78 201 C78 338 177 453 309 453 C412 453 488 378 488 261 C488 125 389 9 258 9 L258 9 Z " />
<glyph glyph-name="Gdotaccent" unicode="&#x120;" horiz-adv-x="783" d="M460 815 C477 815 493 829 493 848 C493 863 481 875 466 875 C448 875 433 859 433 843 C433 827 446 815 460 815 L460 815 Z M425 309 L693 309 C668 117 535 6 373 6 C211 6 89 116 89 302 C89 519 238 694 448 694 C592 694 701 612 711 484 L730 484 C720 618 603 712 449 712 C232 712 70 530 70 302 C70 111 195 -12 373 -12 C510 -12 627 64 678 192 L680 192 L661 0 L679 0 L713 327 L427 327 L425 309 Z " />
<glyph glyph-name="gdotaccent" unicode="&#x121;" horiz-adv-x="597" d="M342 575 C358 575 373 587 373 606 C373 620 362 631 348 631 C331 631 317 616 317 601 C317 586 328 575 342 575 L342 575 Z M510 458 L495 330 C468 420 396 470 309 470 C166 470 60 346 60 200 C60 76 143 -8 259 -8 C347 -8 428 42 474 132 L475 132 L459 -19 C445 -147 362 -219 234 -219 C132 -219 67 -175 54 -90 L36 -90 C47 -184 120 -236 234 -236 C372 -236 462 -158 477 -19 L527 458 L510 458 Z M258 9 C155 9 78 84 78 201 C78 338 177 453 309 453 C412 453 488 378 488 261 C488 125 389 9 258 9 L258 9 Z " />
<glyph glyph-name="uni0122" unicode="&#x122;" horiz-adv-x="783" d="M425 309 L693 309 C668 117 535 6 373 6 C211 6 89 116 89 302 C89 519 238 694 448 694 C592 694 701 612 711 484 L730 484 C720 618 603 712 449 712 C232 712 70 530 70 302 C70 111 195 -12 373 -12 C510 -12 627 64 678 192 L680 192 L661 0 L679 0 L713 327 L427 327 L425 309 Z M363 -92 C348 -92 333 -106 333 -123 C333 -138 344 -148 359 -148 C364 -148 370 -147 375 -143 C373 -163 356 -193 334 -213 L353 -213 C375 -191 392 -161 392 -130 C392 -105 380 -92 363 -92 L363 -92 Z " />
<glyph glyph-name="uni0123" unicode="&#x123;" horiz-adv-x="597" d="M344 550 C359 550 374 564 374 581 C374 596 363 606 348 606 C343 606 337 605 332 601 C334 621 351 651 373 671 L354 671 C332 649 315 619 315 588 C315 563 327 550 344 550 L344 550 Z M510 458 L495 330 C468 420 396 470 309 470 C166 470 60 346 60 200 C60 76 143 -8 259 -8 C347 -8 428 42 474 132 L475 132 L459 -19 C445 -147 362 -219 234 -219 C132 -219 67 -175 54 -90 L36 -90 C47 -184 120 -236 234 -236 C372 -236 462 -158 477 -19 L527 458 L510 458 Z M258 9 C155 9 78 84 78 201 C78 338 177 453 309 453 C412 453 488 378 488 261 C488 125 389 9 258 9 L258 9 Z " />
<glyph glyph-name="Hcircumflex" unicode="&#x124;" horiz-adv-x="692" d="M420 918 L520 782 L541 782 L430 930 L410 930 L269 782 L292 782 L420 918 Z M613 700 L577 360 L143 360 L179 700 L160 700 L86 0 L105 0 L141 342 L575 342 L539 0 L558 0 L632 700 L613 700 Z " />
<glyph glyph-name="hcircumflex" unicode="&#x125;" horiz-adv-x="554" d="M277 782 L298 782 L187 930 L167 930 L26 782 L49 782 L177 918 L277 782 Z M321 470 C238 470 165 428 126 354 L125 354 L162 700 L144 700 L70 0 L88 0 L116 265 C128 384 215 453 320 453 C405 453 453 408 453 316 C453 305 452 293 451 281 L422 0 L440 0 L469 281 C470 293 471 305 471 316 C471 417 418 470 321 470 L321 470 Z " />
<glyph glyph-name="Hbar" unicode="&#x126;" horiz-adv-x="720" d="M720 516 L627 516 L646 700 L627 700 L608 516 L174 516 L193 700 L174 700 L155 516 L60 516 L58 500 L153 500 L100 0 L119 0 L155 342 L589 342 L553 0 L572 0 L625 500 L718 500 L720 516 Z M591 360 L157 360 L172 500 L606 500 L591 360 Z " />
<glyph glyph-name="hbar" unicode="&#x127;" horiz-adv-x="554" d="M321 470 C238 470 165 428 126 354 L125 354 L147 562 L319 562 L321 578 L149 578 L162 700 L144 700 L131 578 L7 578 L5 562 L129 562 L70 0 L88 0 L116 265 C128 384 215 453 320 453 C405 453 453 408 453 316 C453 305 452 293 451 281 L422 0 L440 0 L469 281 C470 293 471 305 471 316 C471 417 418 470 321 470 L321 470 Z " />
<glyph glyph-name="Itilde" unicode="&#x128;" horiz-adv-x="239" d="M253 790 C294 790 329 825 337 903 L319 903 C312 835 287 807 254 807 C233 807 219 819 193 859 C167 901 147 917 120 917 C79 917 43 882 35 804 L53 804 C60 872 85 900 118 900 C140 900 155 888 181 848 C208 807 225 790 253 790 L253 790 Z M86 0 L105 0 L179 700 L160 700 L86 0 Z " />
<glyph glyph-name="itilde" unicode="&#x129;" horiz-adv-x="206" d="M203 552 C237 552 263 585 271 658 L254 658 C247 594 229 568 205 568 C185 568 174 579 150 617 C125 656 109 671 83 671 C49 671 23 638 15 565 L32 565 C39 629 58 655 82 655 C102 655 114 644 138 606 C163 567 177 552 203 552 L203 552 Z M70 0 L88 0 L136 458 L118 458 L70 0 Z " />
<glyph glyph-name="Imacron" unicode="&#x12a;" horiz-adv-x="239" d="M50 831 L318 831 L320 850 L52 850 L50 831 Z M86 0 L105 0 L179 700 L160 700 L86 0 Z " />
<glyph glyph-name="imacron" unicode="&#x12b;" horiz-adv-x="206" d="M33 590 L249 590 L251 607 L35 607 L33 590 Z M70 0 L88 0 L136 458 L118 458 L70 0 Z " />
<glyph glyph-name="Ibreve" unicode="&#x12c;" horiz-adv-x="239" d="M179 784 C260 784 306 826 316 918 L297 918 C288 834 250 801 180 801 C116 801 85 827 85 891 C85 899 86 908 87 918 L70 918 C69 907 68 898 68 889 C68 817 105 784 179 784 L179 784 Z M86 0 L105 0 L179 700 L160 700 L86 0 Z " />
<glyph glyph-name="ibreve" unicode="&#x12d;" horiz-adv-x="206" d="M136 546 C205 546 246 588 256 672 L238 672 C229 593 193 562 138 562 C87 562 59 586 59 645 C59 653 60 662 61 672 L44 672 C42 657 42 659 42 646 C42 577 77 546 136 546 L136 546 Z M70 0 L88 0 L136 458 L118 458 L70 0 Z " />
<glyph glyph-name="Iogonek" unicode="&#x12e;" horiz-adv-x="239" d="M105 0 L179 700 L160 700 L86 1 C39 -30 0 -80 0 -127 C0 -169 29 -194 70 -194 C74 -194 79 -194 85 -193 L86 -177 C80 -178 75 -178 71 -178 C39 -178 17 -159 17 -126 C17 -83 44 -44 105 0 L105 0 Z " />
<glyph glyph-name="iogonek" unicode="&#x12f;" horiz-adv-x="206" d="M145 631 C128 631 114 616 114 601 C114 586 125 575 139 575 C155 575 170 587 170 606 C170 620 159 631 145 631 L145 631 Z M70 2 C23 -29 -17 -79 -17 -127 C-17 -169 12 -194 53 -194 C57 -194 62 -194 68 -193 L69 -177 C63 -178 58 -178 54 -178 C22 -178 0 -159 0 -126 C0 -83 27 -44 88 0 L136 458 L118 458 L70 2 Z " />
<glyph glyph-name="Idotaccent" unicode="&#x130;" horiz-adv-x="239" d="M182 815 C199 815 215 829 215 848 C215 863 203 875 188 875 C170 875 155 859 155 843 C155 827 168 815 182 815 L182 815 Z M86 0 L105 0 L179 700 L160 700 L86 0 Z " />
<glyph glyph-name="dotlessi" unicode="&#x131;" horiz-adv-x="206" d="M70 0 L88 0 L136 458 L118 458 L70 0 Z " />
<glyph glyph-name="Jcircumflex" unicode="&#x134;" horiz-adv-x="616" d="M411 918 L511 782 L532 782 L421 930 L401 930 L260 782 L283 782 L411 918 Z M205 700 L203 682 L545 682 L497 227 C481 77 408 6 273 6 C160 6 96 55 96 175 C96 186 97 198 98 210 L108 311 L89 311 L79 210 C78 197 77 185 77 174 C77 46 148 -12 273 -12 C420 -12 499 68 516 227 L566 700 L205 700 Z " />
<glyph glyph-name="jcircumflex" unicode="&#x135;" horiz-adv-x="206" d="M251 544 L160 684 L142 684 L21 544 L42 544 L150 671 L232 544 L251 544 Z M57 -119 C50 -192 24 -219 -28 -219 C-38 -219 -51 -218 -66 -215 L-67 -231 C-58 -234 -44 -236 -30 -236 C33 -236 67 -203 75 -121 L136 458 L118 458 L57 -119 Z " />
<glyph glyph-name="uni0136" unicode="&#x136;" horiz-adv-x="593" d="M596 700 L568 700 L143 356 L142 356 L179 700 L160 700 L86 0 L105 0 L141 343 L142 343 L503 0 L529 0 L162 349 L596 700 Z M279 -92 C264 -92 249 -106 249 -123 C249 -138 260 -148 275 -148 C280 -148 286 -147 291 -143 C289 -163 272 -193 250 -213 L269 -213 C291 -191 308 -161 308 -130 C308 -105 296 -92 279 -92 L279 -92 Z " />
<glyph glyph-name="uni0137" unicode="&#x137;" horiz-adv-x="455" d="M440 458 L410 458 L115 247 L114 247 L162 700 L144 700 L70 0 L88 0 L113 236 L114 236 L373 0 L400 0 L136 241 L440 458 Z M200 -92 C185 -92 170 -106 170 -123 C170 -138 181 -148 196 -148 C201 -148 207 -147 212 -143 C210 -163 193 -193 171 -213 L190 -213 C212 -191 229 -161 229 -130 C229 -105 217 -92 200 -92 L200 -92 Z " />
<glyph glyph-name="Lacute" unicode="&#x139;" horiz-adv-x="531" d="M255 923 L230 923 L143 775 L162 775 L255 923 Z M107 18 L179 700 L160 700 L86 0 L463 0 L465 18 L107 18 Z " />
<glyph glyph-name="lacute" unicode="&#x13a;" horiz-adv-x="206" d="M126 775 L145 775 L238 923 L213 923 L126 775 Z M70 0 L88 0 L162 700 L144 700 L70 0 Z " />
<glyph glyph-name="uni013B" unicode="&#x13b;" horiz-adv-x="531" d="M107 18 L179 700 L160 700 L86 0 L463 0 L465 18 L107 18 Z M265 -92 C250 -92 235 -106 235 -123 C235 -138 246 -148 261 -148 C266 -148 272 -147 277 -143 C275 -163 258 -193 236 -213 L255 -213 C277 -191 294 -161 294 -130 C294 -105 282 -92 265 -92 L265 -92 Z " />
<glyph glyph-name="uni013C" unicode="&#x13c;" horiz-adv-x="206" d="M162 700 L144 700 L70 0 L88 0 L162 700 Z M65 -92 C50 -92 35 -106 35 -123 C35 -138 46 -148 61 -148 C66 -148 72 -147 77 -143 C75 -163 58 -193 36 -213 L55 -213 C77 -191 94 -161 94 -130 C94 -105 82 -92 65 -92 L65 -92 Z " />
<glyph glyph-name="Lcaron" unicode="&#x13d;" horiz-adv-x="531" d="M353 590 L363 579 C391 602 415 635 415 674 C415 699 403 712 386 712 C369 712 356 698 356 681 C356 666 367 656 382 656 C386 656 391 657 396 660 C394 640 378 611 353 590 L353 590 Z M107 18 L179 700 L160 700 L86 0 L463 0 L465 18 L107 18 Z " />
<glyph glyph-name="lcaron" unicode="&#x13e;" horiz-adv-x="272" d="M309 712 C292 712 279 698 279 681 C279 666 290 656 305 656 C309 656 314 657 319 660 C317 640 301 611 276 590 L286 579 C314 602 338 635 338 674 C338 699 326 712 309 712 L309 712 Z M70 0 L88 0 L162 700 L144 700 L70 0 Z " />
<glyph glyph-name="Ldot" unicode="&#x13f;" horiz-adv-x="551" d="M107 18 L179 700 L160 700 L86 0 L463 0 L465 18 L107 18 Z M373 277 C386 277 403 289 403 308 C403 322 392 333 378 333 C360 333 347 318 347 303 C347 289 358 277 373 277 L373 277 Z " />
<glyph glyph-name="ldot" unicode="&#x140;" horiz-adv-x="395" d="M70 0 L88 0 L162 700 L144 700 L70 0 Z M297 218 C310 218 327 230 327 249 C327 263 316 274 302 274 C284 274 271 259 271 244 C271 230 282 218 297 218 L297 218 Z " />
<glyph glyph-name="Lslash" unicode="&#x141;" horiz-adv-x="563" d="M139 18 L167 283 L421 454 L423 475 L169 304 L211 700 L192 700 L149 290 L-9 184 L-12 163 L146 270 L118 0 L495 0 L497 18 L139 18 Z " />
<glyph glyph-name="lslash" unicode="&#x142;" horiz-adv-x="327" d="M338 446 L185 344 L223 700 L205 700 L166 331 L13 229 L10 208 L164 311 L131 0 L149 0 L183 324 L335 425 L338 446 Z " />
<glyph glyph-name="Nacute" unicode="&#x143;" horiz-adv-x="710" d="M490 923 L465 923 L378 775 L397 775 L490 923 Z M631 700 L561 35 L560 35 L178 700 L160 700 L86 0 L105 0 L175 665 L176 665 L558 0 L576 0 L650 700 L631 700 Z " />
<glyph glyph-name="nacute" unicode="&#x144;" horiz-adv-x="554" d="M384 677 L361 677 L279 537 L297 537 L384 677 Z M322 470 C237 470 165 428 126 354 L125 354 L135 458 L118 458 L70 0 L88 0 L116 265 C128 384 215 453 320 453 C405 453 453 408 453 316 C453 305 452 293 451 281 L422 0 L440 0 L469 281 C470 293 471 305 471 316 C471 417 418 470 322 470 L322 470 Z " />
<glyph glyph-name="uni0145" unicode="&#x145;" horiz-adv-x="710" d="M631 700 L561 35 L560 35 L178 700 L160 700 L86 0 L105 0 L175 665 L176 665 L558 0 L576 0 L650 700 L631 700 Z M317 -92 C302 -92 287 -106 287 -123 C287 -138 298 -148 313 -148 C318 -148 324 -147 329 -143 C327 -163 310 -193 288 -213 L307 -213 C329 -191 346 -161 346 -130 C346 -105 334 -92 317 -92 L317 -92 Z " />
<glyph glyph-name="uni0146" unicode="&#x146;" horiz-adv-x="554" d="M322 470 C237 470 165 428 126 354 L125 354 L135 458 L118 458 L70 0 L88 0 L116 265 C128 384 215 453 320 453 C405 453 453 408 453 316 C453 305 452 293 451 281 L422 0 L440 0 L469 281 C470 293 471 305 471 316 C471 417 418 470 322 470 L322 470 Z M239 -92 C224 -92 209 -106 209 -123 C209 -138 220 -148 235 -148 C240 -148 246 -147 251 -143 C249 -163 232 -193 210 -213 L229 -213 C251 -191 268 -161 268 -130 C268 -105 256 -92 239 -92 L239 -92 Z " />
<glyph glyph-name="Ncaron" unicode="&#x147;" horiz-adv-x="710" d="M424 782 L565 930 L542 930 L414 794 L314 930 L293 930 L404 782 L424 782 Z M631 700 L561 35 L560 35 L178 700 L160 700 L86 0 L105 0 L175 665 L176 665 L558 0 L576 0 L650 700 L631 700 Z " />
<glyph glyph-name="ncaron" unicode="&#x148;" horiz-adv-x="554" d="M321 544 L455 684 L434 684 L313 556 L218 684 L199 684 L303 544 L321 544 Z M322 470 C237 470 165 428 126 354 L125 354 L135 458 L118 458 L70 0 L88 0 L116 265 C128 384 215 453 320 453 C405 453 453 408 453 316 C453 305 452 293 451 281 L422 0 L440 0 L469 281 C470 293 471 305 471 316 C471 417 418 470 322 470 L322 470 Z " />
<glyph glyph-name="Eng" unicode="&#x14a;" horiz-adv-x="710" d="M631 700 L561 35 L560 35 L178 700 L160 700 L86 0 L105 0 L175 665 L176 665 L557 2 L553 -35 C546 -106 520 -134 469 -134 C459 -134 446 -133 431 -129 L429 -147 C439 -150 453 -152 467 -152 C530 -152 563 -119 572 -37 L650 700 L631 700 Z " />
<glyph glyph-name="eng" unicode="&#x14b;" horiz-adv-x="554" d="M321 470 C237 470 165 428 126 354 L125 354 L135 458 L118 458 L70 0 L88 0 L116 265 C128 384 215 453 320 453 C405 453 453 408 453 316 C453 305 452 293 451 281 L420 -14 C413 -87 388 -114 335 -114 C325 -114 312 -113 297 -110 L296 -126 C305 -129 319 -131 333 -131 C396 -131 430 -98 438 -16 L469 281 C470 293 471 305 471 316 C471 417 418 470 321 470 L321 470 Z " />
<glyph glyph-name="Omacron" unicode="&#x14c;" horiz-adv-x="795" d="M327 831 L595 831 L597 850 L329 850 L327 831 Z M372 -12 C586 -12 750 171 750 396 C750 584 626 712 448 712 C234 712 70 529 70 302 C70 115 194 -12 372 -12 L372 -12 Z M371 6 C206 6 89 120 89 302 C89 519 239 694 449 694 C614 694 731 580 731 398 C731 181 581 6 371 6 L371 6 Z " />
<glyph glyph-name="omacron" unicode="&#x14d;" horiz-adv-x="576" d="M200 590 L452 590 L454 607 L202 607 L200 590 Z M263 -12 C411 -12 519 112 519 260 C519 384 435 470 313 470 C165 470 57 346 57 198 C57 74 141 -12 263 -12 L263 -12 Z M263 5 C153 5 75 81 75 199 C75 339 176 453 313 453 C423 453 501 377 501 259 C501 119 400 5 263 5 L263 5 Z " />
<glyph glyph-name="Obreve" unicode="&#x14e;" horiz-adv-x="795" d="M456 784 C537 784 583 826 593 918 L574 918 C565 834 527 801 457 801 C393 801 362 827 362 891 C362 899 363 908 364 918 L347 918 C346 907 345 898 345 889 C345 817 382 784 456 784 L456 784 Z M372 -12 C586 -12 750 171 750 396 C750 584 626 712 448 712 C234 712 70 529 70 302 C70 115 194 -12 372 -12 L372 -12 Z M371 6 C206 6 89 120 89 302 C89 519 239 694 449 694 C614 694 731 580 731 398 C731 181 581 6 371 6 L371 6 Z " />
<glyph glyph-name="obreve" unicode="&#x14f;" horiz-adv-x="576" d="M321 546 C395 546 441 583 450 672 L433 672 C424 593 389 562 322 562 C262 562 233 586 233 645 C233 654 234 662 235 672 L218 672 C217 656 217 658 217 646 C217 578 253 546 321 546 L321 546 Z M263 -12 C411 -12 519 112 519 260 C519 384 435 470 313 470 C165 470 57 346 57 198 C57 74 141 -12 263 -12 L263 -12 Z M263 5 C153 5 75 81 75 199 C75 339 176 453 313 453 C423 453 501 377 501 259 C501 119 400 5 263 5 L263 5 Z " />
<glyph glyph-name="Ohungarumlaut" unicode="&#x150;" horiz-adv-x="795" d="M353 782 L371 782 L459 930 L437 930 L353 782 Z M506 782 L524 782 L612 930 L590 930 L506 782 Z M372 -12 C586 -12 750 171 750 396 C750 584 626 712 448 712 C234 712 70 529 70 302 C70 115 194 -12 372 -12 L372 -12 Z M371 6 C206 6 89 120 89 302 C89 519 239 694 449 694 C614 694 731 580 731 398 C731 181 581 6 371 6 L371 6 Z " />
<glyph glyph-name="ohungarumlaut" unicode="&#x151;" horiz-adv-x="576" d="M225 544 L242 544 L326 684 L305 684 L225 544 Z M369 544 L386 544 L470 684 L449 684 L369 544 Z M263 -12 C411 -12 519 112 519 260 C519 384 435 470 313 470 C165 470 57 346 57 198 C57 74 141 -12 263 -12 L263 -12 Z M263 5 C153 5 75 81 75 199 C75 339 176 453 313 453 C423 453 501 377 501 259 C501 119 400 5 263 5 L263 5 Z " />
<glyph glyph-name="OE" unicode="&#x152;" horiz-adv-x="1021" d="M991 682 L993 700 L480 700 C239 700 72 538 72 303 C72 115 203 0 406 0 L919 0 L921 18 L540 18 L575 346 L930 346 L932 364 L576 364 L610 682 L991 682 Z M91 304 C91 526 246 682 478 682 L591 682 L521 18 L408 18 C212 18 91 126 91 304 L91 304 Z " />
<glyph glyph-name="oe" unicode="&#x153;" horiz-adv-x="984" d="M925 229 C927 235 930 265 930 276 C930 397 855 470 747 470 C644 470 554 404 517 300 L515 300 C498 403 421 470 313 470 C165 470 57 346 57 198 C57 74 141 -12 263 -12 C370 -12 461 54 499 155 L501 155 C515 50 591 -12 696 -12 C787 -12 867 35 906 113 L888 113 C847 43 775 5 695 5 C588 5 516 75 516 194 C516 206 517 218 518 229 L925 229 Z M262 5 C152 5 75 81 75 199 C75 340 178 453 314 453 C424 453 501 376 501 259 C501 118 398 5 262 5 L262 5 Z M747 453 C848 453 911 389 911 275 C911 269 910 259 910 246 L520 246 C540 364 626 453 747 453 L747 453 Z " />
<glyph glyph-name="Racute" unicode="&#x154;" horiz-adv-x="640" d="M434 923 L409 923 L322 775 L341 775 L434 923 Z M587 520 C587 628 509 700 360 700 L160 700 L86 0 L105 0 L136 290 L316 290 L335 290 L520 0 L541 0 L355 292 C491 305 587 386 587 520 L587 520 Z M138 308 L177 682 L358 682 C501 682 568 617 568 520 C568 385 467 308 318 308 L138 308 Z " />
<glyph glyph-name="racute" unicode="&#x155;" horiz-adv-x="346" d="M300 677 L277 677 L195 537 L213 537 L300 677 Z M285 466 C219 466 155 425 126 352 L125 352 L135 458 L118 458 L70 0 L88 0 L115 255 C129 386 206 449 284 449 C301 449 318 446 332 441 L334 458 C320 463 303 466 285 466 L285 466 Z " />
<glyph glyph-name="uni0156" unicode="&#x156;" horiz-adv-x="640" d="M587 520 C587 628 509 700 360 700 L160 700 L86 0 L105 0 L136 290 L316 290 L335 290 L520 0 L541 0 L355 292 C491 305 587 386 587 520 L587 520 Z M138 308 L177 682 L358 682 C501 682 568 617 568 520 C568 385 467 308 318 308 L138 308 Z M284 -92 C269 -92 254 -106 254 -123 C254 -138 265 -148 280 -148 C285 -148 291 -147 296 -143 C294 -163 277 -193 255 -213 L274 -213 C296 -191 313 -161 313 -130 C313 -105 301 -92 284 -92 L284 -92 Z " />
<glyph glyph-name="uni0157" unicode="&#x157;" horiz-adv-x="346" d="M285 466 C219 466 155 425 126 352 L125 352 L135 458 L118 458 L70 0 L88 0 L115 255 C129 386 206 449 284 449 C301 449 318 446 332 441 L334 458 C320 463 303 466 285 466 L285 466 Z M66 -92 C51 -92 36 -106 36 -123 C36 -138 47 -148 62 -148 C67 -148 73 -147 78 -143 C76 -163 59 -193 37 -213 L56 -213 C78 -191 95 -161 95 -130 C95 -105 83 -92 66 -92 L66 -92 Z " />
<glyph glyph-name="Rcaron" unicode="&#x158;" horiz-adv-x="640" d="M368 782 L509 930 L486 930 L358 794 L258 930 L237 930 L348 782 L368 782 Z M587 520 C587 628 509 700 360 700 L160 700 L86 0 L105 0 L136 290 L316 290 L335 290 L520 0 L541 0 L355 292 C491 305 587 386 587 520 L587 520 Z M138 308 L177 682 L358 682 C501 682 568 617 568 520 C568 385 467 308 318 308 L138 308 Z " />
<glyph glyph-name="rcaron" unicode="&#x159;" horiz-adv-x="346" d="M237 544 L358 684 L337 684 L229 557 L147 684 L128 684 L219 544 L237 544 Z M126 352 L125 352 L135 458 L118 458 L70 0 L88 0 L115 255 C129 386 206 449 284 449 C301 449 318 446 332 441 L334 458 C320 463 303 466 285 466 C219 466 155 425 126 352 L126 352 Z " />
<glyph glyph-name="Sacute" unicode="&#x15a;" horiz-adv-x="582" d="M310 775 L329 775 L422 923 L397 923 L310 775 Z M275 -12 C408 -12 520 78 520 206 C520 282 467 326 346 354 L291 367 C161 398 119 435 119 504 C119 617 220 694 337 694 C450 694 523 631 526 521 L545 521 C544 636 459 712 338 712 C211 712 100 626 100 504 C100 428 151 382 270 354 L326 341 C456 311 501 274 501 205 C501 91 401 6 276 6 C156 6 75 76 72 196 L53 196 C54 66 147 -12 275 -12 L275 -12 Z " />
<glyph glyph-name="sacute" unicode="&#x15b;" horiz-adv-x="439" d="M220 537 L238 537 L325 677 L302 677 L220 537 Z M201 -12 C298 -12 377 47 377 135 C377 186 341 219 247 238 L203 247 C119 264 91 288 91 331 C91 404 160 453 247 453 C325 453 368 417 375 345 L393 345 C389 425 331 470 246 470 C154 470 73 413 73 331 C73 279 109 248 192 231 L236 222 C329 203 359 179 359 133 C359 58 291 5 200 5 C118 5 66 45 61 124 L43 124 C47 34 111 -12 201 -12 L201 -12 Z " />
<glyph glyph-name="Scircumflex" unicode="&#x15c;" horiz-adv-x="582" d="M361 918 L461 782 L482 782 L371 930 L351 930 L210 782 L233 782 L361 918 Z M337 694 C450 694 523 631 526 521 L545 521 C544 636 459 712 338 712 C211 712 100 626 100 504 C100 428 151 382 270 354 L326 341 C456 311 501 274 501 205 C501 91 401 6 276 6 C156 6 75 76 72 196 L53 196 C54 66 147 -12 275 -12 C408 -12 520 78 520 206 C520 282 467 326 346 354 L291 367 C161 398 119 435 119 504 C119 617 220 694 337 694 L337 694 Z " />
<glyph glyph-name="scircumflex" unicode="&#x15d;" horiz-adv-x="439" d="M267 672 L362 544 L381 544 L277 684 L259 684 L125 544 L146 544 L267 672 Z M247 238 L203 247 C119 264 91 288 91 331 C91 404 160 453 247 453 C325 453 368 417 375 345 L393 345 C389 425 331 470 246 470 C154 470 73 413 73 331 C73 279 109 248 192 231 L236 222 C329 203 359 179 359 133 C359 58 291 5 200 5 C118 5 66 45 61 124 L43 124 C47 34 111 -12 201 -12 C298 -12 377 47 377 135 C377 186 341 219 247 238 L247 238 Z " />
<glyph glyph-name="Scedilla" unicode="&#x15e;" horiz-adv-x="582" d="M337 694 C450 694 523 631 526 521 L545 521 C544 636 459 712 338 712 C211 712 100 626 100 504 C100 428 151 382 270 354 L326 341 C456 311 501 274 501 205 C501 91 401 6 276 6 C156 6 75 76 72 196 L53 196 C54 73 137 -3 253 -11 L235 -92 C298 -91 318 -105 318 -131 C318 -169 294 -189 247 -189 C236 -189 225 -188 218 -187 L216 -204 C225 -205 237 -206 248 -206 C303 -206 337 -178 337 -130 C337 -96 308 -78 255 -77 L270 -12 L275 -12 C408 -12 520 78 520 206 C520 282 467 326 346 354 L291 367 C161 398 119 435 119 504 C119 617 220 694 337 694 L337 694 Z " />
<glyph glyph-name="scedilla" unicode="&#x15f;" horiz-adv-x="439" d="M247 238 L203 247 C119 264 91 288 91 331 C91 404 160 453 247 453 C325 453 368 417 375 345 L393 345 C389 425 331 470 246 470 C154 470 73 413 73 331 C73 279 109 248 192 231 L236 222 C329 203 359 179 359 133 C359 58 291 5 200 5 C118 5 66 45 61 124 L43 124 C47 40 103 -6 184 -11 L166 -92 C231 -91 249 -105 249 -130 C249 -169 225 -189 178 -189 C167 -189 156 -188 149 -187 L147 -204 C156 -205 168 -206 179 -206 C233 -206 268 -177 268 -130 C268 -95 241 -78 186 -77 L201 -12 C298 -12 377 47 377 135 C377 186 341 219 247 238 L247 238 Z " />
<glyph glyph-name="Scaron" unicode="&#x160;" horiz-adv-x="582" d="M356 782 L497 930 L474 930 L346 794 L246 930 L225 930 L336 782 L356 782 Z M337 694 C450 694 523 631 526 521 L545 521 C544 636 459 712 338 712 C211 712 100 626 100 504 C100 428 151 382 270 354 L326 341 C456 311 501 274 501 205 C501 91 401 6 276 6 C156 6 75 76 72 196 L53 196 C54 66 147 -12 275 -12 C408 -12 520 78 520 206 C520 282 467 326 346 354 L291 367 C161 398 119 435 119 504 C119 617 220 694 337 694 L337 694 Z " />
<glyph glyph-name="scaron" unicode="&#x161;" horiz-adv-x="439" d="M262 544 L396 684 L375 684 L254 556 L159 684 L140 684 L244 544 L262 544 Z M247 453 C325 453 368 417 375 345 L393 345 C389 425 331 470 246 470 C154 470 73 413 73 331 C73 279 109 248 192 231 L236 222 C329 203 359 179 359 133 C359 58 291 5 200 5 C118 5 66 45 61 124 L43 124 C47 34 111 -12 201 -12 C298 -12 377 47 377 135 C377 186 341 219 247 238 L203 247 C119 264 91 288 91 331 C91 404 160 453 247 453 L247 453 Z " />
<glyph glyph-name="uni0162" unicode="&#x162;" horiz-adv-x="563" d="M588 700 L75 700 L73 682 L320 682 L248 0 L267 0 L339 682 L586 682 L588 700 Z M244 -92 C229 -92 214 -106 214 -123 C214 -138 225 -148 240 -148 C245 -148 251 -147 256 -143 C254 -163 237 -193 215 -213 L234 -213 C256 -191 273 -161 273 -130 C273 -105 261 -92 244 -92 L244 -92 Z " />
<glyph glyph-name="uni0163" unicode="&#x163;" horiz-adv-x="335" d="M161 441 L314 441 L316 458 L163 458 L176 580 L158 580 L145 458 L42 458 L40 441 L143 441 L111 138 C110 125 109 114 109 103 C109 19 147 -12 224 -12 C243 -12 261 -10 275 -7 L277 10 C262 7 243 5 225 5 C150 5 119 40 129 138 L161 441 Z M160 -92 C145 -92 130 -106 130 -123 C130 -138 141 -148 156 -148 C161 -148 167 -147 172 -143 C170 -163 153 -193 131 -213 L150 -213 C172 -191 189 -161 189 -130 C189 -105 177 -92 160 -92 L160 -92 Z " />
<glyph glyph-name="Tcaron" unicode="&#x164;" horiz-adv-x="563" d="M351 782 L492 930 L469 930 L341 794 L241 930 L220 930 L331 782 L351 782 Z M588 700 L75 700 L73 682 L320 682 L248 0 L267 0 L339 682 L586 682 L588 700 Z " />
<glyph glyph-name="tcaron" unicode="&#x165;" horiz-adv-x="335" d="M296 634 C301 634 307 635 312 639 C310 619 293 589 271 569 L290 569 C312 591 329 621 329 652 C329 677 317 690 300 690 C285 690 270 676 270 659 C270 644 281 634 296 634 L296 634 Z M176 580 L158 580 L145 458 L42 458 L40 441 L143 441 L111 138 C110 125 109 114 109 103 C109 19 147 -12 224 -12 C243 -12 261 -10 275 -7 L277 10 C262 7 243 5 225 5 C150 5 119 40 129 138 L161 441 L314 441 L316 458 L163 458 L176 580 Z " />
<glyph glyph-name="Tbar" unicode="&#x166;" horiz-adv-x="563" d="M586 682 L588 700 L75 700 L73 682 L320 682 L281 315 L125 315 L124 299 L279 299 L248 0 L267 0 L298 299 L456 299 L457 315 L300 315 L339 682 L586 682 Z " />
<glyph glyph-name="tbar" unicode="&#x167;" horiz-adv-x="347" d="M320 441 L322 458 L169 458 L182 580 L164 580 L151 458 L48 458 L46 441 L149 441 L128 237 L25 237 L23 221 L126 221 L117 138 C116 125 115 114 115 103 C115 19 153 -12 230 -12 C249 -12 267 -10 281 -7 L283 10 C268 7 249 5 231 5 C156 5 125 40 135 138 L144 221 L297 221 L299 237 L146 237 L167 441 L320 441 Z " />
<glyph glyph-name="Utilde" unicode="&#x168;" horiz-adv-x="692" d="M479 790 C520 790 555 825 563 903 L545 903 C538 835 513 807 480 807 C459 807 445 819 419 859 C393 901 373 917 346 917 C305 917 269 882 261 804 L279 804 C286 872 311 900 344 900 C366 900 381 888 407 848 C434 807 451 790 479 790 L479 790 Z M321 -12 C473 -12 577 87 596 263 L642 700 L623 700 L577 263 C559 93 460 6 322 6 C197 6 120 77 120 217 C120 232 121 247 123 263 L169 700 L150 700 L104 263 C102 247 101 231 101 216 C101 69 183 -12 321 -12 L321 -12 Z " />
<glyph glyph-name="utilde" unicode="&#x169;" horiz-adv-x="550" d="M251 655 C272 655 286 644 310 606 C335 567 353 552 378 552 C417 552 450 585 458 658 L441 658 C434 594 411 568 380 568 C360 568 346 579 322 617 C297 656 278 671 252 671 C213 671 180 638 172 565 L189 565 C196 629 220 655 251 655 L251 655 Z M462 458 L434 193 C422 73 336 5 234 5 C151 5 100 51 100 142 C100 152 101 162 102 173 L132 458 L114 458 L84 173 C83 162 82 152 82 142 C82 42 137 -12 231 -12 C314 -12 387 30 424 104 L425 104 L415 0 L432 0 L480 458 L462 458 Z " />
<glyph glyph-name="Umacron" unicode="&#x16a;" horiz-adv-x="692" d="M276 831 L544 831 L546 850 L278 850 L276 831 Z M321 -12 C473 -12 577 87 596 263 L642 700 L623 700 L577 263 C559 93 460 6 322 6 C197 6 120 77 120 217 C120 232 121 247 123 263 L169 700 L150 700 L104 263 C102 247 101 231 101 216 C101 69 183 -12 321 -12 L321 -12 Z " />
<glyph glyph-name="umacron" unicode="&#x16b;" horiz-adv-x="550" d="M441 607 L189 607 L187 590 L439 590 L441 607 Z M462 458 L434 193 C422 73 336 5 234 5 C151 5 100 51 100 142 C100 152 101 162 102 173 L132 458 L114 458 L84 173 C83 162 82 152 82 142 C82 42 137 -12 231 -12 C314 -12 387 30 424 104 L425 104 L415 0 L432 0 L480 458 L462 458 Z " />
<glyph glyph-name="Ubreve" unicode="&#x16c;" horiz-adv-x="692" d="M405 784 C486 784 532 826 542 918 L523 918 C514 834 476 801 406 801 C342 801 311 827 311 891 C311 899 312 908 313 918 L296 918 C295 907 294 898 294 889 C294 817 331 784 405 784 L405 784 Z M321 -12 C473 -12 577 87 596 263 L642 700 L623 700 L577 263 C559 93 460 6 322 6 C197 6 120 77 120 217 C120 232 121 247 123 263 L169 700 L150 700 L104 263 C102 247 101 231 101 216 C101 69 183 -12 321 -12 L321 -12 Z " />
<glyph glyph-name="ubreve" unicode="&#x16d;" horiz-adv-x="550" d="M308 546 C382 546 428 583 437 672 L420 672 C411 593 376 562 309 562 C249 562 220 586 220 645 C220 654 221 662 222 672 L205 672 C204 656 204 658 204 646 C204 578 240 546 308 546 L308 546 Z M462 458 L434 193 C422 73 336 5 234 5 C151 5 100 51 100 142 C100 152 101 162 102 173 L132 458 L114 458 L84 173 C83 162 82 152 82 142 C82 42 137 -12 231 -12 C314 -12 387 30 424 104 L425 104 L415 0 L432 0 L480 458 L462 458 Z " />
<glyph glyph-name="Uring" unicode="&#x16e;" horiz-adv-x="692" d="M404 771 C453 771 501 811 501 866 C501 909 468 943 422 943 C373 943 325 903 325 848 C325 805 358 771 404 771 L404 771 Z M404 788 C366 788 342 813 342 847 C342 887 373 926 421 926 C459 926 483 900 483 865 C483 822 447 788 404 788 L404 788 Z M321 -12 C473 -12 577 87 596 263 L642 700 L623 700 L577 263 C559 93 460 6 322 6 C197 6 120 77 120 217 C120 232 121 247 123 263 L169 700 L150 700 L104 263 C102 247 101 231 101 216 C101 69 183 -12 321 -12 L321 -12 Z " />
<glyph glyph-name="uring" unicode="&#x16f;" horiz-adv-x="550" d="M307 534 C355 534 399 575 399 622 C399 663 367 696 324 696 C273 696 232 652 232 606 C232 566 264 534 307 534 L307 534 Z M323 680 C362 680 382 655 382 621 C382 581 348 550 308 550 C272 550 250 574 250 607 C250 650 282 680 323 680 L323 680 Z M462 458 L434 193 C422 73 336 5 234 5 C151 5 100 51 100 142 C100 152 101 162 102 173 L132 458 L114 458 L84 173 C83 162 82 152 82 142 C82 42 137 -12 231 -12 C314 -12 387 30 424 104 L425 104 L415 0 L432 0 L480 458 L462 458 Z " />
<glyph glyph-name="Uhungarumlaut" unicode="&#x170;" horiz-adv-x="692" d="M302 782 L320 782 L408 930 L386 930 L302 782 Z M455 782 L473 782 L561 930 L539 930 L455 782 Z M321 -12 C473 -12 577 87 596 263 L642 700 L623 700 L577 263 C559 93 460 6 322 6 C197 6 120 77 120 217 C120 232 121 247 123 263 L169 700 L150 700 L104 263 C102 247 101 231 101 216 C101 69 183 -12 321 -12 L321 -12 Z " />
<glyph glyph-name="uhungarumlaut" unicode="&#x171;" horiz-adv-x="550" d="M313 684 L292 684 L212 544 L229 544 L313 684 Z M457 684 L436 684 L356 544 L373 544 L457 684 Z M462 458 L434 193 C422 73 336 5 234 5 C151 5 100 51 100 142 C100 152 101 162 102 173 L132 458 L114 458 L84 173 C83 162 82 152 82 142 C82 42 137 -12 231 -12 C314 -12 387 30 424 104 L425 104 L415 0 L432 0 L480 458 L462 458 Z " />
<glyph glyph-name="Uogonek" unicode="&#x172;" horiz-adv-x="692" d="M623 700 L577 263 C559 93 460 6 322 6 C197 6 120 77 120 217 C120 232 121 247 123 263 L169 700 L150 700 L104 263 C102 247 101 231 101 216 C101 69 183 -12 321 -12 C337 -12 353 -11 368 -9 C318 -37 277 -81 277 -132 C277 -178 311 -205 373 -205 C377 -205 382 -205 388 -204 L390 -187 C384 -188 379 -188 375 -188 C322 -188 294 -168 294 -132 C294 -76 349 -32 409 1 C513 33 581 124 596 263 L642 700 L623 700 Z " />
<glyph glyph-name="uogonek" unicode="&#x173;" horiz-adv-x="550" d="M432 0 L480 458 L462 458 L434 193 C422 73 336 5 234 5 C151 5 100 51 100 142 C100 152 101 162 102 173 L132 458 L114 458 L84 173 C83 162 82 152 82 142 C82 42 137 -12 231 -12 C314 -12 387 30 424 104 L425 104 L415 3 C359 -23 306 -67 306 -126 C306 -169 339 -194 397 -194 C401 -194 406 -194 412 -193 L413 -177 C407 -178 402 -178 398 -178 C349 -178 323 -159 323 -125 C323 -71 373 -31 432 0 L432 0 Z " />
<glyph glyph-name="Wcircumflex" unicode="&#x174;" horiz-adv-x="965" d="M557 918 L657 782 L678 782 L567 930 L547 930 L406 782 L429 782 L557 918 Z M954 700 L683 45 L682 45 L539 700 L526 700 L245 45 L244 45 L110 700 L91 700 L234 0 L246 0 L528 658 L529 658 L673 0 L684 0 L974 700 L954 700 Z " />
<glyph glyph-name="wcircumflex" unicode="&#x175;" horiz-adv-x="743" d="M419 672 L514 544 L533 544 L429 684 L411 684 L277 544 L298 544 L419 672 Z M718 458 L523 35 L522 35 L403 458 L389 458 L181 35 L180 35 L73 458 L54 458 L170 0 L183 0 L393 426 L394 426 L513 0 L525 0 L737 458 L718 458 Z " />
<glyph glyph-name="Ycircumflex" unicode="&#x176;" horiz-adv-x="589" d="M369 918 L469 782 L490 782 L379 930 L359 930 L218 782 L241 782 L369 918 Z M600 700 L302 309 L301 309 L87 700 L66 700 L291 289 L261 0 L280 0 L310 289 L623 700 L600 700 Z " />
<glyph glyph-name="ycircumflex" unicode="&#x177;" horiz-adv-x="478" d="M286 672 L381 544 L400 544 L296 684 L278 684 L144 544 L165 544 L286 672 Z M458 458 L217 30 L216 30 L67 458 L48 458 L205 9 L75 -224 L95 -224 L478 458 L458 458 Z " />
<glyph glyph-name="Ydieresis" unicode="&#x178;" horiz-adv-x="589" d="M259 815 C276 815 292 829 292 848 C292 863 280 875 265 875 C247 875 233 859 233 843 C233 827 245 815 259 815 L259 815 Z M454 815 C471 815 487 829 487 848 C487 863 475 875 460 875 C442 875 428 859 428 843 C428 827 440 815 454 815 L454 815 Z M261 0 L280 0 L310 289 L623 700 L600 700 L302 309 L301 309 L87 700 L66 700 L291 289 L261 0 Z " />
<glyph glyph-name="Zacute" unicode="&#x179;" horiz-adv-x="562" d="M416 923 L391 923 L304 775 L323 775 L416 923 Z M550 700 L112 700 L110 682 L523 682 L33 14 L32 0 L482 0 L484 18 L59 18 L548 686 L550 700 Z " />
<glyph glyph-name="zacute" unicode="&#x17a;" horiz-adv-x="439" d="M325 677 L302 677 L220 537 L238 537 L325 677 Z M413 458 L74 458 L72 441 L387 441 L24 15 L22 0 L369 0 L371 17 L48 17 L411 443 L413 458 Z " />
<glyph glyph-name="Zdotaccent" unicode="&#x17b;" horiz-adv-x="562" d="M343 815 C360 815 376 829 376 848 C376 863 364 875 349 875 C331 875 316 859 316 843 C316 827 329 815 343 815 L343 815 Z M550 700 L112 700 L110 682 L523 682 L33 14 L32 0 L482 0 L484 18 L59 18 L548 686 L550 700 Z " />
<glyph glyph-name="zdotaccent" unicode="&#x17c;" horiz-adv-x="439" d="M256 575 C272 575 287 587 287 606 C287 620 276 631 262 631 C245 631 231 616 231 601 C231 586 242 575 256 575 L256 575 Z M413 458 L74 458 L72 441 L387 441 L24 15 L22 0 L369 0 L371 17 L48 17 L411 443 L413 458 Z " />
<glyph glyph-name="Zcaron" unicode="&#x17d;" horiz-adv-x="562" d="M350 782 L491 930 L468 930 L340 794 L240 930 L219 930 L330 782 L350 782 Z M550 700 L112 700 L110 682 L523 682 L33 14 L32 0 L482 0 L484 18 L59 18 L548 686 L550 700 Z " />
<glyph glyph-name="zcaron" unicode="&#x17e;" horiz-adv-x="439" d="M262 544 L396 684 L375 684 L254 556 L159 684 L140 684 L244 544 L262 544 Z M413 458 L74 458 L72 441 L387 441 L24 15 L22 0 L369 0 L371 17 L48 17 L411 443 L413 458 Z " />
<glyph glyph-name="florin" unicode="&#x192;" horiz-adv-x="477" d="M463 712 C388 712 337 673 309 579 L256 400 L104 400 L102 383 L251 383 L174 121 C149 37 104 5 41 5 C30 5 20 6 9 8 L7 -9 C18 -11 28 -12 40 -12 C115 -12 165 27 193 121 L270 383 L449 383 L451 400 L275 400 L328 579 C353 663 396 695 461 695 C472 695 483 694 494 692 L495 709 C485 711 475 712 463 712 L463 712 Z " />
<glyph glyph-name="uni01CD" unicode="&#x1cd;" horiz-adv-x="619" d="M379 782 L520 930 L497 930 L369 794 L269 930 L248 930 L359 782 L379 782 Z M547 0 L565 0 L366 700 L353 700 L6 0 L26 0 L133 215 L486 215 L547 0 Z M141 233 L356 666 L357 666 L481 233 L141 233 Z " />
<glyph glyph-name="uni01CE" unicode="&#x1ce;" horiz-adv-x="596" d="M337 544 L471 684 L450 684 L329 556 L234 684 L215 684 L319 544 L337 544 Z M509 458 L494 330 C467 420 392 470 306 470 C164 470 57 348 57 197 C57 72 140 -12 256 -12 C344 -12 427 38 472 128 L474 128 L461 0 L478 0 L526 458 L509 458 Z M256 5 C152 5 75 80 75 199 C75 336 173 453 305 453 C409 453 487 378 487 259 C487 121 388 5 256 5 L256 5 Z " />
<glyph glyph-name="uni01E2" unicode="&#x1e2;" horiz-adv-x="1015" d="M904 850 L636 850 L634 831 L902 831 L904 850 Z M985 682 L987 700 L573 700 L1 0 L25 0 L209 225 L537 225 L513 0 L913 0 L915 18 L534 18 L569 346 L924 346 L926 364 L571 364 L604 682 L985 682 Z M223 243 L582 682 L585 682 L539 243 L223 243 Z " />
<glyph glyph-name="uni01E3" unicode="&#x1e3;" horiz-adv-x="898" d="M622 607 L370 607 L368 590 L620 590 L622 607 Z M839 229 C841 236 844 265 844 277 C844 397 769 470 667 470 C578 470 494 415 452 325 L451 325 C450 418 392 470 298 470 C198 470 121 417 100 328 L118 328 C140 410 206 453 297 453 C394 453 443 399 432 299 L427 246 L265 246 C150 246 60 202 60 100 C60 32 111 -12 201 -12 C310 -12 400 52 426 144 L427 144 C445 46 516 -12 615 -12 C702 -12 782 36 821 118 L803 118 C765 47 691 5 614 5 C512 5 441 75 441 194 C441 206 442 218 443 229 L839 229 Z M667 453 C771 453 835 379 824 246 L445 246 C465 362 550 453 667 453 L667 453 Z M202 5 C119 5 78 43 78 101 C78 190 155 229 263 229 L425 229 L421 192 C409 78 315 5 202 5 L202 5 Z " />
<glyph glyph-name="Gcaron" unicode="&#x1e6;" horiz-adv-x="783" d="M467 782 L608 930 L585 930 L457 794 L357 930 L336 930 L447 782 L467 782 Z M425 309 L693 309 C668 117 535 6 373 6 C211 6 89 116 89 302 C89 519 238 694 448 694 C592 694 701 612 711 484 L730 484 C720 618 603 712 449 712 C232 712 70 530 70 302 C70 111 195 -12 373 -12 C510 -12 627 64 678 192 L680 192 L661 0 L679 0 L713 327 L427 327 L425 309 Z " />
<glyph glyph-name="gcaron" unicode="&#x1e7;" horiz-adv-x="597" d="M348 544 L482 684 L461 684 L340 556 L245 684 L226 684 L330 544 L348 544 Z M510 458 L495 330 C468 420 396 470 309 470 C166 470 60 346 60 200 C60 76 143 -8 259 -8 C347 -8 428 42 474 132 L475 132 L459 -19 C445 -147 362 -219 234 -219 C132 -219 67 -175 54 -90 L36 -90 C47 -184 120 -236 234 -236 C372 -236 462 -158 477 -19 L527 458 L510 458 Z M258 9 C155 9 78 84 78 201 C78 338 177 453 309 453 C412 453 488 378 488 261 C488 125 389 9 258 9 L258 9 Z " />
<glyph glyph-name="uni01E8" unicode="&#x1e8;" horiz-adv-x="593" d="M382 782 L523 930 L500 930 L372 794 L272 930 L251 930 L362 782 L382 782 Z M596 700 L568 700 L143 356 L142 356 L179 700 L160 700 L86 0 L105 0 L141 343 L142 343 L503 0 L529 0 L162 349 L596 700 Z " />
<glyph glyph-name="uni01E9" unicode="&#x1e9;" horiz-adv-x="455" d="M172 786 L306 926 L285 926 L164 798 L69 926 L50 926 L154 786 L172 786 Z M440 458 L410 458 L115 247 L114 247 L162 700 L144 700 L70 0 L88 0 L113 236 L114 236 L373 0 L400 0 L136 241 L440 458 Z " />
<glyph glyph-name="AEacute" unicode="&#x1fc;" horiz-adv-x="1015" d="M839 923 L814 923 L727 775 L746 775 L839 923 Z M985 682 L987 700 L573 700 L1 0 L25 0 L209 225 L537 225 L513 0 L913 0 L915 18 L534 18 L569 346 L924 346 L926 364 L571 364 L604 682 L985 682 Z M223 243 L582 682 L585 682 L539 243 L223 243 Z " />
<glyph glyph-name="aeacute" unicode="&#x1fd;" horiz-adv-x="898" d="M561 677 L538 677 L456 537 L474 537 L561 677 Z M839 229 C841 236 844 265 844 277 C844 397 769 470 667 470 C578 470 494 415 452 325 L451 325 C450 418 392 470 298 470 C198 470 121 417 100 328 L118 328 C140 410 206 453 297 453 C394 453 443 399 432 299 L427 246 L265 246 C150 246 60 202 60 100 C60 32 111 -12 201 -12 C310 -12 400 52 426 144 L427 144 C445 46 516 -12 615 -12 C702 -12 782 36 821 118 L803 118 C765 47 691 5 614 5 C512 5 441 75 441 194 C441 206 442 218 443 229 L839 229 Z M667 453 C771 453 835 379 824 246 L445 246 C465 362 550 453 667 453 L667 453 Z M202 5 C119 5 78 43 78 101 C78 190 155 229 263 229 L425 229 L421 192 C409 78 315 5 202 5 L202 5 Z " />
<glyph glyph-name="Oslashacute" unicode="&#x1fe;" horiz-adv-x="801" d="M536 923 L511 923 L424 775 L443 775 L536 923 Z M788 677 L777 690 L685 607 C632 673 550 712 452 712 C238 712 74 529 74 302 C74 225 95 159 132 107 L38 22 L49 9 L142 93 C195 27 277 -12 376 -12 C590 -12 754 171 754 396 C754 473 733 541 696 593 L788 677 Z M453 694 C545 694 623 658 673 595 L145 119 C112 167 93 229 93 302 C93 519 243 694 453 694 L453 694 Z M375 6 C283 6 205 42 155 105 L683 581 C716 533 735 471 735 398 C735 181 585 6 375 6 L375 6 Z " />
<glyph glyph-name="oslashacute" unicode="&#x1ff;" horiz-adv-x="579" d="M393 677 L370 677 L288 537 L306 537 L393 677 Z M553 457 L543 469 L471 404 C435 445 380 470 315 470 C167 470 59 346 59 198 C59 147 73 102 99 67 L26 1 L36 -11 L108 55 C145 13 199 -12 265 -12 C413 -12 521 112 521 260 C521 312 506 357 481 392 L553 457 Z M315 453 C374 453 425 431 458 392 L112 79 C90 110 77 151 77 199 C77 339 178 453 315 453 L315 453 Z M265 5 C205 5 155 27 121 67 L467 380 C490 348 503 307 503 259 C503 119 402 5 265 5 L265 5 Z " />
<glyph glyph-name="uni0218" unicode="&#x218;" horiz-adv-x="582" d="M337 694 C450 694 523 631 526 521 L545 521 C544 636 459 712 338 712 C211 712 100 626 100 504 C100 428 151 382 270 354 L326 341 C456 311 501 274 501 205 C501 91 401 6 276 6 C156 6 75 76 72 196 L53 196 C54 66 147 -12 275 -12 C408 -12 520 78 520 206 C520 282 467 326 346 354 L291 367 C161 398 119 435 119 504 C119 617 220 694 337 694 L337 694 Z M251 -92 C236 -92 221 -106 221 -123 C221 -138 232 -148 247 -148 C252 -148 258 -147 263 -143 C261 -163 244 -193 222 -213 L241 -213 C263 -191 280 -161 280 -130 C280 -105 268 -92 251 -92 L251 -92 Z " />
<glyph glyph-name="uni0219" unicode="&#x219;" horiz-adv-x="439" d="M247 238 L203 247 C119 264 91 288 91 331 C91 404 160 453 247 453 C325 453 368 417 375 345 L393 345 C389 425 331 470 246 470 C154 470 73 413 73 331 C73 279 109 248 192 231 L236 222 C329 203 359 179 359 133 C359 58 291 5 200 5 C118 5 66 45 61 124 L43 124 C47 34 111 -12 201 -12 C298 -12 377 47 377 135 C377 186 341 219 247 238 L247 238 Z M182 -92 C167 -92 152 -106 152 -123 C152 -138 163 -148 178 -148 C183 -148 189 -147 194 -143 C192 -163 175 -193 153 -213 L172 -213 C194 -191 211 -161 211 -130 C211 -105 199 -92 182 -92 L182 -92 Z " />
<glyph glyph-name="uni021A" unicode="&#x21a;" horiz-adv-x="563" d="M588 700 L75 700 L73 682 L320 682 L248 0 L267 0 L339 682 L586 682 L588 700 Z M244 -92 C229 -92 214 -106 214 -123 C214 -138 225 -148 240 -148 C245 -148 251 -147 256 -143 C254 -163 237 -193 215 -213 L234 -213 C256 -191 273 -161 273 -130 C273 -105 261 -92 244 -92 L244 -92 Z " />
<glyph glyph-name="uni021B" unicode="&#x21b;" horiz-adv-x="335" d="M161 441 L314 441 L316 458 L163 458 L176 580 L158 580 L145 458 L42 458 L40 441 L143 441 L111 138 C110 125 109 114 109 103 C109 19 147 -12 224 -12 C243 -12 261 -10 275 -7 L277 10 C262 7 243 5 225 5 C150 5 119 40 129 138 L161 441 Z M160 -92 C145 -92 130 -106 130 -123 C130 -138 141 -148 156 -148 C161 -148 167 -147 172 -143 C170 -163 153 -193 131 -213 L150 -213 C172 -191 189 -161 189 -130 C189 -105 177 -92 160 -92 L160 -92 Z " />
<glyph glyph-name="uni0237" unicode="&#x237;" horiz-adv-x="206" d="M-30 -236 C33 -236 67 -203 75 -121 L136 458 L118 458 L57 -119 C50 -192 24 -219 -28 -219 C-38 -219 -51 -218 -66 -215 L-67 -231 C-58 -234 -44 -236 -30 -236 L-30 -236 Z " />
<glyph glyph-name="circumflex" unicode="&#x2c6;" horiz-adv-x="600" d="M461 544 L357 684 L339 684 L205 544 L226 544 L347 672 L442 544 L461 544 Z " />
<glyph glyph-name="caron" unicode="&#x2c7;" horiz-adv-x="600" d="M455 684 L334 556 L239 684 L220 684 L324 544 L342 544 L476 684 L455 684 Z " />
<glyph glyph-name="breve" unicode="&#x2d8;" horiz-adv-x="600" d="M333 546 C407 546 453 583 462 672 L445 672 C436 593 401 562 334 562 C274 562 245 586 245 645 C245 654 246 662 247 672 L230 672 C229 656 229 658 229 646 C229 578 265 546 333 546 L333 546 Z " />
<glyph glyph-name="dotaccent" unicode="&#x2d9;" horiz-adv-x="600" d="M336 575 C352 575 367 587 367 606 C367 620 356 631 342 631 C325 631 311 616 311 601 C311 586 322 575 336 575 L336 575 Z " />
<glyph glyph-name="ring" unicode="&#x2da;" horiz-adv-x="600" d="M332 534 C380 534 424 575 424 622 C424 663 392 696 349 696 C298 696 257 652 257 606 C257 566 289 534 332 534 L332 534 Z M333 550 C297 550 275 574 275 607 C275 650 307 680 348 680 C387 680 407 655 407 621 C407 581 373 550 333 550 L333 550 Z " />
<glyph glyph-name="ogonek" unicode="&#x2db;" horiz-adv-x="600" d="M298 -194 C302 -194 307 -194 313 -193 L314 -177 C308 -178 303 -178 299 -178 C250 -178 224 -159 224 -125 C224 -71 274 -31 333 0 L322 6 C264 -20 207 -65 207 -126 C207 -169 240 -194 298 -194 L298 -194 Z " />
<glyph glyph-name="tilde" unicode="&#x2dc;" horiz-adv-x="600" d="M403 552 C442 552 475 585 483 658 L466 658 C459 594 436 568 405 568 C385 568 371 579 347 617 C322 656 303 671 277 671 C238 671 205 638 197 565 L214 565 C221 629 245 655 276 655 C297 655 311 644 335 606 C360 567 378 552 403 552 L403 552 Z " />
<glyph glyph-name="hungarumlaut" unicode="&#x2dd;" horiz-adv-x="600" d="M238 544 L255 544 L339 684 L318 684 L238 544 Z M382 544 L399 544 L483 684 L462 684 L382 544 Z " />
<glyph glyph-name="gravecomb" unicode="&#x300;" d="M-264 537 L-247 537 L-299 677 L-321 677 L-264 537 Z " />
<glyph glyph-name="acutecomb" unicode="&#x301;" d="M-323 537 L-305 537 L-218 677 L-241 677 L-323 537 Z " />
<glyph glyph-name="uni0302" unicode="&#x302;" d="M-139 544 L-243 684 L-261 684 L-395 544 L-374 544 L-253 672 L-158 544 L-139 544 Z " />
<glyph glyph-name="tildecomb" unicode="&#x303;" d="M-197 552 C-158 552 -125 585 -117 658 L-134 658 C-141 594 -164 568 -195 568 C-215 568 -229 579 -253 617 C-278 656 -297 671 -323 671 C-362 671 -395 638 -403 565 L-386 565 C-379 629 -355 655 -324 655 C-303 655 -289 644 -265 606 C-240 567 -222 552 -197 552 L-197 552 Z " />
<glyph glyph-name="uni0304" unicode="&#x304;" d="M-388 590 L-136 590 L-134 607 L-386 607 L-388 590 Z " />
<glyph glyph-name="uni0306" unicode="&#x306;" d="M-267 546 C-193 546 -147 583 -138 672 L-155 672 C-164 593 -199 562 -266 562 C-326 562 -355 586 -355 645 C-355 654 -354 662 -353 672 L-370 672 C-371 656 -371 658 -371 646 C-371 578 -335 546 -267 546 L-267 546 Z " />
<glyph glyph-name="uni0307" unicode="&#x307;" d="M-264 575 C-248 575 -233 587 -233 606 C-233 620 -244 631 -258 631 C-275 631 -289 616 -289 601 C-289 586 -278 575 -264 575 L-264 575 Z " />
<glyph glyph-name="uni0308" unicode="&#x308;" d="M-356 575 C-340 575 -325 587 -325 606 C-325 620 -336 631 -350 631 C-368 631 -381 616 -381 601 C-381 586 -370 575 -356 575 L-356 575 Z M-172 575 C-156 575 -141 587 -141 606 C-141 620 -152 631 -166 631 C-184 631 -197 616 -197 601 C-197 586 -186 575 -172 575 L-172 575 Z " />
<glyph glyph-name="uni030A" unicode="&#x30a;" d="M-268 534 C-220 534 -176 575 -176 622 C-176 663 -208 696 -251 696 C-302 696 -343 652 -343 606 C-343 566 -311 534 -268 534 L-268 534 Z M-267 550 C-303 550 -325 574 -325 607 C-325 650 -293 680 -252 680 C-213 680 -193 655 -193 621 C-193 581 -227 550 -267 550 L-267 550 Z " />
<glyph glyph-name="uni030B" unicode="&#x30b;" d="M-362 544 L-345 544 L-261 684 L-282 684 L-362 544 Z M-218 544 L-201 544 L-117 684 L-138 684 L-218 544 Z " />
<glyph glyph-name="uni030C" unicode="&#x30c;" d="M-145 684 L-266 556 L-361 684 L-380 684 L-276 544 L-258 544 L-124 684 L-145 684 Z " />
<glyph glyph-name="uni0315" unicode="&#x315;" d="M-252 712 C-269 712 -282 698 -282 681 C-282 666 -271 656 -256 656 C-252 656 -247 657 -242 660 C-244 640 -260 611 -285 590 L-275 579 C-247 602 -223 635 -223 674 C-223 699 -235 712 -252 712 L-252 712 Z " />
<glyph glyph-name="uni0326" unicode="&#x326;" d="M-337 -92 C-352 -92 -367 -106 -367 -123 C-367 -138 -356 -148 -341 -148 C-336 -148 -330 -147 -325 -143 C-327 -163 -344 -193 -366 -213 L-347 -213 C-325 -191 -308 -161 -308 -130 C-308 -105 -320 -92 -337 -92 L-337 -92 Z " />
<glyph glyph-name="uni0327" unicode="&#x327;" d="M-363 -77 L-345 0 L-362 0 L-383 -92 C-318 -91 -300 -105 -300 -130 C-300 -169 -324 -189 -371 -189 C-382 -189 -393 -188 -400 -187 L-402 -204 C-393 -205 -381 -206 -370 -206 C-316 -206 -281 -177 -281 -130 C-281 -95 -308 -78 -363 -77 L-363 -77 Z " />
<glyph glyph-name="uni0328" unicode="&#x328;" d="M-302 -194 C-298 -194 -293 -194 -287 -193 L-286 -177 C-292 -178 -297 -178 -301 -178 C-350 -178 -376 -159 -376 -125 C-376 -71 -326 -31 -267 0 L-278 6 C-336 -20 -393 -65 -393 -126 C-393 -169 -360 -194 -302 -194 L-302 -194 Z " />
<glyph glyph-name="uni03BC" unicode="&#x3bc;" horiz-adv-x="554" d="M466 458 L438 193 C426 73 336 5 235 5 C145 5 94 61 106 173 L136 458 L118 458 L46 -224 L64 -224 L96 80 C112 22 161 -12 235 -12 C318 -12 391 30 428 104 L429 104 L419 0 L436 0 L484 458 L466 458 Z " />
<glyph glyph-name="pi" unicode="&#x3c0;" horiz-adv-x="564" d="M501 17 C445 17 418 44 424 108 L461 458 L118 458 L70 0 L88 0 L134 441 L441 441 L406 108 C398 33 433 0 499 0 L512 0 L514 17 L501 17 Z " />
<glyph glyph-name="uni1E20" unicode="&#x1e20;" horiz-adv-x="783" d="M598 850 L330 850 L328 831 L596 831 L598 850 Z M425 309 L693 309 C668 117 535 6 373 6 C211 6 89 116 89 302 C89 519 238 694 448 694 C592 694 701 612 711 484 L730 484 C720 618 603 712 449 712 C232 712 70 530 70 302 C70 111 195 -12 373 -12 C510 -12 627 64 678 192 L680 192 L661 0 L679 0 L713 327 L427 327 L425 309 Z " />
<glyph glyph-name="uni1E21" unicode="&#x1e21;" horiz-adv-x="597" d="M472 607 L220 607 L218 590 L470 590 L472 607 Z M510 458 L495 330 C468 420 396 470 309 470 C166 470 60 346 60 200 C60 76 143 -8 259 -8 C347 -8 428 42 474 132 L475 132 L459 -19 C445 -147 362 -219 234 -219 C132 -219 67 -175 54 -90 L36 -90 C47 -184 120 -236 234 -236 C372 -236 462 -158 477 -19 L527 458 L510 458 Z M258 9 C155 9 78 84 78 201 C78 338 177 453 309 453 C412 453 488 378 488 261 C488 125 389 9 258 9 L258 9 Z " />
<glyph glyph-name="uni1E30" unicode="&#x1e30;" horiz-adv-x="593" d="M448 923 L423 923 L336 775 L355 775 L448 923 Z M596 700 L568 700 L143 356 L142 356 L179 700 L160 700 L86 0 L105 0 L141 343 L142 343 L503 0 L529 0 L162 349 L596 700 Z " />
<glyph glyph-name="uni1E31" unicode="&#x1e31;" horiz-adv-x="455" d="M235 919 L212 919 L130 779 L148 779 L235 919 Z M440 458 L410 458 L115 247 L114 247 L162 700 L144 700 L70 0 L88 0 L113 236 L114 236 L373 0 L400 0 L136 241 L440 458 Z " />
<glyph glyph-name="uni1E3E" unicode="&#x1e3e;" horiz-adv-x="915" d="M593 923 L568 923 L481 775 L500 775 L593 923 Z M835 700 L436 31 L435 31 L178 700 L160 700 L86 0 L105 0 L174 655 L175 655 L428 0 L439 0 L830 655 L831 655 L762 0 L781 0 L855 700 L835 700 Z " />
<glyph glyph-name="uni1E3F" unicode="&#x1e3f;" horiz-adv-x="846" d="M528 677 L505 677 L423 537 L441 537 L528 677 Z M630 470 C553 470 478 424 440 341 L439 341 C433 425 384 470 308 470 C235 470 165 428 126 354 L125 354 L135 458 L118 458 L70 0 L88 0 L116 265 C128 385 217 453 307 453 C379 453 424 408 424 317 C424 306 423 295 422 283 L392 0 L410 0 L438 267 C450 385 539 453 629 453 C701 453 745 409 745 318 C745 306 744 294 743 281 L714 0 L732 0 L761 281 C762 293 763 305 763 317 C763 417 712 470 630 470 L630 470 Z " />
<glyph glyph-name="uni1E40" unicode="&#x1e40;" horiz-adv-x="915" d="M520 815 C537 815 553 829 553 848 C553 863 541 875 526 875 C508 875 493 859 493 843 C493 827 506 815 520 815 L520 815 Z M835 700 L436 31 L435 31 L178 700 L160 700 L86 0 L105 0 L174 655 L175 655 L428 0 L439 0 L830 655 L831 655 L762 0 L781 0 L855 700 L835 700 Z " />
<glyph glyph-name="uni1E41" unicode="&#x1e41;" horiz-adv-x="846" d="M459 575 C475 575 490 587 490 606 C490 620 479 631 465 631 C448 631 434 616 434 601 C434 586 445 575 459 575 L459 575 Z M630 470 C553 470 478 424 440 341 L439 341 C433 425 384 470 308 470 C235 470 165 428 126 354 L125 354 L135 458 L118 458 L70 0 L88 0 L116 265 C128 385 217 453 307 453 C379 453 424 408 424 317 C424 306 423 295 422 283 L392 0 L410 0 L438 267 C450 385 539 453 629 453 C701 453 745 409 745 318 C745 306 744 294 743 281 L714 0 L732 0 L761 281 C762 293 763 305 763 317 C763 417 712 470 630 470 L630 470 Z " />
<glyph glyph-name="uni1E44" unicode="&#x1e44;" horiz-adv-x="710" d="M417 815 C434 815 450 829 450 848 C450 863 438 875 423 875 C405 875 390 859 390 843 C390 827 403 815 417 815 L417 815 Z M631 700 L561 35 L560 35 L178 700 L160 700 L86 0 L105 0 L175 665 L176 665 L558 0 L576 0 L650 700 L631 700 Z " />
<glyph glyph-name="uni1E45" unicode="&#x1e45;" horiz-adv-x="554" d="M315 575 C331 575 346 587 346 606 C346 620 335 631 321 631 C304 631 290 616 290 601 C290 586 301 575 315 575 L315 575 Z M322 470 C237 470 165 428 126 354 L125 354 L135 458 L118 458 L70 0 L88 0 L116 265 C128 384 215 453 320 453 C405 453 453 408 453 316 C453 305 452 293 451 281 L422 0 L440 0 L469 281 C470 293 471 305 471 316 C471 417 418 470 322 470 L322 470 Z " />
<glyph glyph-name="Wgrave" unicode="&#x1e80;" horiz-adv-x="965" d="M550 775 L568 775 L513 923 L489 923 L550 775 Z M234 0 L246 0 L528 658 L529 658 L673 0 L684 0 L974 700 L954 700 L683 45 L682 45 L539 700 L526 700 L245 45 L244 45 L110 700 L91 700 L234 0 Z " />
<glyph glyph-name="wgrave" unicode="&#x1e81;" horiz-adv-x="743" d="M411 537 L428 537 L376 677 L354 677 L411 537 Z M170 0 L183 0 L393 426 L394 426 L513 0 L525 0 L737 458 L718 458 L523 35 L522 35 L403 458 L389 458 L181 35 L180 35 L73 458 L54 458 L170 0 Z " />
<glyph glyph-name="Wacute" unicode="&#x1e82;" horiz-adv-x="965" d="M506 775 L525 775 L618 923 L593 923 L506 775 Z M234 0 L246 0 L528 658 L529 658 L673 0 L684 0 L974 700 L954 700 L683 45 L682 45 L539 700 L526 700 L245 45 L244 45 L110 700 L91 700 L234 0 Z " />
<glyph glyph-name="wacute" unicode="&#x1e83;" horiz-adv-x="743" d="M372 537 L390 537 L477 677 L454 677 L372 537 Z M170 0 L183 0 L393 426 L394 426 L513 0 L525 0 L737 458 L718 458 L523 35 L522 35 L403 458 L389 458 L181 35 L180 35 L73 458 L54 458 L170 0 Z " />
<glyph glyph-name="Wdieresis" unicode="&#x1e84;" horiz-adv-x="965" d="M447 815 C464 815 480 829 480 848 C480 863 468 875 453 875 C435 875 421 859 421 843 C421 827 433 815 447 815 L447 815 Z M642 815 C659 815 675 829 675 848 C675 863 663 875 648 875 C630 875 616 859 616 843 C616 827 628 815 642 815 L642 815 Z M234 0 L246 0 L528 658 L529 658 L673 0 L684 0 L974 700 L954 700 L683 45 L682 45 L539 700 L526 700 L245 45 L244 45 L110 700 L91 700 L234 0 Z " />
<glyph glyph-name="wdieresis" unicode="&#x1e85;" horiz-adv-x="743" d="M316 575 C332 575 347 587 347 606 C347 620 336 631 322 631 C304 631 291 616 291 601 C291 586 302 575 316 575 L316 575 Z M500 575 C516 575 531 587 531 606 C531 620 520 631 506 631 C488 631 475 616 475 601 C475 586 486 575 500 575 L500 575 Z M170 0 L183 0 L393 426 L394 426 L513 0 L525 0 L737 458 L718 458 L523 35 L522 35 L403 458 L389 458 L181 35 L180 35 L73 458 L54 458 L170 0 Z " />
<glyph glyph-name="uni1E90" unicode="&#x1e90;" horiz-adv-x="562" d="M355 918 L455 782 L476 782 L365 930 L345 930 L204 782 L227 782 L355 918 Z M550 700 L112 700 L110 682 L523 682 L33 14 L32 0 L482 0 L484 18 L59 18 L548 686 L550 700 Z " />
<glyph glyph-name="uni1E91" unicode="&#x1e91;" horiz-adv-x="439" d="M267 672 L362 544 L381 544 L277 684 L259 684 L125 544 L146 544 L267 672 Z M413 458 L74 458 L72 441 L387 441 L24 15 L22 0 L369 0 L371 17 L48 17 L411 443 L413 458 Z " />
<glyph glyph-name="uni1E9E" unicode="&#x1e9e;" horiz-adv-x="665" d="M407 364 L390 364 L625 597 C584 668 497 712 393 712 C236 712 141 621 122 439 L76 0 L95 0 L141 439 C160 617 251 694 391 694 C486 694 563 658 602 599 L366 364 L364 346 L405 346 C527 346 587 302 587 209 C587 82 511 6 376 6 C345 6 307 10 273 20 L271 2 C305 -8 342 -12 374 -12 C515 -12 606 70 606 209 C606 312 534 364 407 364 L407 364 Z " />
<glyph glyph-name="Ygrave" unicode="&#x1ef2;" horiz-adv-x="589" d="M362 775 L380 775 L325 923 L301 923 L362 775 Z M261 0 L280 0 L310 289 L623 700 L600 700 L302 309 L301 309 L87 700 L66 700 L291 289 L261 0 Z " />
<glyph glyph-name="ygrave" unicode="&#x1ef3;" horiz-adv-x="478" d="M295 537 L243 677 L221 677 L278 537 L295 537 Z M458 458 L217 30 L216 30 L67 458 L48 458 L205 9 L75 -224 L95 -224 L478 458 L458 458 Z " />
<glyph glyph-name="uni2000" unicode="&#x2000;" horiz-adv-x="500" d="" />
<glyph glyph-name="uni2001" unicode="&#x2001;" horiz-adv-x="1000" d="" />
<glyph glyph-name="uni2002" unicode="&#x2002;" horiz-adv-x="500" d="" />
<glyph glyph-name="uni2003" unicode="&#x2003;" horiz-adv-x="1000" d="" />
<glyph glyph-name="uni2009" unicode="&#x2009;" horiz-adv-x="150" d="" />
<glyph glyph-name="uni200A" unicode="&#x200a;" horiz-adv-x="60" d="" />
<glyph glyph-name="uni200B" unicode="&#x200b;" d="" />
<glyph glyph-name="endash" unicode="&#x2013;" horiz-adv-x="500" d="M4 264 L504 264 L505 281 L5 281 L4 264 Z " />
<glyph glyph-name="emdash" unicode="&#x2014;" horiz-adv-x="1000" d="M4 264 L1004 264 L1005 281 L5 281 L4 264 Z " />
<glyph glyph-name="quoteleft" unicode="&#x2018;" horiz-adv-x="191" d="M139 625 C135 625 130 624 125 622 C127 648 143 679 169 701 L159 712 C129 687 105 651 105 607 C105 582 119 569 135 569 C151 569 165 583 165 599 C165 614 154 625 139 625 L139 625 Z " />
<glyph glyph-name="quoteright" unicode="&#x2019;" horiz-adv-x="192" d="M144 722 C128 722 114 708 114 692 C114 677 125 666 140 666 C144 666 149 667 154 669 C152 643 136 612 110 590 L120 579 C150 604 174 640 174 684 C174 709 160 722 144 722 L144 722 Z " />
<glyph glyph-name="quotesinglbase" unicode="&#x201a;" horiz-adv-x="202" d="M80 66 C64 66 50 52 50 36 C50 21 61 10 76 10 C80 10 85 11 90 13 C88 -13 72 -44 46 -66 L56 -77 C86 -52 110 -16 110 28 C110 53 96 66 80 66 L80 66 Z " />
<glyph glyph-name="quotedblleft" unicode="&#x201c;" horiz-adv-x="322" d="M169 701 L159 712 C129 687 105 651 105 607 C105 582 119 569 135 569 C151 569 165 583 165 599 C165 614 154 625 139 625 C135 625 130 624 125 622 C127 648 143 679 169 701 L169 701 Z M270 625 C266 625 261 624 256 622 C258 648 274 679 300 701 L290 712 C260 687 236 651 236 607 C236 582 250 569 266 569 C282 569 296 583 296 599 C296 614 285 625 270 625 L270 625 Z " />
<glyph glyph-name="quotedblright" unicode="&#x201d;" horiz-adv-x="323" d="M144 722 C128 722 114 708 114 692 C114 677 125 666 140 666 C144 666 149 667 154 669 C152 643 136 612 110 590 L120 579 C150 604 174 640 174 684 C174 709 160 722 144 722 L144 722 Z M275 722 C259 722 245 708 245 692 C245 677 256 666 271 666 C275 666 280 667 285 669 C283 643 267 612 241 590 L251 579 C281 604 305 640 305 684 C305 709 291 722 275 722 L275 722 Z " />
<glyph glyph-name="quotedblbase" unicode="&#x201e;" horiz-adv-x="333" d="M80 66 C64 66 50 52 50 36 C50 21 61 10 76 10 C80 10 85 11 90 13 C88 -13 72 -44 46 -66 L56 -77 C86 -52 110 -16 110 28 C110 53 96 66 80 66 L80 66 Z M211 66 C195 66 181 52 181 36 C181 21 192 10 207 10 C211 10 216 11 221 13 C219 -13 203 -44 177 -66 L187 -77 C217 -52 241 -16 241 28 C241 53 227 66 211 66 L211 66 Z " />
<glyph glyph-name="dagger" unicode="&#x2020;" horiz-adv-x="528" d="M504 473 L299 473 L327 742 L309 742 L281 473 L76 473 L74 456 L279 456 L217 -128 L235 -128 L297 456 L502 456 L504 473 Z " />
<glyph glyph-name="daggerdbl" unicode="&#x2021;" horiz-adv-x="548" d="M512 456 L514 473 L309 473 L337 742 L319 742 L291 473 L86 473 L84 456 L289 456 L259 173 L74 173 L72 156 L257 156 L227 -128 L245 -128 L275 156 L460 156 L462 173 L277 173 L307 456 L512 456 Z " />
<glyph glyph-name="bullet" unicode="&#x2022;" horiz-adv-x="458" d="M233 271 C285 271 332 312 332 370 C332 416 300 449 252 449 C195 449 153 403 153 349 C153 303 186 271 233 271 L233 271 Z " />
<glyph glyph-name="ellipsis" unicode="&#x2026;" horiz-adv-x="615" d="M74 -4 C87 -4 104 8 104 27 C104 41 93 52 79 52 C61 52 48 37 48 22 C48 8 59 -4 74 -4 L74 -4 Z M284 -4 C297 -4 314 8 314 27 C314 41 303 52 289 52 C271 52 258 37 258 22 C258 8 269 -4 284 -4 L284 -4 Z M494 -4 C507 -4 524 8 524 27 C524 41 513 52 499 52 C481 52 468 37 468 22 C468 8 479 -4 494 -4 L494 -4 Z " />
<glyph glyph-name="perthousand" unicode="&#x2030;" horiz-adv-x="1199" d="M235 396 C333 396 409 475 409 573 C409 655 351 712 268 712 C170 712 93 635 93 535 C93 453 151 396 235 396 L235 396 Z M132 0 L154 0 L711 700 L689 700 L132 0 Z M235 412 C159 412 110 462 110 535 C110 626 177 696 267 696 C343 696 392 646 392 573 C392 482 325 412 235 412 L235 412 Z M575 -12 C673 -12 749 67 749 165 C749 247 691 304 608 304 C510 304 433 227 433 127 C433 45 491 -12 575 -12 L575 -12 Z M957 -12 C1055 -12 1131 67 1131 165 C1131 247 1073 304 990 304 C892 304 815 227 815 127 C815 45 873 -12 957 -12 L957 -12 Z M575 4 C499 4 450 54 450 127 C450 218 517 288 607 288 C683 288 732 238 732 165 C732 74 665 4 575 4 L575 4 Z M957 4 C881 4 832 54 832 127 C832 218 899 288 989 288 C1065 288 1114 238 1114 165 C1114 74 1047 4 957 4 L957 4 Z " />
<glyph glyph-name="guilsinglleft" unicode="&#x2039;" horiz-adv-x="285" d="M247 490 L224 490 L61 286 L182 82 L204 82 L83 284 L247 490 Z " />
<glyph glyph-name="guilsinglright" unicode="&#x203a;" horiz-adv-x="285" d="M115 490 L93 490 L214 288 L50 82 L73 82 L236 286 L115 490 Z " />
<glyph glyph-name="fraction" unicode="&#x2044;" horiz-adv-x="505" d="M-24 0 L-2 0 L555 700 L533 700 L-24 0 Z " />
<glyph glyph-name="uni2070" unicode="&#x2070;" horiz-adv-x="405" d="M207 264 C300 264 354 319 366 425 L379 551 C390 657 347 712 254 712 C161 712 105 657 94 551 L81 425 C69 319 114 264 207 264 L207 264 Z M207 281 C125 281 88 327 99 425 L112 551 C122 649 171 695 253 695 C335 695 371 648 361 551 L348 425 C337 328 289 281 207 281 L207 281 Z " />
<glyph glyph-name="uni2074" unicode="&#x2074;" horiz-adv-x="377" d="M361 381 L294 381 L328 700 L308 700 L56 379 L54 364 L274 364 L264 266 L282 266 L292 364 L359 364 L361 381 Z M80 381 L306 670 L276 381 L80 381 Z " />
<glyph glyph-name="uni2075" unicode="&#x2075;" horiz-adv-x="384" d="M357 683 L359 700 L145 700 L94 468 L114 468 C143 502 187 521 232 521 C294 521 334 485 334 421 C334 340 279 276 199 276 C138 276 96 312 94 379 L76 379 C76 301 130 259 199 259 C287 259 353 331 353 420 C353 494 303 538 232 538 C189 538 148 522 116 489 L159 683 L357 683 Z " />
<glyph glyph-name="uni2076" unicode="&#x2076;" horiz-adv-x="384" d="M228 539 C201 539 172 531 149 516 L293 700 L270 700 L125 513 C93 472 69 431 69 381 C69 311 122 259 196 259 C281 259 353 330 353 414 C353 486 299 539 228 539 L228 539 Z M197 276 C133 276 88 320 88 383 C88 460 147 522 224 522 C289 522 335 477 335 413 C335 341 276 276 197 276 L197 276 Z " />
<glyph glyph-name="uni2077" unicode="&#x2077;" horiz-adv-x="332" d="M90 700 L88 683 L321 683 L95 266 L116 266 L342 685 L344 700 L90 700 Z " />
<glyph glyph-name="uni2078" unicode="&#x2078;" horiz-adv-x="385" d="M266 495 C323 508 362 555 362 609 C362 669 312 712 244 712 C168 712 102 656 102 586 C102 543 127 507 175 495 C114 483 70 432 70 372 C70 310 121 264 197 264 C279 264 347 321 347 396 C347 445 315 485 266 495 L266 495 Z M120 585 C120 646 171 695 243 695 C305 695 344 659 344 608 C344 547 294 503 221 503 C155 503 120 537 120 585 L120 585 Z M197 281 C130 281 89 320 89 374 C89 438 145 486 221 486 C288 486 329 450 329 398 C329 331 273 281 197 281 L197 281 Z " />
<glyph glyph-name="uni2079" unicode="&#x2079;" horiz-adv-x="384" d="M242 712 C157 712 85 641 85 557 C85 485 139 432 210 432 C237 432 266 440 289 455 L145 271 L168 271 L313 458 C345 499 369 540 369 590 C369 660 316 712 242 712 L242 712 Z M214 449 C149 449 103 494 103 558 C103 630 162 695 241 695 C305 695 350 651 350 588 C350 511 291 449 214 449 L214 449 Z " />
<glyph glyph-name="Euro" unicode="&#x20ac;" horiz-adv-x="645" d="M435 695 C523 695 591 634 600 521 L618 521 C610 643 532 712 435 712 C299 712 202 585 164 432 L65 432 L64 415 L160 415 C151 373 146 329 146 285 L50 285 L48 268 L146 268 C151 100 234 -12 359 -12 C456 -12 549 57 585 181 L567 181 C532 66 444 5 358 5 C246 5 170 109 165 268 L455 268 L457 285 L165 285 C165 329 170 373 179 415 L471 415 L472 432 L183 432 C220 580 311 695 435 695 L435 695 Z " />
<glyph glyph-name="uni2116" unicode="&#x2116;" horiz-adv-x="1228" d="M1009 712 C887 712 791 611 791 482 C791 375 863 302 966 302 C1089 302 1183 402 1183 534 C1183 639 1112 712 1009 712 L1009 712 Z M561 35 L560 35 L178 700 L160 700 L86 0 L105 0 L175 665 L176 665 L558 0 L576 0 L650 700 L631 700 L561 35 Z M965 319 C873 319 809 383 809 481 C809 601 894 695 1009 695 C1101 695 1165 631 1165 533 C1165 413 1080 319 965 319 L965 319 Z M810 157 L1100 157 L1101 174 L811 174 L810 157 Z " />
<glyph glyph-name="trademark" unicode="&#x2122;" horiz-adv-x="730" d="M88 685 L200 685 L170 394 L186 394 L216 685 L330 685 L332 700 L90 700 L88 685 Z M698 700 L539 516 L420 700 L405 700 L372 394 L388 394 L418 672 L531 500 L546 500 L696 674 L666 394 L682 394 L715 700 L698 700 Z " />
<glyph glyph-name="uni2126" unicode="&#x2126;" horiz-adv-x="800" d="M729 417 C729 594 616 712 451 712 C250 712 101 540 101 328 C101 208 155 106 263 16 L66 16 L64 0 L289 0 L291 16 C180 104 119 201 119 327 C119 529 256 695 449 695 C605 695 712 587 712 418 C712 245 616 117 465 16 L463 0 L688 0 L690 16 L493 16 C637 118 729 246 729 417 L729 417 Z " />
<glyph glyph-name="estimated" unicode="&#x212e;" horiz-adv-x="858" d="M442 0 C561 0 667 55 730 149 L709 165 C652 77 554 26 442 26 C369 26 305 47 250 88 C216 113 205 141 205 187 L205 338 L789 338 L789 350 C789 452 750 545 687 605 C625 664 537 700 442 700 C347 700 259 664 196 605 C134 545 95 452 95 350 C95 247 134 157 196 97 C259 36 347 0 442 0 L442 0 Z M205 362 L205 512 C205 558 216 587 250 612 C305 653 369 674 442 674 C519 674 584 652 641 609 C673 584 684 553 684 508 L684 362 L205 362 Z " />
<glyph glyph-name="arrowleft" unicode="&#x2190;" horiz-adv-x="710" d="M676 359 L92 359 L317 588 L305 600 L59 350 L305 100 L317 112 L92 341 L676 341 L676 359 Z " />
<glyph glyph-name="arrowup" unicode="&#x2191;" horiz-adv-x="710" d="M625 415 L375 661 L125 415 L137 403 L366 628 L366 44 L384 44 L384 628 L613 403 L625 415 Z " />
<glyph glyph-name="arrowright" unicode="&#x2192;" horiz-adv-x="710" d="M431 600 L419 588 L644 359 L60 359 L60 341 L644 341 L419 112 L431 100 L677 350 L431 600 Z " />
<glyph glyph-name="arrowdown" unicode="&#x2193;" horiz-adv-x="710" d="M599 297 L370 72 L370 656 L352 656 L352 72 L123 297 L111 285 L361 39 L611 285 L599 297 Z " />
<glyph glyph-name="uni2196" unicode="&#x2196;" horiz-adv-x="710" d="M590 140 L178 552 L498 555 L498 572 L148 569 L145 219 L162 219 L165 539 L578 127 L590 140 Z " />
<glyph glyph-name="uni2197" unicode="&#x2197;" horiz-adv-x="710" d="M134 140 L147 128 L559 540 L562 220 L579 220 L576 570 L226 573 L226 556 L546 553 L134 140 Z " />
<glyph glyph-name="uni2198" unicode="&#x2198;" horiz-adv-x="710" d="M570 481 L567 161 L154 573 L142 560 L554 148 L234 145 L234 128 L584 131 L587 481 L570 481 Z " />
<glyph glyph-name="uni2199" unicode="&#x2199;" horiz-adv-x="710" d="M162 480 L165 130 L515 127 L515 144 L195 147 L607 560 L594 572 L182 160 L179 480 L162 480 Z " />
<glyph glyph-name="partialdiff" unicode="&#x2202;" horiz-adv-x="636" d="M345 712 C307 712 257 706 205 679 L203 661 C256 689 306 696 344 696 C488 696 568 601 568 418 C568 371 562 315 554 259 L553 259 C552 395 446 469 325 469 C172 469 57 350 57 199 C57 71 147 -12 286 -12 C361 -12 430 12 483 71 C554 150 587 296 587 417 C587 610 498 712 345 712 L345 712 Z M283 4 C165 4 76 74 76 199 C76 340 179 453 326 453 C450 453 536 376 536 257 C536 115 431 4 283 4 L283 4 Z " />
<glyph glyph-name="uni2206" unicode="&#x2206;" horiz-adv-x="671" d="M394 700 L377 700 L12 13 L20 0 L603 0 L613 13 L394 700 Z M383 673 L593 17 L36 17 L383 673 Z " />
<glyph glyph-name="product" unicode="&#x220f;" horiz-adv-x="669" d="M164 742 L72 -128 L90 -128 L180 725 L593 725 L503 -128 L521 -128 L613 742 L164 742 Z " />
<glyph glyph-name="summation" unicode="&#x2211;" horiz-adv-x="540" d="M559 742 L119 742 L117 725 L373 309 L29 -111 L27 -128 L467 -128 L469 -111 L53 -111 L395 307 L137 725 L557 725 L559 742 Z " />
<glyph glyph-name="minus" unicode="&#x2212;" horiz-adv-x="650" d="M123 309 L543 309 L545 326 L125 326 L123 309 Z " />
<glyph glyph-name="radical" unicode="&#x221a;" horiz-adv-x="646" d="M660 742 L290 -102 L176 305 L43 305 L41 288 L162 288 L278 -128 L298 -128 L680 742 L660 742 Z " />
<glyph glyph-name="infinity" unicode="&#x221e;" horiz-adv-x="760" d="M585 500 C495 500 442 425 392 347 C358 425 322 500 231 500 C133 500 65 415 65 306 C65 216 119 162 196 162 C287 162 339 236 389 313 C422 236 460 162 550 162 C649 162 717 247 717 356 C717 446 662 500 585 500 L585 500 Z M198 178 C127 178 82 228 82 307 C82 403 138 484 230 484 C314 484 348 409 382 331 C332 254 283 178 198 178 L198 178 Z M552 178 C466 178 433 252 400 330 C449 408 499 484 584 484 C656 484 700 434 700 354 C700 260 642 178 552 178 L552 178 Z " />
<glyph glyph-name="integral" unicode="&#x222b;" horiz-adv-x="383" d="M-3 -128 L50 -128 C134 -128 167 -98 177 -4 L242 618 C251 704 275 725 347 725 L400 725 L402 742 L349 742 C265 742 234 712 224 618 L159 -4 C149 -90 124 -111 52 -111 L-1 -111 L-3 -128 Z " />
<glyph glyph-name="approxequal" unicode="&#x2248;" horiz-adv-x="650" d="M437 390 C477 390 516 405 557 436 L558 454 C513 423 482 406 439 406 C381 406 316 462 256 462 C218 462 176 447 135 415 L134 397 C181 431 216 445 255 445 C318 445 374 390 437 390 L437 390 Z M414 170 C457 170 493 186 534 217 L535 235 C492 205 461 187 416 187 C358 187 293 243 233 243 C197 243 153 228 112 196 L111 178 C158 212 196 226 232 226 C295 226 351 170 414 170 L414 170 Z " />
<glyph glyph-name="notequal" unicode="&#x2260;" horiz-adv-x="650" d="M555 418 L557 435 L413 435 L500 585 L480 585 L393 435 L137 435 L135 418 L383 418 L266 216 L114 216 L112 199 L256 199 L169 49 L189 49 L276 199 L532 199 L534 216 L286 216 L403 418 L555 418 Z " />
<glyph glyph-name="lessequal" unicode="&#x2264;" horiz-adv-x="650" d="M566 520 L127 342 L125 321 L526 143 L528 161 L145 330 L564 500 L566 520 Z M91 0 L511 0 L513 17 L93 17 L91 0 Z " />
<glyph glyph-name="greaterequal" unicode="&#x2265;" horiz-adv-x="650" d="M146 520 L144 502 L527 332 L108 163 L106 143 L545 321 L547 342 L146 520 Z M91 0 L511 0 L513 17 L93 17 L91 0 Z " />
<glyph glyph-name="filledbox" unicode="&#x25a0;" horiz-adv-x="900" d="M113 0 L813 0 L813 700 L113 700 L113 0 Z " />
<glyph glyph-name="triagup" unicode="&#x25b2;" horiz-adv-x="900" d="M104 0 L804 0 L454 700 L104 0 Z " />
<glyph glyph-name="triagdn" unicode="&#x25bc;" horiz-adv-x="900" d="M486 0 L836 700 L136 700 L486 0 Z " />
<glyph glyph-name="uni25C6" unicode="&#x25c6;" horiz-adv-x="900" d="M462 0 L813 349 L462 700 L113 349 L462 0 Z " />
<glyph glyph-name="lozenge" unicode="&#x25ca;" horiz-adv-x="617" d="M53 350 L279 0 L290 0 L590 350 L364 700 L353 700 L53 350 Z M74 349 L357 679 L568 350 L287 21 L74 349 Z " />
<glyph glyph-name="uni25CF" unicode="&#x25cf;" horiz-adv-x="900" d="M463 0 C656 0 813 157 813 350 C813 543 656 700 463 700 C270 700 113 543 113 350 C113 157 270 0 463 0 L463 0 Z " />
<glyph glyph-name="uni2610" unicode="&#x2610;" horiz-adv-x="900" d="M113 0 L813 0 L813 700 L113 700 L113 0 Z M126 12 L126 688 L800 688 L800 12 L126 12 Z " />
<glyph glyph-name="uni2611" unicode="&#x2611;" horiz-adv-x="900" d="M113 700 L113 0 L813 0 L813 700 L113 700 Z M800 12 L126 12 L126 688 L800 688 L800 12 Z M624 528 L610 536 L408 187 L310 244 L302 229 L414 164 L624 528 Z " />
<glyph glyph-name="uni2612" unicode="&#x2612;" horiz-adv-x="900" d="M113 700 L113 0 L813 0 L813 700 L113 700 Z M800 12 L126 12 L126 688 L800 688 L800 12 Z M298 173 L463 338 L628 173 L640 185 L475 350 L640 515 L628 527 L463 362 L298 527 L286 515 L451 350 L286 185 L298 173 Z " />
<glyph glyph-name="heart" unicode="&#x2665;" horiz-adv-x="900" d="M469 48 C612 188 795 221 795 409 C795 541 703 606 618 606 C545 606 478 560 471 470 L467 470 C460 560 393 606 320 606 C235 606 143 541 143 409 C143 221 326 188 469 48 L469 48 Z " />
<glyph glyph-name="uni2B51" unicode="&#x2b51;" horiz-adv-x="900" d="M240 -3 L471 165 L701 -3 L613 267 L844 434 L558 434 L471 705 L384 435 L100 435 L329 269 L240 -3 Z " />
</font>
</svg>
