<?xml version="1.0" encoding="UTF-8"?>
<svg xmlns="http://www.w3.org/2000/svg" xmlns:xlink="http://www.w3.org/1999/xlink" version="1.2" >
<font id="BR Hendrix Medium Italic">
<font-face  font-family="BR Hendrix" units-per-em="1000" ascent="760" descent="-240" font-style="normal" font-weight="500" font-stretch="normal" slope="-6" cap-height="700" x-height="473" underline-position="-145" underline-thickness="50" />
<missing-glyph  horiz-adv-x="759" d="M66 0 L642 0 L716 700 L140 700 L66 0 Z M333 265 L336 296 C341 341 352 359 398 394 L433 420 C453 434 468 450 468 478 C468 504 448 519 414 519 C370 519 344 494 337 448 L261 448 C270 537 332 590 420 590 C495 590 548 547 548 486 C548 439 520 405 477 372 L445 348 C420 329 415 320 412 293 L409 265 L333 265 Z M355 105 C329 105 308 123 308 151 C308 184 332 209 364 209 C389 209 411 192 411 165 C411 136 392 105 355 105 L355 105 Z " />
<glyph glyph-name="CR" unicode="&#xd;" horiz-adv-x="237" d="" />
<glyph glyph-name="space" unicode="&#x20;" horiz-adv-x="237" d="" />
<glyph glyph-name="exclam" unicode="&#x21;" horiz-adv-x="283" d="M100 222 L180 222 L243 700 L138 700 L100 222 Z M120 -7 C160 -7 193 25 193 70 C193 106 166 133 128 133 C84 133 53 98 53 55 C53 19 82 -7 120 -7 L120 -7 Z " />
<glyph glyph-name="quotedbl" unicode="&#x22;" horiz-adv-x="375" d="M86 439 L157 439 L202 712 L98 712 L86 439 Z M261 439 L331 439 L377 712 L272 712 L261 439 Z " />
<glyph glyph-name="numbersign" unicode="&#x23;" horiz-adv-x="708" d="M679 423 L687 501 L583 501 L638 685 L548 685 L493 501 L331 501 L386 685 L296 685 L241 501 L119 501 L111 423 L217 423 L173 277 L54 277 L46 199 L149 199 L94 15 L184 15 L239 199 L401 199 L346 15 L436 15 L491 199 L614 199 L621 277 L515 277 L559 423 L679 423 Z M425 277 L263 277 L307 423 L469 423 L425 277 Z " />
<glyph glyph-name="dollar" unicode="&#x24;" horiz-adv-x="544" d="M522 489 C524 598 456 664 349 674 L356 742 L299 742 L292 675 C171 666 75 587 75 471 C75 398 128 344 232 321 L251 317 L230 114 C169 123 136 163 137 231 L36 231 C31 113 105 38 220 26 L213 -42 L269 -42 L276 25 C403 33 502 117 502 240 C502 314 451 365 347 388 L320 394 L340 587 C398 580 423 546 421 489 L522 489 Z M175 482 C175 538 218 578 283 587 L264 407 C196 425 175 447 175 482 L175 482 Z M403 225 C403 165 354 122 286 114 L306 305 C379 287 403 263 403 225 L403 225 Z " />
<glyph glyph-name="percent" unicode="&#x25;" horiz-adv-x="881" d="M233 353 C340 353 429 443 429 552 C429 643 360 712 265 712 C158 712 68 621 68 514 C68 422 137 353 233 353 L233 353 Z M141 0 L240 0 L765 700 L666 700 L141 0 Z M238 429 C184 429 151 466 151 519 C151 580 194 636 260 636 C314 636 346 599 346 548 C346 481 302 429 238 429 L238 429 Z M641 -12 C749 -12 837 78 837 187 C837 278 768 347 674 347 C566 347 476 256 476 149 C476 57 545 -12 641 -12 L641 -12 Z M646 64 C593 64 559 101 559 154 C559 215 602 271 668 271 C722 271 754 234 754 183 C754 116 710 64 646 64 L646 64 Z " />
<glyph glyph-name="ampersand" unicode="&#x26;" horiz-adv-x="657" d="M612 0 L513 128 C553 182 583 251 600 338 L508 338 C497 283 480 237 457 200 L337 355 L373 375 C450 417 514 485 514 568 C514 652 436 712 340 712 C230 712 138 637 138 533 C138 487 161 442 208 380 L203 377 C108 325 37 259 37 161 C37 61 120 -12 246 -12 C321 -12 394 14 454 69 L506 0 L612 0 Z M338 629 C387 629 421 602 421 556 C421 506 386 472 337 445 L289 419 L272 440 C243 478 233 510 233 537 C233 592 281 629 338 629 L338 629 Z M138 171 C138 233 184 276 251 312 L258 316 L400 131 C356 94 305 76 253 76 C181 76 138 112 138 171 L138 171 Z " />
<glyph glyph-name="quotesingle" unicode="&#x27;" horiz-adv-x="200" d="M86 439 L157 439 L202 712 L98 712 L86 439 Z " />
<glyph glyph-name="parenleft" unicode="&#x28;" horiz-adv-x="333" d="M189 -123 L269 -72 C214 7 175 130 175 255 C175 275 176 296 178 315 C193 457 266 608 350 699 L280 754 C163 635 91 479 75 320 C73 297 71 274 71 251 C71 116 112 -18 189 -123 L189 -123 Z " />
<glyph glyph-name="parenright" unicode="&#x29;" horiz-adv-x="333" d="M160 753 L80 702 C135 623 175 500 175 375 C175 355 174 334 172 315 C156 173 84 22 -1 -69 L70 -124 C186 -5 258 151 274 310 C276 333 278 356 278 379 C278 514 238 648 160 753 L160 753 Z " />
<glyph glyph-name="asterisk" unicode="&#x2a;" horiz-adv-x="471" d="M246 712 L236 559 L96 611 L64 537 L206 494 L99 373 L162 327 L261 454 L333 327 L400 373 L319 494 L469 537 L453 611 L303 559 L324 712 L246 712 Z " />
<glyph glyph-name="plus" unicode="&#x2b;" horiz-adv-x="650" d="M560 362 L385 362 L405 548 L311 548 L291 362 L117 362 L108 272 L282 272 L262 86 L356 86 L376 272 L551 272 L560 362 Z " />
<glyph glyph-name="comma" unicode="&#x2c;" horiz-adv-x="268" d="M117 132 C74 132 39 100 39 57 C39 23 63 -3 101 -3 C105 -3 109 -3 113 -2 C106 -42 78 -89 28 -134 L59 -173 C131 -119 189 -34 189 47 C189 101 158 132 117 132 L117 132 Z " />
<glyph glyph-name="hyphen" unicode="&#x2d;" horiz-adv-x="410" d="M48 233 L360 233 L370 322 L58 322 L48 233 Z " />
<glyph glyph-name="period" unicode="&#x2e;" horiz-adv-x="256" d="M106 -7 C147 -7 180 25 180 70 C180 106 152 133 114 133 C71 133 39 98 39 55 C39 19 69 -7 106 -7 L106 -7 Z " />
<glyph glyph-name="slash" unicode="&#x2f;" horiz-adv-x="497" d="M-21 -92 L80 -92 L536 742 L436 742 L-21 -92 Z " />
<glyph glyph-name="zero" unicode="0" horiz-adv-x="643" d="M296 -12 C457 -12 555 87 572 250 L594 450 C596 464 596 478 596 491 C596 630 515 712 371 712 C210 712 112 613 95 450 L73 250 C71 236 71 222 71 208 C71 70 151 -12 296 -12 L296 -12 Z M301 80 C214 80 174 124 174 214 C174 225 175 237 176 250 L198 450 C210 565 274 620 366 620 C452 620 493 577 493 488 C493 476 493 464 491 450 L469 250 C458 135 393 80 301 80 L301 80 Z " />
<glyph glyph-name="one" unicode="1" horiz-adv-x="418" d="M285 700 C262 637 232 618 146 618 L114 618 L106 533 L246 533 L189 0 L292 0 L366 700 L285 700 Z " />
<glyph glyph-name="two" unicode="2" horiz-adv-x="573" d="M331 261 C394 298 440 330 473 363 C522 410 546 464 546 531 C546 643 460 712 344 712 C205 712 99 622 83 467 L187 467 C202 572 262 621 340 621 C408 621 443 585 443 526 C443 486 430 453 401 423 C374 396 333 365 268 328 C100 230 50 158 38 49 L33 0 L494 0 L504 92 L150 92 C167 150 211 192 331 261 L331 261 Z " />
<glyph glyph-name="three" unicode="3" horiz-adv-x="593" d="M272 -12 C416 -12 531 79 531 214 C531 281 496 333 433 359 L433 362 C504 394 545 459 545 536 C545 641 459 712 343 712 C209 712 108 630 93 495 L195 495 C209 581 260 620 334 620 C406 620 443 585 443 527 C443 451 392 403 306 403 L244 403 L235 316 L297 316 C382 316 428 279 428 216 C428 137 363 80 275 80 C197 80 153 124 158 205 L55 205 C43 67 135 -12 272 -12 L272 -12 Z " />
<glyph glyph-name="four" unicode="4" horiz-adv-x="594" d="M567 220 L472 220 L523 700 L401 700 L37 215 L29 133 L366 133 L352 0 L449 0 L463 133 L558 133 L567 220 Z M147 220 L413 576 L375 220 L147 220 Z " />
<glyph glyph-name="five" unicode="5" horiz-adv-x="590" d="M343 457 C295 457 247 443 207 415 L250 608 L536 608 L547 700 L171 700 L86 306 L178 306 C218 349 269 371 324 371 C399 371 442 327 442 252 C442 152 378 80 279 80 C208 80 161 123 163 201 L60 201 C54 67 145 -12 276 -12 C432 -12 545 101 545 256 C545 377 462 457 343 457 L343 457 Z " />
<glyph glyph-name="six" unicode="6" horiz-adv-x="589" d="M333 469 C317 469 301 467 285 464 L471 700 L349 700 L154 449 C91 368 44 291 44 202 C44 79 142 -12 272 -12 C423 -12 547 109 547 258 C547 381 455 469 333 469 L333 469 Z M278 80 C200 80 147 134 147 212 C147 307 220 382 313 382 C393 382 444 330 444 251 C444 158 372 80 278 80 L278 80 Z " />
<glyph glyph-name="seven" unicode="7" horiz-adv-x="523" d="M89 700 L79 608 L411 608 L75 0 L192 0 L526 615 L535 700 L89 700 Z " />
<glyph glyph-name="eight" unicode="8" horiz-adv-x="601" d="M278 -12 C422 -12 539 73 539 207 C539 277 502 333 440 362 L441 364 C515 396 560 461 560 539 C560 640 472 712 346 712 C210 712 100 628 100 501 C100 442 128 393 188 364 L187 362 C106 332 52 254 52 168 C52 61 141 -12 278 -12 L278 -12 Z M317 404 C242 404 201 441 201 499 C201 577 261 624 343 624 C420 624 459 586 459 528 C459 453 400 404 317 404 L317 404 Z M282 76 C203 76 155 117 155 181 C155 259 221 318 309 318 C387 318 437 273 437 210 C437 127 368 76 282 76 L282 76 Z " />
<glyph glyph-name="nine" unicode="9" horiz-adv-x="590" d="M342 712 C191 712 67 591 67 442 C67 319 159 231 281 231 C297 231 313 233 329 236 L143 0 L265 0 L460 251 C522 332 570 409 570 498 C570 621 472 712 342 712 L342 712 Z M301 318 C221 318 170 370 170 449 C170 542 242 620 336 620 C413 620 467 566 467 488 C467 393 394 318 301 318 L301 318 Z " />
<glyph glyph-name="colon" unicode="&#x3a;" horiz-adv-x="266" d="M153 335 C193 335 226 367 226 413 C226 449 198 475 160 475 C117 475 85 440 85 397 C85 361 115 335 153 335 L153 335 Z M117 -8 C157 -8 190 24 190 70 C190 106 162 132 124 132 C81 132 49 98 49 54 C49 19 79 -8 117 -8 L117 -8 Z " />
<glyph glyph-name="semicolon" unicode="&#x3b;" horiz-adv-x="279" d="M160 475 C117 475 85 440 85 397 C85 361 115 335 153 335 C193 335 226 367 226 413 C226 449 198 475 160 475 L160 475 Z M127 132 C84 132 50 100 50 57 C50 23 73 -3 111 -3 C115 -3 119 -3 123 -2 C116 -43 89 -90 38 -135 L70 -173 C141 -120 199 -34 199 47 C199 101 169 132 127 132 L127 132 Z " />
<glyph glyph-name="less" unicode="&#x3c;" horiz-adv-x="650" d="M578 538 L117 365 L107 271 L532 98 L542 195 L235 316 L567 437 L578 538 Z " />
<glyph glyph-name="equal" unicode="&#x3d;" horiz-adv-x="650" d="M118 374 L561 374 L570 464 L127 464 L118 374 Z M97 170 L540 170 L549 260 L106 260 L97 170 Z " />
<glyph glyph-name="greater" unicode="&#x3e;" horiz-adv-x="650" d="M135 537 L125 441 L432 320 L100 199 L89 97 L550 270 L560 364 L135 537 Z " />
<glyph glyph-name="question" unicode="&#x3f;" horiz-adv-x="483" d="M171 222 L271 222 L276 265 C280 308 286 321 324 350 L375 390 C438 437 483 490 483 562 C483 652 407 712 302 712 C182 712 84 636 72 506 L172 506 C181 581 230 622 297 622 C351 622 382 594 382 551 C382 511 359 486 323 459 L271 419 C200 364 183 333 176 267 L171 222 Z M201 -7 C241 -7 274 25 274 70 C274 106 247 133 209 133 C165 133 134 98 134 55 C134 19 163 -7 201 -7 L201 -7 Z " />
<glyph glyph-name="at" unicode="&#x40;" horiz-adv-x="949" d="M449 -197 C521 -197 589 -183 650 -158 L659 -72 C601 -98 530 -114 458 -114 C262 -114 139 5 139 186 C139 406 309 577 530 577 C702 577 823 476 823 301 C823 176 774 95 709 95 C672 95 652 122 658 175 L684 421 L609 421 L597 364 L594 364 C572 411 529 435 475 435 C355 435 273 324 273 202 C273 95 342 21 437 21 C499 21 556 51 583 110 L587 110 C599 51 650 20 705 20 C834 20 909 161 909 311 C909 519 744 660 532 660 C264 660 47 446 47 179 C47 -43 208 -197 449 -197 L449 -197 Z M461 102 C405 102 365 140 365 208 C365 287 413 354 488 354 C544 354 584 315 584 248 C584 169 537 102 461 102 L461 102 Z " />
<glyph glyph-name="A" unicode="A" horiz-adv-x="653" d="M510 0 L613 0 L433 700 L318 700 L-11 0 L100 0 L176 167 L469 167 L510 0 Z M218 257 L364 577 L367 577 L446 257 L218 257 Z " />
<glyph glyph-name="B" unicode="B" horiz-adv-x="644" d="M486 357 L486 360 C557 392 595 453 595 531 C595 633 514 700 379 700 L140 700 L66 0 L336 0 C485 0 588 75 588 218 C588 291 552 336 486 357 L486 357 Z M490 517 C490 437 439 395 349 395 L212 395 L235 610 L370 610 C451 610 490 577 490 517 L490 517 Z M339 90 L180 90 L203 307 L362 307 C445 307 481 277 481 216 C481 130 430 90 339 90 L339 90 Z " />
<glyph glyph-name="C" unicode="C" horiz-adv-x="760" d="M371 -12 C541 -12 684 96 717 259 L612 259 C579 148 489 84 379 84 C252 84 167 169 167 310 C167 480 276 616 439 616 C548 616 620 555 627 441 L734 441 C735 603 613 712 445 712 C227 712 60 532 60 305 C60 116 188 -12 371 -12 L371 -12 Z " />
<glyph glyph-name="D" unicode="D" horiz-adv-x="693" d="M316 700 L140 700 L66 0 L244 0 C487 0 655 156 655 395 C655 584 520 700 316 700 L316 700 Z M260 96 L182 96 L232 604 L313 604 C463 604 548 529 548 390 C548 212 438 96 260 96 L260 96 Z " />
<glyph glyph-name="E" unicode="E" horiz-adv-x="584" d="M559 604 L570 700 L140 700 L66 0 L496 0 L506 96 L182 96 L204 304 L499 304 L509 399 L214 399 L235 604 L559 604 Z " />
<glyph glyph-name="F" unicode="F" horiz-adv-x="574" d="M559 604 L570 700 L140 700 L66 0 L171 0 L201 285 L506 285 L516 380 L211 380 L235 604 L559 604 Z " />
<glyph glyph-name="G" unicode="G" horiz-adv-x="779" d="M414 276 L622 276 C592 155 493 83 377 83 C250 83 167 169 167 309 C167 481 275 617 442 617 C548 617 619 560 627 467 L737 467 C729 618 609 712 447 712 C220 712 59 530 59 301 C59 113 185 -12 361 -12 C458 -12 548 28 603 99 L606 99 L606 0 L688 0 L726 368 L423 368 L414 276 Z " />
<glyph glyph-name="H" unicode="H" horiz-adv-x="710" d="M562 700 L529 389 L212 389 L245 700 L140 700 L66 0 L171 0 L202 292 L519 292 L488 0 L593 0 L667 700 L562 700 Z " />
<glyph glyph-name="I" unicode="I" horiz-adv-x="288" d="M66 0 L171 0 L245 700 L140 700 L66 0 Z " />
<glyph glyph-name="J" unicode="J" horiz-adv-x="604" d="M176 700 L165 604 L456 604 L418 246 C406 134 351 84 264 84 C185 84 145 122 145 209 C145 221 145 233 147 246 L155 320 L50 320 L41 240 C40 225 39 211 39 198 C39 57 121 -12 256 -12 C409 -12 505 71 522 240 L571 700 L176 700 Z " />
<glyph glyph-name="K" unicode="K" horiz-adv-x="636" d="M668 700 L537 700 L215 380 L212 380 L245 700 L140 700 L66 0 L171 0 L205 315 L208 315 L471 0 L601 0 L313 348 L668 700 Z " />
<glyph glyph-name="L" unicode="L" horiz-adv-x="538" d="M182 96 L245 700 L140 700 L66 0 L482 0 L492 96 L182 96 Z " />
<glyph glyph-name="M" unicode="M" horiz-adv-x="918" d="M760 700 L449 146 L445 146 L251 700 L140 700 L66 0 L169 0 L221 487 L224 487 L396 0 L471 0 L747 487 L750 487 L698 0 L801 0 L875 700 L760 700 Z " />
<glyph glyph-name="N" unicode="N" horiz-adv-x="746" d="M599 700 L543 174 L540 174 L246 700 L140 700 L66 0 L171 0 L227 526 L230 526 L524 0 L630 0 L704 700 L599 700 Z " />
<glyph glyph-name="O" unicode="O" horiz-adv-x="794" d="M375 -12 C593 -12 757 170 757 394 C757 583 627 712 443 712 C225 712 60 530 60 306 C60 117 190 -12 375 -12 L375 -12 Z M380 84 C253 84 167 171 167 311 C167 478 276 616 438 616 C567 616 650 529 650 389 C650 222 543 84 380 84 L380 84 Z " />
<glyph glyph-name="P" unicode="P" horiz-adv-x="632" d="M363 700 L140 700 L66 0 L171 0 L195 224 L317 224 C491 224 614 326 614 491 C614 621 521 700 363 700 L363 700 Z M326 321 L205 321 L235 604 L355 604 C458 604 507 563 507 487 C507 379 442 321 326 321 L326 321 Z " />
<glyph glyph-name="Q" unicode="Q" horiz-adv-x="794" d="M757 394 C757 583 627 712 443 712 C225 712 60 530 60 306 C60 117 190 -12 375 -12 C437 -12 494 3 545 29 L619 -71 L696 -14 L624 84 C706 158 757 270 757 394 L757 394 Z M380 84 C253 84 167 171 167 311 C167 478 276 616 438 616 C567 616 650 529 650 389 C650 300 619 218 566 162 L451 318 L374 260 L488 107 C455 92 419 84 380 84 L380 84 Z " />
<glyph glyph-name="R" unicode="R" horiz-adv-x="649" d="M615 494 C615 619 519 700 362 700 L140 700 L66 0 L171 0 L196 237 L307 237 L453 0 L572 0 L416 249 C534 280 615 367 615 494 L615 494 Z M235 604 L357 604 C458 604 507 562 507 488 C507 387 439 333 328 333 L206 333 L235 604 Z " />
<glyph glyph-name="S" unicode="S" horiz-adv-x="594" d="M277 -12 C430 -12 552 79 552 224 C552 307 500 363 378 390 L314 405 C217 426 185 449 185 498 C185 571 249 618 336 618 C418 618 465 580 465 497 L571 497 C575 631 484 712 345 712 C199 712 79 626 79 487 C79 404 136 346 252 320 L316 306 C413 284 445 258 445 209 C445 135 377 82 287 82 C197 82 144 129 148 222 L41 222 C30 77 130 -12 277 -12 L277 -12 Z " />
<glyph glyph-name="T" unicode="T" horiz-adv-x="565" d="M592 700 L70 700 L60 604 L269 604 L205 0 L310 0 L374 604 L582 604 L592 700 Z " />
<glyph glyph-name="U" unicode="U" horiz-adv-x="702" d="M325 -12 C491 -12 606 97 624 274 L669 700 L564 700 L520 273 C506 150 434 85 333 85 C242 85 189 138 189 237 C189 249 190 260 191 273 L235 700 L131 700 L86 274 C84 259 84 245 84 232 C84 80 175 -12 325 -12 L325 -12 Z " />
<glyph glyph-name="V" unicode="V" horiz-adv-x="641" d="M234 0 L357 0 L676 700 L566 700 L309 125 L306 125 L169 700 L63 700 L234 0 Z " />
<glyph glyph-name="W" unicode="W" horiz-adv-x="1001" d="M207 0 L314 0 L534 545 L537 545 L641 0 L744 0 L1031 700 L924 700 L707 163 L704 163 L599 700 L499 700 L281 163 L278 163 L174 700 L68 700 L207 0 Z " />
<glyph glyph-name="X" unicode="X" horiz-adv-x="601" d="M624 700 L504 700 L319 444 L187 700 L75 700 L250 364 L-9 0 L109 0 L308 284 L449 0 L559 0 L377 364 L624 700 Z " />
<glyph glyph-name="Y" unicode="Y" horiz-adv-x="625" d="M235 0 L340 0 L369 277 L667 700 L548 700 L327 377 L324 377 L172 700 L56 700 L264 277 L235 0 Z " />
<glyph glyph-name="Z" unicode="Z" horiz-adv-x="573" d="M566 700 L105 700 L94 604 L428 604 L32 81 L23 0 L500 0 L511 96 L162 96 L558 619 L566 700 Z " />
<glyph glyph-name="bracketleft" unicode="&#x5b;" horiz-adv-x="366" d="M376 653 L385 742 L144 742 L54 -114 L295 -114 L305 -25 L161 -25 L233 653 L376 653 Z " />
<glyph glyph-name="backslash" unicode="&#x5c;" horiz-adv-x="497" d="M352 -92 L449 -92 L163 742 L66 742 L352 -92 Z " />
<glyph glyph-name="bracketright" unicode="&#x5d;" horiz-adv-x="367" d="M88 742 L78 653 L222 653 L150 -25 L7 -25 L-2 -114 L238 -114 L328 742 L88 742 Z " />
<glyph glyph-name="asciicircum" unicode="&#x5e;" horiz-adv-x="586" d="M569 349 L387 676 L291 676 L40 349 L157 349 L334 588 L460 349 L569 349 Z " />
<glyph glyph-name="underscore" unicode="&#x5f;" horiz-adv-x="417" d="M-29 -137 L368 -137 L377 -53 L-20 -53 L-29 -137 Z " />
<glyph glyph-name="grave" unicode="&#x60;" horiz-adv-x="600" d="M319 545 L405 545 L351 688 L233 688 L319 545 Z " />
<glyph glyph-name="a" unicode="a" horiz-adv-x="598" d="M458 473 L446 411 L443 411 C417 455 360 485 294 485 C153 485 44 361 44 204 C44 75 127 -12 242 -12 C311 -12 375 18 406 62 L409 62 L408 0 L498 0 L549 473 L458 473 Z M270 76 C195 76 147 126 147 211 C147 319 210 398 305 398 C382 398 430 347 430 262 C430 157 368 76 270 76 L270 76 Z " />
<glyph glyph-name="b" unicode="b" horiz-adv-x="597" d="M355 485 C292 485 229 457 196 413 L193 413 L223 700 L123 700 L49 0 L140 0 L152 62 L155 62 C179 18 237 -12 304 -12 C450 -12 554 118 554 268 C554 397 468 485 355 485 L355 485 Z M293 76 C216 76 169 126 169 210 C169 315 230 398 330 398 C406 398 452 347 452 263 C452 164 395 76 293 76 L293 76 Z " />
<glyph glyph-name="c" unicode="c" horiz-adv-x="549" d="M264 -12 C386 -12 483 59 508 178 L408 178 C391 115 334 75 270 75 C196 75 146 127 146 212 C146 314 209 398 307 398 C373 398 414 358 416 295 L519 295 C518 415 433 485 315 485 C157 485 43 362 43 206 C43 76 131 -12 264 -12 L264 -12 Z " />
<glyph glyph-name="d" unicode="d" horiz-adv-x="598" d="M472 700 L442 413 L439 413 C413 457 356 485 293 485 C151 485 44 357 44 204 C44 75 126 -12 242 -12 C311 -12 374 18 406 62 L409 62 L408 0 L498 0 L572 700 L472 700 Z M268 76 C192 76 146 126 146 210 C146 309 205 398 307 398 C384 398 429 348 429 264 C429 161 370 76 268 76 L268 76 Z " />
<glyph glyph-name="e" unicode="e" horiz-adv-x="559" d="M510 213 C515 237 518 259 518 282 C518 407 434 485 313 485 C156 485 43 358 43 201 C43 73 132 -12 264 -12 C375 -12 465 46 499 143 L403 143 C376 98 328 73 272 73 C195 73 142 119 142 208 L142 213 L510 213 Z M306 403 C374 403 418 366 420 286 L154 286 C176 353 228 403 306 403 L306 403 Z " />
<glyph glyph-name="f" unicode="f" horiz-adv-x="352" d="M334 625 C350 625 363 623 373 621 L381 704 C365 709 343 712 320 712 C209 712 147 649 134 526 L128 473 L43 473 L34 388 L119 388 L78 0 L178 0 L219 388 L345 388 L354 473 L228 473 L234 528 C241 598 273 625 334 625 L334 625 Z " />
<glyph glyph-name="g" unicode="g" horiz-adv-x="600" d="M460 473 L447 411 L444 411 C419 455 359 485 293 485 C150 485 46 356 46 210 C46 84 129 -2 244 -2 C313 -2 377 27 409 71 L412 71 L404 -3 C394 -94 332 -150 241 -150 C167 -150 126 -114 125 -51 L23 -51 C20 -167 105 -236 237 -236 C388 -236 485 -148 500 0 L550 473 L460 473 Z M272 84 C197 84 149 135 149 217 C149 318 211 398 308 398 C383 398 430 347 430 266 C430 165 369 84 272 84 L272 84 Z " />
<glyph glyph-name="h" unicode="h" horiz-adv-x="565" d="M352 485 C288 485 234 458 196 412 L193 412 L223 700 L123 700 L49 0 L149 0 L176 257 C187 350 239 396 312 396 C370 396 399 369 399 298 C399 287 398 276 397 263 L369 0 L469 0 L501 298 C502 308 503 318 503 327 C503 428 443 485 352 485 L352 485 Z " />
<glyph glyph-name="i" unicode="i" horiz-adv-x="249" d="M158 553 C200 553 231 586 231 626 C231 660 206 685 171 685 C132 685 98 655 98 612 C98 577 124 553 158 553 L158 553 Z M49 0 L149 0 L200 473 L100 473 L49 0 Z " />
<glyph glyph-name="j" unicode="j" horiz-adv-x="249" d="M158 553 C200 553 231 586 231 626 C231 660 206 685 171 685 C132 685 98 655 98 612 C98 577 124 553 158 553 L158 553 Z M-18 -236 C84 -236 129 -190 141 -78 L200 473 L100 473 L41 -75 C36 -131 15 -149 -31 -149 C-42 -149 -52 -148 -60 -147 L-69 -231 C-55 -234 -39 -236 -18 -236 L-18 -236 Z " />
<glyph glyph-name="k" unicode="k" horiz-adv-x="515" d="M526 473 L398 473 L181 276 L179 276 L223 700 L123 700 L49 0 L149 0 L173 218 L176 218 L359 0 L482 0 L276 246 L526 473 Z " />
<glyph glyph-name="l" unicode="l" horiz-adv-x="249" d="M49 0 L149 0 L223 700 L123 700 L49 0 Z " />
<glyph glyph-name="m" unicode="m" horiz-adv-x="857" d="M649 485 C579 485 513 451 476 400 L473 400 C453 456 403 485 346 485 C286 485 227 457 192 411 L189 411 L190 473 L100 473 L49 0 L149 0 L176 258 C186 348 239 396 306 396 C359 396 385 368 385 302 C385 292 385 279 384 266 L356 0 L456 0 L483 258 C492 347 544 396 611 396 C665 396 692 367 692 301 C692 291 692 278 690 266 L662 0 L762 0 L794 298 C795 308 795 318 795 327 C795 430 736 485 649 485 L649 485 Z " />
<glyph glyph-name="n" unicode="n" horiz-adv-x="565" d="M352 485 C289 485 230 457 192 411 L189 411 L190 473 L100 473 L49 0 L149 0 L176 257 C187 350 239 396 312 396 C370 396 399 369 399 298 C399 287 398 276 397 263 L369 0 L469 0 L501 298 C502 308 503 318 503 327 C503 429 442 485 352 485 L352 485 Z " />
<glyph glyph-name="o" unicode="o" horiz-adv-x="580" d="M266 -12 C422 -12 537 112 537 267 C537 397 444 485 314 485 C158 485 43 361 43 206 C43 77 135 -12 266 -12 L266 -12 Z M273 75 C197 75 146 129 146 213 C146 314 211 398 307 398 C383 398 434 345 434 260 C434 159 369 75 273 75 L273 75 Z " />
<glyph glyph-name="p" unicode="p" horiz-adv-x="598" d="M356 485 C287 485 227 455 192 411 L189 411 L190 473 L100 473 L26 -224 L126 -224 L156 60 L159 60 C183 16 240 -12 304 -12 C446 -12 554 115 554 269 C554 398 470 485 356 485 L356 485 Z M292 76 C218 76 169 126 169 211 C169 315 233 398 331 398 C405 398 451 347 451 263 C451 158 390 76 292 76 L292 76 Z " />
<glyph glyph-name="q" unicode="q" horiz-adv-x="598" d="M458 473 L445 411 L442 411 C416 455 359 485 294 485 C148 485 43 358 43 206 C43 76 127 -12 242 -12 C307 -12 370 16 402 60 L405 60 L375 -224 L475 -224 L548 473 L458 473 Z M273 76 C198 76 146 127 146 213 C146 314 205 398 302 398 C376 398 428 346 428 260 C428 159 369 76 273 76 L273 76 Z " />
<glyph glyph-name="r" unicode="r" horiz-adv-x="374" d="M330 482 C275 482 222 452 191 401 L188 401 L189 473 L100 473 L49 0 L149 0 L175 239 C185 340 238 388 325 388 C338 388 352 387 366 385 L376 474 C363 479 347 482 330 482 L330 482 Z " />
<glyph glyph-name="s" unicode="s" horiz-adv-x="464" d="M214 -12 C335 -12 419 56 419 157 C419 218 379 257 291 275 L235 286 C169 299 153 315 153 338 C153 377 189 406 248 406 C304 406 332 381 332 341 L430 341 C430 433 366 485 257 485 C145 485 55 422 55 323 C55 265 97 226 182 209 L239 198 C300 186 320 166 320 140 C320 97 279 68 220 68 C164 68 130 95 129 145 L30 145 C28 48 98 -12 214 -12 L214 -12 Z " />
<glyph glyph-name="t" unicode="t" horiz-adv-x="367" d="M215 387 L345 387 L355 473 L224 473 L236 591 L136 591 L124 473 L41 473 L32 387 L115 387 L92 167 C91 154 90 141 90 129 C90 29 143 -12 241 -12 C269 -12 291 -9 308 -5 L316 78 C302 75 286 74 272 74 C207 74 184 96 193 170 L215 387 Z " />
<glyph glyph-name="u" unicode="u" horiz-adv-x="559" d="M410 473 L383 217 C373 123 318 78 248 78 C195 78 166 104 166 175 C166 186 167 197 168 211 L196 473 L96 473 L64 175 C63 165 62 155 62 147 C62 44 124 -12 211 -12 C271 -12 331 16 367 62 L370 62 L369 0 L460 0 L510 473 L410 473 Z " />
<glyph glyph-name="v" unicode="v" horiz-adv-x="503" d="M174 0 L278 0 L517 473 L409 473 L238 120 L235 120 L139 473 L36 473 L174 0 Z " />
<glyph glyph-name="w" unicode="w" horiz-adv-x="794" d="M150 0 L253 0 L408 344 L410 344 L491 0 L594 0 L799 473 L698 473 L556 130 L553 130 L470 473 L374 473 L218 130 L215 130 L146 473 L45 473 L150 0 Z " />
<glyph glyph-name="x" unicode="x" horiz-adv-x="495" d="M495 473 L382 473 L253 316 L157 473 L51 473 L190 244 L-9 0 L105 0 L244 172 L347 0 L454 0 L307 245 L495 473 Z " />
<glyph glyph-name="y" unicode="y" horiz-adv-x="504" d="M413 473 L240 120 L237 120 L141 473 L36 473 L175 2 L62 -224 L166 -224 L519 473 L413 473 Z " />
<glyph glyph-name="z" unicode="z" horiz-adv-x="450" d="M432 473 L66 473 L57 387 L294 387 L19 68 L12 0 L388 0 L397 87 L151 87 L425 405 L432 473 Z " />
<glyph glyph-name="braceleft" unicode="&#x7b;" horiz-adv-x="376" d="M219 -114 L304 -114 L314 -25 L242 -25 C203 -25 185 -8 190 32 L207 205 C214 261 193 297 148 312 L149 316 C196 331 225 367 230 423 L249 596 C253 636 274 653 313 653 L385 653 L394 742 L309 742 C210 742 160 699 151 611 L130 417 C126 377 105 359 60 359 L49 359 L39 269 L50 269 C96 269 112 251 108 211 L89 17 C79 -71 120 -114 219 -114 L219 -114 Z " />
<glyph glyph-name="bar" unicode="&#x7c;" horiz-adv-x="317" d="M76 -100 L170 -100 L261 765 L167 765 L76 -100 Z " />
<glyph glyph-name="braceright" unicode="&#x7d;" horiz-adv-x="377" d="M173 742 L88 742 L78 653 L150 653 C189 653 207 636 202 596 L185 423 C179 367 199 331 244 316 L244 312 C196 297 167 261 162 205 L144 32 C140 -8 118 -25 80 -25 L7 -25 L-2 -114 L83 -114 C182 -114 233 -71 242 17 L262 211 C267 251 287 269 333 269 L344 269 L353 359 L342 359 C296 359 280 377 284 417 L304 611 C314 699 272 742 173 742 L173 742 Z " />
<glyph glyph-name="asciitilde" unicode="&#x7e;" horiz-adv-x="650" d="M431 251 C474 251 511 264 553 291 L562 381 C530 357 483 339 439 339 C372 339 308 382 238 382 C198 382 155 370 115 342 L105 252 C153 282 188 294 227 294 C300 294 358 251 431 251 L431 251 Z " />
<glyph glyph-name="uni00A0" unicode="&#xa0;" horiz-adv-x="237" d="" />
<glyph glyph-name="exclamdown" unicode="&#xa1;" horiz-adv-x="283" d="M157 345 C197 345 230 377 230 423 C230 459 203 485 165 485 C121 485 90 451 90 407 C90 371 119 345 157 345 L157 345 Z M41 -222 L146 -222 L184 255 L104 255 L41 -222 Z " />
<glyph glyph-name="cent" unicode="&#xa2;" horiz-adv-x="562" d="M311 187 L345 514 C405 507 439 469 441 411 L537 411 C536 519 463 588 354 597 L365 700 L307 700 L296 596 C158 580 60 462 60 318 C60 202 132 120 244 105 L233 0 L291 0 L302 103 C417 109 504 180 526 289 L432 289 C420 232 372 195 311 187 L311 187 Z M159 325 C159 417 208 492 287 511 L253 189 C195 202 159 251 159 325 L159 325 Z " />
<glyph glyph-name="sterling" unicode="&#xa3;" horiz-adv-x="540" d="M532 498 C544 636 465 712 343 712 C213 712 111 627 111 502 C111 455 127 415 143 374 L147 364 L62 364 L55 289 L170 289 C172 278 173 267 173 255 C173 168 116 111 28 66 L21 0 L480 0 L489 89 L190 89 C241 128 271 185 271 251 C271 264 270 277 268 289 L427 289 L435 364 L248 364 L239 390 C225 429 211 467 211 504 C211 578 263 628 337 628 C407 628 441 585 433 498 L532 498 Z " />
<glyph glyph-name="currency" unicode="&#xa4;" horiz-adv-x="549" d="M483 370 C483 403 475 433 460 460 L542 534 L494 588 L411 513 C382 533 345 545 302 545 C259 545 219 533 187 512 L124 582 L70 534 L134 463 C107 427 91 381 91 330 C91 297 99 266 113 240 L32 166 L80 112 L161 187 C190 167 226 155 269 155 C313 155 352 167 386 189 L449 118 L503 166 L439 238 C467 274 483 320 483 370 L483 370 Z M275 239 C216 239 179 277 179 335 C179 403 226 461 298 461 C357 461 394 424 394 366 C394 296 348 239 275 239 L275 239 Z " />
<glyph glyph-name="yen" unicode="&#xa5;" horiz-adv-x="566" d="M597 700 L487 700 L296 389 L170 700 L66 700 L216 350 L68 350 L60 283 L239 283 L230 198 L52 198 L44 131 L222 131 L208 0 L307 0 L321 131 L499 131 L506 198 L328 198 L337 283 L515 283 L522 350 L374 350 L597 700 Z " />
<glyph glyph-name="brokenbar" unicode="&#xa6;" horiz-adv-x="317" d="M129 406 L223 406 L261 765 L167 765 L129 406 Z M76 -100 L170 -100 L207 251 L113 251 L76 -100 Z " />
<glyph glyph-name="section" unicode="&#xa7;" horiz-adv-x="541" d="M498 535 C500 646 425 712 310 712 C190 712 93 640 93 527 C93 477 118 438 168 412 C106 389 64 329 64 259 C64 183 117 144 205 124 L260 112 C335 95 357 70 357 39 C357 -10 306 -43 244 -43 C179 -43 144 -10 147 55 L45 55 C37 -65 119 -132 240 -132 C362 -132 460 -60 460 51 C460 101 435 142 384 168 C447 191 488 251 488 322 C488 397 434 437 346 457 L292 469 C218 485 195 508 195 540 C195 593 244 623 304 623 C365 623 397 593 396 535 L498 535 Z M274 381 L305 374 C364 360 386 341 386 305 C386 244 332 186 279 199 L248 207 C189 220 166 239 166 276 C166 337 220 394 274 381 L274 381 Z " />
<glyph glyph-name="dieresis" unicode="&#xa8;" horiz-adv-x="600" d="M234 553 C272 553 303 585 303 623 C303 656 278 680 245 680 C209 680 176 651 176 609 C176 577 202 553 234 553 L234 553 Z M435 553 C472 553 504 585 504 623 C504 656 478 680 446 680 C410 680 377 651 377 609 C377 577 402 553 435 553 L435 553 Z " />
<glyph glyph-name="copyright" unicode="&#xa9;" horiz-adv-x="830" d="M391 -12 C609 -12 794 169 794 386 C794 570 654 712 463 712 C245 712 60 531 60 314 C60 130 200 -12 391 -12 L391 -12 Z M396 58 C241 58 136 171 136 317 C136 491 279 642 458 642 C614 642 718 530 718 383 C718 210 575 58 396 58 L396 58 Z M416 149 C515 149 594 208 611 308 L519 308 C510 262 474 232 422 232 C369 232 332 271 332 334 C332 407 376 468 446 468 C495 468 525 438 525 392 L618 392 C617 493 552 551 454 551 C328 551 237 453 237 326 C237 221 309 149 416 149 L416 149 Z " />
<glyph glyph-name="ordfeminine" unicode="&#xaa;" horiz-adv-x="498" d="M406 702 L396 649 L392 649 C372 687 324 712 270 712 C154 712 59 608 59 471 C59 360 129 286 225 286 C283 286 334 311 360 349 L364 349 L364 296 L451 296 L494 702 L406 702 Z M255 371 C195 371 158 411 158 478 C158 564 210 626 285 626 C343 626 382 587 382 520 C382 437 333 371 255 371 L255 371 Z " />
<glyph glyph-name="guillemotleft" unicode="&#xab;" horiz-adv-x="576" d="M333 501 L221 501 L47 285 L178 70 L288 70 L158 281 L333 501 Z M557 501 L445 501 L271 285 L402 70 L511 70 L381 280 L557 501 Z " />
<glyph glyph-name="logicalnot" unicode="&#xac;" horiz-adv-x="650" d="M117 362 L108 272 L457 272 L445 168 L539 168 L560 362 L117 362 Z " />
<glyph glyph-name="registered" unicode="&#xae;" horiz-adv-x="470" d="M283 712 C163 712 61 609 61 489 C61 388 140 309 245 309 C365 309 467 412 467 531 C467 633 389 712 283 712 L283 712 Z M248 351 C165 351 107 413 107 493 C107 588 186 669 281 669 C363 669 420 607 420 528 C420 433 342 351 248 351 L248 351 Z M359 556 C359 595 333 620 288 620 L196 620 L173 407 L222 407 L230 480 L253 480 L294 407 L350 407 L303 482 C339 490 359 516 359 556 L359 556 Z M279 525 L235 525 L240 571 L283 571 C298 571 306 564 306 552 C306 535 296 525 279 525 L279 525 Z " />
<glyph glyph-name="macron" unicode="&#xaf;" horiz-adv-x="600" d="M202 574 L469 574 L477 650 L210 650 L202 574 Z " />
<glyph glyph-name="degree" unicode="&#xb0;" horiz-adv-x="378" d="M209 413 C303 413 376 486 376 579 C376 655 319 712 237 712 C144 712 70 640 70 548 C70 471 126 413 209 413 L209 413 Z M216 488 C174 488 150 515 150 552 C150 597 181 638 231 638 C272 638 298 611 298 573 C298 529 267 488 216 488 L216 488 Z " />
<glyph glyph-name="plusminus" unicode="&#xb1;" horiz-adv-x="650" d="M393 427 L411 599 L316 599 L298 427 L123 427 L114 337 L288 337 L270 165 L366 165 L384 337 L557 337 L567 427 L393 427 Z M78 0 L521 0 L531 90 L88 90 L78 0 Z " />
<glyph glyph-name="uni00B2" unicode="&#xb2;" horiz-adv-x="370" d="M239 432 C315 476 371 521 371 597 C371 667 315 712 239 712 C144 712 78 654 69 559 L155 559 C163 610 193 635 233 635 C267 635 285 618 285 588 C285 547 247 522 186 486 C82 425 56 389 48 314 L43 271 L336 271 L344 349 L144 349 C154 374 178 398 239 432 L239 432 Z " />
<glyph glyph-name="uni00B3" unicode="&#xb3;" horiz-adv-x="378" d="M297 494 C344 513 370 552 370 602 C370 668 313 712 237 712 C147 712 86 657 77 574 L163 574 C168 614 194 634 231 634 C265 634 284 617 284 587 C284 549 256 527 217 527 L175 527 L168 457 L211 457 C252 457 273 438 273 409 C273 369 243 342 202 342 C164 342 138 366 143 408 L57 408 C48 316 107 264 197 264 C287 264 358 320 358 403 C358 443 337 477 297 494 L297 494 Z " />
<glyph glyph-name="acute" unicode="&#xb4;" horiz-adv-x="600" d="M251 545 L342 545 L458 688 L335 688 L251 545 Z " />
<glyph glyph-name="uni00B5" unicode="&#xb5;" horiz-adv-x="565" d="M415 473 L388 217 C379 125 329 79 262 79 C196 79 162 119 172 207 L200 473 L100 473 L26 -224 L126 -224 L153 33 C174 2 207 -12 245 -12 C298 -12 341 15 373 60 L376 60 L375 0 L465 0 L515 473 L415 473 Z " />
<glyph glyph-name="paragraph" unicode="&#xb6;" horiz-adv-x="669" d="M99 531 C99 453 158 397 263 397 L278 397 L222 -128 L321 -128 L408 700 L307 700 C191 700 99 639 99 531 L99 531 Z M508 700 L421 -128 L519 -128 L606 700 L508 700 Z " />
<glyph glyph-name="periodcentered" unicode="&#xb7;" horiz-adv-x="255" d="M133 245 C173 245 206 278 206 323 C206 359 178 386 141 386 C97 386 66 351 66 307 C66 272 95 245 133 245 L133 245 Z " />
<glyph glyph-name="cedilla" unicode="&#xb8;" horiz-adv-x="600" d="M269 -51 L275 0 L207 0 L188 -102 C254 -102 267 -111 267 -126 C267 -146 250 -160 207 -160 C197 -160 184 -159 170 -157 L164 -224 C179 -227 195 -228 209 -228 C296 -228 348 -186 348 -125 C348 -83 319 -57 269 -51 L269 -51 Z " />
<glyph glyph-name="uni00B9" unicode="&#xb9;" horiz-adv-x="286" d="M201 700 C185 657 165 642 105 642 L86 642 L79 581 L171 581 L138 266 L224 266 L270 700 L201 700 Z " />
<glyph glyph-name="ordmasculine" unicode="&#xba;" horiz-adv-x="486" d="M252 286 C384 286 482 390 482 523 C482 635 403 712 290 712 C157 712 59 608 59 475 C59 363 138 286 252 286 L252 286 Z M257 371 C199 371 158 413 158 480 C158 560 208 626 284 626 C344 626 384 583 384 516 C384 437 332 371 257 371 L257 371 Z " />
<glyph glyph-name="guillemotright" unicode="&#xbb;" horiz-adv-x="577" d="M185 501 L75 501 L205 289 L30 70 L142 70 L316 285 L185 501 Z M408 501 L299 501 L429 290 L253 70 L365 70 L539 285 L408 501 Z " />
<glyph glyph-name="onequarter" unicode="&#xbc;" horiz-adv-x="883" d="M151 266 L237 266 L283 700 L214 700 C199 657 178 642 118 642 L99 642 L92 581 L184 581 L151 266 Z M643 700 L121 0 L223 0 L745 700 L643 700 Z M809 153 L757 153 L787 434 L685 434 L469 148 L463 80 L670 80 L661 0 L741 0 L749 80 L801 80 L809 153 Z M559 153 L698 338 L678 153 L559 153 Z " />
<glyph glyph-name="onehalf" unicode="&#xbd;" horiz-adv-x="908" d="M151 266 L237 266 L283 700 L214 700 C199 657 178 642 118 642 L99 642 L92 581 L184 581 L151 266 Z M640 700 L118 0 L220 0 L742 700 L640 700 Z M719 161 C795 205 852 250 852 326 C852 396 796 441 719 441 C624 441 559 383 549 288 L636 288 C643 339 674 364 714 364 C747 364 766 347 766 317 C766 276 728 251 666 215 C562 154 536 118 528 43 L524 0 L817 0 L824 78 L624 78 C635 103 659 127 719 161 L719 161 Z " />
<glyph glyph-name="threequarters" unicode="&#xbe;" horiz-adv-x="977" d="M380 403 C380 443 359 477 319 494 C365 513 391 552 391 602 C391 668 335 712 259 712 C168 712 108 657 98 574 L184 574 C190 614 216 634 252 634 C286 634 306 617 306 587 C306 549 278 527 239 527 L197 527 L190 457 L233 457 C274 457 295 438 295 409 C295 369 265 342 224 342 C185 342 160 366 164 408 L78 408 C70 316 128 264 219 264 C309 264 380 320 380 403 L380 403 Z M738 700 L216 0 L318 0 L839 700 L738 700 Z M903 153 L852 153 L882 434 L779 434 L564 148 L557 80 L764 80 L756 0 L836 0 L844 80 L896 80 L903 153 Z M654 153 L791 336 L772 153 L654 153 Z " />
<glyph glyph-name="questiondown" unicode="&#xbf;" horiz-adv-x="493" d="M292 486 C252 486 219 454 219 408 C219 372 247 346 285 346 C328 346 360 381 360 424 C360 460 330 486 292 486 L292 486 Z M323 256 L223 256 L218 213 C214 171 207 158 169 129 L118 89 C56 42 11 -12 11 -83 C11 -173 86 -233 192 -233 C312 -233 410 -157 422 -28 L321 -28 C313 -102 263 -144 196 -144 C142 -144 112 -116 112 -73 C112 -33 134 -8 171 20 L223 60 C293 115 311 146 318 212 L323 256 Z " />
<glyph glyph-name="Agrave" unicode="&#xc0;" horiz-adv-x="653" d="M445 768 L388 919 L263 919 L353 768 L445 768 Z M510 0 L613 0 L433 700 L318 700 L-11 0 L100 0 L176 167 L469 167 L510 0 Z M218 257 L364 577 L367 577 L446 257 L218 257 Z " />
<glyph glyph-name="Aacute" unicode="&#xc1;" horiz-adv-x="653" d="M534 919 L405 919 L315 768 L411 768 L534 919 Z M510 0 L613 0 L433 700 L318 700 L-11 0 L100 0 L176 167 L469 167 L510 0 Z M218 257 L364 577 L367 577 L446 257 L218 257 Z " />
<glyph glyph-name="Acircumflex" unicode="&#xc2;" horiz-adv-x="653" d="M394 857 L458 768 L554 768 L446 919 L350 919 L210 768 L312 768 L394 857 Z M510 0 L613 0 L433 700 L318 700 L-11 0 L100 0 L176 167 L469 167 L510 0 Z M218 257 L364 577 L367 577 L446 257 L218 257 Z " />
<glyph glyph-name="Atilde" unicode="&#xc3;" horiz-adv-x="653" d="M324 848 C337 848 349 841 371 816 C401 781 425 766 455 766 C516 766 562 815 570 915 L498 915 C492 860 475 840 457 840 C446 840 433 847 411 872 C383 908 358 922 326 922 C265 922 219 873 211 773 L286 773 C292 828 307 848 324 848 L324 848 Z M510 0 L613 0 L433 700 L318 700 L-11 0 L100 0 L176 167 L469 167 L510 0 Z M218 257 L364 577 L367 577 L446 257 L218 257 Z " />
<glyph glyph-name="Adieresis" unicode="&#xc4;" horiz-adv-x="653" d="M279 777 C319 777 353 811 353 851 C353 886 326 911 292 911 C252 911 219 876 219 836 C219 802 245 777 279 777 L279 777 Z M490 777 C530 777 563 811 563 851 C563 886 537 911 503 911 C463 911 430 876 430 836 C430 802 456 777 490 777 L490 777 Z M510 0 L613 0 L433 700 L318 700 L-11 0 L100 0 L176 167 L469 167 L510 0 Z M218 257 L364 577 L367 577 L446 257 L218 257 Z " />
<glyph glyph-name="Aring" unicode="&#xc5;" horiz-adv-x="653" d="M510 0 L613 0 L444 659 C476 681 496 717 496 757 C496 813 452 855 390 855 C320 855 263 799 263 734 C263 703 276 677 299 659 L-11 0 L100 0 L176 167 L469 167 L510 0 Z M384 790 C410 790 425 773 425 751 C425 721 404 700 375 700 C349 700 334 718 334 740 C334 769 356 790 384 790 L384 790 Z M218 257 L364 577 L367 577 L446 257 L218 257 Z " />
<glyph glyph-name="AE" unicode="&#xc6;" horiz-adv-x="1002" d="M977 604 L988 700 L494 700 L-15 0 L112 0 L238 176 L504 176 L485 0 L914 0 L924 96 L600 96 L622 304 L917 304 L927 399 L632 399 L653 604 L977 604 Z M302 266 L543 604 L549 604 L513 266 L302 266 Z " />
<glyph glyph-name="Ccedilla" unicode="&#xc7;" horiz-adv-x="760" d="M439 616 C548 616 620 555 627 441 L734 441 C735 603 613 712 445 712 C227 712 60 532 60 305 C60 136 162 16 315 -8 L298 -102 C363 -102 377 -111 377 -126 C377 -147 358 -160 316 -160 C306 -160 293 -159 280 -157 L273 -224 C289 -227 304 -228 318 -228 C397 -228 457 -192 457 -125 C457 -83 428 -57 378 -51 L383 -12 C547 -7 685 100 717 259 L612 259 C579 148 489 84 379 84 C252 84 167 169 167 310 C167 480 276 616 439 616 L439 616 Z " />
<glyph glyph-name="Egrave" unicode="&#xc8;" horiz-adv-x="584" d="M424 768 L367 919 L242 919 L332 768 L424 768 Z M559 604 L570 700 L140 700 L66 0 L496 0 L506 96 L182 96 L204 304 L499 304 L509 399 L214 399 L235 604 L559 604 Z " />
<glyph glyph-name="Eacute" unicode="&#xc9;" horiz-adv-x="584" d="M514 919 L385 919 L295 768 L391 768 L514 919 Z M559 604 L570 700 L140 700 L66 0 L496 0 L506 96 L182 96 L204 304 L499 304 L509 399 L214 399 L235 604 L559 604 Z " />
<glyph glyph-name="Ecircumflex" unicode="&#xca;" horiz-adv-x="584" d="M374 857 L438 768 L534 768 L426 919 L330 919 L190 768 L292 768 L374 857 Z M559 604 L570 700 L140 700 L66 0 L496 0 L506 96 L182 96 L204 304 L499 304 L509 399 L214 399 L235 604 L559 604 Z " />
<glyph glyph-name="Edieresis" unicode="&#xcb;" horiz-adv-x="584" d="M258 777 C298 777 332 811 332 851 C332 886 305 911 271 911 C231 911 198 876 198 836 C198 802 224 777 258 777 L258 777 Z M469 777 C509 777 542 811 542 851 C542 886 516 911 482 911 C442 911 409 876 409 836 C409 802 435 777 469 777 L469 777 Z M559 604 L570 700 L140 700 L66 0 L496 0 L506 96 L182 96 L204 304 L499 304 L509 399 L214 399 L235 604 L559 604 Z " />
<glyph glyph-name="Igrave" unicode="&#xcc;" horiz-adv-x="288" d="M170 768 L262 768 L205 919 L80 919 L170 768 Z M66 0 L171 0 L245 700 L140 700 L66 0 Z " />
<glyph glyph-name="Iacute" unicode="&#xcd;" horiz-adv-x="288" d="M133 768 L229 768 L352 919 L223 919 L133 768 Z M66 0 L171 0 L245 700 L140 700 L66 0 Z " />
<glyph glyph-name="Icircumflex" unicode="&#xce;" horiz-adv-x="288" d="M264 919 L168 919 L28 768 L130 768 L212 857 L276 768 L372 768 L264 919 Z M66 0 L171 0 L245 700 L140 700 L66 0 Z " />
<glyph glyph-name="Idieresis" unicode="&#xcf;" horiz-adv-x="288" d="M96 777 C136 777 170 811 170 851 C170 886 143 911 109 911 C69 911 36 876 36 836 C36 802 62 777 96 777 L96 777 Z M307 777 C347 777 380 811 380 851 C380 886 354 911 320 911 C280 911 247 876 247 836 C247 802 273 777 307 777 L307 777 Z M66 0 L171 0 L245 700 L140 700 L66 0 Z " />
<glyph glyph-name="Eth" unicode="&#xd0;" horiz-adv-x="701" d="M324 700 L149 700 L116 391 L15 391 L6 309 L108 309 L75 0 L253 0 C496 0 664 156 664 395 C664 584 529 700 324 700 L324 700 Z M268 96 L190 96 L211 309 L364 309 L372 391 L220 391 L241 604 L321 604 C472 604 556 529 556 390 C556 212 446 96 268 96 L268 96 Z " />
<glyph glyph-name="Ntilde" unicode="&#xd1;" horiz-adv-x="746" d="M371 848 C384 848 396 841 418 816 C448 781 472 766 502 766 C563 766 609 815 617 915 L545 915 C539 860 522 840 504 840 C493 840 480 847 458 872 C430 908 405 922 373 922 C312 922 266 873 258 773 L333 773 C339 828 354 848 371 848 L371 848 Z M599 700 L543 174 L540 174 L246 700 L140 700 L66 0 L171 0 L227 526 L230 526 L524 0 L630 0 L704 700 L599 700 Z " />
<glyph glyph-name="Ograve" unicode="&#xd2;" horiz-adv-x="794" d="M423 768 L515 768 L458 919 L333 919 L423 768 Z M375 -12 C593 -12 757 170 757 394 C757 583 627 712 443 712 C225 712 60 530 60 306 C60 117 190 -12 375 -12 L375 -12 Z M380 84 C253 84 167 171 167 311 C167 478 276 616 438 616 C567 616 650 529 650 389 C650 222 543 84 380 84 L380 84 Z " />
<glyph glyph-name="Oacute" unicode="&#xd3;" horiz-adv-x="794" d="M386 768 L482 768 L605 919 L476 919 L386 768 Z M375 -12 C593 -12 757 170 757 394 C757 583 627 712 443 712 C225 712 60 530 60 306 C60 117 190 -12 375 -12 L375 -12 Z M380 84 C253 84 167 171 167 311 C167 478 276 616 438 616 C567 616 650 529 650 389 C650 222 543 84 380 84 L380 84 Z " />
<glyph glyph-name="Ocircumflex" unicode="&#xd4;" horiz-adv-x="794" d="M465 857 L529 768 L625 768 L517 919 L421 919 L281 768 L383 768 L465 857 Z M443 712 C225 712 60 530 60 306 C60 117 190 -12 375 -12 C593 -12 757 170 757 394 C757 583 627 712 443 712 L443 712 Z M380 84 C253 84 167 171 167 311 C167 478 276 616 438 616 C567 616 650 529 650 389 C650 222 543 84 380 84 L380 84 Z " />
<glyph glyph-name="Otilde" unicode="&#xd5;" horiz-adv-x="794" d="M526 766 C587 766 633 815 641 915 L569 915 C563 860 546 840 528 840 C517 840 504 847 482 872 C454 908 429 922 397 922 C336 922 290 873 282 773 L357 773 C363 828 378 848 395 848 C408 848 420 841 442 816 C472 781 496 766 526 766 L526 766 Z M375 -12 C593 -12 757 170 757 394 C757 583 627 712 443 712 C225 712 60 530 60 306 C60 117 190 -12 375 -12 L375 -12 Z M380 84 C253 84 167 171 167 311 C167 478 276 616 438 616 C567 616 650 529 650 389 C650 222 543 84 380 84 L380 84 Z " />
<glyph glyph-name="Odieresis" unicode="&#xd6;" horiz-adv-x="794" d="M349 777 C389 777 423 811 423 851 C423 886 396 911 362 911 C322 911 289 876 289 836 C289 802 315 777 349 777 L349 777 Z M560 777 C600 777 633 811 633 851 C633 886 607 911 573 911 C533 911 500 876 500 836 C500 802 526 777 560 777 L560 777 Z M375 -12 C593 -12 757 170 757 394 C757 583 627 712 443 712 C225 712 60 530 60 306 C60 117 190 -12 375 -12 L375 -12 Z M380 84 C253 84 167 171 167 311 C167 478 276 616 438 616 C567 616 650 529 650 389 C650 222 543 84 380 84 L380 84 Z " />
<glyph glyph-name="multiply" unicode="&#xd7;" horiz-adv-x="650" d="M559 464 L504 526 L340 378 L206 526 L140 465 L272 317 L109 170 L163 108 L327 256 L460 108 L528 169 L395 317 L559 464 Z " />
<glyph glyph-name="Oslash" unicode="&#xd8;" horiz-adv-x="807" d="M806 648 L751 709 L667 633 C612 683 537 712 449 712 C231 712 66 530 66 306 C66 239 82 180 112 131 L24 52 L80 -9 L164 67 C219 17 294 -12 381 -12 C600 -12 764 170 764 394 C764 461 748 520 718 569 L806 648 Z M445 616 C504 616 554 597 591 563 L194 204 C181 235 174 271 174 311 C174 478 282 616 445 616 L445 616 Z M386 84 C327 84 277 103 240 137 L637 496 C650 465 657 429 657 389 C657 222 549 84 386 84 L386 84 Z " />
<glyph glyph-name="Ugrave" unicode="&#xd9;" horiz-adv-x="702" d="M377 768 L469 768 L412 919 L287 919 L377 768 Z M325 -12 C491 -12 606 97 624 274 L669 700 L564 700 L520 273 C506 150 434 85 333 85 C242 85 189 138 189 237 C189 249 190 260 191 273 L235 700 L131 700 L86 274 C84 259 84 245 84 232 C84 80 175 -12 325 -12 L325 -12 Z " />
<glyph glyph-name="Uacute" unicode="&#xda;" horiz-adv-x="702" d="M340 768 L436 768 L559 919 L430 919 L340 768 Z M325 -12 C491 -12 606 97 624 274 L669 700 L564 700 L520 273 C506 150 434 85 333 85 C242 85 189 138 189 237 C189 249 190 260 191 273 L235 700 L131 700 L86 274 C84 259 84 245 84 232 C84 80 175 -12 325 -12 L325 -12 Z " />
<glyph glyph-name="Ucircumflex" unicode="&#xdb;" horiz-adv-x="702" d="M419 857 L483 768 L579 768 L471 919 L375 919 L235 768 L337 768 L419 857 Z M564 700 L520 273 C506 150 434 85 333 85 C242 85 189 138 189 237 C189 249 190 260 191 273 L235 700 L131 700 L86 274 C84 259 84 245 84 232 C84 80 175 -12 325 -12 C491 -12 606 97 624 274 L669 700 L564 700 Z " />
<glyph glyph-name="Udieresis" unicode="&#xdc;" horiz-adv-x="702" d="M303 777 C343 777 377 811 377 851 C377 886 350 911 316 911 C276 911 243 876 243 836 C243 802 269 777 303 777 L303 777 Z M514 777 C554 777 587 811 587 851 C587 886 561 911 527 911 C487 911 454 876 454 836 C454 802 480 777 514 777 L514 777 Z M325 -12 C491 -12 606 97 624 274 L669 700 L564 700 L520 273 C506 150 434 85 333 85 C242 85 189 138 189 237 C189 249 190 260 191 273 L235 700 L131 700 L86 274 C84 259 84 245 84 232 C84 80 175 -12 325 -12 L325 -12 Z " />
<glyph glyph-name="Yacute" unicode="&#xdd;" horiz-adv-x="625" d="M301 768 L397 768 L520 919 L391 919 L301 768 Z M235 0 L340 0 L369 277 L667 700 L548 700 L327 377 L324 377 L172 700 L56 700 L264 277 L235 0 Z " />
<glyph glyph-name="Thorn" unicode="&#xde;" horiz-adv-x="637" d="M351 587 L233 587 L245 700 L140 700 L66 0 L171 0 L183 111 L302 111 C481 111 603 210 603 379 C603 507 508 587 351 587 L351 587 Z M304 207 L193 207 L223 490 L337 490 C449 490 494 450 494 372 C494 258 424 207 304 207 L304 207 Z " />
<glyph glyph-name="germandbls" unicode="&#xdf;" horiz-adv-x="581" d="M297 -12 C435 -12 534 72 534 204 C534 287 483 343 399 357 L399 359 C481 382 530 456 530 544 C530 646 452 712 335 712 C200 712 116 631 101 490 L49 0 L149 0 L201 486 C210 581 255 624 332 624 C396 624 430 594 430 535 C430 449 380 395 287 395 L269 395 L260 304 L313 304 C393 304 433 269 433 207 C433 121 375 76 286 76 C267 76 250 78 232 83 L223 -3 C245 -9 272 -12 297 -12 L297 -12 Z " />
<glyph glyph-name="agrave" unicode="&#xe0;" horiz-adv-x="598" d="M390 545 L336 688 L218 688 L304 545 L390 545 Z M458 473 L446 411 L443 411 C417 455 360 485 294 485 C153 485 44 361 44 204 C44 75 127 -12 242 -12 C311 -12 375 18 406 62 L409 62 L408 0 L498 0 L549 473 L458 473 Z M270 76 C195 76 147 126 147 211 C147 319 210 398 305 398 C382 398 430 347 430 262 C430 157 368 76 270 76 L270 76 Z " />
<glyph glyph-name="aacute" unicode="&#xe1;" horiz-adv-x="598" d="M480 688 L357 688 L273 545 L364 545 L480 688 Z M458 473 L446 411 L443 411 C417 455 360 485 294 485 C153 485 44 361 44 204 C44 75 127 -12 242 -12 C311 -12 375 18 406 62 L409 62 L408 0 L498 0 L549 473 L458 473 Z M270 76 C195 76 147 126 147 211 C147 319 210 398 305 398 C382 398 430 347 430 262 C430 157 368 76 270 76 L270 76 Z " />
<glyph glyph-name="acircumflex" unicode="&#xe2;" horiz-adv-x="598" d="M346 630 L406 545 L497 545 L395 688 L304 688 L171 545 L268 545 L346 630 Z M458 473 L446 411 L443 411 C417 455 360 485 294 485 C153 485 44 361 44 204 C44 75 127 -12 242 -12 C311 -12 375 18 406 62 L409 62 L408 0 L498 0 L549 473 L458 473 Z M270 76 C195 76 147 126 147 211 C147 319 210 398 305 398 C382 398 430 347 430 262 C430 157 368 76 270 76 L270 76 Z " />
<glyph glyph-name="atilde" unicode="&#xe3;" horiz-adv-x="598" d="M280 621 C292 621 304 614 324 590 C353 558 375 543 403 543 C460 543 504 590 512 684 L444 684 C438 632 422 614 405 614 C395 614 382 619 362 644 C336 677 312 691 282 691 C225 691 182 644 173 550 L244 550 C250 602 266 621 280 621 L280 621 Z M458 473 L446 411 L443 411 C417 455 360 485 294 485 C153 485 44 361 44 204 C44 75 127 -12 242 -12 C311 -12 375 18 406 62 L409 62 L408 0 L498 0 L549 473 L458 473 Z M270 76 C195 76 147 126 147 211 C147 319 210 398 305 398 C382 398 430 347 430 262 C430 157 368 76 270 76 L270 76 Z " />
<glyph glyph-name="adieresis" unicode="&#xe4;" horiz-adv-x="598" d="M236 553 C274 553 305 585 305 623 C305 656 280 680 247 680 C211 680 178 651 178 609 C178 577 204 553 236 553 L236 553 Z M437 553 C474 553 506 585 506 623 C506 656 480 680 448 680 C412 680 379 651 379 609 C379 577 404 553 437 553 L437 553 Z M458 473 L446 411 L443 411 C417 455 360 485 294 485 C153 485 44 361 44 204 C44 75 127 -12 242 -12 C311 -12 375 18 406 62 L409 62 L408 0 L498 0 L549 473 L458 473 Z M270 76 C195 76 147 126 147 211 C147 319 210 398 305 398 C382 398 430 347 430 262 C430 157 368 76 270 76 L270 76 Z " />
<glyph glyph-name="aring" unicode="&#xe5;" horiz-adv-x="598" d="M336 538 C402 538 453 590 453 650 C453 702 410 741 353 741 C288 741 236 690 236 629 C236 577 279 538 336 538 L336 538 Z M349 681 C373 681 386 666 386 645 C386 617 368 598 340 598 C316 598 302 613 302 635 C302 659 320 681 349 681 L349 681 Z M458 473 L446 411 L443 411 C417 455 360 485 294 485 C153 485 44 361 44 204 C44 75 127 -12 242 -12 C311 -12 375 18 406 62 L409 62 L408 0 L498 0 L549 473 L458 473 Z M270 76 C195 76 147 126 147 211 C147 319 210 398 305 398 C382 398 430 347 430 262 C430 157 368 76 270 76 L270 76 Z " />
<glyph glyph-name="ae" unicode="&#xe6;" horiz-adv-x="888" d="M839 213 C844 230 849 264 849 283 C849 407 766 485 648 485 C576 485 511 458 463 409 L460 409 C436 460 383 485 302 485 C173 485 90 422 76 319 L177 319 C186 371 226 401 296 401 C368 401 398 369 390 295 L388 280 L276 280 C146 280 39 230 39 116 C39 40 103 -12 202 -12 C293 -12 370 25 410 86 L413 86 C444 25 512 -12 593 -12 C702 -12 793 46 827 143 L732 143 C702 98 655 73 600 73 C529 73 479 119 479 207 L479 213 L839 213 Z M642 401 C705 401 748 365 750 287 L492 287 C515 353 568 401 642 401 L642 401 Z M221 71 C170 71 142 91 142 128 C142 183 196 205 270 205 L380 205 L380 203 C372 127 309 71 221 71 L221 71 Z " />
<glyph glyph-name="ccedilla" unicode="&#xe7;" horiz-adv-x="549" d="M270 75 C196 75 146 127 146 212 C146 314 209 398 307 398 C373 398 414 358 416 295 L519 295 C518 415 433 485 315 485 C157 485 43 362 43 206 C43 95 108 14 210 -7 L192 -102 C258 -102 271 -111 271 -126 C271 -146 254 -160 211 -160 C201 -160 188 -159 174 -157 L168 -224 C183 -227 199 -228 213 -228 C300 -228 352 -186 352 -125 C352 -83 323 -57 273 -51 L278 -12 C393 -7 484 63 508 178 L408 178 C391 115 334 75 270 75 L270 75 Z " />
<glyph glyph-name="egrave" unicode="&#xe8;" horiz-adv-x="559" d="M376 545 L322 688 L204 688 L290 545 L376 545 Z M510 213 C515 237 518 259 518 282 C518 407 434 485 313 485 C156 485 43 358 43 201 C43 73 132 -12 264 -12 C375 -12 465 46 499 143 L403 143 C376 98 328 73 272 73 C195 73 142 119 142 208 L142 213 L510 213 Z M306 403 C374 403 418 366 420 286 L154 286 C176 353 228 403 306 403 L306 403 Z " />
<glyph glyph-name="eacute" unicode="&#xe9;" horiz-adv-x="559" d="M466 688 L343 688 L259 545 L350 545 L466 688 Z M510 213 C515 237 518 259 518 282 C518 407 434 485 313 485 C156 485 43 358 43 201 C43 73 132 -12 264 -12 C375 -12 465 46 499 143 L403 143 C376 98 328 73 272 73 C195 73 142 119 142 208 L142 213 L510 213 Z M306 403 C374 403 418 366 420 286 L154 286 C176 353 228 403 306 403 L306 403 Z " />
<glyph glyph-name="ecircumflex" unicode="&#xea;" horiz-adv-x="559" d="M332 630 L392 545 L483 545 L381 688 L290 688 L157 545 L254 545 L332 630 Z M510 213 C515 237 518 259 518 282 C518 407 434 485 313 485 C156 485 43 358 43 201 C43 73 132 -12 264 -12 C375 -12 465 46 499 143 L403 143 C376 98 328 73 272 73 C195 73 142 119 142 208 L142 213 L510 213 Z M306 403 C374 403 418 366 420 286 L154 286 C176 353 228 403 306 403 L306 403 Z " />
<glyph glyph-name="edieresis" unicode="&#xeb;" horiz-adv-x="559" d="M222 553 C260 553 291 585 291 623 C291 656 266 680 233 680 C197 680 164 651 164 609 C164 577 190 553 222 553 L222 553 Z M423 553 C460 553 492 585 492 623 C492 656 466 680 434 680 C398 680 365 651 365 609 C365 577 390 553 423 553 L423 553 Z M510 213 C515 237 518 259 518 282 C518 407 434 485 313 485 C156 485 43 358 43 201 C43 73 132 -12 264 -12 C375 -12 465 46 499 143 L403 143 C376 98 328 73 272 73 C195 73 142 119 142 208 L142 213 L510 213 Z M306 403 C374 403 418 366 420 286 L154 286 C176 353 228 403 306 403 L306 403 Z " />
<glyph glyph-name="igrave" unicode="&#xec;" horiz-adv-x="249" d="M127 545 L213 545 L179 688 L61 688 L127 545 Z M49 0 L149 0 L200 473 L100 473 L49 0 Z " />
<glyph glyph-name="iacute" unicode="&#xed;" horiz-adv-x="249" d="M95 545 L186 545 L282 688 L160 688 L95 545 Z M49 0 L149 0 L200 473 L100 473 L49 0 Z " />
<glyph glyph-name="icircumflex" unicode="&#xee;" horiz-adv-x="249" d="M212 688 L131 688 L9 545 L101 545 L168 625 L218 545 L304 545 L212 688 Z M49 0 L149 0 L200 473 L100 473 L49 0 Z " />
<glyph glyph-name="idieresis" unicode="&#xef;" horiz-adv-x="249" d="M69 554 C109 554 140 587 140 626 C140 660 115 684 82 684 C45 684 12 654 12 611 C12 577 36 554 69 554 L69 554 Z M247 554 C287 554 318 587 318 626 C318 660 293 684 260 684 C223 684 190 654 190 611 C190 577 214 554 247 554 L247 554 Z M49 0 L149 0 L200 473 L100 473 L49 0 Z " />
<glyph glyph-name="eth" unicode="&#xf0;" horiz-adv-x="578" d="M429 627 L517 686 L487 731 L387 663 C346 695 298 719 242 734 L206 659 C246 645 280 630 310 611 L222 551 L250 506 L355 577 C400 535 428 482 440 415 C407 457 357 476 303 476 C157 476 43 351 43 207 C43 89 126 -12 263 -12 C344 -12 412 22 457 75 C517 144 541 236 541 333 C541 449 502 552 429 627 L429 627 Z M272 75 C192 75 144 134 144 212 C144 309 210 389 305 389 C385 389 435 334 435 254 C435 158 367 75 272 75 L272 75 Z " />
<glyph glyph-name="ntilde" unicode="&#xf1;" horiz-adv-x="565" d="M264 621 C276 621 288 614 308 590 C337 558 359 543 387 543 C444 543 488 590 496 684 L428 684 C422 632 406 614 389 614 C379 614 366 619 346 644 C320 677 296 691 266 691 C209 691 166 644 157 550 L228 550 C234 602 250 621 264 621 L264 621 Z M352 485 C289 485 230 457 192 411 L189 411 L190 473 L100 473 L49 0 L149 0 L176 257 C187 350 239 396 312 396 C370 396 399 369 399 298 C399 287 398 276 397 263 L369 0 L469 0 L501 298 C502 308 503 318 503 327 C503 429 442 485 352 485 L352 485 Z " />
<glyph glyph-name="ograve" unicode="&#xf2;" horiz-adv-x="580" d="M292 545 L378 545 L324 688 L206 688 L292 545 Z M266 -12 C422 -12 537 112 537 267 C537 397 444 485 314 485 C158 485 43 361 43 206 C43 77 135 -12 266 -12 L266 -12 Z M273 75 C197 75 146 129 146 213 C146 314 211 398 307 398 C383 398 434 345 434 260 C434 159 369 75 273 75 L273 75 Z " />
<glyph glyph-name="oacute" unicode="&#xf3;" horiz-adv-x="580" d="M261 545 L352 545 L468 688 L345 688 L261 545 Z M266 -12 C422 -12 537 112 537 267 C537 397 444 485 314 485 C158 485 43 361 43 206 C43 77 135 -12 266 -12 L266 -12 Z M273 75 C197 75 146 129 146 213 C146 314 211 398 307 398 C383 398 434 345 434 260 C434 159 369 75 273 75 L273 75 Z " />
<glyph glyph-name="ocircumflex" unicode="&#xf4;" horiz-adv-x="580" d="M334 630 L394 545 L485 545 L383 688 L292 688 L159 545 L256 545 L334 630 Z M314 485 C158 485 43 361 43 206 C43 77 135 -12 266 -12 C422 -12 537 112 537 267 C537 397 444 485 314 485 L314 485 Z M273 75 C197 75 146 129 146 213 C146 314 211 398 307 398 C383 398 434 345 434 260 C434 159 369 75 273 75 L273 75 Z " />
<glyph glyph-name="otilde" unicode="&#xf5;" horiz-adv-x="580" d="M391 543 C448 543 492 590 500 684 L432 684 C426 632 410 614 393 614 C383 614 370 619 350 644 C324 677 300 691 270 691 C213 691 170 644 161 550 L232 550 C238 602 254 621 268 621 C280 621 292 614 312 590 C341 558 363 543 391 543 L391 543 Z M266 -12 C422 -12 537 112 537 267 C537 397 444 485 314 485 C158 485 43 361 43 206 C43 77 135 -12 266 -12 L266 -12 Z M273 75 C197 75 146 129 146 213 C146 314 211 398 307 398 C383 398 434 345 434 260 C434 159 369 75 273 75 L273 75 Z " />
<glyph glyph-name="odieresis" unicode="&#xf6;" horiz-adv-x="580" d="M224 553 C262 553 293 585 293 623 C293 656 268 680 235 680 C199 680 166 651 166 609 C166 577 192 553 224 553 L224 553 Z M425 553 C462 553 494 585 494 623 C494 656 468 680 436 680 C400 680 367 651 367 609 C367 577 392 553 425 553 L425 553 Z M266 -12 C422 -12 537 112 537 267 C537 397 444 485 314 485 C158 485 43 361 43 206 C43 77 135 -12 266 -12 L266 -12 Z M273 75 C197 75 146 129 146 213 C146 314 211 398 307 398 C383 398 434 345 434 260 C434 159 369 75 273 75 L273 75 Z " />
<glyph glyph-name="divide" unicode="&#xf7;" horiz-adv-x="650" d="M347 433 C386 433 419 462 419 506 C419 538 393 562 358 562 C317 562 285 531 285 490 C285 457 310 433 347 433 L347 433 Z M107 272 L551 272 L560 362 L116 362 L107 272 Z M309 72 C348 72 381 101 381 144 C381 177 355 201 320 201 C279 201 247 170 247 129 C247 96 272 72 309 72 L309 72 Z " />
<glyph glyph-name="oslash" unicode="&#xf8;" horiz-adv-x="587" d="M583 452 L538 503 L464 437 C426 468 376 485 318 485 C163 485 47 360 47 207 C47 161 58 121 79 88 L4 20 L49 -30 L123 37 C161 6 212 -12 270 -12 C426 -12 540 113 540 266 C540 312 529 352 509 385 L583 452 Z M311 403 C346 403 376 392 399 372 L156 152 C149 170 146 190 146 212 C146 316 212 403 311 403 L311 403 Z M277 71 C242 71 212 82 190 102 L433 321 C439 304 443 283 443 261 C443 157 376 71 277 71 L277 71 Z " />
<glyph glyph-name="ugrave" unicode="&#xf9;" horiz-adv-x="559" d="M369 545 L315 688 L197 688 L283 545 L369 545 Z M410 473 L383 217 C373 123 318 78 248 78 C195 78 166 104 166 175 C166 186 167 197 168 211 L196 473 L96 473 L64 175 C63 165 62 155 62 147 C62 44 124 -12 211 -12 C271 -12 331 16 367 62 L370 62 L369 0 L460 0 L510 473 L410 473 Z " />
<glyph glyph-name="uacute" unicode="&#xfa;" horiz-adv-x="559" d="M458 688 L335 688 L251 545 L342 545 L458 688 Z M410 473 L383 217 C373 123 318 78 248 78 C195 78 166 104 166 175 C166 186 167 197 168 211 L196 473 L96 473 L64 175 C63 165 62 155 62 147 C62 44 124 -12 211 -12 C271 -12 331 16 367 62 L370 62 L369 0 L460 0 L510 473 L410 473 Z " />
<glyph glyph-name="ucircumflex" unicode="&#xfb;" horiz-adv-x="559" d="M324 630 L384 545 L475 545 L373 688 L282 688 L149 545 L246 545 L324 630 Z M410 473 L383 217 C373 123 318 78 248 78 C195 78 166 104 166 175 C166 186 167 197 168 211 L196 473 L96 473 L64 175 C63 165 62 155 62 147 C62 44 124 -12 211 -12 C271 -12 331 16 367 62 L370 62 L369 0 L460 0 L510 473 L410 473 Z " />
<glyph glyph-name="udieresis" unicode="&#xfc;" horiz-adv-x="559" d="M214 553 C252 553 283 585 283 623 C283 656 258 680 225 680 C189 680 156 651 156 609 C156 577 182 553 214 553 L214 553 Z M415 553 C452 553 484 585 484 623 C484 656 458 680 426 680 C390 680 357 651 357 609 C357 577 382 553 415 553 L415 553 Z M410 473 L383 217 C373 123 318 78 248 78 C195 78 166 104 166 175 C166 186 167 197 168 211 L196 473 L96 473 L64 175 C63 165 62 155 62 147 C62 44 124 -12 211 -12 C271 -12 331 16 367 62 L370 62 L369 0 L460 0 L510 473 L410 473 Z " />
<glyph glyph-name="yacute" unicode="&#xfd;" horiz-adv-x="504" d="M431 688 L308 688 L224 545 L315 545 L431 688 Z M413 473 L240 120 L237 120 L141 473 L36 473 L175 2 L62 -224 L166 -224 L519 473 L413 473 Z " />
<glyph glyph-name="thorn" unicode="&#xfe;" horiz-adv-x="598" d="M356 485 C290 485 228 456 196 413 L193 413 L223 700 L123 700 L26 -224 L126 -224 L156 60 L159 60 C183 16 240 -12 303 -12 C446 -12 554 115 554 269 C554 398 470 485 356 485 L356 485 Z M292 76 C218 76 169 126 169 211 C169 315 233 398 331 398 C405 398 451 347 451 263 C451 158 390 76 292 76 L292 76 Z " />
<glyph glyph-name="ydieresis" unicode="&#xff;" horiz-adv-x="504" d="M188 553 C226 553 257 585 257 623 C257 656 232 680 199 680 C163 680 130 651 130 609 C130 577 156 553 188 553 L188 553 Z M389 553 C426 553 458 585 458 623 C458 656 432 680 400 680 C364 680 331 651 331 609 C331 577 356 553 389 553 L389 553 Z M413 473 L240 120 L237 120 L141 473 L36 473 L175 2 L62 -224 L166 -224 L519 473 L413 473 Z " />
<glyph glyph-name="Amacron" unicode="&#x100;" horiz-adv-x="653" d="M536 879 L252 879 L244 799 L527 799 L536 879 Z M510 0 L613 0 L433 700 L318 700 L-11 0 L100 0 L176 167 L469 167 L510 0 Z M218 257 L364 577 L367 577 L446 257 L218 257 Z " />
<glyph glyph-name="amacron" unicode="&#x101;" horiz-adv-x="598" d="M479 650 L212 650 L204 574 L471 574 L479 650 Z M458 473 L446 411 L443 411 C417 455 360 485 294 485 C153 485 44 361 44 204 C44 75 127 -12 242 -12 C311 -12 375 18 406 62 L409 62 L408 0 L498 0 L549 473 L458 473 Z M270 76 C195 76 147 126 147 211 C147 319 210 398 305 398 C382 398 430 347 430 262 C430 157 368 76 270 76 L270 76 Z " />
<glyph glyph-name="Abreve" unicode="&#x102;" horiz-adv-x="653" d="M382 768 C472 768 536 817 545 916 L459 916 C453 861 427 836 388 836 C352 836 331 856 331 900 C331 905 331 910 332 916 L250 916 L249 889 C249 814 296 768 382 768 L382 768 Z M510 0 L613 0 L433 700 L318 700 L-11 0 L100 0 L176 167 L469 167 L510 0 Z M218 257 L364 577 L367 577 L446 257 L218 257 Z " />
<glyph glyph-name="abreve" unicode="&#x103;" horiz-adv-x="598" d="M334 545 C420 545 479 592 488 685 L407 685 C401 633 377 610 339 610 C306 610 287 628 287 669 C287 674 287 679 288 685 L210 685 C209 678 208 668 208 660 C208 589 254 545 334 545 L334 545 Z M458 473 L446 411 L443 411 C417 455 360 485 294 485 C153 485 44 361 44 204 C44 75 127 -12 242 -12 C311 -12 375 18 406 62 L409 62 L408 0 L498 0 L549 473 L458 473 Z M270 76 C195 76 147 126 147 211 C147 319 210 398 305 398 C382 398 430 347 430 262 C430 157 368 76 270 76 L270 76 Z " />
<glyph glyph-name="Aogonek" unicode="&#x104;" horiz-adv-x="653" d="M522 -113 C522 -80 543 -49 614 0 L613 1 L433 700 L318 700 L-11 0 L100 0 L176 167 L469 167 L510 0 L525 0 C468 -31 427 -82 427 -138 C427 -194 470 -228 540 -228 C558 -228 576 -226 591 -223 L600 -141 C587 -145 575 -146 566 -146 C536 -146 522 -134 522 -113 L522 -113 Z M218 257 L364 577 L367 577 L446 257 L218 257 Z " />
<glyph glyph-name="aogonek" unicode="&#x105;" horiz-adv-x="598" d="M498 0 L549 473 L458 473 L446 411 L443 411 C417 455 360 485 294 485 C153 485 44 361 44 204 C44 75 127 -12 242 -12 C311 -12 375 18 406 62 L409 62 L408 0 L411 0 C359 -29 323 -77 323 -130 C323 -183 363 -215 429 -215 C446 -215 462 -213 476 -210 L485 -133 C473 -136 462 -137 453 -137 C424 -137 411 -127 411 -105 C411 -68 451 -33 498 0 L498 0 Z M270 76 C195 76 147 126 147 211 C147 319 210 398 305 398 C382 398 430 347 430 262 C430 157 368 76 270 76 L270 76 Z " />
<glyph glyph-name="Cacute" unicode="&#x106;" horiz-adv-x="760" d="M383 768 L479 768 L602 919 L473 919 L383 768 Z M371 -12 C541 -12 684 96 717 259 L612 259 C579 148 489 84 379 84 C252 84 167 169 167 310 C167 480 276 616 439 616 C548 616 620 555 627 441 L734 441 C735 603 613 712 445 712 C227 712 60 532 60 305 C60 116 188 -12 371 -12 L371 -12 Z " />
<glyph glyph-name="cacute" unicode="&#x107;" horiz-adv-x="549" d="M257 545 L348 545 L464 688 L341 688 L257 545 Z M264 -12 C386 -12 483 59 508 178 L408 178 C391 115 334 75 270 75 C196 75 146 127 146 212 C146 314 209 398 307 398 C373 398 414 358 416 295 L519 295 C518 415 433 485 315 485 C157 485 43 362 43 206 C43 76 131 -12 264 -12 L264 -12 Z " />
<glyph glyph-name="Ccircumflex" unicode="&#x108;" horiz-adv-x="760" d="M462 857 L526 768 L622 768 L514 919 L418 919 L278 768 L380 768 L462 857 Z M439 616 C548 616 620 555 627 441 L734 441 C735 603 613 712 445 712 C227 712 60 532 60 305 C60 116 188 -12 371 -12 C541 -12 684 96 717 259 L612 259 C579 148 489 84 379 84 C252 84 167 169 167 310 C167 480 276 616 439 616 L439 616 Z " />
<glyph glyph-name="ccircumflex" unicode="&#x109;" horiz-adv-x="549" d="M330 630 L390 545 L481 545 L379 688 L288 688 L155 545 L252 545 L330 630 Z M270 75 C196 75 146 127 146 212 C146 314 209 398 307 398 C373 398 414 358 416 295 L519 295 C518 415 433 485 315 485 C157 485 43 362 43 206 C43 76 131 -12 264 -12 C386 -12 483 59 508 178 L408 178 C391 115 334 75 270 75 L270 75 Z " />
<glyph glyph-name="Cdotaccent" unicode="&#x10a;" horiz-adv-x="760" d="M452 777 C493 777 527 811 527 852 C527 887 500 912 465 912 C424 912 390 877 390 837 C390 802 416 777 452 777 L452 777 Z M371 -12 C541 -12 684 96 717 259 L612 259 C579 148 489 84 379 84 C252 84 167 169 167 310 C167 480 276 616 439 616 C548 616 620 555 627 441 L734 441 C735 603 613 712 445 712 C227 712 60 532 60 305 C60 116 188 -12 371 -12 L371 -12 Z " />
<glyph glyph-name="cdotaccent" unicode="&#x10b;" horiz-adv-x="549" d="M321 553 C359 553 391 585 391 624 C391 658 366 682 332 682 C295 682 261 652 261 610 C261 577 287 553 321 553 L321 553 Z M264 -12 C386 -12 483 59 508 178 L408 178 C391 115 334 75 270 75 C196 75 146 127 146 212 C146 314 209 398 307 398 C373 398 414 358 416 295 L519 295 C518 415 433 485 315 485 C157 485 43 362 43 206 C43 76 131 -12 264 -12 L264 -12 Z " />
<glyph glyph-name="Ccaron" unicode="&#x10c;" horiz-adv-x="760" d="M498 768 L638 919 L536 919 L453 830 L390 919 L294 919 L402 768 L498 768 Z M439 616 C548 616 620 555 627 441 L734 441 C735 603 613 712 445 712 C227 712 60 532 60 305 C60 116 188 -12 371 -12 C541 -12 684 96 717 259 L612 259 C579 148 489 84 379 84 C252 84 167 169 167 310 C167 480 276 616 439 616 L439 616 Z " />
<glyph glyph-name="ccaron" unicode="&#x10d;" horiz-adv-x="549" d="M364 545 L496 688 L400 688 L322 604 L262 688 L171 688 L272 545 L364 545 Z M270 75 C196 75 146 127 146 212 C146 314 209 398 307 398 C373 398 414 358 416 295 L519 295 C518 415 433 485 315 485 C157 485 43 362 43 206 C43 76 131 -12 264 -12 C386 -12 483 59 508 178 L408 178 C391 115 334 75 270 75 L270 75 Z " />
<glyph glyph-name="Dcaron" unicode="&#x10e;" horiz-adv-x="693" d="M419 768 L559 919 L457 919 L374 830 L311 919 L215 919 L323 768 L419 768 Z M316 700 L140 700 L66 0 L244 0 C487 0 655 156 655 395 C655 584 520 700 316 700 L316 700 Z M260 96 L182 96 L232 604 L313 604 C463 604 548 529 548 390 C548 212 438 96 260 96 L260 96 Z " />
<glyph glyph-name="dcaron" unicode="&#x10f;" horiz-adv-x="684" d="M707 712 C670 712 636 684 636 643 C636 611 658 588 691 588 C697 588 702 589 706 590 C701 559 680 530 634 493 L663 458 C723 500 774 561 774 633 C774 683 745 712 707 712 L707 712 Z M442 413 L439 413 C413 457 356 485 293 485 C151 485 44 357 44 204 C44 75 126 -12 242 -12 C311 -12 374 18 406 62 L409 62 L408 0 L498 0 L572 700 L472 700 L442 413 Z M268 76 C192 76 146 126 146 210 C146 309 205 398 307 398 C384 398 429 348 429 264 C429 161 370 76 268 76 L268 76 Z " />
<glyph glyph-name="Dcroat" unicode="&#x110;" horiz-adv-x="701" d="M324 700 L149 700 L116 391 L15 391 L6 309 L108 309 L75 0 L253 0 C496 0 664 156 664 395 C664 584 529 700 324 700 L324 700 Z M268 96 L190 96 L211 309 L364 309 L372 391 L220 391 L241 604 L321 604 C472 604 556 529 556 390 C556 212 446 96 268 96 L268 96 Z " />
<glyph glyph-name="dcroat" unicode="&#x111;" horiz-adv-x="600" d="M659 615 L563 615 L572 700 L472 700 L463 615 L322 615 L314 543 L456 543 L442 413 L439 413 C413 457 356 485 293 485 C151 485 44 357 44 204 C44 75 126 -12 242 -12 C311 -12 374 18 406 62 L409 62 L408 0 L498 0 L555 543 L652 543 L659 615 Z M268 76 C192 76 146 126 146 210 C146 309 205 398 307 398 C384 398 429 348 429 264 C429 161 370 76 268 76 L268 76 Z " />
<glyph glyph-name="Emacron" unicode="&#x112;" horiz-adv-x="584" d="M516 879 L232 879 L224 799 L507 799 L516 879 Z M559 604 L570 700 L140 700 L66 0 L496 0 L506 96 L182 96 L204 304 L499 304 L509 399 L214 399 L235 604 L559 604 Z " />
<glyph glyph-name="emacron" unicode="&#x113;" horiz-adv-x="559" d="M465 650 L198 650 L190 574 L457 574 L465 650 Z M510 213 C515 237 518 259 518 282 C518 407 434 485 313 485 C156 485 43 358 43 201 C43 73 132 -12 264 -12 C375 -12 465 46 499 143 L403 143 C376 98 328 73 272 73 C195 73 142 119 142 208 L142 213 L510 213 Z M306 403 C374 403 418 366 420 286 L154 286 C176 353 228 403 306 403 L306 403 Z " />
<glyph glyph-name="Ebreve" unicode="&#x114;" horiz-adv-x="584" d="M362 768 C452 768 516 817 525 916 L439 916 C433 861 407 836 368 836 C332 836 311 856 311 900 C311 905 311 910 312 916 L230 916 L229 889 C229 814 276 768 362 768 L362 768 Z M559 604 L570 700 L140 700 L66 0 L496 0 L506 96 L182 96 L204 304 L499 304 L509 399 L214 399 L235 604 L559 604 Z " />
<glyph glyph-name="ebreve" unicode="&#x115;" horiz-adv-x="559" d="M320 545 C406 545 465 592 474 685 L393 685 C387 633 363 610 325 610 C292 610 273 628 273 669 C273 674 273 679 274 685 L196 685 C195 678 194 668 194 660 C194 589 240 545 320 545 L320 545 Z M510 213 C515 237 518 259 518 282 C518 407 434 485 313 485 C156 485 43 358 43 201 C43 73 132 -12 264 -12 C375 -12 465 46 499 143 L403 143 C376 98 328 73 272 73 C195 73 142 119 142 208 L142 213 L510 213 Z M306 403 C374 403 418 366 420 286 L154 286 C176 353 228 403 306 403 L306 403 Z " />
<glyph glyph-name="Edotaccent" unicode="&#x116;" horiz-adv-x="584" d="M364 777 C405 777 439 811 439 852 C439 887 412 912 377 912 C336 912 302 877 302 837 C302 802 328 777 364 777 L364 777 Z M559 604 L570 700 L140 700 L66 0 L496 0 L506 96 L182 96 L204 304 L499 304 L509 399 L214 399 L235 604 L559 604 Z " />
<glyph glyph-name="edotaccent" unicode="&#x117;" horiz-adv-x="559" d="M323 553 C361 553 393 585 393 624 C393 658 368 682 334 682 C297 682 263 652 263 610 C263 577 289 553 323 553 L323 553 Z M510 213 C515 237 518 259 518 282 C518 407 434 485 313 485 C156 485 43 358 43 201 C43 73 132 -12 264 -12 C375 -12 465 46 499 143 L403 143 C376 98 328 73 272 73 C195 73 142 119 142 208 L142 213 L510 213 Z M306 403 C374 403 418 366 420 286 L154 286 C176 353 228 403 306 403 L306 403 Z " />
<glyph glyph-name="Eogonek" unicode="&#x118;" horiz-adv-x="584" d="M559 604 L570 700 L140 700 L66 0 L407 0 C350 -31 309 -82 309 -138 C309 -194 352 -228 422 -228 C440 -228 458 -226 473 -223 L482 -141 C469 -145 457 -146 448 -146 C418 -146 404 -134 404 -113 C404 -80 425 -49 496 0 L506 96 L182 96 L204 304 L499 304 L509 399 L214 399 L235 604 L559 604 Z " />
<glyph glyph-name="eogonek" unicode="&#x119;" horiz-adv-x="559" d="M510 213 C515 237 518 259 518 282 C518 407 434 485 313 485 C156 485 43 358 43 201 C43 79 124 -4 246 -11 C207 -41 182 -82 182 -126 C182 -179 222 -211 288 -211 C305 -211 321 -209 335 -206 L344 -129 C332 -132 321 -133 312 -133 C283 -133 270 -123 270 -101 C270 -65 309 -30 354 2 C422 25 475 74 499 143 L403 143 C376 98 328 73 272 73 C195 73 142 119 142 208 L142 213 L510 213 Z M306 403 C374 403 418 366 420 286 L154 286 C176 353 228 403 306 403 L306 403 Z " />
<glyph glyph-name="Ecaron" unicode="&#x11a;" horiz-adv-x="584" d="M410 768 L550 919 L448 919 L365 830 L302 919 L206 919 L314 768 L410 768 Z M559 604 L570 700 L140 700 L66 0 L496 0 L506 96 L182 96 L204 304 L499 304 L509 399 L214 399 L235 604 L559 604 Z " />
<glyph glyph-name="ecaron" unicode="&#x11b;" horiz-adv-x="559" d="M366 545 L498 688 L402 688 L324 604 L264 688 L173 688 L274 545 L366 545 Z M510 213 C515 237 518 259 518 282 C518 407 434 485 313 485 C156 485 43 358 43 201 C43 73 132 -12 264 -12 C375 -12 465 46 499 143 L403 143 C376 98 328 73 272 73 C195 73 142 119 142 208 L142 213 L510 213 Z M306 403 C374 403 418 366 420 286 L154 286 C176 353 228 403 306 403 L306 403 Z " />
<glyph glyph-name="Gcircumflex" unicode="&#x11c;" horiz-adv-x="779" d="M467 857 L531 768 L627 768 L519 919 L423 919 L283 768 L385 768 L467 857 Z M414 276 L622 276 C592 155 493 83 377 83 C250 83 167 169 167 309 C167 481 275 617 442 617 C548 617 619 560 627 467 L737 467 C729 618 609 712 447 712 C220 712 59 530 59 301 C59 113 185 -12 361 -12 C458 -12 548 28 603 99 L606 99 L606 0 L688 0 L726 368 L423 368 L414 276 Z " />
<glyph glyph-name="gcircumflex" unicode="&#x11d;" horiz-adv-x="600" d="M345 630 L405 545 L496 545 L394 688 L303 688 L170 545 L267 545 L345 630 Z M460 473 L447 411 L444 411 C419 455 359 485 293 485 C150 485 46 356 46 210 C46 84 129 -2 244 -2 C313 -2 377 27 409 71 L412 71 L404 -3 C394 -94 332 -150 241 -150 C167 -150 126 -114 125 -51 L23 -51 C20 -167 105 -236 237 -236 C388 -236 485 -148 500 0 L550 473 L460 473 Z M272 84 C197 84 149 135 149 217 C149 318 211 398 308 398 C383 398 430 347 430 266 C430 165 369 84 272 84 L272 84 Z " />
<glyph glyph-name="Gbreve" unicode="&#x11e;" horiz-adv-x="779" d="M455 768 C545 768 609 817 618 916 L532 916 C526 861 500 836 461 836 C425 836 404 856 404 900 C404 905 404 910 405 916 L323 916 L322 889 C322 814 369 768 455 768 L455 768 Z M414 276 L622 276 C592 155 493 83 377 83 C250 83 167 169 167 309 C167 481 275 617 442 617 C548 617 619 560 627 467 L737 467 C729 618 609 712 447 712 C220 712 59 530 59 301 C59 113 185 -12 361 -12 C458 -12 548 28 603 99 L606 99 L606 0 L688 0 L726 368 L423 368 L414 276 Z " />
<glyph glyph-name="gbreve" unicode="&#x11f;" horiz-adv-x="600" d="M333 545 C419 545 478 592 487 685 L406 685 C400 633 376 610 338 610 C305 610 286 628 286 669 C286 674 286 679 287 685 L209 685 C208 678 207 668 207 660 C207 589 253 545 333 545 L333 545 Z M460 473 L447 411 L444 411 C419 455 359 485 293 485 C150 485 46 356 46 210 C46 84 129 -2 244 -2 C313 -2 377 27 409 71 L412 71 L404 -3 C394 -94 332 -150 241 -150 C167 -150 126 -114 125 -51 L23 -51 C20 -167 105 -236 237 -236 C388 -236 485 -148 500 0 L550 473 L460 473 Z M272 84 C197 84 149 135 149 217 C149 318 211 398 308 398 C383 398 430 347 430 266 C430 165 369 84 272 84 L272 84 Z " />
<glyph glyph-name="Gdotaccent" unicode="&#x120;" horiz-adv-x="779" d="M457 777 C498 777 532 811 532 852 C532 887 505 912 470 912 C429 912 395 877 395 837 C395 802 421 777 457 777 L457 777 Z M414 276 L622 276 C592 155 493 83 377 83 C250 83 167 169 167 309 C167 481 275 617 442 617 C548 617 619 560 627 467 L737 467 C729 618 609 712 447 712 C220 712 59 530 59 301 C59 113 185 -12 361 -12 C458 -12 548 28 603 99 L606 99 L606 0 L688 0 L726 368 L423 368 L414 276 Z " />
<glyph glyph-name="gdotaccent" unicode="&#x121;" horiz-adv-x="600" d="M336 553 C374 553 406 585 406 624 C406 658 381 682 347 682 C310 682 276 652 276 610 C276 577 302 553 336 553 L336 553 Z M460 473 L447 411 L444 411 C419 455 359 485 293 485 C150 485 46 356 46 210 C46 84 129 -2 244 -2 C313 -2 377 27 409 71 L412 71 L404 -3 C394 -94 332 -150 241 -150 C167 -150 126 -114 125 -51 L23 -51 C20 -167 105 -236 237 -236 C388 -236 485 -148 500 0 L550 473 L460 473 Z M272 84 C197 84 149 135 149 217 C149 318 211 398 308 398 C383 398 430 347 430 266 C430 165 369 84 272 84 L272 84 Z " />
<glyph glyph-name="uni0122" unicode="&#x122;" horiz-adv-x="779" d="M414 276 L622 276 C592 155 493 83 377 83 C250 83 167 169 167 309 C167 481 275 617 442 617 C548 617 619 560 627 467 L737 467 C729 618 609 712 447 712 C220 712 59 530 59 301 C59 113 185 -12 361 -12 C458 -12 548 28 603 99 L606 99 L606 0 L688 0 L726 368 L423 368 L414 276 Z M358 -76 C322 -76 286 -103 286 -144 C286 -176 308 -200 342 -200 C347 -200 352 -199 357 -198 C353 -218 344 -238 329 -258 L389 -258 C411 -228 425 -190 425 -153 C425 -105 394 -76 358 -76 L358 -76 Z " />
<glyph glyph-name="uni0123" unicode="&#x123;" horiz-adv-x="600" d="M340 549 C376 549 412 576 412 617 C412 649 390 673 356 673 C351 673 346 672 341 671 C345 691 354 711 369 731 L309 731 C287 701 273 663 273 626 C273 578 304 549 340 549 L340 549 Z M460 473 L447 411 L444 411 C419 455 359 485 293 485 C150 485 46 356 46 210 C46 84 129 -2 244 -2 C313 -2 377 27 409 71 L412 71 L404 -3 C394 -94 332 -150 241 -150 C167 -150 126 -114 125 -51 L23 -51 C20 -167 105 -236 237 -236 C388 -236 485 -148 500 0 L550 473 L460 473 Z M272 84 C197 84 149 135 149 217 C149 318 211 398 308 398 C383 398 430 347 430 266 C430 165 369 84 272 84 L272 84 Z " />
<glyph glyph-name="Hcircumflex" unicode="&#x124;" horiz-adv-x="710" d="M423 857 L487 768 L583 768 L475 919 L379 919 L239 768 L341 768 L423 857 Z M562 700 L529 389 L212 389 L245 700 L140 700 L66 0 L171 0 L202 292 L519 292 L488 0 L593 0 L667 700 L562 700 Z " />
<glyph glyph-name="hcircumflex" unicode="&#x125;" horiz-adv-x="565" d="M192 857 L256 768 L352 768 L244 919 L148 919 L8 768 L110 768 L192 857 Z M352 485 C288 485 234 458 196 412 L193 412 L223 700 L123 700 L49 0 L149 0 L176 257 C187 350 239 396 312 396 C370 396 399 369 399 298 C399 287 398 276 397 263 L369 0 L469 0 L501 298 C502 308 503 318 503 327 C503 428 443 485 352 485 L352 485 Z " />
<glyph glyph-name="Hbar" unicode="&#x126;" horiz-adv-x="741" d="M758 571 L668 571 L682 700 L577 700 L563 571 L246 571 L260 700 L155 700 L141 571 L53 571 L45 494 L133 494 L81 0 L186 0 L217 292 L534 292 L503 0 L608 0 L660 494 L750 494 L758 571 Z M544 389 L227 389 L238 494 L555 494 L544 389 Z " />
<glyph glyph-name="hbar" unicode="&#x127;" horiz-adv-x="565" d="M352 485 C288 485 234 458 196 412 L193 412 L206 543 L348 543 L356 615 L214 615 L223 700 L123 700 L114 615 L19 615 L11 543 L106 543 L49 0 L149 0 L176 257 C187 350 239 396 312 396 C370 396 399 369 399 298 C399 287 398 276 397 263 L369 0 L469 0 L501 298 C502 308 503 318 503 327 C503 428 443 485 352 485 L352 485 Z " />
<glyph glyph-name="Itilde" unicode="&#x128;" horiz-adv-x="288" d="M273 766 C334 766 380 815 388 915 L316 915 C310 860 293 840 275 840 C264 840 251 847 229 872 C201 908 176 922 144 922 C83 922 37 873 29 773 L104 773 C110 828 125 848 142 848 C155 848 167 841 189 816 C219 781 243 766 273 766 L273 766 Z M66 0 L171 0 L245 700 L140 700 L66 0 Z " />
<glyph glyph-name="itilde" unicode="&#x129;" horiz-adv-x="249" d="M223 543 C276 543 318 590 325 684 L261 684 C255 632 239 614 225 614 C215 614 205 619 185 644 C158 677 136 691 107 691 C52 691 11 644 4 550 L71 550 C77 602 90 621 105 621 C115 621 125 614 145 590 C173 557 193 543 223 543 L223 543 Z M49 0 L149 0 L200 473 L100 473 L49 0 Z " />
<glyph glyph-name="Imacron" unicode="&#x12a;" horiz-adv-x="288" d="M62 799 L345 799 L354 879 L70 879 L62 799 Z M66 0 L171 0 L245 700 L140 700 L66 0 Z " />
<glyph glyph-name="imacron" unicode="&#x12b;" horiz-adv-x="249" d="M36 574 L285 574 L293 650 L44 650 L36 574 Z M49 0 L149 0 L200 473 L100 473 L49 0 Z " />
<glyph glyph-name="Ibreve" unicode="&#x12c;" horiz-adv-x="288" d="M200 768 C290 768 354 817 363 916 L277 916 C271 861 245 836 206 836 C170 836 149 856 149 900 C149 905 149 910 150 916 L68 916 L67 889 C67 814 114 768 200 768 L200 768 Z M66 0 L171 0 L245 700 L140 700 L66 0 Z " />
<glyph glyph-name="ibreve" unicode="&#x12d;" horiz-adv-x="249" d="M156 545 C238 545 293 592 302 685 L226 685 C221 633 196 610 162 610 C132 610 112 628 112 669 C112 674 112 679 113 685 L42 685 C40 677 40 666 40 658 C40 588 79 545 156 545 L156 545 Z M49 0 L149 0 L200 473 L100 473 L49 0 Z " />
<glyph glyph-name="Iogonek" unicode="&#x12e;" horiz-adv-x="288" d="M171 0 L245 700 L140 700 L66 0 L103 0 C50 -30 10 -82 10 -132 C10 -182 47 -215 107 -215 C122 -215 136 -213 149 -210 L158 -133 C147 -136 139 -137 131 -137 C110 -137 97 -128 97 -106 C97 -79 114 -50 171 0 L171 0 Z " />
<glyph glyph-name="iogonek" unicode="&#x12f;" horiz-adv-x="249" d="M170 682 C133 682 99 652 99 610 C99 577 125 553 159 553 C197 553 229 585 229 624 C229 658 204 682 170 682 L170 682 Z M49 0 L81 0 C28 -30 -12 -82 -12 -132 C-12 -182 25 -215 85 -215 C100 -215 114 -213 127 -210 L136 -133 C125 -136 117 -137 109 -137 C88 -137 75 -128 75 -106 C75 -79 92 -50 149 0 L200 473 L100 473 L49 0 Z " />
<glyph glyph-name="Idotaccent" unicode="&#x130;" horiz-adv-x="288" d="M201 777 C242 777 276 811 276 852 C276 887 249 912 214 912 C173 912 139 877 139 837 C139 802 165 777 201 777 L201 777 Z M66 0 L171 0 L245 700 L140 700 L66 0 Z " />
<glyph glyph-name="dotlessi" unicode="&#x131;" horiz-adv-x="249" d="M49 0 L149 0 L200 473 L100 473 L49 0 Z " />
<glyph glyph-name="Jcircumflex" unicode="&#x134;" horiz-adv-x="604" d="M389 857 L453 768 L549 768 L441 919 L345 919 L205 768 L307 768 L389 857 Z M176 700 L165 604 L456 604 L418 246 C406 134 351 84 264 84 C185 84 145 122 145 209 C145 221 145 233 147 246 L155 320 L50 320 L41 240 C40 225 39 211 39 198 C39 57 121 -12 256 -12 C409 -12 505 71 522 240 L571 700 L176 700 Z " />
<glyph glyph-name="jcircumflex" unicode="&#x135;" horiz-adv-x="249" d="M212 688 L131 688 L9 545 L101 545 L168 625 L218 545 L304 545 L212 688 Z M41 -75 C36 -131 15 -149 -31 -149 C-42 -149 -52 -148 -60 -147 L-69 -231 C-55 -234 -39 -236 -18 -236 C84 -236 129 -190 141 -78 L200 473 L100 473 L41 -75 Z " />
<glyph glyph-name="uni0136" unicode="&#x136;" horiz-adv-x="636" d="M668 700 L537 700 L215 380 L212 380 L245 700 L140 700 L66 0 L171 0 L205 315 L208 315 L471 0 L601 0 L313 348 L668 700 Z M298 -76 C262 -76 226 -103 226 -144 C226 -176 248 -200 282 -200 C287 -200 292 -199 297 -198 C293 -218 284 -238 269 -258 L329 -258 C351 -228 365 -190 365 -153 C365 -105 334 -76 298 -76 L298 -76 Z " />
<glyph glyph-name="uni0137" unicode="&#x137;" horiz-adv-x="515" d="M526 473 L398 473 L181 276 L179 276 L223 700 L123 700 L49 0 L149 0 L173 218 L176 218 L359 0 L482 0 L276 246 L526 473 Z M229 -76 C193 -76 157 -103 157 -144 C157 -176 179 -200 213 -200 C218 -200 223 -199 228 -198 C224 -218 215 -238 200 -258 L260 -258 C282 -228 296 -190 296 -153 C296 -105 265 -76 229 -76 L229 -76 Z " />
<glyph glyph-name="Lacute" unicode="&#x139;" horiz-adv-x="538" d="M352 919 L223 919 L133 768 L229 768 L352 919 Z M182 96 L245 700 L140 700 L66 0 L482 0 L492 96 L182 96 Z " />
<glyph glyph-name="lacute" unicode="&#x13a;" horiz-adv-x="249" d="M113 768 L209 768 L332 919 L203 919 L113 768 Z M49 0 L149 0 L223 700 L123 700 L49 0 Z " />
<glyph glyph-name="uni013B" unicode="&#x13b;" horiz-adv-x="538" d="M182 96 L245 700 L140 700 L66 0 L482 0 L492 96 L182 96 Z M268 -76 C232 -76 196 -103 196 -144 C196 -176 218 -200 252 -200 C257 -200 262 -199 267 -198 C263 -218 254 -238 239 -258 L299 -258 C321 -228 335 -190 335 -153 C335 -105 304 -76 268 -76 L268 -76 Z " />
<glyph glyph-name="uni013C" unicode="&#x13c;" horiz-adv-x="249" d="M223 700 L123 700 L49 0 L149 0 L223 700 Z M85 -76 C49 -76 13 -103 13 -144 C13 -176 35 -200 69 -200 C74 -200 79 -199 84 -198 C80 -218 71 -238 56 -258 L116 -258 C138 -228 152 -190 152 -153 C152 -105 121 -76 85 -76 L85 -76 Z " />
<glyph glyph-name="Lcaron" unicode="&#x13d;" horiz-adv-x="538" d="M334 493 L362 458 C423 500 473 561 473 633 C473 683 444 712 406 712 C370 712 335 684 335 643 C335 611 357 588 391 588 C397 588 401 589 406 590 C400 558 379 530 334 493 L334 493 Z M182 96 L245 700 L140 700 L66 0 L482 0 L492 96 L182 96 Z " />
<glyph glyph-name="lcaron" unicode="&#x13e;" horiz-adv-x="334" d="M357 712 C320 712 286 684 286 643 C286 611 308 588 341 588 C347 588 352 589 357 590 C352 559 330 530 284 493 L313 458 C373 500 424 561 424 633 C424 683 395 712 357 712 L357 712 Z M49 0 L149 0 L223 700 L123 700 L49 0 Z " />
<glyph glyph-name="Ldot" unicode="&#x13f;" horiz-adv-x="558" d="M182 96 L245 700 L140 700 L66 0 L482 0 L492 96 L182 96 Z M385 237 C424 237 457 268 457 314 C457 349 429 375 392 375 C350 375 319 341 319 298 C319 263 348 237 385 237 L385 237 Z " />
<glyph glyph-name="ldot" unicode="&#x140;" horiz-adv-x="431" d="M49 0 L149 0 L223 700 L123 700 L49 0 Z M332 181 C373 181 406 213 406 259 C406 295 378 321 340 321 C297 321 265 287 265 243 C265 208 295 181 332 181 L332 181 Z " />
<glyph glyph-name="Lslash" unicode="&#x141;" horiz-adv-x="558" d="M202 96 L224 312 L414 440 L423 537 L235 410 L265 700 L161 700 L122 334 L-3 250 L-13 152 L112 236 L87 0 L502 0 L512 96 L202 96 Z " />
<glyph glyph-name="lslash" unicode="&#x142;" horiz-adv-x="340" d="M352 493 L239 417 L269 700 L169 700 L131 345 L18 269 L8 178 L122 254 L95 0 L195 0 L230 327 L342 402 L352 493 Z " />
<glyph glyph-name="Nacute" unicode="&#x143;" horiz-adv-x="746" d="M581 919 L452 919 L362 768 L458 768 L581 919 Z M599 700 L543 174 L540 174 L246 700 L140 700 L66 0 L171 0 L227 526 L230 526 L524 0 L630 0 L704 700 L599 700 Z " />
<glyph glyph-name="nacute" unicode="&#x144;" horiz-adv-x="565" d="M464 688 L341 688 L257 545 L348 545 L464 688 Z M352 485 C289 485 230 457 192 411 L189 411 L190 473 L100 473 L49 0 L149 0 L176 257 C187 350 239 396 312 396 C370 396 399 369 399 298 C399 287 398 276 397 263 L369 0 L469 0 L501 298 C502 308 503 318 503 327 C503 429 442 485 352 485 L352 485 Z " />
<glyph glyph-name="uni0145" unicode="&#x145;" horiz-adv-x="746" d="M599 700 L543 174 L540 174 L246 700 L140 700 L66 0 L171 0 L227 526 L230 526 L524 0 L630 0 L704 700 L599 700 Z M334 -76 C298 -76 262 -103 262 -144 C262 -176 284 -200 318 -200 C323 -200 328 -199 333 -198 C329 -218 320 -238 305 -258 L365 -258 C387 -228 401 -190 401 -153 C401 -105 370 -76 334 -76 L334 -76 Z " />
<glyph glyph-name="uni0146" unicode="&#x146;" horiz-adv-x="565" d="M352 485 C289 485 230 457 192 411 L189 411 L190 473 L100 473 L49 0 L149 0 L176 257 C187 350 239 396 312 396 C370 396 399 369 399 298 C399 287 398 276 397 263 L369 0 L469 0 L501 298 C502 308 503 318 503 327 C503 429 442 485 352 485 L352 485 Z M244 -76 C208 -76 172 -103 172 -144 C172 -176 194 -200 228 -200 C233 -200 238 -199 243 -198 C239 -218 230 -238 215 -258 L275 -258 C297 -228 311 -190 311 -153 C311 -105 280 -76 244 -76 L244 -76 Z " />
<glyph glyph-name="Ncaron" unicode="&#x147;" horiz-adv-x="746" d="M477 768 L617 919 L515 919 L432 830 L369 919 L273 919 L381 768 L477 768 Z M599 700 L543 174 L540 174 L246 700 L140 700 L66 0 L171 0 L227 526 L230 526 L524 0 L630 0 L704 700 L599 700 Z " />
<glyph glyph-name="ncaron" unicode="&#x148;" horiz-adv-x="565" d="M364 545 L496 688 L400 688 L322 604 L262 688 L171 688 L272 545 L364 545 Z M352 485 C289 485 230 457 192 411 L189 411 L190 473 L100 473 L49 0 L149 0 L176 257 C187 350 239 396 312 396 C370 396 399 369 399 298 C399 287 398 276 397 263 L369 0 L469 0 L501 298 C502 308 503 318 503 327 C503 429 442 485 352 485 L352 485 Z " />
<glyph glyph-name="Eng" unicode="&#x14a;" horiz-adv-x="746" d="M599 700 L543 174 L540 174 L247 700 L140 700 L66 0 L171 0 L227 526 L230 526 L521 3 L518 -27 C513 -72 493 -89 456 -89 C445 -89 434 -88 426 -87 L417 -180 C430 -183 446 -185 468 -185 C564 -185 615 -138 627 -26 L704 700 L599 700 Z " />
<glyph glyph-name="eng" unicode="&#x14b;" horiz-adv-x="565" d="M352 485 C288 485 230 457 192 411 L189 411 L190 473 L100 473 L49 0 L149 0 L176 257 C187 350 239 396 312 396 C370 396 399 369 399 298 C399 287 398 276 397 263 L370 -2 C363 -58 343 -76 297 -76 C286 -76 276 -75 268 -74 L259 -158 C272 -161 289 -164 311 -164 C412 -164 457 -118 470 -5 L501 298 C502 308 503 318 503 327 C503 429 442 485 352 485 L352 485 Z " />
<glyph glyph-name="Omacron" unicode="&#x14c;" horiz-adv-x="794" d="M315 799 L598 799 L607 879 L323 879 L315 799 Z M375 -12 C593 -12 757 170 757 394 C757 583 627 712 443 712 C225 712 60 530 60 306 C60 117 190 -12 375 -12 L375 -12 Z M380 84 C253 84 167 171 167 311 C167 478 276 616 438 616 C567 616 650 529 650 389 C650 222 543 84 380 84 L380 84 Z " />
<glyph glyph-name="omacron" unicode="&#x14d;" horiz-adv-x="580" d="M192 574 L459 574 L467 650 L200 650 L192 574 Z M266 -12 C422 -12 537 112 537 267 C537 397 444 485 314 485 C158 485 43 361 43 206 C43 77 135 -12 266 -12 L266 -12 Z M273 75 C197 75 146 129 146 213 C146 314 211 398 307 398 C383 398 434 345 434 260 C434 159 369 75 273 75 L273 75 Z " />
<glyph glyph-name="Obreve" unicode="&#x14e;" horiz-adv-x="794" d="M453 768 C543 768 607 817 616 916 L530 916 C524 861 498 836 459 836 C423 836 402 856 402 900 C402 905 402 910 403 916 L321 916 L320 889 C320 814 367 768 453 768 L453 768 Z M375 -12 C593 -12 757 170 757 394 C757 583 627 712 443 712 C225 712 60 530 60 306 C60 117 190 -12 375 -12 L375 -12 Z M380 84 C253 84 167 171 167 311 C167 478 276 616 438 616 C567 616 650 529 650 389 C650 222 543 84 380 84 L380 84 Z " />
<glyph glyph-name="obreve" unicode="&#x14f;" horiz-adv-x="580" d="M322 545 C408 545 467 592 476 685 L395 685 C389 633 365 610 327 610 C294 610 275 628 275 669 C275 674 275 679 276 685 L198 685 C197 678 196 668 196 660 C196 589 242 545 322 545 L322 545 Z M266 -12 C422 -12 537 112 537 267 C537 397 444 485 314 485 C158 485 43 361 43 206 C43 77 135 -12 266 -12 L266 -12 Z M273 75 C197 75 146 129 146 213 C146 314 211 398 307 398 C383 398 434 345 434 260 C434 159 369 75 273 75 L273 75 Z " />
<glyph glyph-name="Ohungarumlaut" unicode="&#x150;" horiz-adv-x="794" d="M299 768 L382 768 L488 919 L379 919 L299 768 Z M473 768 L557 768 L662 919 L554 919 L473 768 Z M375 -12 C593 -12 757 170 757 394 C757 583 627 712 443 712 C225 712 60 530 60 306 C60 117 190 -12 375 -12 L375 -12 Z M380 84 C253 84 167 171 167 311 C167 478 276 616 438 616 C567 616 650 529 650 389 C650 222 543 84 380 84 L380 84 Z " />
<glyph glyph-name="ohungarumlaut" unicode="&#x151;" horiz-adv-x="580" d="M178 545 L257 545 L357 688 L254 688 L178 545 Z M343 545 L422 545 L522 688 L419 688 L343 545 Z M266 -12 C422 -12 537 112 537 267 C537 397 444 485 314 485 C158 485 43 361 43 206 C43 77 135 -12 266 -12 L266 -12 Z M273 75 C197 75 146 129 146 213 C146 314 211 398 307 398 C383 398 434 345 434 260 C434 159 369 75 273 75 L273 75 Z " />
<glyph glyph-name="OE" unicode="&#x152;" horiz-adv-x="989" d="M965 604 L975 700 L473 700 C231 700 61 540 61 304 C61 116 192 0 399 0 L901 0 L911 96 L587 96 L609 304 L905 304 L915 399 L619 399 L640 604 L965 604 Z M169 312 C169 489 280 604 458 604 L535 604 L482 96 L404 96 C261 96 169 173 169 312 L169 312 Z " />
<glyph glyph-name="oe" unicode="&#x153;" horiz-adv-x="946" d="M897 213 C902 237 906 259 906 282 C906 407 821 485 702 485 C622 485 548 451 500 391 L496 391 C459 451 396 485 315 485 C160 485 43 361 43 207 C43 77 133 -12 264 -12 C344 -12 412 21 461 81 L465 81 C501 21 567 -12 649 -12 C760 -12 851 46 886 143 L792 143 C761 98 713 73 655 73 C580 73 530 119 530 208 L530 213 L897 213 Z M694 403 C761 403 805 366 807 287 L542 287 C565 354 616 403 694 403 L694 403 Z M270 75 C195 75 146 129 146 212 C146 314 212 398 309 398 C384 398 433 344 433 261 C433 159 366 75 270 75 L270 75 Z " />
<glyph glyph-name="Racute" unicode="&#x154;" horiz-adv-x="649" d="M509 919 L380 919 L290 768 L386 768 L509 919 Z M615 494 C615 619 519 700 362 700 L140 700 L66 0 L171 0 L196 237 L307 237 L453 0 L572 0 L416 249 C534 280 615 367 615 494 L615 494 Z M235 604 L357 604 C458 604 507 562 507 488 C507 387 439 333 328 333 L206 333 L235 604 Z " />
<glyph glyph-name="racute" unicode="&#x155;" horiz-adv-x="374" d="M384 688 L261 688 L177 545 L268 545 L384 688 Z M191 401 L188 401 L189 473 L100 473 L49 0 L149 0 L175 239 C185 340 238 388 325 388 C338 388 352 387 366 385 L376 474 C363 479 347 482 330 482 C275 482 222 452 191 401 L191 401 Z " />
<glyph glyph-name="uni0156" unicode="&#x156;" horiz-adv-x="649" d="M615 494 C615 619 519 700 362 700 L140 700 L66 0 L171 0 L196 237 L307 237 L453 0 L572 0 L416 249 C534 280 615 367 615 494 L615 494 Z M235 604 L357 604 C458 604 507 562 507 488 C507 387 439 333 328 333 L206 333 L235 604 Z M286 -76 C250 -76 214 -103 214 -144 C214 -176 236 -200 270 -200 C275 -200 280 -199 285 -198 C281 -218 272 -238 257 -258 L317 -258 C339 -228 353 -190 353 -153 C353 -105 322 -76 286 -76 L286 -76 Z " />
<glyph glyph-name="uni0157" unicode="&#x157;" horiz-adv-x="374" d="M330 482 C275 482 222 452 191 401 L188 401 L189 473 L100 473 L49 0 L149 0 L175 239 C185 340 238 388 325 388 C338 388 352 387 366 385 L376 474 C363 479 347 482 330 482 L330 482 Z M85 -76 C49 -76 13 -103 13 -144 C13 -176 35 -200 69 -200 C74 -200 79 -199 84 -198 C80 -218 71 -238 56 -258 L116 -258 C138 -228 152 -190 152 -153 C152 -105 121 -76 85 -76 L85 -76 Z " />
<glyph glyph-name="Rcaron" unicode="&#x158;" horiz-adv-x="649" d="M405 768 L545 919 L443 919 L360 830 L297 919 L201 919 L309 768 L405 768 Z M615 494 C615 619 519 700 362 700 L140 700 L66 0 L171 0 L196 237 L307 237 L453 0 L572 0 L416 249 C534 280 615 367 615 494 L615 494 Z M235 604 L357 604 C458 604 507 562 507 488 C507 387 439 333 328 333 L206 333 L235 604 Z " />
<glyph glyph-name="rcaron" unicode="&#x159;" horiz-adv-x="374" d="M279 545 L401 688 L309 688 L243 608 L192 688 L106 688 L198 545 L279 545 Z M191 401 L188 401 L189 473 L100 473 L49 0 L149 0 L175 239 C185 340 238 388 325 388 C338 388 352 387 366 385 L376 474 C363 479 347 482 330 482 C275 482 222 452 191 401 L191 401 Z " />
<glyph glyph-name="Sacute" unicode="&#x15a;" horiz-adv-x="594" d="M281 768 L377 768 L500 919 L371 919 L281 768 Z M277 -12 C430 -12 552 79 552 224 C552 307 500 363 378 390 L314 405 C217 426 185 449 185 498 C185 571 249 618 336 618 C418 618 465 580 465 497 L571 497 C575 631 484 712 345 712 C199 712 79 626 79 487 C79 404 136 346 252 320 L316 306 C413 284 445 258 445 209 C445 135 377 82 287 82 C197 82 144 129 148 222 L41 222 C30 77 130 -12 277 -12 L277 -12 Z " />
<glyph glyph-name="sacute" unicode="&#x15b;" horiz-adv-x="464" d="M203 545 L294 545 L410 688 L287 688 L203 545 Z M214 -12 C335 -12 419 56 419 157 C419 218 379 257 291 275 L235 286 C169 299 153 315 153 338 C153 377 189 406 248 406 C304 406 332 381 332 341 L430 341 C430 433 366 485 257 485 C145 485 55 422 55 323 C55 265 97 226 182 209 L239 198 C300 186 320 166 320 140 C320 97 279 68 220 68 C164 68 130 95 129 145 L30 145 C28 48 98 -12 214 -12 L214 -12 Z " />
<glyph glyph-name="Scircumflex" unicode="&#x15c;" horiz-adv-x="594" d="M360 857 L424 768 L520 768 L412 919 L316 919 L176 768 L278 768 L360 857 Z M336 618 C418 618 465 580 465 497 L571 497 C575 631 484 712 345 712 C199 712 79 626 79 487 C79 404 136 346 252 320 L316 306 C413 284 445 258 445 209 C445 135 377 82 287 82 C197 82 144 129 148 222 L41 222 C30 77 130 -12 277 -12 C430 -12 552 79 552 224 C552 307 500 363 378 390 L314 405 C217 426 185 449 185 498 C185 571 249 618 336 618 L336 618 Z " />
<glyph glyph-name="scircumflex" unicode="&#x15d;" horiz-adv-x="464" d="M276 630 L336 545 L427 545 L325 688 L234 688 L101 545 L198 545 L276 630 Z M291 275 L235 286 C169 299 153 315 153 338 C153 377 189 406 248 406 C304 406 332 381 332 341 L430 341 C430 433 366 485 257 485 C145 485 55 422 55 323 C55 265 97 226 182 209 L239 198 C300 186 320 166 320 140 C320 97 279 68 220 68 C164 68 130 95 129 145 L30 145 C28 48 98 -12 214 -12 C335 -12 419 56 419 157 C419 218 379 257 291 275 L291 275 Z " />
<glyph glyph-name="Scedilla" unicode="&#x15e;" horiz-adv-x="594" d="M336 618 C418 618 465 580 465 497 L571 497 C575 631 484 712 345 712 C199 712 79 626 79 487 C79 404 136 346 252 320 L316 306 C413 284 445 258 445 209 C445 135 377 82 287 82 C197 82 144 129 148 222 L41 222 C31 93 110 8 231 -9 L215 -102 C280 -102 294 -111 294 -126 C294 -147 275 -160 233 -160 C223 -160 210 -159 197 -157 L190 -224 C206 -227 221 -228 235 -228 C314 -228 374 -192 374 -125 C374 -83 345 -57 295 -51 L300 -11 C442 -3 552 86 552 224 C552 307 500 363 378 390 L314 405 C217 426 185 449 185 498 C185 571 249 618 336 618 L336 618 Z " />
<glyph glyph-name="scedilla" unicode="&#x15f;" horiz-adv-x="464" d="M291 275 L235 286 C169 299 153 315 153 338 C153 377 189 406 248 406 C304 406 332 381 332 341 L430 341 C430 433 366 485 257 485 C145 485 55 422 55 323 C55 265 97 226 182 209 L239 198 C300 186 320 166 320 140 C320 97 279 68 220 68 C164 68 130 95 129 145 L30 145 C28 63 78 7 165 -8 L147 -102 C213 -102 226 -111 226 -126 C226 -146 209 -160 166 -160 C156 -160 143 -159 129 -157 L123 -224 C138 -227 154 -228 168 -228 C255 -228 307 -186 307 -125 C307 -83 278 -57 228 -51 L233 -11 C344 -5 419 61 419 157 C419 218 379 257 291 275 L291 275 Z " />
<glyph glyph-name="Scaron" unicode="&#x160;" horiz-adv-x="594" d="M396 768 L536 919 L434 919 L351 830 L288 919 L192 919 L300 768 L396 768 Z M336 618 C418 618 465 580 465 497 L571 497 C575 631 484 712 345 712 C199 712 79 626 79 487 C79 404 136 346 252 320 L316 306 C413 284 445 258 445 209 C445 135 377 82 287 82 C197 82 144 129 148 222 L41 222 C30 77 130 -12 277 -12 C430 -12 552 79 552 224 C552 307 500 363 378 390 L314 405 C217 426 185 449 185 498 C185 571 249 618 336 618 L336 618 Z " />
<glyph glyph-name="scaron" unicode="&#x161;" horiz-adv-x="464" d="M310 545 L442 688 L346 688 L268 604 L208 688 L117 688 L218 545 L310 545 Z M248 406 C304 406 332 381 332 341 L430 341 C430 433 366 485 257 485 C145 485 55 422 55 323 C55 265 97 226 182 209 L239 198 C300 186 320 166 320 140 C320 97 279 68 220 68 C164 68 130 95 129 145 L30 145 C28 48 98 -12 214 -12 C335 -12 419 56 419 157 C419 218 379 257 291 275 L235 286 C169 299 153 315 153 338 C153 377 189 406 248 406 L248 406 Z " />
<glyph glyph-name="uni0162" unicode="&#x162;" horiz-adv-x="565" d="M592 700 L70 700 L60 604 L269 604 L205 0 L310 0 L374 604 L582 604 L592 700 Z M243 -76 C207 -76 171 -103 171 -144 C171 -176 193 -200 227 -200 C232 -200 237 -199 242 -198 C238 -218 229 -238 214 -258 L274 -258 C296 -228 310 -190 310 -153 C310 -105 279 -76 243 -76 L243 -76 Z " />
<glyph glyph-name="uni0163" unicode="&#x163;" horiz-adv-x="367" d="M215 387 L345 387 L355 473 L224 473 L236 591 L136 591 L124 473 L41 473 L32 387 L115 387 L92 167 C91 154 90 141 90 129 C90 29 143 -12 241 -12 C269 -12 291 -9 308 -5 L316 78 C302 75 286 74 272 74 C207 74 184 96 193 170 L215 387 Z M185 -76 C149 -76 113 -103 113 -144 C113 -176 135 -200 169 -200 C174 -200 179 -199 184 -198 C180 -218 171 -238 156 -258 L216 -258 C238 -228 252 -190 252 -153 C252 -105 221 -76 185 -76 L185 -76 Z " />
<glyph glyph-name="Tcaron" unicode="&#x164;" horiz-adv-x="565" d="M386 768 L526 919 L424 919 L341 830 L278 919 L182 919 L290 768 L386 768 Z M592 700 L70 700 L60 604 L269 604 L205 0 L310 0 L374 604 L582 604 L592 700 Z " />
<glyph glyph-name="tcaron" unicode="&#x165;" horiz-adv-x="367" d="M348 747 C311 747 275 720 275 680 C275 648 297 624 332 624 C337 624 342 625 347 625 C343 605 334 586 318 566 L378 566 C400 595 415 634 415 670 C415 719 384 747 348 747 L348 747 Z M236 591 L136 591 L124 473 L41 473 L32 387 L115 387 L92 167 C91 154 90 141 90 129 C90 29 143 -12 241 -12 C269 -12 291 -9 308 -5 L316 78 C302 75 286 74 272 74 C207 74 184 96 193 170 L215 387 L345 387 L355 473 L224 473 L236 591 Z " />
<glyph glyph-name="Tbar" unicode="&#x166;" horiz-adv-x="565" d="M582 604 L592 700 L70 700 L60 604 L269 604 L243 357 L117 357 L108 275 L234 275 L205 0 L310 0 L339 275 L465 275 L474 357 L348 357 L374 604 L582 604 Z " />
<glyph glyph-name="tbar" unicode="&#x167;" horiz-adv-x="379" d="M351 387 L361 473 L230 473 L242 591 L142 591 L130 473 L47 473 L38 387 L121 387 L109 275 L26 275 L19 206 L102 206 L98 167 C97 154 96 141 96 129 C96 29 149 -12 247 -12 C275 -12 297 -9 314 -5 L322 78 C308 75 292 74 278 74 C213 74 190 96 199 170 L203 206 L333 206 L340 275 L210 275 L221 387 L351 387 Z " />
<glyph glyph-name="Utilde" unicode="&#x168;" horiz-adv-x="702" d="M480 766 C541 766 587 815 595 915 L523 915 C517 860 500 840 482 840 C471 840 458 847 436 872 C408 908 383 922 351 922 C290 922 244 873 236 773 L311 773 C317 828 332 848 349 848 C362 848 374 841 396 816 C426 781 450 766 480 766 L480 766 Z M325 -12 C491 -12 606 97 624 274 L669 700 L564 700 L520 273 C506 150 434 85 333 85 C242 85 189 138 189 237 C189 249 190 260 191 273 L235 700 L131 700 L86 274 C84 259 84 245 84 232 C84 80 175 -12 325 -12 L325 -12 Z " />
<glyph glyph-name="utilde" unicode="&#x169;" horiz-adv-x="559" d="M258 621 C270 621 282 614 302 590 C331 558 353 543 381 543 C438 543 482 590 490 684 L422 684 C416 632 400 614 383 614 C373 614 360 619 340 644 C314 677 290 691 260 691 C203 691 160 644 151 550 L222 550 C228 602 244 621 258 621 L258 621 Z M410 473 L383 217 C373 123 318 78 248 78 C195 78 166 104 166 175 C166 186 167 197 168 211 L196 473 L96 473 L64 175 C63 165 62 155 62 147 C62 44 124 -12 211 -12 C271 -12 331 16 367 62 L370 62 L369 0 L460 0 L510 473 L410 473 Z " />
<glyph glyph-name="Umacron" unicode="&#x16a;" horiz-adv-x="702" d="M269 799 L552 799 L561 879 L277 879 L269 799 Z M325 -12 C491 -12 606 97 624 274 L669 700 L564 700 L520 273 C506 150 434 85 333 85 C242 85 189 138 189 237 C189 249 190 260 191 273 L235 700 L131 700 L86 274 C84 259 84 245 84 232 C84 80 175 -12 325 -12 L325 -12 Z " />
<glyph glyph-name="umacron" unicode="&#x16b;" horiz-adv-x="559" d="M457 650 L190 650 L182 574 L449 574 L457 650 Z M410 473 L383 217 C373 123 318 78 248 78 C195 78 166 104 166 175 C166 186 167 197 168 211 L196 473 L96 473 L64 175 C63 165 62 155 62 147 C62 44 124 -12 211 -12 C271 -12 331 16 367 62 L370 62 L369 0 L460 0 L510 473 L410 473 Z " />
<glyph glyph-name="Ubreve" unicode="&#x16c;" horiz-adv-x="702" d="M407 768 C497 768 561 817 570 916 L484 916 C478 861 452 836 413 836 C377 836 356 856 356 900 C356 905 356 910 357 916 L275 916 L274 889 C274 814 321 768 407 768 L407 768 Z M325 -12 C491 -12 606 97 624 274 L669 700 L564 700 L520 273 C506 150 434 85 333 85 C242 85 189 138 189 237 C189 249 190 260 191 273 L235 700 L131 700 L86 274 C84 259 84 245 84 232 C84 80 175 -12 325 -12 L325 -12 Z " />
<glyph glyph-name="ubreve" unicode="&#x16d;" horiz-adv-x="559" d="M312 545 C398 545 457 592 466 685 L385 685 C379 633 355 610 317 610 C284 610 265 628 265 669 C265 674 265 679 266 685 L188 685 C187 678 186 668 186 660 C186 589 232 545 312 545 L312 545 Z M410 473 L383 217 C373 123 318 78 248 78 C195 78 166 104 166 175 C166 186 167 197 168 211 L196 473 L96 473 L64 175 C63 165 62 155 62 147 C62 44 124 -12 211 -12 C271 -12 331 16 367 62 L370 62 L369 0 L460 0 L510 473 L410 473 Z " />
<glyph glyph-name="Uring" unicode="&#x16e;" horiz-adv-x="702" d="M408 759 C477 759 531 813 531 878 C531 932 487 973 427 973 C359 973 303 919 303 855 C303 801 348 759 408 759 L408 759 Z M412 822 C387 822 372 839 372 861 C372 889 394 911 422 911 C447 911 462 894 462 872 C462 843 441 822 412 822 L412 822 Z M325 -12 C491 -12 606 97 624 274 L669 700 L564 700 L520 273 C506 150 434 85 333 85 C242 85 189 138 189 237 C189 249 190 260 191 273 L235 700 L131 700 L86 274 C84 259 84 245 84 232 C84 80 175 -12 325 -12 L325 -12 Z " />
<glyph glyph-name="uring" unicode="&#x16f;" horiz-adv-x="559" d="M314 538 C380 538 431 590 431 650 C431 702 388 741 331 741 C266 741 214 690 214 629 C214 577 257 538 314 538 L314 538 Z M327 681 C351 681 364 666 364 645 C364 617 346 598 318 598 C294 598 280 613 280 635 C280 659 298 681 327 681 L327 681 Z M410 473 L383 217 C373 123 318 78 248 78 C195 78 166 104 166 175 C166 186 167 197 168 211 L196 473 L96 473 L64 175 C63 165 62 155 62 147 C62 44 124 -12 211 -12 C271 -12 331 16 367 62 L370 62 L369 0 L460 0 L510 473 L410 473 Z " />
<glyph glyph-name="Uhungarumlaut" unicode="&#x170;" horiz-adv-x="702" d="M253 768 L336 768 L442 919 L333 919 L253 768 Z M427 768 L511 768 L616 919 L508 919 L427 768 Z M325 -12 C491 -12 606 97 624 274 L669 700 L564 700 L520 273 C506 150 434 85 333 85 C242 85 189 138 189 237 C189 249 190 260 191 273 L235 700 L131 700 L86 274 C84 259 84 245 84 232 C84 80 175 -12 325 -12 L325 -12 Z " />
<glyph glyph-name="uhungarumlaut" unicode="&#x171;" horiz-adv-x="559" d="M347 688 L244 688 L168 545 L247 545 L347 688 Z M412 545 L512 688 L409 688 L333 545 L412 545 Z M383 217 C373 123 318 78 248 78 C195 78 166 104 166 175 C166 186 167 197 168 211 L196 473 L96 473 L64 175 C63 165 62 155 62 147 C62 44 124 -12 211 -12 C271 -12 331 16 367 62 L370 62 L369 0 L460 0 L510 473 L410 473 L383 217 Z " />
<glyph glyph-name="Uogonek" unicode="&#x172;" horiz-adv-x="702" d="M564 700 L520 273 C506 150 434 85 333 85 C242 85 189 138 189 237 C189 249 190 260 191 273 L235 700 L131 700 L86 274 C84 259 84 245 84 232 C84 85 169 -6 310 -12 C265 -43 234 -88 234 -136 C234 -192 277 -226 347 -226 C365 -226 383 -224 398 -221 L407 -139 C394 -143 382 -144 373 -144 C343 -144 329 -132 329 -111 C329 -78 350 -47 420 1 C534 35 610 133 624 274 L669 700 L564 700 Z " />
<glyph glyph-name="uogonek" unicode="&#x173;" horiz-adv-x="559" d="M460 0 L510 473 L410 473 L383 217 C373 123 318 78 248 78 C195 78 166 104 166 175 C166 186 167 197 168 211 L196 473 L96 473 L64 175 C63 165 62 155 62 147 C62 44 124 -12 211 -12 C271 -12 331 16 367 62 L370 62 L369 0 L373 0 C321 -29 285 -77 285 -130 C285 -183 325 -215 391 -215 C408 -215 424 -213 438 -210 L447 -133 C435 -136 424 -137 415 -137 C386 -137 373 -127 373 -105 C373 -68 413 -33 460 0 L460 0 Z " />
<glyph glyph-name="Wcircumflex" unicode="&#x174;" horiz-adv-x="1001" d="M569 857 L633 768 L729 768 L621 919 L525 919 L385 768 L487 768 L569 857 Z M924 700 L707 163 L704 163 L599 700 L499 700 L281 163 L278 163 L174 700 L68 700 L207 0 L314 0 L534 545 L537 545 L641 0 L744 0 L1031 700 L924 700 Z " />
<glyph glyph-name="wcircumflex" unicode="&#x175;" horiz-adv-x="794" d="M441 630 L501 545 L592 545 L490 688 L399 688 L266 545 L363 545 L441 630 Z M698 473 L556 130 L553 130 L470 473 L374 473 L218 130 L215 130 L146 473 L45 473 L150 0 L253 0 L408 344 L410 344 L491 0 L594 0 L799 473 L698 473 Z " />
<glyph glyph-name="Ycircumflex" unicode="&#x176;" horiz-adv-x="625" d="M380 857 L444 768 L540 768 L432 919 L336 919 L196 768 L298 768 L380 857 Z M548 700 L327 377 L324 377 L172 700 L56 700 L264 277 L235 0 L340 0 L369 277 L667 700 L548 700 Z " />
<glyph glyph-name="ycircumflex" unicode="&#x177;" horiz-adv-x="504" d="M297 630 L357 545 L448 545 L346 688 L255 688 L122 545 L219 545 L297 630 Z M413 473 L240 120 L237 120 L141 473 L36 473 L175 2 L62 -224 L166 -224 L519 473 L413 473 Z " />
<glyph glyph-name="Ydieresis" unicode="&#x178;" horiz-adv-x="625" d="M265 777 C305 777 339 811 339 851 C339 886 312 911 278 911 C238 911 205 876 205 836 C205 802 231 777 265 777 L265 777 Z M476 777 C516 777 549 811 549 851 C549 886 523 911 489 911 C449 911 416 876 416 836 C416 802 442 777 476 777 L476 777 Z M235 0 L340 0 L369 277 L667 700 L548 700 L327 377 L324 377 L172 700 L56 700 L264 277 L235 0 Z " />
<glyph glyph-name="Zacute" unicode="&#x179;" horiz-adv-x="573" d="M492 919 L363 919 L273 768 L369 768 L492 919 Z M566 700 L105 700 L94 604 L428 604 L32 81 L23 0 L500 0 L511 96 L162 96 L558 619 L566 700 Z " />
<glyph glyph-name="zacute" unicode="&#x17a;" horiz-adv-x="450" d="M403 688 L280 688 L196 545 L287 545 L403 688 Z M432 473 L66 473 L57 387 L294 387 L19 68 L12 0 L388 0 L397 87 L151 87 L425 405 L432 473 Z " />
<glyph glyph-name="Zdotaccent" unicode="&#x17b;" horiz-adv-x="573" d="M342 777 C383 777 417 811 417 852 C417 887 390 912 355 912 C314 912 280 877 280 837 C280 802 306 777 342 777 L342 777 Z M566 700 L105 700 L94 604 L428 604 L32 81 L23 0 L500 0 L511 96 L162 96 L558 619 L566 700 Z " />
<glyph glyph-name="zdotaccent" unicode="&#x17c;" horiz-adv-x="450" d="M260 553 C298 553 330 585 330 624 C330 658 305 682 271 682 C234 682 200 652 200 610 C200 577 226 553 260 553 L260 553 Z M432 473 L66 473 L57 387 L294 387 L19 68 L12 0 L388 0 L397 87 L151 87 L425 405 L432 473 Z " />
<glyph glyph-name="Zcaron" unicode="&#x17d;" horiz-adv-x="573" d="M388 768 L528 919 L426 919 L343 830 L280 919 L184 919 L292 768 L388 768 Z M566 700 L105 700 L94 604 L428 604 L32 81 L23 0 L500 0 L511 96 L162 96 L558 619 L566 700 Z " />
<glyph glyph-name="zcaron" unicode="&#x17e;" horiz-adv-x="450" d="M303 545 L435 688 L339 688 L261 604 L201 688 L110 688 L211 545 L303 545 Z M57 387 L294 387 L19 68 L12 0 L388 0 L397 87 L151 87 L425 405 L432 473 L66 473 L57 387 Z " />
<glyph glyph-name="florin" unicode="&#x192;" horiz-adv-x="466" d="M439 712 C350 712 289 668 258 562 L218 428 L95 428 L87 353 L196 353 L141 168 C122 98 92 79 44 79 C33 79 22 80 9 82 L0 -5 C15 -10 31 -12 51 -12 C140 -12 201 32 233 138 L296 353 L438 353 L445 428 L318 428 L349 532 C369 602 398 621 446 621 C457 621 469 620 481 618 L491 705 C475 710 459 712 439 712 L439 712 Z " />
<glyph glyph-name="uni01CD" unicode="&#x1cd;" horiz-adv-x="653" d="M430 768 L570 919 L468 919 L385 830 L322 919 L226 919 L334 768 L430 768 Z M510 0 L613 0 L433 700 L318 700 L-11 0 L100 0 L176 167 L469 167 L510 0 Z M218 257 L364 577 L367 577 L446 257 L218 257 Z " />
<glyph glyph-name="uni01CE" unicode="&#x1ce;" horiz-adv-x="598" d="M380 545 L512 688 L416 688 L338 604 L278 688 L187 688 L288 545 L380 545 Z M458 473 L446 411 L443 411 C417 455 360 485 294 485 C153 485 44 361 44 204 C44 75 127 -12 242 -12 C311 -12 375 18 406 62 L409 62 L408 0 L498 0 L549 473 L458 473 Z M270 76 C195 76 147 126 147 211 C147 319 210 398 305 398 C382 398 430 347 430 262 C430 157 368 76 270 76 L270 76 Z " />
<glyph glyph-name="uni01E2" unicode="&#x1e2;" horiz-adv-x="1002" d="M877 879 L593 879 L585 799 L868 799 L877 879 Z M977 604 L988 700 L494 700 L-15 0 L112 0 L238 176 L504 176 L485 0 L914 0 L924 96 L600 96 L622 304 L917 304 L927 399 L632 399 L653 604 L977 604 Z M302 266 L543 604 L549 604 L513 266 L302 266 Z " />
<glyph glyph-name="uni01E3" unicode="&#x1e3;" horiz-adv-x="888" d="M631 650 L364 650 L356 574 L623 574 L631 650 Z M839 213 C844 230 849 264 849 283 C849 407 766 485 648 485 C576 485 511 458 463 409 L460 409 C436 460 383 485 302 485 C173 485 90 422 76 319 L177 319 C186 371 226 401 296 401 C368 401 398 369 390 295 L388 280 L276 280 C146 280 39 230 39 116 C39 40 103 -12 202 -12 C293 -12 370 25 410 86 L413 86 C444 25 512 -12 593 -12 C702 -12 793 46 827 143 L732 143 C702 98 655 73 600 73 C529 73 479 119 479 207 L479 213 L839 213 Z M642 401 C705 401 748 365 750 287 L492 287 C515 353 568 401 642 401 L642 401 Z M221 71 C170 71 142 91 142 128 C142 183 196 205 270 205 L380 205 L380 203 C372 127 309 71 221 71 L221 71 Z " />
<glyph glyph-name="Gcaron" unicode="&#x1e6;" horiz-adv-x="779" d="M503 768 L643 919 L541 919 L458 830 L395 919 L299 919 L407 768 L503 768 Z M414 276 L622 276 C592 155 493 83 377 83 C250 83 167 169 167 309 C167 481 275 617 442 617 C548 617 619 560 627 467 L737 467 C729 618 609 712 447 712 C220 712 59 530 59 301 C59 113 185 -12 361 -12 C458 -12 548 28 603 99 L606 99 L606 0 L688 0 L726 368 L423 368 L414 276 Z " />
<glyph glyph-name="gcaron" unicode="&#x1e7;" horiz-adv-x="600" d="M379 545 L511 688 L415 688 L337 604 L277 688 L186 688 L287 545 L379 545 Z M460 473 L447 411 L444 411 C419 455 359 485 293 485 C150 485 46 356 46 210 C46 84 129 -2 244 -2 C313 -2 377 27 409 71 L412 71 L404 -3 C394 -94 332 -150 241 -150 C167 -150 126 -114 125 -51 L23 -51 C20 -167 105 -236 237 -236 C388 -236 485 -148 500 0 L550 473 L460 473 Z M272 84 C197 84 149 135 149 217 C149 318 211 398 308 398 C383 398 430 347 430 266 C430 165 369 84 272 84 L272 84 Z " />
<glyph glyph-name="uni01E8" unicode="&#x1e8;" horiz-adv-x="636" d="M436 768 L576 919 L474 919 L391 830 L328 919 L232 919 L340 768 L436 768 Z M668 700 L537 700 L215 380 L212 380 L245 700 L140 700 L66 0 L171 0 L205 315 L208 315 L471 0 L601 0 L313 348 L668 700 Z " />
<glyph glyph-name="uni01E9" unicode="&#x1e9;" horiz-adv-x="515" d="M226 772 L358 915 L262 915 L184 831 L124 915 L33 915 L134 772 L226 772 Z M526 473 L398 473 L181 276 L179 276 L223 700 L123 700 L49 0 L149 0 L173 218 L176 218 L359 0 L482 0 L276 246 L526 473 Z " />
<glyph glyph-name="AEacute" unicode="&#x1fc;" horiz-adv-x="1002" d="M875 919 L746 919 L656 768 L752 768 L875 919 Z M977 604 L988 700 L494 700 L-15 0 L112 0 L238 176 L504 176 L485 0 L914 0 L924 96 L600 96 L622 304 L917 304 L927 399 L632 399 L653 604 L977 604 Z M302 266 L543 604 L549 604 L513 266 L302 266 Z " />
<glyph glyph-name="aeacute" unicode="&#x1fd;" horiz-adv-x="888" d="M632 688 L509 688 L425 545 L516 545 L632 688 Z M839 213 C844 230 849 264 849 283 C849 407 766 485 648 485 C576 485 511 458 463 409 L460 409 C436 460 383 485 302 485 C173 485 90 422 76 319 L177 319 C186 371 226 401 296 401 C368 401 398 369 390 295 L388 280 L276 280 C146 280 39 230 39 116 C39 40 103 -12 202 -12 C293 -12 370 25 410 86 L413 86 C444 25 512 -12 593 -12 C702 -12 793 46 827 143 L732 143 C702 98 655 73 600 73 C529 73 479 119 479 207 L479 213 L839 213 Z M642 401 C705 401 748 365 750 287 L492 287 C515 353 568 401 642 401 L642 401 Z M221 71 C170 71 142 91 142 128 C142 183 196 205 270 205 L380 205 L380 203 C372 127 309 71 221 71 L221 71 Z " />
<glyph glyph-name="Oslashacute" unicode="&#x1fe;" horiz-adv-x="807" d="M611 919 L482 919 L392 768 L488 768 L611 919 Z M806 648 L751 709 L667 633 C612 683 537 712 449 712 C231 712 66 530 66 306 C66 239 82 180 112 131 L24 52 L80 -9 L164 67 C219 17 294 -12 381 -12 C600 -12 764 170 764 394 C764 461 748 520 718 569 L806 648 Z M445 616 C504 616 554 597 591 563 L194 204 C181 235 174 271 174 311 C174 478 282 616 445 616 L445 616 Z M386 84 C327 84 277 103 240 137 L637 496 C650 465 657 429 657 389 C657 222 549 84 386 84 L386 84 Z " />
<glyph glyph-name="oslashacute" unicode="&#x1ff;" horiz-adv-x="587" d="M468 688 L345 688 L261 545 L352 545 L468 688 Z M583 452 L538 503 L464 437 C426 468 376 485 318 485 C163 485 47 360 47 207 C47 161 58 121 79 88 L4 20 L49 -30 L123 37 C161 6 212 -12 270 -12 C426 -12 540 113 540 266 C540 312 529 352 509 385 L583 452 Z M311 403 C346 403 376 392 399 372 L156 152 C149 170 146 190 146 212 C146 316 212 403 311 403 L311 403 Z M277 71 C242 71 212 82 190 102 L433 321 C439 304 443 283 443 261 C443 157 376 71 277 71 L277 71 Z " />
<glyph glyph-name="uni0218" unicode="&#x218;" horiz-adv-x="594" d="M336 618 C418 618 465 580 465 497 L571 497 C575 631 484 712 345 712 C199 712 79 626 79 487 C79 404 136 346 252 320 L316 306 C413 284 445 258 445 209 C445 135 377 82 287 82 C197 82 144 129 148 222 L41 222 C30 77 130 -12 277 -12 C430 -12 552 79 552 224 C552 307 500 363 378 390 L314 405 C217 426 185 449 185 498 C185 571 249 618 336 618 L336 618 Z M253 -76 C217 -76 181 -103 181 -144 C181 -176 203 -200 237 -200 C242 -200 247 -199 252 -198 C248 -218 239 -238 224 -258 L284 -258 C306 -228 320 -190 320 -153 C320 -105 289 -76 253 -76 L253 -76 Z " />
<glyph glyph-name="uni0219" unicode="&#x219;" horiz-adv-x="464" d="M291 275 L235 286 C169 299 153 315 153 338 C153 377 189 406 248 406 C304 406 332 381 332 341 L430 341 C430 433 366 485 257 485 C145 485 55 422 55 323 C55 265 97 226 182 209 L239 198 C300 186 320 166 320 140 C320 97 279 68 220 68 C164 68 130 95 129 145 L30 145 C28 48 98 -12 214 -12 C335 -12 419 56 419 157 C419 218 379 257 291 275 L291 275 Z M186 -76 C150 -76 114 -103 114 -144 C114 -176 136 -200 170 -200 C175 -200 180 -199 185 -198 C181 -218 172 -238 157 -258 L217 -258 C239 -228 253 -190 253 -153 C253 -105 222 -76 186 -76 L186 -76 Z " />
<glyph glyph-name="uni021A" unicode="&#x21a;" horiz-adv-x="565" d="M592 700 L70 700 L60 604 L269 604 L205 0 L310 0 L374 604 L582 604 L592 700 Z M243 -76 C207 -76 171 -103 171 -144 C171 -176 193 -200 227 -200 C232 -200 237 -199 242 -198 C238 -218 229 -238 214 -258 L274 -258 C296 -228 310 -190 310 -153 C310 -105 279 -76 243 -76 L243 -76 Z " />
<glyph glyph-name="uni021B" unicode="&#x21b;" horiz-adv-x="367" d="M215 387 L345 387 L355 473 L224 473 L236 591 L136 591 L124 473 L41 473 L32 387 L115 387 L92 167 C91 154 90 141 90 129 C90 29 143 -12 241 -12 C269 -12 291 -9 308 -5 L316 78 C302 75 286 74 272 74 C207 74 184 96 193 170 L215 387 Z M185 -76 C149 -76 113 -103 113 -144 C113 -176 135 -200 169 -200 C174 -200 179 -199 184 -198 C180 -218 171 -238 156 -258 L216 -258 C238 -228 252 -190 252 -153 C252 -105 221 -76 185 -76 L185 -76 Z " />
<glyph glyph-name="uni0237" unicode="&#x237;" horiz-adv-x="249" d="M-18 -236 C84 -236 129 -190 141 -78 L200 473 L100 473 L41 -75 C36 -131 15 -149 -31 -149 C-42 -149 -52 -148 -60 -147 L-69 -231 C-55 -234 -39 -236 -18 -236 L-18 -236 Z " />
<glyph glyph-name="circumflex" unicode="&#x2c6;" horiz-adv-x="600" d="M495 545 L393 688 L302 688 L169 545 L266 545 L344 630 L404 545 L495 545 Z " />
<glyph glyph-name="caron" unicode="&#x2c7;" horiz-adv-x="600" d="M414 688 L336 604 L276 688 L185 688 L286 545 L378 545 L510 688 L414 688 Z " />
<glyph glyph-name="breve" unicode="&#x2d8;" horiz-adv-x="600" d="M332 545 C418 545 477 592 486 685 L405 685 C399 633 375 610 337 610 C304 610 285 628 285 669 C285 674 285 679 286 685 L208 685 C207 678 206 668 206 660 C206 589 252 545 332 545 L332 545 Z " />
<glyph glyph-name="dotaccent" unicode="&#x2d9;" horiz-adv-x="600" d="M335 553 C373 553 405 585 405 624 C405 658 380 682 346 682 C309 682 275 652 275 610 C275 577 301 553 335 553 L335 553 Z " />
<glyph glyph-name="ring" unicode="&#x2da;" horiz-adv-x="600" d="M334 538 C400 538 451 590 451 650 C451 702 408 741 351 741 C286 741 234 690 234 629 C234 577 277 538 334 538 L334 538 Z M338 598 C314 598 300 613 300 635 C300 659 318 681 347 681 C371 681 384 666 384 645 C384 617 366 598 338 598 L338 598 Z " />
<glyph glyph-name="ogonek" unicode="&#x2db;" horiz-adv-x="600" d="M287 -215 C304 -215 320 -213 334 -210 L343 -133 C331 -136 320 -137 311 -137 C282 -137 269 -127 269 -105 C269 -68 309 -33 356 0 L323 22 C244 1 181 -60 181 -130 C181 -183 221 -215 287 -215 L287 -215 Z " />
<glyph glyph-name="tilde" unicode="&#x2dc;" horiz-adv-x="600" d="M401 543 C458 543 502 590 510 684 L442 684 C436 632 420 614 403 614 C393 614 380 619 360 644 C334 677 310 691 280 691 C223 691 180 644 171 550 L242 550 C248 602 264 621 278 621 C290 621 302 614 322 590 C351 558 373 543 401 543 L401 543 Z " />
<glyph glyph-name="hungarumlaut" unicode="&#x2dd;" horiz-adv-x="600" d="M193 545 L272 545 L372 688 L269 688 L193 545 Z M358 545 L437 545 L537 688 L434 688 L358 545 Z " />
<glyph glyph-name="gravecomb" unicode="&#x300;" d="M-281 545 L-195 545 L-249 688 L-367 688 L-281 545 Z " />
<glyph glyph-name="acutecomb" unicode="&#x301;" d="M-349 545 L-258 545 L-142 688 L-265 688 L-349 545 Z " />
<glyph glyph-name="uni0302" unicode="&#x302;" d="M-105 545 L-207 688 L-298 688 L-431 545 L-334 545 L-256 630 L-196 545 L-105 545 Z " />
<glyph glyph-name="tildecomb" unicode="&#x303;" d="M-199 543 C-142 543 -98 590 -90 684 L-158 684 C-164 632 -180 614 -197 614 C-207 614 -220 619 -240 644 C-266 677 -290 691 -320 691 C-377 691 -420 644 -429 550 L-358 550 C-352 602 -336 621 -322 621 C-310 621 -298 614 -278 590 C-249 558 -227 543 -199 543 L-199 543 Z " />
<glyph glyph-name="uni0304" unicode="&#x304;" d="M-398 574 L-131 574 L-123 650 L-390 650 L-398 574 Z " />
<glyph glyph-name="uni0306" unicode="&#x306;" d="M-268 545 C-182 545 -123 592 -114 685 L-195 685 C-201 633 -225 610 -263 610 C-296 610 -315 628 -315 669 C-315 674 -315 679 -314 685 L-392 685 C-393 678 -394 668 -394 660 C-394 589 -348 545 -268 545 L-268 545 Z " />
<glyph glyph-name="uni0307" unicode="&#x307;" d="M-265 553 C-227 553 -195 585 -195 624 C-195 658 -220 682 -254 682 C-291 682 -325 652 -325 610 C-325 577 -299 553 -265 553 L-265 553 Z " />
<glyph glyph-name="uni0308" unicode="&#x308;" d="M-366 553 C-328 553 -297 585 -297 623 C-297 656 -322 680 -355 680 C-391 680 -424 651 -424 609 C-424 577 -398 553 -366 553 L-366 553 Z M-165 553 C-128 553 -96 585 -96 623 C-96 656 -122 680 -154 680 C-190 680 -223 651 -223 609 C-223 577 -198 553 -165 553 L-165 553 Z " />
<glyph glyph-name="uni030A" unicode="&#x30a;" d="M-266 538 C-200 538 -149 590 -149 650 C-149 702 -192 741 -249 741 C-314 741 -366 690 -366 629 C-366 577 -323 538 -266 538 L-266 538 Z M-262 598 C-286 598 -300 613 -300 635 C-300 659 -282 681 -253 681 C-229 681 -216 666 -216 645 C-216 617 -234 598 -262 598 L-262 598 Z " />
<glyph glyph-name="uni030B" unicode="&#x30b;" d="M-407 545 L-328 545 L-228 688 L-331 688 L-407 545 Z M-242 545 L-163 545 L-63 688 L-166 688 L-242 545 Z " />
<glyph glyph-name="uni030C" unicode="&#x30c;" d="M-186 688 L-264 604 L-324 688 L-415 688 L-314 545 L-222 545 L-90 688 L-186 688 Z " />
<glyph glyph-name="uni0315" unicode="&#x315;" d="M-256 712 C-292 712 -327 684 -327 643 C-327 611 -305 588 -271 588 C-265 588 -261 589 -256 590 C-262 558 -283 530 -328 493 L-300 458 C-239 500 -189 561 -189 633 C-189 683 -218 712 -256 712 L-256 712 Z " />
<glyph glyph-name="uni0326" unicode="&#x326;" d="M-339 -76 C-375 -76 -411 -103 -411 -144 C-411 -176 -389 -200 -355 -200 C-350 -200 -345 -199 -340 -198 C-344 -218 -353 -238 -368 -258 L-308 -258 C-286 -228 -272 -190 -272 -153 C-272 -105 -303 -76 -339 -76 L-339 -76 Z " />
<glyph glyph-name="uni0327" unicode="&#x327;" d="M-331 -51 L-325 0 L-393 0 L-412 -102 C-346 -102 -333 -111 -333 -126 C-333 -146 -350 -160 -393 -160 C-403 -160 -416 -159 -430 -157 L-436 -224 C-421 -227 -405 -228 -391 -228 C-304 -228 -252 -186 -252 -125 C-252 -83 -281 -57 -331 -51 L-331 -51 Z " />
<glyph glyph-name="uni0328" unicode="&#x328;" d="M-313 -215 C-296 -215 -280 -213 -266 -210 L-257 -133 C-269 -136 -280 -137 -289 -137 C-318 -137 -331 -127 -331 -105 C-331 -68 -291 -33 -244 0 L-277 22 C-356 1 -419 -60 -419 -130 C-419 -183 -379 -215 -313 -215 L-313 -215 Z " />
<glyph glyph-name="uni03BC" unicode="&#x3bc;" horiz-adv-x="565" d="M415 473 L388 217 C379 125 329 79 262 79 C196 79 162 119 172 207 L200 473 L100 473 L26 -224 L126 -224 L153 33 C174 2 207 -12 245 -12 C298 -12 341 15 373 60 L376 60 L375 0 L465 0 L515 473 L415 473 Z " />
<glyph glyph-name="pi" unicode="&#x3c0;" horiz-adv-x="569" d="M503 89 C465 89 450 107 455 148 L489 473 L100 473 L49 0 L149 0 L189 384 L379 384 L353 135 C344 45 385 0 475 0 L518 0 L527 89 L503 89 Z " />
<glyph glyph-name="uni1E20" unicode="&#x1e20;" horiz-adv-x="779" d="M609 879 L325 879 L317 799 L600 799 L609 879 Z M414 276 L622 276 C592 155 493 83 377 83 C250 83 167 169 167 309 C167 481 275 617 442 617 C548 617 619 560 627 467 L737 467 C729 618 609 712 447 712 C220 712 59 530 59 301 C59 113 185 -12 361 -12 C458 -12 548 28 603 99 L606 99 L606 0 L688 0 L726 368 L423 368 L414 276 Z " />
<glyph glyph-name="uni1E21" unicode="&#x1e21;" horiz-adv-x="600" d="M478 650 L211 650 L203 574 L470 574 L478 650 Z M460 473 L447 411 L444 411 C419 455 359 485 293 485 C150 485 46 356 46 210 C46 84 129 -2 244 -2 C313 -2 377 27 409 71 L412 71 L404 -3 C394 -94 332 -150 241 -150 C167 -150 126 -114 125 -51 L23 -51 C20 -167 105 -236 237 -236 C388 -236 485 -148 500 0 L550 473 L460 473 Z M272 84 C197 84 149 135 149 217 C149 318 211 398 308 398 C383 398 430 347 430 266 C430 165 369 84 272 84 L272 84 Z " />
<glyph glyph-name="uni1E30" unicode="&#x1e30;" horiz-adv-x="636" d="M540 919 L411 919 L321 768 L417 768 L540 919 Z M668 700 L537 700 L215 380 L212 380 L245 700 L140 700 L66 0 L171 0 L205 315 L208 315 L471 0 L601 0 L313 348 L668 700 Z " />
<glyph glyph-name="uni1E31" unicode="&#x1e31;" horiz-adv-x="515" d="M326 915 L203 915 L119 772 L210 772 L326 915 Z M526 473 L398 473 L181 276 L179 276 L223 700 L123 700 L49 0 L149 0 L173 218 L176 218 L359 0 L482 0 L276 246 L526 473 Z " />
<glyph glyph-name="uni1E3E" unicode="&#x1e3e;" horiz-adv-x="918" d="M667 919 L538 919 L448 768 L544 768 L667 919 Z M760 700 L449 146 L445 146 L251 700 L140 700 L66 0 L169 0 L221 487 L224 487 L396 0 L471 0 L747 487 L750 487 L698 0 L801 0 L875 700 L760 700 Z " />
<glyph glyph-name="uni1E3F" unicode="&#x1e3f;" horiz-adv-x="857" d="M607 688 L484 688 L400 545 L491 545 L607 688 Z M649 485 C579 485 513 451 476 400 L473 400 C453 456 403 485 346 485 C286 485 227 457 192 411 L189 411 L190 473 L100 473 L49 0 L149 0 L176 258 C186 348 239 396 306 396 C359 396 385 368 385 302 C385 292 385 279 384 266 L356 0 L456 0 L483 258 C492 347 544 396 611 396 C665 396 692 367 692 301 C692 291 692 278 690 266 L662 0 L762 0 L794 298 C795 308 795 318 795 327 C795 430 736 485 649 485 L649 485 Z " />
<glyph glyph-name="uni1E40" unicode="&#x1e40;" horiz-adv-x="918" d="M517 777 C558 777 592 811 592 852 C592 887 565 912 530 912 C489 912 455 877 455 837 C455 802 481 777 517 777 L517 777 Z M760 700 L449 146 L445 146 L251 700 L140 700 L66 0 L169 0 L221 487 L224 487 L396 0 L471 0 L747 487 L750 487 L698 0 L801 0 L875 700 L760 700 Z " />
<glyph glyph-name="uni1E41" unicode="&#x1e41;" horiz-adv-x="857" d="M463 553 C501 553 533 585 533 624 C533 658 508 682 474 682 C437 682 403 652 403 610 C403 577 429 553 463 553 L463 553 Z M649 485 C579 485 513 451 476 400 L473 400 C453 456 403 485 346 485 C286 485 227 457 192 411 L189 411 L190 473 L100 473 L49 0 L149 0 L176 258 C186 348 239 396 306 396 C359 396 385 368 385 302 C385 292 385 279 384 266 L356 0 L456 0 L483 258 C492 347 544 396 611 396 C665 396 692 367 692 301 C692 291 692 278 690 266 L662 0 L762 0 L794 298 C795 308 795 318 795 327 C795 430 736 485 649 485 L649 485 Z " />
<glyph glyph-name="uni1E44" unicode="&#x1e44;" horiz-adv-x="746" d="M431 777 C472 777 506 811 506 852 C506 887 479 912 444 912 C403 912 369 877 369 837 C369 802 395 777 431 777 L431 777 Z M599 700 L543 174 L540 174 L246 700 L140 700 L66 0 L171 0 L227 526 L230 526 L524 0 L630 0 L704 700 L599 700 Z " />
<glyph glyph-name="uni1E45" unicode="&#x1e45;" horiz-adv-x="565" d="M320 553 C358 553 390 585 390 624 C390 658 365 682 331 682 C294 682 260 652 260 610 C260 577 286 553 320 553 L320 553 Z M352 485 C289 485 230 457 192 411 L189 411 L190 473 L100 473 L49 0 L149 0 L176 257 C187 350 239 396 312 396 C370 396 399 369 399 298 C399 287 398 276 397 263 L369 0 L469 0 L501 298 C502 308 503 318 503 327 C503 429 442 485 352 485 L352 485 Z " />
<glyph glyph-name="Wgrave" unicode="&#x1e80;" horiz-adv-x="1001" d="M527 768 L619 768 L562 919 L437 919 L527 768 Z M207 0 L314 0 L534 545 L537 545 L641 0 L744 0 L1031 700 L924 700 L707 163 L704 163 L599 700 L499 700 L281 163 L278 163 L174 700 L68 700 L207 0 Z " />
<glyph glyph-name="wgrave" unicode="&#x1e81;" horiz-adv-x="794" d="M399 545 L485 545 L431 688 L313 688 L399 545 Z M150 0 L253 0 L408 344 L410 344 L491 0 L594 0 L799 473 L698 473 L556 130 L553 130 L470 473 L374 473 L218 130 L215 130 L146 473 L45 473 L150 0 Z " />
<glyph glyph-name="Wacute" unicode="&#x1e82;" horiz-adv-x="1001" d="M490 768 L586 768 L709 919 L580 919 L490 768 Z M207 0 L314 0 L534 545 L537 545 L641 0 L744 0 L1031 700 L924 700 L707 163 L704 163 L599 700 L499 700 L281 163 L278 163 L174 700 L68 700 L207 0 Z " />
<glyph glyph-name="wacute" unicode="&#x1e83;" horiz-adv-x="794" d="M368 545 L459 545 L575 688 L452 688 L368 545 Z M150 0 L253 0 L408 344 L410 344 L491 0 L594 0 L799 473 L698 473 L556 130 L553 130 L470 473 L374 473 L218 130 L215 130 L146 473 L45 473 L150 0 Z " />
<glyph glyph-name="Wdieresis" unicode="&#x1e84;" horiz-adv-x="1001" d="M453 777 C493 777 527 811 527 851 C527 886 500 911 466 911 C426 911 393 876 393 836 C393 802 419 777 453 777 L453 777 Z M664 777 C704 777 737 811 737 851 C737 886 711 911 677 911 C637 911 604 876 604 836 C604 802 630 777 664 777 L664 777 Z M207 0 L314 0 L534 545 L537 545 L641 0 L744 0 L1031 700 L924 700 L707 163 L704 163 L599 700 L499 700 L281 163 L278 163 L174 700 L68 700 L207 0 Z " />
<glyph glyph-name="wdieresis" unicode="&#x1e85;" horiz-adv-x="794" d="M331 553 C369 553 400 585 400 623 C400 656 375 680 342 680 C306 680 273 651 273 609 C273 577 299 553 331 553 L331 553 Z M532 553 C569 553 601 585 601 623 C601 656 575 680 543 680 C507 680 474 651 474 609 C474 577 499 553 532 553 L532 553 Z M150 0 L253 0 L408 344 L410 344 L491 0 L594 0 L799 473 L698 473 L556 130 L553 130 L470 473 L374 473 L218 130 L215 130 L146 473 L45 473 L150 0 Z " />
<glyph glyph-name="uni1E90" unicode="&#x1e90;" horiz-adv-x="573" d="M352 857 L416 768 L512 768 L404 919 L308 919 L168 768 L270 768 L352 857 Z M566 700 L105 700 L94 604 L428 604 L32 81 L23 0 L500 0 L511 96 L162 96 L558 619 L566 700 Z " />
<glyph glyph-name="uni1E91" unicode="&#x1e91;" horiz-adv-x="450" d="M269 630 L329 545 L420 545 L318 688 L227 688 L94 545 L191 545 L269 630 Z M432 473 L66 473 L57 387 L294 387 L19 68 L12 0 L388 0 L397 87 L151 87 L425 405 L432 473 Z " />
<glyph glyph-name="uni1E9E" unicode="&#x1e9e;" horiz-adv-x="694" d="M474 379 L658 587 C607 665 519 712 398 712 C228 712 122 621 103 440 L57 0 L161 0 L208 437 C220 561 283 617 398 617 C453 617 494 604 525 576 L353 382 L344 296 L387 296 C499 296 541 267 541 206 C541 124 486 84 391 84 C364 84 327 87 295 95 L284 -1 C321 -9 361 -12 392 -12 C547 -12 649 68 649 213 C649 308 587 365 474 379 L474 379 Z " />
<glyph glyph-name="Ygrave" unicode="&#x1ef2;" horiz-adv-x="625" d="M339 768 L431 768 L374 919 L249 919 L339 768 Z M235 0 L340 0 L369 277 L667 700 L548 700 L327 377 L324 377 L172 700 L56 700 L264 277 L235 0 Z " />
<glyph glyph-name="ygrave" unicode="&#x1ef3;" horiz-adv-x="504" d="M342 545 L288 688 L170 688 L256 545 L342 545 Z M413 473 L240 120 L237 120 L141 473 L36 473 L175 2 L62 -224 L166 -224 L519 473 L413 473 Z " />
<glyph glyph-name="uni2000" unicode="&#x2000;" horiz-adv-x="500" d="" />
<glyph glyph-name="uni2001" unicode="&#x2001;" horiz-adv-x="1000" d="" />
<glyph glyph-name="uni2002" unicode="&#x2002;" horiz-adv-x="500" d="" />
<glyph glyph-name="uni2003" unicode="&#x2003;" horiz-adv-x="1000" d="" />
<glyph glyph-name="uni2009" unicode="&#x2009;" horiz-adv-x="150" d="" />
<glyph glyph-name="uni200A" unicode="&#x200a;" horiz-adv-x="94" d="" />
<glyph glyph-name="uni200B" unicode="&#x200b;" d="" />
<glyph glyph-name="endash" unicode="&#x2013;" horiz-adv-x="500" d="M-1 233 L499 233 L509 322 L9 322 L-1 233 Z " />
<glyph glyph-name="emdash" unicode="&#x2014;" horiz-adv-x="1000" d="M-1 233 L999 233 L1009 322 L9 322 L-1 233 Z " />
<glyph glyph-name="quoteleft" unicode="&#x2018;" horiz-adv-x="226" d="M158 582 C153 582 149 582 144 581 C150 611 170 641 215 677 L185 712 C123 668 75 607 75 540 C75 489 105 458 143 458 C180 458 212 482 212 524 C212 556 190 582 158 582 L158 582 Z " />
<glyph glyph-name="quoteright" unicode="&#x2019;" horiz-adv-x="225" d="M155 712 C119 712 86 689 86 646 C86 614 108 588 141 588 C146 588 150 588 154 589 C149 559 129 529 84 493 L113 458 C175 502 223 563 223 631 C223 681 194 712 155 712 L155 712 Z " />
<glyph glyph-name="quotesinglbase" unicode="&#x201a;" horiz-adv-x="256" d="M108 124 C72 124 39 101 39 58 C39 26 61 0 94 0 C99 0 103 0 107 1 C102 -29 82 -59 37 -95 L66 -130 C128 -86 176 -24 176 43 C176 93 147 124 108 124 L108 124 Z " />
<glyph glyph-name="quotedblleft" unicode="&#x201c;" horiz-adv-x="406" d="M215 677 L185 712 C123 668 75 607 75 540 C75 489 105 458 143 458 C180 458 212 482 212 524 C212 556 190 582 158 582 C153 582 149 582 144 581 C150 611 170 641 215 677 L215 677 Z M338 582 C333 582 329 582 324 581 C330 611 350 641 395 677 L365 712 C303 668 255 607 255 540 C255 489 285 458 323 458 C360 458 392 482 392 524 C392 556 370 582 338 582 L338 582 Z " />
<glyph glyph-name="quotedblright" unicode="&#x201d;" horiz-adv-x="405" d="M155 712 C119 712 86 689 86 646 C86 614 108 588 141 588 C146 588 150 588 154 589 C149 559 129 529 84 493 L113 458 C175 502 223 563 223 631 C223 681 194 712 155 712 L155 712 Z M335 712 C299 712 266 689 266 646 C266 614 288 588 321 588 C326 588 330 588 334 589 C329 559 309 529 264 493 L293 458 C355 502 403 563 403 631 C403 681 374 712 335 712 L335 712 Z " />
<glyph glyph-name="quotedblbase" unicode="&#x201e;" horiz-adv-x="436" d="M108 124 C72 124 39 101 39 58 C39 26 61 0 94 0 C99 0 103 0 107 1 C102 -29 82 -59 37 -95 L66 -130 C128 -86 176 -24 176 43 C176 93 147 124 108 124 L108 124 Z M288 124 C252 124 219 101 219 58 C219 26 241 0 274 0 C279 0 283 0 287 1 C282 -29 262 -59 217 -95 L246 -130 C308 -86 356 -24 356 43 C356 93 327 124 288 124 L288 124 Z " />
<glyph glyph-name="dagger" unicode="&#x2020;" horiz-adv-x="518" d="M504 511 L335 511 L359 742 L264 742 L240 511 L73 511 L63 420 L230 420 L173 -128 L268 -128 L325 420 L493 420 L504 511 Z " />
<glyph glyph-name="daggerdbl" unicode="&#x2021;" horiz-adv-x="538" d="M503 420 L514 511 L345 511 L369 742 L274 742 L250 511 L83 511 L73 420 L240 420 L218 211 L71 211 L62 120 L209 120 L183 -128 L278 -128 L304 120 L452 120 L462 211 L313 211 L335 420 L503 420 Z " />
<glyph glyph-name="bullet" unicode="&#x2022;" horiz-adv-x="517" d="M257 196 C349 196 424 273 424 366 C424 443 364 502 283 502 C191 502 116 425 116 332 C116 255 176 196 257 196 L257 196 Z " />
<glyph glyph-name="ellipsis" unicode="&#x2026;" horiz-adv-x="748" d="M106 -7 C147 -7 180 25 180 70 C180 106 152 133 114 133 C71 133 39 98 39 55 C39 19 69 -7 106 -7 L106 -7 Z M352 -7 C393 -7 426 25 426 70 C426 106 398 133 360 133 C317 133 285 98 285 55 C285 19 315 -7 352 -7 L352 -7 Z M598 -7 C638 -7 671 25 671 70 C671 106 644 133 606 133 C562 133 531 98 531 55 C531 19 560 -7 598 -7 L598 -7 Z " />
<glyph glyph-name="perthousand" unicode="&#x2030;" horiz-adv-x="1294" d="M233 353 C340 353 429 443 429 552 C429 643 360 712 265 712 C158 712 68 621 68 514 C68 422 137 353 233 353 L233 353 Z M141 0 L240 0 L765 700 L666 700 L141 0 Z M238 429 C184 429 151 466 151 519 C151 580 194 636 260 636 C314 636 346 599 346 548 C346 481 302 429 238 429 L238 429 Z M641 -12 C749 -12 837 78 837 187 C837 278 768 347 674 347 C566 347 476 256 476 149 C476 57 545 -12 641 -12 L641 -12 Z M1054 -12 C1162 -12 1251 78 1251 187 C1251 278 1181 347 1087 347 C979 347 890 256 890 149 C890 57 959 -12 1054 -12 L1054 -12 Z M646 64 C593 64 559 101 559 154 C559 215 602 271 668 271 C722 271 754 234 754 183 C754 116 710 64 646 64 L646 64 Z M1060 64 C1006 64 973 101 973 154 C973 215 1016 271 1082 271 C1135 271 1168 234 1168 183 C1168 116 1124 64 1060 64 L1060 64 Z " />
<glyph glyph-name="guilsinglleft" unicode="&#x2039;" horiz-adv-x="352" d="M333 501 L221 501 L47 285 L178 70 L288 70 L158 281 L333 501 Z " />
<glyph glyph-name="guilsinglright" unicode="&#x203a;" horiz-adv-x="353" d="M185 501 L75 501 L205 289 L30 70 L142 70 L316 285 L185 501 Z " />
<glyph glyph-name="fraction" unicode="&#x2044;" horiz-adv-x="550" d="M-25 0 L77 0 L599 700 L497 700 L-25 0 Z " />
<glyph glyph-name="uni2070" unicode="&#x2070;" horiz-adv-x="401" d="M206 264 C309 264 370 324 381 427 L394 549 C405 652 350 712 246 712 C144 712 83 652 73 549 L60 427 C49 324 104 264 206 264 L206 264 Z M211 342 C165 342 140 369 145 423 L158 553 C165 607 196 634 242 634 C289 634 315 607 308 553 L295 423 C290 369 259 342 211 342 L211 342 Z " />
<glyph glyph-name="uni2074" unicode="&#x2074;" horiz-adv-x="395" d="M391 419 L339 419 L369 700 L267 700 L51 414 L44 346 L252 346 L243 266 L323 266 L331 346 L383 346 L391 419 Z M141 419 L280 604 L260 419 L141 419 Z " />
<glyph glyph-name="uni2075" unicode="&#x2075;" horiz-adv-x="379" d="M243 550 C215 550 190 543 168 530 L190 622 L362 622 L370 700 L125 700 L70 450 L153 450 C168 469 195 481 222 481 C259 481 283 459 283 422 C283 377 253 337 202 337 C167 337 143 359 144 395 L58 395 C52 309 114 259 198 259 C296 259 367 328 367 426 C367 502 314 550 243 550 L243 550 Z " />
<glyph glyph-name="uni2076" unicode="&#x2076;" horiz-adv-x="386" d="M240 565 L233 565 L338 700 L235 700 L114 544 C78 498 51 453 51 399 C51 318 116 259 199 259 C296 259 374 336 374 431 C374 510 315 565 240 565 L240 565 Z M205 337 C164 337 135 365 135 406 C135 451 170 494 221 494 C262 494 289 467 289 425 C289 381 255 337 205 337 L205 337 Z " />
<glyph glyph-name="uni2077" unicode="&#x2077;" horiz-adv-x="332" d="M72 700 L64 619 L247 619 L56 266 L160 266 L346 622 L354 700 L72 700 Z " />
<glyph glyph-name="uni2078" unicode="&#x2078;" horiz-adv-x="384" d="M306 496 C351 518 380 556 380 602 C380 665 323 712 239 712 C151 712 80 659 80 582 C80 547 96 516 132 496 C83 474 51 431 51 378 C51 311 106 264 198 264 C293 264 365 317 365 403 C365 444 344 477 306 496 L306 496 Z M234 642 C269 642 293 621 293 590 C293 551 264 526 225 526 C188 526 164 547 164 577 C164 615 195 642 234 642 L234 642 Z M202 336 C165 336 138 357 138 391 C138 432 172 459 214 459 C251 459 279 437 279 404 C279 363 244 336 202 336 L202 336 Z " />
<glyph glyph-name="uni2079" unicode="&#x2079;" horiz-adv-x="386" d="M241 712 C144 712 65 635 65 540 C65 461 125 406 200 406 L207 406 L101 271 L205 271 L326 427 C361 473 389 518 389 572 C389 653 324 712 241 712 L241 712 Z M218 477 C178 477 151 504 151 546 C151 590 185 634 235 634 C275 634 304 606 304 565 C304 520 270 477 218 477 L218 477 Z " />
<glyph glyph-name="Euro" unicode="&#x20ac;" horiz-adv-x="636" d="M363 76 C291 76 238 129 229 243 L451 243 L457 308 L227 308 C229 337 232 365 236 392 L467 392 L473 457 L252 457 C285 557 346 626 429 626 C491 626 530 586 530 504 L632 504 C631 637 548 712 434 712 C292 712 194 602 151 457 L64 457 L58 392 L136 392 C131 365 128 336 127 308 L49 308 L42 243 L127 243 C138 76 229 -12 355 -12 C472 -12 572 64 602 194 L503 194 C486 118 428 76 363 76 L363 76 Z " />
<glyph glyph-name="uni2116" unicode="&#x2116;" horiz-adv-x="1243" d="M1023 712 C891 712 793 608 793 475 C793 363 872 286 985 286 C1118 286 1216 390 1216 523 C1216 635 1137 712 1023 712 L1023 712 Z M543 174 L540 174 L246 700 L140 700 L66 0 L171 0 L227 526 L230 526 L524 0 L630 0 L704 700 L599 700 L543 174 Z M991 371 C933 371 892 413 892 480 C892 560 942 626 1018 626 C1078 626 1118 583 1118 516 C1118 437 1066 371 991 371 L991 371 Z M808 114 L1120 114 L1130 203 L818 203 L808 114 Z " />
<glyph glyph-name="trademark" unicode="&#x2122;" horiz-adv-x="753" d="M75 628 L162 628 L137 394 L215 394 L239 628 L326 628 L333 700 L82 700 L75 628 Z M663 700 L550 551 L467 700 L386 700 L354 394 L427 394 L448 594 L516 470 L570 470 L665 596 L644 394 L718 394 L750 700 L663 700 Z " />
<glyph glyph-name="uni2126" unicode="&#x2126;" horiz-adv-x="810" d="M756 403 C756 585 627 712 454 712 C248 712 81 541 81 330 C81 226 127 142 201 90 L55 90 L45 0 L328 0 L338 93 C240 139 182 217 182 328 C182 489 290 622 446 622 C572 622 655 534 655 399 C655 256 576 151 443 93 L433 0 L715 0 L725 90 L581 90 C691 151 756 267 756 403 L756 403 Z " />
<glyph glyph-name="estimated" unicode="&#x212e;" horiz-adv-x="837" d="M431 0 C550 0 656 55 719 149 L698 165 C641 77 543 26 431 26 C358 26 294 47 239 88 C205 113 194 141 194 187 L194 338 L778 338 L778 350 C778 452 739 545 676 605 C614 664 526 700 431 700 C336 700 248 664 185 605 C123 545 84 452 84 350 C84 247 123 157 185 97 C248 36 336 0 431 0 L431 0 Z M194 362 L194 512 C194 558 205 587 239 612 C294 653 358 674 431 674 C508 674 573 652 630 609 C662 584 673 553 673 508 L673 362 L194 362 Z " />
<glyph glyph-name="arrowleft" unicode="&#x2190;" horiz-adv-x="710" d="M686 398 L214 398 L368 549 L306 614 L46 350 L306 86 L368 151 L214 302 L686 302 L686 398 Z " />
<glyph glyph-name="arrowup" unicode="&#x2191;" horiz-adv-x="710" d="M637 413 L374 673 L110 413 L174 351 L326 506 L326 34 L421 34 L421 506 L573 351 L637 413 Z " />
<glyph glyph-name="arrowright" unicode="&#x2192;" horiz-adv-x="710" d="M432 614 L370 549 L524 398 L52 398 L52 302 L524 302 L370 151 L432 86 L692 350 L432 614 Z " />
<glyph glyph-name="arrowdown" unicode="&#x2193;" horiz-adv-x="710" d="M562 349 L410 194 L410 666 L315 666 L315 194 L163 349 L99 287 L363 27 L626 287 L562 349 Z " />
<glyph glyph-name="uni2196" unicode="&#x2196;" horiz-adv-x="710" d="M631 173 L296 507 L513 505 L514 594 L145 591 L142 222 L231 223 L230 439 L563 105 L631 173 Z " />
<glyph glyph-name="uni2197" unicode="&#x2197;" horiz-adv-x="710" d="M106 173 L174 105 L508 439 L506 223 L595 222 L592 591 L223 594 L224 505 L440 507 L106 173 Z " />
<glyph glyph-name="uni2198" unicode="&#x2198;" horiz-adv-x="710" d="M512 477 L514 261 L180 595 L113 527 L447 193 L230 195 L229 106 L599 109 L601 478 L512 477 Z " />
<glyph glyph-name="uni2199" unicode="&#x2199;" horiz-adv-x="710" d="M140 478 L143 109 L512 106 L511 195 L295 193 L629 527 L561 595 L227 261 L229 477 L140 478 Z " />
<glyph glyph-name="partialdiff" unicode="&#x2202;" horiz-adv-x="634" d="M340 712 C280 712 229 699 183 680 L172 587 C232 614 277 623 323 623 C439 623 497 564 497 413 C497 400 496 391 495 372 L494 372 C458 433 392 465 313 465 C162 465 45 353 45 206 C45 79 139 -12 284 -12 C361 -12 428 14 481 60 C566 136 597 283 597 413 C597 606 511 712 340 712 L340 712 Z M292 77 C203 77 147 129 147 211 C147 310 219 377 321 377 C411 377 470 327 470 248 C470 151 396 77 292 77 L292 77 Z " />
<glyph glyph-name="uni2206" unicode="&#x2206;" horiz-adv-x="686" d="M421 700 L362 700 L4 53 L31 0 L604 0 L642 53 L421 700 Z M528 92 L132 92 L376 535 L528 92 Z " />
<glyph glyph-name="product" unicode="&#x220f;" horiz-adv-x="676" d="M144 742 L53 -128 L154 -128 L235 649 L527 649 L446 -128 L546 -128 L637 742 L144 742 Z " />
<glyph glyph-name="summation" unicode="&#x2211;" horiz-adv-x="539" d="M564 742 L105 742 L96 650 L306 310 L23 -36 L14 -128 L473 -128 L482 -36 L138 -36 L419 307 L206 650 L554 650 L564 742 Z " />
<glyph glyph-name="minus" unicode="&#x2212;" horiz-adv-x="650" d="M108 272 L551 272 L560 362 L117 362 L108 272 Z " />
<glyph glyph-name="radical" unicode="&#x221a;" horiz-adv-x="635" d="M569 742 L287 16 L210 331 L34 331 L25 239 L133 239 L226 -128 L329 -128 L670 742 L569 742 Z " />
<glyph glyph-name="infinity" unicode="&#x221e;" horiz-adv-x="762" d="M570 521 C488 521 438 475 397 420 C367 475 326 521 245 521 C130 521 52 431 52 313 C52 218 116 153 213 153 C295 153 346 199 386 254 C416 199 457 153 538 153 C651 153 732 242 732 359 C732 455 668 521 570 521 L570 521 Z M216 234 C169 234 139 267 139 320 C139 384 177 440 238 440 C294 440 321 396 345 341 C310 284 274 234 216 234 L216 234 Z M545 234 C489 234 462 279 437 333 C473 391 509 440 566 440 C613 440 644 406 644 353 C644 289 605 234 545 234 L545 234 Z " />
<glyph glyph-name="integral" unicode="&#x222b;" horiz-adv-x="397" d="M-14 -128 L72 -128 C167 -128 215 -88 224 3 L286 596 C291 637 312 653 350 653 L416 653 L426 742 L339 742 C245 742 197 702 188 611 L125 18 C121 -23 100 -39 61 -39 L-5 -39 L-14 -128 Z " />
<glyph glyph-name="approxequal" unicode="&#x2248;" horiz-adv-x="650" d="M442 352 C486 352 524 368 563 394 L572 483 C541 459 495 441 451 441 C384 441 319 485 249 485 C210 485 166 472 125 444 L116 355 C165 386 199 396 237 396 C310 396 369 352 442 352 L442 352 Z M421 149 C465 149 502 165 542 190 L551 280 C522 257 475 238 429 238 C362 238 297 282 227 282 C189 282 146 270 104 241 L95 151 C140 180 174 193 216 193 C289 193 348 149 421 149 L421 149 Z " />
<glyph glyph-name="notequal" unicode="&#x2260;" horiz-adv-x="650" d="M561 374 L570 464 L457 464 L527 588 L443 588 L373 464 L127 464 L118 374 L323 374 L259 260 L106 260 L97 170 L209 170 L139 46 L223 46 L293 170 L540 170 L549 260 L343 260 L407 374 L561 374 Z " />
<glyph glyph-name="lessequal" unicode="&#x2264;" horiz-adv-x="650" d="M582 576 L121 406 L111 312 L536 142 L547 238 L233 357 L571 475 L582 576 Z M78 0 L521 0 L531 90 L87 90 L78 0 Z " />
<glyph glyph-name="greaterequal" unicode="&#x2265;" horiz-adv-x="650" d="M139 575 L129 479 L442 360 L105 242 L94 141 L555 312 L565 405 L139 575 Z M78 0 L521 0 L531 90 L88 90 L78 0 Z " />
<glyph glyph-name="filledbox" unicode="&#x25a0;" horiz-adv-x="900" d="M112 0 L812 0 L812 700 L112 700 L112 0 Z " />
<glyph glyph-name="triagup" unicode="&#x25b2;" horiz-adv-x="900" d="M103 0 L803 0 L453 700 L103 0 Z " />
<glyph glyph-name="triagdn" unicode="&#x25bc;" horiz-adv-x="900" d="M485 0 L835 700 L135 700 L485 0 Z " />
<glyph glyph-name="uni25C6" unicode="&#x25c6;" horiz-adv-x="900" d="M461 0 L812 349 L461 700 L112 349 L461 0 Z " />
<glyph glyph-name="lozenge" unicode="&#x25ca;" horiz-adv-x="635" d="M39 350 L253 0 L331 0 L619 350 L405 700 L327 700 L39 350 Z M152 345 L359 597 L507 355 L300 103 L152 345 Z " />
<glyph glyph-name="uni25CF" unicode="&#x25cf;" horiz-adv-x="900" d="M462 0 C655 0 812 157 812 350 C812 543 655 700 462 700 C269 700 112 543 112 350 C112 157 269 0 462 0 L462 0 Z " />
<glyph glyph-name="uni2610" unicode="&#x2610;" horiz-adv-x="900" d="M112 0 L812 0 L812 700 L112 700 L112 0 Z M188 71 L188 629 L735 629 L735 71 L188 71 Z " />
<glyph glyph-name="uni2611" unicode="&#x2611;" horiz-adv-x="900" d="M112 700 L112 0 L812 0 L812 700 L112 700 Z M735 71 L188 71 L188 629 L735 629 L735 71 Z M655 520 L580 563 L404 257 L315 309 L270 231 L433 137 L655 520 Z " />
<glyph glyph-name="uni2612" unicode="&#x2612;" horiz-adv-x="900" d="M112 700 L112 0 L812 0 L812 700 L112 700 Z M735 71 L188 71 L188 629 L735 629 L735 71 Z M312 143 L462 293 L611 143 L669 200 L519 350 L669 500 L611 557 L462 407 L312 557 L255 500 L405 350 L255 200 L312 143 Z " />
<glyph glyph-name="heart" unicode="&#x2665;" horiz-adv-x="900" d="M469 48 C612 188 795 221 795 409 C795 541 703 606 618 606 C545 606 478 560 471 470 L467 470 C460 560 393 606 320 606 C235 606 143 541 143 409 C143 221 326 188 469 48 L469 48 Z " />
<glyph glyph-name="uni2B51" unicode="&#x2b51;" horiz-adv-x="900" d="M239 -3 L470 165 L700 -3 L612 267 L843 434 L557 434 L470 705 L383 435 L99 435 L328 269 L239 -3 Z " />
</font>
</svg>
