<?xml version="1.0" encoding="UTF-8"?>
<svg xmlns="http://www.w3.org/2000/svg" xmlns:xlink="http://www.w3.org/1999/xlink" version="1.2" >
<font id="BR Hendrix Bold">
<font-face  font-family="BR Hendrix" units-per-em="1000" ascent="760" descent="-240" font-style="normal" font-weight="700" font-stretch="normal" cap-height="700" x-height="484" underline-position="-145" underline-thickness="50" />
<missing-glyph  horiz-adv-x="730" d="M77 0 L653 0 L653 700 L77 700 L77 0 Z M316 265 L316 296 C316 341 325 359 368 394 L400 420 C421 437 430 452 430 471 C430 502 407 519 371 519 C327 519 303 494 300 448 L224 448 C225 537 286 590 372 590 C453 590 508 543 508 474 C508 439 494 408 449 371 L420 347 C397 328 392 320 392 293 L392 265 L316 265 Z M354 105 C324 105 303 126 303 157 C303 188 324 209 354 209 C384 209 405 188 405 157 C405 126 384 105 354 105 L354 105 Z " />
<glyph glyph-name="CR" unicode="&#xd;" horiz-adv-x="227" d="" />
<glyph glyph-name="space" unicode="&#x20;" horiz-adv-x="227" d="" />
<glyph glyph-name="exclam" unicode="&#x21;" horiz-adv-x="301" d="M90 244 L211 244 L224 700 L77 700 L90 244 Z M150 -9 C205 -9 244 30 244 85 C244 140 205 179 150 179 C96 179 57 140 57 85 C57 30 96 -9 150 -9 L150 -9 Z " />
<glyph glyph-name="quotedbl" unicode="&#x22;" horiz-adv-x="430" d="M61 429 L167 429 L187 712 L40 712 L61 429 Z M264 429 L369 429 L390 712 L243 712 L264 429 Z " />
<glyph glyph-name="numbersign" unicode="&#x23;" horiz-adv-x="723" d="M676 409 L676 514 L579 514 L613 685 L494 685 L460 514 L327 514 L361 685 L242 685 L208 514 L89 514 L89 409 L188 409 L164 291 L47 291 L47 186 L144 186 L110 15 L229 15 L263 186 L396 186 L362 15 L481 15 L515 186 L634 186 L634 291 L535 291 L559 409 L676 409 Z M416 291 L283 291 L307 409 L440 409 L416 291 Z " />
<glyph glyph-name="dollar" unicode="&#x24;" horiz-adv-x="546" d="M511 230 C511 317 460 376 340 402 L305 409 L305 556 C347 547 370 521 372 480 L506 480 C500 596 424 665 305 675 L305 742 L247 742 L247 675 C120 665 42 586 42 482 C42 394 99 333 215 309 L241 303 L241 147 C198 158 171 188 167 236 L33 236 C37 112 120 37 241 26 L241 -42 L300 -42 L300 25 C429 35 511 116 511 230 L511 230 Z M175 487 C175 526 200 551 247 557 L247 422 C191 437 175 456 175 487 L175 487 Z M300 144 L300 290 C358 275 378 254 378 219 C378 178 350 150 300 144 L300 144 Z " />
<glyph glyph-name="percent" unicode="&#x25;" horiz-adv-x="910" d="M217 343 C324 343 404 422 404 528 C404 633 324 712 217 712 C110 712 30 633 30 528 C30 422 110 343 217 343 L217 343 Z M168 0 L300 0 L741 700 L610 700 L168 0 Z M217 444 C170 444 139 479 139 528 C139 577 170 611 217 611 C264 611 295 577 295 528 C295 479 264 444 217 444 L217 444 Z M693 -12 C800 -12 880 67 880 172 C880 278 800 357 693 357 C586 357 506 278 506 172 C506 67 586 -12 693 -12 L693 -12 Z M693 89 C646 89 615 123 615 172 C615 222 646 256 693 256 C739 256 771 222 771 172 C771 123 739 89 693 89 L693 89 Z " />
<glyph glyph-name="ampersand" unicode="&#x26;" horiz-adv-x="675" d="M666 0 L547 136 C580 190 603 260 613 347 L485 347 C480 304 472 267 459 237 L351 359 L361 365 C450 416 490 480 490 550 C490 645 411 712 296 712 C174 712 95 637 95 545 C95 494 118 444 172 382 C72 323 32 256 32 183 C32 71 124 -12 272 -12 C347 -12 415 10 470 55 L518 0 L666 0 Z M295 600 C335 600 365 575 365 537 C365 503 343 475 296 448 L281 439 L271 451 C243 482 226 512 226 540 C226 574 254 600 295 600 L295 600 Z M174 192 C174 232 196 269 246 297 L384 140 C353 119 318 109 280 109 C212 109 174 142 174 192 L174 192 Z " />
<glyph glyph-name="quotesingle" unicode="&#x27;" horiz-adv-x="228" d="M61 429 L167 429 L187 712 L40 712 L61 429 Z " />
<glyph glyph-name="parenleft" unicode="&#x28;" horiz-adv-x="350" d="M219 -124 L326 -58 C250 36 199 181 199 315 C199 449 250 594 326 688 L219 754 C111 635 54 469 54 315 C54 161 111 -5 219 -124 L219 -124 Z " />
<glyph glyph-name="parenright" unicode="&#x29;" horiz-adv-x="350" d="M130 -124 C238 -5 295 161 295 315 C295 469 238 635 130 754 L24 688 C99 594 150 449 150 315 C150 181 99 36 24 -58 L130 -124 Z " />
<glyph glyph-name="asterisk" unicode="&#x2a;" horiz-adv-x="487" d="M191 712 L197 563 L58 616 L25 516 L168 476 L75 359 L161 299 L243 423 L325 298 L410 359 L318 476 L461 515 L429 615 L289 563 L295 712 L191 712 Z " />
<glyph glyph-name="plus" unicode="&#x2b;" horiz-adv-x="650" d="M552 381 L393 381 L393 553 L257 553 L257 381 L98 381 L98 253 L257 253 L257 81 L393 81 L393 253 L552 253 L552 381 Z " />
<glyph glyph-name="comma" unicode="&#x2c;" horiz-adv-x="279" d="M137 176 C83 176 44 138 44 86 C44 35 81 -1 135 -1 L140 -1 C131 -42 105 -85 64 -125 L109 -176 C189 -113 234 -25 235 56 C236 133 194 176 137 176 L137 176 Z " />
<glyph glyph-name="hyphen" unicode="&#x2d;" horiz-adv-x="395" d="M39 217 L356 217 L356 341 L39 341 L39 217 Z " />
<glyph glyph-name="period" unicode="&#x2e;" horiz-adv-x="275" d="M138 -9 C192 -9 231 30 231 85 C231 140 192 179 138 179 C83 179 44 140 44 85 C44 30 83 -9 138 -9 L138 -9 Z " />
<glyph glyph-name="slash" unicode="&#x2f;" horiz-adv-x="527" d="M9 -92 L149 -92 L519 742 L379 742 L9 -92 Z " />
<glyph glyph-name="zero" unicode="0" horiz-adv-x="635" d="M317 -12 C482 -12 575 87 575 252 L575 448 C575 613 482 712 317 712 C153 712 60 613 60 448 L60 252 C60 87 153 -12 317 -12 L317 -12 Z M317 121 C245 121 205 163 205 252 L205 448 C205 537 245 579 317 579 C389 579 429 537 429 448 L429 252 C429 163 389 121 317 121 L317 121 Z " />
<glyph glyph-name="one" unicode="1" horiz-adv-x="440" d="M234 700 C219 635 185 612 93 612 L57 612 L57 484 L205 484 L205 0 L351 0 L351 700 L234 700 Z " />
<glyph glyph-name="two" unicode="2" horiz-adv-x="572" d="M345 253 C484 338 529 407 529 499 C529 630 437 712 299 712 C151 712 49 619 47 461 L194 461 C198 543 239 579 298 579 C352 579 383 549 383 498 C383 452 357 415 244 344 C87 247 48 183 48 71 L48 0 L527 0 L527 133 L207 133 C225 171 264 204 345 253 L345 253 Z " />
<glyph glyph-name="three" unicode="3" horiz-adv-x="587" d="M292 -12 C443 -12 542 76 542 196 C542 270 503 327 434 357 L434 360 C497 392 526 445 526 512 C526 632 433 712 297 712 C154 712 54 624 53 483 L197 483 C201 549 236 579 292 579 C348 579 381 549 381 497 C381 449 352 417 288 417 L221 417 L221 297 L290 297 C359 297 396 265 396 212 C396 158 357 121 295 121 C236 121 196 155 193 220 L48 220 C49 74 143 -12 292 -12 L292 -12 Z " />
<glyph glyph-name="four" unicode="4" horiz-adv-x="612" d="M588 249 L506 249 L506 700 L331 700 L37 240 L37 125 L369 125 L369 0 L506 0 L506 125 L588 125 L588 249 Z M185 249 L369 538 L369 249 L185 249 Z " />
<glyph glyph-name="five" unicode="5" horiz-adv-x="586" d="M331 462 C288 462 249 452 216 431 L233 567 L504 567 L504 700 L109 700 L61 294 L201 294 C223 328 261 346 303 346 C365 346 405 305 405 236 C405 166 364 121 299 121 C243 121 203 154 197 212 L52 212 C55 72 153 -12 296 -12 C449 -12 551 85 551 231 C551 373 457 462 331 462 L331 462 Z " />
<glyph glyph-name="six" unicode="6" horiz-adv-x="597" d="M323 486 L310 486 L455 700 L283 700 L122 459 C59 367 38 307 38 243 C38 96 154 -12 299 -12 C447 -12 562 99 562 245 C562 386 456 486 323 486 L323 486 Z M300 121 C234 121 184 171 184 243 C184 314 234 364 300 364 C366 364 416 314 416 243 C416 171 366 121 300 121 L300 121 Z " />
<glyph glyph-name="seven" unicode="7" horiz-adv-x="526" d="M34 700 L34 567 L333 567 L83 0 L253 0 L495 570 L495 700 L34 700 Z " />
<glyph glyph-name="eight" unicode="8" horiz-adv-x="597" d="M298 -12 C456 -12 551 72 551 192 C551 267 513 329 444 361 L444 365 C509 399 540 453 540 517 C540 629 445 712 298 712 C152 712 57 629 57 517 C57 453 88 399 153 365 L153 361 C84 329 46 267 46 192 C46 72 141 -12 298 -12 L298 -12 Z M298 415 C238 415 201 451 201 502 C201 554 238 590 298 590 C359 590 396 554 396 502 C396 451 359 415 298 415 L298 415 Z M298 110 C237 110 191 147 191 204 C191 259 236 300 298 300 C361 300 406 259 406 204 C406 147 360 110 298 110 L298 110 Z " />
<glyph glyph-name="nine" unicode="9" horiz-adv-x="597" d="M298 712 C150 712 35 601 35 455 C35 314 141 214 274 214 L287 214 L142 0 L314 0 L475 241 C538 333 559 393 559 457 C559 604 443 712 298 712 L298 712 Z M297 336 C231 336 181 386 181 457 C181 529 231 579 297 579 C363 579 413 529 413 457 C413 386 363 336 297 336 L297 336 Z " />
<glyph glyph-name="colon" unicode="&#x3a;" horiz-adv-x="285" d="M148 304 C202 304 241 343 241 397 C241 453 202 492 148 492 C93 492 54 453 54 397 C54 343 93 304 148 304 L148 304 Z M148 -10 C202 -10 241 29 241 83 C241 138 202 177 148 177 C93 177 54 138 54 83 C54 29 93 -10 148 -10 L148 -10 Z " />
<glyph glyph-name="semicolon" unicode="&#x3b;" horiz-adv-x="290" d="M148 304 C202 304 241 343 241 397 C241 453 202 492 148 492 C93 492 54 453 54 397 C54 343 93 304 148 304 L148 304 Z M148 175 C93 175 55 136 55 85 C55 34 92 -2 146 -2 L151 -2 C142 -43 116 -86 74 -126 L119 -177 C199 -114 245 -27 246 55 C246 132 205 175 148 175 L148 175 Z " />
<glyph glyph-name="less" unicode="&#x3c;" horiz-adv-x="650" d="M552 551 L98 380 L98 254 L552 83 L552 220 L284 317 L552 414 L552 551 Z " />
<glyph glyph-name="equal" unicode="&#x3d;" horiz-adv-x="650" d="M98 360 L552 360 L552 488 L98 488 L98 360 Z M98 146 L552 146 L552 274 L98 274 L98 146 Z " />
<glyph glyph-name="greater" unicode="&#x3e;" horiz-adv-x="650" d="M98 551 L98 414 L366 317 L98 220 L98 83 L552 254 L552 380 L98 551 Z " />
<glyph glyph-name="question" unicode="&#x3f;" horiz-adv-x="489" d="M158 244 L298 244 L298 276 C298 314 302 323 334 350 L375 385 C441 439 463 483 463 537 C463 643 378 712 257 712 C127 712 37 633 35 495 L174 495 C174 553 209 584 259 584 C300 584 323 562 323 529 C323 509 314 493 286 470 L241 432 C170 373 158 349 158 283 L158 244 Z M228 -9 C282 -9 321 30 321 85 C321 140 282 179 228 179 C174 179 135 140 135 85 C135 30 174 -9 228 -9 L228 -9 Z " />
<glyph glyph-name="at" unicode="&#x40;" horiz-adv-x="965" d="M498 -208 C568 -208 632 -196 686 -175 L686 -60 C634 -81 567 -95 501 -95 C299 -95 164 34 164 228 C164 422 300 558 497 558 C675 558 810 448 810 262 C810 164 774 117 731 117 C700 117 680 140 680 187 L680 423 L582 423 L574 374 L571 374 C549 416 507 437 455 437 C352 437 275 354 275 227 C275 100 352 18 455 18 C517 18 567 46 589 104 L592 104 C612 48 668 15 731 15 C844 15 928 120 928 274 C928 509 734 672 496 672 C244 672 43 488 43 226 C43 -31 229 -208 498 -208 L498 -208 Z M485 124 C433 124 395 161 395 227 C395 294 433 331 485 331 C537 331 575 294 575 227 C575 161 537 124 485 124 L485 124 Z " />
<glyph glyph-name="A" unicode="A" horiz-adv-x="672" d="M509 0 L664 0 L421 700 L251 700 L8 0 L162 0 L208 138 L464 138 L509 0 Z M249 264 L334 520 L338 520 L422 264 L249 264 Z " />
<glyph glyph-name="B" unicode="B" horiz-adv-x="635" d="M478 358 L478 361 C539 390 570 442 570 509 C570 623 482 700 329 700 L77 700 L77 0 L367 0 C515 0 596 73 596 194 C596 281 556 335 478 358 L478 358 Z M333 576 C395 576 428 544 428 493 C428 440 395 412 333 412 L222 412 L222 576 L333 576 Z M352 124 L222 124 L222 290 L352 290 C414 290 444 262 444 207 C444 151 414 124 352 124 L352 124 Z " />
<glyph glyph-name="C" unicode="C" horiz-adv-x="755" d="M392 -12 C570 -12 709 101 721 276 L571 276 C555 180 488 125 393 125 C278 125 193 211 193 350 C193 488 278 575 393 575 C485 575 549 522 566 424 L720 424 C708 597 571 712 392 712 C188 712 40 562 40 350 C40 138 188 -12 392 -12 L392 -12 Z " />
<glyph glyph-name="D" unicode="D" horiz-adv-x="688" d="M274 700 L77 700 L77 0 L274 0 C500 0 646 132 646 350 C646 569 501 700 274 700 L274 700 Z M282 138 L225 138 L225 562 L282 562 C414 562 494 488 494 350 C494 212 414 138 282 138 L282 138 Z " />
<glyph glyph-name="E" unicode="E" horiz-adv-x="569" d="M516 564 L516 700 L77 700 L77 0 L516 0 L516 136 L225 136 L225 285 L484 285 L484 417 L225 417 L225 564 L516 564 Z " />
<glyph glyph-name="F" unicode="F" horiz-adv-x="560" d="M516 564 L516 700 L77 700 L77 0 L225 0 L225 260 L496 260 L496 393 L225 393 L225 564 L516 564 Z " />
<glyph glyph-name="G" unicode="G" horiz-adv-x="773" d="M408 264 L583 264 C564 178 494 124 399 124 C279 124 193 209 193 349 C193 488 277 576 399 576 C485 576 547 531 562 458 L719 458 C703 609 574 712 399 712 C190 712 40 565 40 348 C40 133 189 -12 381 -12 C471 -12 548 20 596 83 L600 83 L608 0 L719 0 L719 387 L408 387 L408 264 Z " />
<glyph glyph-name="H" unicode="H" horiz-adv-x="709" d="M484 700 L484 411 L225 411 L225 700 L77 700 L77 0 L225 0 L225 274 L484 274 L484 0 L632 0 L632 700 L484 700 Z " />
<glyph glyph-name="I" unicode="I" horiz-adv-x="302" d="M77 0 L225 0 L225 700 L77 700 L77 0 Z " />
<glyph glyph-name="J" unicode="J" horiz-adv-x="603" d="M116 700 L116 562 L388 562 L388 249 C388 164 351 125 287 125 C223 125 185 164 185 249 L185 334 L37 334 L37 245 C37 70 128 -12 288 -12 C446 -12 536 73 536 243 L536 700 L116 700 Z " />
<glyph glyph-name="K" unicode="K" horiz-adv-x="661" d="M369 354 L651 700 L477 700 L228 395 L225 395 L225 700 L77 700 L77 0 L225 0 L225 302 L228 302 L472 0 L656 0 L369 354 Z " />
<glyph glyph-name="L" unicode="L" horiz-adv-x="531" d="M225 138 L225 700 L77 700 L77 0 L503 0 L503 138 L225 138 Z " />
<glyph glyph-name="M" unicode="M" horiz-adv-x="920" d="M686 700 L462 222 L458 222 L234 700 L77 700 L77 0 L222 0 L222 415 L225 415 L416 0 L504 0 L695 415 L699 415 L699 0 L843 0 L843 700 L686 700 Z " />
<glyph glyph-name="N" unicode="N" horiz-adv-x="744" d="M519 700 L519 256 L515 256 L227 700 L77 700 L77 0 L225 0 L225 444 L228 444 L517 0 L667 0 L667 700 L519 700 Z " />
<glyph glyph-name="O" unicode="O" horiz-adv-x="786" d="M393 -12 C598 -12 746 138 746 350 C746 562 598 712 393 712 C188 712 40 562 40 350 C40 138 188 -12 393 -12 L393 -12 Z M393 125 C275 125 193 214 193 350 C193 486 275 575 393 575 C511 575 593 486 593 350 C593 214 511 125 393 125 L393 125 Z " />
<glyph glyph-name="P" unicode="P" horiz-adv-x="634" d="M307 700 L77 700 L77 0 L225 0 L225 199 L307 199 C491 199 599 294 599 450 C599 605 491 700 307 700 L307 700 Z M308 336 L225 336 L225 563 L308 563 C399 563 446 523 446 450 C446 376 399 336 308 336 L308 336 Z " />
<glyph glyph-name="Q" unicode="Q" horiz-adv-x="786" d="M746 350 C746 562 598 712 393 712 C188 712 40 562 40 350 C40 138 188 -12 393 -12 C450 -12 502 0 549 21 L631 -77 L736 11 L659 103 C714 166 746 251 746 350 L746 350 Z M393 125 C275 125 193 214 193 350 C193 486 275 575 393 575 C511 575 593 486 593 350 C593 299 582 255 561 220 L453 349 L347 260 L454 134 C435 128 414 125 393 125 L393 125 Z " />
<glyph glyph-name="R" unicode="R" horiz-adv-x="650" d="M433 0 L606 0 L447 234 C545 270 600 349 600 456 C600 605 493 700 308 700 L77 700 L77 0 L225 0 L225 212 L294 212 L433 0 Z M225 563 L315 563 C400 563 448 524 448 456 C448 387 400 348 315 348 L225 348 L225 563 Z " />
<glyph glyph-name="S" unicode="S" horiz-adv-x="589" d="M295 -12 C456 -12 559 82 559 217 C559 317 503 380 369 409 L298 424 C212 443 186 464 186 502 C186 548 224 580 290 580 C356 580 396 548 402 487 L550 487 C547 624 450 712 294 712 C138 712 38 623 38 497 C38 396 101 330 230 302 L302 287 C385 270 411 244 411 204 C411 154 370 120 303 120 C232 120 187 157 182 227 L35 227 C36 78 137 -12 295 -12 L295 -12 Z " />
<glyph glyph-name="T" unicode="T" horiz-adv-x="567" d="M549 700 L18 700 L18 562 L209 562 L209 0 L357 0 L357 562 L549 562 L549 700 Z " />
<glyph glyph-name="U" unicode="U" horiz-adv-x="690" d="M345 -12 C515 -12 622 95 622 274 L622 700 L474 700 L474 282 C474 178 423 127 345 127 C267 127 215 178 215 282 L215 700 L68 700 L68 274 C68 95 174 -12 345 -12 L345 -12 Z " />
<glyph glyph-name="V" unicode="V" horiz-adv-x="650" d="M237 0 L412 0 L642 700 L487 700 L327 183 L323 183 L163 700 L8 700 L237 0 Z " />
<glyph glyph-name="W" unicode="W" horiz-adv-x="1000" d="M211 0 L359 0 L498 475 L502 475 L642 0 L789 0 L988 700 L834 700 L709 237 L706 237 L566 700 L434 700 L294 237 L291 237 L166 700 L13 700 L211 0 Z " />
<glyph glyph-name="X" unicode="X" horiz-adv-x="616" d="M605 0 L398 364 L597 700 L434 700 L308 481 L182 700 L19 700 L218 364 L12 0 L171 0 L308 243 L445 0 L605 0 Z " />
<glyph glyph-name="Y" unicode="Y" horiz-adv-x="630" d="M241 0 L389 0 L389 283 L627 700 L463 700 L317 432 L314 432 L168 700 L3 700 L241 283 L241 0 Z " />
<glyph glyph-name="Z" unicode="Z" horiz-adv-x="571" d="M226 138 L523 584 L523 700 L48 700 L48 562 L337 562 L40 116 L40 0 L531 0 L531 138 L226 138 Z " />
<glyph glyph-name="bracketleft" unicode="&#x5b;" horiz-adv-x="378" d="M347 615 L347 742 L77 742 L77 -114 L347 -114 L347 13 L217 13 L217 615 L347 615 Z " />
<glyph glyph-name="backslash" unicode="&#x5c;" horiz-adv-x="528" d="M519 -92 L149 742 L9 742 L379 -92 L519 -92 Z " />
<glyph glyph-name="bracketright" unicode="&#x5d;" horiz-adv-x="378" d="M31 742 L31 615 L161 615 L161 13 L31 13 L31 -114 L301 -114 L301 742 L31 742 Z " />
<glyph glyph-name="asciicircum" unicode="&#x5e;" horiz-adv-x="609" d="M586 348 L373 676 L237 676 L24 348 L179 348 L305 554 L430 348 L586 348 Z " />
<glyph glyph-name="underscore" unicode="&#x5f;" horiz-adv-x="442" d="M10 -158 L432 -158 L432 -45 L10 -45 L10 -158 Z " />
<glyph glyph-name="grave" unicode="&#x60;" horiz-adv-x="600" d="M267 550 L394 550 L318 702 L159 702 L267 550 Z " />
<glyph glyph-name="a" unicode="a" horiz-adv-x="545" d="M277 496 C141 496 59 427 54 317 L192 317 C195 358 222 380 272 380 C325 380 351 356 351 302 L351 300 L217 280 C95 262 38 209 38 129 C38 46 103 -12 200 -12 C268 -12 323 16 351 60 L354 60 L360 0 L486 0 L486 295 C486 426 414 496 277 496 L277 496 Z M242 95 C202 95 180 111 180 140 C180 169 200 188 255 195 L351 209 L351 201 C351 137 307 95 242 95 L242 95 Z " />
<glyph glyph-name="b" unicode="b" horiz-adv-x="599" d="M344 496 C280 496 229 467 206 429 L203 429 L203 700 L63 700 L63 0 L191 0 L196 59 L200 59 C224 16 280 -12 344 -12 C464 -12 560 88 560 242 C560 396 464 496 344 496 L344 496 Z M308 114 C244 114 199 161 199 242 C199 323 244 370 308 370 C372 370 418 323 418 242 C418 161 372 114 308 114 L308 114 Z " />
<glyph glyph-name="c" unicode="c" horiz-adv-x="554" d="M288 -12 C421 -12 516 67 527 197 L384 197 C377 145 337 113 287 113 C225 113 179 163 179 242 C179 321 226 370 288 370 C339 370 374 339 382 287 L525 287 C515 418 423 496 290 496 C140 496 37 393 37 242 C37 91 139 -12 288 -12 L288 -12 Z " />
<glyph glyph-name="d" unicode="d" horiz-adv-x="598" d="M396 700 L396 429 L392 429 C369 467 319 496 254 496 C134 496 38 396 38 242 C38 88 134 -12 254 -12 C318 -12 374 16 399 59 L402 59 L408 0 L536 0 L536 700 L396 700 Z M290 114 C226 114 180 161 180 242 C180 323 226 370 290 370 C354 370 400 323 400 242 C400 161 354 114 290 114 L290 114 Z " />
<glyph glyph-name="e" unicode="e" horiz-adv-x="562" d="M527 256 C527 404 427 496 289 496 C142 496 37 391 37 239 C37 90 138 -12 290 -12 C408 -12 496 50 521 158 L388 158 C373 125 337 105 291 105 C229 105 185 139 174 208 L523 208 C526 226 527 242 527 256 L527 256 Z M289 381 C339 381 377 356 387 297 L179 297 C194 353 235 381 289 381 L289 381 Z " />
<glyph glyph-name="f" unicode="f" horiz-adv-x="372" d="M312 587 C326 587 340 585 352 583 L352 702 C332 708 306 712 279 712 C162 712 95 647 95 516 L95 484 L17 484 L17 363 L95 363 L95 0 L235 0 L235 363 L351 363 L351 484 L235 484 L235 516 C235 566 259 587 312 587 L312 587 Z " />
<glyph glyph-name="g" unicode="g" horiz-adv-x="501" d="M494 496 L250 496 C131 496 55 424 55 321 C55 274 72 233 101 203 C57 184 30 146 30 97 C30 61 45 32 72 11 C33 -10 13 -44 13 -90 C13 -179 89 -236 246 -236 C416 -236 494 -170 494 -59 C494 38 436 90 326 90 L197 90 C168 90 153 102 153 122 C153 139 164 153 183 157 C204 151 226 148 250 148 C370 148 446 220 446 321 C446 355 438 386 422 412 L494 424 L494 496 Z M250 250 C206 250 177 279 177 323 C177 366 206 395 250 395 C295 395 324 366 324 323 C324 279 295 250 250 250 L250 250 Z M303 -23 C346 -23 365 -40 365 -69 C365 -106 333 -128 252 -128 C174 -128 142 -108 142 -72 C142 -44 163 -23 190 -23 L303 -23 Z " />
<glyph glyph-name="h" unicode="h" horiz-adv-x="572" d="M350 496 C289 496 239 471 206 429 L203 429 L203 700 L63 700 L63 0 L203 0 L203 259 C203 332 239 367 294 367 C345 367 373 338 373 262 L373 0 L513 0 L513 301 C513 427 451 496 350 496 L350 496 Z " />
<glyph glyph-name="i" unicode="i" horiz-adv-x="266" d="M133 550 C182 550 221 586 221 636 C221 686 182 722 133 722 C84 722 45 686 45 636 C45 586 84 550 133 550 L133 550 Z M63 0 L203 0 L203 484 L63 484 L63 0 Z " />
<glyph glyph-name="j" unicode="j" horiz-adv-x="266" d="M133 550 C182 550 221 586 221 636 C221 686 182 722 133 722 C84 722 45 686 45 636 C45 586 84 550 133 550 L133 550 Z M36 -236 C152 -236 203 -185 203 -57 L203 484 L63 484 L63 -44 C63 -94 45 -111 2 -111 C-8 -111 -18 -110 -26 -109 L-26 -230 C-11 -233 10 -236 36 -236 L36 -236 Z " />
<glyph glyph-name="k" unicode="k" horiz-adv-x="547" d="M543 0 L334 255 L536 484 L367 484 L207 300 L203 300 L203 700 L63 700 L63 0 L203 0 L203 203 L206 203 L371 0 L543 0 Z " />
<glyph glyph-name="l" unicode="l" horiz-adv-x="266" d="M63 0 L203 0 L203 700 L63 700 L63 0 Z " />
<glyph glyph-name="m" unicode="m" horiz-adv-x="855" d="M634 496 C569 496 511 466 477 419 L473 419 C446 470 401 496 343 496 C285 496 229 469 200 425 L196 425 L191 484 L63 484 L63 0 L203 0 L203 259 C203 331 237 367 288 367 C334 367 360 338 360 263 L360 0 L500 0 L500 259 C500 332 535 367 584 367 C630 367 657 337 657 263 L657 0 L797 0 L797 301 C797 429 733 496 634 496 L634 496 Z " />
<glyph glyph-name="n" unicode="n" horiz-adv-x="572" d="M349 496 C286 496 229 469 200 425 L196 425 L191 484 L63 484 L63 0 L203 0 L203 259 C203 332 239 367 294 367 C345 367 373 338 373 262 L373 0 L513 0 L513 301 C513 428 449 496 349 496 L349 496 Z " />
<glyph glyph-name="o" unicode="o" horiz-adv-x="580" d="M290 -12 C438 -12 543 92 543 242 C543 392 438 496 290 496 C142 496 37 392 37 242 C37 92 142 -12 290 -12 L290 -12 Z M290 113 C225 113 179 162 179 242 C179 322 225 370 290 370 C355 370 401 322 401 242 C401 162 355 113 290 113 L290 113 Z " />
<glyph glyph-name="p" unicode="p" horiz-adv-x="597" d="M344 496 C280 496 224 468 200 425 L196 425 L191 484 L63 484 L63 -224 L203 -224 L203 55 L206 55 C229 17 280 -12 344 -12 C464 -12 560 88 560 242 C560 396 464 496 344 496 L344 496 Z M308 114 C246 114 199 161 199 242 C199 323 246 370 308 370 C371 370 418 323 418 242 C418 161 371 114 308 114 L308 114 Z " />
<glyph glyph-name="q" unicode="q" horiz-adv-x="597" d="M406 484 L401 425 L397 425 C373 468 317 496 253 496 C133 496 37 396 37 242 C37 88 133 -12 253 -12 C317 -12 368 17 391 55 L394 55 L394 -224 L534 -224 L534 484 L406 484 Z M289 114 C226 114 179 161 179 242 C179 323 226 370 289 370 C352 370 398 323 398 242 C398 161 352 114 289 114 L289 114 Z " />
<glyph glyph-name="r" unicode="r" horiz-adv-x="397" d="M332 493 C274 493 224 463 201 411 L197 411 L190 484 L63 484 L63 0 L203 0 L203 217 C203 312 246 357 334 357 C347 357 361 356 376 354 L376 486 C364 491 348 493 332 493 L332 493 Z " />
<glyph glyph-name="s" unicode="s" horiz-adv-x="469" d="M238 -12 C367 -12 442 58 442 153 C442 226 400 274 296 294 L237 306 C181 316 168 329 168 347 C168 371 191 389 230 389 C274 389 298 369 300 340 L434 340 C428 441 356 496 237 496 C108 496 34 429 34 339 C34 264 82 217 182 198 L241 186 C292 176 308 161 308 141 C308 115 284 96 243 96 C198 96 169 118 167 155 L33 155 C36 53 113 -12 238 -12 L238 -12 Z " />
<glyph glyph-name="t" unicode="t" horiz-adv-x="385" d="M311 112 C251 112 230 131 230 190 L230 361 L351 361 L351 484 L230 484 L230 599 L90 599 L90 484 L15 484 L15 361 L90 361 L90 179 C90 45 151 -12 277 -12 C309 -12 334 -8 354 -3 L354 115 C341 113 325 112 311 112 L311 112 Z " />
<glyph glyph-name="u" unicode="u" horiz-adv-x="567" d="M364 484 L364 225 C364 152 329 117 275 117 C227 117 199 145 199 222 L199 484 L59 484 L59 183 C59 55 124 -12 220 -12 C281 -12 338 15 368 59 L371 59 L377 0 L504 0 L504 484 L364 484 Z " />
<glyph glyph-name="v" unicode="v" horiz-adv-x="523" d="M184 0 L339 0 L515 484 L364 484 L263 170 L260 170 L159 484 L8 484 L184 0 Z " />
<glyph glyph-name="w" unicode="w" horiz-adv-x="813" d="M161 0 L308 0 L405 306 L408 306 L505 0 L651 0 L800 484 L655 484 L572 185 L568 185 L470 484 L343 484 L245 185 L241 185 L158 484 L13 484 L161 0 Z " />
<glyph glyph-name="x" unicode="x" horiz-adv-x="516" d="M506 0 L339 250 L499 484 L348 484 L258 351 L168 484 L17 484 L177 250 L10 0 L163 0 L258 143 L353 0 L506 0 Z " />
<glyph glyph-name="y" unicode="y" horiz-adv-x="526" d="M369 484 L266 172 L262 172 L160 484 L8 484 L188 -5 L108 -224 L258 -224 L519 484 L369 484 Z " />
<glyph glyph-name="z" unicode="z" horiz-adv-x="465" d="M218 123 L424 382 L424 484 L38 484 L38 361 L240 361 L34 102 L34 0 L431 0 L431 123 L218 123 Z " />
<glyph glyph-name="braceleft" unicode="&#x7b;" horiz-adv-x="391" d="M262 -114 L359 -114 L359 12 L299 12 C258 12 241 28 241 69 L241 190 C241 258 212 297 157 312 L157 316 C212 331 241 370 241 438 L241 559 C241 600 258 616 299 616 L359 616 L359 742 L262 742 C160 742 102 687 102 596 L102 438 C102 396 83 378 38 378 L30 378 L30 250 L38 250 C83 250 102 232 102 190 L102 32 C102 -59 160 -114 262 -114 L262 -114 Z " />
<glyph glyph-name="bar" unicode="&#x7c;" horiz-adv-x="320" d="M97 -100 L223 -100 L223 765 L97 765 L97 -100 Z " />
<glyph glyph-name="braceright" unicode="&#x7d;" horiz-adv-x="391" d="M129 -114 C231 -114 289 -59 289 32 L289 190 C289 232 309 250 353 250 L362 250 L362 378 L353 378 C309 378 289 396 289 438 L289 596 C289 687 231 742 129 742 L32 742 L32 616 L93 616 C133 616 151 600 151 559 L151 438 C151 370 179 331 235 316 L235 312 C179 297 151 258 151 190 L151 69 C151 28 133 12 93 12 L32 12 L32 -114 L129 -114 Z " />
<glyph glyph-name="asciitilde" unicode="&#x7e;" horiz-adv-x="650" d="M430 229 C477 229 513 244 552 272 L552 400 C523 376 479 356 429 356 C362 356 292 404 222 404 C176 404 135 388 98 361 L98 233 C142 263 175 276 220 276 C293 276 357 229 430 229 L430 229 Z " />
<glyph glyph-name="uni00A0" unicode="&#xa0;" horiz-adv-x="227" d="" />
<glyph glyph-name="exclamdown" unicode="&#xa1;" horiz-adv-x="301" d="M150 496 C96 496 57 457 57 403 C57 347 96 308 150 308 C205 308 244 347 244 403 C244 457 205 496 150 496 L150 496 Z M90 243 L77 -213 L224 -213 L211 243 L90 243 Z " />
<glyph glyph-name="cent" unicode="&#xa2;" horiz-adv-x="560" d="M525 296 L395 296 C390 253 359 224 315 216 L315 484 C359 477 387 447 392 404 L524 404 C516 519 433 594 315 602 L315 700 L256 700 L256 601 C129 585 42 487 42 350 C42 213 128 115 256 99 L256 0 L315 0 L315 98 C432 107 517 182 525 296 L525 296 Z M174 350 C174 420 207 466 256 481 L256 219 C207 233 174 280 174 350 L174 350 Z " />
<glyph glyph-name="sterling" unicode="&#xa3;" horiz-adv-x="542" d="M303 239 C303 255 301 271 298 287 L439 287 L439 378 L267 378 C245 429 221 476 221 517 C221 561 249 590 297 590 C344 590 373 561 374 495 L513 495 C512 635 430 712 299 712 C165 712 78 631 78 519 C78 464 99 420 120 378 L46 378 L46 287 L158 287 C161 273 163 259 163 244 C163 185 132 142 45 81 L45 0 L512 0 L512 124 L258 124 C288 155 303 193 303 239 L303 239 Z " />
<glyph glyph-name="currency" unicode="&#xa4;" horiz-adv-x="551" d="M482 350 C482 391 471 429 451 461 L518 527 L453 592 L384 524 C354 540 317 550 276 550 C234 550 198 540 167 524 L99 592 L34 527 L101 460 C81 429 70 391 70 350 C70 309 81 271 101 240 L34 173 L99 108 L167 176 C198 160 234 150 276 150 C317 150 354 160 384 176 L453 108 L518 173 L451 239 C471 271 482 309 482 350 L482 350 Z M276 265 C226 265 193 299 193 350 C193 401 226 435 276 435 C326 435 358 401 358 350 C358 299 326 265 276 265 L276 265 Z " />
<glyph glyph-name="yen" unicode="&#xa5;" horiz-adv-x="577" d="M563 700 L414 700 L289 442 L163 700 L14 700 L188 367 L47 367 L47 282 L218 282 L218 208 L47 208 L47 123 L218 123 L218 0 L359 0 L359 123 L531 123 L531 208 L359 208 L359 282 L531 282 L531 367 L389 367 L563 700 Z " />
<glyph glyph-name="brokenbar" unicode="&#xa6;" horiz-adv-x="320" d="M97 403 L223 403 L223 765 L97 765 L97 403 Z M97 -100 L223 -100 L223 254 L97 254 L97 -100 Z " />
<glyph glyph-name="section" unicode="&#xa7;" horiz-adv-x="534" d="M396 180 C452 203 485 253 485 315 C485 397 432 449 328 471 L267 483 C204 497 185 513 185 540 C185 572 211 593 258 593 C307 593 335 570 339 526 L473 526 C466 645 388 712 263 712 C132 712 49 637 49 535 C49 474 79 427 138 398 C82 375 50 324 50 262 C50 181 103 129 206 107 L267 95 C330 81 349 64 349 38 C349 7 323 -15 273 -15 C222 -15 192 9 189 57 L53 57 C57 -67 140 -134 268 -134 C403 -134 485 -59 485 43 C485 103 456 150 396 180 L396 180 Z M265 216 L242 222 C202 232 184 250 184 284 C184 336 223 373 270 362 L292 356 C332 346 351 328 351 294 C351 242 311 205 265 216 L265 216 Z " />
<glyph glyph-name="dieresis" unicode="&#xa8;" horiz-adv-x="600" d="M199 555 C240 555 273 585 273 630 C273 675 240 705 199 705 C158 705 124 675 124 630 C124 585 158 555 199 555 L199 555 Z M401 555 C442 555 476 585 476 630 C476 675 442 705 401 705 C360 705 327 675 327 630 C327 585 360 555 401 555 L401 555 Z " />
<glyph glyph-name="copyright" unicode="&#xa9;" horiz-adv-x="811" d="M405 -12 C609 -12 770 148 770 350 C770 552 609 712 405 712 C201 712 40 552 40 350 C40 148 201 -12 405 -12 L405 -12 Z M405 63 C243 63 122 191 122 350 C122 509 243 637 405 637 C568 637 689 509 689 350 C689 191 568 63 405 63 L405 63 Z M412 146 C518 146 595 210 601 318 L475 318 C472 283 448 260 411 260 C368 260 336 295 336 351 C336 406 368 442 411 442 C446 442 471 419 474 384 L601 384 C595 491 518 555 412 555 C293 555 209 472 209 351 C209 229 293 146 412 146 L412 146 Z " />
<glyph glyph-name="ordfeminine" unicode="&#xaa;" horiz-adv-x="500" d="M336 702 L332 654 L328 654 C308 691 259 712 210 712 C109 712 28 627 28 495 C28 362 109 278 210 278 C264 278 309 301 328 336 L332 336 L336 288 L457 288 L457 702 L336 702 Z M245 396 C195 396 161 432 161 495 C161 558 195 593 245 593 C294 593 328 558 328 495 C328 432 295 396 245 396 L245 396 Z " />
<glyph glyph-name="guillemotleft" unicode="&#xab;" horiz-adv-x="629" d="M339 504 L187 504 L32 283 L187 63 L339 63 L186 283 L339 504 Z M592 504 L439 504 L285 283 L439 63 L592 63 L438 283 L592 504 Z " />
<glyph glyph-name="logicalnot" unicode="&#xac;" horiz-adv-x="650" d="M98 381 L98 253 L419 253 L419 153 L552 153 L552 381 L98 381 Z " />
<glyph glyph-name="registered" unicode="&#xae;" horiz-adv-x="462" d="M231 712 C117 712 25 621 25 508 C25 396 117 304 231 304 C345 304 436 396 436 508 C436 620 345 712 231 712 L231 712 Z M231 355 C146 355 82 424 82 508 C82 592 146 661 231 661 C316 661 379 592 379 508 C379 424 316 355 231 355 L231 355 Z M323 546 C323 592 294 618 245 618 L148 618 L148 405 L202 405 L202 477 L218 477 L266 405 L329 405 L274 480 C306 488 323 510 323 546 L323 546 Z M202 568 L242 568 C257 568 266 560 266 546 C266 530 257 523 242 523 L202 523 L202 568 Z " />
<glyph glyph-name="macron" unicode="&#xaf;" horiz-adv-x="600" d="M157 570 L443 570 L443 674 L157 674 L157 570 Z " />
<glyph glyph-name="degree" unicode="&#xb0;" horiz-adv-x="385" d="M192 391 C289 391 358 460 358 551 C358 643 289 712 192 712 C96 712 27 643 27 551 C27 460 96 391 192 391 L192 391 Z M192 487 C154 487 129 513 129 551 C129 589 154 616 192 616 C231 616 256 589 256 551 C256 513 231 487 192 487 L192 487 Z " />
<glyph glyph-name="plusminus" unicode="&#xb1;" horiz-adv-x="650" d="M98 338 L257 338 L257 190 L393 190 L393 338 L552 338 L552 466 L393 466 L393 614 L257 614 L257 466 L98 466 L98 338 Z M98 0 L552 0 L552 128 L98 128 L98 0 Z " />
<glyph glyph-name="uni00B2" unicode="&#xb2;" horiz-adv-x="368" d="M228 427 C314 480 340 521 340 577 C340 659 284 712 192 712 C94 712 30 652 29 554 L141 554 C142 592 163 612 192 612 C216 612 231 597 231 575 C231 553 217 537 151 495 C53 435 31 400 31 323 L31 271 L337 271 L337 371 L157 371 C169 388 190 404 228 427 L228 427 Z " />
<glyph glyph-name="uni00B3" unicode="&#xb3;" horiz-adv-x="376" d="M282 492 C321 511 339 544 339 585 C339 660 279 712 190 712 C97 712 34 655 32 566 L141 566 C143 595 160 611 187 611 C213 611 230 597 230 573 C230 550 215 535 186 535 L144 535 L144 447 L187 447 C220 447 237 431 237 407 C237 383 219 365 190 365 C162 365 142 382 141 413 L31 413 C30 318 93 264 190 264 C285 264 347 318 347 392 C347 437 324 474 282 492 L282 492 Z " />
<glyph glyph-name="acute" unicode="&#xb4;" horiz-adv-x="600" d="M198 550 L325 550 L433 702 L274 702 L198 550 Z " />
<glyph glyph-name="uni00B5" unicode="&#xb5;" horiz-adv-x="577" d="M375 484 L375 225 C375 153 341 117 287 117 C233 117 203 149 203 217 L203 484 L63 484 L63 -224 L203 -224 L203 17 C225 -2 250 -12 280 -12 C327 -12 361 12 380 50 L384 50 L389 0 L515 0 L515 484 L375 484 Z " />
<glyph glyph-name="paragraph" unicode="&#xb6;" horiz-adv-x="692" d="M57 544 C57 451 126 387 235 387 L246 387 L246 -128 L380 -128 L380 700 L251 700 C126 700 57 636 57 544 L57 544 Z M461 700 L461 -128 L595 -128 L595 700 L461 700 Z " />
<glyph glyph-name="periodcentered" unicode="&#xb7;" horiz-adv-x="275" d="M138 223 C192 223 231 263 231 317 C231 372 192 411 138 411 C83 411 44 372 44 317 C44 263 83 223 138 223 L138 223 Z " />
<glyph glyph-name="cedilla" unicode="&#xb8;" horiz-adv-x="600" d="M306 -45 L306 0 L219 0 L209 -104 C271 -104 283 -113 283 -127 C283 -142 272 -151 237 -151 C227 -151 215 -151 202 -149 L202 -228 C219 -232 237 -234 255 -234 C344 -234 393 -194 393 -134 C393 -86 362 -54 306 -45 L306 -45 Z " />
<glyph glyph-name="uni00B9" unicode="&#xb9;" horiz-adv-x="297" d="M151 700 C142 660 121 640 63 640 L40 640 L40 559 L129 559 L129 266 L240 266 L240 700 L151 700 Z " />
<glyph glyph-name="ordmasculine" unicode="&#xba;" horiz-adv-x="492" d="M246 278 C373 278 464 366 464 495 C464 624 373 712 246 712 C118 712 28 623 28 495 C28 366 118 278 246 278 L246 278 Z M246 396 C197 396 161 434 161 495 C161 555 197 593 246 593 C295 593 331 554 331 495 C331 435 295 396 246 396 L246 396 Z " />
<glyph glyph-name="guillemotright" unicode="&#xbb;" horiz-adv-x="629" d="M190 504 L37 504 L191 283 L37 63 L190 63 L344 283 L190 504 Z M442 504 L290 504 L443 283 L290 63 L442 63 L597 283 L442 504 Z " />
<glyph glyph-name="onequarter" unicode="&#xbc;" horiz-adv-x="898" d="M245 266 L245 700 L155 700 C147 660 126 640 68 640 L44 640 L44 559 L134 559 L134 266 L245 266 Z M586 700 L144 0 L276 0 L717 700 L586 700 Z M847 167 L801 167 L801 434 L669 434 L496 160 L496 73 L698 73 L698 0 L801 0 L801 73 L847 73 L847 167 Z M607 167 L698 313 L698 167 L607 167 Z " />
<glyph glyph-name="onehalf" unicode="&#xbd;" horiz-adv-x="922" d="M245 266 L245 700 L155 700 C147 660 126 640 68 640 L44 640 L44 559 L134 559 L134 266 L245 266 Z M584 700 L143 0 L274 0 L716 700 L584 700 Z M758 156 C844 209 871 250 871 306 C871 388 814 441 723 441 C625 441 561 381 560 283 L671 283 C673 321 693 341 722 341 C747 341 761 326 761 304 C761 282 747 266 681 224 C584 164 562 129 562 52 L562 0 L867 0 L867 100 L687 100 C699 117 721 133 758 156 L758 156 Z " />
<glyph glyph-name="threequarters" unicode="&#xbe;" horiz-adv-x="976" d="M361 392 C361 437 338 474 296 493 C335 511 353 544 353 585 C353 660 293 712 204 712 C111 712 48 655 46 566 L155 566 C157 595 174 611 201 611 C227 611 243 597 243 573 C243 550 229 535 200 535 L158 535 L158 447 L201 447 C233 447 250 431 250 407 C250 383 233 365 204 365 C176 365 155 382 155 413 L45 413 C44 318 107 264 203 264 C299 264 361 318 361 392 L361 392 Z M664 700 L223 0 L355 0 L796 700 L664 700 Z M925 167 L880 167 L880 434 L748 434 L575 160 L575 73 L777 73 L777 0 L880 0 L880 73 L925 73 L925 167 Z M686 167 L777 313 L777 167 L686 167 Z " />
<glyph glyph-name="questiondown" unicode="&#xbf;" horiz-adv-x="499" d="M271 496 C216 496 177 457 177 403 C177 348 216 309 271 309 C325 309 364 348 364 403 C364 457 325 496 271 496 L271 496 Z M341 244 L201 244 L201 211 C201 174 196 164 165 137 L123 103 C58 48 36 4 36 -49 C36 -156 121 -225 242 -225 C371 -225 461 -146 464 -7 L325 -7 C325 -65 290 -96 240 -96 C198 -96 176 -74 176 -42 C176 -22 185 -6 212 18 L258 55 C329 115 341 138 341 204 L341 244 Z " />
<glyph glyph-name="Agrave" unicode="&#xc0;" horiz-adv-x="672" d="M419 762 L338 922 L170 922 L284 762 L419 762 Z M509 0 L664 0 L421 700 L251 700 L8 0 L162 0 L208 138 L464 138 L509 0 Z M249 264 L334 520 L338 520 L422 264 L249 264 Z " />
<glyph glyph-name="Aacute" unicode="&#xc1;" horiz-adv-x="672" d="M496 922 L327 922 L247 762 L381 762 L496 922 Z M509 0 L664 0 L421 700 L251 700 L8 0 L162 0 L208 138 L464 138 L509 0 Z M249 264 L334 520 L338 520 L422 264 L249 264 Z " />
<glyph glyph-name="Acircumflex" unicode="&#xc2;" horiz-adv-x="672" d="M336 839 L399 762 L531 762 L407 922 L265 922 L141 762 L273 762 L336 839 Z M509 0 L664 0 L421 700 L251 700 L8 0 L162 0 L208 138 L464 138 L509 0 Z M249 264 L334 520 L338 520 L422 264 L249 264 Z " />
<glyph glyph-name="Atilde" unicode="&#xc3;" horiz-adv-x="672" d="M281 822 C291 822 302 817 324 798 C359 768 385 758 412 758 C476 758 513 814 513 922 L417 922 C417 878 406 862 391 862 C382 862 371 867 348 886 C314 916 288 926 261 926 C197 926 159 871 159 763 L256 763 C256 807 267 822 281 822 L281 822 Z M509 0 L664 0 L421 700 L251 700 L8 0 L162 0 L208 138 L464 138 L509 0 Z M249 264 L334 520 L338 520 L422 264 L249 264 Z " />
<glyph glyph-name="Adieresis" unicode="&#xc4;" horiz-adv-x="672" d="M227 765 C271 765 307 799 307 846 C307 893 271 926 227 926 C184 926 148 893 148 846 C148 799 184 765 227 765 L227 765 Z M444 765 C488 765 524 799 524 846 C524 893 488 926 444 926 C401 926 365 893 365 846 C365 799 401 765 444 765 L444 765 Z M509 0 L664 0 L421 700 L251 700 L8 0 L162 0 L208 138 L464 138 L509 0 Z M249 264 L334 520 L338 520 L422 264 L249 264 Z " />
<glyph glyph-name="Aring" unicode="&#xc5;" horiz-adv-x="672" d="M509 0 L664 0 L434 662 C453 682 464 709 464 739 C464 806 410 858 336 858 C263 858 208 806 208 739 C208 709 219 682 238 662 L8 0 L162 0 L208 138 L464 138 L509 0 Z M336 779 C361 779 376 762 376 739 C376 717 361 700 336 700 C311 700 296 717 296 739 C296 762 311 779 336 779 L336 779 Z M249 264 L334 520 L338 520 L422 264 L249 264 Z " />
<glyph glyph-name="AE" unicode="&#xc6;" horiz-adv-x="981" d="M929 564 L929 700 L394 700 L6 0 L177 0 L259 151 L489 151 L489 0 L929 0 L929 136 L637 136 L637 285 L897 285 L897 417 L637 417 L637 564 L929 564 Z M328 277 L485 564 L489 564 L489 277 L328 277 Z " />
<glyph glyph-name="Ccedilla" unicode="&#xc7;" horiz-adv-x="755" d="M721 276 L571 276 C555 180 488 125 393 125 C278 125 193 211 193 350 C193 488 278 575 393 575 C485 575 549 522 566 424 L720 424 C708 597 571 712 392 712 C188 712 40 562 40 350 C40 160 159 20 330 -7 L321 -104 C383 -104 395 -113 395 -127 C395 -142 383 -151 349 -151 C339 -151 327 -151 314 -149 L314 -228 C331 -232 349 -234 367 -234 C455 -234 505 -194 505 -134 C505 -86 473 -54 417 -45 L418 -11 C583 -1 710 110 721 276 L721 276 Z " />
<glyph glyph-name="Egrave" unicode="&#xc8;" horiz-adv-x="569" d="M379 762 L298 922 L130 922 L244 762 L379 762 Z M516 564 L516 700 L77 700 L77 0 L516 0 L516 136 L225 136 L225 285 L484 285 L484 417 L225 417 L225 564 L516 564 Z " />
<glyph glyph-name="Eacute" unicode="&#xc9;" horiz-adv-x="569" d="M457 922 L288 922 L208 762 L342 762 L457 922 Z M516 564 L516 700 L77 700 L77 0 L516 0 L516 136 L225 136 L225 285 L484 285 L484 417 L225 417 L225 564 L516 564 Z " />
<glyph glyph-name="Ecircumflex" unicode="&#xca;" horiz-adv-x="569" d="M297 839 L360 762 L492 762 L368 922 L226 922 L102 762 L234 762 L297 839 Z M516 564 L516 700 L77 700 L77 0 L516 0 L516 136 L225 136 L225 285 L484 285 L484 417 L225 417 L225 564 L516 564 Z " />
<glyph glyph-name="Edieresis" unicode="&#xcb;" horiz-adv-x="569" d="M188 765 C232 765 268 799 268 846 C268 893 232 926 188 926 C145 926 109 893 109 846 C109 799 145 765 188 765 L188 765 Z M405 765 C449 765 485 799 485 846 C485 893 449 926 405 926 C362 926 326 893 326 846 C326 799 362 765 405 765 L405 765 Z M516 564 L516 700 L77 700 L77 0 L516 0 L516 136 L225 136 L225 285 L484 285 L484 417 L225 417 L225 564 L516 564 Z " />
<glyph glyph-name="Igrave" unicode="&#xcc;" horiz-adv-x="302" d="M98 762 L233 762 L152 922 L-16 922 L98 762 Z M77 0 L225 0 L225 700 L77 700 L77 0 Z " />
<glyph glyph-name="Iacute" unicode="&#xcd;" horiz-adv-x="302" d="M62 762 L196 762 L311 922 L142 922 L62 762 Z M77 0 L225 0 L225 700 L77 700 L77 0 Z " />
<glyph glyph-name="Icircumflex" unicode="&#xce;" horiz-adv-x="302" d="M151 839 L214 762 L346 762 L222 922 L80 922 L-44 762 L88 762 L151 839 Z M77 0 L225 0 L225 700 L77 700 L77 0 Z " />
<glyph glyph-name="Idieresis" unicode="&#xcf;" horiz-adv-x="302" d="M42 765 C86 765 122 799 122 846 C122 893 86 926 42 926 C-1 926 -37 893 -37 846 C-37 799 -1 765 42 765 L42 765 Z M259 765 C303 765 339 799 339 846 C339 893 303 926 259 926 C216 926 180 893 180 846 C180 799 216 765 259 765 L259 765 Z M77 0 L225 0 L225 700 L77 700 L77 0 Z " />
<glyph glyph-name="Eth" unicode="&#xd0;" horiz-adv-x="698" d="M285 700 L88 700 L88 405 L-6 405 L-6 295 L88 295 L88 0 L285 0 C511 0 657 132 657 350 C657 569 511 700 285 700 L285 700 Z M293 138 L235 138 L235 295 L363 295 L363 405 L235 405 L235 562 L293 562 C424 562 505 488 505 350 C505 212 424 138 293 138 L293 138 Z " />
<glyph glyph-name="Ntilde" unicode="&#xd1;" horiz-adv-x="744" d="M317 822 C327 822 338 817 360 798 C395 768 421 758 448 758 C512 758 549 814 549 922 L453 922 C453 878 442 862 427 862 C418 862 407 867 384 886 C350 916 324 926 297 926 C233 926 195 871 195 763 L292 763 C292 807 303 822 317 822 L317 822 Z M519 700 L519 256 L515 256 L227 700 L77 700 L77 0 L225 0 L225 444 L228 444 L517 0 L667 0 L667 700 L519 700 Z " />
<glyph glyph-name="Ograve" unicode="&#xd2;" horiz-adv-x="786" d="M340 762 L475 762 L394 922 L226 922 L340 762 Z M393 -12 C598 -12 746 138 746 350 C746 562 598 712 393 712 C188 712 40 562 40 350 C40 138 188 -12 393 -12 L393 -12 Z M393 125 C275 125 193 214 193 350 C193 486 275 575 393 575 C511 575 593 486 593 350 C593 214 511 125 393 125 L393 125 Z " />
<glyph glyph-name="Oacute" unicode="&#xd3;" horiz-adv-x="786" d="M304 762 L438 762 L553 922 L384 922 L304 762 Z M393 -12 C598 -12 746 138 746 350 C746 562 598 712 393 712 C188 712 40 562 40 350 C40 138 188 -12 393 -12 L393 -12 Z M393 125 C275 125 193 214 193 350 C193 486 275 575 393 575 C511 575 593 486 593 350 C593 214 511 125 393 125 L393 125 Z " />
<glyph glyph-name="Ocircumflex" unicode="&#xd4;" horiz-adv-x="786" d="M393 839 L456 762 L588 762 L464 922 L322 922 L198 762 L330 762 L393 839 Z M393 712 C188 712 40 562 40 350 C40 138 188 -12 393 -12 C598 -12 746 138 746 350 C746 562 598 712 393 712 L393 712 Z M393 125 C275 125 193 214 193 350 C193 486 275 575 393 575 C511 575 593 486 593 350 C593 214 511 125 393 125 L393 125 Z " />
<glyph glyph-name="Otilde" unicode="&#xd5;" horiz-adv-x="786" d="M469 758 C533 758 570 814 570 922 L474 922 C474 878 463 862 448 862 C439 862 428 867 405 886 C371 916 345 926 318 926 C254 926 216 871 216 763 L313 763 C313 807 324 822 338 822 C348 822 359 817 381 798 C416 768 442 758 469 758 L469 758 Z M393 -12 C598 -12 746 138 746 350 C746 562 598 712 393 712 C188 712 40 562 40 350 C40 138 188 -12 393 -12 L393 -12 Z M393 125 C275 125 193 214 193 350 C193 486 275 575 393 575 C511 575 593 486 593 350 C593 214 511 125 393 125 L393 125 Z " />
<glyph glyph-name="Odieresis" unicode="&#xd6;" horiz-adv-x="786" d="M284 765 C328 765 364 799 364 846 C364 893 328 926 284 926 C241 926 205 893 205 846 C205 799 241 765 284 765 L284 765 Z M501 765 C545 765 581 799 581 846 C581 893 545 926 501 926 C458 926 422 893 422 846 C422 799 458 765 501 765 L501 765 Z M393 -12 C598 -12 746 138 746 350 C746 562 598 712 393 712 C188 712 40 562 40 350 C40 138 188 -12 393 -12 L393 -12 Z M393 125 C275 125 193 214 193 350 C193 486 275 575 393 575 C511 575 593 486 593 350 C593 214 511 125 393 125 L393 125 Z " />
<glyph glyph-name="multiply" unicode="&#xd7;" horiz-adv-x="650" d="M188 93 L325 230 L462 93 L549 180 L412 317 L549 454 L462 541 L325 404 L188 541 L101 454 L238 317 L101 180 L188 93 Z " />
<glyph glyph-name="Oslash" unicode="&#xd8;" horiz-adv-x="796" d="M765 635 L683 717 L611 645 C553 688 480 712 398 712 C193 712 45 562 45 350 C45 269 67 197 105 139 L32 65 L113 -17 L185 55 C243 12 316 -12 398 -12 C603 -12 751 138 751 350 C751 431 729 503 691 561 L765 635 Z M398 575 C442 575 480 563 512 541 L217 246 C205 276 198 311 198 350 C198 486 280 575 398 575 L398 575 Z M398 125 C354 125 316 137 284 159 L579 454 C591 424 598 389 598 350 C598 214 516 125 398 125 L398 125 Z " />
<glyph glyph-name="Ugrave" unicode="&#xd9;" horiz-adv-x="690" d="M292 762 L427 762 L346 922 L178 922 L292 762 Z M345 -12 C515 -12 622 95 622 274 L622 700 L474 700 L474 282 C474 178 423 127 345 127 C267 127 215 178 215 282 L215 700 L68 700 L68 274 C68 95 174 -12 345 -12 L345 -12 Z " />
<glyph glyph-name="Uacute" unicode="&#xda;" horiz-adv-x="690" d="M256 762 L390 762 L505 922 L336 922 L256 762 Z M345 -12 C515 -12 622 95 622 274 L622 700 L474 700 L474 282 C474 178 423 127 345 127 C267 127 215 178 215 282 L215 700 L68 700 L68 274 C68 95 174 -12 345 -12 L345 -12 Z " />
<glyph glyph-name="Ucircumflex" unicode="&#xdb;" horiz-adv-x="690" d="M345 839 L408 762 L540 762 L416 922 L274 922 L150 762 L282 762 L345 839 Z M474 700 L474 282 C474 178 423 127 345 127 C267 127 215 178 215 282 L215 700 L68 700 L68 274 C68 95 174 -12 345 -12 C515 -12 622 95 622 274 L622 700 L474 700 Z " />
<glyph glyph-name="Udieresis" unicode="&#xdc;" horiz-adv-x="690" d="M236 765 C280 765 316 799 316 846 C316 893 280 926 236 926 C193 926 157 893 157 846 C157 799 193 765 236 765 L236 765 Z M453 765 C497 765 533 799 533 846 C533 893 497 926 453 926 C410 926 374 893 374 846 C374 799 410 765 453 765 L453 765 Z M345 -12 C515 -12 622 95 622 274 L622 700 L474 700 L474 282 C474 178 423 127 345 127 C267 127 215 178 215 282 L215 700 L68 700 L68 274 C68 95 174 -12 345 -12 L345 -12 Z " />
<glyph glyph-name="Yacute" unicode="&#xdd;" horiz-adv-x="630" d="M226 762 L360 762 L475 922 L306 922 L226 762 Z M241 0 L389 0 L389 283 L627 700 L463 700 L317 432 L314 432 L168 700 L3 700 L241 283 L241 0 Z " />
<glyph glyph-name="Thorn" unicode="&#xde;" horiz-adv-x="638" d="M311 598 L225 598 L225 700 L77 700 L77 0 L225 0 L225 97 L311 97 C494 97 599 191 599 348 C599 504 494 598 311 598 L311 598 Z M303 235 L225 235 L225 461 L303 461 C401 461 446 422 446 348 C446 274 401 235 303 235 L303 235 Z " />
<glyph glyph-name="germandbls" unicode="&#xdf;" horiz-adv-x="595" d="M345 -12 C482 -12 566 68 566 185 C566 281 509 345 421 356 L421 360 C485 377 526 437 526 515 C526 630 437 712 297 712 C152 712 63 625 63 480 L63 0 L203 0 L203 474 C203 551 238 586 298 586 C354 586 387 555 387 501 C387 446 354 413 288 413 L266 413 L266 285 L318 285 C387 285 424 255 424 200 C424 148 389 114 319 114 C302 114 285 116 265 121 L265 -4 C294 -10 321 -12 345 -12 L345 -12 Z " />
<glyph glyph-name="agrave" unicode="&#xe0;" horiz-adv-x="545" d="M344 550 L268 702 L109 702 L217 550 L344 550 Z M277 496 C141 496 59 427 54 317 L192 317 C195 358 222 380 272 380 C325 380 351 356 351 302 L351 300 L217 280 C95 262 38 209 38 129 C38 46 103 -12 200 -12 C268 -12 323 16 351 60 L354 60 L360 0 L486 0 L486 295 C486 426 414 496 277 496 L277 496 Z M242 95 C202 95 180 111 180 140 C180 169 200 188 255 195 L351 209 L351 201 C351 137 307 95 242 95 L242 95 Z " />
<glyph glyph-name="aacute" unicode="&#xe1;" horiz-adv-x="545" d="M421 702 L262 702 L186 550 L313 550 L421 702 Z M277 496 C141 496 59 427 54 317 L192 317 C195 358 222 380 272 380 C325 380 351 356 351 302 L351 300 L217 280 C95 262 38 209 38 129 C38 46 103 -12 200 -12 C268 -12 323 16 351 60 L354 60 L360 0 L486 0 L486 295 C486 426 414 496 277 496 L277 496 Z M242 95 C202 95 180 111 180 140 C180 169 200 188 255 195 L351 209 L351 201 C351 137 307 95 242 95 L242 95 Z " />
<glyph glyph-name="acircumflex" unicode="&#xe2;" horiz-adv-x="545" d="M268 623 L327 550 L453 550 L336 702 L200 702 L83 550 L209 550 L268 623 Z M277 496 C141 496 59 427 54 317 L192 317 C195 358 222 380 272 380 C325 380 351 356 351 302 L351 300 L217 280 C95 262 38 209 38 129 C38 46 103 -12 200 -12 C268 -12 323 16 351 60 L354 60 L360 0 L486 0 L486 295 C486 426 414 496 277 496 L277 496 Z M242 95 C202 95 180 111 180 140 C180 169 200 188 255 195 L351 209 L351 201 C351 137 307 95 242 95 L242 95 Z " />
<glyph glyph-name="atilde" unicode="&#xe3;" horiz-adv-x="545" d="M217 607 C225 607 236 602 257 584 C290 556 314 547 340 547 C400 547 435 600 435 701 L344 701 C344 660 334 645 320 645 C312 645 300 650 280 668 C247 696 222 705 197 705 C136 705 101 653 101 551 L192 551 C192 593 202 607 217 607 L217 607 Z M277 496 C141 496 59 427 54 317 L192 317 C195 358 222 380 272 380 C325 380 351 356 351 302 L351 300 L217 280 C95 262 38 209 38 129 C38 46 103 -12 200 -12 C268 -12 323 16 351 60 L354 60 L360 0 L486 0 L486 295 C486 426 414 496 277 496 L277 496 Z M242 95 C202 95 180 111 180 140 C180 169 200 188 255 195 L351 209 L351 201 C351 137 307 95 242 95 L242 95 Z " />
<glyph glyph-name="adieresis" unicode="&#xe4;" horiz-adv-x="545" d="M167 555 C208 555 241 585 241 630 C241 675 208 705 167 705 C126 705 92 675 92 630 C92 585 126 555 167 555 L167 555 Z M369 555 C410 555 444 585 444 630 C444 675 410 705 369 705 C328 705 295 675 295 630 C295 585 328 555 369 555 L369 555 Z M277 496 C141 496 59 427 54 317 L192 317 C195 358 222 380 272 380 C325 380 351 356 351 302 L351 300 L217 280 C95 262 38 209 38 129 C38 46 103 -12 200 -12 C268 -12 323 16 351 60 L354 60 L360 0 L486 0 L486 295 C486 426 414 496 277 496 L277 496 Z M242 95 C202 95 180 111 180 140 C180 169 200 188 255 195 L351 209 L351 201 C351 137 307 95 242 95 L242 95 Z " />
<glyph glyph-name="aring" unicode="&#xe5;" horiz-adv-x="545" d="M268 540 C334 540 382 585 382 646 C382 706 334 752 268 752 C202 752 154 706 154 646 C154 585 202 540 268 540 L268 540 Z M268 681 C290 681 304 666 304 646 C304 625 290 610 268 610 C246 610 232 625 232 646 C232 666 246 681 268 681 L268 681 Z M277 496 C141 496 59 427 54 317 L192 317 C195 358 222 380 272 380 C325 380 351 356 351 302 L351 300 L217 280 C95 262 38 209 38 129 C38 46 103 -12 200 -12 C268 -12 323 16 351 60 L354 60 L360 0 L486 0 L486 295 C486 426 414 496 277 496 L277 496 Z M242 95 C202 95 180 111 180 140 C180 169 200 188 255 195 L351 209 L351 201 C351 137 307 95 242 95 L242 95 Z " />
<glyph glyph-name="ae" unicode="&#xe6;" horiz-adv-x="871" d="M837 256 C837 404 737 496 604 496 C542 496 485 476 445 437 L441 437 C409 476 358 496 282 496 C141 496 59 427 54 317 L192 317 C195 358 222 380 276 380 C333 380 362 356 362 301 L362 288 L259 288 C113 288 38 226 38 135 C38 48 105 -12 226 -12 C314 -12 380 20 412 71 L415 71 C456 19 524 -12 602 -12 C717 -12 803 50 830 158 L696 158 C681 125 646 105 601 105 C544 105 501 140 491 208 L833 208 C836 226 837 242 837 256 L837 256 Z M602 380 C649 380 687 357 698 299 L497 299 C513 354 553 380 602 380 L602 380 Z M247 99 C202 99 180 115 180 144 C180 175 206 197 273 197 L362 197 C360 139 316 99 247 99 L247 99 Z " />
<glyph glyph-name="ccedilla" unicode="&#xe7;" horiz-adv-x="554" d="M527 197 L384 197 C377 145 337 113 287 113 C225 113 179 163 179 242 C179 321 226 370 288 370 C339 370 374 339 382 287 L525 287 C515 418 423 496 290 496 C140 496 37 393 37 242 C37 114 111 20 224 -5 L215 -104 C277 -104 289 -113 289 -127 C289 -142 278 -151 243 -151 C233 -151 221 -151 208 -149 L208 -228 C225 -232 243 -234 261 -234 C350 -234 399 -194 399 -134 C399 -86 368 -54 312 -45 L312 -11 C432 -2 517 75 527 197 L527 197 Z " />
<glyph glyph-name="egrave" unicode="&#xe8;" horiz-adv-x="562" d="M364 550 L288 702 L129 702 L237 550 L364 550 Z M527 256 C527 404 427 496 289 496 C142 496 37 391 37 239 C37 90 138 -12 290 -12 C408 -12 496 50 521 158 L388 158 C373 125 337 105 291 105 C229 105 185 139 174 208 L523 208 C526 226 527 242 527 256 L527 256 Z M289 381 C339 381 377 356 387 297 L179 297 C194 353 235 381 289 381 L289 381 Z " />
<glyph glyph-name="eacute" unicode="&#xe9;" horiz-adv-x="562" d="M441 702 L282 702 L206 550 L333 550 L441 702 Z M527 256 C527 404 427 496 289 496 C142 496 37 391 37 239 C37 90 138 -12 290 -12 C408 -12 496 50 521 158 L388 158 C373 125 337 105 291 105 C229 105 185 139 174 208 L523 208 C526 226 527 242 527 256 L527 256 Z M289 381 C339 381 377 356 387 297 L179 297 C194 353 235 381 289 381 L289 381 Z " />
<glyph glyph-name="ecircumflex" unicode="&#xea;" horiz-adv-x="562" d="M288 623 L347 550 L473 550 L356 702 L220 702 L103 550 L229 550 L288 623 Z M527 256 C527 404 427 496 289 496 C142 496 37 391 37 239 C37 90 138 -12 290 -12 C408 -12 496 50 521 158 L388 158 C373 125 337 105 291 105 C229 105 185 139 174 208 L523 208 C526 226 527 242 527 256 L527 256 Z M289 381 C339 381 377 356 387 297 L179 297 C194 353 235 381 289 381 L289 381 Z " />
<glyph glyph-name="edieresis" unicode="&#xeb;" horiz-adv-x="562" d="M187 555 C228 555 261 585 261 630 C261 675 228 705 187 705 C146 705 112 675 112 630 C112 585 146 555 187 555 L187 555 Z M389 555 C430 555 464 585 464 630 C464 675 430 705 389 705 C348 705 315 675 315 630 C315 585 348 555 389 555 L389 555 Z M527 256 C527 404 427 496 289 496 C142 496 37 391 37 239 C37 90 138 -12 290 -12 C408 -12 496 50 521 158 L388 158 C373 125 337 105 291 105 C229 105 185 139 174 208 L523 208 C526 226 527 242 527 256 L527 256 Z M289 381 C339 381 377 356 387 297 L179 297 C194 353 235 381 289 381 L289 381 Z " />
<glyph glyph-name="igrave" unicode="&#xec;" horiz-adv-x="266" d="M81 550 L208 550 L152 702 L-7 702 L81 550 Z M63 0 L203 0 L203 484 L63 484 L63 0 Z " />
<glyph glyph-name="iacute" unicode="&#xed;" horiz-adv-x="266" d="M51 550 L178 550 L265 702 L106 702 L51 550 Z M63 0 L203 0 L203 484 L63 484 L63 0 Z " />
<glyph glyph-name="icircumflex" unicode="&#xee;" horiz-adv-x="266" d="M133 617 L181 550 L298 550 L191 702 L74 702 L-33 550 L85 550 L133 617 Z M63 0 L203 0 L203 484 L63 484 L63 0 Z " />
<glyph glyph-name="idieresis" unicode="&#xef;" horiz-adv-x="266" d="M37 554 C81 554 114 586 114 636 C114 686 81 718 37 718 C-7 718 -40 686 -40 636 C-40 586 -7 554 37 554 L37 554 Z M228 554 C272 554 305 586 305 636 C305 686 272 718 228 718 C184 718 152 686 152 636 C152 586 184 554 228 554 L228 554 Z M63 0 L203 0 L203 484 L63 484 L63 0 Z " />
<glyph glyph-name="eth" unicode="&#xf0;" horiz-adv-x="580" d="M404 626 L480 681 L437 739 L345 672 C301 702 249 724 192 739 L153 632 C187 621 216 610 242 597 L171 546 L213 489 L307 556 C345 525 371 487 387 438 C357 461 320 471 277 471 C135 471 37 368 37 232 C37 96 135 -12 289 -12 C381 -12 448 25 487 77 C522 124 544 185 544 282 C544 421 494 541 404 626 L404 626 Z M290 113 C220 113 178 164 178 232 C178 299 220 350 290 350 C360 350 403 301 403 232 C403 164 360 113 290 113 L290 113 Z " />
<glyph glyph-name="ntilde" unicode="&#xf1;" horiz-adv-x="572" d="M237 607 C245 607 256 602 277 584 C310 556 334 547 360 547 C420 547 455 600 455 701 L364 701 C364 660 354 645 340 645 C332 645 320 650 300 668 C267 696 242 705 217 705 C156 705 121 653 121 551 L212 551 C212 593 222 607 237 607 L237 607 Z M349 496 C286 496 229 469 200 425 L196 425 L191 484 L63 484 L63 0 L203 0 L203 259 C203 332 239 367 294 367 C345 367 373 338 373 262 L373 0 L513 0 L513 301 C513 428 449 496 349 496 L349 496 Z " />
<glyph glyph-name="ograve" unicode="&#xf2;" horiz-adv-x="580" d="M238 550 L365 550 L289 702 L130 702 L238 550 Z M290 -12 C438 -12 543 92 543 242 C543 392 438 496 290 496 C142 496 37 392 37 242 C37 92 142 -12 290 -12 L290 -12 Z M290 113 C225 113 179 162 179 242 C179 322 225 370 290 370 C355 370 401 322 401 242 C401 162 355 113 290 113 L290 113 Z " />
<glyph glyph-name="oacute" unicode="&#xf3;" horiz-adv-x="580" d="M208 550 L335 550 L443 702 L284 702 L208 550 Z M290 -12 C438 -12 543 92 543 242 C543 392 438 496 290 496 C142 496 37 392 37 242 C37 92 142 -12 290 -12 L290 -12 Z M290 113 C225 113 179 162 179 242 C179 322 225 370 290 370 C355 370 401 322 401 242 C401 162 355 113 290 113 L290 113 Z " />
<glyph glyph-name="ocircumflex" unicode="&#xf4;" horiz-adv-x="580" d="M290 623 L349 550 L475 550 L358 702 L222 702 L105 550 L231 550 L290 623 Z M290 496 C142 496 37 392 37 242 C37 92 142 -12 290 -12 C438 -12 543 92 543 242 C543 392 438 496 290 496 L290 496 Z M290 113 C225 113 179 162 179 242 C179 322 225 370 290 370 C355 370 401 322 401 242 C401 162 355 113 290 113 L290 113 Z " />
<glyph glyph-name="otilde" unicode="&#xf5;" horiz-adv-x="580" d="M362 547 C422 547 457 600 457 701 L366 701 C366 660 356 645 342 645 C334 645 322 650 302 668 C269 696 244 705 219 705 C158 705 123 653 123 551 L214 551 C214 593 224 607 239 607 C247 607 258 602 279 584 C312 556 336 547 362 547 L362 547 Z M290 -12 C438 -12 543 92 543 242 C543 392 438 496 290 496 C142 496 37 392 37 242 C37 92 142 -12 290 -12 L290 -12 Z M290 113 C225 113 179 162 179 242 C179 322 225 370 290 370 C355 370 401 322 401 242 C401 162 355 113 290 113 L290 113 Z " />
<glyph glyph-name="odieresis" unicode="&#xf6;" horiz-adv-x="580" d="M189 555 C230 555 263 585 263 630 C263 675 230 705 189 705 C148 705 114 675 114 630 C114 585 148 555 189 555 L189 555 Z M391 555 C432 555 466 585 466 630 C466 675 432 705 391 705 C350 705 317 675 317 630 C317 585 350 555 391 555 L391 555 Z M290 -12 C438 -12 543 92 543 242 C543 392 438 496 290 496 C142 496 37 392 37 242 C37 92 142 -12 290 -12 L290 -12 Z M290 113 C225 113 179 162 179 242 C179 322 225 370 290 370 C355 370 401 322 401 242 C401 162 355 113 290 113 L290 113 Z " />
<glyph glyph-name="divide" unicode="&#xf7;" horiz-adv-x="650" d="M325 431 C377 431 412 463 412 511 C412 559 377 591 325 591 C273 591 238 559 238 511 C238 463 273 431 325 431 L325 431 Z M98 253 L552 253 L552 381 L98 381 L98 253 Z M325 43 C377 43 412 75 412 123 C412 171 377 203 325 203 C273 203 238 171 238 123 C238 75 273 43 325 43 L325 43 Z " />
<glyph glyph-name="oslash" unicode="&#xf8;" horiz-adv-x="586" d="M570 455 L508 518 L442 452 C401 480 350 496 293 496 C145 496 40 392 40 242 C40 184 55 134 83 93 L16 26 L78 -36 L145 31 C186 3 236 -12 293 -12 C441 -12 547 92 547 242 C547 299 532 349 505 390 L570 455 Z M293 382 C319 382 342 375 361 361 L183 183 C176 200 173 220 173 242 C173 326 223 382 293 382 L293 382 Z M293 102 C268 102 246 109 227 122 L405 301 C411 283 414 263 414 242 C414 158 364 102 293 102 L293 102 Z " />
<glyph glyph-name="ugrave" unicode="&#xf9;" horiz-adv-x="567" d="M360 550 L284 702 L125 702 L233 550 L360 550 Z M364 484 L364 225 C364 152 329 117 275 117 C227 117 199 145 199 222 L199 484 L59 484 L59 183 C59 55 124 -12 220 -12 C281 -12 338 15 368 59 L371 59 L377 0 L504 0 L504 484 L364 484 Z " />
<glyph glyph-name="uacute" unicode="&#xfa;" horiz-adv-x="567" d="M437 702 L278 702 L202 550 L329 550 L437 702 Z M364 484 L364 225 C364 152 329 117 275 117 C227 117 199 145 199 222 L199 484 L59 484 L59 183 C59 55 124 -12 220 -12 C281 -12 338 15 368 59 L371 59 L377 0 L504 0 L504 484 L364 484 Z " />
<glyph glyph-name="ucircumflex" unicode="&#xfb;" horiz-adv-x="567" d="M284 623 L343 550 L469 550 L352 702 L216 702 L99 550 L225 550 L284 623 Z M364 484 L364 225 C364 152 329 117 275 117 C227 117 199 145 199 222 L199 484 L59 484 L59 183 C59 55 124 -12 220 -12 C281 -12 338 15 368 59 L371 59 L377 0 L504 0 L504 484 L364 484 Z " />
<glyph glyph-name="udieresis" unicode="&#xfc;" horiz-adv-x="567" d="M183 555 C224 555 257 585 257 630 C257 675 224 705 183 705 C142 705 108 675 108 630 C108 585 142 555 183 555 L183 555 Z M385 555 C426 555 460 585 460 630 C460 675 426 705 385 705 C344 705 311 675 311 630 C311 585 344 555 385 555 L385 555 Z M364 484 L364 225 C364 152 329 117 275 117 C227 117 199 145 199 222 L199 484 L59 484 L59 183 C59 55 124 -12 220 -12 C281 -12 338 15 368 59 L371 59 L377 0 L504 0 L504 484 L364 484 Z " />
<glyph glyph-name="yacute" unicode="&#xfd;" horiz-adv-x="526" d="M417 702 L258 702 L182 550 L309 550 L417 702 Z M369 484 L266 172 L262 172 L160 484 L8 484 L188 -5 L108 -224 L258 -224 L519 484 L369 484 Z " />
<glyph glyph-name="thorn" unicode="&#xfe;" horiz-adv-x="597" d="M344 496 C282 496 232 469 206 429 L203 429 L203 700 L63 700 L63 -224 L203 -224 L203 55 L206 55 C229 17 280 -12 344 -12 C464 -12 560 88 560 242 C560 396 464 496 344 496 L344 496 Z M308 114 C246 114 199 161 199 242 C199 323 246 370 308 370 C371 370 418 323 418 242 C418 161 371 114 308 114 L308 114 Z " />
<glyph glyph-name="ydieresis" unicode="&#xff;" horiz-adv-x="526" d="M163 555 C204 555 237 585 237 630 C237 675 204 705 163 705 C122 705 88 675 88 630 C88 585 122 555 163 555 L163 555 Z M365 555 C406 555 440 585 440 630 C440 675 406 705 365 705 C324 705 291 675 291 630 C291 585 324 555 365 555 L365 555 Z M369 484 L266 172 L262 172 L160 484 L8 484 L188 -5 L108 -224 L258 -224 L519 484 L369 484 Z " />
<glyph glyph-name="Amacron" unicode="&#x100;" horiz-adv-x="672" d="M488 893 L184 893 L184 783 L488 783 L488 893 Z M509 0 L664 0 L421 700 L251 700 L8 0 L162 0 L208 138 L464 138 L509 0 Z M249 264 L334 520 L338 520 L422 264 L249 264 Z " />
<glyph glyph-name="amacron" unicode="&#x101;" horiz-adv-x="545" d="M411 674 L125 674 L125 570 L411 570 L411 674 Z M277 496 C141 496 59 427 54 317 L192 317 C195 358 222 380 272 380 C325 380 351 356 351 302 L351 300 L217 280 C95 262 38 209 38 129 C38 46 103 -12 200 -12 C268 -12 323 16 351 60 L354 60 L360 0 L486 0 L486 295 C486 426 414 496 277 496 L277 496 Z M242 95 C202 95 180 111 180 140 C180 169 200 188 255 195 L351 209 L351 201 C351 137 307 95 242 95 L242 95 Z " />
<glyph glyph-name="Abreve" unicode="&#x102;" horiz-adv-x="672" d="M336 760 C438 760 498 819 498 910 L498 921 L388 921 C388 871 369 849 336 849 C303 849 284 871 284 921 L174 921 L174 910 C174 819 234 760 336 760 L336 760 Z M509 0 L664 0 L421 700 L251 700 L8 0 L162 0 L208 138 L464 138 L509 0 Z M249 264 L334 520 L338 520 L422 264 L249 264 Z " />
<glyph glyph-name="abreve" unicode="&#x103;" horiz-adv-x="545" d="M268 549 C364 549 421 604 421 690 L421 700 L317 700 C317 653 299 633 268 633 C237 633 219 653 219 700 L115 700 L115 690 C115 604 172 549 268 549 L268 549 Z M277 496 C141 496 59 427 54 317 L192 317 C195 358 222 380 272 380 C325 380 351 356 351 302 L351 300 L217 280 C95 262 38 209 38 129 C38 46 103 -12 200 -12 C268 -12 323 16 351 60 L354 60 L360 0 L486 0 L486 295 C486 426 414 496 277 496 L277 496 Z M242 95 C202 95 180 111 180 140 C180 169 200 188 255 195 L351 209 L351 201 C351 137 307 95 242 95 L242 95 Z " />
<glyph glyph-name="Aogonek" unicode="&#x104;" horiz-adv-x="672" d="M590 -89 C590 -65 607 -39 664 0 L421 700 L251 700 L8 0 L162 0 L208 138 L464 138 L509 0 L547 0 C496 -30 470 -74 470 -123 C470 -190 522 -233 604 -233 C625 -233 647 -229 664 -225 L664 -116 C652 -120 641 -121 632 -121 C605 -121 590 -110 590 -89 L590 -89 Z M249 264 L334 520 L338 520 L422 264 L249 264 Z " />
<glyph glyph-name="aogonek" unicode="&#x105;" horiz-adv-x="545" d="M486 0 L486 295 C486 426 414 496 277 496 C141 496 59 427 54 317 L192 317 C195 358 222 380 272 380 C325 380 351 356 351 302 L351 300 L217 280 C95 262 38 209 38 129 C38 46 103 -12 200 -12 C268 -12 323 16 351 60 L354 60 L360 0 L375 0 C327 -29 303 -70 303 -116 C303 -180 352 -220 430 -220 C449 -220 470 -218 486 -213 L486 -110 C475 -114 464 -115 456 -115 C430 -115 417 -105 417 -84 C417 -61 432 -37 486 0 L486 0 Z M242 95 C202 95 180 111 180 140 C180 169 200 188 255 195 L351 209 L351 201 C351 137 307 95 242 95 L242 95 Z " />
<glyph glyph-name="Cacute" unicode="&#x106;" horiz-adv-x="755" d="M303 762 L437 762 L552 922 L383 922 L303 762 Z M392 -12 C570 -12 709 101 721 276 L571 276 C555 180 488 125 393 125 C278 125 193 211 193 350 C193 488 278 575 393 575 C485 575 549 522 566 424 L720 424 C708 597 571 712 392 712 C188 712 40 562 40 350 C40 138 188 -12 392 -12 L392 -12 Z " />
<glyph glyph-name="cacute" unicode="&#x107;" horiz-adv-x="554" d="M204 550 L331 550 L439 702 L280 702 L204 550 Z M288 -12 C421 -12 516 67 527 197 L384 197 C377 145 337 113 287 113 C225 113 179 163 179 242 C179 321 226 370 288 370 C339 370 374 339 382 287 L525 287 C515 418 423 496 290 496 C140 496 37 393 37 242 C37 91 139 -12 288 -12 L288 -12 Z " />
<glyph glyph-name="Ccircumflex" unicode="&#x108;" horiz-adv-x="755" d="M392 839 L455 762 L587 762 L463 922 L321 922 L197 762 L329 762 L392 839 Z M571 276 C555 180 488 125 393 125 C278 125 193 211 193 350 C193 488 278 575 393 575 C485 575 549 522 566 424 L720 424 C708 597 571 712 392 712 C188 712 40 562 40 350 C40 138 188 -12 392 -12 C570 -12 709 101 721 276 L571 276 Z " />
<glyph glyph-name="ccircumflex" unicode="&#x109;" horiz-adv-x="554" d="M286 623 L345 550 L471 550 L354 702 L218 702 L101 550 L227 550 L286 623 Z M384 197 C377 145 337 113 287 113 C225 113 179 163 179 242 C179 321 226 370 288 370 C339 370 374 339 382 287 L525 287 C515 418 423 496 290 496 C140 496 37 393 37 242 C37 91 139 -12 288 -12 C421 -12 516 67 527 197 L384 197 Z " />
<glyph glyph-name="Cdotaccent" unicode="&#x10a;" horiz-adv-x="755" d="M392 762 C439 762 478 797 478 846 C478 895 439 930 392 930 C345 930 306 895 306 846 C306 797 345 762 392 762 L392 762 Z M392 -12 C570 -12 709 101 721 276 L571 276 C555 180 488 125 393 125 C278 125 193 211 193 350 C193 488 278 575 393 575 C485 575 549 522 566 424 L720 424 C708 597 571 712 392 712 C188 712 40 562 40 350 C40 138 188 -12 392 -12 L392 -12 Z " />
<glyph glyph-name="cdotaccent" unicode="&#x10b;" horiz-adv-x="554" d="M286 551 C331 551 366 584 366 630 C366 675 331 709 286 709 C241 709 206 675 206 630 C206 584 241 551 286 551 L286 551 Z M288 -12 C421 -12 516 67 527 197 L384 197 C377 145 337 113 287 113 C225 113 179 163 179 242 C179 321 226 370 288 370 C339 370 374 339 382 287 L525 287 C515 418 423 496 290 496 C140 496 37 393 37 242 C37 91 139 -12 288 -12 L288 -12 Z " />
<glyph glyph-name="Ccaron" unicode="&#x10c;" horiz-adv-x="755" d="M463 762 L587 922 L455 922 L392 845 L329 922 L197 922 L321 762 L463 762 Z M571 276 C555 180 488 125 393 125 C278 125 193 211 193 350 C193 488 278 575 393 575 C485 575 549 522 566 424 L720 424 C708 597 571 712 392 712 C188 712 40 562 40 350 C40 138 188 -12 392 -12 C570 -12 709 101 721 276 L571 276 Z " />
<glyph glyph-name="ccaron" unicode="&#x10d;" horiz-adv-x="554" d="M354 550 L471 702 L345 702 L286 629 L227 702 L101 702 L218 550 L354 550 Z M384 197 C377 145 337 113 287 113 C225 113 179 163 179 242 C179 321 226 370 288 370 C339 370 374 339 382 287 L525 287 C515 418 423 496 290 496 C140 496 37 393 37 242 C37 91 139 -12 288 -12 C421 -12 516 67 527 197 L384 197 Z " />
<glyph glyph-name="Dcaron" unicode="&#x10e;" horiz-adv-x="688" d="M379 762 L503 922 L371 922 L308 845 L245 922 L113 922 L237 762 L379 762 Z M274 700 L77 700 L77 0 L274 0 C500 0 646 132 646 350 C646 569 501 700 274 700 L274 700 Z M282 138 L225 138 L225 562 L282 562 C414 562 494 488 494 350 C494 212 414 138 282 138 L282 138 Z " />
<glyph glyph-name="dcaron" unicode="&#x10f;" horiz-adv-x="707" d="M665 712 C620 712 585 678 585 632 C585 589 618 558 663 558 L671 558 C661 527 638 499 602 467 L640 425 C710 478 749 541 750 605 C752 668 716 712 665 712 L665 712 Z M396 429 L392 429 C369 467 319 496 254 496 C134 496 38 396 38 242 C38 88 134 -12 254 -12 C318 -12 374 16 399 59 L402 59 L408 0 L536 0 L536 700 L396 700 L396 429 Z M290 114 C226 114 180 161 180 242 C180 323 226 370 290 370 C354 370 400 323 400 242 C400 161 354 114 290 114 L290 114 Z " />
<glyph glyph-name="Dcroat" unicode="&#x110;" horiz-adv-x="698" d="M285 700 L88 700 L88 405 L-6 405 L-6 295 L88 295 L88 0 L285 0 C511 0 657 132 657 350 C657 569 511 700 285 700 L285 700 Z M293 138 L235 138 L235 295 L363 295 L363 405 L235 405 L235 562 L293 562 C424 562 505 488 505 350 C505 212 424 138 293 138 L293 138 Z " />
<glyph glyph-name="dcroat" unicode="&#x111;" horiz-adv-x="598" d="M619 634 L536 634 L536 700 L396 700 L396 634 L271 634 L271 541 L396 541 L396 429 L392 429 C369 467 319 496 254 496 C134 496 38 396 38 242 C38 88 134 -12 254 -12 C318 -12 374 16 399 59 L402 59 L408 0 L536 0 L536 541 L619 541 L619 634 Z M290 114 C226 114 180 161 180 242 C180 323 226 370 290 370 C354 370 400 323 400 242 C400 161 354 114 290 114 L290 114 Z " />
<glyph glyph-name="Emacron" unicode="&#x112;" horiz-adv-x="569" d="M449 893 L145 893 L145 783 L449 783 L449 893 Z M516 564 L516 700 L77 700 L77 0 L516 0 L516 136 L225 136 L225 285 L484 285 L484 417 L225 417 L225 564 L516 564 Z " />
<glyph glyph-name="emacron" unicode="&#x113;" horiz-adv-x="562" d="M431 674 L145 674 L145 570 L431 570 L431 674 Z M527 256 C527 404 427 496 289 496 C142 496 37 391 37 239 C37 90 138 -12 290 -12 C408 -12 496 50 521 158 L388 158 C373 125 337 105 291 105 C229 105 185 139 174 208 L523 208 C526 226 527 242 527 256 L527 256 Z M289 381 C339 381 377 356 387 297 L179 297 C194 353 235 381 289 381 L289 381 Z " />
<glyph glyph-name="Ebreve" unicode="&#x114;" horiz-adv-x="569" d="M297 760 C399 760 459 819 459 910 L459 921 L349 921 C349 871 330 849 297 849 C264 849 245 871 245 921 L135 921 L135 910 C135 819 195 760 297 760 L297 760 Z M516 564 L516 700 L77 700 L77 0 L516 0 L516 136 L225 136 L225 285 L484 285 L484 417 L225 417 L225 564 L516 564 Z " />
<glyph glyph-name="ebreve" unicode="&#x115;" horiz-adv-x="562" d="M288 549 C384 549 441 604 441 690 L441 700 L337 700 C337 653 319 633 288 633 C257 633 239 653 239 700 L135 700 L135 690 C135 604 192 549 288 549 L288 549 Z M527 256 C527 404 427 496 289 496 C142 496 37 391 37 239 C37 90 138 -12 290 -12 C408 -12 496 50 521 158 L388 158 C373 125 337 105 291 105 C229 105 185 139 174 208 L523 208 C526 226 527 242 527 256 L527 256 Z M289 381 C339 381 377 356 387 297 L179 297 C194 353 235 381 289 381 L289 381 Z " />
<glyph glyph-name="Edotaccent" unicode="&#x116;" horiz-adv-x="569" d="M297 762 C344 762 383 797 383 846 C383 895 344 930 297 930 C250 930 211 895 211 846 C211 797 250 762 297 762 L297 762 Z M516 564 L516 700 L77 700 L77 0 L516 0 L516 136 L225 136 L225 285 L484 285 L484 417 L225 417 L225 564 L516 564 Z " />
<glyph glyph-name="edotaccent" unicode="&#x117;" horiz-adv-x="562" d="M288 551 C333 551 368 584 368 630 C368 675 333 709 288 709 C243 709 208 675 208 630 C208 584 243 551 288 551 L288 551 Z M527 256 C527 404 427 496 289 496 C142 496 37 391 37 239 C37 90 138 -12 290 -12 C408 -12 496 50 521 158 L388 158 C373 125 337 105 291 105 C229 105 185 139 174 208 L523 208 C526 226 527 242 527 256 L527 256 Z M289 381 C339 381 377 356 387 297 L179 297 C194 353 235 381 289 381 L289 381 Z " />
<glyph glyph-name="Eogonek" unicode="&#x118;" horiz-adv-x="569" d="M516 564 L516 700 L77 700 L77 0 L399 0 C348 -30 322 -74 322 -123 C322 -190 374 -233 456 -233 C477 -233 499 -229 516 -225 L516 -116 C504 -120 493 -121 484 -121 C457 -121 442 -110 442 -89 C442 -65 459 -39 516 0 L516 136 L225 136 L225 285 L484 285 L484 417 L225 417 L225 564 L516 564 Z " />
<glyph glyph-name="eogonek" unicode="&#x119;" horiz-adv-x="562" d="M527 256 C527 404 427 496 289 496 C142 496 37 391 37 239 C37 103 122 6 252 -10 C217 -37 199 -74 199 -113 C199 -177 248 -217 326 -217 C345 -217 366 -215 382 -210 L382 -107 C371 -111 360 -112 352 -112 C326 -112 313 -102 313 -81 C313 -58 328 -34 380 2 C452 26 503 80 521 158 L388 158 C373 125 337 105 291 105 C229 105 185 139 174 208 L523 208 C526 226 527 242 527 256 L527 256 Z M289 381 C339 381 377 356 387 297 L179 297 C194 353 235 381 289 381 L289 381 Z " />
<glyph glyph-name="Ecaron" unicode="&#x11a;" horiz-adv-x="569" d="M368 762 L492 922 L360 922 L297 845 L234 922 L102 922 L226 762 L368 762 Z M516 564 L516 700 L77 700 L77 0 L516 0 L516 136 L225 136 L225 285 L484 285 L484 417 L225 417 L225 564 L516 564 Z " />
<glyph glyph-name="ecaron" unicode="&#x11b;" horiz-adv-x="562" d="M356 550 L473 702 L347 702 L288 629 L229 702 L103 702 L220 550 L356 550 Z M527 256 C527 404 427 496 289 496 C142 496 37 391 37 239 C37 90 138 -12 290 -12 C408 -12 496 50 521 158 L388 158 C373 125 337 105 291 105 C229 105 185 139 174 208 L523 208 C526 226 527 242 527 256 L527 256 Z M289 381 C339 381 377 356 387 297 L179 297 C194 353 235 381 289 381 L289 381 Z " />
<glyph glyph-name="Gcircumflex" unicode="&#x11c;" horiz-adv-x="773" d="M398 839 L461 762 L593 762 L469 922 L327 922 L203 762 L335 762 L398 839 Z M408 264 L583 264 C564 178 494 124 399 124 C279 124 193 209 193 349 C193 488 277 576 399 576 C485 576 547 531 562 458 L719 458 C703 609 574 712 399 712 C190 712 40 565 40 348 C40 133 189 -12 381 -12 C471 -12 548 20 596 83 L600 83 L608 0 L719 0 L719 387 L408 387 L408 264 Z " />
<glyph glyph-name="gcircumflex" unicode="&#x11d;" horiz-adv-x="501" d="M259 623 L318 550 L444 550 L327 702 L191 702 L74 550 L200 550 L259 623 Z M494 496 L250 496 C131 496 55 424 55 321 C55 274 72 233 101 203 C57 184 30 146 30 97 C30 61 45 32 72 11 C33 -10 13 -44 13 -90 C13 -179 89 -236 246 -236 C416 -236 494 -170 494 -59 C494 38 436 90 326 90 L197 90 C168 90 153 102 153 122 C153 139 164 153 183 157 C204 151 226 148 250 148 C370 148 446 220 446 321 C446 355 438 386 422 412 L494 424 L494 496 Z M250 250 C206 250 177 279 177 323 C177 366 206 395 250 395 C295 395 324 366 324 323 C324 279 295 250 250 250 L250 250 Z M303 -23 C346 -23 365 -40 365 -69 C365 -106 333 -128 252 -128 C174 -128 142 -108 142 -72 C142 -44 163 -23 190 -23 L303 -23 Z " />
<glyph glyph-name="Gbreve" unicode="&#x11e;" horiz-adv-x="773" d="M398 760 C500 760 560 819 560 910 L560 921 L450 921 C450 871 431 849 398 849 C365 849 346 871 346 921 L236 921 L236 910 C236 819 296 760 398 760 L398 760 Z M408 264 L583 264 C564 178 494 124 399 124 C279 124 193 209 193 349 C193 488 277 576 399 576 C485 576 547 531 562 458 L719 458 C703 609 574 712 399 712 C190 712 40 565 40 348 C40 133 189 -12 381 -12 C471 -12 548 20 596 83 L600 83 L608 0 L719 0 L719 387 L408 387 L408 264 Z " />
<glyph glyph-name="gbreve" unicode="&#x11f;" horiz-adv-x="501" d="M259 549 C355 549 412 604 412 690 L412 700 L308 700 C308 653 290 633 259 633 C228 633 210 653 210 700 L106 700 L106 690 C106 604 163 549 259 549 L259 549 Z M494 496 L250 496 C131 496 55 424 55 321 C55 274 72 233 101 203 C57 184 30 146 30 97 C30 61 45 32 72 11 C33 -10 13 -44 13 -90 C13 -179 89 -236 246 -236 C416 -236 494 -170 494 -59 C494 38 436 90 326 90 L197 90 C168 90 153 102 153 122 C153 139 164 153 183 157 C204 151 226 148 250 148 C370 148 446 220 446 321 C446 355 438 386 422 412 L494 424 L494 496 Z M250 250 C206 250 177 279 177 323 C177 366 206 395 250 395 C295 395 324 366 324 323 C324 279 295 250 250 250 L250 250 Z M303 -23 C346 -23 365 -40 365 -69 C365 -106 333 -128 252 -128 C174 -128 142 -108 142 -72 C142 -44 163 -23 190 -23 L303 -23 Z " />
<glyph glyph-name="Gdotaccent" unicode="&#x120;" horiz-adv-x="773" d="M398 762 C445 762 484 797 484 846 C484 895 445 930 398 930 C351 930 312 895 312 846 C312 797 351 762 398 762 L398 762 Z M408 264 L583 264 C564 178 494 124 399 124 C279 124 193 209 193 349 C193 488 277 576 399 576 C485 576 547 531 562 458 L719 458 C703 609 574 712 399 712 C190 712 40 565 40 348 C40 133 189 -12 381 -12 C471 -12 548 20 596 83 L600 83 L608 0 L719 0 L719 387 L408 387 L408 264 Z " />
<glyph glyph-name="gdotaccent" unicode="&#x121;" horiz-adv-x="501" d="M259 551 C304 551 339 584 339 630 C339 675 304 709 259 709 C214 709 179 675 179 630 C179 584 214 551 259 551 L259 551 Z M494 496 L250 496 C131 496 55 424 55 321 C55 274 72 233 101 203 C57 184 30 146 30 97 C30 61 45 32 72 11 C33 -10 13 -44 13 -90 C13 -179 89 -236 246 -236 C416 -236 494 -170 494 -59 C494 38 436 90 326 90 L197 90 C168 90 153 102 153 122 C153 139 164 153 183 157 C204 151 226 148 250 148 C370 148 446 220 446 321 C446 355 438 386 422 412 L494 424 L494 496 Z M250 250 C206 250 177 279 177 323 C177 366 206 395 250 395 C295 395 324 366 324 323 C324 279 295 250 250 250 L250 250 Z M303 -23 C346 -23 365 -40 365 -69 C365 -106 333 -128 252 -128 C174 -128 142 -108 142 -72 C142 -44 163 -23 190 -23 L303 -23 Z " />
<glyph glyph-name="uni0122" unicode="&#x122;" horiz-adv-x="773" d="M408 264 L583 264 C564 178 494 124 399 124 C279 124 193 209 193 349 C193 488 277 576 399 576 C485 576 547 531 562 458 L719 458 C703 609 574 712 399 712 C190 712 40 565 40 348 C40 133 189 -12 381 -12 C471 -12 548 20 596 83 L600 83 L608 0 L719 0 L719 387 L408 387 L408 264 Z M396 -66 C347 -66 313 -101 313 -143 C313 -185 345 -219 394 -219 L402 -219 C397 -239 388 -259 376 -277 L452 -277 C474 -243 485 -207 486 -174 C487 -108 450 -66 396 -66 L396 -66 Z " />
<glyph glyph-name="uni0123" unicode="&#x123;" horiz-adv-x="501" d="M262 551 C311 551 345 586 345 628 C345 670 313 704 264 704 L255 704 C261 724 270 744 282 762 L206 762 C184 728 173 692 172 659 C171 593 208 551 262 551 L262 551 Z M494 496 L250 496 C131 496 55 424 55 321 C55 274 72 233 101 203 C57 184 30 146 30 97 C30 61 45 32 72 11 C33 -10 13 -44 13 -90 C13 -179 89 -236 246 -236 C416 -236 494 -170 494 -59 C494 38 436 90 326 90 L197 90 C168 90 153 102 153 122 C153 139 164 153 183 157 C204 151 226 148 250 148 C370 148 446 220 446 321 C446 355 438 386 422 412 L494 424 L494 496 Z M250 250 C206 250 177 279 177 323 C177 366 206 395 250 395 C295 395 324 366 324 323 C324 279 295 250 250 250 L250 250 Z M303 -23 C346 -23 365 -40 365 -69 C365 -106 333 -128 252 -128 C174 -128 142 -108 142 -72 C142 -44 163 -23 190 -23 L303 -23 Z " />
<glyph glyph-name="Hcircumflex" unicode="&#x124;" horiz-adv-x="709" d="M354 839 L417 762 L549 762 L425 922 L283 922 L159 762 L291 762 L354 839 Z M484 700 L484 411 L225 411 L225 700 L77 700 L77 0 L225 0 L225 274 L484 274 L484 0 L632 0 L632 700 L484 700 Z " />
<glyph glyph-name="hcircumflex" unicode="&#x125;" horiz-adv-x="572" d="M133 839 L196 762 L328 762 L204 922 L62 922 L-62 762 L70 762 L133 839 Z M350 496 C289 496 239 471 206 429 L203 429 L203 700 L63 700 L63 0 L203 0 L203 259 C203 332 239 367 294 367 C345 367 373 338 373 262 L373 0 L513 0 L513 301 C513 427 451 496 350 496 L350 496 Z " />
<glyph glyph-name="Hbar" unicode="&#x126;" horiz-adv-x="739" d="M731 594 L647 594 L647 700 L499 700 L499 594 L240 594 L240 700 L92 700 L92 594 L7 594 L7 493 L92 493 L92 0 L240 0 L240 274 L499 274 L499 0 L647 0 L647 493 L731 493 L731 594 Z M499 411 L240 411 L240 493 L499 493 L499 411 Z " />
<glyph glyph-name="hbar" unicode="&#x127;" horiz-adv-x="572" d="M350 496 C289 496 239 471 206 429 L203 429 L203 541 L328 541 L328 634 L203 634 L203 700 L63 700 L63 634 L-20 634 L-20 541 L63 541 L63 0 L203 0 L203 259 C203 332 239 367 294 367 C345 367 373 338 373 262 L373 0 L513 0 L513 301 C513 427 451 496 350 496 L350 496 Z " />
<glyph glyph-name="Itilde" unicode="&#x128;" horiz-adv-x="302" d="M227 758 C291 758 328 814 328 922 L232 922 C232 878 221 862 206 862 C197 862 186 867 163 886 C129 916 103 926 76 926 C12 926 -26 871 -26 763 L71 763 C71 807 82 822 96 822 C106 822 117 817 139 798 C174 768 200 758 227 758 L227 758 Z M77 0 L225 0 L225 700 L77 700 L77 0 Z " />
<glyph glyph-name="itilde" unicode="&#x129;" horiz-adv-x="266" d="M202 547 C259 547 293 600 290 701 L205 701 C205 660 195 645 182 645 C174 645 165 650 145 668 C112 696 89 705 63 705 C7 705 -27 653 -25 551 L60 551 C60 593 70 607 83 607 C92 607 101 602 121 584 C154 556 176 547 202 547 L202 547 Z M63 0 L203 0 L203 484 L63 484 L63 0 Z " />
<glyph glyph-name="Imacron" unicode="&#x12a;" horiz-adv-x="302" d="M-1 783 L303 783 L303 893 L-1 893 L-1 783 Z M77 0 L225 0 L225 700 L77 700 L77 0 Z " />
<glyph glyph-name="imacron" unicode="&#x12b;" horiz-adv-x="266" d="M0 570 L266 570 L266 674 L0 674 L0 570 Z M63 0 L203 0 L203 484 L63 484 L63 0 Z " />
<glyph glyph-name="Ibreve" unicode="&#x12c;" horiz-adv-x="302" d="M151 760 C253 760 313 819 313 910 L313 921 L203 921 C203 871 184 849 151 849 C118 849 99 871 99 921 L-11 921 L-11 910 C-11 819 49 760 151 760 L151 760 Z M77 0 L225 0 L225 700 L77 700 L77 0 Z " />
<glyph glyph-name="ibreve" unicode="&#x12d;" horiz-adv-x="266" d="M133 549 C226 549 274 604 274 690 L274 700 L178 700 C178 653 160 633 133 633 C106 633 87 653 87 700 L-8 700 L-8 690 C-8 604 40 549 133 549 L133 549 Z M63 0 L203 0 L203 484 L63 484 L63 0 Z " />
<glyph glyph-name="Iogonek" unicode="&#x12e;" horiz-adv-x="302" d="M225 0 L225 700 L77 700 L77 0 L124 0 C77 -28 51 -71 51 -118 C51 -181 98 -220 171 -220 C190 -220 208 -218 225 -213 L225 -110 C215 -113 206 -115 197 -115 C176 -115 164 -105 164 -84 C164 -63 177 -39 225 0 L225 0 Z " />
<glyph glyph-name="iogonek" unicode="&#x12f;" horiz-adv-x="266" d="M133 551 C178 551 213 584 213 630 C213 675 178 709 133 709 C88 709 53 675 53 630 C53 584 88 551 133 551 L133 551 Z M63 0 L102 0 C55 -28 29 -71 29 -118 C29 -181 76 -220 149 -220 C168 -220 186 -218 203 -213 L203 -110 C193 -113 184 -115 175 -115 C154 -115 142 -105 142 -84 C142 -63 155 -39 203 0 L203 484 L63 484 L63 0 Z " />
<glyph glyph-name="Idotaccent" unicode="&#x130;" horiz-adv-x="302" d="M151 762 C198 762 237 797 237 846 C237 895 198 930 151 930 C104 930 65 895 65 846 C65 797 104 762 151 762 L151 762 Z M77 0 L225 0 L225 700 L77 700 L77 0 Z " />
<glyph glyph-name="dotlessi" unicode="&#x131;" horiz-adv-x="266" d="M63 0 L203 0 L203 484 L63 484 L63 0 Z " />
<glyph glyph-name="Jcircumflex" unicode="&#x134;" horiz-adv-x="603" d="M324 839 L387 762 L519 762 L395 922 L253 922 L129 762 L261 762 L324 839 Z M116 700 L116 562 L388 562 L388 249 C388 164 351 125 287 125 C223 125 185 164 185 249 L185 334 L37 334 L37 245 C37 70 128 -12 288 -12 C446 -12 536 73 536 243 L536 700 L116 700 Z " />
<glyph glyph-name="jcircumflex" unicode="&#x135;" horiz-adv-x="266" d="M133 617 L181 550 L298 550 L191 702 L74 702 L-33 550 L85 550 L133 617 Z M63 -44 C63 -94 45 -111 2 -111 C-8 -111 -18 -110 -26 -109 L-26 -230 C-11 -233 10 -236 36 -236 C152 -236 203 -185 203 -57 L203 484 L63 484 L63 -44 Z " />
<glyph glyph-name="uni0136" unicode="&#x136;" horiz-adv-x="661" d="M369 354 L651 700 L477 700 L228 395 L225 395 L225 700 L77 700 L77 0 L225 0 L225 302 L228 302 L472 0 L656 0 L369 354 Z M342 -66 C293 -66 259 -101 259 -143 C259 -185 291 -219 340 -219 L348 -219 C343 -239 334 -259 322 -277 L398 -277 C420 -243 431 -207 432 -174 C433 -108 396 -66 342 -66 L342 -66 Z " />
<glyph glyph-name="uni0137" unicode="&#x137;" horiz-adv-x="546" d="M334 255 L536 484 L367 484 L207 300 L203 300 L203 700 L63 700 L63 0 L203 0 L203 203 L206 203 L371 0 L543 0 L334 255 Z M279 -67 C230 -67 196 -102 196 -144 C196 -186 228 -220 277 -220 L286 -220 C280 -240 271 -260 259 -278 L335 -278 C357 -244 368 -208 369 -175 C370 -109 333 -67 279 -67 L279 -67 Z " />
<glyph glyph-name="Lacute" unicode="&#x139;" horiz-adv-x="531" d="M311 922 L142 922 L62 762 L196 762 L311 922 Z M225 138 L225 700 L77 700 L77 0 L503 0 L503 138 L225 138 Z " />
<glyph glyph-name="lacute" unicode="&#x13a;" horiz-adv-x="266" d="M44 762 L178 762 L293 922 L124 922 L44 762 Z M63 0 L203 0 L203 700 L63 700 L63 0 Z " />
<glyph glyph-name="uni013B" unicode="&#x13b;" horiz-adv-x="531" d="M225 138 L225 700 L77 700 L77 0 L503 0 L503 138 L225 138 Z M296 -66 C247 -66 213 -101 213 -143 C213 -185 245 -219 294 -219 L302 -219 C297 -239 288 -259 276 -277 L352 -277 C374 -243 385 -207 386 -174 C387 -108 350 -66 296 -66 L296 -66 Z " />
<glyph glyph-name="uni013C" unicode="&#x13c;" horiz-adv-x="266" d="M203 700 L63 700 L63 0 L203 0 L203 700 Z M130 -67 C81 -67 47 -102 47 -144 C47 -186 79 -220 128 -220 L137 -220 C131 -240 122 -260 110 -278 L186 -278 C208 -244 219 -208 220 -175 C221 -109 184 -67 130 -67 L130 -67 Z " />
<glyph glyph-name="Lcaron" unicode="&#x13d;" horiz-adv-x="531" d="M369 558 L378 558 C368 527 345 499 309 467 L347 425 C417 478 456 541 457 605 C458 668 423 712 372 712 C326 712 292 678 292 632 C292 589 324 558 369 558 L369 558 Z M225 138 L225 700 L77 700 L77 0 L503 0 L503 138 L225 138 Z " />
<glyph glyph-name="lcaron" unicode="&#x13e;" horiz-adv-x="374" d="M332 712 C287 712 252 678 252 632 C252 589 285 558 330 558 L338 558 C328 527 305 499 269 467 L307 425 C377 478 416 541 418 605 C419 668 383 712 332 712 L332 712 Z M63 0 L203 0 L203 700 L63 700 L63 0 Z " />
<glyph glyph-name="Ldot" unicode="&#x13f;" horiz-adv-x="551" d="M225 138 L225 700 L77 700 L77 0 L503 0 L503 138 L225 138 Z M389 231 C440 231 476 268 476 318 C476 369 440 406 389 406 C339 406 302 369 302 318 C302 268 339 231 389 231 L389 231 Z " />
<glyph glyph-name="ldot" unicode="&#x140;" horiz-adv-x="473" d="M63 0 L203 0 L203 700 L63 700 L63 0 Z M364 179 C419 179 458 218 458 272 C458 327 419 366 364 366 C310 366 271 327 271 272 C271 218 310 179 364 179 L364 179 Z " />
<glyph glyph-name="Lslash" unicode="&#x141;" horiz-adv-x="558" d="M252 138 L252 324 L415 442 L415 568 L252 450 L252 700 L104 700 L104 344 L-2 267 L-2 141 L104 218 L104 0 L530 0 L530 138 L252 138 Z " />
<glyph glyph-name="lslash" unicode="&#x142;" horiz-adv-x="361" d="M346 513 L251 444 L251 700 L111 700 L111 343 L15 274 L15 148 L111 217 L111 0 L251 0 L251 318 L346 387 L346 513 Z " />
<glyph glyph-name="Nacute" unicode="&#x143;" horiz-adv-x="744" d="M532 922 L363 922 L283 762 L417 762 L532 922 Z M519 700 L519 256 L515 256 L227 700 L77 700 L77 0 L225 0 L225 444 L228 444 L517 0 L667 0 L667 700 L519 700 Z " />
<glyph glyph-name="nacute" unicode="&#x144;" horiz-adv-x="572" d="M441 702 L282 702 L206 550 L333 550 L441 702 Z M349 496 C286 496 229 469 200 425 L196 425 L191 484 L63 484 L63 0 L203 0 L203 259 C203 332 239 367 294 367 C345 367 373 338 373 262 L373 0 L513 0 L513 301 C513 428 449 496 349 496 L349 496 Z " />
<glyph glyph-name="uni0145" unicode="&#x145;" horiz-adv-x="744" d="M519 700 L519 256 L515 256 L227 700 L77 700 L77 0 L225 0 L225 444 L228 444 L517 0 L667 0 L667 700 L519 700 Z M369 -66 C320 -66 286 -101 286 -143 C286 -185 318 -219 367 -219 L375 -219 C370 -239 361 -259 349 -277 L425 -277 C447 -243 458 -207 459 -174 C460 -108 423 -66 369 -66 L369 -66 Z " />
<glyph glyph-name="uni0146" unicode="&#x146;" horiz-adv-x="572" d="M349 496 C286 496 229 469 200 425 L196 425 L191 484 L63 484 L63 0 L203 0 L203 259 C203 332 239 367 294 367 C345 367 373 338 373 262 L373 0 L513 0 L513 301 C513 428 449 496 349 496 L349 496 Z M283 -67 C234 -67 200 -102 200 -144 C200 -186 232 -220 281 -220 L290 -220 C284 -240 275 -260 263 -278 L339 -278 C361 -244 372 -208 373 -175 C374 -109 337 -67 283 -67 L283 -67 Z " />
<glyph glyph-name="Ncaron" unicode="&#x147;" horiz-adv-x="744" d="M443 762 L567 922 L435 922 L372 845 L309 922 L177 922 L301 762 L443 762 Z M519 700 L519 256 L515 256 L227 700 L77 700 L77 0 L225 0 L225 444 L228 444 L517 0 L667 0 L667 700 L519 700 Z " />
<glyph glyph-name="ncaron" unicode="&#x148;" horiz-adv-x="572" d="M356 550 L473 702 L347 702 L288 629 L229 702 L103 702 L220 550 L356 550 Z M349 496 C286 496 229 469 200 425 L196 425 L191 484 L63 484 L63 0 L203 0 L203 259 C203 332 239 367 294 367 C345 367 373 338 373 262 L373 0 L513 0 L513 301 C513 428 449 496 349 496 L349 496 Z " />
<glyph glyph-name="Eng" unicode="&#x14a;" horiz-adv-x="744" d="M519 700 L519 256 L515 256 L227 700 L77 700 L77 0 L225 0 L225 444 L228 444 L517 0 L517 -13 C517 -46 501 -61 467 -61 C456 -61 446 -60 438 -59 L438 -186 C453 -190 474 -193 500 -193 C616 -193 667 -141 667 -11 L667 700 L519 700 Z " />
<glyph glyph-name="eng" unicode="&#x14b;" horiz-adv-x="572" d="M349 496 C286 496 229 469 200 425 L196 425 L191 484 L63 484 L63 0 L203 0 L203 259 C203 332 239 367 294 367 C345 367 373 338 373 262 L373 13 C373 -36 355 -53 313 -53 C302 -53 292 -52 284 -51 L284 -172 C300 -176 320 -179 346 -179 C462 -179 513 -128 513 1 L513 301 C513 428 449 496 349 496 L349 496 Z " />
<glyph glyph-name="Omacron" unicode="&#x14c;" horiz-adv-x="786" d="M241 783 L545 783 L545 893 L241 893 L241 783 Z M393 -12 C598 -12 746 138 746 350 C746 562 598 712 393 712 C188 712 40 562 40 350 C40 138 188 -12 393 -12 L393 -12 Z M393 125 C275 125 193 214 193 350 C193 486 275 575 393 575 C511 575 593 486 593 350 C593 214 511 125 393 125 L393 125 Z " />
<glyph glyph-name="omacron" unicode="&#x14d;" horiz-adv-x="580" d="M147 570 L433 570 L433 674 L147 674 L147 570 Z M290 -12 C438 -12 543 92 543 242 C543 392 438 496 290 496 C142 496 37 392 37 242 C37 92 142 -12 290 -12 L290 -12 Z M290 113 C225 113 179 162 179 242 C179 322 225 370 290 370 C355 370 401 322 401 242 C401 162 355 113 290 113 L290 113 Z " />
<glyph glyph-name="Obreve" unicode="&#x14e;" horiz-adv-x="786" d="M393 760 C495 760 555 819 555 910 L555 921 L445 921 C445 871 426 849 393 849 C360 849 341 871 341 921 L231 921 L231 910 C231 819 291 760 393 760 L393 760 Z M393 -12 C598 -12 746 138 746 350 C746 562 598 712 393 712 C188 712 40 562 40 350 C40 138 188 -12 393 -12 L393 -12 Z M393 125 C275 125 193 214 193 350 C193 486 275 575 393 575 C511 575 593 486 593 350 C593 214 511 125 393 125 L393 125 Z " />
<glyph glyph-name="obreve" unicode="&#x14f;" horiz-adv-x="580" d="M290 549 C386 549 443 604 443 690 L443 700 L339 700 C339 653 321 633 290 633 C259 633 241 653 241 700 L137 700 L137 690 C137 604 194 549 290 549 L290 549 Z M290 -12 C438 -12 543 92 543 242 C543 392 438 496 290 496 C142 496 37 392 37 242 C37 92 142 -12 290 -12 L290 -12 Z M290 113 C225 113 179 162 179 242 C179 322 225 370 290 370 C355 370 401 322 401 242 C401 162 355 113 290 113 L290 113 Z " />
<glyph glyph-name="Ohungarumlaut" unicode="&#x150;" horiz-adv-x="786" d="M207 762 L324 762 L419 922 L277 922 L207 762 Z M407 762 L525 762 L619 922 L478 922 L407 762 Z M393 -12 C598 -12 746 138 746 350 C746 562 598 712 393 712 C188 712 40 562 40 350 C40 138 188 -12 393 -12 L393 -12 Z M393 125 C275 125 193 214 193 350 C193 486 275 575 393 575 C511 575 593 486 593 350 C593 214 511 125 393 125 L393 125 Z " />
<glyph glyph-name="ohungarumlaut" unicode="&#x151;" horiz-adv-x="580" d="M115 550 L226 550 L315 702 L182 702 L115 550 Z M304 550 L415 550 L505 702 L371 702 L304 550 Z M290 -12 C438 -12 543 92 543 242 C543 392 438 496 290 496 C142 496 37 392 37 242 C37 92 142 -12 290 -12 L290 -12 Z M290 113 C225 113 179 162 179 242 C179 322 225 370 290 370 C355 370 401 322 401 242 C401 162 355 113 290 113 L290 113 Z " />
<glyph glyph-name="OE" unicode="&#x152;" horiz-adv-x="955" d="M902 564 L902 700 L413 700 C187 700 41 569 41 350 C41 132 188 0 413 0 L902 0 L902 136 L611 136 L611 285 L870 285 L870 417 L611 417 L611 564 L902 564 Z M406 138 C275 138 194 214 194 350 C194 486 275 562 406 562 L463 562 L463 138 L406 138 Z " />
<glyph glyph-name="oe" unicode="&#x153;" horiz-adv-x="926" d="M892 256 C892 404 792 496 654 496 C580 496 517 469 475 418 L471 418 C428 469 365 496 290 496 C142 496 37 392 37 242 C37 92 142 -12 290 -12 C364 -12 426 15 469 64 L473 64 C515 15 578 -12 654 -12 C773 -12 860 50 886 158 L753 158 C738 125 703 105 655 105 C595 105 551 139 540 208 L888 208 C891 226 892 242 892 256 L892 256 Z M654 381 C703 381 741 357 752 299 L545 299 C561 354 602 381 654 381 L654 381 Z M290 113 C225 113 179 164 179 242 C179 320 225 370 290 370 C355 370 401 320 401 242 C401 164 355 113 290 113 L290 113 Z " />
<glyph glyph-name="Racute" unicode="&#x154;" horiz-adv-x="650" d="M460 922 L291 922 L211 762 L345 762 L460 922 Z M433 0 L606 0 L447 234 C545 270 600 349 600 456 C600 605 493 700 308 700 L77 700 L77 0 L225 0 L225 212 L294 212 L433 0 Z M225 563 L315 563 C400 563 448 524 448 456 C448 387 400 348 315 348 L225 348 L225 563 Z " />
<glyph glyph-name="racute" unicode="&#x155;" horiz-adv-x="397" d="M367 702 L208 702 L132 550 L259 550 L367 702 Z M332 493 C274 493 224 463 201 411 L197 411 L190 484 L63 484 L63 0 L203 0 L203 217 C203 312 246 357 334 357 C347 357 361 356 376 354 L376 486 C364 491 348 493 332 493 L332 493 Z " />
<glyph glyph-name="uni0156" unicode="&#x156;" horiz-adv-x="650" d="M447 234 C545 270 600 349 600 456 C600 605 493 700 308 700 L77 700 L77 0 L225 0 L225 212 L294 212 L433 0 L606 0 L447 234 Z M225 563 L315 563 C400 563 448 524 448 456 C448 387 400 348 315 348 L225 348 L225 563 Z M323 -66 C274 -66 240 -101 240 -143 C240 -185 272 -219 321 -219 L329 -219 C324 -239 315 -259 303 -277 L379 -277 C401 -243 412 -207 413 -174 C414 -108 377 -66 323 -66 L323 -66 Z " />
<glyph glyph-name="uni0157" unicode="&#x157;" horiz-adv-x="397" d="M332 493 C274 493 224 463 201 411 L197 411 L190 484 L63 484 L63 0 L203 0 L203 217 C203 312 246 357 334 357 C347 357 361 356 376 354 L376 486 C364 491 348 493 332 493 L332 493 Z M130 -67 C81 -67 47 -102 47 -144 C47 -186 79 -220 128 -220 L137 -220 C131 -240 122 -260 110 -278 L186 -278 C208 -244 219 -208 220 -175 C221 -109 184 -67 130 -67 L130 -67 Z " />
<glyph glyph-name="Rcaron" unicode="&#x158;" horiz-adv-x="650" d="M371 762 L495 922 L363 922 L300 845 L237 922 L105 922 L229 762 L371 762 Z M433 0 L606 0 L447 234 C545 270 600 349 600 456 C600 605 493 700 308 700 L77 700 L77 0 L225 0 L225 212 L294 212 L433 0 Z M225 563 L315 563 C400 563 448 524 448 456 C448 387 400 348 315 348 L225 348 L225 563 Z " />
<glyph glyph-name="rcaron" unicode="&#x159;" horiz-adv-x="397" d="M272 550 L379 702 L262 702 L214 635 L166 702 L48 702 L155 550 L272 550 Z M201 411 L197 411 L190 484 L63 484 L63 0 L203 0 L203 217 C203 312 246 357 334 357 C347 357 361 356 376 354 L376 486 C364 491 348 493 332 493 C274 493 224 463 201 411 L201 411 Z " />
<glyph glyph-name="Sacute" unicode="&#x15a;" horiz-adv-x="589" d="M203 762 L337 762 L452 922 L283 922 L203 762 Z M295 -12 C456 -12 559 82 559 217 C559 317 503 380 369 409 L298 424 C212 443 186 464 186 502 C186 548 224 580 290 580 C356 580 396 548 402 487 L550 487 C547 624 450 712 294 712 C138 712 38 623 38 497 C38 396 101 330 230 302 L302 287 C385 270 411 244 411 204 C411 154 370 120 303 120 C232 120 187 157 182 227 L35 227 C36 78 137 -12 295 -12 L295 -12 Z " />
<glyph glyph-name="sacute" unicode="&#x15b;" horiz-adv-x="469" d="M153 550 L280 550 L388 702 L229 702 L153 550 Z M238 -12 C367 -12 442 58 442 153 C442 226 400 274 296 294 L237 306 C181 316 168 329 168 347 C168 371 191 389 230 389 C274 389 298 369 300 340 L434 340 C428 441 356 496 237 496 C108 496 34 429 34 339 C34 264 82 217 182 198 L241 186 C292 176 308 161 308 141 C308 115 284 96 243 96 C198 96 169 118 167 155 L33 155 C36 53 113 -12 238 -12 L238 -12 Z " />
<glyph glyph-name="Scircumflex" unicode="&#x15c;" horiz-adv-x="589" d="M292 839 L355 762 L487 762 L363 922 L221 922 L97 762 L229 762 L292 839 Z M369 409 L298 424 C212 443 186 464 186 502 C186 548 224 580 290 580 C356 580 396 548 402 487 L550 487 C547 624 450 712 294 712 C138 712 38 623 38 497 C38 396 101 330 230 302 L302 287 C385 270 411 244 411 204 C411 154 370 120 303 120 C232 120 187 157 182 227 L35 227 C36 78 137 -12 295 -12 C456 -12 559 82 559 217 C559 317 503 380 369 409 L369 409 Z " />
<glyph glyph-name="scircumflex" unicode="&#x15d;" horiz-adv-x="469" d="M235 623 L294 550 L420 550 L303 702 L167 702 L50 550 L176 550 L235 623 Z M296 294 L237 306 C181 316 168 329 168 347 C168 371 191 389 230 389 C274 389 298 369 300 340 L434 340 C428 441 356 496 237 496 C108 496 34 429 34 339 C34 264 82 217 182 198 L241 186 C292 176 308 161 308 141 C308 115 284 96 243 96 C198 96 169 118 167 155 L33 155 C36 53 113 -12 238 -12 C367 -12 442 58 442 153 C442 226 400 274 296 294 L296 294 Z " />
<glyph glyph-name="Scedilla" unicode="&#x15e;" horiz-adv-x="589" d="M559 217 C559 317 503 380 369 409 L298 424 C212 443 186 464 186 502 C186 548 224 580 290 580 C356 580 396 548 402 487 L550 487 C547 624 450 712 294 712 C138 712 38 623 38 497 C38 396 101 330 230 302 L302 287 C385 270 411 244 411 204 C411 154 370 120 303 120 C232 120 187 157 182 227 L35 227 C36 94 116 8 246 -9 L237 -104 C299 -104 311 -113 311 -127 C311 -142 299 -151 265 -151 C255 -151 243 -151 230 -149 L230 -228 C247 -232 265 -234 283 -234 C371 -234 421 -194 421 -134 C421 -86 389 -54 333 -45 L334 -10 C472 4 559 93 559 217 L559 217 Z " />
<glyph glyph-name="scedilla" unicode="&#x15f;" horiz-adv-x="469" d="M442 153 C442 226 400 274 296 294 L237 306 C181 316 168 329 168 347 C168 371 191 389 230 389 C274 389 298 369 300 340 L434 340 C428 441 356 496 237 496 C108 496 34 429 34 339 C34 264 82 217 182 198 L241 186 C292 176 308 161 308 141 C308 115 284 96 243 96 C198 96 169 118 167 155 L33 155 C36 69 91 9 183 -7 L174 -104 C236 -104 248 -113 248 -127 C248 -142 237 -151 202 -151 C192 -151 180 -151 167 -149 L167 -228 C184 -232 202 -234 220 -234 C309 -234 358 -194 358 -134 C358 -86 327 -54 271 -45 L271 -10 C380 1 442 66 442 153 L442 153 Z " />
<glyph glyph-name="Scaron" unicode="&#x160;" horiz-adv-x="589" d="M363 762 L487 922 L355 922 L292 845 L229 922 L97 922 L221 762 L363 762 Z M369 409 L298 424 C212 443 186 464 186 502 C186 548 224 580 290 580 C356 580 396 548 402 487 L550 487 C547 624 450 712 294 712 C138 712 38 623 38 497 C38 396 101 330 230 302 L302 287 C385 270 411 244 411 204 C411 154 370 120 303 120 C232 120 187 157 182 227 L35 227 C36 78 137 -12 295 -12 C456 -12 559 82 559 217 C559 317 503 380 369 409 L369 409 Z " />
<glyph glyph-name="scaron" unicode="&#x161;" horiz-adv-x="469" d="M303 550 L420 702 L294 702 L235 629 L176 702 L50 702 L167 550 L303 550 Z M296 294 L237 306 C181 316 168 329 168 347 C168 371 191 389 230 389 C274 389 298 369 300 340 L434 340 C428 441 356 496 237 496 C108 496 34 429 34 339 C34 264 82 217 182 198 L241 186 C292 176 308 161 308 141 C308 115 284 96 243 96 C198 96 169 118 167 155 L33 155 C36 53 113 -12 238 -12 C367 -12 442 58 442 153 C442 226 400 274 296 294 L296 294 Z " />
<glyph glyph-name="uni0162" unicode="&#x162;" horiz-adv-x="567" d="M18 700 L18 562 L209 562 L209 0 L357 0 L357 562 L549 562 L549 700 L18 700 Z M280 -66 C231 -66 197 -101 197 -143 C197 -185 229 -219 278 -219 L286 -219 C281 -239 272 -259 260 -277 L336 -277 C358 -243 369 -207 370 -174 C371 -108 334 -66 280 -66 L280 -66 Z " />
<glyph glyph-name="uni0163" unicode="&#x163;" horiz-adv-x="385" d="M311 112 C251 112 230 131 230 190 L230 361 L351 361 L351 484 L230 484 L230 599 L90 599 L90 484 L15 484 L15 361 L90 361 L90 179 C90 45 151 -12 277 -12 C309 -12 334 -8 354 -3 L354 115 C341 113 325 112 311 112 L311 112 Z M236 -67 C187 -67 153 -102 153 -144 C153 -186 185 -220 234 -220 L243 -220 C237 -240 228 -260 216 -278 L292 -278 C314 -244 325 -208 326 -175 C327 -109 290 -67 236 -67 L236 -67 Z " />
<glyph glyph-name="Tcaron" unicode="&#x164;" horiz-adv-x="567" d="M354 762 L478 922 L346 922 L283 845 L220 922 L88 922 L212 762 L354 762 Z M549 700 L18 700 L18 562 L209 562 L209 0 L357 0 L357 562 L549 562 L549 700 Z " />
<glyph glyph-name="tcaron" unicode="&#x165;" horiz-adv-x="385" d="M328 781 C279 781 245 745 245 703 C245 662 277 628 326 628 L334 628 C329 608 320 588 308 570 L383 570 C406 604 417 640 418 673 C419 738 382 781 328 781 L328 781 Z M230 190 L230 361 L351 361 L351 484 L230 484 L230 599 L90 599 L90 484 L15 484 L15 361 L90 361 L90 179 C90 45 151 -12 277 -12 C309 -12 334 -8 354 -3 L354 115 C341 113 325 112 311 112 C251 112 230 131 230 190 L230 190 Z " />
<glyph glyph-name="Tbar" unicode="&#x166;" horiz-adv-x="567" d="M549 562 L549 700 L18 700 L18 562 L209 562 L209 369 L98 369 L98 259 L209 259 L209 0 L357 0 L357 259 L468 259 L468 369 L357 369 L357 562 L549 562 Z " />
<glyph glyph-name="tbar" unicode="&#x167;" horiz-adv-x="397" d="M317 112 C257 112 236 131 236 190 L236 207 L357 207 L357 290 L236 290 L236 361 L357 361 L357 484 L236 484 L236 599 L96 599 L96 484 L21 484 L21 361 L96 361 L96 290 L21 290 L21 207 L96 207 L96 179 C96 45 157 -12 283 -12 C315 -12 340 -8 360 -3 L360 115 C347 113 331 112 317 112 L317 112 Z " />
<glyph glyph-name="Utilde" unicode="&#x168;" horiz-adv-x="690" d="M421 758 C485 758 522 814 522 922 L426 922 C426 878 415 862 400 862 C391 862 380 867 357 886 C323 916 297 926 270 926 C206 926 168 871 168 763 L265 763 C265 807 276 822 290 822 C300 822 311 817 333 798 C368 768 394 758 421 758 L421 758 Z M345 -12 C515 -12 622 95 622 274 L622 700 L474 700 L474 282 C474 178 423 127 345 127 C267 127 215 178 215 282 L215 700 L68 700 L68 274 C68 95 174 -12 345 -12 L345 -12 Z " />
<glyph glyph-name="utilde" unicode="&#x169;" horiz-adv-x="567" d="M233 607 C241 607 252 602 273 584 C306 556 330 547 356 547 C416 547 451 600 451 701 L360 701 C360 660 350 645 336 645 C328 645 316 650 296 668 C263 696 238 705 213 705 C152 705 117 653 117 551 L208 551 C208 593 218 607 233 607 L233 607 Z M364 484 L364 225 C364 152 329 117 275 117 C227 117 199 145 199 222 L199 484 L59 484 L59 183 C59 55 124 -12 220 -12 C281 -12 338 15 368 59 L371 59 L377 0 L504 0 L504 484 L364 484 Z " />
<glyph glyph-name="Umacron" unicode="&#x16a;" horiz-adv-x="690" d="M193 783 L497 783 L497 893 L193 893 L193 783 Z M345 -12 C515 -12 622 95 622 274 L622 700 L474 700 L474 282 C474 178 423 127 345 127 C267 127 215 178 215 282 L215 700 L68 700 L68 274 C68 95 174 -12 345 -12 L345 -12 Z " />
<glyph glyph-name="umacron" unicode="&#x16b;" horiz-adv-x="567" d="M427 674 L141 674 L141 570 L427 570 L427 674 Z M364 484 L364 225 C364 152 329 117 275 117 C227 117 199 145 199 222 L199 484 L59 484 L59 183 C59 55 124 -12 220 -12 C281 -12 338 15 368 59 L371 59 L377 0 L504 0 L504 484 L364 484 Z " />
<glyph glyph-name="Ubreve" unicode="&#x16c;" horiz-adv-x="690" d="M345 760 C447 760 507 819 507 910 L507 921 L397 921 C397 871 378 849 345 849 C312 849 293 871 293 921 L183 921 L183 910 C183 819 243 760 345 760 L345 760 Z M345 -12 C515 -12 622 95 622 274 L622 700 L474 700 L474 282 C474 178 423 127 345 127 C267 127 215 178 215 282 L215 700 L68 700 L68 274 C68 95 174 -12 345 -12 L345 -12 Z " />
<glyph glyph-name="ubreve" unicode="&#x16d;" horiz-adv-x="567" d="M284 549 C380 549 437 604 437 690 L437 700 L333 700 C333 653 315 633 284 633 C253 633 235 653 235 700 L131 700 L131 690 C131 604 188 549 284 549 L284 549 Z M364 484 L364 225 C364 152 329 117 275 117 C227 117 199 145 199 222 L199 484 L59 484 L59 183 C59 55 124 -12 220 -12 C281 -12 338 15 368 59 L371 59 L377 0 L504 0 L504 484 L364 484 Z " />
<glyph glyph-name="Uring" unicode="&#x16e;" horiz-adv-x="690" d="M345 750 C415 750 467 798 467 862 C467 925 415 974 345 974 C275 974 223 925 223 862 C223 798 275 750 345 750 L345 750 Z M345 824 C322 824 307 840 307 862 C307 883 322 899 345 899 C368 899 383 883 383 862 C383 840 368 824 345 824 L345 824 Z M345 -12 C515 -12 622 95 622 274 L622 700 L474 700 L474 282 C474 178 423 127 345 127 C267 127 215 178 215 282 L215 700 L68 700 L68 274 C68 95 174 -12 345 -12 L345 -12 Z " />
<glyph glyph-name="uring" unicode="&#x16f;" horiz-adv-x="567" d="M284 540 C350 540 398 585 398 646 C398 706 350 752 284 752 C218 752 170 706 170 646 C170 585 218 540 284 540 L284 540 Z M284 681 C306 681 320 666 320 646 C320 625 306 610 284 610 C262 610 248 625 248 646 C248 666 262 681 284 681 L284 681 Z M364 484 L364 225 C364 152 329 117 275 117 C227 117 199 145 199 222 L199 484 L59 484 L59 183 C59 55 124 -12 220 -12 C281 -12 338 15 368 59 L371 59 L377 0 L504 0 L504 484 L364 484 Z " />
<glyph glyph-name="Uhungarumlaut" unicode="&#x170;" horiz-adv-x="690" d="M158 762 L275 762 L370 922 L228 922 L158 762 Z M358 762 L476 762 L570 922 L429 922 L358 762 Z M345 -12 C515 -12 622 95 622 274 L622 700 L474 700 L474 282 C474 178 423 127 345 127 C267 127 215 178 215 282 L215 700 L68 700 L68 274 C68 95 174 -12 345 -12 L345 -12 Z " />
<glyph glyph-name="uhungarumlaut" unicode="&#x171;" horiz-adv-x="567" d="M309 702 L176 702 L109 550 L220 550 L309 702 Z M409 550 L499 702 L365 702 L298 550 L409 550 Z M364 484 L364 225 C364 152 329 117 275 117 C227 117 199 145 199 222 L199 484 L59 484 L59 183 C59 55 124 -12 220 -12 C281 -12 338 15 368 59 L371 59 L377 0 L504 0 L504 484 L364 484 Z " />
<glyph glyph-name="Uogonek" unicode="&#x172;" horiz-adv-x="690" d="M474 700 L474 282 C474 178 423 127 345 127 C267 127 215 178 215 282 L215 700 L68 700 L68 274 C68 109 159 5 307 -10 C267 -39 247 -79 247 -122 C247 -189 299 -232 381 -232 C402 -232 424 -228 441 -224 L441 -115 C429 -119 418 -120 409 -120 C382 -120 367 -109 367 -88 C367 -64 384 -38 441 1 C554 35 622 132 622 274 L622 700 L474 700 Z " />
<glyph glyph-name="uogonek" unicode="&#x173;" horiz-adv-x="567" d="M504 0 L504 484 L364 484 L364 225 C364 152 329 117 275 117 C227 117 199 145 199 222 L199 484 L59 484 L59 183 C59 55 124 -12 220 -12 C281 -12 338 15 368 59 L371 59 L377 0 L393 0 C345 -29 321 -70 321 -116 C321 -180 370 -220 448 -220 C467 -220 488 -218 504 -213 L504 -110 C493 -114 482 -115 474 -115 C448 -115 435 -105 435 -84 C435 -61 450 -37 504 0 L504 0 Z " />
<glyph glyph-name="Wcircumflex" unicode="&#x174;" horiz-adv-x="1000" d="M500 839 L563 762 L695 762 L571 922 L429 922 L305 762 L437 762 L500 839 Z M834 700 L709 237 L706 237 L566 700 L434 700 L294 237 L291 237 L166 700 L13 700 L211 0 L359 0 L498 475 L502 475 L642 0 L789 0 L988 700 L834 700 Z " />
<glyph glyph-name="wcircumflex" unicode="&#x175;" horiz-adv-x="813" d="M407 623 L466 550 L592 550 L475 702 L339 702 L222 550 L348 550 L407 623 Z M655 484 L572 185 L568 185 L470 484 L343 484 L245 185 L241 185 L158 484 L13 484 L161 0 L308 0 L405 306 L408 306 L505 0 L651 0 L800 484 L655 484 Z " />
<glyph glyph-name="Ycircumflex" unicode="&#x176;" horiz-adv-x="630" d="M315 839 L378 762 L510 762 L386 922 L244 922 L120 762 L252 762 L315 839 Z M463 700 L317 432 L314 432 L168 700 L3 700 L241 283 L241 0 L389 0 L389 283 L627 700 L463 700 Z " />
<glyph glyph-name="ycircumflex" unicode="&#x177;" horiz-adv-x="526" d="M264 623 L323 550 L449 550 L332 702 L196 702 L79 550 L205 550 L264 623 Z M369 484 L266 172 L262 172 L160 484 L8 484 L188 -5 L108 -224 L258 -224 L519 484 L369 484 Z " />
<glyph glyph-name="Ydieresis" unicode="&#x178;" horiz-adv-x="630" d="M206 765 C250 765 286 799 286 846 C286 893 250 926 206 926 C163 926 127 893 127 846 C127 799 163 765 206 765 L206 765 Z M423 765 C467 765 503 799 503 846 C503 893 467 926 423 926 C380 926 344 893 344 846 C344 799 380 765 423 765 L423 765 Z M241 0 L389 0 L389 283 L627 700 L463 700 L317 432 L314 432 L168 700 L3 700 L241 283 L241 0 Z " />
<glyph glyph-name="Zacute" unicode="&#x179;" horiz-adv-x="571" d="M444 922 L275 922 L195 762 L329 762 L444 922 Z M226 138 L523 584 L523 700 L48 700 L48 562 L337 562 L40 116 L40 0 L531 0 L531 138 L226 138 Z " />
<glyph glyph-name="zacute" unicode="&#x17a;" horiz-adv-x="465" d="M386 702 L227 702 L151 550 L278 550 L386 702 Z M218 123 L424 382 L424 484 L38 484 L38 361 L240 361 L34 102 L34 0 L431 0 L431 123 L218 123 Z " />
<glyph glyph-name="Zdotaccent" unicode="&#x17b;" horiz-adv-x="571" d="M284 762 C331 762 370 797 370 846 C370 895 331 930 284 930 C237 930 198 895 198 846 C198 797 237 762 284 762 L284 762 Z M226 138 L523 584 L523 700 L48 700 L48 562 L337 562 L40 116 L40 0 L531 0 L531 138 L226 138 Z " />
<glyph glyph-name="zdotaccent" unicode="&#x17c;" horiz-adv-x="465" d="M233 551 C278 551 313 584 313 630 C313 675 278 709 233 709 C188 709 153 675 153 630 C153 584 188 551 233 551 L233 551 Z M218 123 L424 382 L424 484 L38 484 L38 361 L240 361 L34 102 L34 0 L431 0 L431 123 L218 123 Z " />
<glyph glyph-name="Zcaron" unicode="&#x17d;" horiz-adv-x="571" d="M355 762 L479 922 L347 922 L284 845 L221 922 L89 922 L213 762 L355 762 Z M226 138 L523 584 L523 700 L48 700 L48 562 L337 562 L40 116 L40 0 L531 0 L531 138 L226 138 Z " />
<glyph glyph-name="zcaron" unicode="&#x17e;" horiz-adv-x="465" d="M301 550 L418 702 L292 702 L233 629 L174 702 L48 702 L165 550 L301 550 Z M218 123 L424 382 L424 484 L38 484 L38 361 L240 361 L34 102 L34 0 L431 0 L431 123 L218 123 Z " />
<glyph glyph-name="florin" unicode="&#x192;" horiz-adv-x="474" d="M417 584 C428 584 440 583 451 581 L451 703 C429 709 406 712 383 712 C287 712 226 665 205 557 L181 431 L64 431 L64 341 L164 341 L135 186 C124 132 102 116 57 116 C46 116 34 117 22 119 L22 -3 C44 -9 67 -12 90 -12 C187 -12 248 35 269 143 L306 341 L442 341 L442 431 L323 431 L339 514 C349 568 371 584 417 584 L417 584 Z " />
<glyph glyph-name="uni01CD" unicode="&#x1cd;" horiz-adv-x="672" d="M407 762 L531 922 L399 922 L336 845 L273 922 L141 922 L265 762 L407 762 Z M509 0 L664 0 L421 700 L251 700 L8 0 L162 0 L208 138 L464 138 L509 0 Z M249 264 L334 520 L338 520 L422 264 L249 264 Z " />
<glyph glyph-name="uni01CE" unicode="&#x1ce;" horiz-adv-x="545" d="M336 550 L453 702 L327 702 L268 629 L209 702 L83 702 L200 550 L336 550 Z M277 496 C141 496 59 427 54 317 L192 317 C195 358 222 380 272 380 C325 380 351 356 351 302 L351 300 L217 280 C95 262 38 209 38 129 C38 46 103 -12 200 -12 C268 -12 323 16 351 60 L354 60 L360 0 L486 0 L486 295 C486 426 414 496 277 496 L277 496 Z M242 95 C202 95 180 111 180 140 C180 169 200 188 255 195 L351 209 L351 201 C351 137 307 95 242 95 L242 95 Z " />
<glyph glyph-name="uni01E2" unicode="&#x1e2;" horiz-adv-x="981" d="M794 893 L490 893 L490 783 L794 783 L794 893 Z M929 564 L929 700 L394 700 L6 0 L177 0 L259 151 L489 151 L489 0 L929 0 L929 136 L637 136 L637 285 L897 285 L897 417 L637 417 L637 564 L929 564 Z M328 277 L485 564 L489 564 L489 277 L328 277 Z " />
<glyph glyph-name="uni01E3" unicode="&#x1e3;" horiz-adv-x="871" d="M589 674 L303 674 L303 570 L589 570 L589 674 Z M837 256 C837 404 737 496 604 496 C542 496 485 476 445 437 L441 437 C409 476 358 496 282 496 C141 496 59 427 54 317 L192 317 C195 358 222 380 276 380 C333 380 362 356 362 301 L362 288 L259 288 C113 288 38 226 38 135 C38 48 105 -12 226 -12 C314 -12 380 20 412 71 L415 71 C456 19 524 -12 602 -12 C717 -12 803 50 830 158 L696 158 C681 125 646 105 601 105 C544 105 501 140 491 208 L833 208 C836 226 837 242 837 256 L837 256 Z M602 380 C649 380 687 357 698 299 L497 299 C513 354 553 380 602 380 L602 380 Z M247 99 C202 99 180 115 180 144 C180 175 206 197 273 197 L362 197 C360 139 316 99 247 99 L247 99 Z " />
<glyph glyph-name="Gcaron" unicode="&#x1e6;" horiz-adv-x="773" d="M469 762 L593 922 L461 922 L398 845 L335 922 L203 922 L327 762 L469 762 Z M408 264 L583 264 C564 178 494 124 399 124 C279 124 193 209 193 349 C193 488 277 576 399 576 C485 576 547 531 562 458 L719 458 C703 609 574 712 399 712 C190 712 40 565 40 348 C40 133 189 -12 381 -12 C471 -12 548 20 596 83 L600 83 L608 0 L719 0 L719 387 L408 387 L408 264 Z " />
<glyph glyph-name="gcaron" unicode="&#x1e7;" horiz-adv-x="501" d="M327 550 L444 702 L318 702 L259 629 L200 702 L74 702 L191 550 L327 550 Z M494 496 L250 496 C131 496 55 424 55 321 C55 274 72 233 101 203 C57 184 30 146 30 97 C30 61 45 32 72 11 C33 -10 13 -44 13 -90 C13 -179 89 -236 246 -236 C416 -236 494 -170 494 -59 C494 38 436 90 326 90 L197 90 C168 90 153 102 153 122 C153 139 164 153 183 157 C204 151 226 148 250 148 C370 148 446 220 446 321 C446 355 438 386 422 412 L494 424 L494 496 Z M250 250 C206 250 177 279 177 323 C177 366 206 395 250 395 C295 395 324 366 324 323 C324 279 295 250 250 250 L250 250 Z M303 -23 C346 -23 365 -40 365 -69 C365 -106 333 -128 252 -128 C174 -128 142 -108 142 -72 C142 -44 163 -23 190 -23 L303 -23 Z " />
<glyph glyph-name="uni01E8" unicode="&#x1e8;" horiz-adv-x="661" d="M419 762 L543 922 L411 922 L348 845 L285 922 L153 922 L277 762 L419 762 Z M369 354 L651 700 L477 700 L228 395 L225 395 L225 700 L77 700 L77 0 L225 0 L225 302 L228 302 L472 0 L656 0 L369 354 Z " />
<glyph glyph-name="uni01E9" unicode="&#x1e9;" horiz-adv-x="546" d="M200 766 L317 918 L192 918 L133 845 L73 918 L-52 918 L65 766 L200 766 Z M543 0 L334 255 L536 484 L367 484 L207 300 L203 300 L203 700 L63 700 L63 0 L203 0 L203 203 L206 203 L371 0 L543 0 Z " />
<glyph glyph-name="AEacute" unicode="&#x1fc;" horiz-adv-x="981" d="M802 922 L633 922 L553 762 L687 762 L802 922 Z M929 564 L929 700 L394 700 L6 0 L177 0 L259 151 L489 151 L489 0 L929 0 L929 136 L637 136 L637 285 L897 285 L897 417 L637 417 L637 564 L929 564 Z M328 277 L485 564 L489 564 L489 277 L328 277 Z " />
<glyph glyph-name="aeacute" unicode="&#x1fd;" horiz-adv-x="871" d="M599 702 L440 702 L364 550 L491 550 L599 702 Z M837 256 C837 404 737 496 604 496 C542 496 485 476 445 437 L441 437 C409 476 358 496 282 496 C141 496 59 427 54 317 L192 317 C195 358 222 380 276 380 C333 380 362 356 362 301 L362 288 L259 288 C113 288 38 226 38 135 C38 48 105 -12 226 -12 C314 -12 380 20 412 71 L415 71 C456 19 524 -12 602 -12 C717 -12 803 50 830 158 L696 158 C681 125 646 105 601 105 C544 105 501 140 491 208 L833 208 C836 226 837 242 837 256 L837 256 Z M602 380 C649 380 687 357 698 299 L497 299 C513 354 553 380 602 380 L602 380 Z M247 99 C202 99 180 115 180 144 C180 175 206 197 273 197 L362 197 C360 139 316 99 247 99 L247 99 Z " />
<glyph glyph-name="Oslashacute" unicode="&#x1fe;" horiz-adv-x="796" d="M558 922 L389 922 L309 762 L443 762 L558 922 Z M765 635 L683 717 L611 645 C553 688 480 712 398 712 C193 712 45 562 45 350 C45 269 67 197 105 139 L32 65 L113 -17 L185 55 C243 12 316 -12 398 -12 C603 -12 751 138 751 350 C751 431 729 503 691 561 L765 635 Z M398 575 C442 575 480 563 512 541 L217 246 C205 276 198 311 198 350 C198 486 280 575 398 575 L398 575 Z M398 125 C354 125 316 137 284 159 L579 454 C591 424 598 389 598 350 C598 214 516 125 398 125 L398 125 Z " />
<glyph glyph-name="oslashacute" unicode="&#x1ff;" horiz-adv-x="586" d="M446 702 L287 702 L211 550 L338 550 L446 702 Z M570 455 L508 518 L442 452 C401 480 350 496 293 496 C145 496 40 392 40 242 C40 184 55 134 83 93 L16 26 L78 -36 L145 31 C186 3 236 -12 293 -12 C441 -12 547 92 547 242 C547 299 532 349 505 390 L570 455 Z M293 382 C319 382 342 375 361 361 L183 183 C176 200 173 220 173 242 C173 326 223 382 293 382 L293 382 Z M293 102 C268 102 246 109 227 122 L405 301 C411 283 414 263 414 242 C414 158 364 102 293 102 L293 102 Z " />
<glyph glyph-name="uni0218" unicode="&#x218;" horiz-adv-x="589" d="M369 409 L298 424 C212 443 186 464 186 502 C186 548 224 580 290 580 C356 580 396 548 402 487 L550 487 C547 624 450 712 294 712 C138 712 38 623 38 497 C38 396 101 330 230 302 L302 287 C385 270 411 244 411 204 C411 154 370 120 303 120 C232 120 187 157 182 227 L35 227 C36 78 137 -12 295 -12 C456 -12 559 82 559 217 C559 317 503 380 369 409 L369 409 Z M287 -66 C238 -66 204 -101 204 -143 C204 -185 236 -219 285 -219 L293 -219 C288 -239 279 -259 267 -277 L343 -277 C365 -243 376 -207 377 -174 C378 -108 341 -66 287 -66 L287 -66 Z " />
<glyph glyph-name="uni0219" unicode="&#x219;" horiz-adv-x="469" d="M296 294 L237 306 C181 316 168 329 168 347 C168 371 191 389 230 389 C274 389 298 369 300 340 L434 340 C428 441 356 496 237 496 C108 496 34 429 34 339 C34 264 82 217 182 198 L241 186 C292 176 308 161 308 141 C308 115 284 96 243 96 C198 96 169 118 167 155 L33 155 C36 53 113 -12 238 -12 C367 -12 442 58 442 153 C442 226 400 274 296 294 L296 294 Z M226 -67 C177 -67 143 -102 143 -144 C143 -186 175 -220 224 -220 L233 -220 C227 -240 218 -260 206 -278 L282 -278 C304 -244 315 -208 316 -175 C317 -109 280 -67 226 -67 L226 -67 Z " />
<glyph glyph-name="uni021A" unicode="&#x21a;" horiz-adv-x="567" d="M18 700 L18 562 L209 562 L209 0 L357 0 L357 562 L549 562 L549 700 L18 700 Z M280 -66 C231 -66 197 -101 197 -143 C197 -185 229 -219 278 -219 L286 -219 C281 -239 272 -259 260 -277 L336 -277 C358 -243 369 -207 370 -174 C371 -108 334 -66 280 -66 L280 -66 Z " />
<glyph glyph-name="uni021B" unicode="&#x21b;" horiz-adv-x="385" d="M311 112 C251 112 230 131 230 190 L230 361 L351 361 L351 484 L230 484 L230 599 L90 599 L90 484 L15 484 L15 361 L90 361 L90 179 C90 45 151 -12 277 -12 C309 -12 334 -8 354 -3 L354 115 C341 113 325 112 311 112 L311 112 Z M236 -67 C187 -67 153 -102 153 -144 C153 -186 185 -220 234 -220 L243 -220 C237 -240 228 -260 216 -278 L292 -278 C314 -244 325 -208 326 -175 C327 -109 290 -67 236 -67 L236 -67 Z " />
<glyph glyph-name="uni0237" unicode="&#x237;" horiz-adv-x="266" d="M36 -236 C152 -236 203 -185 203 -57 L203 484 L63 484 L63 -44 C63 -94 45 -111 2 -111 C-8 -111 -18 -110 -26 -109 L-26 -230 C-11 -233 10 -236 36 -236 L36 -236 Z " />
<glyph glyph-name="circumflex" unicode="&#x2c6;" horiz-adv-x="600" d="M485 550 L368 702 L232 702 L115 550 L241 550 L300 623 L359 550 L485 550 Z " />
<glyph glyph-name="caron" unicode="&#x2c7;" horiz-adv-x="600" d="M359 702 L300 629 L241 702 L115 702 L232 550 L368 550 L485 702 L359 702 Z " />
<glyph glyph-name="breve" unicode="&#x2d8;" horiz-adv-x="600" d="M300 549 C396 549 453 604 453 690 L453 700 L349 700 C349 653 331 633 300 633 C269 633 251 653 251 700 L147 700 L147 690 C147 604 204 549 300 549 L300 549 Z " />
<glyph glyph-name="dotaccent" unicode="&#x2d9;" horiz-adv-x="600" d="M300 551 C345 551 380 584 380 630 C380 675 345 709 300 709 C255 709 220 675 220 630 C220 584 255 551 300 551 L300 551 Z " />
<glyph glyph-name="ring" unicode="&#x2da;" horiz-adv-x="600" d="M300 540 C366 540 414 585 414 646 C414 706 366 752 300 752 C234 752 186 706 186 646 C186 585 234 540 300 540 L300 540 Z M300 610 C278 610 264 625 264 646 C264 666 278 681 300 681 C322 681 336 666 336 646 C336 625 322 610 300 610 L300 610 Z " />
<glyph glyph-name="ogonek" unicode="&#x2db;" horiz-adv-x="600" d="M335 -220 C354 -220 375 -218 391 -213 L391 -110 C380 -114 369 -115 361 -115 C335 -115 322 -105 322 -84 C322 -61 337 -37 391 0 L344 26 C254 2 208 -53 208 -116 C208 -180 257 -220 335 -220 L335 -220 Z " />
<glyph glyph-name="tilde" unicode="&#x2dc;" horiz-adv-x="600" d="M372 547 C432 547 467 600 467 701 L376 701 C376 660 366 645 352 645 C344 645 332 650 312 668 C279 696 254 705 229 705 C168 705 133 653 133 551 L224 551 C224 593 234 607 249 607 C257 607 268 602 289 584 C322 556 346 547 372 547 L372 547 Z " />
<glyph glyph-name="hungarumlaut" unicode="&#x2dd;" horiz-adv-x="600" d="M135 550 L246 550 L335 702 L202 702 L135 550 Z M324 550 L435 550 L525 702 L391 702 L324 550 Z " />
<glyph glyph-name="gravecomb" unicode="&#x300;" d="M-333 550 L-206 550 L-282 702 L-441 702 L-333 550 Z " />
<glyph glyph-name="acutecomb" unicode="&#x301;" d="M-402 550 L-275 550 L-167 702 L-326 702 L-402 550 Z " />
<glyph glyph-name="uni0302" unicode="&#x302;" d="M-115 550 L-232 702 L-368 702 L-485 550 L-359 550 L-300 623 L-241 550 L-115 550 Z " />
<glyph glyph-name="tildecomb" unicode="&#x303;" d="M-228 547 C-168 547 -133 600 -133 701 L-224 701 C-224 660 -234 645 -248 645 C-256 645 -268 650 -288 668 C-321 696 -346 705 -371 705 C-432 705 -467 653 -467 551 L-376 551 C-376 593 -366 607 -351 607 C-343 607 -332 602 -311 584 C-278 556 -254 547 -228 547 L-228 547 Z " />
<glyph glyph-name="uni0304" unicode="&#x304;" d="M-443 570 L-157 570 L-157 674 L-443 674 L-443 570 Z " />
<glyph glyph-name="uni0306" unicode="&#x306;" d="M-300 549 C-204 549 -147 604 -147 690 L-147 700 L-251 700 C-251 653 -269 633 -300 633 C-331 633 -349 653 -349 700 L-453 700 L-453 690 C-453 604 -396 549 -300 549 L-300 549 Z " />
<glyph glyph-name="uni0307" unicode="&#x307;" d="M-300 551 C-255 551 -220 584 -220 630 C-220 675 -255 709 -300 709 C-345 709 -380 675 -380 630 C-380 584 -345 551 -300 551 L-300 551 Z " />
<glyph glyph-name="uni0308" unicode="&#x308;" d="M-401 555 C-360 555 -327 585 -327 630 C-327 675 -360 705 -401 705 C-442 705 -476 675 -476 630 C-476 585 -442 555 -401 555 L-401 555 Z M-199 555 C-158 555 -124 585 -124 630 C-124 675 -158 705 -199 705 C-240 705 -273 675 -273 630 C-273 585 -240 555 -199 555 L-199 555 Z " />
<glyph glyph-name="uni030A" unicode="&#x30a;" d="M-300 540 C-234 540 -186 585 -186 646 C-186 706 -234 752 -300 752 C-366 752 -414 706 -414 646 C-414 585 -366 540 -300 540 L-300 540 Z M-300 610 C-322 610 -336 625 -336 646 C-336 666 -322 681 -300 681 C-278 681 -264 666 -264 646 C-264 625 -278 610 -300 610 L-300 610 Z " />
<glyph glyph-name="uni030B" unicode="&#x30b;" d="M-465 550 L-354 550 L-265 702 L-398 702 L-465 550 Z M-276 550 L-165 550 L-75 702 L-209 702 L-276 550 Z " />
<glyph glyph-name="uni030C" unicode="&#x30c;" d="M-241 702 L-300 629 L-359 702 L-485 702 L-368 550 L-232 550 L-115 702 L-241 702 Z " />
<glyph glyph-name="uni0315" unicode="&#x315;" d="M-302 712 C-348 712 -382 678 -382 632 C-382 589 -350 558 -305 558 L-296 558 C-306 527 -329 499 -365 467 L-327 425 C-257 478 -218 541 -217 605 C-216 668 -251 712 -302 712 L-302 712 Z " />
<glyph glyph-name="uni0326" unicode="&#x326;" d="M-302 -67 C-351 -67 -385 -102 -385 -144 C-385 -186 -353 -220 -304 -220 L-295 -220 C-301 -240 -310 -260 -322 -278 L-246 -278 C-224 -244 -213 -208 -212 -175 C-211 -109 -248 -67 -302 -67 L-302 -67 Z " />
<glyph glyph-name="uni0327" unicode="&#x327;" d="M-294 -45 L-294 0 L-381 0 L-391 -104 C-329 -104 -317 -113 -317 -127 C-317 -142 -328 -151 -363 -151 C-373 -151 -385 -151 -398 -149 L-398 -228 C-381 -232 -363 -234 -345 -234 C-256 -234 -207 -194 -207 -134 C-207 -86 -238 -54 -294 -45 L-294 -45 Z " />
<glyph glyph-name="uni0328" unicode="&#x328;" d="M-265 -220 C-246 -220 -225 -218 -209 -213 L-209 -110 C-220 -114 -231 -115 -239 -115 C-265 -115 -278 -105 -278 -84 C-278 -61 -263 -37 -209 0 L-256 26 C-346 2 -392 -53 -392 -116 C-392 -180 -343 -220 -265 -220 L-265 -220 Z " />
<glyph glyph-name="uni03BC" unicode="&#x3bc;" horiz-adv-x="577" d="M375 484 L375 225 C375 153 341 117 287 117 C233 117 203 149 203 217 L203 484 L63 484 L63 -224 L203 -224 L203 17 C225 -2 250 -12 280 -12 C327 -12 361 12 380 50 L384 50 L389 0 L515 0 L515 484 L375 484 Z " />
<glyph glyph-name="pi" unicode="&#x3c0;" horiz-adv-x="584" d="M538 124 C502 124 487 138 487 176 L487 484 L63 484 L63 0 L203 0 L203 355 L347 355 L347 151 C347 46 395 0 498 0 L560 0 L560 124 L538 124 Z " />
<glyph glyph-name="uni1E20" unicode="&#x1e20;" horiz-adv-x="773" d="M550 893 L246 893 L246 783 L550 783 L550 893 Z M408 264 L583 264 C564 178 494 124 399 124 C279 124 193 209 193 349 C193 488 277 576 399 576 C485 576 547 531 562 458 L719 458 C703 609 574 712 399 712 C190 712 40 565 40 348 C40 133 189 -12 381 -12 C471 -12 548 20 596 83 L600 83 L608 0 L719 0 L719 387 L408 387 L408 264 Z " />
<glyph glyph-name="uni1E21" unicode="&#x1e21;" horiz-adv-x="501" d="M402 674 L116 674 L116 570 L402 570 L402 674 Z M494 496 L250 496 C131 496 55 424 55 321 C55 274 72 233 101 203 C57 184 30 146 30 97 C30 61 45 32 72 11 C33 -10 13 -44 13 -90 C13 -179 89 -236 246 -236 C416 -236 494 -170 494 -59 C494 38 436 90 326 90 L197 90 C168 90 153 102 153 122 C153 139 164 153 183 157 C204 151 226 148 250 148 C370 148 446 220 446 321 C446 355 438 386 422 412 L494 424 L494 496 Z M250 250 C206 250 177 279 177 323 C177 366 206 395 250 395 C295 395 324 366 324 323 C324 279 295 250 250 250 L250 250 Z M303 -23 C346 -23 365 -40 365 -69 C365 -106 333 -128 252 -128 C174 -128 142 -108 142 -72 C142 -44 163 -23 190 -23 L303 -23 Z " />
<glyph glyph-name="uni1E30" unicode="&#x1e30;" horiz-adv-x="661" d="M508 922 L339 922 L259 762 L393 762 L508 922 Z M369 354 L651 700 L477 700 L228 395 L225 395 L225 700 L77 700 L77 0 L225 0 L225 302 L228 302 L472 0 L656 0 L369 354 Z " />
<glyph glyph-name="uni1E31" unicode="&#x1e31;" horiz-adv-x="546" d="M285 918 L126 918 L51 766 L178 766 L285 918 Z M543 0 L334 255 L536 484 L367 484 L207 300 L203 300 L203 700 L63 700 L63 0 L203 0 L203 203 L206 203 L371 0 L543 0 Z " />
<glyph glyph-name="uni1E3E" unicode="&#x1e3e;" horiz-adv-x="920" d="M620 922 L451 922 L371 762 L505 762 L620 922 Z M686 700 L462 222 L458 222 L234 700 L77 700 L77 0 L222 0 L222 415 L225 415 L416 0 L504 0 L695 415 L699 415 L699 0 L843 0 L843 700 L686 700 Z " />
<glyph glyph-name="uni1E3F" unicode="&#x1e3f;" horiz-adv-x="855" d="M581 702 L422 702 L346 550 L473 550 L581 702 Z M634 496 C569 496 511 466 477 419 L473 419 C446 470 401 496 343 496 C285 496 229 469 200 425 L196 425 L191 484 L63 484 L63 0 L203 0 L203 259 C203 331 237 367 288 367 C334 367 360 338 360 263 L360 0 L500 0 L500 259 C500 332 535 367 584 367 C630 367 657 337 657 263 L657 0 L797 0 L797 301 C797 429 733 496 634 496 L634 496 Z " />
<glyph glyph-name="uni1E40" unicode="&#x1e40;" horiz-adv-x="920" d="M460 762 C507 762 546 797 546 846 C546 895 507 930 460 930 C413 930 374 895 374 846 C374 797 413 762 460 762 L460 762 Z M686 700 L462 222 L458 222 L234 700 L77 700 L77 0 L222 0 L222 415 L225 415 L416 0 L504 0 L695 415 L699 415 L699 0 L843 0 L843 700 L686 700 Z " />
<glyph glyph-name="uni1E41" unicode="&#x1e41;" horiz-adv-x="855" d="M428 551 C473 551 508 584 508 630 C508 675 473 709 428 709 C383 709 348 675 348 630 C348 584 383 551 428 551 L428 551 Z M634 496 C569 496 511 466 477 419 L473 419 C446 470 401 496 343 496 C285 496 229 469 200 425 L196 425 L191 484 L63 484 L63 0 L203 0 L203 259 C203 331 237 367 288 367 C334 367 360 338 360 263 L360 0 L500 0 L500 259 C500 332 535 367 584 367 C630 367 657 337 657 263 L657 0 L797 0 L797 301 C797 429 733 496 634 496 L634 496 Z " />
<glyph glyph-name="uni1E44" unicode="&#x1e44;" horiz-adv-x="744" d="M372 762 C419 762 458 797 458 846 C458 895 419 930 372 930 C325 930 286 895 286 846 C286 797 325 762 372 762 L372 762 Z M519 700 L519 256 L515 256 L227 700 L77 700 L77 0 L225 0 L225 444 L228 444 L517 0 L667 0 L667 700 L519 700 Z " />
<glyph glyph-name="uni1E45" unicode="&#x1e45;" horiz-adv-x="572" d="M288 551 C333 551 368 584 368 630 C368 675 333 709 288 709 C243 709 208 675 208 630 C208 584 243 551 288 551 L288 551 Z M349 496 C286 496 229 469 200 425 L196 425 L191 484 L63 484 L63 0 L203 0 L203 259 C203 332 239 367 294 367 C345 367 373 338 373 262 L373 0 L513 0 L513 301 C513 428 449 496 349 496 L349 496 Z " />
<glyph glyph-name="Wgrave" unicode="&#x1e80;" horiz-adv-x="1000" d="M448 762 L583 762 L502 922 L334 922 L448 762 Z M211 0 L359 0 L498 475 L502 475 L642 0 L789 0 L988 700 L834 700 L709 237 L706 237 L566 700 L434 700 L294 237 L291 237 L166 700 L13 700 L211 0 Z " />
<glyph glyph-name="wgrave" unicode="&#x1e81;" horiz-adv-x="813" d="M355 550 L482 550 L406 702 L247 702 L355 550 Z M161 0 L308 0 L405 306 L408 306 L505 0 L651 0 L800 484 L655 484 L572 185 L568 185 L470 484 L343 484 L245 185 L241 185 L158 484 L13 484 L161 0 Z " />
<glyph glyph-name="Wacute" unicode="&#x1e82;" horiz-adv-x="1000" d="M411 762 L545 762 L660 922 L491 922 L411 762 Z M211 0 L359 0 L498 475 L502 475 L642 0 L789 0 L988 700 L834 700 L709 237 L706 237 L566 700 L434 700 L294 237 L291 237 L166 700 L13 700 L211 0 Z " />
<glyph glyph-name="wacute" unicode="&#x1e83;" horiz-adv-x="813" d="M325 550 L452 550 L560 702 L401 702 L325 550 Z M161 0 L308 0 L405 306 L408 306 L505 0 L651 0 L800 484 L655 484 L572 185 L568 185 L470 484 L343 484 L245 185 L241 185 L158 484 L13 484 L161 0 Z " />
<glyph glyph-name="Wdieresis" unicode="&#x1e84;" horiz-adv-x="1000" d="M391 765 C435 765 471 799 471 846 C471 893 435 926 391 926 C348 926 312 893 312 846 C312 799 348 765 391 765 L391 765 Z M608 765 C652 765 688 799 688 846 C688 893 652 926 608 926 C565 926 529 893 529 846 C529 799 565 765 608 765 L608 765 Z M211 0 L359 0 L498 475 L502 475 L642 0 L789 0 L988 700 L834 700 L709 237 L706 237 L566 700 L434 700 L294 237 L291 237 L166 700 L13 700 L211 0 Z " />
<glyph glyph-name="wdieresis" unicode="&#x1e85;" horiz-adv-x="813" d="M306 555 C347 555 380 585 380 630 C380 675 347 705 306 705 C265 705 231 675 231 630 C231 585 265 555 306 555 L306 555 Z M508 555 C549 555 583 585 583 630 C583 675 549 705 508 705 C467 705 434 675 434 630 C434 585 467 555 508 555 L508 555 Z M161 0 L308 0 L405 306 L408 306 L505 0 L651 0 L800 484 L655 484 L572 185 L568 185 L470 484 L343 484 L245 185 L241 185 L158 484 L13 484 L161 0 Z " />
<glyph glyph-name="uni1E90" unicode="&#x1e90;" horiz-adv-x="571" d="M284 839 L347 762 L479 762 L355 922 L213 922 L89 762 L221 762 L284 839 Z M226 138 L523 584 L523 700 L48 700 L48 562 L337 562 L40 116 L40 0 L531 0 L531 138 L226 138 Z " />
<glyph glyph-name="uni1E91" unicode="&#x1e91;" horiz-adv-x="465" d="M233 623 L292 550 L418 550 L301 702 L165 702 L48 550 L174 550 L233 623 Z M218 123 L424 382 L424 484 L38 484 L38 361 L240 361 L34 102 L34 0 L431 0 L431 123 L218 123 Z " />
<glyph glyph-name="uni1E9E" unicode="&#x1e9e;" horiz-adv-x="692" d="M491 380 L635 581 C582 660 483 712 349 712 C166 712 68 616 68 435 L68 0 L215 0 L215 423 C215 528 263 576 356 576 C392 576 424 569 451 552 L332 386 L332 268 L373 268 C474 268 509 245 509 196 C509 151 480 124 410 124 C386 124 350 128 314 136 L314 0 C353 -9 392 -12 423 -12 C579 -12 661 64 661 191 C661 298 602 361 491 380 L491 380 Z " />
<glyph glyph-name="Ygrave" unicode="&#x1ef2;" horiz-adv-x="630" d="M263 762 L398 762 L317 922 L149 922 L263 762 Z M241 0 L389 0 L389 283 L627 700 L463 700 L317 432 L314 432 L168 700 L3 700 L241 283 L241 0 Z " />
<glyph glyph-name="ygrave" unicode="&#x1ef3;" horiz-adv-x="526" d="M339 550 L263 702 L104 702 L212 550 L339 550 Z M369 484 L266 172 L262 172 L160 484 L8 484 L188 -5 L108 -224 L258 -224 L519 484 L369 484 Z " />
<glyph glyph-name="uni2000" unicode="&#x2000;" horiz-adv-x="500" d="" />
<glyph glyph-name="uni2001" unicode="&#x2001;" horiz-adv-x="1000" d="" />
<glyph glyph-name="uni2002" unicode="&#x2002;" horiz-adv-x="500" d="" />
<glyph glyph-name="uni2003" unicode="&#x2003;" horiz-adv-x="1000" d="" />
<glyph glyph-name="uni2009" unicode="&#x2009;" horiz-adv-x="150" d="" />
<glyph glyph-name="uni200A" unicode="&#x200a;" horiz-adv-x="75" d="" />
<glyph glyph-name="uni200B" unicode="&#x200b;" d="" />
<glyph glyph-name="endash" unicode="&#x2013;" horiz-adv-x="500" d="M0 217 L500 217 L500 341 L0 341 L0 217 Z " />
<glyph glyph-name="emdash" unicode="&#x2014;" horiz-adv-x="1000" d="M0 217 L1000 217 L1000 341 L0 341 L0 217 Z " />
<glyph glyph-name="quoteleft" unicode="&#x2018;" horiz-adv-x="237" d="M123 579 L118 579 C128 610 150 639 184 670 L146 712 C76 659 37 596 35 532 C34 469 70 425 121 425 C166 425 201 459 201 505 C201 548 168 579 123 579 L123 579 Z " />
<glyph glyph-name="quoteright" unicode="&#x2019;" horiz-adv-x="237" d="M116 712 C70 712 35 678 35 632 C35 589 68 558 113 558 L119 558 C109 527 87 498 53 467 L91 425 C161 478 200 541 201 605 C202 668 167 712 116 712 L116 712 Z " />
<glyph glyph-name="quotesinglbase" unicode="&#x201a;" horiz-adv-x="254" d="M124 154 C79 154 44 120 44 74 C44 31 77 0 122 0 L127 0 C117 -31 96 -60 61 -91 L99 -133 C170 -80 209 -16 210 47 C211 111 176 154 124 154 L124 154 Z " />
<glyph glyph-name="quotedblleft" unicode="&#x201c;" horiz-adv-x="443" d="M123 579 L118 579 C128 610 150 639 184 670 L146 712 C76 659 37 596 35 532 C34 469 70 425 121 425 C166 425 201 459 201 505 C201 548 168 579 123 579 L123 579 Z M330 579 L325 579 C335 610 357 639 391 670 L353 712 C283 659 244 596 242 532 C241 469 277 425 328 425 C373 425 408 459 408 505 C408 548 375 579 330 579 L330 579 Z " />
<glyph glyph-name="quotedblright" unicode="&#x201d;" horiz-adv-x="443" d="M116 712 C70 712 35 678 35 632 C35 589 68 558 113 558 L119 558 C109 527 87 498 53 467 L91 425 C161 478 200 541 201 605 C202 668 167 712 116 712 L116 712 Z M322 712 C277 712 242 678 242 632 C242 589 275 558 320 558 L326 558 C316 527 294 498 260 467 L298 425 C368 478 407 541 408 605 C409 668 374 712 322 712 L322 712 Z " />
<glyph glyph-name="quotedblbase" unicode="&#x201e;" horiz-adv-x="461" d="M124 154 C79 154 44 120 44 74 C44 31 77 0 122 0 L127 0 C117 -31 96 -60 61 -91 L99 -133 C170 -80 209 -16 210 47 C211 111 176 154 124 154 L124 154 Z M331 154 C286 154 251 120 251 74 C251 31 284 0 329 0 L334 0 C324 -31 302 -60 268 -91 L306 -133 C376 -80 415 -16 417 47 C418 111 383 154 331 154 L331 154 Z " />
<glyph glyph-name="dagger" unicode="&#x2020;" horiz-adv-x="518" d="M479 521 L325 521 L325 742 L193 742 L193 521 L39 521 L39 392 L193 392 L193 -128 L325 -128 L325 392 L479 392 L479 521 Z " />
<glyph glyph-name="daggerdbl" unicode="&#x2021;" horiz-adv-x="538" d="M489 392 L489 521 L335 521 L335 742 L203 742 L203 521 L49 521 L49 392 L203 392 L203 221 L69 221 L69 92 L203 92 L203 -128 L335 -128 L335 92 L469 92 L469 221 L335 221 L335 392 L489 392 Z " />
<glyph glyph-name="bullet" unicode="&#x2022;" horiz-adv-x="513" d="M256 180 C351 180 422 253 422 346 C422 438 351 511 256 511 C162 511 91 438 91 346 C91 253 162 180 256 180 L256 180 Z " />
<glyph glyph-name="ellipsis" unicode="&#x2026;" horiz-adv-x="806" d="M138 -9 C192 -9 231 30 231 85 C231 140 192 179 138 179 C83 179 44 140 44 85 C44 30 83 -9 138 -9 L138 -9 Z M403 -9 C457 -9 496 30 496 85 C496 140 457 179 403 179 C349 179 310 140 310 85 C310 30 349 -9 403 -9 L403 -9 Z M668 -9 C723 -9 762 30 762 85 C762 140 723 179 668 179 C614 179 575 140 575 85 C575 30 614 -9 668 -9 L668 -9 Z " />
<glyph glyph-name="perthousand" unicode="&#x2030;" horiz-adv-x="1328" d="M217 343 C324 343 404 422 404 528 C404 633 324 712 217 712 C110 712 30 633 30 528 C30 422 110 343 217 343 L217 343 Z M168 0 L300 0 L741 700 L610 700 L168 0 Z M217 444 C170 444 139 479 139 528 C139 577 170 611 217 611 C264 611 295 577 295 528 C295 479 264 444 217 444 L217 444 Z M693 -12 C800 -12 880 67 880 172 C880 278 800 357 693 357 C586 357 506 278 506 172 C506 67 586 -12 693 -12 L693 -12 Z M1111 -12 C1218 -12 1298 67 1298 172 C1298 278 1218 357 1111 357 C1004 357 924 278 924 172 C924 67 1004 -12 1111 -12 L1111 -12 Z M693 89 C646 89 615 123 615 172 C615 222 646 256 693 256 C739 256 771 222 771 172 C771 123 739 89 693 89 L693 89 Z M1111 89 C1064 89 1033 123 1033 172 C1033 222 1064 256 1111 256 C1158 256 1189 222 1189 172 C1189 123 1158 89 1111 89 L1111 89 Z " />
<glyph glyph-name="guilsinglleft" unicode="&#x2039;" horiz-adv-x="377" d="M339 504 L187 504 L32 283 L187 63 L339 63 L186 283 L339 504 Z " />
<glyph glyph-name="guilsinglright" unicode="&#x203a;" horiz-adv-x="377" d="M190 504 L37 504 L191 283 L37 63 L190 63 L344 283 L190 504 Z " />
<glyph glyph-name="fraction" unicode="&#x2044;" horiz-adv-x="573" d="M0 0 L131 0 L573 700 L441 700 L0 0 Z " />
<glyph glyph-name="uni2070" unicode="&#x2070;" horiz-adv-x="400" d="M200 264 C307 264 369 326 369 428 L369 548 C369 650 307 712 200 712 C93 712 32 650 32 548 L32 428 C32 326 93 264 200 264 L200 264 Z M200 365 C165 365 144 385 144 423 L144 553 C144 591 165 611 200 611 C235 611 256 591 256 553 L256 423 C256 385 235 365 200 365 L200 365 Z " />
<glyph glyph-name="uni2074" unicode="&#x2074;" horiz-adv-x="401" d="M380 433 L334 433 L334 700 L202 700 L29 426 L29 339 L232 339 L232 266 L334 266 L334 339 L380 339 L380 433 Z M140 433 L232 579 L232 433 L140 433 Z " />
<glyph glyph-name="uni2075" unicode="&#x2075;" horiz-adv-x="377" d="M216 553 C191 553 170 548 151 538 L159 600 L324 600 L324 700 L68 700 L37 443 L145 443 C154 458 172 468 193 468 C223 468 243 447 243 415 C243 382 223 360 192 360 C165 360 144 377 142 401 L31 401 C33 311 100 259 190 259 C287 259 352 318 352 410 C352 497 294 553 216 553 L216 553 Z " />
<glyph glyph-name="uni2076" unicode="&#x2076;" horiz-adv-x="386" d="M219 575 L304 700 L174 700 L77 556 C39 499 25 462 25 423 C25 328 101 259 194 259 C287 259 362 329 362 423 C362 509 299 571 219 575 L219 575 Z M194 360 C160 360 135 385 135 422 C135 458 160 483 194 483 C228 483 252 458 252 422 C252 385 228 360 194 360 L194 360 Z " />
<glyph glyph-name="uni2077" unicode="&#x2077;" horiz-adv-x="337" d="M21 700 L21 594 L188 594 L46 266 L178 266 L314 599 L314 700 L21 700 Z " />
<glyph glyph-name="uni2078" unicode="&#x2078;" horiz-adv-x="383" d="M291 496 C329 519 348 552 348 590 C348 659 287 712 191 712 C97 712 35 660 35 590 C35 553 54 519 92 496 C51 475 29 437 29 392 C29 317 88 264 191 264 C294 264 354 317 354 392 C354 438 332 475 291 496 L291 496 Z M191 621 C219 621 238 604 238 578 C238 553 219 535 191 535 C164 535 144 553 144 578 C144 604 164 621 191 621 L191 621 Z M191 355 C163 355 139 374 139 402 C139 429 162 448 191 448 C221 448 243 429 243 402 C243 374 220 355 191 355 L191 355 Z " />
<glyph glyph-name="uni2079" unicode="&#x2079;" horiz-adv-x="386" d="M194 712 C101 712 25 642 25 548 C25 462 89 400 168 396 L83 271 L214 271 L310 415 C349 472 362 509 362 548 C362 643 286 712 194 712 L194 712 Z M194 488 C160 488 135 513 135 549 C135 586 160 611 194 611 C228 611 253 586 253 549 C253 513 228 488 194 488 L194 488 Z " />
<glyph glyph-name="Euro" unicode="&#x20ac;" horiz-adv-x="625" d="M466 210 C461 146 423 111 371 111 C318 111 273 150 253 238 L427 238 L427 317 L243 317 C242 328 242 339 242 350 C242 361 242 372 243 383 L427 383 L427 462 L253 462 C273 550 319 589 373 589 C422 589 457 556 463 489 L601 489 C591 629 498 712 374 712 C245 712 143 624 111 462 L33 462 L33 383 L102 383 C101 372 101 360 101 348 C101 337 101 327 102 317 L33 317 L33 238 L111 238 C141 76 240 -12 370 -12 C496 -12 591 72 602 210 L466 210 Z " />
<glyph glyph-name="uni2116" unicode="&#x2116;" horiz-adv-x="1235" d="M976 278 C1103 278 1194 366 1194 495 C1194 624 1103 712 976 712 C848 712 758 623 758 495 C758 366 848 278 976 278 L976 278 Z M519 256 L515 256 L227 700 L77 700 L77 0 L225 0 L225 444 L228 444 L517 0 L667 0 L667 700 L519 700 L519 256 Z M976 593 C1025 593 1061 554 1061 495 C1061 435 1025 396 976 396 C927 396 891 434 891 495 C891 555 927 593 976 593 L976 593 Z M818 91 L1134 91 L1134 214 L818 214 L818 91 Z " />
<glyph glyph-name="trademark" unicode="&#x2122;" horiz-adv-x="765" d="M29 603 L108 603 L108 394 L210 394 L210 603 L289 603 L289 700 L29 700 L29 603 Z M605 700 L528 566 L450 700 L334 700 L334 394 L429 394 L429 568 L492 459 L563 459 L627 569 L627 394 L722 394 L722 700 L605 700 Z " />
<glyph glyph-name="uni2126" unicode="&#x2126;" horiz-adv-x="792" d="M734 376 C734 571 585 712 396 712 C207 712 58 571 58 376 C58 266 104 170 189 124 L58 124 L58 0 L352 0 L352 138 C258 187 200 266 200 371 C200 495 281 582 396 582 C511 582 592 495 592 371 C592 266 534 187 440 138 L440 0 L734 0 L734 124 L603 124 C688 170 734 266 734 376 L734 376 Z " />
<glyph glyph-name="estimated" unicode="&#x212e;" horiz-adv-x="815" d="M407 0 C526 0 632 55 695 149 L674 165 C617 77 519 26 407 26 C334 26 270 47 215 88 C181 113 170 141 170 187 L170 338 L754 338 L754 350 C754 452 715 545 652 605 C590 664 502 700 407 700 C312 700 224 664 161 605 C99 545 60 452 60 350 C60 247 99 157 161 97 C224 36 312 0 407 0 L407 0 Z M170 362 L170 512 C170 558 181 587 215 612 C270 653 334 674 407 674 C484 674 549 652 606 609 C638 584 649 553 649 508 L649 362 L170 362 Z " />
<glyph glyph-name="arrowleft" unicode="&#x2190;" horiz-adv-x="710" d="M676 416 L265 416 L386 538 L300 626 L35 350 L300 74 L386 162 L265 284 L676 284 L676 416 Z " />
<glyph glyph-name="arrowup" unicode="&#x2191;" horiz-adv-x="710" d="M631 408 L355 673 L79 408 L167 321 L289 443 L289 32 L421 32 L421 443 L543 321 L631 408 Z " />
<glyph glyph-name="arrowright" unicode="&#x2192;" horiz-adv-x="710" d="M410 626 L324 538 L445 416 L34 416 L34 284 L445 284 L324 162 L410 74 L675 350 L410 626 Z " />
<glyph glyph-name="arrowdown" unicode="&#x2193;" horiz-adv-x="710" d="M543 379 L421 257 L421 668 L289 668 L289 257 L167 379 L79 292 L355 27 L631 292 L543 379 Z " />
<glyph glyph-name="uni2196" unicode="&#x2196;" horiz-adv-x="710" d="M609 190 L319 480 L490 480 L491 604 L109 596 L101 214 L225 215 L225 386 L515 96 L609 190 Z " />
<glyph glyph-name="uni2197" unicode="&#x2197;" horiz-adv-x="710" d="M609 214 L601 596 L219 604 L220 480 L391 480 L101 190 L195 96 L485 386 L485 215 L609 214 Z " />
<glyph glyph-name="uni2198" unicode="&#x2198;" horiz-adv-x="710" d="M485 485 L485 314 L195 604 L101 510 L391 220 L220 220 L219 96 L601 104 L609 486 L485 485 Z " />
<glyph glyph-name="uni2199" unicode="&#x2199;" horiz-adv-x="710" d="M319 220 L609 510 L515 604 L225 314 L225 485 L101 486 L109 104 L491 96 L490 220 L319 220 Z " />
<glyph glyph-name="partialdiff" unicode="&#x2202;" horiz-adv-x="627" d="M284 712 C223 712 169 700 122 681 L122 552 C186 576 228 584 272 584 C382 584 430 534 440 397 L436 397 C398 441 342 461 280 461 C139 461 37 362 37 228 C37 89 140 -12 304 -12 C384 -12 447 13 495 57 C554 113 585 203 585 334 C585 583 488 712 284 712 L284 712 Z M305 111 C231 111 182 158 182 229 C182 297 231 342 305 342 C379 342 427 297 427 229 C427 158 379 111 305 111 L305 111 Z " />
<glyph glyph-name="uni2206" unicode="&#x2206;" horiz-adv-x="701" d="M400 700 L302 700 L19 68 L61 0 L640 0 L683 68 L400 700 Z M503 132 L199 132 L351 480 L503 132 Z " />
<glyph glyph-name="product" unicode="&#x220f;" horiz-adv-x="662" d="M77 742 L77 -128 L220 -128 L220 611 L443 611 L443 -128 L585 -128 L585 742 L77 742 Z " />
<glyph glyph-name="summation" unicode="&#x2211;" horiz-adv-x="537" d="M513 742 L42 742 L42 611 L262 307 L42 3 L42 -128 L513 -128 L513 3 L208 3 L428 307 L208 611 L513 611 L513 742 Z " />
<glyph glyph-name="minus" unicode="&#x2212;" horiz-adv-x="650" d="M98 253 L552 253 L552 381 L98 381 L98 253 Z " />
<glyph glyph-name="radical" unicode="&#x221a;" horiz-adv-x="653" d="M494 742 L310 93 L221 350 L22 350 L22 220 L121 220 L245 -128 L390 -128 L640 742 L494 742 Z " />
<glyph glyph-name="infinity" unicode="&#x221e;" horiz-adv-x="756" d="M537 524 C459 524 412 487 378 439 C343 487 296 524 218 524 C104 524 32 442 32 333 C32 224 104 142 218 142 C296 142 343 179 378 227 C412 179 459 142 537 142 C652 142 723 224 723 333 C723 442 652 524 537 524 L537 524 Z M219 248 C177 248 145 282 145 333 C145 384 177 418 219 418 C264 418 290 380 316 333 C290 286 264 248 219 248 L219 248 Z M537 248 C492 248 465 286 439 333 C465 380 492 418 537 418 C579 418 610 384 610 333 C610 282 579 248 537 248 L537 248 Z " />
<glyph glyph-name="integral" unicode="&#x222b;" horiz-adv-x="407" d="M22 -128 L122 -128 C225 -128 275 -80 275 17 L275 561 C275 603 292 618 333 618 L385 618 L385 742 L285 742 C182 742 132 694 132 597 L132 53 C132 11 115 -4 74 -4 L22 -4 L22 -128 Z " />
<glyph glyph-name="approxequal" unicode="&#x2248;" horiz-adv-x="650" d="M430 337 C478 337 515 353 552 380 L552 508 C523 484 478 464 429 464 C362 464 292 511 222 511 C177 511 136 497 98 469 L98 341 C143 371 176 384 220 384 C293 384 357 337 430 337 L430 337 Z M430 123 C478 123 515 140 552 166 L552 294 C524 271 479 250 429 250 C362 250 292 298 222 298 C178 298 137 284 98 255 L98 127 C141 157 175 171 220 171 C293 171 357 123 430 123 L430 123 Z " />
<glyph glyph-name="notequal" unicode="&#x2260;" horiz-adv-x="650" d="M552 360 L552 488 L449 488 L493 593 L389 593 L345 488 L98 488 L98 360 L291 360 L255 274 L98 274 L98 146 L201 146 L157 41 L261 41 L305 146 L552 146 L552 274 L359 274 L395 360 L552 360 Z " />
<glyph glyph-name="lessequal" unicode="&#x2264;" horiz-adv-x="650" d="M552 609 L98 453 L98 327 L552 170 L552 304 L269 390 L552 476 L552 609 Z M98 0 L552 0 L552 128 L98 128 L98 0 Z " />
<glyph glyph-name="greaterequal" unicode="&#x2265;" horiz-adv-x="650" d="M98 609 L98 476 L381 390 L98 304 L98 170 L552 327 L552 453 L98 609 Z M98 0 L552 0 L552 128 L98 128 L98 0 Z " />
<glyph glyph-name="filledbox" unicode="&#x25a0;" horiz-adv-x="900" d="M100 0 L800 0 L800 700 L100 700 L100 0 Z " />
<glyph glyph-name="triagup" unicode="&#x25b2;" horiz-adv-x="900" d="M100 0 L800 0 L450 700 L100 0 Z " />
<glyph glyph-name="triagdn" unicode="&#x25bc;" horiz-adv-x="900" d="M450 0 L800 700 L100 700 L450 0 Z " />
<glyph glyph-name="uni25C6" unicode="&#x25c6;" horiz-adv-x="900" d="M449 0 L800 349 L449 700 L100 349 L449 0 Z " />
<glyph glyph-name="lozenge" unicode="&#x25ca;" horiz-adv-x="652" d="M19 350 L270 0 L382 0 L633 350 L382 700 L270 700 L19 350 Z M180 349 L326 554 L472 351 L325 146 L180 349 Z " />
<glyph glyph-name="uni25CF" unicode="&#x25cf;" horiz-adv-x="900" d="M450 0 C643 0 800 157 800 350 C800 543 643 700 450 700 C257 700 100 543 100 350 C100 157 257 0 450 0 L450 0 Z " />
<glyph glyph-name="uni2610" unicode="&#x2610;" horiz-adv-x="900" d="M100 0 L800 0 L800 700 L100 700 L100 0 Z M181 76 L181 624 L719 624 L719 76 L181 76 Z " />
<glyph glyph-name="uni2611" unicode="&#x2611;" horiz-adv-x="900" d="M100 700 L100 0 L800 0 L800 700 L100 700 Z M719 76 L181 76 L181 624 L719 624 L719 76 Z M660 515 L554 576 L391 295 L305 345 L241 234 L433 123 L660 515 Z " />
<glyph glyph-name="uni2612" unicode="&#x2612;" horiz-adv-x="900" d="M100 700 L100 0 L800 0 L800 700 L100 700 Z M719 76 L181 76 L181 624 L719 624 L719 76 Z M312 129 L450 267 L588 129 L671 212 L533 350 L671 488 L588 571 L450 433 L312 571 L229 488 L367 350 L229 212 L312 129 Z " />
<glyph glyph-name="heart" unicode="&#x2665;" horiz-adv-x="900" d="M450 48 C593 188 776 221 776 409 C776 541 684 606 599 606 C526 606 459 560 452 470 L448 470 C441 560 374 606 301 606 C216 606 124 541 124 409 C124 221 307 188 450 48 L450 48 Z " />
<glyph glyph-name="uni2B51" unicode="&#x2b51;" horiz-adv-x="900" d="M218 -3 L449 165 L679 -3 L591 267 L822 434 L536 434 L449 705 L362 435 L78 435 L307 269 L218 -3 Z " />
</font>
</svg>
